<svg width="24" height="24" viewBox="0 0 24 24" fill="none" xmlns="http://www.w3.org/2000/svg">
<mask id="mask0_1_50" style="mask-type:luminance" maskUnits="userSpaceOnUse" x="0" y="0" width="24" height="24">
<path d="M24 0H0V24H24V0Z" fill="white"/>
</mask>
<g mask="url(#mask0_1_50)">
<path d="M6.78274 22.8093C8.36037 23.5721 10.1302 24 12.0001 24C13.87 24 15.6399 23.5721 17.2175 22.8093L18.261 12L17.2175 1.19072C15.6399 0.427875 13.87 0 12.0001 0C10.1302 0 8.36037 0.427875 6.78274 1.19072L5.73926 12L6.78274 22.8093Z" fill="#FFDA44"/>
<path d="M17.2173 22.8089C21.2312 20.868 23.9999 16.7575 23.9999 12C23.9999 7.24252 21.2312 3.13205 17.2173 1.19115V22.8089Z" fill="#D80027"/>
<path d="M6.78262 22.8089V1.19115C2.76867 3.13205 0 7.24247 0 12C0 16.7575 2.76867 20.868 6.78262 22.8089Z" fill="#0052B4"/>
<path d="M12 16.1739C12 14.259 12 12 12 12H15.1305V13.5652C15.1305 13.8371 14.6087 14.8335 13.3209 15.6522C12.8332 15.9623 12.3283 16.062 12 16.1739Z" fill="#D80027"/>
<path d="M8.86963 8.86955H12.0001V12H8.86963V8.86955Z" fill="#D80027"/>
<path d="M13.5653 7.82611C13.5653 7.24978 13.0981 6.78263 12.5218 6.78263C12.3315 6.78263 12.1536 6.83438 12.0001 6.92334C11.8465 6.83438 11.6687 6.78263 11.4783 6.78263C10.9021 6.78263 10.4349 7.24978 10.4349 7.82611H7.82617V13.0434C7.82617 14.9858 9.36864 16.109 10.5782 16.6913C10.4877 16.8459 10.4349 17.0253 10.4349 17.2174C10.4349 17.7937 10.9021 18.2609 11.4783 18.2609C11.6687 18.2609 11.8465 18.2092 12.0001 18.1202C12.1537 18.2092 12.3315 18.2609 12.5218 18.2609C13.0981 18.2609 13.5653 17.7937 13.5653 17.2174C13.5653 17.0253 13.5124 16.8459 13.4218 16.6913C14.6314 16.109 16.174 14.9858 16.174 13.0434V7.82611H13.5653ZM14.6088 13.0434C14.6088 13.3154 14.6087 14.1428 13.321 14.9615C12.8332 15.2716 12.3284 15.4727 12.0001 15.5845C11.6717 15.4727 11.1669 15.2716 10.6791 14.9615C9.39138 14.1428 9.39138 13.3154 9.39138 13.0434V9.39131H14.6088V13.0434Z" fill="#FF9811"/>
</g>
</svg>
