<svg width="24" height="24" viewBox="0 0 24 24" fill="none" xmlns="http://www.w3.org/2000/svg">
<mask id="mask0_1_86" style="mask-type:luminance" maskUnits="userSpaceOnUse" x="0" y="0" width="24" height="24">
<path d="M24 0H0V24H24V0Z" fill="white"/>
</mask>
<g mask="url(#mask0_1_86)">
<path d="M0 12C0 12.822 0.082875 13.6245 0.240328 14.4L12 15.1305L23.7597 14.4C23.9172 13.6245 24 12.822 24 12C24 11.178 23.9171 10.3755 23.7597 9.6L12 8.86955L0.240328 9.6C0.082875 10.3755 0 11.178 0 12Z" fill="#0052B4"/>
<path d="M23.7596 14.4H0.240234C1.35206 19.8773 6.19449 24 11.9999 24C17.8053 24 22.6478 19.8773 23.7596 14.4Z" fill="#F0F0F0"/>
<path d="M0.240234 9.6H23.7597C22.6478 4.12266 17.8054 0 11.9999 0C6.19439 0 1.35206 4.12266 0.240234 9.6Z" fill="black"/>
<path d="M17.2175 9.6H6.78271L8.91459 8.59716L7.77932 6.53255L10.0942 6.97528L10.3877 4.63673L12.0001 6.35676L13.6126 4.63673L13.9058 6.97528L16.2209 6.53255L15.0857 8.59725L17.2175 9.6Z" fill="#FFDA44"/>
<path d="M0 12C0 18.6274 5.37262 24 12 24L2.39981 4.79958C0.893062 6.80531 0 9.29826 0 12Z" fill="#A2001D"/>
<path d="M12 24C18.6274 24 24 18.6274 24 12C24 9.29826 23.1069 6.80531 21.6002 4.79958L12 24Z" fill="#A2001D"/>
</g>
</svg>
