<svg width="24" height="24" viewBox="0 0 24 24" fill="none" xmlns="http://www.w3.org/2000/svg">
<mask id="mask0_1_71" style="mask-type:luminance" maskUnits="userSpaceOnUse" x="0" y="0" width="24" height="24">
<path d="M24 0H0V24H24V0Z" fill="white"/>
</mask>
<g mask="url(#mask0_1_71)">
<path d="M24 12C24 18.6274 18.6274 24 12 24C5.37262 24 0 18.6274 0 12C0 12.0029 12 0.0013125 12 0C18.6274 0 24 5.37262 24 12Z" fill="#0052B4"/>
<path d="M11.9678 12H11.9999C11.9999 11.9892 11.9999 11.9787 11.9999 11.9679C11.9892 11.9786 11.9785 11.9893 11.9678 12Z" fill="#F0F0F0"/>
<path d="M12 6.26086C12 4.14938 12 2.76586 12 0H11.998C5.37145 0.001125 0 5.37323 0 12H6.26086V8.47448L9.78638 12H11.9679C11.9786 11.9893 11.9893 11.9786 12 11.9679C12 11.1594 12 10.4381 12 9.78647L8.47444 6.26086H12Z" fill="#F0F0F0"/>
<path d="M6.07126 1.56521C4.19441 2.63391 2.63409 4.19419 1.56543 6.07102V12H4.6959V4.69575V4.69566H12.0002C12.0002 3.70833 12.0002 2.76774 12.0002 1.56521H6.07126Z" fill="#D80027"/>
<path d="M11.9999 10.5243L7.73637 6.26091H6.26074V6.261L11.9998 12H11.9999C11.9999 12 11.9999 10.9825 11.9999 10.5243Z" fill="#D80027"/>
<path d="M20.2942 13.7566C20.6393 13.2818 20.8698 12.7021 20.8698 12V6.78263C20.4337 7.11019 19.8919 7.30434 19.3046 7.30434C18.4512 7.30434 17.6935 6.89452 17.2176 6.26095C16.7416 6.89452 15.984 7.30434 15.1306 7.30434C14.5433 7.30434 14.0014 7.11014 13.5654 6.78272V12C13.5654 12.7021 13.7959 13.2818 14.141 13.7566H20.2942Z" fill="#F3F3F3"/>
<path d="M19.2085 11.0321C19.3746 10.6268 19.5038 10.0344 19.5038 9.73964C19.5038 9.26597 18.8863 8.88202 18.8863 8.88202C18.8863 8.88202 18.2687 9.26597 18.2687 9.73964C18.2687 10.0345 18.398 10.6268 18.564 11.0321L18.2075 11.837C18.4171 11.9222 18.6461 11.9695 18.8863 11.9695C19.1266 11.9695 19.3555 11.9221 19.5651 11.837L19.2085 11.0321Z" fill="#FF9811"/>
<path d="M16.7951 8.42587C16.3612 8.48466 15.7835 8.66911 15.5283 8.81648C15.1181 9.05334 15.0942 9.78005 15.0942 9.78005C15.0942 9.78005 15.7356 10.1228 16.1457 9.88603C16.4011 9.73861 16.8494 9.33061 17.1172 8.98411L17.9927 8.89036C17.9617 8.66639 17.888 8.44434 17.768 8.23636C17.6478 8.02837 17.4925 7.85362 17.3139 7.71473L16.7951 8.42587Z" fill="#FF9811"/>
<path d="M15.745 11.8193C16.0128 12.1657 16.4613 12.5736 16.7166 12.7211C17.1268 12.9579 17.7681 12.6152 17.7681 12.6152C17.7681 12.6152 17.7442 11.8884 17.3341 11.6515C17.0787 11.5041 16.5012 11.3198 16.0672 11.2612L15.5484 10.5499C15.3699 10.6888 15.2144 10.8636 15.0943 11.0714C14.9743 11.2795 14.9008 11.5014 14.8696 11.7255L15.745 11.8193Z" fill="#FF9811"/>
<path d="M14.0117 13.5653C14.9862 15.1289 17.2175 15.6522 17.2175 15.6522C17.2175 15.6522 19.4487 15.1289 20.4232 13.5653H14.0117Z" fill="#338AF3"/>
</g>
</svg>
