<svg width="24" height="24" viewBox="0 0 24 24" fill="none" xmlns="http://www.w3.org/2000/svg">
<mask id="mask0_1_23" style="mask-type:luminance" maskUnits="userSpaceOnUse" x="0" y="0" width="24" height="24">
<path d="M24 0H0V24H24V0Z" fill="white"/>
</mask>
<g mask="url(#mask0_1_23)">
<path d="M12 24C18.6274 24 24 18.6274 24 12C24 5.37258 18.6274 0 12 0C5.37258 0 0 5.37258 0 12C0 18.6274 5.37258 24 12 24Z" fill="#D80027"/>
<path d="M18.7825 8.90667H14.436C14.7043 8.6257 14.8694 8.24531 14.8694 7.82611C14.8694 6.96169 14.1686 6.26091 13.3042 6.26091C12.7596 6.26091 12.2802 6.53916 11.9999 6.96108C11.7195 6.53916 11.2401 6.26091 10.6955 6.26091C9.8311 6.26091 9.13032 6.96169 9.13032 7.82611C9.13032 8.24531 9.29546 8.62575 9.56377 8.90667H5.21729C5.21729 10.0593 6.22121 10.9936 7.37372 10.9936H7.30416C7.30416 12.1463 8.23852 13.0806 9.39118 13.0806C9.39118 13.4539 9.48957 13.8039 9.66132 14.1069L7.93022 15.838L9.25838 17.1661L11.1424 15.2821C11.2162 15.3092 11.2925 15.3309 11.3714 15.3457L10.2329 17.916L11.9999 19.8261L13.7668 17.916L12.6284 15.3456C12.7073 15.3308 12.7836 15.3091 12.8573 15.282L14.7413 17.166L16.0695 15.8379L14.3384 14.1068C14.5102 13.8038 14.6086 13.4538 14.6086 13.0805C15.7612 13.0805 16.6955 12.1462 16.6955 10.9935H16.626C17.7785 10.9935 18.7825 10.0593 18.7825 8.90667Z" fill="black"/>
</g>
</svg>
