<svg width="24" height="24" viewBox="0 0 24 24" fill="none" xmlns="http://www.w3.org/2000/svg">
<mask id="mask0_1_106" style="mask-type:luminance" maskUnits="userSpaceOnUse" x="0" y="0" width="24" height="24">
<path d="M24 0H0V24H24V0Z" fill="white"/>
</mask>
<g mask="url(#mask0_1_106)">
<path d="M24 12C24 10.5322 23.736 9.12605 23.2536 7.82612L12 7.30435L0.746391 7.82607C0.264047 9.12605 0 10.5322 0 12C0 13.4679 0.264047 14.874 0.746391 16.1739L12 16.6957L23.2536 16.1739C23.736 14.874 24 13.4679 24 12Z" fill="#0052B4"/>
<path d="M12 24C17.1595 24 21.558 20.7435 23.2536 16.1739H0.746338C2.44185 20.7435 6.84037 24 12 24Z" fill="#FF9811"/>
<path d="M0.746338 7.82611H23.2536C21.558 3.2565 17.1595 0 12 0C6.84037 0 2.44185 3.2565 0.746338 7.82611Z" fill="#D80027"/>
</g>
</svg>
