<svg width="25" height="24" viewBox="0 0 25 24" fill="none" xmlns="http://www.w3.org/2000/svg">
<mask id="mask0_1_1512" style="mask-type:luminance" maskUnits="userSpaceOnUse" x="0" y="0" width="25" height="24">
<path d="M24.9883 0H0.988281V24H24.9883V0Z" fill="white"/>
</mask>
<g mask="url(#mask0_1_1512)">
<path d="M12.9883 24C19.6157 24 24.9883 18.6274 24.9883 12C24.9883 5.37258 19.6157 0 12.9883 0C6.36085 0 0.988281 5.37258 0.988281 12C0.988281 18.6274 6.36085 24 12.9883 24Z" fill="#F0F0F0"/>
<path d="M12.9882 0C7.82865 0 3.43013 3.2565 1.73462 7.82611H24.2419C22.5463 3.2565 18.1478 0 12.9882 0Z" fill="#A2001D"/>
<path d="M12.9882 23.9999C18.1478 23.9999 22.5463 20.7434 24.2418 16.1738H1.73462C3.43013 20.7434 7.82865 23.9999 12.9882 23.9999Z" fill="#0052B4"/>
</g>
</svg>
