<svg width="24" height="24" viewBox="0 0 24 24" fill="none" xmlns="http://www.w3.org/2000/svg">
<mask id="mask0_1_61" style="mask-type:luminance" maskUnits="userSpaceOnUse" x="0" y="0" width="24" height="24">
<path d="M24 0H0V24H24V0Z" fill="white"/>
</mask>
<g mask="url(#mask0_1_61)">
<path d="M0 12C0 5.37263 5.37262 0 12 0C18.6274 0 24 5.37263 24 12C23.4783 12 12 13.5652 12 13.5652L0 12Z" fill="#D80027"/>
<path d="M24 12C24 18.6274 18.6274 24 12 24C5.37262 24 0 18.6274 0 12" fill="black"/>
<path d="M10.3545 9.54431L11.3718 10.2826L10.9841 11.4783L12.0006 10.7388L13.018 11.4771L12.6289 10.2817L13.6453 9.54234L12.3884 9.54309L11.9991 8.34783L11.6114 9.54352L10.3545 9.54431Z" fill="#FFDA44"/>
<path d="M14.9999 6.80386C14.0543 6.25791 13.0204 6.00023 11.9999 6.00202V7.56689C12.7542 7.56553 13.5183 7.75584 14.2173 8.15944C16.335 9.38212 17.0632 12.0998 15.8405 14.2175C14.6178 16.3352 11.9002 17.0634 9.78248 15.8407C9.16551 15.4845 8.66747 15.0008 8.30034 14.4427L6.99365 15.3054C7.49039 16.0605 8.1652 16.7143 8.9999 17.1961C11.8651 18.8504 15.5418 17.8652 17.196 15C18.8502 12.1348 17.8651 8.45808 14.9999 6.80386Z" fill="#FFDA44"/>
<path d="M8.53996 10.9565C8.12512 11.7149 8.40365 12.666 9.16199 13.0809L14.2455 15.8587C13.8998 16.4906 14.0834 17.2598 14.7154 17.6055L16.0886 18.3567C16.7205 18.7024 17.5132 18.4703 17.8589 17.8383L18.6101 16.4652L8.53996 10.9565Z" fill="#FFDA44"/>
</g>
</svg>
