<svg width="25" height="24" viewBox="0 0 25 24" fill="none" xmlns="http://www.w3.org/2000/svg">
<mask id="mask0_1_2471" style="mask-type:luminance" maskUnits="userSpaceOnUse" x="0" y="0" width="25" height="24">
<path d="M24.4878 0H0.487793V24H24.4878V0Z" fill="white"/>
</mask>
<g mask="url(#mask0_1_2471)">
<path d="M12.4878 24C19.1152 24 24.4878 18.6274 24.4878 12C24.4878 5.37258 19.1152 0 12.4878 0C5.86038 0 0.487793 5.37258 0.487793 12C0.487793 18.6274 5.86038 24 12.4878 24Z" fill="#338AF3"/>
</g>
<path d="M7.33215 11.533C7.21084 11.2904 7.21084 11.2904 7.21084 11.0478C7.15019 11.0478 7.13884 11.0592 7.10373 11.0496C7.06867 11.0402 7.0554 11.2734 6.94169 11.2279C6.92275 11.2051 7.0232 11.0365 6.91422 10.9663C6.87915 10.9435 6.92275 10.8051 6.90756 10.7445C6.90756 10.7445 6.76923 10.8165 6.66498 10.5626C6.61375 10.4962 6.54367 10.6232 6.54367 10.6232C6.54367 10.6232 6.57395 10.7009 6.51901 10.7199C6.4413 10.663 6.38444 10.6928 6.2859 10.6146C6.18733 10.5364 6.30672 10.4469 6.11908 10.3806C6.24039 10.0774 6.24039 10.138 6.54367 10.0167C6.3617 9.89534 6.3617 9.89534 6.24039 9.71337C6.05842 9.65271 5.99776 9.59211 5.81579 9.47079C5.57322 9.16751 5.4519 8.561 5.4519 8.13645C5.60542 7.99428 5.8158 8.62165 6.11908 8.80357L6.54367 8.98559C6.78625 9.1069 6.8469 9.22817 7.02887 9.34948L7.57478 9.53145C7.81736 9.71337 7.93867 9.956 8.12064 10.0167C8.31775 10.0167 8.35572 9.90312 8.41895 9.89609C8.77553 9.87781 8.9575 9.83187 9.02856 9.72476C9.10056 9.6395 9.27301 9.77403 9.75826 9.59211L9.69765 9.34948C9.69765 9.34948 9.82651 9.24336 10.0009 9.28882C9.99615 9.17796 9.98476 8.88228 10.1565 8.74887C10.0522 8.63942 10.1222 8.561 10.1222 8.561C10.1222 8.561 10.2189 8.46809 10.2302 8.41882C10.1791 8.15159 10.2746 8.14742 10.296 8.06881C10.3174 7.9902 10.2135 8.01711 10.2428 7.90873C10.2721 7.80031 10.4478 7.77457 10.4713 7.68528C10.4949 7.59598 10.4212 7.55122 10.4255 7.52989C10.4634 7.44462 10.4312 7.24367 10.4255 7.16595C10.7515 7.07876 10.8576 6.8134 10.9713 6.92337C11.032 6.55943 11.0927 6.43812 11.4566 6.43812C11.5078 6.32628 11.3238 6.2315 11.3959 6.1955C11.5172 6.18036 11.6101 6.18795 11.7523 6.37179C11.7972 6.43006 11.8053 6.28648 11.8508 6.27134C11.8963 6.25615 12.0052 6.25592 12.0213 6.18415C12.0385 6.11023 12.0631 6.01353 12.1238 5.89226C12.175 5.79368 12.2147 5.93014 12.2602 6.1235C12.5162 6.13296 13.0942 6.18982 13.3368 6.25615C13.5188 6.30354 13.6401 6.20876 13.8145 6.18982C13.9434 6.31868 14.0647 6.22203 14.1329 6.49686C14.2292 6.64517 14.3869 6.51017 14.421 6.55376C14.6238 7.11289 15.3213 6.73568 15.3744 6.7452C15.4635 6.7452 15.5723 6.99518 15.6424 6.989C15.7563 6.96978 15.7241 6.89206 15.8236 6.92337C15.797 7.13375 16.0188 7.37637 16.0188 7.53364C16.0188 7.53364 16.0728 7.56022 16.1229 7.51353C16.1729 7.46689 16.2188 7.34698 16.2633 7.34979C16.3695 7.36498 16.4125 7.37862 16.5348 7.4C16.8637 7.51236 17.0312 7.53771 17.1589 7.59528C17.2184 7.70403 17.276 7.75971 17.3964 7.73937C17.4959 7.80626 17.4234 7.89378 17.4821 7.8995C17.6034 7.83884 17.6432 7.77246 17.7645 7.83312C17.8858 7.89378 18.0071 8.01514 18.0678 8.13645C18.0678 8.19706 18.0071 8.43968 18.0678 8.80357C18.0981 8.92489 18.1128 9.02107 18.2431 9.22911C18.2085 9.44286 18.4071 9.80248 18.4071 9.89346C18.4071 10.0148 18.3104 10.0774 18.2497 10.1986C18.4923 10.3806 18.2497 10.6838 18.1285 10.8658C19.0382 11.0478 18.6137 11.4117 19.3415 11.2297C19.1595 11.6543 19.224 11.6202 19.4059 12.0448C19.042 12.2874 19.3984 12.3613 19.1558 12.6645C19.1406 12.6835 19.2998 12.928 19.5235 12.928C19.4628 13.4133 19.2808 13.2313 19.3415 13.9591C18.8638 13.9497 19.0571 14.5032 18.735 14.4444C18.7539 14.7912 18.9188 14.8216 18.8563 15.1722C18.6137 15.2329 18.6137 15.2329 18.4923 15.4148L18.3104 15.3542C18.2497 15.6574 18.1285 15.7181 18.3104 16.0213C18.3104 16.0213 18.0753 16.0289 18.0071 16.0213C18.0014 16.1256 18.1114 16.154 18.1285 16.264C18.119 16.3076 17.7835 16.499 17.5219 16.5066C17.4537 16.6563 17.7039 16.8155 17.6887 16.8913C17.4044 16.9463 17.2793 17.2951 17.2793 17.2951C17.2793 17.2951 17.4252 17.3539 17.4006 17.4164C17.3229 17.3595 17.2793 17.3557 17.158 17.3557C17.0973 17.3709 16.9495 17.352 16.8077 17.5912C16.6522 17.6426 16.5788 17.624 16.4607 17.78C16.4085 17.6314 16.3333 17.7814 16.2415 17.8391C16.1496 17.8969 16.026 18.0404 16.0093 18.0343C16.0131 17.9926 16.0662 17.8409 16.0662 17.8409L15.763 17.9016C15.763 17.9016 15.7494 17.9029 15.7256 17.9053C15.7017 17.9077 15.7081 17.7283 15.6506 17.7348C15.5932 17.7414 15.4287 17.9604 15.3727 17.9673C15.3167 17.9742 15.299 17.8976 15.2508 17.9043C15.2026 17.911 15.1086 18.1354 15.0744 18.1413C15.0403 18.1473 14.9048 18.0049 14.7887 18.0248C14.1917 18.2352 14.0969 17.6097 14.004 17.9622C13.879 17.8959 13.9006 17.9344 13.7735 17.9677C13.6924 17.9886 13.685 17.8605 13.6129 17.8624C13.4686 17.8665 13.4762 18.003 13.3975 17.9622C13.3331 17.6779 12.9445 17.7291 12.9066 17.6078C12.8757 17.4813 13.0749 17.4819 13.1394 17.3962C13.1886 17.2725 13.0879 17.2256 13.2878 17.1063C13.5482 16.9301 13.3985 16.8636 13.4442 16.7312C13.5259 16.54 13.5264 16.4933 13.4581 16.3246C13.4581 16.3246 13.2553 15.7787 13.2155 15.7787C13.0942 15.7446 13.0942 15.9796 12.916 16.0441C12.5521 16.1654 11.9096 15.737 11.7977 15.737C11.6954 15.7389 11.2214 15.8493 11.2393 15.6129C11.1685 15.8427 10.9078 15.6669 10.8918 15.6669C10.6491 15.6669 10.742 15.8546 10.579 15.847C10.505 15.8223 9.75826 15.7787 9.75826 15.7787V15.9L9.27306 15.6574L8.84847 15.5361C8.48458 15.4148 8.66654 15.1115 8.05998 15.2935V14.9296H7.75675C7.87801 14.2017 7.75675 14.5657 7.69609 13.8985L7.45347 13.9591C7.21084 13.6312 7.79083 13.6938 7.2715 13.4739C7.2715 13.4739 7.28097 13.1119 7.15019 13.2313C7.12365 13.2465 7.21084 13.4133 7.21084 13.4133C6.72564 13.3526 6.60433 13.2313 6.60433 12.746C6.60433 12.746 7.00426 12.8029 6.96822 12.746C6.91136 12.6551 6.83744 12.0637 6.8507 12.0239C6.84503 11.9443 7.22223 11.7434 7.14925 11.5519C7.1957 11.5349 7.33215 11.533 7.33215 11.533Z" fill="white"/>
</svg>
