<svg width="24" height="24" viewBox="0 0 24 24" fill="none" xmlns="http://www.w3.org/2000/svg">
<mask id="mask0_1_97" style="mask-type:luminance" maskUnits="userSpaceOnUse" x="0" y="0" width="24" height="24">
<path d="M24 0H0V24H24V0Z" fill="white"/>
</mask>
<g mask="url(#mask0_1_97)">
<path d="M12 24C18.6274 24 24 18.6274 24 12C24 5.37258 18.6274 0 12 0C5.37258 0 0 5.37258 0 12C0 18.6274 5.37258 24 12 24Z" fill="#F0F0F0"/>
<path d="M12.0002 0C7.24265 0 3.13192 2.76867 1.19092 6.78262H22.8094C20.8685 2.76867 16.7577 0 12.0002 0Z" fill="#338AF3"/>
<path d="M12.0002 24C16.7577 24 20.8685 21.2313 22.8095 17.2174H1.19092C3.13192 21.2313 7.24265 24 12.0002 24Z" fill="#338AF3"/>
<path d="M15.5864 12L14.1208 12.6894L14.9012 14.1087L13.3098 13.8043L13.1082 15.4119L11.9997 14.2295L10.8912 15.4119L10.6896 13.8043L9.09821 14.1087L9.87859 12.6893L8.41309 12L9.87863 11.3106L9.09821 9.89133L10.6896 10.1957L10.8913 8.58811L11.9997 9.77048L13.1082 8.58811L13.3098 10.1957L14.9013 9.89133L14.1209 11.3107L15.5864 12Z" fill="#FFDA44"/>
</g>
</svg>
