<svg width="24" height="24" viewBox="0 0 24 24" fill="none" xmlns="http://www.w3.org/2000/svg">
<mask id="mask0_1_39" style="mask-type:luminance" maskUnits="userSpaceOnUse" x="0" y="0" width="24" height="24">
<path d="M24 0H0V24H24V0Z" fill="white"/>
</mask>
<g mask="url(#mask0_1_39)">
<path d="M12 24C18.6274 24 24 18.6274 24 12C24 5.37258 18.6274 0 12 0C5.37258 0 0 5.37258 0 12C0 18.6274 5.37258 24 12 24Z" fill="#F0F0F0"/>
<path d="M17.8217 1.50525C16.0974 0.54675 14.1127 0 12 0C5.37309 0 0.00084375 5.37178 0 11.9986L8.34783 7.82611L17.8217 1.50525Z" fill="#0052B4"/>
<path d="M0 12.0014C0.00084375 18.6282 5.37309 24 12 24C14.1127 24 16.0974 23.4533 17.8217 22.4948L8.34783 16.1739L0 12.0014Z" fill="#0052B4"/>
<path d="M18.8217 2.12729C18.4994 1.90421 18.1654 1.69674 17.8213 1.50545L0 11.9986V12C0 12 0 12.001 0 12.0014L17.8213 22.4945C18.1655 22.3032 18.4994 22.0958 18.8218 21.8727L2.05416 12L18.8217 2.12729Z" fill="#D80027"/>
<path d="M20.8694 11.5525H19.44C19.8117 11.1062 19.7888 10.4423 19.3701 10.0237C19.8136 9.58022 19.8136 8.86111 19.3701 8.41753L19.3433 8.44434C19.7868 8.00086 19.8136 7.25494 19.3701 6.81145L12.9456 13.236C13.3891 13.6795 14.0956 13.6742 14.5391 13.2307L14.6627 13.1177L17.739 12.838V14.1611H18.7825V12.7432L20.3477 12.6009L20.8694 11.5525Z" fill="#A2001D"/>
<path d="M13.0439 14.6087L12 14.087L13.0439 13.5652H19.8264V14.6087H13.0439Z" fill="#FFDA44"/>
</g>
</svg>
