<svg width="24" height="24" viewBox="0 0 24 24" fill="none" xmlns="http://www.w3.org/2000/svg">
<mask id="mask0_1_125" style="mask-type:luminance" maskUnits="userSpaceOnUse" x="0" y="0" width="24" height="24">
<path d="M24 0H0V24H24V0Z" fill="white"/>
</mask>
<g mask="url(#mask0_1_125)">
<path d="M24 12C24 18.6274 18.6274 24 12 24C5.37262 24 0 18.6274 0 12C0 12.0028 12 0.00135937 12 0C18.6274 0 24 5.37262 24 12Z" fill="#0052B4"/>
<path d="M12.0001 0C11.9994 0 11.9987 4.6875e-05 11.998 4.6875e-05L12.0001 0Z" fill="#F0F0F0"/>
<path d="M11.9678 12H11.9999C11.9999 11.9891 11.9999 11.9787 11.9999 11.9679C11.9892 11.9786 11.9785 11.9893 11.9678 12Z" fill="#F0F0F0"/>
<path d="M12 6.2611C12 4.14962 12 2.76601 12 0.000244141H11.998C5.3715 0.00132227 0 5.37343 0 12.0002H6.26086V8.47464L9.78642 12.0002H11.9679C11.9787 11.9895 11.9894 11.9788 12 11.9681C12 11.1596 12 10.4383 12 9.78671L8.47444 6.2611H12Z" fill="#F0F0F0"/>
<path d="M6.07102 1.56522C4.19417 2.63392 2.63389 4.1942 1.56519 6.07102V12H4.69566V4.69571V4.69566H12C12 3.70834 12 2.76775 12 1.56522H6.07102Z" fill="#D80027"/>
<path d="M11.9998 10.5243L7.73641 6.26095H6.26074L11.9998 12C11.9998 12 11.9998 10.9826 11.9998 10.5243Z" fill="#D80027"/>
<path d="M7.23731 14.087L7.89591 15.4641L9.38311 15.1203L8.71711 16.4939L9.91308 17.4423L8.424 17.7779L8.42817 19.3043L7.23731 18.3494L6.0465 19.3043L6.05067 17.7779L4.56152 17.4423L5.75756 16.4939L5.09147 15.1203L6.57877 15.4641L7.23731 14.087Z" fill="#F0F0F0"/>
<path d="M17.9663 16.6956L18.2956 17.3842L19.0392 17.2123L18.7062 17.8991L19.3042 18.3733L18.5596 18.5411L18.5617 19.3043L17.9663 18.8268L17.3709 19.3043L17.3729 18.5411L16.6284 18.3733L17.2264 17.8991L16.8934 17.2123L17.637 17.3842L17.9663 16.6956Z" fill="#F0F0F0"/>
<path d="M14.9031 9.39133L15.2323 10.0799L15.976 9.90798L15.643 10.5947L16.241 11.069L15.4964 11.2368L15.4985 12L14.9031 11.5225L14.3077 12L14.3097 11.2368L13.5652 11.069L14.1632 10.5947L13.8302 9.90798L14.5738 10.0799L14.9031 9.39133Z" fill="#F0F0F0"/>
<path d="M17.9663 5.21738L18.2956 5.90597L19.0392 5.73408L18.7062 6.42085L19.3041 6.89503L18.5596 7.06289L18.5617 7.82611L17.9663 7.3486L17.3709 7.82611L17.3729 7.06289L16.6284 6.89503L17.2264 6.42085L16.8934 5.73408L17.637 5.90597L17.9663 5.21738Z" fill="#F0F0F0"/>
<path d="M20.6421 8.34784L20.9714 9.03643L21.715 8.8645L21.382 9.55126L21.98 10.0255L21.2354 10.1934L21.2375 10.9565L20.6421 10.4791L20.0467 10.9565L20.0487 10.1934L19.3042 10.0255L19.9022 9.55126L19.5692 8.8645L20.3128 9.03643L20.6421 8.34784Z" fill="#F0F0F0"/>
<path d="M18.7288 12L18.9878 12.7972H19.826L19.1479 13.2899L19.4069 14.087L18.7288 13.5943L18.0507 14.087L18.3097 13.2899L17.6316 12.7972H18.4698L18.7288 12Z" fill="#F0F0F0"/>
</g>
</svg>
