<svg width="24" height="24" viewBox="0 0 24 24" fill="none" xmlns="http://www.w3.org/2000/svg">
<mask id="mask0_1_114" style="mask-type:luminance" maskUnits="userSpaceOnUse" x="0" y="0" width="24" height="24">
<path d="M24 0H0V24H24V0Z" fill="white"/>
</mask>
<g mask="url(#mask0_1_114)">
<path d="M12 24C18.6274 24 24 18.6274 24 12C24 5.37258 18.6274 0 12 0C5.37258 0 0 5.37258 0 12C0 18.6274 5.37258 24 12 24Z" fill="#FFDA44"/>
<path d="M12 24C15.6371 24 18.896 22.3817 21.0966 19.8261H2.90344C5.10406 22.3817 8.36295 24 12 24Z" fill="#338AF3"/>
<path d="M24 12C24 5.37262 18.6274 0 12 0C5.37262 0 0 5.37262 0 12C0 13.0831 0.144375 14.1323 0.413391 15.1305H23.5867C23.8556 14.1323 24 13.0831 24 12Z" fill="#338AF3"/>
<path d="M0.953857 16.6956C1.18519 17.2392 1.45561 17.762 1.76128 18.2609H22.2387C22.5444 17.7619 22.8148 17.2392 23.0463 16.6956H0.953857Z" fill="#338AF3"/>
<path d="M5.49929 7.56856L3.15479 6.53384L5.49929 5.49913L6.53397 3.15466L7.56864 5.49913L9.91309 6.53384L7.56864 7.56856L6.53397 9.91302L5.49929 7.56856Z" fill="#F0F0F0"/>
<path d="M6.53386 4.4469L7.17281 5.89481L8.62078 6.53386L7.17281 7.17286L6.53386 8.62078L5.89481 7.17286L4.4469 6.53386L5.89481 5.89481L6.53386 4.4469Z" fill="#D80027"/>
</g>
</svg>
