<svg width="24" height="24" viewBox="0 0 24 24" fill="none" xmlns="http://www.w3.org/2000/svg">
<mask id="mask0_1_150" style="mask-type:luminance" maskUnits="userSpaceOnUse" x="0" y="0" width="24" height="24">
<path d="M24 0H0V24H24V0Z" fill="white"/>
</mask>
<g mask="url(#mask0_1_150)">
<path d="M24 12C24 10.5322 23.736 9.12605 23.2536 7.82612L12 7.30435L0.746391 7.82607C0.264047 9.12605 0 10.5322 0 12C0 13.4679 0.264047 14.874 0.746391 16.1739L12 16.6957L23.2536 16.1739C23.736 14.874 24 13.4679 24 12Z" fill="#D80027"/>
<path d="M12 24C17.1595 24 21.558 20.7435 23.2536 16.1739H0.746338C2.44185 20.7435 6.84037 24 12 24Z" fill="#6DA544"/>
<path d="M0.746338 7.82611H23.2536C21.558 3.2565 17.1595 0 12 0C6.84037 0 2.44185 3.2565 0.746338 7.82611Z" fill="#338AF3"/>
<path d="M12.2609 15.3913C10.388 15.3913 8.86964 13.8729 8.86964 12C8.86964 10.1271 10.388 8.60867 12.2609 8.60867C12.8449 8.60867 13.3944 8.75633 13.8742 9.0163C13.1215 8.28032 12.0923 7.82605 10.9566 7.82605C8.65139 7.82605 6.78271 9.69477 6.78271 11.9999C6.78271 14.3051 8.65143 16.1738 10.9566 16.1738C12.0924 16.1738 13.1216 15.7196 13.8742 14.9836C13.3944 15.2436 12.8449 15.3913 12.2609 15.3913Z" fill="#F0F0F0"/>
<path d="M14.8696 9.65216L15.3188 10.9155L16.5297 10.3398L15.9541 11.5507L17.2174 12L15.9541 12.4492L16.5297 13.6602L15.3188 13.0845L14.8696 14.3478L14.4204 13.0845L13.2094 13.6602L13.7851 12.4492L12.5217 12L13.7851 11.5507L13.2094 10.3398L14.4204 10.9155L14.8696 9.65216Z" fill="#F0F0F0"/>
</g>
</svg>
