<svg width="24" height="24" viewBox="0 0 24 24" fill="none" xmlns="http://www.w3.org/2000/svg">
<mask id="mask0_1_183" style="mask-type:luminance" maskUnits="userSpaceOnUse" x="0" y="0" width="24" height="24">
<path d="M24 0H0V24H24V0Z" fill="white"/>
</mask>
<g mask="url(#mask0_1_183)">
<path d="M17.2175 1.19072C15.6399 0.427875 13.87 0 12.0001 0C10.1303 0 8.36037 0.427875 6.78274 1.19072L5.73926 12L6.78274 22.8093C8.36037 23.5721 10.1303 24 12.0001 24C13.87 24 15.6399 23.5721 17.2175 22.8093L18.261 12L17.2175 1.19072Z" fill="#FFDA44"/>
<path d="M6.78262 1.19113C2.76872 3.13204 0 7.24245 0 12C0 16.7575 2.76872 20.8679 6.78262 22.8088V1.19113Z" fill="#0052B4"/>
<path d="M17.2173 1.19113V22.8088C21.2312 20.8679 23.9999 16.7575 23.9999 12C23.9999 7.2425 21.2312 3.13204 17.2173 1.19113Z" fill="#0052B4"/>
<path d="M15.6523 7.30435L14.9522 6.95438C14.9101 7.0388 13.996 8.89847 13.8467 11.7391H12.7827V7.30435L12.0001 6.26086L11.2175 7.30435V11.7391H10.1535C10.0041 8.89847 9.09015 7.0388 9.04792 6.95438L7.64795 7.65436C7.65761 7.67358 8.60884 9.60976 8.60884 12.5218V13.3044H11.2175V17.7392H12.7827V13.3044H15.3914V12.5217C15.3914 11.0162 15.6519 9.77475 15.8705 8.99841C16.1087 8.15185 16.3508 7.65746 16.3532 7.65254L15.6523 7.30435Z" fill="black"/>
</g>
</svg>
