<svg width="24" height="24" viewBox="0 0 24 24" fill="none" xmlns="http://www.w3.org/2000/svg">
<mask id="mask0_1_176" style="mask-type:luminance" maskUnits="userSpaceOnUse" x="0" y="0" width="24" height="24">
<path d="M24 0H0V24H24V0Z" fill="white"/>
</mask>
<g mask="url(#mask0_1_176)">
<path d="M12 24C18.6274 24 24 18.6274 24 12C24 5.37258 18.6274 0 12 0C5.37258 0 0 5.37258 0 12C0 18.6274 5.37258 24 12 24Z" fill="#496E2D"/>
<path d="M9.39121 17.2174C12.2727 17.2174 14.6086 14.8815 14.6086 12C14.6086 9.1185 12.2727 6.78262 9.39121 6.78262C6.50971 6.78262 4.17383 9.1185 4.17383 12C4.17383 14.8815 6.50971 17.2174 9.39121 17.2174Z" fill="#D80027"/>
</g>
</svg>
