<svg width="24" height="24" viewBox="0 0 24 24" fill="none" xmlns="http://www.w3.org/2000/svg">
<mask id="mask0_1_206" style="mask-type:luminance" maskUnits="userSpaceOnUse" x="0" y="0" width="24" height="24">
<path d="M24 0H0V24H24V0Z" fill="white"/>
</mask>
<g mask="url(#mask0_1_206)">
<path d="M16.1739 0.746391C14.8739 0.264047 13.4678 0 12 0C10.5321 0 9.12606 0.264047 7.82608 0.746391L6.78259 12L7.82608 23.2536C9.12606 23.736 10.5321 24 12 24C13.4678 24 14.8739 23.736 16.1739 23.2536L17.2173 12L16.1739 0.746391Z" fill="#FFDA44"/>
<path d="M23.9999 12C23.9999 6.8405 20.7434 2.44193 16.1738 0.74646V23.2537C20.7434 21.5581 23.9999 17.1597 23.9999 12Z" fill="#D80027"/>
<path d="M0 12C0 17.1597 3.2565 21.5581 7.82611 23.2537V0.74646C3.2565 2.44193 0 6.8405 0 12Z" fill="black"/>
</g>
</svg>
