<svg width="25" height="24" viewBox="0 0 25 24" fill="none" xmlns="http://www.w3.org/2000/svg">
<mask id="mask0_1_344" style="mask-type:luminance" maskUnits="userSpaceOnUse" x="0" y="0" width="25" height="25">
<path d="M24.9883 0.000976562H0.988281V24.001H24.9883V0.000976562Z" fill="white"/>
</mask>
<g mask="url(#mask0_1_344)">
<path d="M0.988281 12.001C0.988281 5.3736 6.36089 0.000976562 12.9883 0.000976562C19.6156 0.000976562 24.9883 5.3736 24.9883 12.001C24.4665 12.001 12.9883 13.5662 12.9883 13.5662L0.988281 12.001Z" fill="#D80027"/>
<path d="M24.9883 12.001C24.9883 18.6284 19.6156 24.001 12.9883 24.001C6.36089 24.001 0.988281 18.6284 0.988281 12.001" fill="#6DA544"/>
<path d="M12.9883 7.82715L13.8948 10.6171H16.8285L14.4551 12.3414L15.3616 15.1315L12.9883 13.4072L10.615 15.1315L11.5216 12.3414L9.14819 10.6171H12.0818L12.9883 7.82715Z" fill="#FFDA44"/>
</g>
</svg>
