<svg width="25" height="24" viewBox="0 0 25 24" fill="none" xmlns="http://www.w3.org/2000/svg">
<mask id="mask0_1_336" style="mask-type:luminance" maskUnits="userSpaceOnUse" x="0" y="0" width="25" height="24">
<path d="M24.9893 0H0.989258V24H24.9893V0Z" fill="white"/>
</mask>
<g mask="url(#mask0_1_336)">
<path d="M24.9892 12C24.9892 10.5321 24.7252 9.12602 24.2429 7.82609L12.9892 7.30432L1.73565 7.82604C1.2533 9.12602 0.989258 10.5321 0.989258 12C0.989258 13.4678 1.2533 14.8739 1.73565 16.1739L12.9892 16.6956L24.2429 16.1739C24.7252 14.8739 24.9892 13.4678 24.9892 12Z" fill="#496E2D"/>
<path d="M12.9892 23.9999C18.1488 23.9999 22.5473 20.7434 24.2428 16.1738H1.7356C3.43111 20.7434 7.82962 23.9999 12.9892 23.9999Z" fill="#D80027"/>
<path d="M1.7356 7.82611H24.2429C22.5473 3.2565 18.1488 0 12.9892 0C7.82962 0 3.43111 3.2565 1.7356 7.82611Z" fill="#F0F0F0"/>
</g>
</svg>
