<svg width="24" height="24" viewBox="0 0 24 24" fill="none" xmlns="http://www.w3.org/2000/svg">
<mask id="mask0_1_352" style="mask-type:luminance" maskUnits="userSpaceOnUse" x="0" y="0" width="24" height="24">
<path d="M24 0H0V24H24V0Z" fill="white"/>
</mask>
<g mask="url(#mask0_1_352)">
<path d="M12 24C18.6274 24 24 18.6274 24 12C24 5.37258 18.6274 0 12 0C5.37258 0 0 5.37258 0 12C0 18.6274 5.37258 24 12 24Z" fill="#F0F0F0"/>
<path d="M19.3067 2.47981C15.0105 -0.826106 8.98955 -0.826106 4.69336 2.47976L12 9.78645L19.3067 2.47981Z" fill="#D80027"/>
<path d="M12 14.2136L4.69336 21.5202C8.98955 24.8261 15.0105 24.8261 19.3067 21.5202L12 14.2135L12 14.2136Z" fill="#D80027"/>
<path d="M9.78655 12L2.47992 4.69336C-0.825988 8.98955 -0.825988 15.0105 2.47992 19.3067L9.78655 12Z" fill="#6DA544"/>
<path d="M14.2136 12L21.5202 19.3067C24.8261 15.0105 24.8261 8.98955 21.5202 4.69336L14.2136 12Z" fill="#6DA544"/>
<path d="M12.0001 17.2173C14.8816 17.2173 17.2175 14.8815 17.2175 12C17.2175 9.11851 14.8816 6.78259 12.0001 6.78259C9.11864 6.78259 6.78271 9.11851 6.78271 12C6.78271 14.8815 9.11864 17.2173 12.0001 17.2173Z" fill="#F0F0F0"/>
<path d="M12 8.34778L12.4518 9.1304H13.3555L12.9037 9.91298L13.3555 10.6956H12.4518L12 11.4782L11.5482 10.6956H10.6445L11.0964 9.91298L10.6445 9.1304H11.5482L12 8.34778Z" fill="#D80027"/>
<path d="M9.70343 12L10.1553 12.7826H11.0589L10.6071 13.5652L11.0589 14.3478H10.1553L9.70343 15.1305L9.25156 14.3478H8.3479L8.79973 13.5652L8.3479 12.7826H9.25156L9.70343 12Z" fill="#D80027"/>
<path d="M14.2967 12L14.7485 12.7826H15.6522L15.2003 13.5652L15.6522 14.3478H14.7485L14.2967 15.1305L13.8448 14.3478H12.9412L13.393 13.5652L12.9412 12.7826H13.8448L14.2967 12Z" fill="#D80027"/>
</g>
</svg>
