<svg width="24" height="24" viewBox="0 0 24 24" fill="none" xmlns="http://www.w3.org/2000/svg">
<mask id="mask0_1_1980" style="mask-type:luminance" maskUnits="userSpaceOnUse" x="0" y="0" width="24" height="24">
<path d="M24 0H0V24H24V0Z" fill="white"/>
</mask>
<g mask="url(#mask0_1_1980)">
<path d="M12 24C18.6274 24 24 18.6274 24 12C24 5.37258 18.6274 0 12 0C5.37258 0 0 5.37258 0 12C0 18.6274 5.37258 24 12 24Z" fill="#F0F0F0"/>
<path d="M21.426 9.65199H17.4782C17.4782 8.93164 16.8942 8.34766 16.1739 8.34766L15.1304 10.4346C15.1304 10.4346 16.2434 13.565 16.2086 13.565H17.513C18.2334 13.565 18.8173 12.9811 18.8173 12.2607C19.5377 12.2607 20.1216 11.6768 20.1216 10.9564H20.0782C20.7986 10.9563 21.426 10.3724 21.426 9.65199Z" fill="#ACABB1"/>
<path d="M2.57397 9.65199H6.52178C6.52178 8.93164 7.10576 8.34766 7.82612 8.34766L8.86961 10.4346C8.86961 10.4346 7.75654 13.565 7.79135 13.565H6.48702C5.76662 13.565 5.18268 12.9811 5.18268 12.2607C4.46229 12.2607 3.87836 11.6768 3.87836 10.9564H3.9218C3.2014 10.9563 2.57397 10.3724 2.57397 9.65199Z" fill="#ACABB1"/>
<path d="M16.1738 16.6953V17.217H7.82596V16.6953H5.73901V18.7823H7.82596V19.304H16.1738V18.7823H18.2607V16.6953H16.1738Z" fill="#FFDA44"/>
<path d="M7.82593 8.3479V13.5652C7.82593 16.7602 11.9998 17.7392 11.9998 17.7392C11.9998 17.7392 16.1737 16.7602 16.1737 13.5652V8.3479L11.9998 7.82617L7.82593 8.3479Z" fill="#0052B4"/>
<path d="M7.82617 10.4346H16.174V13.565H7.82617V10.4346Z" fill="#D80027"/>
<path d="M14.0868 5.73881V6.52142L13.565 6.78231L13.0433 6.26053V4.69531H10.9564V6.26053L10.4346 6.78231L9.91287 6.52142V5.73881H7.82593V8.34748H16.1738V5.73881H14.0868Z" fill="#FFDA44"/>
</g>
</svg>
