<svg width="24" height="24" viewBox="0 0 24 24" fill="none" xmlns="http://www.w3.org/2000/svg">
<mask id="mask0_1_235" style="mask-type:luminance" maskUnits="userSpaceOnUse" x="0" y="0" width="24" height="24">
<path d="M24 0H0V24H24V0Z" fill="white"/>
</mask>
<g mask="url(#mask0_1_235)">
<path d="M24 12C24 18.6274 18.6274 24 12 24C5.37262 24 0 18.6274 0 12C0 12.0029 12 0.0013125 12 0C18.6274 0 24 5.37262 24 12Z" fill="#D80027"/>
<path d="M12.0001 5.73914V9.78646L7.82617 5.73914H12.0001Z" fill="#0052B4"/>
<path d="M6.26098 12H9.78649L6.26098 7.30432L5.73926 10.9565L6.26098 12Z" fill="#0052B4"/>
<path d="M11.9678 12H11.9999C11.9999 11.9892 11.9999 11.9787 11.9999 11.9679C11.9892 11.9786 11.9785 11.9893 11.9678 12Z" fill="#F0F0F0"/>
<path d="M12 6.26086C12 4.14938 12 2.76586 12 0H11.998C5.37145 0.001125 0 5.37323 0 12H6.26086V8.47448L9.78638 12H11.9679C11.9786 11.9893 11.9893 11.9786 12 11.9679C12 11.1594 12 10.4381 12 9.78647L8.47444 6.26086H12Z" fill="#F0F0F0"/>
<path d="M6.07102 1.56519C4.19417 2.63389 2.63384 4.19417 1.56519 6.07099V12.5217H4.69566V4.69573V4.69563H12.5217C12.5217 3.70831 12.5217 2.76772 12.5217 1.56519H6.07102Z" fill="#D80027"/>
<path d="M12.4769 11.0013L7.73637 6.26086H6.26074V6.26096L12.4768 12.477H12.4769C12.4769 12.477 12.4769 11.4595 12.4769 11.0013Z" fill="#D80027"/>
<path d="M13.5652 6.26086V12C13.5652 14.7956 20.8695 14.7956 20.8695 12V6.26086H13.5652Z" fill="#F3F3F3"/>
<path d="M13.5652 12V11.9999C13.5652 14.7956 17.2174 15.6522 17.2174 15.6522C17.2174 15.6522 20.8695 14.7956 20.8695 11.9999V12H13.5652Z" fill="#6DA544"/>
<path d="M17.2174 9.70435L15.5217 10.4348V12L17.2174 13.0435L18.913 12V10.4348L17.2174 9.70435Z" fill="#A2001D"/>
<path d="M15.5217 8.86957H18.913V10.4348H15.5217V8.86957Z" fill="#338AF3"/>
</g>
</svg>
