<svg width="24" height="24" viewBox="0 0 24 24" fill="none" xmlns="http://www.w3.org/2000/svg">
<mask id="mask0_1_321" style="mask-type:luminance" maskUnits="userSpaceOnUse" x="0" y="0" width="24" height="24">
<path d="M24 0H0V24H24V0Z" fill="white"/>
</mask>
<g mask="url(#mask0_1_321)">
<path d="M12.0001 23.9983C18.6265 23.9983 23.9983 18.6265 23.9983 12.0001C23.9983 5.37363 18.6265 0.00183105 12.0001 0.00183105C5.37363 0.00183105 0.00183105 5.37363 0.00183105 12.0001C0.00183105 18.6265 5.37363 23.9983 12.0001 23.9983Z" fill="#F0F0F0"/>
<path d="M1.60928 6.00085C1.06772 6.93875 0.668244 7.9193 0.402222 8.91809L20.4679 20.5031C21.1998 19.7733 21.8493 18.9369 22.3908 17.9991L1.60928 6.00085Z" fill="black"/>
<path d="M17.9993 1.6092C13.1984 -1.16253 7.2789 -0.238743 3.53223 3.4969L23.5979 15.0818C24.9598 9.9694 22.8 4.38098 17.9993 1.6092Z" fill="#FFDA44"/>
<path d="M6.00089 22.3908C10.8017 25.1625 16.7213 24.2387 20.4679 20.5031L0.402184 8.91809C-0.959611 14.0306 1.20006 19.619 6.00089 22.3908Z" fill="#FFDA44"/>
<path d="M15.3908 10.6959C15.3908 12.5685 13.8727 14.0867 12 14.0867C10.1273 14.0867 8.60916 12.5686 8.60916 10.6959C8.60916 10.112 8.75677 9.56257 9.01675 9.08289C8.28094 9.83539 7.82666 10.8644 7.82666 12C7.82666 14.3049 9.69509 16.1734 12 16.1734C14.3049 16.1734 16.1733 14.3049 16.1733 12C16.1733 10.8644 15.7191 9.83539 14.9832 9.08289C15.2432 9.56266 15.3908 10.112 15.3908 10.6959Z" fill="#D80027"/>
<path d="M11.2177 6.78345H12.7826V14.6084H11.2177V6.78345Z" fill="#D80027"/>
<path d="M14.6083 8.34839H9.39172C9.39172 8.70853 9.70546 9.00047 10.0656 9.00047H10.0438C10.0438 9.36061 10.3358 9.65255 10.6959 9.65255C10.6959 10.0127 10.9879 10.3046 11.348 10.3046H12.6521C13.0123 10.3046 13.3042 10.0127 13.3042 9.65255C13.6644 9.65255 13.9563 9.36061 13.9563 9.00047H13.9346C14.2946 9.00042 14.6083 8.70858 14.6083 8.34839Z" fill="#D80027"/>
<path d="M8.34851 15.13H15.6518V16.695H8.34851V15.13Z" fill="#D80027"/>
<path d="M13.5651 15.6517H16.695V17.2167H13.5651V15.6517Z" fill="#D80027"/>
<path d="M7.30518 15.6517H10.4351V17.2167H7.30518V15.6517Z" fill="#D80027"/>
</g>
</svg>
