<svg width="24" height="24" viewBox="0 0 24 24" fill="none" xmlns="http://www.w3.org/2000/svg">
<mask id="mask0_1_260" style="mask-type:luminance" maskUnits="userSpaceOnUse" x="0" y="0" width="24" height="25">
<path d="M24 0.000976562H0V24.001H24V0.000976562Z" fill="white"/>
</mask>
<g mask="url(#mask0_1_260)">
<path d="M24 12.001C24 10.5331 23.736 9.127 23.2536 7.82706L12 7.3053L0.746391 7.82702C0.264 9.127 0 10.5331 0 12.001C0 13.4688 0.264 14.8749 0.746391 16.1748L12 16.6966L23.2536 16.1749C23.736 14.8749 24 13.4688 24 12.001Z" fill="#FFDA44"/>
<path d="M12 24.001C17.1595 24.001 21.558 20.7445 23.2536 16.1749H0.746338C2.44185 20.7445 6.84037 24.001 12 24.001Z" fill="#6DA544"/>
<path d="M0.746338 7.82709H23.2536C21.558 3.25748 17.1595 0.000976562 12 0.000976562C6.84037 0.000976562 2.44185 3.25748 0.746338 7.82709Z" fill="#D80027"/>
</g>
</svg>
