<svg width="24" height="24" viewBox="0 0 24 24" fill="none" xmlns="http://www.w3.org/2000/svg">
<mask id="mask0_1_286" style="mask-type:luminance" maskUnits="userSpaceOnUse" x="0" y="0" width="24" height="24">
<path d="M24 0H0V24H24V0Z" fill="white"/>
</mask>
<g mask="url(#mask0_1_286)">
<path d="M12 24C18.6274 24 24 18.6274 24 12C24 5.37258 18.6274 0 12 0C5.37258 0 0 5.37258 0 12C0 18.6274 5.37258 24 12 24Z" fill="#6DA544"/>
<path d="M11.9999 4.69568L21.913 12L11.9999 19.3044L2.08691 12L11.9999 4.69568Z" fill="#FFDA44"/>
<path d="M12.0001 16.1739C14.3052 16.1739 16.174 14.3052 16.174 12C16.174 9.69483 14.3052 7.82611 12.0001 7.82611C9.69489 7.82611 7.82617 9.69483 7.82617 12C7.82617 14.3052 9.69489 16.1739 12.0001 16.1739Z" fill="#F0F0F0"/>
<path d="M9.91276 11.7391C9.18695 11.7391 8.48649 11.8495 7.82715 12.0544C7.85635 14.3344 9.71279 16.1739 11.9997 16.1739C13.4139 16.1739 14.6628 15.47 15.4178 14.3942C14.1261 12.7771 12.1385 11.7391 9.91276 11.7391Z" fill="#0052B4"/>
<path d="M16.0966 12.7997C16.1469 12.5408 16.174 12.2736 16.174 12C16.174 9.69478 14.3053 7.82611 12.0001 7.82611C10.2801 7.82611 8.80355 8.86678 8.16455 10.3526C8.72939 10.2356 9.31421 10.1739 9.91322 10.1739C12.3375 10.1739 14.5306 11.1816 16.0966 12.7997Z" fill="#0052B4"/>
</g>
</svg>
