<svg width="24" height="24" viewBox="0 0 24 24" fill="none" xmlns="http://www.w3.org/2000/svg">
<mask id="mask0_1_160" style="mask-type:luminance" maskUnits="userSpaceOnUse" x="0" y="0" width="24" height="24">
<path d="M24 0H0V24H24V0Z" fill="white"/>
</mask>
<g mask="url(#mask0_1_160)">
<path d="M12 24C18.6274 24 24 18.6274 24 12C24 5.37258 18.6274 0 12 0C5.37258 0 0 5.37258 0 12C0 18.6274 5.37258 24 12 24Z" fill="#FFDA44"/>
<path d="M7.30436 7.82611H23.2536C21.5581 3.2565 17.1595 0 12 0C8.68623 0 5.68656 1.34339 3.51514 3.51511L7.30436 7.82611Z" fill="#338AF3"/>
<path d="M7.30436 16.1739H23.2536C21.5581 20.7435 17.1595 24 12 24C8.68623 24 5.68656 22.6566 3.51514 20.4849L7.30436 16.1739Z" fill="#338AF3"/>
<path d="M3.51471 3.51468C-1.17157 8.20096 -1.17157 15.799 3.51471 20.4853C5.45128 18.5488 7.31377 16.6863 12 12L3.51471 3.51468Z" fill="black"/>
</g>
</svg>
