<svg width="24" height="24" viewBox="0 0 24 24" fill="none" xmlns="http://www.w3.org/2000/svg">
<mask id="mask0_1_251" style="mask-type:luminance" maskUnits="userSpaceOnUse" x="0" y="0" width="24" height="24">
<path d="M24 0H0V24H24V0Z" fill="white"/>
</mask>
<g mask="url(#mask0_1_251)">
<path d="M20.4853 20.4853C15.799 25.1716 8.20106 25.1716 3.51471 20.4853C-1.17157 15.799 -1.17157 8.201 3.51471 3.51466C3.5164 3.51466 14.2987 0.32871 18.985 5.015C23.6714 9.70128 20.4885 20.482 20.4853 20.4853Z" fill="#FFDA44"/>
<path d="M20.4852 20.4853C25.1715 15.799 25.1715 8.201 20.4852 3.51467C15.7989 -1.17166 8.20095 -1.17161 3.51465 3.51467L20.4852 20.4853Z" fill="#D80027"/>
<path d="M15.1367 15.1379C14.6438 15.3315 14.071 15.3109 13.5741 15.0321C12.6961 14.5393 12.3827 13.424 12.8756 12.5459L12.726 12.462C14.2293 12.0995 15.3415 10.735 15.322 9.12471C15.3099 8.1236 14.8626 7.22796 14.1629 6.61511L13.0673 7.73758C13.4815 8.06767 13.75 8.57402 13.7569 9.14369C13.7691 10.1506 12.9599 10.9796 11.9531 10.9918L11.9552 11.1632C10.8896 10.0426 9.15187 9.76169 7.76714 10.5837C6.90623 11.0948 6.35432 11.9299 6.17334 12.8424L7.69321 13.23C7.77201 12.7062 8.07618 12.2205 8.56607 11.9297C9.4319 11.4157 10.5545 11.702 11.0684 12.5678L11.216 12.4803C10.7783 13.9633 11.4038 15.6087 12.8082 16.397C13.6813 16.887 14.6804 16.9474 15.5611 16.648L15.1367 15.1379Z" fill="#FF9811"/>
<path d="M16.4432 8.12723L15.595 11.154L13.0502 10.6841L11.4121 7.30743L6.98678 8.87779L6.63779 7.89436L5.47998 7.75172L6.35237 10.2103L9.39779 9.43139L10.2632 11.8702L8.158 14.9772L11.7307 18.0243L11.0535 18.8182L11.5089 19.8924L13.2019 17.9075L11.0047 15.6595L12.6841 13.6906L16.4274 13.9604L17.28 9.3427L18.3062 9.53222L19.0088 8.60081L16.4432 8.12723Z" fill="#FFEACF"/>
</g>
</svg>
