<svg width="24" height="24" viewBox="0 0 24 24" fill="none" xmlns="http://www.w3.org/2000/svg">
<mask id="mask0_1_277" style="mask-type:luminance" maskUnits="userSpaceOnUse" x="0" y="0" width="24" height="24">
<path d="M24 0H0V24H24V0Z" fill="white"/>
</mask>
<g mask="url(#mask0_1_277)">
<path d="M0.566626 8.34777C0.199031 9.49944 -4.68667e-05 10.7263 8.276e-09 11.9999C-4.68667e-05 13.2735 0.199031 14.5004 0.566673 15.6521L12 16.1739L23.4333 15.6521C23.8008 14.5004 24 13.2734 24 12C24 10.7264 23.8009 9.49944 23.4333 8.34777L12 7.82605L0.566626 8.34777Z" fill="#F0F0F0"/>
<path d="M24 12C24 11.2881 23.9377 10.5908 23.8187 9.91296H0.181313C0.0623437 10.5908 0 11.288 0 11.9999C0 12.7119 0.0623906 13.4091 0.181313 14.0869H23.8187C23.9376 13.409 24 12.7118 24 12Z" fill="black"/>
<path d="M12.0002 23.9999C17.3541 23.9999 21.8883 20.4935 23.4335 15.652H0.566895C2.11213 20.4935 6.6464 23.9998 12.0002 23.9999Z" fill="#338AF3"/>
<path d="M12.0003 6.1037e-05C6.64645 6.1037e-05 2.11222 3.50645 0.566895 8.3478L23.4335 8.34784C21.8883 3.50645 17.3541 -3.27131e-05 12.0003 6.1037e-05Z" fill="#338AF3"/>
</g>
</svg>
