<svg width="24" height="24" viewBox="0 0 24 24" fill="none" xmlns="http://www.w3.org/2000/svg">
<mask id="mask0_1_192" style="mask-type:luminance" maskUnits="userSpaceOnUse" x="0" y="0" width="24" height="24">
<path d="M24 0H0V24H24V0Z" fill="white"/>
</mask>
<g mask="url(#mask0_1_192)">
<path d="M12 24C18.6274 24 24 18.6274 24 12C24 5.37258 18.6274 0 12 0C5.37258 0 0 5.37258 0 12C0 18.6274 5.37258 24 12 24Z" fill="#FCFCFC"/>
<path d="M4.95668 11.1304L3.65234 8.76405L4.95668 6.43478L6.26103 8.76405L4.95668 11.1304Z" fill="#A2001D"/>
<path d="M2.3478 11.1304L1.04346 8.76405L2.3478 6.43478L3.65214 8.76405L2.3478 11.1304Z" fill="#A2001D"/>
<path d="M4.95668 17.5652L3.65234 15.1988L4.95668 12.8696L6.26103 15.1988L4.95668 17.5652Z" fill="#A2001D"/>
<path d="M2.3478 17.5652L1.04346 15.1988L2.3478 12.8696L3.65214 15.1988L2.3478 17.5652Z" fill="#A2001D"/>
<path d="M6.2609 2.3293L5.89162 1.66986C5.22928 2.0623 4.60804 2.51666 4.03564 3.02497L4.95656 4.69564L6.2609 2.3293Z" fill="#A2001D"/>
<path d="M4.95654 19.3044L4.02588 20.9664C4.59775 21.4753 5.21858 21.9304 5.88064 22.3236L6.26093 21.6337L4.95654 19.3044Z" fill="#A2001D"/>
<path d="M7.3042 15.1305V23.0459C8.7465 23.6598 10.3334 24 11.9999 24C17.1594 24 21.5579 20.7435 23.2535 16.1739L7.3042 15.1305Z" fill="#6DA544"/>
<path d="M23.2535 16.1739C23.7359 14.8739 23.9999 13.4678 23.9999 12C23.9999 5.37263 18.6272 0 11.9999 0C10.3335 0 8.7465 0.339984 7.3042 0.953813V16.1739H23.2535V16.1739Z" fill="#A2001D"/>
</g>
</svg>
