<svg width="24" height="24" viewBox="0 0 24 24" fill="none" xmlns="http://www.w3.org/2000/svg">
<mask id="mask0_1_472" style="mask-type:luminance" maskUnits="userSpaceOnUse" x="0" y="0" width="24" height="24">
<path d="M24 0H0V24H24V0Z" fill="white"/>
</mask>
<g mask="url(#mask0_1_472)">
<path d="M12 24C18.6274 24 24 18.6274 24 12C24 5.37258 18.6274 0 12 0C5.37258 0 0 5.37258 0 12C0 18.6274 5.37258 24 12 24Z" fill="#6DA544"/>
<path d="M18.4211 17.2174L18.7504 17.906L19.494 17.7341L19.161 18.4209L19.759 18.8951L19.0145 19.0629L19.0166 19.8261L18.4211 19.3486L17.8257 19.8261L17.8278 19.0629L17.0833 18.8951L17.6812 18.4209L17.3482 17.7341L18.0918 17.906L18.4211 17.2174Z" fill="#FFDA44"/>
<path d="M15.3576 9.91296L15.687 10.6015L16.4306 10.4296L16.0976 11.1164L16.6955 11.5906L15.951 11.7584L15.9531 12.5217L15.3576 12.0442L14.7622 12.5217L14.7642 11.7584L14.0198 11.5906L14.6178 11.1164L14.2847 10.4296L15.0284 10.6015L15.3576 9.91296Z" fill="#FFDA44"/>
<path d="M18.4211 5.73914L18.7504 6.42768L19.494 6.25574L19.161 6.94256L19.759 7.41679L19.0144 7.58456L19.0164 8.34782L18.4211 7.87031L17.8257 8.34782L17.8277 7.58456L17.0833 7.41679L17.6812 6.94256L17.3482 6.25574L18.0918 6.42768L18.4211 5.73914Z" fill="#FFDA44"/>
<path d="M21.0969 8.86951L21.4262 9.55805L22.1699 9.38616L21.8368 10.073L22.4348 10.5472L21.6903 10.715L21.6923 11.4782L21.0969 11.0007L20.5015 11.4782L20.5035 10.715L19.759 10.5472L20.357 10.073L20.024 9.38616L20.7676 9.55805L21.0969 8.86951Z" fill="#FFDA44"/>
<path d="M19.1836 12.5217L19.4427 13.3189H20.2808L19.6027 13.8116L19.8618 14.6087L19.1836 14.1161L18.5055 14.6087L18.7645 13.8116L18.0864 13.3189H18.9246L19.1836 12.5217Z" fill="#FFDA44"/>
<path d="M13.3042 15.3913C11.4312 15.3913 9.91285 13.8729 9.91285 12C9.91285 10.1271 11.4312 8.60867 13.3042 8.60867C13.8882 8.60867 14.4377 8.75638 14.9174 9.0163C14.1648 8.28027 13.1357 7.82605 11.9998 7.82605C9.69465 7.82605 7.82593 9.69477 7.82593 11.9999C7.82593 14.3051 9.69465 16.1738 11.9998 16.1738C13.1356 16.1738 14.1648 15.7196 14.9174 14.9836C14.4377 15.2436 13.8882 15.3913 13.3042 15.3913Z" fill="#FFDA44"/>
<path d="M7.54629 4.69571C7.18536 4.07208 6.51153 3.65222 5.73922 3.65222C4.9669 3.65222 4.29307 4.07208 3.93213 4.69571H7.54629Z" fill="#FFDA44"/>
<path d="M7.55328 4.70764L5.73926 6.52166L3.92525 4.70764C3.75186 5.01191 3.65234 5.3638 3.65234 5.73908C3.65234 6.89169 4.5867 7.82605 5.73931 7.82605C6.89192 7.82605 7.82628 6.89174 7.82628 5.73908C7.82623 5.3638 7.72667 5.01191 7.55328 4.70764Z" fill="#FFDA44"/>
<path d="M5.21729 6V7.76034C5.38402 7.80323 5.55886 7.82606 5.739 7.82606C5.91914 7.82606 6.09399 7.80319 6.26072 7.76034V6H5.21729Z" fill="#A2001D"/>
</g>
</svg>
