<svg width="24" height="24" viewBox="0 0 24 24" fill="none" xmlns="http://www.w3.org/2000/svg">
<mask id="mask0_1_592" style="mask-type:luminance" maskUnits="userSpaceOnUse" x="0" y="0" width="24" height="24">
<path d="M24 0H0V24H24V0Z" fill="white"/>
</mask>
<g mask="url(#mask0_1_592)">
<path d="M22.6675 6.49763C22.113 5.4233 21.3862 4.41493 20.4857 3.51436C19.585 2.61375 18.5766 1.88696 17.5023 1.33252L9.04849 9.04843L1.33252 17.5023C1.887 18.5766 2.6138 19.585 3.51436 20.4856C4.41493 21.3862 5.42336 22.113 6.49764 22.6674L14.9515 14.9515L22.6675 6.49763Z" fill="#FFDA44"/>
<path d="M3.51431 20.4855C4.0177 20.9889 4.55484 21.4379 5.11825 21.8332L21.8331 5.11823C21.4379 4.55484 20.989 4.0177 20.4856 3.51431C19.9821 3.01092 19.445 2.562 18.8816 2.16675L2.16675 18.8816C2.56195 19.4449 3.01087 19.9822 3.51431 20.4855Z" fill="#D80027"/>
<path d="M3.51441 3.51431C-0.271541 7.30026 -0.998339 12.9861 1.33257 17.5023L17.5024 1.33251C12.9862 -0.998347 7.30031 -0.271457 3.51441 3.51431Z" fill="#338AF3"/>
<path d="M20.4857 20.4857C24.2716 16.6998 24.9984 11.014 22.6676 6.4978L6.4978 22.6676C11.014 24.9984 16.6999 24.2717 20.4857 20.4857Z" fill="#338AF3"/>
<path d="M6.39497 3.65186L7.0425 5.64484H9.138L7.44272 6.87653L8.09025 8.86946L6.39497 7.63773L4.6996 8.86946L5.34722 6.87653L3.65186 5.64484H5.74735L6.39497 3.65186Z" fill="#FFDA44"/>
</g>
</svg>
