<svg width="24" height="25" viewBox="0 0 24 25" fill="none" xmlns="http://www.w3.org/2000/svg">
<mask id="mask0_1_428" style="mask-type:luminance" maskUnits="userSpaceOnUse" x="0" y="0" width="24" height="25">
<path d="M24 0.989258H0V24.9893H24V0.989258Z" fill="white"/>
</mask>
<g mask="url(#mask0_1_428)">
<path d="M12 24.9892C18.6274 24.9892 24 19.6167 24 12.9892C24 6.36182 18.6274 0.989258 12 0.989258C5.37258 0.989258 0 6.36182 0 12.9892C0 19.6167 5.37258 24.9892 12 24.9892Z" fill="#F0F0F0"/>
<path d="M22.5411 7.25009C20.9904 4.40812 18.3241 2.2627 15.1306 1.40198L14.6089 7.25009H22.5411Z" fill="#0052B4"/>
<path d="M1.45898 7.25009H9.39117L8.86945 1.40198C5.676 2.2627 3.00966 4.40817 1.45898 7.25009Z" fill="#0052B4"/>
<path d="M14.6089 12.9893V18.7284H22.5411C23.4713 17.0235 24.0002 15.0682 24.0002 12.9893H14.6089Z" fill="#6DA544"/>
<path d="M9.39131 12.9893H0C0 15.0682 0.528891 17.0235 1.45908 18.7284H9.39127V12.9893H9.39131Z" fill="#6DA544"/>
<path d="M1.45898 18.7284C3.00966 21.5704 5.676 23.7158 8.86945 24.5765L9.39117 19.462L1.45898 18.7284Z" fill="#FFDA44"/>
<path d="M15.1306 24.5765C18.3241 23.7158 20.9904 21.5704 22.5411 18.7284L14.6089 19.4619L15.1306 24.5765Z" fill="#FFDA44"/>
<path d="M14.6089 19.4619L22.5411 18.7284H14.6089V19.4619Z" fill="#FFDA44"/>
<path d="M9.39122 18.7284H1.45898L9.39122 19.4619V18.7284Z" fill="#FFDA44"/>
<path d="M12.0001 0.989258C10.9169 0.989258 9.86779 1.13363 8.86963 1.40265V24.5759C9.86779 24.8449 10.9169 24.9892 12.0001 24.9892C13.0832 24.9892 14.1324 24.8449 15.1305 24.5759V1.40265C14.1324 1.13363 13.0832 0.989258 12.0001 0.989258Z" fill="#D80027"/>
<path d="M6.45438 3.5979L6.7781 4.59432H7.8259L6.9783 5.21017L7.30207 6.20657L6.45438 5.59079L5.60674 6.20657L5.9306 5.21017L5.08301 4.59432H6.13071L6.45438 3.5979Z" fill="#FFDA44"/>
</g>
</svg>
