<svg width="24" height="24" viewBox="0 0 24 24" fill="none" xmlns="http://www.w3.org/2000/svg">
<mask id="mask0_1_1751" style="mask-type:luminance" maskUnits="userSpaceOnUse" x="0" y="0" width="24" height="24">
<path d="M24 0H0V24H24V0Z" fill="white"/>
</mask>
<g mask="url(#mask0_1_1751)">
<path d="M6.5048 22.671L15.3203 15.3206L22.6707 6.50509C21.5279 4.29035 19.7158 2.47727 17.5019 1.33301L8.67942 8.67976L1.33276 17.5022C2.47693 19.7161 4.29001 21.5282 6.5048 22.671Z" fill="#FFDA44"/>
<path d="M20.4855 20.4855C24.2714 16.6996 24.9982 11.0138 22.6673 6.49756L6.49756 22.6673C11.0138 24.9981 16.6996 24.2714 20.4855 20.4855Z" fill="#D80027"/>
<path d="M3.51436 3.51436C-0.271537 7.30026 -0.998285 12.9861 1.33248 17.5023L17.5023 1.33252C12.9861 -0.998336 7.30025 -0.271492 3.51436 3.51436Z" fill="#6DA544"/>
</g>
</svg>
