<svg width="24" height="24" viewBox="0 0 24 24" fill="none" xmlns="http://www.w3.org/2000/svg">
<mask id="mask0_1_510" style="mask-type:luminance" maskUnits="userSpaceOnUse" x="0" y="0" width="24" height="24">
<path d="M24 0H0V24H24V0Z" fill="white"/>
</mask>
<g mask="url(#mask0_1_510)">
<path d="M24 12C24 18.6274 18.6274 24 12 24C5.37262 24 0 18.6274 0 12C0 12.0029 12 0.0013125 12 0C18.6274 0 24 5.37262 24 12Z" fill="#0052B4"/>
<path d="M11.9678 12H11.9999C11.9999 11.9892 11.9999 11.9787 11.9999 11.9679C11.9892 11.9786 11.9785 11.9893 11.9678 12Z" fill="#F0F0F0"/>
<path d="M12 6.26086C12 4.14938 12 2.76586 12 0H11.998C5.37145 0.001125 0 5.37323 0 12H6.26086V8.47448L9.78638 12H11.9679C11.9786 11.9893 11.9893 11.9786 12 11.9679C12 11.1594 12 10.4381 12 9.78647L8.47444 6.26086H12Z" fill="#F0F0F0"/>
<path d="M6.07126 1.56519C4.19441 2.63389 2.63409 4.19417 1.56543 6.071V12H4.6959V4.69573V4.69564H12.0002C12.0002 3.70831 12.0002 2.76772 12.0002 1.56519H6.07126Z" fill="#D80027"/>
<path d="M11.9999 10.5243L7.73637 6.26086H6.26074V6.26096L11.9998 12H11.9999C11.9999 12 11.9999 10.9824 11.9999 10.5243Z" fill="#D80027"/>
<path d="M16.1738 12L16.3959 12.6832H17.1142L16.5331 13.1055L16.7551 13.7888L16.1738 13.3665L15.5926 13.7888L15.8146 13.1055L15.2334 12.6832H15.9518L16.1738 12Z" fill="#F0F0F0"/>
<path d="M13.2224 13.2225L13.8625 13.5486L14.3705 13.0406L14.2581 13.7502L14.8982 14.0764L14.1886 14.1887L14.0763 14.8984L13.7501 14.2582L13.0405 14.3706L13.5486 13.8626L13.2224 13.2225Z" fill="#F0F0F0"/>
<path d="M12 16.1738L12.6832 15.9518L12.6833 15.2335L13.1055 15.8146L13.7888 15.5926L13.3665 16.1738L13.7888 16.7551L13.1055 16.5331L12.6833 17.1143V16.3959L12 16.1738Z" fill="#F0F0F0"/>
<path d="M13.2224 19.1253L13.5485 18.4852L13.0405 17.9772L13.7501 18.0896L14.0763 17.4495L14.1886 18.1591L14.8982 18.2714L14.2581 18.5976L14.3705 19.3072L13.8625 18.7991L13.2224 19.1253Z" fill="#F0F0F0"/>
<path d="M16.1738 20.3479L15.9518 19.6646H15.2334L15.8146 19.2423L15.5926 18.5591L16.1738 18.9813L16.7551 18.5591L16.5331 19.2423L17.1143 19.6646H16.3959L16.1738 20.3479Z" fill="#F0F0F0"/>
<path d="M19.125 19.1253L18.4849 18.7992L17.977 19.3072L18.0893 18.5976L17.4492 18.2715L18.1588 18.1591L18.2712 17.4495L18.5973 18.0896L19.3069 17.9772L18.7988 18.4852L19.125 19.1253Z" fill="#F0F0F0"/>
<path d="M20.3479 16.1738L19.6646 16.3959V17.1143L19.2423 16.5331L18.5591 16.7551L18.9814 16.1738L18.5591 15.5926L19.2423 15.8146L19.6646 15.2335V15.9518L20.3479 16.1738Z" fill="#F0F0F0"/>
<path d="M19.125 13.2225L18.799 13.8626L19.3069 14.3706L18.5973 14.2582L18.2712 14.8984L18.1588 14.1887L17.4492 14.0763L18.0893 13.7502L17.977 13.0406L18.485 13.5486L19.125 13.2225Z" fill="#F0F0F0"/>
</g>
</svg>
