<svg width="24" height="24" viewBox="0 0 24 24" fill="none" xmlns="http://www.w3.org/2000/svg">
<mask id="mask0_1_461" style="mask-type:luminance" maskUnits="userSpaceOnUse" x="0" y="0" width="24" height="24">
<path d="M24 0H0V24H24V0Z" fill="white"/>
</mask>
<g mask="url(#mask0_1_461)">
<path d="M12 24C18.6274 24 24 18.6274 24 12C24 5.37258 18.6274 0 12 0C5.37258 0 0 5.37258 0 12C0 18.6274 5.37258 24 12 24Z" fill="#D80027"/>
<path d="M6.56719 7.3031L7.60312 10.4906H10.9547L8.24531 12.464L9.28125 15.6515L6.56719 13.6828L3.85312 15.6515L4.89375 12.464L2.17969 10.4906H5.53125L6.56719 7.3031Z" fill="#FFDA44"/>
<path d="M14.2265 18.586L13.4343 17.611L12.2624 18.0657L12.9421 17.011L12.1499 16.0313L13.364 16.3547L14.0483 15.3L14.114 16.5563L15.3327 16.8797L14.1562 17.3297L14.2265 18.586Z" fill="#FFDA44"/>
<path d="M15.8015 15.7266L16.1765 14.5266L15.1499 13.8L16.4062 13.7813L16.7765 12.5813L17.1843 13.7719L18.4405 13.7579L17.4327 14.5079L17.8358 15.6985L16.8093 14.9719L15.8015 15.7266Z" fill="#FFDA44"/>
<path d="M17.9251 8.80784L17.372 9.93752L18.272 10.8141L17.0298 10.636L16.4767 11.761L16.261 10.5235L15.0142 10.3453L16.1298 9.7594L15.9142 8.51721L16.8142 9.39377L17.9251 8.80784Z" fill="#FFDA44"/>
<path d="M14.2594 5.38586L14.1657 6.63743L15.3329 7.11086L14.1094 7.41086L14.0204 8.66711L13.3594 7.59836L12.136 7.89836L12.9469 6.93743L12.2813 5.87336L13.4485 6.3468L14.2594 5.38586Z" fill="#FFDA44"/>
</g>
</svg>
