<svg width="24" height="24" viewBox="0 0 24 24" fill="none" xmlns="http://www.w3.org/2000/svg">
<mask id="mask0_1_564" style="mask-type:luminance" maskUnits="userSpaceOnUse" x="0" y="0" width="24" height="24">
<path d="M24 0H0V24H24V0Z" fill="white"/>
</mask>
<g mask="url(#mask0_1_564)">
<path d="M12 24.0002C18.6273 24.0002 23.9999 18.6276 23.9999 12.0002C23.9999 5.37282 18.6273 0.000244141 12 0.000244141C5.37258 0.000244141 0 5.37282 0 12.0002C0 18.6276 5.37258 24.0002 12 24.0002Z" fill="#F0F0F0"/>
<path d="M11.9999 0.00012207C8.07404 0.00012207 4.58871 1.88557 2.39941 4.80012H21.6004C19.4111 1.88553 15.9257 0.00012207 11.9999 0.00012207Z" fill="#0052B4"/>
<path d="M11.9999 24C15.9258 24 19.4111 22.1145 21.6004 19.2H2.39941C4.58866 22.1145 8.07404 24 11.9999 24Z" fill="#0052B4"/>
<path d="M0 12.0001C0 12.8221 0.0828752 13.6246 0.240328 14.4001H23.7597C23.9172 13.6246 24 12.8221 24 12.0001C24 11.1781 23.9171 10.3756 23.7597 9.6001H0.240328C0.0828752 10.3756 0 11.1781 0 12.0001Z" fill="#0052B4"/>
<path d="M3.51468 3.51477C-1.17156 8.201 -1.17156 15.799 3.51468 20.4853C5.45124 18.5488 7.31368 16.6863 12 12.0001L3.51468 3.51477Z" fill="#D80027"/>
<path d="M4.85696 8.86963L5.63387 11.261H8.14853L6.11429 12.739L6.8912 15.1304L4.85696 13.6524L2.82262 15.1304L3.59971 12.739L1.56543 11.261H4.0799L4.85696 8.86963Z" fill="#F0F0F0"/>
</g>
</svg>
