<svg width="25" height="25" viewBox="0 0 25 25" fill="none" xmlns="http://www.w3.org/2000/svg">
<path d="M4.18269 20.7743C8.86898 25.4606 16.467 25.4606 21.1532 20.7743C25.8396 16.088 25.8395 8.49007 21.1532 3.80378C16.467 -0.88251 8.86898 -0.88251 4.18269 3.80378C-0.503603 8.49007 -0.503603 16.088 4.18269 20.7743Z" fill="#012169"/>
<path d="M4.18262 3.80378C8.86892 -0.88251 16.4669 -0.88251 21.1532 3.80378C25.8394 8.49007 25.8395 16.088 21.1532 20.7743" fill="#0DB02B"/>
<path d="M12.6679 16.5213C15.0056 16.5213 16.9007 14.6262 16.9007 12.2885C16.9007 9.95077 15.0056 8.05566 12.6679 8.05566C10.3302 8.05566 8.43506 9.95077 8.43506 12.2885C8.43506 14.6262 10.3302 16.5213 12.6679 16.5213Z" fill="#F7D116"/>
<path d="M10.0805 10.3861C10.3711 10.7846 10.8071 11.4502 11.1633 11.2768C11.4399 11.2768 11.5805 11.2955 11.618 11.4783C12.2696 11.5908 13.3618 11.3143 14.0368 10.4283C14.0368 10.4283 14.093 10.4377 14.0743 10.1002C14.079 9.95489 14.2758 9.98302 14.2805 10.0299C14.3086 10.1049 14.304 10.1565 14.3415 10.1611C14.4258 10.133 14.5383 9.94552 14.6368 9.82833C14.6649 9.77677 14.6508 9.72052 14.6555 9.65489C14.7071 9.52833 14.8336 9.55646 14.8571 9.62208C14.8805 9.66427 14.8805 9.69708 14.904 9.73927C15.0305 9.82364 15.2649 9.74396 15.279 9.74396C15.3024 9.64083 15.368 9.65021 15.368 9.65021C15.4524 9.63146 15.4196 9.64083 15.4758 9.66896C15.4243 10.2315 15.5883 10.2549 15.5743 10.5455C15.579 10.869 15.4758 10.958 15.4758 11.0799C15.5086 11.2299 15.9821 11.2346 15.818 11.3611C15.6727 11.4408 15.818 11.5861 15.5977 11.6424C14.9555 11.9705 14.829 12.2471 14.829 12.2471C14.829 12.2471 14.6696 12.5518 14.6508 12.5518C14.543 12.7533 14.4071 12.6455 14.3321 12.744C14.2946 12.8705 14.2524 13.1471 14.3274 13.2877C14.3649 13.4846 14.3227 13.5924 14.2758 13.7893C14.2336 14.2018 14.0696 14.2627 14.0508 14.408C13.9758 14.5627 14.0649 15.2893 13.9946 15.2893C13.5165 15.2986 13.1461 15.1955 12.9586 15.158C13.1415 14.3611 13.0711 13.6627 13.0711 13.5924C13.0243 13.0252 12.218 13.1611 12.0961 13.0861C11.993 13.0627 11.9321 12.983 11.8946 12.9455C11.7821 12.9315 11.7399 12.908 11.6227 12.894C11.5665 12.9221 11.5993 12.9502 11.4727 12.9924C11.1493 13.0299 11.0086 12.7111 11.0086 12.7111C11.0227 12.6033 10.2868 12.7346 9.88364 12.6408C9.71958 12.7346 9.64927 13.0018 9.51333 13.0346C9.50864 13.119 9.29302 12.9643 9.24614 12.8846C9.23677 12.6455 9.45708 12.5377 9.45708 12.5377C9.63052 12.4158 9.73364 12.3971 9.81802 12.3127C9.8602 12.1018 9.83677 11.9471 9.92583 11.7924C10.0008 11.6705 10.1133 11.7268 10.1883 11.6752C10.268 11.6236 10.3055 11.2674 10.2305 11.1736L9.88833 10.8643C9.7852 10.5596 10.0149 10.3674 10.0805 10.3861Z" fill="#0DB02B"/>
<path d="M7.50826 12.2477L7.09468 11.8632L6.67791 12.2445L6.72315 11.6823L6.16744 11.5918L6.63591 11.2752L6.35809 10.7841L6.89762 10.9521L7.10762 10.4287L7.31115 10.9554L7.85073 10.7938L7.56638 11.2816L8.02843 11.6048L7.46949 11.6855L7.50826 12.2477ZM8.9686 16.9195L8.52273 16.6223L8.08979 16.9357L8.24166 16.4316L7.80226 16.1279L8.34179 16.115L8.50337 15.6142L8.6843 16.1086L9.22383 16.1021L8.79737 16.422L8.9686 16.9195ZM7.58902 20.9419L7.17549 20.5575L6.75868 20.9355L6.80391 20.3733L6.24821 20.2828L6.71668 19.9662L6.43885 19.4751L6.97838 19.6431L7.18838 19.1197L7.39196 19.6463L7.93149 19.4848L7.64719 19.9726L8.10919 20.2958L7.55026 20.3765L7.58902 20.9419ZM3.88646 16.2313L3.47291 15.8468L3.05613 16.2248L3.10136 15.6627L2.54565 15.5722L3.01413 15.2556L2.73627 14.7645L3.27583 14.9325L3.48583 14.4091L3.68938 14.9357L4.22893 14.7742L3.94461 15.2621L4.40663 15.5851L3.84769 15.6659L3.88646 16.2313Z" fill="white"/>
<path d="M11.9087 19.2509L12.3223 19.6386L12.2835 19.0732L12.8424 18.9925L12.3804 18.6693L12.6647 18.1815L12.1251 18.343L11.9216 17.8164L11.7116 18.3398L11.1721 18.1718L11.4499 18.6629L10.9814 18.9795L11.5371 19.07L11.4919 19.6322L11.9087 19.2509Z" fill="white"/>
<path d="M21.1841 6.47717C21.1232 6.4423 21.0813 6.47019 20.9995 6.4423C20.9315 6.41966 20.9437 6.39523 20.8845 6.37611C20.8148 6.35342 20.7816 6.38305 20.6614 6.39524C20.6196 6.39875 20.5534 6.40395 20.515 6.39875C20.36 6.37784 20.238 6.13738 20.1875 5.95442C20.1195 5.71742 20.1666 5.55538 20.1352 5.21389C20.1282 5.1372 20.1108 5.02569 20.069 4.90198C20.0394 4.81312 19.9801 4.67372 19.6926 4.33917C19.3737 3.96977 19.1193 3.76416 19.0514 3.71015C18.9434 3.62302 18.8475 3.55681 18.7778 3.50977C18.7883 3.61779 18.8127 3.7781 18.8719 3.96106C18.9399 4.17364 19.0235 4.32523 19.1036 4.46985C19.2378 4.71031 19.5759 5.30797 19.5288 5.4822C19.5253 5.49266 19.5149 5.52927 19.5044 5.58327C19.4905 5.6547 19.487 5.71395 19.4852 5.75403C19.4417 5.74011 19.3755 5.71569 19.2971 5.67739C19.1524 5.60591 19.0584 5.531 19.0113 5.49439C18.8824 5.39684 18.7569 5.35325 18.5078 5.26269C18.1767 5.14245 17.8665 5.09539 17.6174 5.07969C17.7742 5.30797 17.9275 5.4613 18.0408 5.55716C18.2516 5.73838 18.4746 5.86208 18.5844 5.92306C18.7186 5.99797 18.7743 6.01888 18.9138 6.10775C19.1281 6.24542 19.21 6.33425 19.2622 6.40395C19.3267 6.48936 19.3859 6.56778 19.3999 6.68277C19.4138 6.79428 19.3825 6.91452 19.2884 7.06438C19.0165 7.49473 18.4955 7.73173 18.337 7.79966C18.1383 7.88506 17.8264 8.01748 17.3612 8.08367C17.0092 8.1342 16.4499 8.16209 15.7669 7.97741C15.8383 8.00877 15.9185 8.04012 16.0056 8.06802C16.0997 8.09764 16.1868 8.11855 16.267 8.1342C16.2722 8.13598 16.1554 8.13945 16.0369 8.1133C15.8941 8.08194 15.7808 8.0262 15.7024 7.97914C15.7616 8.0262 15.854 8.09066 15.9725 8.14292C16.1258 8.21089 16.2827 8.24225 16.7461 8.24398C17.0249 8.24572 17.1643 8.24572 17.302 8.2318C17.6958 8.19172 17.9902 8.09591 18.269 8.00005C18.5043 7.91989 18.7046 7.85192 18.9643 7.71777C19.3389 7.52262 19.5166 7.35533 19.933 7.18634C20.0637 7.13408 20.13 7.10619 20.2136 7.08177C20.461 7.00859 20.5551 7.02777 20.7259 6.93195C20.8792 6.84655 20.928 6.75941 20.9419 6.7333C20.9646 6.69148 20.9681 6.66533 20.9925 6.63397C21.057 6.55208 21.1702 6.54861 21.2573 6.55906C21.2469 6.53638 21.2225 6.50155 21.1841 6.47717ZM20.8496 6.55733C20.8391 6.57125 20.82 6.57645 20.8043 6.57298C20.7816 6.566 20.766 6.54163 20.7677 6.512L20.7154 6.48411H20.8496C20.8653 6.5068 20.8635 6.53816 20.8496 6.55733Z" fill="#F7D116"/>
</svg>
