<svg width="24" height="24" viewBox="0 0 24 24" fill="none" xmlns="http://www.w3.org/2000/svg">
<mask id="mask0_1_576" style="mask-type:luminance" maskUnits="userSpaceOnUse" x="0" y="0" width="24" height="24">
<path d="M24 0H0V24H24V0Z" fill="white"/>
</mask>
<g mask="url(#mask0_1_576)">
<path d="M12 24C18.6274 24 24 18.6274 24 12C24 5.37258 18.6274 0 12 0C5.37258 0 0 5.37258 0 12C0 18.6274 5.37258 24 12 24Z" fill="#FCFCFC"/>
<path d="M18.7826 10.4348C18.4174 10.4348 17.9652 10.4348 17.2174 10.4348C17.2174 13.3163 14.8814 15.6522 12 15.6522C9.11844 15.6522 6.78261 13.3163 6.78261 10.4348C6.27824 10.4348 5.72169 10.4348 5.21741 10.4348C5.21741 13.5386 7.30222 16.1555 10.148 16.9615C9.836 17.5541 9.88353 18.3003 10.3292 18.8565C10.9146 18.3873 11.5206 17.9017 12.0348 17.4897C12.5489 17.9017 13.155 18.3874 13.7403 18.8565C14.1904 18.2948 14.2347 17.5391 13.9123 16.9436C16.727 16.1179 18.7826 13.5166 18.7826 10.4348Z" fill="#6DA544"/>
<path d="M7.82617 9.91291C7.82617 9.91291 7.82617 12.5216 10.4349 12.5216L10.9566 13.0433H12.0001C12.0001 13.0433 12.5218 11.4781 13.5653 11.4781C13.5653 11.4781 13.5653 10.4346 14.6088 10.4346C15.6522 10.4346 16.174 10.4346 16.174 10.4346C16.174 10.4346 15.6522 8.34766 18.2609 6.78246L17.2174 6.26074C17.2174 6.26074 13.5653 8.86943 10.9566 8.34771V9.3912H9.91309L9.39138 8.86948L7.82617 9.91291Z" fill="#FFDA44"/>
</g>
</svg>
