<svg width="24" height="24" viewBox="0 0 24 24" fill="none" xmlns="http://www.w3.org/2000/svg">
<mask id="mask0_1_813" style="mask-type:luminance" maskUnits="userSpaceOnUse" x="0" y="0" width="24" height="25">
<path d="M24 0.000976562H0V24.001H24V0.000976562Z" fill="white"/>
</mask>
<g mask="url(#mask0_1_813)">
<path d="M0.746338 16.1748C2.44185 20.7443 6.84037 24.0009 12 24.0009C17.1595 24.0009 21.558 20.7443 23.2536 16.1748L12 15.1313L0.746338 16.1748Z" fill="#FFDA44"/>
<path d="M12 0.000976562C6.84037 0.000976562 2.44185 3.25748 0.746338 7.82709L12 8.87053L23.2536 7.82704C21.558 3.25748 17.1595 0.000976562 12 0.000976562Z" fill="black"/>
<path d="M0.746391 7.82715C0.264047 9.12713 0 10.5332 0 12.001C0 13.4689 0.264047 14.8749 0.746391 16.1749H23.2537C23.736 14.8749 24 13.4689 24 12.001C24 10.5332 23.736 9.12713 23.2536 7.82715H0.746391Z" fill="#D80027"/>
</g>
</svg>
