<svg width="24" height="24" viewBox="0 0 24 24" fill="none" xmlns="http://www.w3.org/2000/svg">
<mask id="mask0_1_612" style="mask-type:luminance" maskUnits="userSpaceOnUse" x="0" y="0" width="24" height="24">
<path d="M24 0H0V24H24V0Z" fill="white"/>
</mask>
<g mask="url(#mask0_1_612)">
<path d="M10.9565 13.0435C10.9565 13.0435 3.52168 3.51305 3.51465 3.51473C5.68616 1.34316 8.6862 0 11.9999 0C18.6273 0 23.9999 5.37262 23.9999 12L10.9565 13.0435Z" fill="#338AF3"/>
<path d="M10.9565 12C10.9565 12 3.52168 20.487 3.51465 20.4853C5.68616 22.6568 8.6862 24 11.9999 24C18.6273 24 23.9999 18.6274 23.9999 12H10.9565Z" fill="#6DA544"/>
<path d="M3.51471 3.51465C-1.17157 8.20093 -1.17157 15.7989 3.51471 20.4853C5.45128 18.5487 7.31377 16.6862 12 12L3.51471 3.51465Z" fill="#F0F0F0"/>
<path d="M4.85672 8.86963L5.63367 11.261H8.14833L6.11405 12.7391L6.89095 15.1305L4.85672 13.6525L2.82237 15.1305L3.59947 12.7391L1.56519 11.261H4.07965L4.85672 8.86963Z" fill="#D80027"/>
</g>
</svg>
