<svg width="24" height="24" viewBox="0 0 24 24" fill="none" xmlns="http://www.w3.org/2000/svg">
<mask id="mask0_1_602" style="mask-type:luminance" maskUnits="userSpaceOnUse" x="0" y="0" width="24" height="24">
<path d="M24 0H0V24H24V0Z" fill="white"/>
</mask>
<g mask="url(#mask0_1_602)">
<path d="M12 24C18.6274 24 24 18.6274 24 12C24 5.37258 18.6274 0 12 0C5.37258 0 0 5.37258 0 12C0 18.6274 5.37258 24 12 24Z" fill="#F0F0F0"/>
<path d="M9.3914 10.4348H23.8985C23.1314 4.54697 18.0969 0 12 0C11.104 0 10.2314 0.0990469 9.39136 0.285234L9.3914 10.4348Z" fill="#D80027"/>
<path d="M6.26084 10.4347V1.45898C2.96586 3.25683 0.607016 6.55453 0.101562 10.4347L6.26084 10.4347Z" fill="#D80027"/>
<path d="M6.2608 13.5652H0.101562C0.607016 17.4454 2.96586 20.7431 6.26084 22.5409L6.2608 13.5652Z" fill="#D80027"/>
<path d="M9.39136 13.5652V23.7147C10.2314 23.9009 11.104 24 12 24C18.0969 24 23.1314 19.453 23.8985 13.5652H9.39136V13.5652Z" fill="#D80027"/>
</g>
</svg>
