<svg width="24" height="25" viewBox="0 0 24 25" fill="none" xmlns="http://www.w3.org/2000/svg">
<mask id="mask0_1_621" style="mask-type:luminance" maskUnits="userSpaceOnUse" x="0" y="0" width="24" height="25">
<path d="M24 0.989258H0V24.9893H24V0.989258Z" fill="white"/>
</mask>
<g mask="url(#mask0_1_621)">
<path d="M12 24.9892C18.6274 24.9892 24 19.6167 24 12.9892C24 6.36182 18.6274 0.989258 12 0.989258C5.37258 0.989258 0 6.36182 0 12.9892C0 19.6167 5.37258 24.9892 12 24.9892Z" fill="#F0F0F0"/>
<path d="M14.3479 24.759C19.0918 23.818 22.8287 20.081 23.7698 15.3372H14.3479V24.759Z" fill="#496E2D"/>
<path d="M0.230225 15.3372C1.17124 20.081 4.9082 23.818 9.65209 24.759V15.3372H0.230225Z" fill="#496E2D"/>
<path d="M23.7698 10.6413C22.8287 5.8975 19.0918 2.16055 14.3479 1.21948V10.6413H23.7698Z" fill="#496E2D"/>
<path d="M9.65209 1.21948C4.9082 2.16055 1.17124 5.8975 0.230225 10.6413H9.65209V1.21948Z" fill="#496E2D"/>
<path d="M11.2173 15.3372H9.6521V24.759C10.1629 24.8603 10.6854 24.929 11.2173 24.9632V15.3372Z" fill="#FFDA44"/>
<path d="M11.2173 10.6414V1.01538C10.6854 1.0496 10.1628 1.11827 9.6521 1.21957V10.6414H11.2173Z" fill="#FFDA44"/>
<path d="M12.7825 1.01537C12.5237 0.998633 12.2629 0.989258 11.9999 0.989258C11.7369 0.989258 11.4761 0.998633 11.2173 1.01537V10.6415H12.7825V1.01537H12.7825Z" fill="black"/>
<path d="M11.2173 24.9632C11.4761 24.98 11.7369 24.9893 11.9999 24.9893C12.2629 24.9893 12.5237 24.98 12.7825 24.9632V15.3372H11.2173L11.2173 24.9632Z" fill="black"/>
<path d="M9.6522 12.2066V10.6414H0.23031C0.128967 11.1522 0.0603417 11.6747 0.026123 12.2066H9.6522Z" fill="#FFDA44"/>
<path d="M14.3479 12.2066H23.974C23.9398 11.6747 23.8711 11.1522 23.7698 10.6414H14.3479V12.2066H14.3479Z" fill="#FFDA44"/>
<path d="M14.3479 13.7718H23.974C23.9907 13.513 24.0001 13.2522 24.0001 12.9892C24.0001 12.7262 23.9907 12.4653 23.974 12.2065H14.3479V13.7718Z" fill="black"/>
<path d="M0.0261094 12.2065C0.00942187 12.4653 0 12.7262 0 12.9892C0 13.2522 0.00942187 13.513 0.0261094 13.7718H9.65222V12.2066H0.0261094V12.2065Z" fill="black"/>
<path d="M11.9999 18.7283C15.1695 18.7283 17.739 16.1588 17.739 12.9891C17.739 9.8195 15.1695 7.25 11.9999 7.25C8.83024 7.25 6.26074 9.8195 6.26074 12.9891C6.26074 16.1588 8.83024 18.7283 11.9999 18.7283Z" fill="#D80027"/>
<path d="M13.3075 13.6295C12.8806 12.7757 12.3258 11.9104 12.3258 11.9104C12.3258 11.9104 12.3395 11.5164 12.3395 11.2817C12.3395 10.928 12.0529 10.6414 11.6992 10.6414C11.3642 10.6414 11.0897 10.8987 11.0617 11.2265C10.7983 11.2437 10.5898 11.4622 10.5898 11.7299C10.5898 11.9246 10.7001 12.0933 10.8616 12.1776C10.9418 11.99 11.099 11.8434 11.2933 11.7766C11.325 11.8025 11.359 11.8257 11.3953 11.8453L11.4774 11.8846C11.4774 11.8846 11.1732 12.742 11.1732 13.2026C11.1732 14.4975 12.027 14.8968 12.027 14.8968V14.9102L11.6001 15.337H12.4538V14.4832L12.8807 14.9101C12.8845 14.9021 13.6893 14.3931 13.3075 13.6295Z" fill="#496E2D"/>
<path d="M12.0001 8.2937L12.1943 8.89154H12.8229L12.3144 9.26106L12.5087 9.8589L12.0001 9.48944L11.4915 9.8589L11.6858 9.26106L11.1772 8.89154H11.8058L12.0001 8.2937Z" fill="#496E2D"/>
<path d="M9.23988 9.19048L9.74838 9.55999L10.257 9.19043L10.0627 9.78837L10.5713 10.1578L9.94268 10.1578L9.74843 10.7557L9.55413 10.1578L8.92554 10.1578L9.43408 9.78827L9.23988 9.19048Z" fill="#496E2D"/>
<path d="M7.53418 11.5383H8.16273L8.35702 10.9404L8.55127 11.5383L9.17991 11.5382L8.67137 11.9078L8.86566 12.5056L8.35702 12.1361L7.84848 12.5056L8.04268 11.9077L7.53418 11.5383Z" fill="#496E2D"/>
<path d="M7.53418 14.4402L8.04268 14.0708L7.84843 13.4729L8.35702 13.8424L8.86562 13.4729L8.67137 14.0707L9.17996 14.4403L8.55127 14.4403L8.35702 15.0381L8.16273 14.4402H7.53418Z" fill="#496E2D"/>
<path d="M9.23993 16.7881L9.43413 16.1903L8.92554 15.8208H9.55418L9.74847 15.2229L9.94272 15.8207H10.5714L10.0628 16.1903L10.257 16.7881L9.74843 16.4186L9.23993 16.7881Z" fill="#496E2D"/>
<path d="M12.0001 17.6848L11.8058 17.0871H11.1772L11.6858 16.7175L11.4915 16.1197L12.0001 16.4891L12.5086 16.1196L12.3144 16.7175L12.8229 17.087L12.1943 17.0871L12.0001 17.6848Z" fill="#496E2D"/>
<path d="M14.7599 16.7881L14.2514 16.4186L13.7429 16.7882L13.9371 16.1903L13.4285 15.8208L14.0571 15.8207L14.2513 15.2229L14.4457 15.8208H15.0742L14.5657 16.1903L14.7599 16.7881Z" fill="#496E2D"/>
<path d="M16.4658 14.4402H15.8373L15.643 15.0381L15.4488 14.4403H14.8201L15.3287 14.0707L15.1344 13.4729L15.643 13.8424L16.1515 13.4729L15.9573 14.0707L16.4658 14.4402Z" fill="#496E2D"/>
<path d="M16.4658 11.5382L15.9573 11.9077L16.1516 12.5055L15.643 12.1361L15.1344 12.5056L15.3287 11.9077L14.8201 11.5383L15.4488 11.5382L15.643 10.9404L15.8373 11.5382H16.4658Z" fill="#496E2D"/>
<path d="M14.7599 9.19043L14.5657 9.78823L15.0742 10.1577H14.4457L14.2514 10.7556L14.0571 10.1578L13.4285 10.1578L13.9371 9.78823L13.7428 9.19048L14.2514 9.5599L14.7599 9.19043Z" fill="#496E2D"/>
</g>
</svg>
