<svg width="24" height="24" viewBox="0 0 24 24" fill="none" xmlns="http://www.w3.org/2000/svg">
<mask id="mask0_1_651" style="mask-type:luminance" maskUnits="userSpaceOnUse" x="0" y="0" width="24" height="24">
<path d="M24 0H0V24H24V0Z" fill="white"/>
</mask>
<g mask="url(#mask0_1_651)">
<path d="M12 24C18.6274 24 24 18.6274 24 12C24 5.37258 18.6274 0 12 0C5.37258 0 0 5.37258 0 12C0 18.6274 5.37258 24 12 24Z" fill="#F0F0F0"/>
<path d="M0.413574 15.1304C1.5216 19.2414 4.75864 22.4785 8.86976 23.5866V15.1304H0.413574Z" fill="#D80027"/>
<path d="M8.86972 0.41333C4.75864 1.52132 1.52156 4.75841 0.413574 8.86949H8.86976V0.41333H8.86972Z" fill="#0052B4"/>
<path d="M23.5865 8.86949C22.4785 4.75841 19.2414 1.52132 15.1304 0.41333V8.86953H23.5865V8.86949Z" fill="#D80027"/>
<path d="M15.1304 23.5866C19.2414 22.4785 22.4785 19.2415 23.5866 15.1304H15.1304V23.5866Z" fill="#0052B4"/>
<path d="M15.1305 12.0001C15.1305 13.729 13.729 15.1305 12.0001 15.1305C10.2712 15.1305 8.86963 13.729 8.86963 12.0001C8.86963 10.2711 12.0001 8.86963 12.0001 8.86963C12.0001 8.86963 15.1305 10.2711 15.1305 12.0001Z" fill="#496E2D"/>
<path d="M8.86963 12.0001C8.86963 10.2711 10.2712 8.86963 12.0001 8.86963C13.729 8.86963 15.1305 10.2711 15.1305 12.0001" fill="#0052B4"/>
<path d="M10.2393 10.4348V12.3913C10.2393 13.3638 11.0276 14.1522 12.0001 14.1522C12.9726 14.1522 13.761 13.3638 13.761 12.3913V10.4348H10.2393Z" fill="#D80027"/>
</g>
</svg>
