<svg width="24" height="24" viewBox="0 0 24 24" fill="none" xmlns="http://www.w3.org/2000/svg">
<mask id="mask0_1_30" style="mask-type:luminance" maskUnits="userSpaceOnUse" x="0" y="0" width="24" height="24">
<path d="M24 0H0V24H24V0Z" fill="white"/>
</mask>
<g mask="url(#mask0_1_30)">
<path d="M12 0C18.6274 0 24 5.37262 24 12C24 18.6274 18.6274 24 12 24C12 23.4783 10.4348 12 10.4348 12L12 0Z" fill="#F0F0F0"/>
<path d="M12 24C5.37262 24 0 18.6274 0 12C0 5.37262 5.37262 0 12 0" fill="#496E2D"/>
<path d="M14.5784 9.69825L13.5938 11.055L11.9993 10.5379L12.9854 11.8935L12.001 13.2503L13.5949 12.7314L14.581 14.087L14.58 12.4107L16.174 11.8917L14.5795 11.3746L14.5784 9.69825Z" fill="#D80027"/>
<path d="M12.9956 15.3913C11.1226 15.3913 9.60426 13.8729 9.60426 12C9.60426 10.1271 11.1226 8.60869 12.9956 8.60869C13.5795 8.60869 14.1291 8.75634 14.6088 9.01631C13.8561 8.28033 12.827 7.82606 11.6912 7.82606C9.38601 7.82606 7.51733 9.69478 7.51733 12C7.51733 14.3051 9.38605 16.1738 11.6912 16.1738C12.827 16.1738 13.8562 15.7196 14.6088 14.9836C14.1291 15.2437 13.5795 15.3913 12.9956 15.3913Z" fill="#D80027"/>
</g>
</svg>
