<svg width="24" height="24" viewBox="0 0 24 24" fill="none" xmlns="http://www.w3.org/2000/svg">
<mask id="mask0_1_664" style="mask-type:luminance" maskUnits="userSpaceOnUse" x="0" y="0" width="24" height="24">
<path d="M24 0H0V24H24V0Z" fill="white"/>
</mask>
<g mask="url(#mask0_1_664)">
<path d="M0 12C0 5.37262 5.37262 0 12 0C18.6274 0 24 5.37262 24 12L12 13.0435L0 12Z" fill="#FFDA44"/>
<path d="M1.60596 17.9999C3.68088 21.5866 7.55857 23.9999 12.0002 23.9999C16.4419 23.9999 20.3195 21.5866 22.3945 17.9999L12.0002 17.2173L1.60596 17.9999Z" fill="#D80027"/>
<path d="M22.3942 18C23.4153 16.235 24 14.1858 24 12H0C0 14.1858 0.584719 16.235 1.60575 18H22.3942Z" fill="#0052B4"/>
<path d="M12.0001 16.174C14.3052 16.174 16.174 14.3052 16.174 12.0001C16.174 9.69489 14.3052 7.82617 12.0001 7.82617C9.69489 7.82617 7.82617 9.69489 7.82617 12.0001C7.82617 14.3052 9.69489 16.174 12.0001 16.174Z" fill="#FFDA44"/>
<path d="M11.9998 14.6088C10.5613 14.6088 9.39111 13.4385 9.39111 12.0001V10.4349C9.39111 8.99641 10.5614 7.82617 11.9998 7.82617C13.4382 7.82617 14.6085 8.99645 14.6085 10.4349V12.0001C14.6085 13.4385 13.4383 14.6088 11.9998 14.6088Z" fill="#338AF3"/>
<path d="M16.174 5.73904H13.0436C13.0436 5.16276 12.5764 4.69556 12.0001 4.69556C11.4238 4.69556 10.9566 5.16276 10.9566 5.73904H7.82617C7.82617 6.31537 8.32816 6.78253 8.90439 6.78253H8.86966C8.86966 7.35885 9.33681 7.82601 9.91314 7.82601C9.91314 8.40234 10.3803 8.86949 10.9566 8.86949H13.0436C13.6199 8.86949 14.0871 8.40234 14.0871 7.82601C14.6634 7.82601 15.1306 7.35885 15.1306 6.78253H15.0958C15.6721 6.78253 16.174 6.31532 16.174 5.73904Z" fill="black"/>
</g>
</svg>
