<svg width="24" height="24" viewBox="0 0 24 24" fill="none" xmlns="http://www.w3.org/2000/svg">
<mask id="mask0_1_707" style="mask-type:luminance" maskUnits="userSpaceOnUse" x="0" y="0" width="24" height="24">
<path d="M24 0H0V24H24V0Z" fill="white"/>
</mask>
<g mask="url(#mask0_1_707)">
<path d="M10.9565 10.9565C10.9565 10.9565 3.52168 20.487 3.51465 20.4853C5.68616 22.6569 8.6862 24 11.9999 24C18.6273 24 23.9999 18.6274 23.9999 12L10.9565 10.9565Z" fill="#338AF3"/>
<path d="M10.9565 12C10.9565 12 3.52168 3.51305 3.51465 3.51473C5.68616 1.34316 8.6862 0 11.9999 0C18.6273 0 23.9999 5.37262 23.9999 12H10.9565Z" fill="#6DA544"/>
<path d="M3.51471 3.51465C-1.17157 8.20093 -1.17157 15.7989 3.51471 20.4853C3.51438 20.4872 24 12 24 12L3.51471 3.51465Z" fill="#D80027"/>
<path d="M6.2609 7.04346C3.95941 7.04346 2.08704 8.91588 2.08704 11.2173V12.7826C2.08704 15.0841 3.95946 16.9564 6.2609 16.9564C8.56237 16.9564 10.4348 15.084 10.4348 12.7826V11.2173C10.4348 8.91588 8.56242 7.04346 6.2609 7.04346ZM8.86959 12.7826C8.86959 13.9485 8.10075 14.938 7.04348 15.2712V13.5652L8.15086 12.4578L7.04409 11.3511L7.04348 10.9572V10.4348H5.47833V12L4.37172 13.1066L5.47833 14.2131V15.2712C4.42108 14.938 3.65224 13.9485 3.65224 12.7826V11.2174C3.65224 9.77899 4.8225 8.60875 6.2609 8.60875C7.69931 8.60875 8.86959 9.77904 8.86959 11.2174V12.7826Z" fill="#FFDA44"/>
</g>
</svg>
