<svg width="24" height="25" viewBox="0 0 24 25" fill="none" xmlns="http://www.w3.org/2000/svg">
<mask id="mask0_1_724" style="mask-type:luminance" maskUnits="userSpaceOnUse" x="0" y="0" width="24" height="25">
<path d="M24 0.989258H0V24.9893H24V0.989258Z" fill="white"/>
</mask>
<g mask="url(#mask0_1_724)">
<path d="M0 12.9893C0 14.4573 0.264047 15.8633 0.746437 17.1634L12 18.2067L23.2536 17.1633C23.736 15.8633 24 14.4572 24 12.9893C24 11.5416 23.7435 10.1538 23.2737 8.8688L12 7.77197L0.726281 8.86885C0.256453 10.1538 0 11.5416 0 12.9893Z" fill="#FFDA44"/>
<path d="M12 24.9892C17.1595 24.9892 21.558 21.7327 23.2536 17.1631H0.746338C2.44185 21.7327 6.84037 24.9892 12 24.9892Z" fill="#D80027"/>
<path d="M12 0.989258C6.84037 0.989258 2.44185 4.24576 0.746338 8.81536H23.2536C21.558 4.24576 17.1595 0.989258 12 0.989258Z" fill="#6DA544"/>
<path d="M11.9999 18.7283C15.1695 18.7283 17.739 16.1588 17.739 12.9891C17.739 9.8195 15.1695 7.25 11.9999 7.25C8.83024 7.25 6.26074 9.8195 6.26074 12.9891C6.26074 16.1588 8.83024 18.7283 11.9999 18.7283Z" fill="#0052B4"/>
<path d="M11.9988 8.54517L13.0348 11.7337H16.3928L13.6751 13.7044L14.7192 16.9024L11.9988 14.9223L9.28244 16.8987L10.3224 13.7044L7.60718 11.7337H10.9627L11.9988 8.54517Z" fill="#FFDA44"/>
<path d="M16.1308 13.7829L12.8441 12.7149L14.8753 9.91931L14.0312 9.30591L11.9999 12.1017L9.96872 9.30596L9.1245 9.91927L11.1557 12.7151L7.86914 13.7829L8.19155 14.7754L11.4782 13.7075V17.1632H12.5217V13.7075L15.8082 14.7754L16.1308 13.7829Z" fill="#FFDA44"/>
</g>
</svg>
