<svg width="24" height="24" viewBox="0 0 24 24" fill="none" xmlns="http://www.w3.org/2000/svg">
<mask id="mask0_1_743" style="mask-type:luminance" maskUnits="userSpaceOnUse" x="0" y="0" width="24" height="24">
<path d="M24 0H0V24H24V0Z" fill="white"/>
</mask>
<g mask="url(#mask0_1_743)">
<path d="M24 12C24 18.6274 18.6274 24 12 24C5.37262 24 0 18.6274 0 12C0 12.0029 12 0.0013125 12 0C18.6274 0 24 5.37262 24 12Z" fill="#338AF3"/>
<path d="M12.0001 5.73926V9.78659L7.82617 5.73926H12.0001Z" fill="#0052B4"/>
<path d="M6.26098 12.0001H9.78654L6.26098 7.30444L5.73926 10.9566L6.26098 12.0001Z" fill="#0052B4"/>
<path d="M11.9678 11.9999H11.9999C11.9999 11.9891 11.9999 11.9786 11.9999 11.9678C11.9892 11.9785 11.9785 11.9892 11.9678 11.9999Z" fill="#F0F0F0"/>
<path d="M12 6.26086C12 4.14938 12 2.76586 12 0H11.998C5.3715 0.001125 0 5.37323 0 12H6.26086V8.47448L9.78642 12H11.968C11.9787 11.9893 11.9894 11.9786 12.0001 11.9679C12.0001 11.1594 12.0001 10.4381 12.0001 9.78647L8.47444 6.26086H12Z" fill="#F0F0F0"/>
<path d="M6.07102 1.56519C4.19417 2.63389 2.63389 4.19417 1.56519 6.071V12H4.69566V4.69573V4.69564H12C12 3.70831 12 2.76772 12 1.56519H6.07102Z" fill="#D80027"/>
<path d="M11.9998 10.5244L7.73641 6.26099H6.26074V6.26108L11.9997 12.0001H11.9998C11.9998 12.0001 11.9998 10.9826 11.9998 10.5244Z" fill="#D80027"/>
<path d="M13.5652 7.8262V12C13.5652 14.7957 17.2174 15.6523 17.2174 15.6523C17.2174 15.6523 20.8695 14.7957 20.8695 12V7.8262L17.2174 6.78271L13.5652 7.8262Z" fill="#F3F3F3"/>
<path d="M20.8695 7.82619V6.26099H13.5652V7.82619H16.6955V10.9567H13.5652V12.0001V12.0002L16.6955 12.0002V15.4923C17.0105 15.6036 17.2174 15.6523 17.2174 15.6523C17.2174 15.6523 17.4242 15.6037 17.739 15.4923V12.0002H20.8695V12.0001V10.9566H17.739V7.82614H20.8695V7.82619Z" fill="#D80027"/>
</g>
</svg>
