<svg width="25" height="25" viewBox="0 0 25 25" fill="none" xmlns="http://www.w3.org/2000/svg">
<path d="M12.079 24.3505C18.7064 24.3505 24.079 18.978 24.079 12.3505C24.079 5.72317 18.7064 0.350586 12.079 0.350586C5.45156 0.350586 0.0789795 5.72317 0.0789795 12.3505C0.0789795 18.978 5.45156 24.3505 12.079 24.3505Z" fill="#2E42A5"/>
<path d="M17.3658 17.7081C16.4312 17.7081 15.7807 17.4875 15.3178 17.1029C14.8528 16.7165 14.5479 16.1407 14.3529 15.3735C14.1576 14.6049 14.0776 13.6646 14.0478 12.5722C14.0269 11.8045 14.0307 10.9714 14.0349 10.078C14.0364 9.77211 14.0378 9.45921 14.0383 9.1394H20.7759C20.8963 11.3266 20.9394 13.4582 20.5112 15.0568C20.2912 15.8783 19.9518 16.5379 19.4533 16.9919C18.9595 17.4416 18.2889 17.7081 17.3658 17.7081Z" fill="#6DC2FF"/>
<path fill-rule="evenodd" clip-rule="evenodd" d="M13.7886 8.8894H21.0125L21.0255 9.12567C21.1456 11.3077 21.1927 13.4784 20.7527 15.1215C20.5255 15.9699 20.1678 16.6793 19.6216 17.1768C19.0749 17.6746 18.3411 17.9581 17.3658 17.9581C16.3916 17.9581 15.6784 17.7275 15.158 17.2952C14.6378 16.8629 14.313 16.2314 14.1106 15.435C13.9082 14.6389 13.8278 13.6761 13.7979 12.5791C13.7769 11.8066 13.7807 10.9693 13.7849 10.0768C13.7864 9.77091 13.7878 9.45838 13.7883 9.13905L13.7886 8.8894ZM14.2877 9.3894C14.287 9.62327 14.286 9.85326 14.2849 10.0792C14.2807 10.9735 14.2769 11.8025 14.2977 12.5654C14.3274 13.6531 14.4069 14.571 14.5952 15.3119C14.7828 16.05 15.0678 16.5701 15.4775 16.9106C15.8829 17.2474 16.4708 17.4581 17.3658 17.4581C18.2366 17.4581 18.8441 17.2085 19.2849 16.8071C19.7357 16.3966 20.0569 15.7868 20.2697 14.9922C20.671 13.4938 20.6492 11.4954 20.539 9.3894H14.2877Z" fill="#F7FCFF"/>
<mask id="mask0_4_41" style="mask-type:luminance" maskUnits="userSpaceOnUse" x="13" y="8" width="9" height="10">
<path d="M17.3658 17.7081C16.4312 17.7081 15.7807 17.4875 15.3178 17.1029C14.8528 16.7165 14.5479 16.1407 14.3529 15.3735C14.1576 14.6049 14.0776 13.6646 14.0478 12.5722C14.0269 11.8045 14.0307 10.9714 14.0349 10.078C14.0364 9.77211 14.0378 9.45921 14.0383 9.1394H20.7759C20.8963 11.3266 20.9394 13.4582 20.5112 15.0568C20.2912 15.8783 19.9518 16.5379 19.4533 16.9919C18.9595 17.4416 18.2889 17.7081 17.3658 17.7081Z" fill="white"/>
<path fill-rule="evenodd" clip-rule="evenodd" d="M13.7886 8.8894H21.0125L21.0255 9.12567C21.1456 11.3077 21.1927 13.4784 20.7527 15.1215C20.5255 15.9699 20.1678 16.6793 19.6216 17.1768C19.0749 17.6746 18.3411 17.9581 17.3658 17.9581C16.3916 17.9581 15.6784 17.7275 15.158 17.2952C14.6378 16.8629 14.313 16.2314 14.1106 15.435C13.9082 14.6389 13.8278 13.6761 13.7979 12.5791C13.7769 11.8066 13.7807 10.9693 13.7849 10.0768C13.7864 9.77091 13.7878 9.45838 13.7883 9.13905L13.7886 8.8894ZM14.2877 9.3894C14.287 9.62327 14.286 9.85326 14.2849 10.0792C14.2807 10.9735 14.2769 11.8025 14.2977 12.5654C14.3274 13.6531 14.4069 14.571 14.5952 15.3119C14.7828 16.05 15.0678 16.5701 15.4775 16.9106C15.8829 17.2474 16.4708 17.4581 17.3658 17.4581C18.2366 17.4581 18.8441 17.2085 19.2849 16.8071C19.7357 16.3966 20.0569 15.7868 20.2697 14.9922C20.671 13.4938 20.6492 11.4954 20.539 9.3894H14.2877Z" fill="white"/>
</mask>
<g mask="url(#mask0_4_41)">
<path fill-rule="evenodd" clip-rule="evenodd" d="M16.068 12.1415C16.068 12.1415 15.7094 11.8763 15.5557 11.4467C15.4019 11.017 15.0977 9.87317 15.0977 9.77387C15.0977 9.67457 14.6929 9.77387 14.6929 9.77387C14.6929 9.77387 14.6985 9.29016 14.8513 9.29016C15.004 9.29016 15.0098 8.84171 15.3805 8.95464C15.7511 9.06757 16.0426 9.48178 16.4204 9.48178C16.7981 9.48178 18.3771 9.60225 18.6309 9.60225C18.8847 9.60225 19.5538 10.1379 19.5538 10.539C19.5538 10.94 19.3714 11.5374 19.2279 11.5374C19.0843 11.5374 18.9038 11.8851 18.6309 11.7703C18.3581 11.6556 17.7068 11.4193 17.1233 11.5374C16.5399 11.6556 16.4204 11.5813 16.4204 11.7703C16.4204 11.9593 16.068 12.1415 16.068 12.1415Z" fill="#E1E5E8"/>
<path fill-rule="evenodd" clip-rule="evenodd" d="M15.2306 11.8613H19.9146L19.1079 12.9039H15.7982L15.2306 11.8613Z" fill="#49801E"/>
<path fill-rule="evenodd" clip-rule="evenodd" d="M17.1329 16.8739C16.9865 16.9756 16.7072 17.1695 16.3727 17.2043C16.2107 17.2212 16.0359 17.1981 15.901 17.1739C15.7552 17.1476 15.6049 17.1101 15.4739 17.0737C15.3416 17.037 15.2218 16.9993 15.1354 16.971C15.092 16.9568 15.0565 16.9447 15.0315 16.9361L15.002 16.9259L14.9937 16.923L14.9913 16.9221L14.9902 16.9217L15.1697 16.4195C15.3493 15.9173 15.3492 15.9173 15.3492 15.9173L15.3502 15.9176L15.3556 15.9195L15.3787 15.9276C15.3993 15.9346 15.4297 15.945 15.4675 15.9573C15.5434 15.9822 15.6471 16.0147 15.7595 16.046C15.8731 16.0776 15.9887 16.1058 16.0898 16.124C16.1401 16.1331 16.1822 16.1388 16.2154 16.1415C16.2453 16.144 16.2598 16.1435 16.2622 16.1434C16.2626 16.1433 16.2624 16.1433 16.2622 16.1434C16.2919 16.1402 16.3592 16.1123 16.5387 15.9879C16.5471 15.9821 16.5559 15.9759 16.5653 15.9694C16.6325 15.9225 16.7226 15.8597 16.8102 15.8104C16.9045 15.7573 17.0711 15.6744 17.2744 15.6744C17.4639 15.6744 17.6332 15.7483 17.7277 15.7929C17.824 15.8384 17.9269 15.8965 18.0123 15.9447C18.0225 15.9505 18.0325 15.9561 18.0421 15.9616C18.2675 16.0885 18.3794 16.1376 18.4343 16.1434C18.4342 16.1433 18.4341 16.1434 18.4343 16.1434C18.436 16.1434 18.4478 16.144 18.4717 16.1418C18.4981 16.1395 18.5318 16.1345 18.5726 16.1262C18.6549 16.1096 18.748 16.0832 18.8402 16.053C18.9312 16.0232 19.014 15.992 19.0743 15.9682C19.1042 15.9564 19.128 15.9466 19.1439 15.9399L19.1612 15.9326L19.1649 15.931C19.1649 15.931 19.165 15.931 19.379 16.4195C19.593 16.908 19.593 16.908 19.5929 16.908L19.5917 16.9086L19.5893 16.9096L19.5818 16.9128L19.5561 16.9237C19.5344 16.9328 19.5039 16.9454 19.4666 16.9601C19.3924 16.9895 19.2888 17.0285 19.1723 17.0667C19.0569 17.1045 18.9213 17.1439 18.7844 17.1717C18.6552 17.1978 18.4885 17.2214 18.3243 17.2043C18.0174 17.1725 17.7135 17.0009 17.5386 16.9022C17.5318 16.8983 17.5251 16.8946 17.5187 16.891C17.5098 16.886 17.5012 16.8811 17.4928 16.8763C17.4082 16.8287 17.3451 16.7931 17.2903 16.7662C17.2598 16.7858 17.2234 16.8111 17.1735 16.8457C17.1649 16.8517 17.1558 16.8579 17.1463 16.8645C17.142 16.8675 17.1375 16.8707 17.1329 16.8739Z" fill="white"/>
<path fill-rule="evenodd" clip-rule="evenodd" d="M16.3728 15.7149C16.7074 15.6801 16.9866 15.4862 17.133 15.3845ZM17.133 15.3845C17.1376 15.3813 17.1421 15.3782 17.1464 15.3752ZM17.1464 15.3752C17.156 15.3685 17.1651 15.3622 17.1738 15.3562ZM17.1738 15.3562C17.2235 15.3216 17.2599 15.2964 17.2903 15.2768ZM17.2903 15.2768C17.3451 15.3038 17.4082 15.3393 17.4927 15.387C17.5012 15.3917 17.5098 15.3966 17.5187 15.4016C17.5251 15.4052 17.5317 15.4089 17.5385 15.4128C17.7135 15.5115 18.0173 15.6831 18.3241 15.7149M16.8101 14.3211C16.9044 14.268 17.071 14.1851 17.2744 14.1851C17.4639 14.1851 17.6332 14.2589 17.7276 14.3035C17.824 14.349 17.9269 14.4071 18.0123 14.4554C18.0225 14.4611 18.0325 14.4667 18.0421 14.4722C18.2676 14.5992 18.3794 14.6483 18.4344 14.654C18.4342 14.654 18.4341 14.654 18.4344 14.654C18.436 14.6541 18.4479 14.6546 18.4717 14.6525C18.4982 14.6501 18.5319 14.6451 18.5726 14.6369C18.6549 14.6202 18.748 14.5939 18.8402 14.5637C18.9312 14.5339 19.014 14.5027 19.0743 14.4789C19.0794 14.4769 19.0842 14.475 19.0889 14.4731C19.0985 14.4652 19.1087 14.4571 19.1196 14.4488C19.1943 14.3915 19.3082 14.3186 19.4563 14.2703C19.6084 14.2207 19.7968 14.1974 20.0046 14.2447C20.2122 14.292 20.405 14.4018 20.5785 14.5658L19.8457 15.3409C19.813 15.31 19.7901 15.2955 19.7776 15.2891C19.7749 15.2908 19.7717 15.2929 19.7683 15.2955C19.7677 15.2959 19.7672 15.2963 19.7667 15.2967L19.6999 15.3718L19.593 15.4187L19.379 14.9302C19.593 15.4187 19.5931 15.4187 19.593 15.4187L19.5916 15.4193L19.5893 15.4203L19.5818 15.4235L19.556 15.4345C19.5344 15.4435 19.5039 15.4561 19.4666 15.4708C19.3923 15.5002 19.2888 15.5392 19.1722 15.5774C19.0569 15.6152 18.9212 15.6546 18.7843 15.6823C18.6551 15.7085 18.4883 15.732 18.3241 15.7149M16.8101 14.3211C16.7226 14.3704 16.6325 14.4332 16.5653 14.48ZM16.5653 14.48C16.556 14.4865 16.5471 14.4927 16.5387 14.4985ZM16.5387 14.4985C16.3589 14.6232 16.292 14.6509 16.2625 14.654ZM15.1697 14.9302C15.1545 14.3971 15.1544 14.3971 15.1543 14.3971L15.1525 14.3971L15.1496 14.3972L15.141 14.3975L15.114 14.3988C15.0917 14.4 15.0611 14.402 15.0241 14.4052C14.9507 14.4116 14.8488 14.4231 14.735 14.4437C14.535 14.48 14.1906 14.5619 13.936 14.7774L14.6252 15.5915C14.6252 15.5916 14.627 15.59 14.6313 15.5872C14.6355 15.5844 14.6417 15.5806 14.65 15.5762C14.667 15.5671 14.6899 15.5569 14.7193 15.5462C14.7791 15.5245 14.8506 15.5068 14.9253 15.4932C14.9904 15.4814 15.0511 15.4741 15.0986 15.4695C15.1101 15.4734 15.1224 15.4774 15.1354 15.4817C15.2219 15.51 15.3417 15.5477 15.474 15.5844C15.605 15.6208 15.7553 15.6583 15.9011 15.6845C16.036 15.7088 16.2108 15.7318 16.3728 15.7149M15.3493 14.428L15.3503 14.4283L15.3557 14.4302L15.3788 14.4383C15.3994 14.4454 15.4298 14.4557 15.4675 14.468C15.5434 14.4929 15.6471 14.5254 15.7595 14.5567C15.8732 14.5882 15.9887 14.6165 16.0898 14.6347C16.1401 14.6437 16.1822 14.6494 16.2154 14.6522C16.2452 14.6547 16.2601 14.6541 16.2625 14.654C16.263 14.654 16.2629 14.654 16.2625 14.654M15.3493 14.428L15.2548 14.3942ZM15.2548 14.3942L15.1543 14.3971ZM15.1543 14.3971L15.1697 14.9302Z" fill="white"/>
<path d="M14.1954 13.9066L13.5828 13.1557C13.823 12.9597 14.2264 12.7665 14.8152 12.553L15.1009 12.5392C15.7115 12.6961 16.1196 12.7641 16.269 12.7492C16.3184 12.7442 16.4008 12.7041 16.5513 12.6042C16.9789 12.3207 17.0203 12.2976 17.2742 12.2976C17.5061 12.2976 17.554 12.3198 18.0389 12.5817C18.1289 12.63 18.1627 12.6475 18.2114 12.6708C18.3138 12.72 18.3872 12.7451 18.4274 12.7491C18.5439 12.7608 18.7784 12.7064 19.1063 12.5743C19.533 12.1867 20.0734 12.2268 20.5383 12.6503C20.8484 12.9329 21.0973 13.1611 21.2852 13.3353L20.6265 14.0461C20.4409 13.8741 20.1939 13.6475 19.8856 13.3667C19.763 13.255 19.7894 13.2558 19.735 13.3148L19.5673 13.4326C19.0583 13.6474 18.6564 13.746 18.3309 13.7134C18.1561 13.6959 17.9871 13.6382 17.792 13.5446C17.7267 13.5131 17.6801 13.489 17.5784 13.4344C17.3444 13.308 17.2555 13.2667 17.2742 13.2667C17.315 13.2667 17.2584 13.2982 17.087 13.4118C16.8113 13.5947 16.6195 13.6879 16.3657 13.7134C16.0852 13.7416 15.6475 13.6739 15.0075 13.5151C14.5918 13.6723 14.3156 13.8085 14.1954 13.9066Z" fill="white"/>
</g>
<path fill-rule="evenodd" clip-rule="evenodd" d="M14.3059 16.8693C14.306 16.8694 14.3061 16.8695 14.652 16.5084C14.9979 16.1474 14.998 16.1475 14.9981 16.1476L14.9989 16.1484L15.0003 16.1497L15.0041 16.1534L15.0154 16.1646C15.0245 16.1737 15.0367 16.186 15.0513 16.2014C15.0806 16.2322 15.1203 16.2754 15.1654 16.3289C15.2541 16.4339 15.3713 16.5874 15.4707 16.77C15.6532 17.1052 15.8738 17.7464 15.3722 18.2854M14.3059 16.8693L14.305 16.8684ZM14.305 16.8684L14.3084 16.8718ZM14.3084 16.8718C14.3122 16.8756 14.3187 16.8822 14.3274 16.8913ZM14.3274 16.8913C14.3449 16.9097 14.3708 16.9379 14.4011 16.9737ZM14.4011 16.9737C14.4632 17.0474 14.5358 17.1442 14.5924 17.2482ZM14.5924 17.2482C14.7219 17.4861 14.6783 17.5632 14.6401 17.6042ZM14.6401 17.6042C14.4681 17.7891 14.3531 17.7872 14.317 17.785ZM14.317 17.785C14.2874 17.7832 14.2628 17.7756 14.2472 17.7692ZM14.2472 17.7692C14.24 17.7662 14.236 17.764 14.236 17.764ZM14.236 17.764L14.2403 17.7666ZM14.2403 17.7666L14.2455 17.7699ZM14.2455 17.7699L14.2489 17.7721ZM14.2489 17.7721L14.2508 17.7734ZM14.2508 17.7734L14.2518 17.7741ZM14.2518 17.7741C14.252 17.7742 14.2528 17.7748 13.9714 18.1881ZM13.9714 18.1881C13.69 18.6014 13.6903 18.6016 13.6906 18.6017ZM13.6906 18.6017L13.6923 18.6029ZM13.6923 18.6029L13.6947 18.6045ZM13.6947 18.6045L13.7002 18.6082ZM13.7002 18.6082L13.7139 18.6168ZM13.7139 18.6168C13.7241 18.6231 13.7367 18.6306 13.7515 18.6388ZM13.7515 18.6388C13.7809 18.6551 13.8198 18.6747 13.8672 18.6942ZM13.8672 18.6942C13.9612 18.7328 14.0941 18.7732 14.2558 18.7831ZM14.2558 18.7831C14.602 18.8043 15.0045 18.6807 15.3722 18.2854Z" fill="#B85F3C"/>
<path fill-rule="evenodd" clip-rule="evenodd" d="M19.8357 16.1476C19.8359 16.1475 19.836 16.1474 20.1818 16.5084C20.5277 16.8695 20.5278 16.8694 20.5279 16.8693L20.5289 16.8684L20.5254 16.8718C20.5217 16.8755 20.5152 16.8821 20.5065 16.8913C20.489 16.9096 20.463 16.9378 20.4328 16.9737C20.3707 17.0473 20.2981 17.1442 20.2415 17.2481C20.112 17.4861 20.1556 17.5632 20.1937 17.6042C20.3658 17.7892 20.4808 17.7872 20.517 17.785C20.5466 17.7831 20.5711 17.7756 20.5868 17.7691C20.5942 17.7661 20.5982 17.7639 20.5979 17.764L20.5936 17.7666L20.5885 17.7699L20.5851 17.7721L20.5832 17.7734L20.5822 17.774C20.5819 17.7742 20.5811 17.7747 20.8625 18.188C21.1439 18.6014 21.1436 18.6015 21.1434 18.6017L21.1417 18.6029L21.1392 18.6045L21.1337 18.6081L21.1201 18.6168C21.1098 18.6231 21.0973 18.6306 21.0825 18.6388C21.053 18.6551 21.0141 18.6747 20.9667 18.6941C20.8727 18.7328 20.7398 18.7732 20.5781 18.7831C20.2319 18.8043 19.8294 18.6807 19.4616 18.2854C18.9601 17.7464 19.1807 17.1052 19.3632 16.77C19.4626 16.5874 19.5798 16.4339 19.6684 16.3289C19.7135 16.2754 19.7532 16.2322 19.7825 16.2014C19.7972 16.186 19.8094 16.1737 19.8184 16.1646L19.8297 16.1534L19.8335 16.1497L19.8349 16.1484L19.8357 16.1476ZM20.5289 16.8684C20.5291 16.8682 20.5291 16.8682 20.5289 16.8684Z" fill="#B85F3C"/>
<path fill-rule="evenodd" clip-rule="evenodd" d="M13.723 17.5602C13.7229 17.5601 13.7228 17.56 14.0682 17.1985C14.4137 16.837 14.4136 16.8369 14.4135 16.8369L14.4146 16.8379L14.4241 16.8467C14.4333 16.8552 14.4481 16.8685 14.4681 16.8861C14.5082 16.9214 14.5694 16.9735 14.6492 17.0368C14.8092 17.1637 15.0422 17.334 15.3296 17.5042C15.9116 17.8486 16.6799 18.1704 17.5017 18.1704C18.353 18.1704 19.1344 17.9165 19.7131 17.6531C20.0003 17.5223 20.2319 17.3918 20.3902 17.2951C20.4692 17.2468 20.5295 17.2071 20.5689 17.1804C20.5886 17.167 20.6031 17.1569 20.612 17.1506L20.6211 17.1441L20.622 17.1435C20.6218 17.1436 20.6217 17.1437 20.9186 17.546C21.2156 17.9483 21.2154 17.9483 21.2153 17.9484L21.2143 17.9492L21.2126 17.9505L21.2073 17.9543L21.1902 17.9665C21.1758 17.9767 21.1557 17.9908 21.13 18.0081C21.0787 18.0429 21.0052 18.0911 20.9118 18.1482C20.7253 18.2623 20.4577 18.4129 20.1273 18.5632C19.4708 18.8621 18.5439 19.1704 17.5017 19.1704C16.4302 19.1704 15.4817 18.7562 14.8203 18.3647C14.4861 18.1669 14.2157 17.9693 14.0278 17.8202C13.9336 17.7456 13.8596 17.6827 13.8081 17.6374C13.7824 17.6148 13.7622 17.5965 13.7479 17.5834L13.7308 17.5676L13.7257 17.5627L13.7239 17.5611L13.723 17.5602ZM14.4135 16.8369C14.4134 16.8368 14.4134 16.8368 14.4135 16.8369Z" fill="#CB8B73"/>
<path fill-rule="evenodd" clip-rule="evenodd" d="M12.1818 6.36108H6.40271V10.8274H4.9054V6.36108H1.67834C1.98169 5.83557 2.32349 5.33508 2.70032 4.86377H4.9054V2.72986C5.37878 2.37634 5.87903 2.05688 6.40271 1.77527V4.86377H12.1818V6.36108Z" fill="#D9D9D9"/>
<path fill-rule="evenodd" clip-rule="evenodd" d="M10.2134 10.8274H12.1818V8.6842L9.35887 6.35645L7.9647 5.37451L12.1818 2.01608V0.351018C12.1475 0.35073 12.1133 0.350586 12.079 0.350586C11.1577 0.350586 10.2608 0.454468 9.39915 0.651001L5.93748 3.5636L5.66551 3.75513L5.39366 3.5636L4.64268 2.93176C3.9282 3.4967 3.27952 4.14111 2.70994 4.85181L3.36631 5.37451L1.97215 6.35645L1.43919 6.7959C0.793993 8.02912 0.356943 9.38857 0.174683 10.8274H1.11757L5.66551 7.20557L10.2134 10.8274Z" fill="#F7F8FB"/>
<path fill-rule="evenodd" clip-rule="evenodd" d="M11.4958 10.8274H12.1818V9.38272L8.55937 6.30908L6.60918 5.61523L6.56938 5.58411L12.1818 0.779199V0.351019C12.1476 0.350731 12.1133 0.350586 12.079 0.350586C11.5118 0.350586 10.9535 0.389893 10.4073 0.466064L5.39983 4.66724L3.94561 3.52734C3.60198 3.84424 3.27703 4.18091 2.97234 4.53564L4.29314 5.59558L0.663501 8.64075C0.435333 9.34345 0.270194 10.0746 0.174805 10.8274H0.445022L5.85369 6.1969L6.27581 6.33386L11.4958 10.8274Z" fill="#F50100"/>
<path fill-rule="evenodd" clip-rule="evenodd" d="M12.1818 7.48425H7.52551V10.8274H3.78223V7.48425H1.10669C1.33752 6.96472 1.60413 6.46448 1.90344 5.98694C2.06396 5.73071 2.23389 5.48096 2.41284 5.23828C2.80688 4.70361 3.24426 4.20276 3.71985 3.74097H3.78223V3.68079C4.24719 3.23572 4.7478 2.82764 5.27954 2.46143C5.52271 2.29382 5.77246 2.13513 6.0282 1.98547C6.50708 1.70532 7.0072 1.4574 7.52551 1.24463V3.74097H12.1818V7.48425Z" fill="white"/>
<path fill-rule="evenodd" clip-rule="evenodd" d="M12.1818 6.3611H6.40273V10.8274H4.90539V6.3611H1.67834C1.98165 5.83556 2.32365 5.33515 2.70044 4.86377H4.90539V2.73C5.37875 2.37647 5.87908 2.05705 6.40273 1.77539V4.86377H12.1818V6.3611Z" fill="#F50100"/>
</svg>
