<svg width="24" height="24" viewBox="0 0 24 24" fill="none" xmlns="http://www.w3.org/2000/svg">
<mask id="mask0_1_1369" style="mask-type:luminance" maskUnits="userSpaceOnUse" x="0" y="0" width="24" height="24">
<path d="M24 0H0V24H24V0Z" fill="white"/>
</mask>
<g mask="url(#mask0_1_1369)">
<path d="M12 24C18.6274 24 24 18.6274 24 12C24 5.37258 18.6274 0 12 0C5.37258 0 0 5.37258 0 12C0 18.6274 5.37258 24 12 24Z" fill="#338AF3"/>
<path d="M12 5.21729L12.518 6.8116H14.1944L12.8382 7.79696L13.3562 9.39122L12 8.40591L10.6438 9.39122L11.1619 7.79696L9.80566 6.8116H11.4821L12 5.21729Z" fill="#F0F0F0"/>
<path d="M5.21729 12.0002L6.8116 11.4821V9.80566L7.79696 11.1619L9.39122 10.6439L8.40591 12.0002L9.39122 13.3563L7.79696 12.8382L6.8116 14.1944V12.5181L5.21729 12.0002Z" fill="#F0F0F0"/>
<path d="M12.0001 18.7828L11.4821 17.1885H9.80566L11.1619 16.2032L10.6439 14.6089L12.0001 15.5942L13.3563 14.6089L12.8382 16.2032L14.1944 17.1885H12.5181L12.0001 18.7828Z" fill="#F0F0F0"/>
<path d="M18.7828 12L17.1885 12.518V14.1944L16.2032 12.8382L14.6089 13.3562L15.5942 12L14.6089 10.6439L16.2032 11.1619L17.1885 9.80566V11.4821L18.7828 12Z" fill="#F0F0F0"/>
</g>
</svg>
