<svg width="24" height="24" viewBox="0 0 24 24" fill="none" xmlns="http://www.w3.org/2000/svg">
<mask id="mask0_1_859" style="mask-type:luminance" maskUnits="userSpaceOnUse" x="0" y="0" width="24" height="24">
<path d="M24 0H0V24H24V0Z" fill="white"/>
</mask>
<g mask="url(#mask0_1_859)">
<path d="M12 24C18.6274 24 24 18.6274 24 12C24 5.37258 18.6274 0 12 0C5.37258 0 0 5.37258 0 12C0 18.6274 5.37258 24 12 24Z" fill="#FFDA44"/>
<path d="M5.23682 2.08697C7.16268 0.770438 9.49133 0 12.0003 0C14.5092 0 16.8379 0.770438 18.7637 2.08697L12.0003 2.60869L5.23682 2.08697Z" fill="#A2001D"/>
<path d="M11.9999 12L11.2341 11.2341L11.0308 11.5984L11.9999 12Z" fill="#0052B4"/>
<path d="M3.51471 3.51465C-1.17157 8.20093 -1.17157 15.7989 3.51471 20.4853C5.45128 18.5487 7.31377 16.6862 12 12L3.51471 3.51465Z" fill="#496E2D"/>
<path d="M20.4853 3.51465C25.1716 8.20093 25.1716 15.7989 20.4853 20.4853C18.5488 18.5487 16.6863 16.6862 12 12L20.4853 3.51465Z" fill="#496E2D"/>
<path d="M12.0001 16.174C14.3052 16.174 16.174 14.3052 16.174 12.0001C16.174 9.69489 14.3052 7.82617 12.0001 7.82617C9.69489 7.82617 7.82617 9.69489 7.82617 12.0001C7.82617 14.3052 9.69489 16.174 12.0001 16.174Z" fill="#A2001D"/>
<path d="M12.0001 7.82617L12.9357 10.7057H15.9637L13.5142 12.4856L14.4497 15.3653L12.0001 13.5856L9.55045 15.3653L10.4862 12.4856L8.03662 10.7057H11.0645L12.0001 7.82617Z" fill="#FFDA44"/>
<path d="M12.0038 0H11.9958C8.68394 0.00107813 5.68577 1.34372 3.51514 3.51413H20.4845C18.3138 1.34372 15.3156 0.00107813 12.0038 0Z" fill="#A2001D"/>
<path d="M3.51562 20.4858C5.68715 22.657 8.68687 23.9999 12.0002 23.9999C15.3136 23.9999 18.3133 22.657 20.4848 20.4858H3.51562Z" fill="#A2001D"/>
<path d="M12.0001 1.30444L12.1944 1.90229H12.823L12.3145 2.27181L12.5088 2.86965L12.0001 2.50018L11.4916 2.86965L11.6859 2.27181L11.1772 1.90229H11.8058L12.0001 1.30444Z" fill="#FFDA44"/>
<path d="M9.08998 1.30444L9.28428 1.90229H9.91287L9.40432 2.27181L9.59862 2.86965L9.08998 2.50018L8.58148 2.86965L8.77573 2.27181L8.26709 1.90229H8.89568L9.08998 1.30444Z" fill="#FFDA44"/>
<path d="M14.9098 1.30444L15.1041 1.90229H15.7327L15.2241 2.27181L15.4184 2.86965L14.9098 2.50018L14.4013 2.86965L14.5956 2.27181L14.0869 1.90229H14.7155L14.9098 1.30444Z" fill="#FFDA44"/>
<path d="M12.0001 21.1304L12.1944 21.7282H12.823L12.3145 22.0977L12.5088 22.6956L12.0001 22.3261L11.4916 22.6956L11.6859 22.0977L11.1772 21.7282H11.8058L12.0001 21.1304Z" fill="#FFDA44"/>
<path d="M9.08998 21.1304L9.28428 21.7282H9.91287L9.40432 22.0977L9.59862 22.6956L9.08998 22.3261L8.58148 22.6956L8.77573 22.0977L8.26709 21.7282H8.89568L9.08998 21.1304Z" fill="#FFDA44"/>
<path d="M14.9098 21.1304L15.1041 21.7282H15.7327L15.2241 22.0977L15.4184 22.6956L14.9098 22.3261L14.4013 22.6956L14.5956 22.0977L14.0869 21.7282H14.7155L14.9098 21.1304Z" fill="#FFDA44"/>
<path d="M3.65663 11.8019C3.96484 12.2889 3.81999 12.9335 3.33301 13.2417C2.84607 13.55 2.20145 13.4051 1.8932 12.9182C1.33515 12.0365 1.65873 10.5967 1.65873 10.5967C1.65873 10.5967 3.09854 10.9203 3.65663 11.8019Z" fill="#FFDA44"/>
<path d="M3.05395 13.3225C3.34209 13.3225 3.57566 13.0889 3.57566 12.8008C3.57566 12.5126 3.34209 12.2791 3.05395 12.2791C2.76581 12.2791 2.53223 12.5126 2.53223 12.8008C2.53223 13.0889 2.76581 13.3225 3.05395 13.3225Z" fill="#A2001D"/>
</g>
</svg>
