<svg width="24" height="24" viewBox="0 0 24 24" fill="none" xmlns="http://www.w3.org/2000/svg">
<path d="M3.51472 20.4853C8.20101 25.1716 15.799 25.1716 20.4853 20.4853C25.1716 15.799 25.1716 8.20101 20.4853 3.51472C15.799 -1.17157 8.20101 -1.17157 3.51472 3.51472C-1.17157 8.20101 -1.17157 15.799 3.51472 20.4853Z" fill="#FCDD09"/>
<path d="M3.51465 3.51472C8.20094 -1.17157 15.7989 -1.17157 20.4852 3.51472C25.1715 8.20101 25.1715 15.799 20.4852 20.4853" fill="#078930"/>
<path d="M12 7.77832L13.0478 11.0031H16.4389L13.6956 12.9963L14.7432 16.2213L12 14.2283L9.25665 16.2213L10.3046 12.9963L7.56128 11.0031H10.9522L12 7.77832Z" fill="#DA121A"/>
</svg>
