<svg width="24" height="25" viewBox="0 0 24 25" fill="none" xmlns="http://www.w3.org/2000/svg">
<mask id="mask0_1_906" style="mask-type:luminance" maskUnits="userSpaceOnUse" x="0" y="0" width="24" height="25">
<path d="M24 0.989258H0V24.9893H24V0.989258Z" fill="white"/>
</mask>
<g mask="url(#mask0_1_906)">
<path d="M12 24.9892C18.6274 24.9892 24 19.6167 24 12.9892C24 6.36182 18.6274 0.989258 12 0.989258C5.37258 0.989258 0 6.36182 0 12.9892C0 19.6167 5.37258 24.9892 12 24.9892Z" fill="#F0F0F0"/>
<path d="M23.8984 11.424H13.5653H13.5652V1.09084C13.0529 1.02413 12.5305 0.989258 12 0.989258C11.4695 0.989258 10.9471 1.02413 10.4348 1.09084V11.424H0.101578C0.034875 11.9364 0 12.4588 0 12.9892C0 13.5197 0.034875 14.0421 0.101578 14.5544H10.4347H10.4348V24.8877C10.9471 24.9544 11.4695 24.9892 12 24.9892C12.5305 24.9892 13.0529 24.9544 13.5652 24.8877V14.5546V14.5545H23.8984C23.9651 14.0421 24 13.5197 24 12.9892C24 12.4588 23.9651 11.9364 23.8984 11.424Z" fill="#D80027"/>
<path d="M15.3914 13.5108L16.174 14.0326V11.9456L15.3914 12.4674H12.5218V9.59776L13.0435 8.81519H10.9566L11.4783 9.59776V12.4674H8.60875L7.82617 11.9456V14.0326L8.60875 13.5108H11.4783V16.3804L10.9566 17.163H13.0435L12.5218 16.3804V13.5108H15.3914Z" fill="#FFDA44"/>
</g>
</svg>
