<svg width="24" height="24" viewBox="0 0 24 24" fill="none" xmlns="http://www.w3.org/2000/svg">
<mask id="mask0_1_821" style="mask-type:luminance" maskUnits="userSpaceOnUse" x="0" y="0" width="24" height="24">
<path d="M24 0H0V24H24V0Z" fill="white"/>
</mask>
<g mask="url(#mask0_1_821)">
<path d="M0 12.0001C0 13.4679 0.264047 14.874 0.746391 16.174L12 16.6958L23.2536 16.174C23.736 14.874 24 13.4679 24 12.0001C24 10.5323 23.736 9.12619 23.2536 7.82621L12 7.30444L0.746391 7.82616C0.264047 9.12619 0 10.5323 0 12.0001Z" fill="#FFDA44"/>
<path d="M12 0C6.84037 0 2.44185 3.2565 0.746338 7.82611H23.2536C21.558 3.2565 17.1595 0 12 0Z" fill="#D80027"/>
<path d="M23.2536 16.1738H0.746338C2.44185 20.7434 6.84037 23.9999 12 23.9999C17.1595 23.9999 21.558 20.7434 23.2536 16.1738Z" fill="#496E2D"/>
<path d="M12 7.82617L13.0359 11.0146H16.3888L13.6764 12.9854L14.7124 16.174L12 14.2033L9.28753 16.174L10.3237 12.9854L7.61133 11.0146H10.964L12 7.82617Z" fill="black"/>
</g>
</svg>
