<svg width="24" height="24" viewBox="0 0 24 24" fill="none" xmlns="http://www.w3.org/2000/svg">
<mask id="mask0_1_850" style="mask-type:luminance" maskUnits="userSpaceOnUse" x="0" y="0" width="24" height="24">
<path d="M24 0H0V24H24V0Z" fill="white"/>
</mask>
<g mask="url(#mask0_1_850)">
<path d="M0 12C0 5.37263 5.37262 0 12 0C18.6274 0 24 5.37263 24 12C23.4783 12 12 13.5652 12 13.5652L0 12Z" fill="#F0F0F0"/>
<path d="M24 12C24 18.6274 18.6274 24 12 24C5.37262 24 0 18.6274 0 12" fill="#D80027"/>
<path d="M8.34801 17.739C11.5177 17.739 14.0872 15.1695 14.0872 11.9999C14.0872 8.83024 11.5177 6.26074 8.34801 6.26074C5.17837 6.26074 2.60889 8.83024 2.60889 11.9999C2.60889 15.1695 5.17837 17.739 8.34801 17.739Z" fill="#F0F0F0"/>
<path d="M2.60889 11.9999C2.60889 8.83034 5.17837 6.26074 8.34801 6.26074C11.5177 6.26074 14.0872 8.83029 14.0872 11.9999" fill="#D80027"/>
</g>
</svg>
