<svg width="24" height="25" viewBox="0 0 24 25" fill="none" xmlns="http://www.w3.org/2000/svg">
<mask id="mask0_1_793" style="mask-type:luminance" maskUnits="userSpaceOnUse" x="0" y="0" width="24" height="25">
<path d="M24 0.989258H0V24.9893H24V0.989258Z" fill="white"/>
</mask>
<g mask="url(#mask0_1_793)">
<path d="M12 24.9892C18.6274 24.9892 24 19.6167 24 12.9892C24 6.36182 18.6274 0.989258 12 0.989258C5.37258 0.989258 0 6.36182 0 12.9892C0 19.6167 5.37258 24.9892 12 24.9892Z" fill="#F0F0F0"/>
<path d="M12.0001 0.989258C7.03904 0.989258 2.78147 3.99985 0.953857 8.29359H23.0463C21.2187 3.99985 16.9611 0.989258 12.0001 0.989258Z" fill="#A2001D"/>
<path d="M12.0001 24.9892C16.9611 24.9892 21.2187 21.9786 23.0462 17.6848H0.953857C2.78147 21.9786 7.03904 24.9892 12.0001 24.9892Z" fill="#496E2D"/>
<path d="M23.5866 9.85889H0.413391C0.144375 10.857 0 11.9062 0 12.9893C0 14.0725 0.144375 15.1217 0.413391 16.1198H23.5867C23.8556 15.1217 24 14.0725 24 12.9893C24 11.9062 23.8556 10.857 23.5866 9.85889Z" fill="#0052B4"/>
</g>
</svg>
