<svg width="24" height="24" viewBox="0 0 24 24" fill="none" xmlns="http://www.w3.org/2000/svg">
<mask id="mask0_1_935" style="mask-type:luminance" maskUnits="userSpaceOnUse" x="0" y="0" width="24" height="25">
<path d="M24 0.000976562H0V24.001H24V0.000976562Z" fill="white"/>
</mask>
<g mask="url(#mask0_1_935)">
<path d="M16.174 0.747415C14.874 0.265024 13.4679 0.000976562 12 0.000976562C10.5322 0.000976562 9.12615 0.265024 7.82621 0.747321L7.30444 12.001L7.82616 23.2546C9.12615 23.737 10.5322 24.001 12 24.001C13.4679 24.001 14.874 23.737 16.174 23.2545L16.6958 12.001L16.174 0.747415Z" fill="#FFDA44"/>
<path d="M0 12.001C0 17.1605 3.2565 21.5591 7.82611 23.2545V0.747314C3.2565 2.44288 0 6.84135 0 12.001Z" fill="#D80027"/>
<path d="M23.9999 12.001C23.9999 6.84135 20.7434 2.44288 16.1738 0.747314V23.2546C20.7434 21.5591 23.9999 17.1605 23.9999 12.001Z" fill="#6DA544"/>
</g>
</svg>
