<svg width="25" height="25" viewBox="0 0 25 25" fill="none" xmlns="http://www.w3.org/2000/svg">
<path d="M12.077 24.6738C18.7044 24.6738 24.077 19.3012 24.077 12.6738C24.077 6.04641 18.7044 0.673828 12.077 0.673828C5.44961 0.673828 0.0770264 6.04641 0.0770264 12.6738C0.0770264 19.3012 5.44961 24.6738 12.077 24.6738Z" fill="black"/>
<path fill-rule="evenodd" clip-rule="evenodd" d="M23.2569 8.3048C21.5099 3.8378 17.163 0.673828 12.077 0.673828C6.99114 0.673828 2.64421 3.8378 0.897217 8.3048H23.2569Z" fill="#002488"/>
<path d="M6.6939 12.8831C6.70464 12.8727 6.87292 12.9286 7.07256 13.0062C7.2722 13.0838 7.53011 13.1572 7.64106 13.1644C7.83662 13.1731 8.52906 13.503 8.52236 13.5823C8.52109 13.6564 7.47409 13.3363 7.10711 13.1498C6.66658 12.9302 6.65622 12.9195 6.6939 12.8831Z" fill="#008000"/>
<path d="M7.98483 13.0354C8.06911 13.2414 8.36813 13.3822 8.76942 13.4169C9.04097 13.4362 8.91642 13.3191 8.53688 13.1807C8.35861 13.1238 8.151 13.0162 8.06283 12.9523C7.90758 12.8319 7.90758 12.8319 7.98483 13.0354ZM4.20499 11.4939C4.42188 11.8158 4.66869 12.048 5.14735 12.37C5.49891 12.6096 5.80552 12.7968 5.82047 12.7818C5.85038 12.7444 4.10027 11.1195 3.9806 11.0745C3.93577 11.0595 4.03299 11.2467 4.20499 11.4939ZM8.70778 13.2083C8.87016 13.2841 9.07749 13.3439 9.18206 13.3474C9.30563 13.3515 9.27286 13.3211 9.04219 13.2313C8.86167 13.1607 8.64572 13.0421 8.54991 12.9686C8.37811 12.828 8.37811 12.828 8.39611 12.9517C8.40638 13.0224 8.53589 13.1322 8.70778 13.2083ZM7.69767 11.7474C7.80239 12.1667 8.23617 12.938 8.38575 12.9679C8.52038 12.9904 8.52038 12.9829 8.4082 12.8556C8.22122 12.6384 7.81739 11.8447 7.81739 11.6949C7.81739 11.6126 7.77999 11.5527 7.73513 11.5527C7.68272 11.5527 7.66777 11.6275 7.69767 11.7474ZM3.20225 11.2216C3.19967 11.2363 3.34005 11.3447 3.51594 11.467C3.69187 11.5893 3.8968 11.7624 3.96485 11.8504C4.08141 12.0079 4.74175 12.3982 4.80371 12.3483C4.86436 12.3058 4.0138 11.6157 3.65415 11.4154C3.22608 11.1725 3.21134 11.1699 3.20225 11.2216ZM3.44321 11.7977C3.44321 11.8127 3.60027 11.895 3.79474 11.9849C3.98921 12.0747 4.22103 12.2095 4.3033 12.2844C4.44538 12.4191 5.16338 12.6887 5.21574 12.6288C5.2681 12.5764 4.31077 12.0447 3.92188 11.91C3.45815 11.7452 3.44321 11.7452 3.44321 11.7977ZM6.77883 12.0619C7.06303 12.586 7.35469 12.9305 7.47436 12.893C7.53417 12.8706 7.39959 12.6534 7.10789 12.3015C6.84614 11.9945 6.62175 11.7249 6.59935 11.7024C6.57694 11.6799 6.6592 11.8447 6.77883 12.0619ZM7.14638 11.8576C7.14638 11.9399 7.43808 12.509 7.61006 12.7486C7.70728 12.8834 7.8195 12.9583 7.94663 12.9583C8.13361 12.9583 8.13361 12.9583 7.84941 12.6363C7.68488 12.4641 7.46799 12.202 7.35581 12.0597C7.24359 11.9175 7.14638 11.8276 7.14638 11.8576ZM6.45877 12.0993C6.45877 12.2116 7.00547 12.9604 7.09017 12.9604C7.12866 12.9604 7.03627 12.7807 6.8746 12.5635C6.51267 12.0694 6.45877 12.017 6.45877 12.0993ZM5.94225 14.1628C5.44866 14.3575 5.34399 14.4249 5.34399 14.5297C5.34399 14.5746 5.3963 14.5672 5.47856 14.4998C5.54592 14.4324 5.79272 14.3425 6.01706 14.2901C6.24141 14.2377 6.5107 14.1478 6.61538 14.0954L6.80236 13.9981H6.57802C6.45835 14.0055 6.16664 14.0804 5.94225 14.1628ZM4.54066 12.8907C4.90946 13.2265 6.14288 13.8608 6.76781 14.0474C6.93717 14.0972 7.21195 14.1087 7.3672 14.076L7.65666 14.0183L7.371 13.8674C6.91022 13.629 6.15352 13.1238 5.88188 12.8801C5.58595 12.6134 5.59556 12.7055 5.89664 13.0739C6.01425 13.2223 6.36192 13.4781 6.6668 13.638C6.97416 13.8048 7.18894 13.9577 7.15378 13.9704C7.06242 14.0037 6.21881 13.5223 5.57719 13.0708C4.87992 12.5758 4.85114 12.5624 5.11064 12.8822C5.23786 13.0351 5.47303 13.2442 5.6437 13.3414C5.80983 13.4482 5.9236 13.5422 5.88849 13.555C5.81822 13.5806 5.38106 13.3415 4.81036 12.9757C4.65124 12.8664 4.43456 12.7302 4.34062 12.6688C4.23707 12.603 4.32975 12.7046 4.54066 12.8907ZM4.59498 12.7861L4.29583 12.8834L4.52018 12.9208C4.63985 12.9508 4.79691 12.9358 4.87172 12.8984C4.93903 12.8609 5.07366 12.831 5.17088 12.8235C5.33541 12.8235 5.33541 12.816 5.19333 12.7561C5.00635 12.6737 4.96144 12.6737 4.59498 12.7861ZM4.9636 12.9893C4.83647 13.0866 4.84392 13.0941 5.12067 13.0492C5.28521 13.0267 5.52455 12.9818 5.64422 12.9519C5.83866 12.8994 5.8237 12.8919 5.48714 12.8844C5.26275 12.877 5.05336 12.9219 4.9636 12.9893ZM3.10556 12.202C4.33961 12.4266 6.81516 13.2578 6.66558 13.4001C6.62817 13.4375 5.9326 13.2653 5.83542 13.1979C5.79802 13.1604 5.43155 13.1754 5.02767 13.2279C4.27228 13.3102 4.14514 13.3776 4.16008 13.6847C4.16756 13.8344 4.16756 13.8344 4.20496 13.6847C4.27228 13.4076 4.38444 13.3477 4.81078 13.3477C5.27447 13.3477 6.54591 13.5349 7.10686 13.6847C7.85475 13.8943 7.8772 13.8943 7.63041 13.7595C7.3088 13.5798 6.82266 13.2503 6.73289 13.153C6.56836 12.9658 3.58424 12.1421 3.15043 12.157C2.9485 12.172 2.94102 12.172 3.10556 12.202ZM3.67293 12.601C3.58319 12.6684 3.48594 12.8256 3.46352 12.9529C3.41865 13.1701 3.41865 13.1701 3.53832 13.0278C3.85245 12.6309 3.87487 12.616 4.2638 12.6085C4.57794 12.601 4.62281 12.586 4.47321 12.5411C4.15903 12.4437 3.84494 12.4662 3.67293 12.601ZM7.4851 13.0631C7.54491 13.1679 8.12831 13.46 8.17317 13.415C8.19563 13.3926 8.12831 13.3327 8.03855 13.2803C7.94133 13.2278 7.8142 13.1454 7.7618 13.0855C7.64213 12.9733 7.41778 12.9508 7.4851 13.0631ZM7.53005 13.7746C7.58991 13.8794 8.17327 14.1714 8.21817 14.1265C8.24063 14.104 8.17327 14.0441 8.08355 13.9917C7.98633 13.9393 7.8592 13.8569 7.8068 13.797C7.68713 13.6847 7.46278 13.6622 7.53005 13.7746ZM7.93275 13.4302C7.7932 13.4842 7.65291 13.5818 7.60931 13.6517C7.5578 13.7342 7.60139 13.735 7.78134 13.6445C7.92249 13.5739 8.1262 13.5159 8.238 13.5064C8.4473 13.496 8.4473 13.496 8.31408 13.4127C8.23795 13.3651 8.07624 13.3699 7.93275 13.4302ZM7.07142 13.9676C6.64519 14.3504 6.55092 14.6172 6.68742 15.0137L6.80545 15.3533L6.77259 15.0096C6.72178 14.5381 6.84877 14.3235 7.36481 13.9509C7.60739 13.7776 7.80014 13.6203 7.7955 13.6061C7.77014 13.5278 7.28817 13.7633 7.07142 13.9676ZM4.43258 10.9066C4.66444 11.3484 5.60677 12.3667 6.13031 12.7561C6.27239 12.8609 6.52674 12.9657 6.68377 12.9882L6.97542 13.0331L6.75853 12.7935C6.40702 12.4116 5.86852 11.6778 5.69653 11.3558C5.5095 11.0039 5.4871 11.0937 5.64417 11.543C5.70399 11.7227 5.94333 12.0821 6.17517 12.3368C6.40706 12.5988 6.5566 12.816 6.51919 12.816C6.42202 12.816 5.7937 12.0747 5.34502 11.4307C4.85888 10.7268 4.83647 10.7043 4.97105 11.0937C5.03841 11.281 5.18794 11.558 5.31511 11.7077C5.43478 11.865 5.50955 11.9923 5.47214 11.9923C5.39738 11.9923 5.06827 11.6179 4.65693 11.0787C4.54473 10.9215 4.38767 10.7193 4.32038 10.6294C4.24563 10.5322 4.29797 10.6594 4.43258 10.9066ZM6.84506 13.0032C6.84506 13.0556 6.95724 13.1904 7.09186 13.2953C7.48828 13.5948 8.54278 14.0965 8.67741 14.0441C8.75967 14.0141 8.63255 13.9318 8.27353 13.797C7.64531 13.5499 7.06941 13.2205 7.06941 13.1081C7.06941 13.0482 7.3162 13.0407 7.92952 13.0781C8.84939 13.1306 9.12614 13.0257 8.28853 12.9508C7.40602 12.8609 6.84506 12.8834 6.84506 13.0032ZM4.87064 13.8044C4.54902 13.8793 4.37701 13.9916 4.37701 14.1264C4.37701 14.1788 4.40694 14.1713 4.44433 14.1114C4.50415 14.0141 5.11744 13.8344 5.1773 13.8943C5.19225 13.9092 5.1698 14.0215 5.12494 14.1339C5.08008 14.2462 5.06513 14.3585 5.08753 14.381C5.10999 14.4109 5.14735 14.351 5.1698 14.2687C5.25956 13.9467 5.53631 13.8493 6.20194 13.9092C6.53845 13.9392 6.91242 13.9766 7.0321 13.9841C7.15922 13.9916 7.33125 14.0365 7.42097 14.0889C7.61545 14.1938 8.3708 14.2013 8.30349 14.0964C8.28103 14.059 8.13895 14.0066 7.98188 13.9841C7.8323 13.9617 7.51819 13.8868 7.28635 13.8269C6.82266 13.7071 5.34178 13.6921 4.87064 13.8044ZM7.60172 14.6688C7.03805 14.5682 6.76997 14.6581 6.54197 15.0099L6.34739 15.3121L6.59761 15.0746C6.9375 14.7442 7.18453 14.7122 7.7955 14.89C8.0813 14.9747 8.32369 15.03 8.33203 15.0175C8.37811 14.9492 7.896 14.714 7.60172 14.6688ZM6.87183 14.4602C5.83224 14.7447 5.71256 14.8495 5.86219 15.3213C5.922 15.5011 5.922 15.4935 5.9295 15.2614C5.937 15.1341 6.00431 14.9544 6.07913 14.8795C6.2137 14.7447 6.81952 14.5725 7.55995 14.4527C7.73944 14.4302 7.85911 14.3778 7.8367 14.3404C7.7768 14.243 7.53745 14.273 6.87183 14.4602ZM7.75538 14.8261C7.23183 15.0582 7.05984 15.2828 7.0673 15.7022L7.0748 16.0616L7.14956 15.7246C7.24678 15.2604 7.43377 15.0956 8.03958 14.9009C8.32383 14.8111 8.55563 14.7212 8.55563 14.7062C8.55563 14.6238 8.02463 14.6987 7.75538 14.8261ZM7.656 15.4689C7.56624 15.5888 7.49892 15.746 7.49892 15.8284C7.49892 15.9257 7.53633 15.9032 7.641 15.731C7.72327 15.5963 7.86539 15.439 7.95516 15.3716C8.12714 15.2518 8.12714 15.2518 7.97011 15.2518C7.88039 15.2518 7.74572 15.3416 7.656 15.4689Z" fill="#008000"/>
<path d="M19.6881 18.8972C19.6412 18.976 19.6077 19.0329 19.5846 19.0729C19.3506 19.0034 18.3695 18.5642 17.5295 18.1841C16.683 17.8011 15.4795 17.3104 15.2536 17.1722C15.0805 17.066 15.0962 16.9761 15.3079 17.055C15.5196 17.1339 16.3356 17.5168 16.9132 17.77C17.5824 18.0689 19.2629 18.7228 19.6881 18.8972ZM15.396 16.9791C15.6266 17.1093 16.8464 17.5575 17.7058 17.9108C18.5585 18.2613 19.5543 18.6659 19.7906 18.7273C19.8123 18.6865 19.8438 18.6284 19.8879 18.5481C19.457 18.3886 17.7547 17.7937 17.0754 17.5185C16.4894 17.2857 15.6605 16.9315 15.4461 16.86C15.2318 16.7886 15.2193 16.879 15.396 16.9791ZM15.1531 17.234C14.9458 17.1441 14.9255 17.2331 15.0928 17.3482C15.3111 17.4981 16.4873 18.0511 17.3127 18.478C18.1316 18.9016 19.0884 19.3915 19.3185 19.4733C19.3436 19.4346 19.38 19.3795 19.431 19.3032C19.0155 19.1068 17.3716 18.3657 16.7189 18.0321C16.1553 17.7491 15.3604 17.3239 15.1531 17.234ZM17.6341 16.8033C17.0214 16.6544 16.1513 16.4192 15.9292 16.3783C15.707 16.3374 15.7071 16.4286 15.8961 16.5032C16.1425 16.6 17.4128 16.8739 18.3129 17.104C19.206 17.3324 20.2484 17.5942 20.4909 17.622C20.5068 17.5786 20.5298 17.5168 20.5624 17.431C20.1134 17.3331 18.3451 16.9812 17.6341 16.8033ZM17.2526 17.2764C16.6551 17.0747 15.8088 16.7644 15.5911 16.7042C15.3733 16.6441 15.3655 16.735 15.5472 16.8257C15.7843 16.9437 17.0259 17.3274 17.9025 17.6352C18.7724 17.9405 19.788 18.2924 20.0272 18.3412C20.0467 18.2994 20.0751 18.2398 20.115 18.1571C19.6763 18.0205 17.9453 17.5157 17.2526 17.2764ZM17.4686 17.0507C16.8614 16.8805 16.0001 16.615 15.7795 16.5663C15.5589 16.5177 15.5559 16.6089 15.7421 16.69C15.9849 16.7954 17.2449 17.1135 18.1365 17.3749C19.0211 17.6343 20.0537 17.9324 20.2951 17.9687C20.3124 17.9259 20.3377 17.8649 20.3732 17.7803C19.9279 17.6668 18.1729 17.2533 17.4686 17.0507Z" fill="#008000"/>
<path d="M12.4833 18.9397L12.7256 19.113C13.0728 19.3552 13.2639 19.6918 13.2449 20.0392L13.2321 20.3262L13.346 20.0439C13.4708 19.7485 13.4536 19.3011 13.3063 18.9698L13.2204 18.7767L13.4933 18.8956C13.8832 19.0602 14.14 19.3497 14.1936 19.6936L14.2406 19.9769L14.2935 19.6769C14.3541 19.362 14.2445 18.9282 14.0315 18.6348L13.9073 18.4636L14.199 18.5232C14.6145 18.603 14.9258 18.8328 15.0497 19.158L15.1545 19.4254L15.1439 19.1209C15.1378 18.8002 14.9404 18.3987 14.6713 18.156L14.5143 18.0144L14.812 18.012C15.235 18.0036 15.5872 18.1635 15.7759 18.4559L15.9339 18.6955L15.8604 18.4C15.7878 18.0877 15.5114 17.736 15.1977 17.5546L15.0147 17.4488L15.3054 17.3846C15.7175 17.2882 16.0952 17.3714 16.3405 17.618L16.5448 17.8195L16.4115 17.5457C16.2757 17.2553 15.9322 16.9687 15.5878 16.8567L15.3868 16.7914L15.6578 16.668C16.0408 16.488 16.4275 16.4907 16.7186 16.6808L16.9604 16.8355L16.7732 16.5954C16.58 16.3396 16.1845 16.1309 15.8244 16.093L15.6143 16.0709L15.8537 15.8937C16.191 15.638 16.5698 15.56 16.8941 15.6855L17.1627 15.7864L16.9297 15.5906C16.6876 15.3807 16.2575 15.2587 15.8973 15.2967L15.6872 15.3187L15.8845 15.0956C16.1614 14.7752 16.5158 14.6202 16.859 14.6755L17.1426 14.7182L16.874 14.5752C16.5937 14.4202 16.1476 14.3905 15.8031 14.5025L15.6022 14.5679L15.7488 14.3086C15.9531 13.9376 16.2676 13.7122 16.6147 13.6947L16.9011 13.6775L16.6087 13.5935C16.3022 13.5003 15.8598 13.5641 15.5461 13.7453L15.3631 13.8511L15.4528 13.5669C15.5755 13.1615 15.8363 12.8756 16.1723 12.7863L16.4488 12.7098L16.1454 12.6886C15.8262 12.6611 15.4067 12.8156 15.1375 13.0582L14.9805 13.1998L15.0093 12.9032C15.0451 12.4809 15.2408 12.1471 15.5509 11.9896L15.8055 11.8574L15.5043 11.8998C15.1864 11.9393 14.8082 12.1778 14.5953 12.4711L14.4711 12.6423L14.4376 12.3462C14.385 11.9258 14.507 11.5583 14.7777 11.34L14.9992 11.1575L14.7133 11.2617C14.4106 11.3666 14.0902 11.6786 13.9428 12.0098L13.8569 12.2032L13.7627 11.9205C13.6239 11.5202 13.667 11.1354 13.8864 10.8655L14.0652 10.6409L13.8072 10.8022C13.5329 10.9678 13.2842 11.3397 13.2089 11.6945L13.165 11.9015L13.0141 11.6446C12.7953 11.2819 12.7575 10.8966 12.916 10.5868L13.0443 10.33L12.8254 10.5415C12.5915 10.7606 12.4255 11.1762 12.4255 11.5388V11.7503L12.2245 11.5305C11.9352 11.2214 11.8183 10.8522 11.9089 10.5162L11.981 10.2383L11.8109 10.4908C11.6276 10.7538 11.5515 11.1948 11.6268 11.5496L11.6706 11.7565L11.4285 11.5832C11.0812 11.341 10.8903 11.0044 10.9092 10.6569L10.9219 10.37L10.808 10.6524C10.6833 10.9478 10.7005 11.395 10.8477 11.7262L10.9337 11.9196L10.6608 11.8006C10.2708 11.636 10.0141 11.3465 9.96044 11.0027L9.91343 10.7193L9.8606 11.0192C9.79999 11.3341 9.90954 11.768 10.1225 12.0614L10.2467 12.2325L9.9551 12.1729C9.5395 12.093 9.2283 11.8633 9.10436 11.5381L8.99955 11.2708L9.01015 11.5752C9.01624 11.8959 9.21363 12.2975 9.48279 12.54L9.63977 12.6816L9.34211 12.684C8.91897 12.6924 8.5668 12.5325 8.37813 12.2403L8.22007 12.0005L8.29366 12.296C8.36622 12.6084 8.64265 12.9602 8.95633 13.1415L9.13929 13.2473L8.84866 13.3115C8.43654 13.4078 8.05886 13.3247 7.81357 13.0782L7.60924 12.8766L7.74255 13.1503C7.87835 13.4408 8.2218 13.7272 8.56629 13.8393L8.76724 13.9047L8.4963 14.028C8.11319 14.2081 7.72652 14.2053 7.43533 14.0152L7.1936 13.8605L7.38082 14.1005C7.57399 14.3564 7.96943 14.5651 8.32966 14.603L8.53975 14.6251L8.30032 14.8022C7.96296 15.0581 7.58416 15.1358 7.25993 15.0104L6.99133 14.9096L7.22435 15.1054C7.46641 15.3155 7.89654 15.4372 8.25677 15.3993L8.46686 15.3773L8.26947 15.6003C7.99263 15.9208 7.63825 16.0757 7.29504 16.0206L7.0114 15.9778L7.27999 16.1208C7.56044 16.2759 8.00646 16.3055 8.3509 16.1935L8.55185 16.1281L8.40513 16.3874C8.20085 16.7585 7.88646 16.9839 7.53926 17.0013L7.25294 17.0184L7.54535 17.1024C7.85182 17.1957 8.29427 17.1319 8.60796 16.9506L8.79096 16.8447L8.70129 17.129C8.57852 17.5345 8.31785 17.8204 7.98185 17.9097L7.70529 17.9862L8.00875 18.0074C8.32788 18.0348 8.74741 17.8803 9.01657 17.6376L9.17355 17.4961L9.14486 17.7928C9.10896 18.2149 8.9133 18.5488 8.60322 18.7062L8.3486 18.8385L8.64982 18.7962C8.96772 18.7566 9.34591 18.518 9.55882 18.2246L9.68299 18.0535L9.71655 18.3497C9.7691 18.77 9.64708 19.1374 9.37643 19.3559L9.15485 19.5383L9.44074 19.4342C9.74341 19.3293 10.0639 19.0172 10.2112 18.6859L10.2971 18.4927L10.3914 18.7753C10.5302 19.1757 10.487 19.5604 10.2677 19.8304L10.0889 20.055L10.3469 19.8936C10.6212 19.728 10.8698 19.3561 10.9451 19.0013L10.9891 18.7945L11.14 19.0513C11.3588 19.414 11.3966 19.7993 11.2381 20.1091L11.1098 20.3659L11.3286 20.1544C11.5626 19.9354 11.7286 19.5198 11.7286 19.1571V18.9456L11.9296 19.1654C12.2189 19.4746 12.3358 19.8437 12.2452 20.1797L12.173 20.4576L12.3431 20.2051C12.5265 19.9421 12.6026 19.5012 12.5273 19.1464L12.4833 18.9395" fill="#FCDD09"/>
<path d="M11.7378 5.19672C11.4419 5.68464 11.4066 6.07492 11.6086 6.74885C11.7058 7.06333 11.8126 7.53302 11.8575 7.7876C11.9173 8.14699 11.911 8.1812 11.9194 8.25935C11.9942 8.25935 12.1642 8.25963 12.2428 8.25916C12.2541 8.13471 12.2632 7.99108 12.2897 7.79355C12.3207 7.56325 12.4124 7.08166 12.5111 6.74707C12.7083 6.07858 12.6951 5.66842 12.3884 5.20415C12.2763 5.03193 12.1267 4.88965 12.0594 4.88965C11.9921 4.88969 11.8398 5.02119 11.7378 5.19672ZM13.1908 6.57724C12.772 6.75696 12.5201 7.25449 12.3825 7.94008C12.3571 8.06885 12.3509 8.11427 12.3381 8.25939C12.4288 8.25977 12.4645 8.26038 12.5528 8.25981C12.5722 8.16222 12.5861 8.11071 12.6288 7.97214C12.7978 7.43627 13.2956 7.22121 13.2732 7.72296C13.2657 7.86147 13.2073 7.93881 13.1423 8.01311C13.2226 7.99305 13.3933 7.91331 13.5316 7.83466C14.3019 7.37036 13.9986 6.2328 13.1908 6.57724ZM11.4794 8.43424C11.8174 8.43574 12.4016 8.43841 12.6822 8.43695C12.6825 8.36477 12.6836 8.40161 12.6843 8.3433C12.4776 8.34152 11.6867 8.34442 11.481 8.34442C11.4815 8.38211 11.4805 8.40039 11.4794 8.43424ZM11.5788 8.83052C11.457 8.962 11.2666 9.0603 11.2666 9.0603C11.2666 9.0603 11.435 9.07928 11.592 9.0678C11.7491 9.05631 11.8362 9.03667 11.929 8.99158C11.9038 9.17894 11.9023 9.35983 11.9023 9.35983C11.9252 9.60095 11.951 9.66264 12.0032 9.77997C12.074 9.87789 12.1153 9.87841 12.1674 9.77505C12.2237 9.65936 12.2607 9.5403 12.2725 9.35875C12.2684 9.22267 12.2608 9.16033 12.2286 8.99397C12.3373 9.04103 12.4059 9.05327 12.568 9.06785C12.7339 9.08275 12.8863 9.07549 12.8863 9.07549C12.8863 9.07549 12.6623 8.96289 12.5637 8.8248C12.4663 8.68853 12.4871 8.71169 12.4163 8.53614C12.3303 8.53206 11.8942 8.53605 11.7559 8.53605C11.6801 8.69608 11.6724 8.7295 11.5788 8.83052ZM10.9631 6.57696C11.3819 6.75667 11.6338 7.25421 11.7714 7.9398C11.7968 8.06856 11.8031 8.11399 11.8158 8.25911C11.7251 8.25949 11.6895 8.2601 11.6011 8.25953C11.5818 8.16194 11.5678 8.11042 11.5252 7.97186C11.3562 7.43599 10.8583 7.22092 10.8808 7.72267C10.8883 7.86119 10.9467 7.93853 11.0117 8.01283C10.9313 7.99277 10.7607 7.91303 10.6223 7.83438C9.85203 7.37013 10.1554 6.23252 10.9631 6.57696Z" fill="#FCDD09"/>
<path d="M4.26612 5.19672C3.97024 5.68464 3.93495 6.07492 4.13688 6.74885C4.2341 7.06333 4.34092 7.53302 4.38579 7.7876C4.44561 8.14699 4.43934 8.1812 4.44774 8.25935C4.52254 8.25935 4.6925 8.25963 4.7711 8.25916C4.78239 8.13471 4.79153 7.99108 4.81807 7.79355C4.849 7.56325 4.94074 7.08166 5.03941 6.74707C5.23666 6.07858 5.22344 5.66842 4.91678 5.20415C4.80457 5.03193 4.65502 4.88965 4.58769 4.88965C4.52044 4.88969 4.36814 5.02119 4.26612 5.19672ZM5.71914 6.57724C5.30032 6.75696 5.04841 7.25449 4.91083 7.94008C4.88543 8.06885 4.87919 8.11427 4.86649 8.25939C4.95714 8.25977 4.99277 8.26038 5.08113 8.25981C5.10049 8.16222 5.11441 8.11071 5.15707 7.97214C5.3261 7.43627 5.82391 7.22121 5.80146 7.72296C5.794 7.86147 5.7356 7.93881 5.67058 8.01311C5.75092 7.99305 5.9216 7.91331 6.05992 7.83466C6.83027 7.37036 6.52689 6.2328 5.71914 6.57724ZM4.00772 8.43424C4.34573 8.43574 4.92996 8.43841 5.2105 8.43695C5.21083 8.36477 5.21186 8.40161 5.21257 8.3433C5.00599 8.34152 4.21499 8.34442 4.0093 8.34442C4.00982 8.38211 4.00885 8.40039 4.00772 8.43424ZM4.10716 8.83052C3.98531 8.962 3.79496 9.0603 3.79496 9.0603C3.79496 9.0603 3.96334 9.07928 4.12036 9.0678C4.27739 9.05631 4.36451 9.03667 4.45732 8.99158C4.43212 9.17894 4.43066 9.35983 4.43066 9.35983C4.45352 9.60095 4.47933 9.66264 4.53155 9.77997C4.60239 9.87789 4.64359 9.87841 4.69568 9.77505C4.75199 9.65936 4.789 9.5403 4.80082 9.35875C4.79674 9.22267 4.78914 9.16033 4.75695 8.99397C4.8656 9.04103 4.93422 9.05327 5.09632 9.06785C5.26221 9.08275 5.41464 9.07549 5.41464 9.07549C5.41464 9.07549 5.19058 8.96289 5.092 8.8248C4.99469 8.68853 5.01546 8.71169 4.94463 8.53614C4.85861 8.53206 4.42254 8.53605 4.28418 8.53605C4.20837 8.69608 4.20074 8.7295 4.10716 8.83052ZM3.49145 6.57696C3.91027 6.75667 4.16216 7.25421 4.29976 7.9398C4.32517 8.06856 4.33139 8.11399 4.34411 8.25911C4.25344 8.25949 4.21782 8.2601 4.12945 8.25953C4.1101 8.16194 4.09617 8.11042 4.05352 7.97186C3.8845 7.43599 3.38668 7.22092 3.40913 7.72267C3.41661 7.86119 3.47501 7.93853 3.53999 8.01283C3.45966 7.99277 3.28898 7.91303 3.15066 7.83438C2.38034 7.37013 2.68369 6.23252 3.49145 6.57696Z" fill="#FCDD09"/>
<path d="M19.2095 5.19672C18.9136 5.68464 18.8783 6.07492 19.0802 6.74885C19.1775 7.06333 19.2843 7.53302 19.3291 7.7876C19.389 8.14699 19.3827 8.1812 19.3911 8.25935C19.4659 8.25935 19.6358 8.25963 19.7145 8.25916C19.7257 8.13471 19.7349 7.99108 19.7614 7.79355C19.7924 7.56325 19.8841 7.08166 19.9828 6.74707C20.18 6.07858 20.1668 5.66842 19.8601 5.20415C19.7479 5.03193 19.5984 4.88965 19.531 4.88965C19.4638 4.88969 19.3115 5.02119 19.2095 5.19672ZM20.6625 6.57724C20.2437 6.75696 19.9918 7.25449 19.8542 7.94008C19.8288 8.06885 19.8225 8.11427 19.8098 8.25939C19.9005 8.25977 19.9361 8.26038 20.0245 8.25981C20.0438 8.16222 20.0578 8.11071 20.1004 7.97214C20.2695 7.43627 20.7673 7.22121 20.7448 7.72296C20.7374 7.86147 20.679 7.93881 20.6139 8.01311C20.6943 7.99305 20.865 7.91331 21.0033 7.83466C21.7736 7.37036 21.4702 6.2328 20.6625 6.57724ZM18.9511 8.43424C19.2891 8.43574 19.8733 8.43841 20.1539 8.43695C20.1542 8.36477 20.1552 8.40161 20.1559 8.3433C19.9493 8.34152 19.1583 8.34442 18.9526 8.34442C18.9532 8.38211 18.9522 8.40039 18.9511 8.43424ZM19.0505 8.83052C18.9286 8.962 18.7383 9.0603 18.7383 9.0603C18.7383 9.0603 18.9067 9.07928 19.0637 9.0678C19.2208 9.05631 19.3079 9.03667 19.4007 8.99158C19.3755 9.17894 19.374 9.35983 19.374 9.35983C19.3969 9.60095 19.4227 9.66264 19.4749 9.77997C19.5457 9.87789 19.587 9.87841 19.639 9.77505C19.6953 9.65936 19.7324 9.5403 19.7442 9.35875C19.7401 9.22267 19.7325 9.16033 19.7003 8.99397C19.809 9.04103 19.8776 9.05327 20.0397 9.06785C20.2056 9.08275 20.358 9.07549 20.358 9.07549C20.358 9.07549 20.1339 8.96289 20.0354 8.8248C19.938 8.68853 19.9588 8.71169 19.888 8.53614C19.802 8.53206 19.3659 8.53605 19.2275 8.53605C19.1517 8.69608 19.1441 8.7295 19.0505 8.83052ZM18.4348 6.57696C18.8536 6.75667 19.1055 7.25421 19.2431 7.9398C19.2685 8.06856 19.2748 8.11399 19.2875 8.25911C19.1968 8.25949 19.1612 8.2601 19.0728 8.25953C19.0535 8.16194 19.0395 8.11042 18.9969 7.97186C18.8279 7.43599 18.33 7.22092 18.3525 7.72267C18.36 7.86119 18.4184 7.93853 18.4833 8.01283C18.403 7.99277 18.2324 7.91303 18.094 7.83438C17.3237 7.37013 17.6271 6.23252 18.4348 6.57696Z" fill="#FCDD09"/>
</svg>
