<svg width="24" height="24" viewBox="0 0 24 24" fill="none" xmlns="http://www.w3.org/2000/svg">
<mask id="mask0_1_695" style="mask-type:luminance" maskUnits="userSpaceOnUse" x="0" y="0" width="24" height="24">
<path d="M24 0H0V24H24V0Z" fill="white"/>
</mask>
<g mask="url(#mask0_1_695)">
<path d="M12 24C18.6274 24 24 18.6274 24 12C24 5.37258 18.6274 0 12 0C5.37258 0 0 5.37258 0 12C0 18.6274 5.37258 24 12 24Z" fill="#F0F0F0"/>
<path d="M7.30436 7.82611H23.2536C21.5581 3.2565 17.1595 0 12 0C8.68623 0 5.68656 1.34339 3.51514 3.51511L7.30436 7.82611Z" fill="#6DA544"/>
<path d="M7.30436 16.1738H23.2536C21.5581 20.7434 17.1595 23.9999 12 23.9999C8.68623 23.9999 5.68656 22.6565 3.51514 20.4848L7.30436 16.1738Z" fill="#D80027"/>
<path d="M3.51471 3.51465C-1.17157 8.20093 -1.17157 15.7989 3.51471 20.4853C5.45128 18.5487 7.31377 16.6862 12 12L3.51471 3.51465Z" fill="#0052B4"/>
<path d="M14.087 9.91309V12.5218C14.087 14.1193 16.174 14.6088 16.174 14.6088C16.174 14.6088 18.261 14.1193 18.261 12.5218V9.91309H14.087Z" fill="#DEDDE0"/>
<path d="M15.6522 12.0522H16.6957V13.5653H15.6522V12.0522Z" fill="#786145"/>
<path d="M17.2173 11.4783C17.2173 10.902 16.7502 10.4348 16.1738 10.4348C15.5975 10.4348 15.1304 10.902 15.1304 11.4783C14.8422 11.4783 14.6086 11.7119 14.6086 12C14.6086 12.2882 14.8422 12.5217 15.1304 12.5217H17.2173C17.5055 12.5217 17.739 12.2882 17.739 12C17.739 11.7119 17.5055 11.4783 17.2173 11.4783Z" fill="#6DA544"/>
</g>
</svg>
