<svg width="24" height="24" viewBox="0 0 24 24" fill="none" xmlns="http://www.w3.org/2000/svg">
<mask id="mask0_1_839" style="mask-type:luminance" maskUnits="userSpaceOnUse" x="0" y="0" width="24" height="24">
<path d="M24 0H0V24H24V0Z" fill="white"/>
</mask>
<g mask="url(#mask0_1_839)">
<path d="M12 24C18.6274 24 24 18.6274 24 12C24 5.37258 18.6274 0 12 0C5.37258 0 0 5.37258 0 12C0 18.6274 5.37258 24 12 24Z" fill="#F0F0F0"/>
<path d="M12 8.86947H23.5866C23.2857 7.75319 22.8284 6.70126 22.2387 5.73901H12V8.86947Z" fill="#338AF3"/>
<path d="M4.53009 21.3912H19.4698C20.5649 20.5189 21.5041 19.4595 22.2386 18.2607H1.76123C2.49581 19.4594 3.435 20.5189 4.53009 21.3912Z" fill="#338AF3"/>
<path d="M4.17384 2.90332C3.23043 3.71571 2.41486 4.67238 1.76123 5.73907H4.17384V2.90332Z" fill="#338AF3"/>
<path d="M12 12.0001C12 10.7778 12 9.75482 12 8.86963H7.30434V12.0001H4.17389V8.86963H0.413391C0.144375 9.86779 0 10.9169 0 12.0001C0 13.0832 0.144375 14.1324 0.413391 15.1305H23.5867C23.8556 14.1324 24 13.0832 24 12.0001H12Z" fill="#338AF3"/>
<path d="M12.0001 0C10.3337 0 8.74679 0.339984 7.30444 0.953812V5.73914H12.0001C12.0001 4.64639 12.0001 3.717 12.0001 2.60869H19.47C17.4201 0.976125 14.8243 0 12.0001 0Z" fill="#338AF3"/>
</g>
</svg>
