<svg width="25" height="25" viewBox="0 0 25 25" fill="none" xmlns="http://www.w3.org/2000/svg">
<path d="M12.0669 24.916C18.6943 24.916 24.0669 19.5434 24.0669 12.916C24.0669 6.2886 18.6943 0.916016 12.0669 0.916016C5.43948 0.916016 0.0668945 6.2886 0.0668945 12.916C0.0668945 19.5434 5.43948 24.916 12.0669 24.916Z" fill="#012169"/>
<path d="M12.0669 24.916C18.6943 24.916 24.0669 19.5434 24.0669 12.916C24.0669 6.2886 18.6943 0.916016 12.0669 0.916016C5.43948 0.916016 0.0668945 6.2886 0.0668945 12.916C0.0668945 19.5434 5.43948 24.916 12.0669 24.916Z" fill="#012169"/>
<path d="M16.1489 18.2082C16.1489 18.2082 16.0755 18.402 16.0336 18.402C15.9917 18.402 15.8398 18.3182 15.8398 18.3182C15.8398 18.3182 15.7298 18.4965 15.6721 18.5068C15.6144 18.5173 15.4625 18.4807 15.4625 18.4807C15.4625 18.4807 15.3158 18.4807 15.3106 18.4597C15.3053 18.4388 15.3158 18.397 15.3158 18.397C15.3158 18.397 15.1063 18.5644 15.0591 18.5539C15.012 18.5436 14.8548 18.3446 14.8548 18.3446L14.8286 18.4493L14.53 18.4388L14.2681 18.2711C14.2681 18.2711 14.1214 18.5121 14.1161 18.5068C14.1109 18.5015 13.8594 18.5644 13.8594 18.5644L13.8437 18.5173L13.6761 18.4177C13.6761 18.4177 13.807 18.2345 13.807 18.2293C13.807 18.224 13.7442 18.2029 13.7442 18.2029L13.6499 18.2817L13.456 18.4072L13.2622 18.3182L13.346 18.1611L13.3565 18.0457L13.5084 17.8154L15.3683 16.0078L16.285 17.7L16.1489 18.2082Z" fill="#6A4C2D" stroke="black" stroke-width="0.828"/>
<path d="M17.4704 18.3185L17.9544 18.301L17.7483 18.1993L19.593 18.1298L19.3323 18.0305L19.1014 17.7176L18.1456 17.6457C18.1456 17.6457 18.0737 17.5911 17.9568 17.6183C17.952 17.544 17.8626 17.4471 17.8626 17.4471L17.2741 17.4023L16.9067 17.6531L17.1549 18.2887L17.4704 18.3185Z" fill="white" stroke="black" stroke-width="0.828"/>
<path d="M15.5864 12.8969L15.6351 12.7311C15.6351 12.7311 15.7203 12.5873 15.7203 12.5238C15.7203 12.4604 15.784 12.385 15.784 12.385C15.784 12.385 15.9788 12.3289 16.0203 12.4484C16.2301 12.1313 16.4763 12.4336 16.4763 12.4336L16.5445 12.3532L16.6834 12.1826C16.6834 12.1826 16.881 12.3679 16.8834 12.3995C16.8858 12.4312 16.9173 12.4093 16.9173 12.4093L17.132 12.3922C17.132 12.3922 17.2337 12.472 17.2124 12.6237C17.2881 12.6684 17.3562 12.9308 17.3562 12.9308L15.5864 12.8969Z" fill="#F2994A" stroke="black" stroke-width="0.828"/>
<path d="M17.4703 14.8699C17.5074 14.8473 17.624 14.8102 17.6097 14.6396C17.5955 14.4691 17.4477 14.4491 17.3653 14.4548C17.2826 14.4605 17.2088 14.5316 17.2088 14.5316L16.9358 14.3581C16.9358 14.3581 17.0725 13.4966 17.2173 13.4426C17.355 13.3433 17.3793 13.3004 17.3793 13.2778C17.3793 13.255 17.3283 13.198 17.3283 13.198L16.4382 13.0928L15.5966 13.1923C15.5966 13.1923 15.5313 13.2919 15.5398 13.3317C15.5483 13.3714 15.5512 13.4141 15.7018 13.5308C15.8686 13.659 15.9833 14.3951 15.9833 14.3951C15.9833 14.3951 15.7474 14.5116 15.7331 14.4973C15.7189 14.4833 15.6479 14.4691 15.6108 14.4747C15.574 14.4805 15.4517 14.5429 15.4517 14.7049C15.4517 14.8672 15.574 14.961 15.574 14.961C15.574 14.961 16.3785 14.8672 16.4981 15.0888C16.6147 14.8216 17.3793 14.9154 17.4703 14.8698V14.8699Z" fill="#656263" stroke="black" stroke-width="0.828"/>
<path d="M18.3371 13.9742C18.3371 13.9742 18.346 13.8806 18.4127 13.8361C18.4796 13.7916 18.9249 13.7693 19.0318 13.8361C19.1386 13.903 19.1786 14.2325 19.1786 14.2325C19.1786 14.2325 19.2456 14.3483 19.2499 14.4329C19.2543 14.5175 19.2633 14.5754 19.2633 14.5754C19.2633 14.5754 19.6195 15.0386 19.6239 15.4571C19.6641 15.7421 19.6551 16.5035 19.5439 16.7928C19.5393 17.1537 19.388 17.3896 19.388 17.3896C19.388 17.3896 19.4236 17.4518 19.4192 17.5187C19.4146 17.5856 19.3791 17.6478 19.3791 17.6478L19.8999 17.9061L19.7086 17.8348C19.7086 17.8348 19.9045 17.9997 19.8999 17.9953C19.8955 17.9907 19.6818 17.8927 19.6818 17.8927L19.8109 18.0219C19.8065 18.0175 19.4948 17.8794 19.4948 17.8794C19.4948 17.8794 19.6417 18.0174 19.6329 18.013C19.6239 18.0087 19.3968 17.9017 19.3968 17.9017C19.3968 17.9017 19.5393 18.0532 19.5349 18.0442C19.5306 18.0352 19.3302 17.9552 19.3302 17.9552L19.3389 18.0308C19.3389 18.0308 19.1786 18.0219 19.1786 17.9017C19.0984 17.8572 19.0452 17.7947 19.0452 17.7947L18.6756 17.7325L18.2568 16.4811L18.3549 14.366L18.3816 14.2592L18.3371 13.9742Z" fill="black" stroke="black" stroke-width="0.77625" stroke-linejoin="round"/>
<path d="M18.0576 20.7331C18.0576 20.7331 17.8432 20.2822 17.7364 20.2758C17.64 20.0919 18.0716 18.5887 18.9067 18.5029C19.3658 18.5407 18.9444 19.0321 18.6425 18.8809C18.6802 19.0131 18.8311 19.2023 18.8311 19.2023C18.8311 19.2023 18.2336 19.4605 18.0576 20.7331Z" fill="#FFBB00" stroke="black" stroke-width="0.822204"/>
<path d="M15.1831 20.7992C15.1831 20.7992 15.3607 20.2858 15.4684 20.2794C15.5762 20.2731 15.1831 18.5684 14.3276 18.5557C13.865 18.5938 14.2896 19.0879 14.5938 18.9358C14.5558 19.0691 14.4037 19.2592 14.4037 19.2592C14.4037 19.2592 15.0058 19.5189 15.1831 20.7992Z" fill="#FFBB00" stroke="black" stroke-width="0.828"/>
<path d="M15.9678 17.5929C15.9656 17.5888 15.7554 17.6589 15.8915 17.8878C15.9019 17.7992 15.9965 17.7455 15.9965 17.7455C15.9965 17.7455 15.8523 17.9168 16.0049 18.061C16.0235 17.9248 16.1101 17.8816 16.1101 17.8816C16.1101 17.8816 16.0029 18.1971 16.1121 18.2609C16.1246 18.1351 16.2048 18.0796 16.2048 18.0796C16.2048 18.0796 16.1079 18.362 16.1945 18.4258C16.2048 18.3188 16.2769 18.2712 16.2769 18.2712C16.2769 18.2712 16.2338 18.5641 16.3471 18.5847C16.3493 18.4815 16.4317 18.3807 16.4317 18.3807C16.4317 18.3807 16.3945 18.6196 16.5718 18.6301C16.574 18.5394 16.6069 18.4363 16.6069 18.4363C16.6069 18.4363 16.6874 18.6898 16.8049 18.6485C16.8029 18.5744 16.8068 18.4341 16.8049 18.4341C16.8027 18.4341 16.879 18.6753 17.0193 18.6301C16.9986 18.5619 17.0274 18.4815 17.0274 18.4815C17.0274 18.4815 17.1017 18.6321 17.2357 18.5825C17.2584 18.5371 17.2295 18.4486 17.2295 18.4486C17.2295 18.4486 17.4253 18.6507 17.4851 18.5291C17.545 18.4074 17.3284 18.3661 17.3284 18.3661H17.4748C17.4748 18.3661 17.4275 18.2425 17.2295 18.2155C17.2975 18.1846 17.3676 18.2074 17.3676 18.2074C17.3676 18.2074 17.3264 18.0527 17.1243 18.0362C17.2028 18.0095 17.2894 18.0281 17.2894 18.0281C17.2894 18.0281 17.2624 17.8816 17.0399 17.8405C17.0749 17.8012 17.1696 17.8137 17.1696 17.8137C17.1696 17.8137 17.0811 17.6756 16.98 17.6837C16.879 17.692 15.9656 17.591 15.9678 17.5929Z" fill="#00713D" stroke="black" stroke-width="0.828"/>
<path d="M16.8684 18.3363C16.8684 18.3363 16.9489 18.3756 16.9469 18.4107M16.916 18.2726C16.916 18.2726 17.019 18.3447 17.0171 18.3982M17.0065 18.2353C17.0065 18.2353 17.0892 18.2868 17.0932 18.3672M17.1446 18.2683C17.1446 18.2683 17.1861 18.357 17.1716 18.3734M17.2273 18.3157C17.2334 18.3859 17.221 18.392 17.221 18.392M16.2107 17.8724C16.2107 17.8724 16.3077 17.9343 16.2995 18.0208M16.2046 17.9467C16.2046 17.9467 16.25 17.99 16.2397 18.0189M16.3243 17.8746C16.3243 17.8746 16.3881 17.9632 16.3675 18.025M16.4335 17.9323C16.4335 17.9323 16.4624 17.988 16.4356 18.0189M16.485 17.9591C16.485 17.9591 16.5201 18.0147 16.4891 18.0334M16.446 18.1425C16.446 18.1425 16.5365 18.1632 16.549 18.2311M16.4994 18.0807C16.4994 18.0807 16.5944 18.0868 16.6047 18.1879M16.6253 18.0456C16.6273 18.0456 16.6891 18.155 16.6788 18.1899M16.7469 18.056C16.7469 18.056 16.7715 18.1611 16.7531 18.194M16.8252 18.0972C16.8252 18.0993 16.8272 18.2188 16.8272 18.2188M16.7058 17.9323C16.7058 17.9323 16.7654 17.9549 16.7612 18.0128M16.7612 17.8786C16.7612 17.8786 16.8375 17.922 16.8294 18.0044M16.85 17.8438C16.85 17.8438 16.916 17.922 16.8912 18.0086M16.9653 17.8621C16.9653 17.8621 16.9408 17.9591 16.9508 17.9983M17.0355 17.9281C17.0355 17.9281 16.9923 17.9612 17.0149 18.0025M16.6604 18.3054C16.6604 18.3054 16.6746 18.3797 16.6604 18.392M16.5655 18.2622C16.5655 18.2622 16.6128 18.3447 16.5964 18.3859M16.4644 18.2581C16.4644 18.2581 16.5181 18.3199 16.5159 18.3695M16.382 18.2704C16.382 18.2704 16.4315 18.3179 16.4273 18.3447M16.3387 18.3425C16.3387 18.3425 16.3861 18.392 16.3839 18.4023" stroke="#3EC26D" stroke-width="0.77625" stroke-linecap="round"/>
<path d="M15.3135 14.9587C15.5408 14.9546 15.7682 14.9506 15.9955 14.9465C15.9955 14.9465 16.446 14.9465 16.4947 15.0927C16.5799 14.8978 16.9695 14.9101 16.9695 14.9101L17.6757 14.8857C17.6798 15.454 17.6838 16.0222 17.688 16.5905C17.55 17.2519 17.0711 17.7188 16.5433 17.9177C15.9141 17.7147 15.5165 17.183 15.3867 16.5782C15.3622 16.0384 15.3378 15.4985 15.3135 14.9587Z" fill="white" stroke="black" stroke-width="0.828"/>
<path d="M15.5562 14.9522L16.5494 17.5992L17.4468 14.8945C17.1683 14.9125 16.5711 14.8507 16.4971 15.1046C16.3822 14.8775 15.7539 14.9691 15.5562 14.9522Z" fill="#006B00" stroke="black" stroke-width="0.828"/>
<path d="M16.2325 16.3855C16.2709 16.4055 16.2698 15.6671 16.32 15.6444C16.3343 15.5831 16.3415 15.5564 16.3595 15.4915C16.3163 15.415 16.123 15.4187 16.0513 15.4839C16.0835 15.5869 16.0977 15.6213 16.0977 15.6213C16.1946 15.778 16.1753 16.4022 16.2325 16.3855Z" fill="#FFC900" stroke="#006B00" stroke-width="0.427869" stroke-linecap="round"/>
<path d="M15.9665 10.6784C15.9665 10.6784 16.0368 10.5986 16.0399 10.5796C16.0432 10.5604 16.3588 10.5476 16.547 10.1968C16.6522 10.0118 16.547 10.1203 16.547 10.1203L16.5406 10.0309C16.5406 10.0309 16.6715 9.90657 16.6237 9.83958C16.5757 9.7726 16.5917 9.92569 16.5152 9.92255C16.4387 9.91936 16.4801 9.75666 16.4801 9.75666C16.4801 9.75666 16.4737 9.73754 16.4514 9.72793C16.4194 9.73111 16.4291 9.78858 16.4003 9.79491C16.3716 9.80129 16.3461 9.66099 16.3461 9.66099C16.3461 9.66099 16.2984 9.59719 16.2567 9.79815C16.2791 10.0118 16.4163 9.97032 16.4163 10.1107C16.4163 10.251 16.2951 10.3595 16.26 10.3627C16.2249 10.3658 16.2376 10.2446 16.2376 10.2446C16.2376 10.2446 16.2185 10.1873 16.2058 10.1873C16.1931 10.1873 16.276 10.1745 16.2633 10.015C16.2346 9.82364 16.2122 10.0597 16.1611 10.0501C16.11 10.0405 16.1484 9.87465 16.1675 9.85557C16.1865 9.83649 16.1451 9.75666 16.0335 9.96075C16.0239 10.0597 16.0112 9.9353 15.9888 9.94163C15.9507 10.0214 15.957 10.0788 16.0112 10.1521C16.091 10.2255 16.1421 10.2989 16.1388 10.3371C16.1357 10.3754 16.094 10.4615 16.0368 10.4615C15.9794 10.4615 16.0399 10.3562 16.0368 10.3212C16.0335 10.2861 15.938 10.1585 15.938 10.1585C15.938 10.1585 15.8709 10.0501 15.8773 10.0469C15.8836 10.0437 15.8709 10.0278 15.8391 10.1394C15.8071 10.251 15.7687 10.066 15.7687 10.066C15.7687 10.066 15.7242 10.2031 15.8198 10.2861C15.7466 10.2766 15.7402 10.3052 15.7402 10.3052C15.7402 10.3435 15.839 10.3595 15.8518 10.4265C15.8645 10.4934 15.7497 10.5317 15.7497 10.5317C15.7497 10.5317 15.7977 10.5986 15.9314 10.4679C15.9347 10.5508 15.8805 10.6082 15.8805 10.6082C15.925 10.6284 15.9601 10.6263 15.9665 10.6784Z" fill="#CDAD56" stroke="black" stroke-width="0.77625" stroke-linejoin="round"/>
<path d="M15.5287 10.678C15.5287 10.678 15.4691 10.5895 15.4665 10.572C15.4636 10.5547 15.1731 10.5941 15.0357 10.2397C14.9463 10.0714 15.0357 10.1701 15.0357 10.1701L15.0412 10.0889C15.0412 10.0889 14.946 9.97247 14.9867 9.91153C15.0273 9.85059 15.0106 9.9899 15.0628 9.99014C15.1278 9.98723 15.0926 9.8392 15.0926 9.8392C15.0926 9.8392 15.098 9.82181 15.117 9.81309C15.144 9.81604 15.1552 9.90333 15.1795 9.90914C15.2039 9.9149 15.2543 9.80639 15.27 9.78408C15.2924 9.78089 15.2916 9.69412 15.3268 9.87698C15.308 10.0714 15.1468 10.0337 15.1468 10.1614C15.1468 10.2891 15.2497 10.3877 15.2795 10.3906C15.3093 10.3935 15.2986 10.2833 15.2986 10.2833C15.2986 10.2833 15.3148 10.231 15.3255 10.231C15.3365 10.231 15.2308 10.2513 15.2418 10.1062C15.2661 9.97036 15.32 10.115 15.3634 10.1062C15.4068 10.0975 15.3584 9.96258 15.3709 9.94195C15.3737 9.92137 15.4376 9.83287 15.4623 10.0282C15.4705 10.1182 15.5195 9.95076 15.5384 9.95653C15.5711 10.0291 15.5241 10.126 15.4781 10.1927C15.4103 10.2595 15.3797 10.3326 15.3825 10.3674C15.3851 10.4023 15.4011 10.4455 15.45 10.4455C15.4987 10.4455 15.4665 10.3848 15.4691 10.353C15.4717 10.3211 15.5531 10.2177 15.5531 10.2177C15.5691 10.1922 15.5557 10.1445 15.5726 10.1225C15.5991 10.1227 15.6101 10.086 15.6371 10.1875C15.6642 10.2891 15.6967 10.1208 15.6967 10.1208C15.6967 10.1208 15.7346 10.2456 15.6533 10.321C15.7155 10.3123 15.721 10.3384 15.721 10.3384C15.721 10.3732 15.6914 10.3877 15.6805 10.4487C15.6695 10.5096 15.7129 10.5444 15.7129 10.5444C15.7129 10.5444 15.6723 10.6054 15.5586 10.4864C15.5557 10.5619 15.602 10.6141 15.602 10.6141C15.5638 10.6325 15.5342 10.6305 15.5287 10.678Z" fill="#CDAD56" stroke="black" stroke-width="0.682479" stroke-linejoin="round"/>
<path d="M17.2812 15.3472C17.2218 15.2933 17.2147 15.3404 17.1856 15.3284C17.1711 15.3225 17.16 15.3091 17.1475 15.2968C17.1367 15.2856 17.1238 15.281 17.1096 15.2751C17.104 15.2911 17.0988 15.3069 17.0933 15.3229C17.0879 15.3389 17.1084 15.3654 17.108 15.3893C17.1038 15.4249 17.0894 15.4544 17.0446 15.4665C17.0573 15.4413 17.0646 15.4402 17.0607 15.4093C17.0589 15.3939 17.0157 15.3665 17.021 15.3521C17.0288 15.3286 17.0424 15.3016 17.0324 15.2782C17.0142 15.2907 16.99 15.2841 16.9719 15.2918C16.9563 15.2986 16.9554 15.3273 16.9339 15.3391C16.912 15.3494 16.8636 15.3444 16.823 15.3214C16.8478 15.3028 16.8682 15.3153 16.8929 15.2966C16.9052 15.2872 16.9048 15.2471 16.917 15.2376C16.9296 15.2282 16.9591 15.2183 16.9714 15.2089C16.9603 15.1962 16.9609 15.1762 16.9497 15.1635C16.9387 15.1508 16.8894 15.1535 16.8782 15.1409C16.8559 15.1155 16.8602 15.0822 16.8379 15.057C16.8956 15.0776 16.8872 15.1057 16.9017 15.1035C16.9289 15.0903 16.9561 15.0879 16.9703 15.0938C16.9848 15.1 17.012 15.1355 17.0262 15.1414C17.0317 15.1254 17.0396 15.1052 17.0449 15.0892C17.0504 15.0732 17.0208 15.0456 17.026 15.0296C17.0369 14.9978 17.0637 14.9695 17.0744 14.9375C17.0784 14.9684 17.0834 14.9943 17.0874 15.025C17.0894 15.0403 17.1196 15.0484 17.1216 15.0638C17.1236 15.0793 17.1058 15.1149 17.1076 15.1304C17.1242 15.1272 17.1481 15.1294 17.1645 15.1261C17.1812 15.1228 17.1922 15.0844 17.2087 15.0811C17.2417 15.0745 17.2656 15.0765 17.2992 15.0829C17.2744 15.1059 17.2553 15.1043 17.2397 15.1254C17.2275 15.1348 17.2446 15.1657 17.2088 15.1874C17.1954 15.1953 17.1602 15.1859 17.1477 15.1953C17.1589 15.208 17.1701 15.2205 17.1812 15.2332C17.1922 15.2459 17.2422 15.2519 17.2533 15.2646C17.2755 15.2898 17.2873 15.32 17.2812 15.3472ZM15.7538 15.3733C15.8132 15.3194 15.8203 15.3665 15.8497 15.3545C15.8639 15.3484 15.8751 15.335 15.8876 15.3229C15.8983 15.3117 15.9112 15.3071 15.9254 15.301C15.931 15.317 15.9364 15.333 15.9417 15.349C15.9472 15.365 15.9268 15.3913 15.9272 15.4152C15.9312 15.451 15.9457 15.4803 15.9904 15.4926C15.9777 15.4674 15.9704 15.4661 15.9743 15.4354C15.9764 15.42 16.0193 15.3926 16.014 15.3779C16.0062 15.3547 15.9926 15.3275 16.0027 15.3041C16.0211 15.3168 16.045 15.3102 16.0634 15.3177C16.0787 15.3247 16.0798 15.3534 16.1011 15.3652C16.1232 15.3755 16.1717 15.3705 16.212 15.3475C16.1872 15.3286 16.1668 15.3413 16.1421 15.3225C16.1298 15.3132 16.1304 15.2729 16.118 15.2637C16.1057 15.2543 16.0761 15.2442 16.0636 15.2347C16.0747 15.2223 16.0741 15.2021 16.0853 15.1894C16.0964 15.1769 16.1458 15.1795 16.1568 15.1668C16.1791 15.1416 16.175 15.1083 16.1971 15.0829C16.1394 15.1035 16.148 15.1315 16.1335 15.1295C16.1061 15.1164 16.0789 15.1137 16.0647 15.1199C16.0504 15.1258 16.023 15.1613 16.0088 15.1675C16.0033 15.1515 15.9957 15.1313 15.9901 15.1153C15.9847 15.0993 16.0145 15.0717 16.009 15.0557C15.9982 15.0237 15.9713 14.9956 15.9606 14.9636C15.9566 14.9943 15.9516 15.0201 15.9476 15.0511C15.9457 15.0664 15.9154 15.0745 15.9134 15.0899C15.9117 15.1052 15.9294 15.1409 15.9275 15.1563C15.9108 15.153 15.8869 15.1552 15.8705 15.1521C15.854 15.1486 15.843 15.1102 15.8264 15.107C15.7933 15.1004 15.7696 15.1024 15.7358 15.1087C15.7606 15.1319 15.7797 15.1302 15.7953 15.1515C15.8075 15.1609 15.7904 15.1918 15.8262 15.2135C15.8396 15.2214 15.8751 15.212 15.8873 15.2214C15.8761 15.2339 15.8649 15.2466 15.854 15.2593C15.8428 15.272 15.7928 15.278 15.7819 15.2905C15.7595 15.3159 15.7477 15.3462 15.7538 15.3733Z" fill="#FFC900"/>
<path d="M17.228 15.5171C17.1741 15.559 16.8266 15.6468 16.8229 15.9487C16.8193 16.2506 16.8838 16.3195 16.8193 16.3271C16.6939 16.3271 16.676 15.9909 16.6795 15.8418C16.6832 15.6927 16.6867 15.7157 16.6867 15.7157C16.6867 15.7157 16.7727 15.7385 16.7657 15.8113C16.7584 15.8838 16.8516 15.6315 16.8194 15.5629C16.8766 15.6201 16.952 15.5973 16.952 15.5934C16.952 15.5897 16.909 15.5438 16.891 15.5095C16.8731 15.4751 16.9555 15.5285 16.9555 15.5285C16.9555 15.5285 16.9591 15.4711 16.8873 15.475C16.7942 15.475 16.9018 15.4443 16.9018 15.4443C16.9018 15.4443 16.9555 15.4941 16.9915 15.4406C16.952 15.3985 16.8946 15.3754 16.8946 15.3754C16.8946 15.3754 16.8444 15.2801 16.7764 15.2611C16.6975 15.2418 16.7082 15.2952 16.6186 15.2878C16.6008 15.322 16.6008 15.3259 16.6365 15.3373C16.5756 15.3794 16.6078 15.4634 16.6078 15.4634C16.6078 15.4634 16.7047 15.4215 16.701 15.4901C16.6975 15.559 16.6437 15.5476 16.6078 15.5055C16.5756 15.4864 16.5648 15.5246 16.5648 15.5246L16.615 15.578C16.615 15.578 16.5183 15.5743 16.4932 15.6392C16.5469 15.6355 16.5756 15.6508 16.5756 15.6508C16.5756 15.6508 16.4644 15.7003 16.4537 15.7271C16.4429 15.7539 16.4395 15.6966 16.4359 15.6966C16.4322 15.6966 16.3283 15.6583 16.3283 15.6583L16.2924 15.8236C16.2924 15.8236 16.3643 15.8952 16.4035 15.8723C16.443 15.8494 16.5146 15.7806 16.5576 15.7997C16.4322 15.8952 16.3068 16.0327 16.2386 16.052C16.2209 16.0367 16.1599 15.9755 16.1347 16.006C16.1097 16.0367 16.1277 16.0748 16.1599 16.0711C16.1922 16.0671 16.056 16.1016 16.0845 16.159C16.1133 16.2162 16.1097 16.2125 16.1347 16.1971C16.1599 16.1818 16.1133 16.1781 16.2064 16.1513C16.2996 16.1246 16.2961 16.0978 16.2961 16.0978C16.2961 16.0978 16.2781 16.1397 16.2279 16.1513C16.1777 16.1627 16.1384 16.1627 16.1492 16.1781C16.1599 16.1932 16.1814 16.2199 16.1742 16.2353C16.167 16.2506 16.2781 16.1551 16.3068 16.2316C16.382 16.2276 16.4322 16.136 16.3965 16.0825C16.4 16.1397 16.4359 16.159 16.4142 16.1857C16.3928 16.2125 16.5828 16.0978 16.4897 16.029C16.5146 16.0862 16.5183 16.1322 16.5183 16.1322C16.5183 16.1322 16.5613 16.1283 16.5721 16.113C16.5828 16.0978 16.5506 16.1551 16.5648 16.1665C16.5791 16.1781 16.6473 16.243 16.6186 16.2888C16.6008 16.262 16.5971 16.2199 16.5756 16.2239C16.5541 16.2276 16.4644 16.2927 16.4107 16.2964C16.357 16.3001 16.4752 16.4953 16.4752 16.4953C16.4752 16.4953 16.3928 16.4837 16.382 16.4913C16.3712 16.499 16.3176 16.4225 16.3068 16.4685C16.2888 16.5258 16.3248 16.5027 16.3248 16.5027C16.3248 16.5027 16.2781 16.48 16.2531 16.5067C16.2279 16.5334 16.2029 16.5602 16.2209 16.5716C16.2386 16.583 16.3176 16.583 16.3283 16.5792C16.339 16.5755 16.2386 16.5869 16.2317 16.5983C16.2244 16.6098 16.2101 16.6518 16.2317 16.6671C16.2531 16.6825 16.3068 16.6595 16.3103 16.6481C16.314 16.6365 16.3176 16.69 16.3176 16.69C16.3176 16.69 16.4108 16.6976 16.4108 16.6023C16.4108 16.5067 16.418 16.6709 16.418 16.6709C16.418 16.6709 16.5112 16.6863 16.5146 16.5906C16.5183 16.4953 16.5254 16.6558 16.5254 16.6558C16.5254 16.6558 16.5863 16.6365 16.5863 16.6214C16.5863 16.606 16.5828 16.8123 16.5399 16.8697C16.4717 16.8237 16.4287 16.9002 16.4287 16.9002C16.4287 16.9002 16.4322 17.0109 16.425 17.0376C16.418 17.0644 16.4717 17.0225 16.4752 17.0109C16.4789 16.9995 16.5434 16.9691 16.5468 16.9614C16.5506 16.9537 16.5684 16.9155 16.5684 16.9155C16.5684 16.9155 16.5541 16.9691 16.5291 16.9767C16.5039 16.9841 16.4789 17.0109 16.4897 17.0339C16.5004 17.0569 16.5399 17.0721 16.5541 17.0951C16.5684 17.1179 16.6186 16.9614 16.6186 16.9614L16.6223 16.9958C16.6223 16.9958 16.6867 16.9804 16.6939 16.95C16.701 16.9193 16.6258 16.8925 16.6867 16.843C16.7477 16.7932 16.6867 16.8888 16.6867 16.8888C16.6867 16.8888 16.7082 16.9614 16.7225 16.9614C16.737 16.9614 16.7727 16.8237 16.737 16.7895C16.701 16.7551 16.7906 16.8314 16.7906 16.8314C16.7906 16.8314 16.8408 16.69 16.7871 16.6709C16.7332 16.6518 16.7082 16.6441 16.7082 16.6441C16.7082 16.6441 16.737 16.606 16.7225 16.6023C16.7082 16.5983 16.7979 16.6863 16.8122 16.6632C16.8266 16.6404 16.8481 16.5716 16.7442 16.5334C16.64 16.4953 16.7404 16.3881 16.7404 16.3881C16.7404 16.3881 16.8051 16.4646 16.8516 16.4225C16.8981 16.3806 16.8481 16.3806 16.8481 16.3806C16.8481 16.3806 16.9805 16.2964 16.9842 16.2543C16.959 16.2506 16.9161 16.2583 16.9161 16.2583C16.9161 16.2583 16.9915 16.2086 16.9735 16.1283C16.9448 16.1704 16.9053 16.1704 16.9053 16.1704C16.9053 16.1704 16.97 16.1055 16.959 16.0443C16.9198 16.0748 16.9233 16.0978 16.8981 16.0901C16.8731 16.0825 16.8301 15.8418 16.9305 15.8265C17.0307 15.8113 16.977 15.945 16.9805 15.945C16.9842 15.945 17.1311 15.8838 16.9805 15.7846C17.0164 15.7729 17.0916 15.8418 17.0916 15.8418C17.0916 15.8418 17.0594 15.6736 16.8981 15.7769C16.9375 15.7348 16.9628 15.7081 16.995 15.7157C17.0272 15.7233 17.1418 15.7118 17.1418 15.6776C17.1133 15.6546 17.0524 15.689 17.02 15.6776C16.9878 15.6659 17.2495 15.6468 17.228 15.5171Z" fill="#FFC900" stroke="#006B00" stroke-width="0.427869" stroke-linecap="round" stroke-linejoin="round"/>
<path d="M16.0918 15.6165C16.0918 15.6165 16.2352 15.5363 16.3068 15.6357M16.3642 15.7885C16.3606 15.7885 16.314 15.8382 16.3032 15.8382M16.461 15.949C16.461 15.949 16.5935 15.9604 16.6796 15.8191" stroke="#006B00" stroke-width="0.427981" stroke-linecap="round"/>
<path d="M16.6042 15.9072C16.6042 15.9072 16.6149 15.9837 16.6365 15.9837C16.6579 15.9837 16.6007 16.0028 16.5791 15.9875C16.6042 16.0219 16.6186 16.0831 16.5791 16.1059" stroke="#006B00" stroke-width="0.427981" stroke-linecap="round"/>
<path d="M16.5361 16.8701C16.5361 16.8701 16.4895 16.9235 16.4321 16.9274L16.5361 16.8701Z" fill="#E80000"/>
<path d="M16.5361 16.8701C16.5361 16.8701 16.4895 16.9235 16.4321 16.9274" stroke="#006B00" stroke-width="0.427981" stroke-linecap="round"/>
<path d="M16.5899 16.6255C16.5899 16.6255 16.5612 16.4728 16.5791 16.4345C16.5899 16.3848 16.6365 16.3657 16.6723 16.3008" stroke="#006B00" stroke-width="0.427981" stroke-linecap="round"/>
<path d="M16.5753 16.5147C16.5753 16.5147 16.5395 16.6064 16.3818 16.5759M16.6184 16.2855C16.6184 16.2855 16.6291 16.4078 16.4858 16.362M16.4427 15.7354C16.4427 15.7354 16.3853 15.7887 16.4069 15.8614" stroke="#006B00" stroke-width="0.427981" stroke-linecap="round"/>
<path d="M16.6577 15.6018C16.6577 15.6018 16.7329 15.5712 16.7474 15.5559C16.7616 15.5406 16.7868 15.5101 16.794 15.4871C16.8011 15.4643 16.7437 15.4298 16.7724 15.3801C16.7903 15.3572 16.8154 15.3534 16.8585 15.3801C16.9014 15.4069 16.819 15.2961 16.776 15.2923C16.7329 15.2884 16.7043 15.3229 16.6936 15.3152C16.6829 15.3076 16.6972 15.3458 16.6792 15.3458C16.6613 15.3458 16.715 15.3763 16.7115 15.3955C16.7079 15.4146 16.7688 15.4795 16.7653 15.4948C16.7616 15.5101 16.6756 15.5979 16.6577 15.6018Z" fill="#006B00"/>
<path d="M16.7119 15.3495C16.7446 15.3415 16.7498 15.3503 16.7441 15.38C16.7288 15.3718 16.7232 15.3648 16.7119 15.3495Z" fill="#FFC900" stroke="#FFC900" stroke-width="0.427981" stroke-linecap="round" stroke-linejoin="round"/>
<path d="M16.4831 17.0519C16.4831 17.0519 16.471 17.1319 16.5005 17.1385C16.499 17.1075 16.5069 17.0864 16.5141 17.0782C16.5078 17.0751 16.4845 17.0524 16.4831 17.0519ZM16.4166 16.9534C16.3894 16.9492 16.3437 16.9732 16.3568 17.0022C16.3789 16.982 16.3993 17.0038 16.4147 16.9832C16.4194 16.9775 16.4181 16.9606 16.4166 16.9534ZM16.4164 16.8962C16.4164 16.8962 16.3736 16.889 16.3677 16.9206C16.3972 16.9166 16.4059 16.9132 16.4158 16.9198C16.4186 16.9131 16.4159 16.8979 16.4164 16.8962Z" fill="#E80000" stroke="#006B00" stroke-width="0.427981" stroke-linejoin="round"/>
<path d="M16.235 16.4452C16.235 16.4452 16.2606 16.4554 16.2679 16.4833C16.2882 16.4699 16.298 16.4106 16.235 16.4452ZM16.1716 16.5132C16.1726 16.5127 16.2253 16.4786 16.2307 16.5112C16.2196 16.523 16.2147 16.5308 16.206 16.5334C16.1992 16.5334 16.1856 16.5112 16.1716 16.5132ZM16.1663 16.6236C16.1672 16.6231 16.2001 16.5922 16.2128 16.6127C16.2253 16.6335 16.2026 16.6323 16.2026 16.6323C16.2026 16.6323 16.191 16.6268 16.1663 16.6236ZM16.1198 16.0086C16.1194 16.0086 16.0777 15.9915 16.0602 16.0225C16.0879 16.0261 16.0976 16.0364 16.1101 16.0468C16.1067 16.0338 16.101 16.0142 16.1198 16.0086ZM16.0391 16.2402C16.0391 16.2402 16.0409 16.1882 16.0641 16.167C16.0772 16.1747 16.0811 16.1871 16.0898 16.2025C16.0724 16.2067 16.0491 16.2078 16.0391 16.2402ZM16.1502 16.2031C16.1502 16.2031 16.1044 16.2257 16.1194 16.2506C16.1343 16.2335 16.1509 16.2387 16.1509 16.2382C16.1509 16.2378 16.1509 16.2037 16.1502 16.2031Z" fill="#E80000" stroke="#006B00" stroke-width="0.456513" stroke-linejoin="round"/>
<path d="M16.0841 15.7043C16.0676 15.724 16.1045 15.7668 16.1431 15.7606C16.1528 15.7142 16.0939 15.69 16.0841 15.7043Z" fill="#FFC900" stroke="#006B00" stroke-width="0.456513" stroke-linejoin="round"/>
<path d="M16.1265 15.6692C16.1265 15.6692 16.1337 15.7059 16.1671 15.696C16.1618 15.6677 16.1385 15.6465 16.1385 15.6465C16.1371 15.6548 16.1433 15.6677 16.1265 15.6692ZM16.1487 15.7755C16.1487 15.7755 16.1671 15.7966 16.2034 15.7533C16.187 15.7584 16.158 15.743 16.158 15.743C16.158 15.743 16.158 15.7729 16.1487 15.7755Z" fill="#E80000" stroke="#006B00" stroke-width="0.456513" stroke-linejoin="round"/>
<path d="M16.082 15.6206C16.0656 15.6402 16.0889 15.6675 16.1275 15.6614C16.1372 15.6149 16.0917 15.6062 16.082 15.6206Z" fill="#FFC900" stroke="#006B00" stroke-width="0.456513" stroke-linejoin="round"/>
<path d="M16.0973 15.4376C16.0973 15.4376 16.2516 15.3936 16.3336 15.4597C16.4154 15.5257 16.4154 15.4659 16.4154 15.4659C16.4154 15.4659 16.5351 15.51 16.5697 15.5005C16.6044 15.4911 16.5445 15.5038 16.5916 15.4753C16.639 15.447 16.4972 15.4817 16.4847 15.4218C16.4625 15.3841 16.4877 15.3367 16.4375 15.3525C16.4029 15.3085 16.4594 15.2771 16.447 15.2298C16.4123 15.255 16.3933 15.2204 16.3649 15.2833C16.299 15.2708 16.3555 15.1793 16.2832 15.1699C16.2832 15.2362 16.2297 15.2392 16.2264 15.2771C16.1951 15.2991 16.0565 15.381 16.0973 15.4376Z" fill="#EB5757"/>
<path d="M14.3219 20.4565C14.422 20.4324 14.9644 20.5764 15.1735 20.8005C15.1291 20.4012 15.0185 20.0954 15.0185 20.0954C15.0185 20.0954 14.6953 20.0031 14.6509 20.0477C14.5859 20.1161 14.3904 20.3215 14.3219 20.4565ZM14.1566 18.6124C14.1186 18.6187 14.0806 18.6441 14.0425 18.7075C13.9982 18.8151 13.9665 19.0876 13.9031 19.151C13.8397 19.2144 13.7827 19.2207 13.7827 19.2779C13.7827 19.3349 13.7891 19.468 13.9601 19.5186C14.1313 19.525 14.4038 19.2461 14.4038 19.2461C14.4038 19.2461 14.5432 19.094 14.6002 18.9293C14.2707 19.0434 14.0362 18.7391 14.1566 18.6124Z" fill="#C01500" stroke="black" stroke-width="0.828"/>
<path d="M18.9223 20.393C18.823 20.3691 18.2745 20.5123 18.0669 20.735C18.111 20.3382 18.2208 20.0339 18.2208 20.0339C18.2592 20.0236 18.538 19.9423 18.5821 19.9865C18.6466 20.0545 18.8543 20.2588 18.9223 20.393ZM19.076 18.5596C19.1138 18.5659 19.1271 18.6155 19.158 18.6786C19.2018 18.7856 19.2473 18.9417 19.3102 19.0046C19.3731 19.0678 19.4296 19.1609 19.4296 19.2177C19.4296 19.2745 19.4165 19.351 19.2466 19.4014C19.0769 19.4078 18.8307 19.1897 18.8307 19.1897C18.8307 19.1897 18.6923 19.0386 18.6358 18.8746C18.9629 18.9882 19.1746 18.6962 19.076 18.5596Z" fill="#C01500" stroke="black" stroke-width="0.822204"/>
<path d="M13.9663 20.1085C13.9663 20.1085 14.3085 20.3428 14.3149 20.4506C15.2339 19.0879 17.5788 18.6633 18.9158 20.3555C19.0934 20.1209 19.2771 20.0451 19.2771 20.0451C17.8703 18.2071 15.069 18.4353 13.9663 20.1084V20.1085Z" fill="#FFBB00" stroke="black" stroke-width="0.828"/>
<path d="M17.4524 14.8949L17.5864 14.8916L17.3472 15.1946L17.6342 15.5295L17.0697 16.2407L17.6024 16.8818C17.5438 17.0254 17.4759 17.156 17.3853 17.2742L17.0793 16.9359L17.6341 16.244L17.1782 15.7273L17.4524 14.8949H17.4524ZM15.5388 14.9554L15.3952 14.9587L15.6631 15.2487L15.3794 15.6028L15.9694 16.244L15.4813 16.8978C15.5398 17.0413 15.6238 17.2007 15.7142 17.3186L16.0044 16.9519L15.4081 16.2885L15.8451 15.7337L15.5388 14.9554Z" fill="#1E5AA6" stroke="black" stroke-width="0.828"/>
<path d="M16.2026 16.6781L15.992 16.9587L16.7447 17.8294C16.8775 17.7624 16.9819 17.6859 17.0957 17.5936L16.7032 17.1406L16.8628 16.6717L17.0924 16.9363L16.3749 17.8519C16.2547 17.8008 16.1218 17.7209 16.0017 17.6221L16.3812 17.1406L16.2026 16.6781V16.6781ZM15.9697 16.2412L16.1069 16.4134L16.0175 16.1807L15.9697 16.2412Z" fill="#1E5AA6" stroke="black" stroke-width="0.828"/>
<path d="M16.9521 16.3926C16.955 16.3892 17.0629 16.2457 17.0629 16.2457L17.021 16.1885L16.9521 16.3926Z" fill="#1E5AA6" stroke="black" stroke-width="0.801711"/>
<path d="M18.5376 13.9975C18.5376 13.9975 18.67 13.8842 18.7642 13.8809" stroke="#FFF700" stroke-width="0.828" stroke-linecap="round"/>
<path d="M18.5571 13.9813C18.5602 13.9783 19.3474 13.868 19.3724 13.8428M18.5602 13.9877C18.5633 13.9844 19.4417 13.9121 19.4417 13.9121M18.5571 13.9908C18.5571 13.9908 19.4921 13.9467 19.5489 13.994" stroke="#FFF700" stroke-width="0.828" stroke-linecap="round"/>
<path d="M18.5535 13.9883C18.5535 13.9883 19.4699 13.9947 19.4857 14.0165M18.5568 13.9883L19.4383 14.0606M18.5474 13.9947C18.5504 13.9947 19.4447 14.0734 19.5328 14.1867" stroke="#FFF700" stroke-width="0.828" stroke-linecap="round"/>
<path d="M19.5798 14.3471C19.5767 14.3441 19.2744 13.985 18.5439 13.9913" stroke="#FFF700" stroke-width="0.828" stroke-linecap="round"/>
<path d="M18.5474 13.9971C18.5474 13.9971 19.0542 14.0317 19.2147 14.208" stroke="#FFF700" stroke-width="0.828" stroke-linecap="round"/>
<path d="M18.5571 13.9907C18.5571 13.9907 18.8845 13.9278 19.2277 14.3404" stroke="#FFF700" stroke-width="0.828" stroke-linecap="round"/>
<path d="M18.3505 14.3662C18.3505 14.3662 18.8047 14.3842 18.8047 14.4287C18.8047 14.4732 18.4663 14.5578 18.4619 14.7448C18.4575 14.9318 18.7201 14.9452 18.7379 15.1811C18.7557 15.4172 18.5332 15.4527 18.4886 15.5152C18.4439 15.5463 18.3372 15.8802 18.3505 16.0762C18.3639 16.2721 18.4218 16.9356 18.5242 17.0693C18.6044 17.1316 18.7245 17.3319 18.8536 17.2696C18.9828 17.2072 18.8938 16.9803 18.8804 16.9178C18.867 16.8556 18.9339 16.7532 18.9339 16.6595C18.9339 16.5659 18.8848 16.4903 18.8894 16.4682C18.8938 16.4458 19.25 16.5528 19.2277 16.9044C19.2055 17.2563 19.063 17.1493 19.063 17.1493C19.063 17.1493 19.1075 17.5814 18.9961 17.6393C18.7958 17.746 18.6489 17.6169 18.6489 17.6169L18.6677 17.7048L18.5154 17.6259C18.5154 17.6259 18.3194 17.3453 18.2749 17.2206C18.2304 17.096 18.1769 16.5394 18.1947 16.4191C18.2124 16.2989 18.2258 15.5952 18.217 15.5597C18.208 15.5239 18.1725 14.9362 18.1947 14.8472C18.217 14.7582 18.3549 14.3662 18.3505 14.3662Z" fill="#F2F2F2" stroke="black" stroke-width="0.828"/>
<path d="M17.8608 14.2501C17.8608 14.2501 18.177 13.943 18.3596 13.9784C18.453 13.9784 18.364 14.0454 18.364 14.0454C18.364 14.0454 18.5243 14.0587 18.5466 14.13C18.551 14.1611 18.4707 14.1701 18.4707 14.1701C18.4707 14.1701 18.5376 14.1835 18.542 14.2413C18.5466 14.2992 17.8653 14.2545 17.8608 14.2501Z" fill="#FF7000" stroke="black" stroke-width="0.828"/>
<path d="M17.8784 14.2367C17.8784 14.2367 18.217 14.1923 18.3595 14.0498" stroke="black" stroke-width="0.828"/>
<path d="M18.2217 14.1436C18.2217 14.1436 18.4709 14.1346 18.4709 14.1703" stroke="black" stroke-width="0.828"/>
<path d="M19.1079 17.7856C19.1079 17.7856 19.3216 17.7365 19.3795 17.6608C19.4152 17.6341 19.6023 17.9415 19.1079 17.7856Z" fill="white" stroke="black" stroke-width="0.77625" stroke-linejoin="round"/>
<path d="M19.0499 16.0177C19.0499 16.0177 19.0767 16.1825 19.001 16.2937C18.9609 16.3382 18.8405 16.4141 18.8405 16.4675C18.8405 16.5208 18.885 16.592 18.8763 16.6545C18.8673 16.7168 18.8006 16.7793 18.805 16.8326C18.805 16.886 18.8806 17.171 18.8716 17.1754M18.6582 15.4834C18.6582 15.4834 18.4889 15.5413 18.4531 15.7106" stroke="white" stroke-width="0.77625" stroke-linecap="round"/>
<path d="M18.5864 14.1429C18.5864 14.1429 18.6445 14.3031 18.8315 14.1517C18.7112 13.987 18.5864 14.1473 18.5864 14.1429Z" fill="#C75B00" stroke="black" stroke-width="0.828"/>
<path d="M18.7246 14.1367C18.7246 14.1453 18.7156 14.1523 18.7046 14.1523C18.6935 14.1523 18.6846 14.1453 18.6846 14.1367C18.6846 14.1281 18.6935 14.1211 18.7046 14.1211C18.7156 14.1211 18.7246 14.1281 18.7246 14.1367Z" fill="black"/>
<path d="M17.0574 13.7707C17.0574 13.7707 17.4121 14.1546 17.6417 14.1505C17.6834 14.2631 17.5373 14.3679 17.479 14.4179C17.3621 14.3804 17.2565 14.4247 16.9854 14.091C17.0022 13.8781 17.0616 13.7791 17.0574 13.7707ZM17.5373 12.8779C17.5831 12.736 17.675 12.6233 17.7541 12.6108C17.7333 12.5023 17.9212 12.0226 18.4678 11.8389C18.5011 12.0851 18.2341 12.3271 18.2341 12.3271C18.2341 12.3271 19.0393 12.1894 19.2019 11.9849C19.1853 12.0768 19.0226 12.6483 18.163 12.6441C18.4885 12.953 18.0588 13.1992 17.8752 13.124C18.2132 12.8653 17.7794 12.711 17.5373 12.8779Z" fill="white" stroke="black" stroke-width="0.828"/>
<path d="M17.8125 12.6784C17.9752 12.574 18.0335 12.574 18.1672 12.5949C18.0712 12.6074 18.0712 12.6115 18.0712 12.6115C18.0712 12.6115 18.0629 12.624 18.1212 12.6784C18.0545 12.6615 17.996 12.624 17.8125 12.6784Z" fill="#CCCCCD" stroke="#CCCCCC" stroke-width="0.828"/>
<path d="M17.75 12.6111C17.75 12.6111 18.0714 12.4401 18.2507 12.3232" stroke="black" stroke-width="0.828"/>
<path d="M17.4745 14.4181C17.4745 14.4181 17.9169 14.5391 17.9669 13.9049C17.8709 13.6296 17.7373 13.037 17.9419 12.866C17.754 12.7366 17.5497 12.8702 17.5497 12.8702C17.5372 12.8994 17.3701 13.1371 17.5955 13.5544C17.0615 13.4125 17.2785 13.9174 17.2785 13.9174C17.2993 13.8381 17.583 13.7631 17.654 14.1678C17.6832 14.268 17.462 14.4223 17.4745 14.4181Z" fill="#0000FF" stroke="black" stroke-width="0.828"/>
<path d="M17.9712 13.9089C17.9712 13.9089 18.4386 13.6585 18.4259 13.0703C18.0295 13.0787 17.8877 13.5916 17.8877 13.5916L17.9712 13.9089Z" fill="#0000FF" stroke="black" stroke-width="0.828"/>
<path d="M15.8765 13.8799C15.8765 13.8799 15.5303 14.1802 15.3341 14.0842C15.1881 14.1719 15.0171 14.0176 15.0171 14.0176C15.0171 14.0176 15.2172 14.7559 15.935 14.2219C15.9225 14.0592 15.8848 13.8924 15.8765 13.8799Z" fill="white" stroke="black" stroke-width="0.828"/>
<path d="M15.3298 14.0721C15.359 13.9177 15.48 13.8425 15.576 13.9885C15.7054 14.0138 15.8347 13.4838 15.3756 13.5714C15.505 12.8788 15.1171 12.6201 15.1171 12.6201C15.1171 12.6201 14.9794 13.3878 15.042 13.5297C15.1046 13.6715 14.9502 13.2668 14.4537 13.1541C14.4453 13.7342 15.0086 14.0054 15.0086 14.0054C15.0086 14.0054 15.1671 14.1514 15.3298 14.0721Z" fill="#0000FF" stroke="black" stroke-width="0.828"/>
<path d="M15.3757 13.566C15.3757 13.566 15.1589 13.7497 15.2089 14.0001M15.0462 13.541C15.0462 13.541 14.9961 13.7204 15.1046 13.9749" stroke="black" stroke-width="0.828"/>
<path d="M15.0132 14.0341C15.0132 14.0341 15.1134 13.8714 15.3303 14.0799" stroke="black" stroke-width="0.828"/>
<path d="M15.0548 12.9071C15.0548 12.903 14.7252 12.9071 14.9213 13.241C14.7752 13.2868 14.4498 13.0742 14.6751 12.7903C13.9366 12.7736 13.6362 12.4191 13.6362 12.0935C13.8532 12.3189 14.3706 12.2271 14.5541 12.3648C14.3288 12.1563 14.3747 11.8682 14.3747 11.8682C14.3747 11.8682 15.0047 12.0561 15.1174 12.6151C15.0798 12.7236 15.0632 12.9154 15.0548 12.9071Z" fill="white" stroke="black" stroke-width="0.828"/>
<path d="M14.5479 12.3506C14.6694 12.4742 14.9818 12.5113 15.1404 12.6489" stroke="black" stroke-width="0.828"/>
<path d="M14.6919 12.7159C14.6919 12.7159 14.9505 12.6825 15.0255 12.7742C14.9243 12.7742 14.8906 12.7492 14.7444 12.8035C14.7856 12.7825 14.7743 12.745 14.7968 12.745C14.8193 12.745 14.7031 12.7159 14.6919 12.7159Z" fill="#CCCCCD" stroke="#CCCCCC" stroke-width="0.588708"/>
<path d="M15.9809 10.6916C15.9809 10.6916 16.1227 10.5664 16.277 10.6791C16.2073 10.8875 15.9559 10.8085 15.9559 10.8085C15.9559 10.8085 15.9642 10.9128 15.9392 10.9628C15.9894 11.0007 16.0308 11.1256 16.0308 11.1256C16.0308 11.1256 16.2895 11.063 16.3439 11.1756C16.443 11.1619 16.5149 11.1756 16.5149 11.1756C16.5149 11.1756 16.7153 11.1256 16.7861 11.1256C16.8571 11.1256 17.0823 11.184 17.1031 11.2257C17.1242 11.2674 17.1991 11.547 17.2493 11.5428C17.2993 11.5386 17.1283 11.6095 17.0823 11.5386C17.0365 11.4677 17.0489 11.6304 17.0489 11.6304C17.0489 11.6304 17.1908 11.7806 17.2075 11.814C17.2241 11.8473 17.12 12.1185 17.1991 12.3063C17.1296 12.3127 17.1242 12.3855 17.1242 12.3855C17.1202 12.4681 17.0156 12.4899 17.0156 12.4899L16.9906 12.3772L16.9196 12.419L16.9488 12.3313C16.9488 12.3313 17.0448 12.0976 17.0531 12.0227C17.0614 11.9475 16.9654 11.814 16.8904 11.814C16.8153 11.814 16.7611 12.0518 16.7611 12.0518C16.7611 12.0518 16.7236 12.2312 16.7361 12.2478C16.7486 12.2645 16.6859 12.1895 16.6859 12.1895C16.6859 12.1895 16.6526 12.298 16.6276 12.3313C16.6026 12.3647 16.5482 12.3772 16.5482 12.3772C16.5482 12.3772 16.5107 12.2687 16.5232 12.227C16.5357 12.1853 16.7278 12.0227 16.7111 11.9058C16.6942 11.789 16.7111 11.8181 16.7067 11.814C16.7026 11.8098 16.6068 11.7264 16.6026 11.6805C16.5984 11.6346 16.4774 11.7389 16.3189 11.7055C16.2702 11.7903 16.2645 12.0016 16.2645 12.0016C16.2645 12.0016 16.2479 12.2561 16.2812 12.2855C16.3147 12.3147 16.1979 12.3772 16.1979 12.3772L16.1143 12.4899C16.1143 12.4899 16.0852 12.419 16.0852 12.4232C16.0852 12.4274 16.0267 12.4648 16.0267 12.4648L16.0602 12.3813C16.058 12.3182 16.1413 12.1457 16.1413 11.9996C16.1413 11.8536 16.1518 11.6972 16.1518 11.6972C16.1518 11.6972 15.9975 11.6888 16.0016 11.8473C16.0058 12.006 15.9642 12.0144 15.9725 12.0602C15.9809 12.1059 16.0225 12.2353 16.01 12.273C15.9975 12.3105 15.9475 12.323 15.9475 12.323L15.935 12.3438C15.935 12.3438 15.7807 12.4149 15.7848 12.444C15.789 12.4732 15.7807 12.3605 15.7807 12.3605L15.7721 12.2395C15.7721 12.2395 15.864 12.1811 15.864 12.0351C15.864 11.8892 15.8429 11.8683 15.8471 11.835C15.8513 11.8015 15.8724 11.6805 15.8682 11.668C15.864 11.6554 15.7807 11.7013 15.7555 11.7013C15.7305 11.7013 15.8015 11.6137 15.8099 11.5511C15.8182 11.4885 15.7263 11.6095 15.6513 11.5386C15.6862 11.4616 15.7388 11.4385 15.7472 11.3801C15.7555 11.3217 15.6888 11.4301 15.6303 11.3884C15.6351 11.3324 15.693 11.2841 15.693 11.2841C15.693 11.2841 15.6454 11.2783 15.6261 11.2841C15.5887 11.2716 15.668 11.2132 15.6722 11.1297C15.6763 11.0463 15.6261 11.0129 15.6261 11.0088C15.6261 11.0046 15.5428 10.9337 15.5304 10.9045C15.5178 10.8753 15.5178 10.8419 15.5178 10.8419C15.5178 10.8419 15.3799 10.942 15.2173 10.7292C15.3663 10.602 15.5262 10.6958 15.5262 10.6958C15.5262 10.6958 15.5678 10.579 15.7597 10.5873C15.9517 10.5957 15.9892 10.7042 15.9809 10.6916Z" fill="#923F00" stroke="black" stroke-width="0.828"/>
<path d="M17.0306 12.8496C17.0338 12.8496 17.3848 12.8601 17.3884 13.0478C17.3919 13.2353 17.2807 13.1868 17.2772 13.1868C17.2737 13.1868 17.02 13.1554 17.02 13.1554L17.0306 12.8496Z" fill="#0000FF" stroke="black" stroke-width="0.828"/>
<path d="M16.69 12.7979C16.69 12.7979 17.1278 12.7946 17.1034 12.9855C17.0791 13.1767 16.968 13.1385 16.968 13.1385L16.7559 13.121L16.6899 12.7979H16.69Z" fill="#FFFEFF" stroke="black" stroke-width="0.828"/>
<path d="M16.4435 12.7773L16.6971 12.7982C16.6971 12.7982 16.8499 12.819 16.8431 12.9651C16.8361 13.111 16.6866 13.1146 16.6866 13.1146L16.4399 13.1005L16.4435 12.7773Z" fill="#0000FF" stroke="black" stroke-width="0.828"/>
<path d="M15.8493 12.8496C15.8458 12.8496 15.4948 12.8601 15.4913 13.0478C15.488 13.2353 15.5992 13.1868 15.6027 13.1868C15.6062 13.1868 15.8598 13.1554 15.8598 13.1554L15.8493 12.8496Z" fill="white" stroke="black" stroke-width="0.828"/>
<path d="M16.1898 12.7979C16.1898 12.7979 15.7521 12.7946 15.7764 12.9855C15.8007 13.1767 15.9118 13.1385 15.9118 13.1385L16.1238 13.121L16.1898 12.7979Z" fill="#0000FF" stroke="black" stroke-width="0.828"/>
<path d="M16.4365 12.7773L16.1829 12.7982C16.1829 12.7982 16.0298 12.819 16.0369 12.9651C16.0439 13.1111 16.1932 13.1146 16.1932 13.1146L16.4398 13.1005L16.4365 12.7773Z" fill="white" stroke="black" stroke-width="0.828"/>
<path d="M17.1155 14.8867C17.1155 14.8867 17.2979 14.6179 17.3748 14.6467C17.4419 14.669 17.3909 14.8771 17.3588 14.8964L17.1155 14.8867ZM15.8652 14.9347C15.8078 14.8547 15.7245 14.634 15.6478 14.6947C15.5805 14.717 15.6317 14.9251 15.6638 14.9444L15.8652 14.9347Z" fill="#5E0043" stroke="black" stroke-width="0.828"/>
<path d="M15.9863 14.4034C15.9863 14.4034 16.3417 14.6224 16.4583 14.6281C16.5749 14.6339 16.9445 14.3438 16.9445 14.3438" stroke="black" stroke-width="0.828"/>
<path d="M16.0206 13.5443L16.0887 13.459L16.4301 13.6324L16.7769 13.4787L16.845 13.55L16.4583 13.8229L16.0205 13.5443H16.0206Z" fill="#5E0043" stroke="black" stroke-width="0.828"/>
<path d="M15.7493 13.5403C15.7769 13.5751 15.9974 13.8433 16.0373 14.0651C16.077 14.287 16.0146 13.7608 16.0146 13.7608C16.0146 13.7608 16.2875 13.8946 16.296 13.9799C16.3046 14.0652 16.4264 13.9741 16.4324 13.9595L15.6421 13.4463L15.7493 13.5403ZM17.0977 13.5249C17.0977 13.5249 16.8105 13.9031 16.8448 14.3153C16.7856 14.118 16.8334 13.7922 16.8334 13.7922L16.7709 13.8321C16.7709 13.8321 16.7055 14.1107 16.6229 14.1533C16.6091 14.1202 16.6117 14.1079 16.6117 14.1079C16.6117 14.1079 16.5236 14.2215 16.5065 14.2329C16.4895 14.2442 16.5122 14.6167 16.5122 14.6167C16.5122 14.6167 16.5418 14.8868 16.5757 14.8839C16.537 14.9028 16.4894 14.9324 16.4894 14.9324L16.4541 14.2116L16.5348 14.1305C16.5348 14.1305 16.6429 13.9998 16.6514 13.8718C16.6045 13.9117 16.5518 13.9231 16.5518 13.9231C16.5518 13.9231 16.5376 14.1051 16.4951 14.1305C16.4524 14.1561 16.4512 14.2037 16.4512 14.2037L16.4412 13.9658L17.0977 13.5249Z" fill="#474747" stroke="#474747" stroke-width="0.77625" stroke-linejoin="round"/>
<path d="M16.4409 13.9619L16.4967 15.0991" stroke="black" stroke-width="0.77625" stroke-linecap="round"/>
<path d="M15.7417 14.5059C15.7417 14.5059 15.8724 14.5828 15.9208 14.8158C16.3472 14.7845 16.481 14.9354 16.481 14.9354C16.481 14.9354 16.8306 14.7677 16.9928 14.7988C17.0496 14.6795 17.2116 14.5258 17.2116 14.5258" stroke="black" stroke-width="0.828"/>
<path d="M15.5635 13.3911L16.4413 13.9654L17.2319 13.4338C17.2319 13.4338 17.3968 13.3428 17.3825 13.2775C17.3685 13.2119 17.3115 13.2376 17.283 13.249C17.2547 13.2604 16.4556 13.8262 16.4556 13.8262L15.6055 13.2887C15.6055 13.2887 15.543 13.2689 15.5316 13.3086C15.5201 13.3485 15.555 13.3711 15.5635 13.3911Z" fill="#B4B6B9" stroke="black" stroke-width="0.828"/>
<path d="M17.1331 13.2424C17.1331 13.2424 16.9084 13.147 16.9084 13.2296C16.9084 13.3121 16.9148 13.3206 16.951 13.3736C16.9869 13.4265 16.9233 13.4605 16.9233 13.4605C16.9233 13.4605 16.9148 13.4373 16.9021 13.4011C16.8893 13.3651 16.7685 13.3397 16.758 13.2974C16.7475 13.2548 16.7834 13.1871 16.7113 13.1787C16.6394 13.1702 16.5694 13.2084 16.5546 13.291C16.5397 13.3736 16.4465 13.5664 16.4465 13.5664L16.4592 13.1279C16.6175 13.1391 16.9113 13.1737 17.1373 13.1998C17.0695 13.1893 17.1627 13.2042 17.1607 13.2274C17.1544 13.2465 17.1309 13.2485 17.1331 13.2424ZM16.3384 13.1321C16.2983 13.1321 16.0969 13.1553 16.0459 13.1851C15.9951 13.2147 16.1286 13.2612 16.1117 13.3016C16.0949 13.3419 16.0927 13.4223 16.0291 13.4054C15.9655 13.3883 15.7515 13.2825 15.7452 13.2465C15.7388 13.2105 15.6943 13.2084 15.6943 13.2084C15.6943 13.2084 16.3088 13.1257 16.3384 13.1321Z" fill="#474747" stroke="#474747" stroke-width="0.77625" stroke-linejoin="round"/>
<path d="M16.4356 13.0812L16.434 13.62M16.0206 12.4463C16.0206 12.4463 15.7744 12.8459 15.7695 12.8582" stroke="black" stroke-width="0.828"/>
<path d="M16.4741 12.4365C16.4741 12.4365 16.5813 12.5827 16.5691 12.6242C16.6129 12.6584 16.6618 12.7949 16.6618 12.7949" fill="#F2994A"/>
<path d="M16.4741 12.4365C16.4741 12.4365 16.5813 12.5827 16.5691 12.6242C16.6129 12.6584 16.6618 12.7949 16.6618 12.7949" stroke="black" stroke-width="0.828"/>
<path d="M16.8885 12.4121C16.8885 12.4121 16.657 12.7388 16.6642 12.7631" stroke="black" stroke-width="0.828"/>
<path d="M15.7021 10.8589C15.6968 10.8772 15.6673 10.8842 15.6361 10.8747C15.605 10.8651 15.5839 10.8426 15.5892 10.8244C15.5945 10.8061 15.624 10.799 15.6551 10.8085C15.6863 10.8181 15.7073 10.8407 15.7021 10.8589ZM15.7956 10.8524C15.8009 10.8707 15.8304 10.8778 15.8615 10.8682C15.8927 10.8587 15.9137 10.8362 15.9084 10.8179C15.9032 10.7997 15.8737 10.7925 15.8425 10.8021C15.8114 10.8117 15.7904 10.8342 15.7956 10.8524Z" fill="black"/>
<path d="M18.5061 17.6191C18.5061 17.6191 18.4202 17.6354 18.4231 17.6433C18.4257 17.6514 18.1734 17.6595 18.1681 17.6514C18.1626 17.6433 18.1304 17.6943 18.1304 17.6943L18.1707 17.6702C18.1707 17.6702 18.2323 17.7345 18.2512 17.7292C18.2701 17.7239 18.2431 17.7533 18.2485 17.7588C18.2538 17.7641 18.2727 17.748 18.2727 17.748L18.6896 17.741L18.5061 17.6191Z" fill="#FF7000" stroke="black" stroke-width="0.828" stroke-linejoin="round"/>
<path d="M18.6617 17.7485L18.321 17.7584C18.321 17.7584 18.2353 17.8362 18.2298 17.8549C18.2246 17.8737 18.2862 17.879 18.2862 17.879L18.305 17.9434L18.348 17.9275C18.348 17.9275 18.6376 17.9704 18.9035 17.9112C19.0377 17.8643 19.0611 17.808 18.9671 17.7738C18.8733 17.7395 18.6643 17.7498 18.6617 17.7485Z" fill="#FF7000" stroke="black" stroke-width="0.77625" stroke-linejoin="round"/>
<path d="M17.4948 18.4479L18.1079 18.4205L17.9937 18.3236L19.6522 18.2568L19.5949 18.125L17.7381 18.1995L17.9615 18.3039L17.4599 18.3188L17.4748 18.371L17.3433 18.3659C17.3433 18.3659 17.4897 18.4229 17.4948 18.4479Z" fill="#F2F2F2" stroke="black" stroke-width="0.828"/>
<path d="M18.1825 15.0604C18.1336 15.0361 17.9194 15.0069 17.6807 15.1628L17.6906 15.7133C17.6906 15.7133 18.0411 15.5232 18.2117 15.5671C18.2018 15.3965 18.2018 15.1775 18.1825 15.0604Z" fill="#F2F2F2" stroke="black" stroke-width="0.828"/>
<path d="M14.7921 16.7317L13.3462 18.1672M15.4366 16.7423L14.263 18.2878M15.3842 16.3389L13.8177 18.2354M13.7705 18.2091L13.9225 18.0311M15.6828 17.2923L15.075 18.1306M15.0488 18.2407L15.0646 18.5601M15.9604 17.5856L15.316 18.3926M15.8452 18.3296L16.1072 17.9M15.9448 17.8163L15.6304 18.1725M15.8505 17.481L15.6357 17.7428M15.5728 17.0985C15.5728 17.0985 14.9179 18.0572 14.9284 18.1359M15.5045 16.9729C15.489 16.9832 14.9389 17.7115 14.9389 17.7115M14.9074 17.9419L14.8079 18.0624M14.6821 18.2459L14.5302 18.445" stroke="black" stroke-width="0.828"/>
<path d="M14.7207 14.5252C14.7207 14.5252 14.6763 14.6646 14.7207 14.7343C14.765 14.804 15.0439 15.3681 15.0439 15.3681C15.0439 15.3681 15.2341 15.1336 15.3038 15.1272C15.3735 15.1211 15.3417 15.7358 15.3417 15.7358C15.3417 15.7358 15.2277 15.8434 15.158 15.8371C15.0883 15.8307 15.329 16.078 15.3226 16.2871C15.3163 16.4963 15.0058 17.5356 14.8917 17.5545C14.7777 17.5736 14.9425 17.3644 14.9361 17.3074C14.9298 17.2504 14.8981 17.2884 14.8728 17.225C14.8474 17.1616 14.9108 17.0665 14.8981 17.0031C14.8854 16.9398 14.8284 16.9525 14.822 16.9082C14.8157 16.8637 14.8601 16.8512 14.8537 16.8003C14.8474 16.7497 14.7777 16.7624 14.784 16.7179C14.7904 16.6736 14.7967 16.6927 14.7904 16.6103C14.7841 16.5278 14.7714 16.6673 14.7016 16.6736C14.6319 16.68 14.5749 16.8385 14.5749 16.8385C14.5749 16.8385 14.4355 17.0349 14.296 16.9461C14.3784 17.1237 14.3151 17.1998 14.2834 17.2059C14.2517 17.2123 14.3087 17.3454 14.2326 17.3517C14.1566 17.3581 14.2897 17.6496 14.201 17.6751C14.296 17.7193 14.22 17.7763 14.22 17.7763C14.22 17.7763 14.0003 17.7948 14.0488 18.0806C13.4024 17.8524 13.0856 17.4596 13.0919 17.0603C13.0982 16.6609 13.225 16.2999 13.5355 16.1667C13.6243 15.837 13.7764 15.4821 13.7764 15.4821C13.7764 15.4821 13.751 15.3363 13.77 15.2414C13.7891 15.1463 13.8777 15.0513 13.8777 15.0513C13.8777 15.0513 13.865 14.8231 13.8714 14.7091C13.8778 14.5949 13.9221 14.5443 13.9284 14.4809C13.9347 14.4176 13.9094 14.0942 13.9728 14.0372C14.0362 13.9802 14.1566 13.9865 14.22 13.9486C14.2834 13.9105 14.3658 13.8408 14.4481 13.8471C14.5305 13.8535 14.6002 13.9105 14.6002 13.9105C14.6002 13.9105 14.9108 13.9105 14.9298 14.0308C14.9488 14.1514 14.8664 14.1957 14.8664 14.1957C14.8664 14.1957 14.9108 14.3669 14.7206 14.5252H14.7207Z" fill="#8A9396" stroke="#2B2B2B" stroke-width="0.828"/>
<path d="M14.4447 14.086C14.4547 14.1043 14.432 14.1359 14.3941 14.1564C14.3563 14.1769 14.3175 14.1786 14.3075 14.1603C14.2976 14.1419 14.3202 14.1103 14.3581 14.0899C14.396 14.0693 14.4348 14.0676 14.4447 14.086V14.086Z" fill="#CECFCF" stroke="#2B2B2B" stroke-width="0.828"/>
<path d="M14.3923 14.1177C14.3923 14.1293 14.3817 14.1387 14.3687 14.1387C14.3558 14.1387 14.3452 14.1293 14.3452 14.1177C14.3452 14.1061 14.3558 14.0967 14.3687 14.0967C14.3817 14.0967 14.3923 14.1061 14.3923 14.1177Z" fill="black"/>
<path d="M14.8554 14.3275C14.8554 14.3275 14.9324 14.6712 14.8403 14.9084M14.8791 14.1771C14.8791 14.1771 15.0293 14.3757 15.0099 14.6228M14.8936 14.1335C14.8985 14.1335 15.0196 14.24 15.0147 14.3126M14.9227 14.0898C14.9227 14.0898 15.0051 14.148 15.0244 14.206" stroke="#2B2B2B" stroke-width="0.388125"/>
<path d="M14.8838 14.0557C14.8838 14.0557 14.5883 14.5353 14.627 14.8357" stroke="black" stroke-width="0.828"/>
<path d="M14.9035 14.041C14.9035 14.041 14.5111 14.2736 14.4385 15.0341" stroke="#2B2B2B" stroke-width="0.388125"/>
<path d="M14.8596 14.1816L14.7046 14.2978" stroke="black" stroke-width="0.828"/>
<path d="M14.293 15.0777C14.293 15.0777 14.5109 14.1719 14.8985 14.041" stroke="#2B2B2B" stroke-width="0.388125"/>
<path d="M15.0489 15.383C15.0489 15.383 15.2573 15.1215 15.3057 15.1311C15.3541 15.1408 15.3395 15.7366 15.3395 15.7366C15.3395 15.7366 15.1845 15.8528 15.1507 15.848C15.1167 15.8432 15.325 16.1291 15.3202 16.2356C15.3154 16.3422 15.3105 16.3421 15.3105 16.3421C15.3105 16.3421 15.3105 16.2792 15.2621 16.1775C15.2137 16.0757 15.2426 15.9594 14.9278 15.7027C14.8503 15.5428 15.0828 15.7996 15.1312 15.7607C15.1797 15.7222 15.044 15.3879 15.0489 15.383Z" fill="#2B2B2B" stroke="#2B2B2B" stroke-width="0.828"/>
<path d="M14.6784 13.9102C14.6784 13.9102 14.5909 13.9341 14.5789 13.9698C14.5669 14.0057 14.5152 14.0415 14.4874 14.0294C14.4595 14.0176 14.4077 13.9737 14.4077 13.9737" stroke="#2B2B2B" stroke-width="0.828"/>
<path d="M14.1809 14.2168C14.1809 14.2168 14.0496 14.3481 14.1133 14.3641C14.177 14.3799 14.2446 14.2606 14.2446 14.2606C14.2446 14.2606 14.2446 14.4636 14.3004 14.4317C14.3561 14.3999 14.5193 14.2845 14.5193 14.2845C14.5193 14.2845 14.575 14.2804 14.587 14.2845C14.5989 14.2885 14.7382 14.4078 14.8298 14.3641C14.778 14.4994 14.7183 14.5154 14.7183 14.5154C14.7183 14.5154 14.6228 14.6388 14.4994 14.6107C14.376 14.5829 14.3442 14.5312 14.3442 14.5312C14.3442 14.5312 14.2407 14.5393 14.2088 14.4915C14.177 14.4437 14.165 14.4158 14.165 14.4158C14.165 14.4158 14.1053 14.4755 14.0894 14.4476C14.0735 14.4198 14.0894 14.2565 14.1809 14.2168Z" fill="#2B2B2B" stroke="#2B2B2B" stroke-width="0.77625" stroke-linejoin="round"/>
<path d="M14.9251 14.033C14.9251 14.033 14.6823 13.9614 14.5987 14.0808C14.5152 14.2001 14.535 14.2678 14.5788 14.2797" stroke="#2B2B2B" stroke-width="0.828"/>
<path d="M14.9626 14.0264C14.9626 14.055 14.9422 14.0782 14.9168 14.0782C14.8915 14.0782 14.8711 14.055 14.8711 14.0264C14.8711 13.9978 14.8915 13.9746 14.9168 13.9746C14.9421 13.9746 14.9626 13.9978 14.9626 14.0264Z" fill="black"/>
<path d="M14.256 14.6457C14.256 14.6457 14.355 14.798 14.4731 14.8399C14.5911 14.8818 14.3912 14.918 14.2731 14.8381C14.1875 14.722 14.2103 14.6382 14.2103 14.6382C14.2103 14.6382 14.2331 14.6152 14.256 14.6457ZM15.1033 15.5445C15.1033 15.5445 14.8253 15.158 14.7454 15.137C14.6653 15.1162 14.8062 15.099 14.892 15.1808C14.9776 15.2626 14.8691 15.0475 14.8691 15.0475L15.1033 15.5445Z" fill="#2B2B2B" stroke="#2B2B2B" stroke-width="0.828"/>
<path d="M14.2293 17.7783C14.3359 17.7498 14.8005 18.0448 14.9053 18.1192C15.01 18.1933 15.229 18.1457 15.229 18.1457C15.229 18.1457 15.1279 18.2066 15.0652 18.222C15.0024 18.2372 15.2518 18.2372 15.2518 18.2372C15.2518 18.2372 14.6577 18.4009 14.0542 18.083C13.9989 17.8355 14.1836 17.7803 14.2293 17.7783Z" fill="#2B2B2B" stroke="#2B2B2B" stroke-width="0.77625" stroke-linejoin="round"/>
<path d="M14.9089 15.6399C14.9089 15.6399 14.8309 15.6248 14.7909 15.579C14.7509 15.5334 14.6938 15.4209 14.6348 15.3733C14.5757 15.3258 14.2806 15.164 14.174 15.1753C14.0674 15.1867 14.0349 15.164 14.0216 15.1506C14.0083 15.1372 13.9645 15.1563 13.9721 15.2115C13.9797 15.2668 13.8902 15.3887 13.9226 15.4457C13.955 15.5029 14.1073 15.7351 14.1378 15.7428C14.1683 15.7504 14.1492 15.878 14.1492 15.878C14.1492 15.878 14.2844 16.015 14.3187 16.0227C14.3529 16.0303 14.3872 16.0552 14.3834 16.0873C14.3796 16.1198 14.2349 16.297 14.2349 16.297C14.2349 16.297 14.0788 16.3787 14.0769 16.4245C14.0749 16.4702 14.1149 16.5653 14.2387 16.5957C14.3625 16.6262 14.6957 16.6015 14.7129 16.573C14.73 16.5445 14.7566 16.373 14.7452 16.3559C14.7337 16.3388 14.6519 16.2873 14.61 16.295C14.5682 16.3026 14.53 16.3368 14.5338 16.3445C14.5376 16.3522 14.4748 16.3844 14.4748 16.3539C14.4748 16.3234 14.5986 16.1864 14.61 16.1979C14.6214 16.2093 14.7966 16.2263 14.829 16.314C14.8614 16.4015 14.8614 16.4644 14.9527 16.455C15.0442 16.4454 15.1717 16.3616 15.1831 16.1864C15.1944 16.0113 15.0804 15.8931 15.0517 15.876C15.0231 15.859 14.928 15.8017 14.9204 15.7752C14.9127 15.7484 14.8937 15.661 14.9089 15.6399Z" fill="#2B2B2B" stroke="#2B2B2B" stroke-width="0.828"/>
<path d="M13.262 16.4132C13.262 16.4132 13.5571 16.337 13.6333 16.3389C13.7095 16.3407 13.997 16.474 14.0808 16.5559C14.1646 16.6377 14.3359 16.8319 14.4483 16.8149C14.5606 16.7977 14.593 16.775 14.593 16.775L14.5492 16.8587C14.5492 16.8587 14.4578 16.8835 14.4121 16.8721C14.3664 16.8607 14.2769 16.8319 14.1874 16.7445C14.0979 16.6568 13.8218 16.4207 13.5876 16.4378C13.3534 16.4551 13.2182 16.6855 13.2182 16.6855C13.2182 16.6855 13.2201 16.573 13.2297 16.5483C13.2392 16.5235 13.1802 16.6015 13.1802 16.6015L13.262 16.4132Z" fill="#2B2B2B" stroke="#2B2B2B" stroke-width="0.828"/>
<path d="M14.3495 16.6418C14.3514 16.6436 14.4238 16.6626 14.5456 16.6626C14.6675 16.6626 14.7322 16.6094 14.7322 16.6094L14.7246 16.5618L14.7437 16.4951C14.7437 16.4951 14.8369 16.5903 14.835 16.6094C14.8331 16.6284 14.797 16.6361 14.797 16.6361L14.7836 16.5903L14.7513 16.6304C14.7513 16.6304 14.5742 16.7712 14.4771 16.7504C14.38 16.7293 14.2905 16.6666 14.3152 16.6513C14.34 16.6361 14.3533 16.6418 14.3495 16.6418ZM13.9191 16.8913C13.9191 16.8913 13.8125 16.8893 13.7649 16.9121C13.7173 16.9349 13.7002 16.9637 13.6678 16.9597C13.6355 16.956 13.6107 16.9141 13.6202 16.897C13.6335 16.8703 13.6964 16.836 13.8163 16.8455C13.9363 16.8551 13.9192 16.8913 13.9192 16.8913H13.9191ZM14.2924 17.1807C14.2924 17.175 14.2848 17.0246 14.2258 16.9636C14.1667 16.9027 14.0944 16.9027 14.062 16.9101C14.0296 16.9178 14.1819 16.9844 14.1972 17.0283C14.2124 17.0721 14.2619 17.1941 14.2486 17.2245C14.2352 17.2548 14.2105 17.1388 14.1172 17.1064C14.0239 17.0739 13.8944 17.0912 13.9211 17.1331C13.9477 17.175 14.0525 17.1368 14.1058 17.2263C14.1591 17.3158 14.1991 17.4111 14.1991 17.4111L14.2162 17.3462L14.2638 17.3331L14.2695 17.2092L14.2924 17.1807Z" fill="#2B2B2B" stroke="#2B2B2B" stroke-width="0.828"/>
<path d="M14.2162 17.6678L14.1191 17.4736C14.1191 17.4736 14.0886 17.3499 14.0067 17.3155C13.9249 17.2812 13.8163 17.2869 13.8144 17.3289C13.8125 17.3707 13.9896 17.424 14.001 17.447C14.0125 17.4698 14.0067 17.508 13.9915 17.5097C13.9763 17.5117 13.8982 17.4812 13.8582 17.4907C13.8182 17.5003 13.7954 17.5516 13.7364 17.5365C13.6773 17.5211 13.6278 17.3328 13.6507 17.3137C13.6735 17.2946 13.6069 17.3479 13.5936 17.2984C13.5802 17.2488 13.6126 17.0947 13.5897 17.0756C13.5669 17.0566 13.4565 16.9899 13.4545 16.9765C13.4527 16.9634 13.4603 16.2189 14.0829 16.8358C13.8163 16.5196 13.7116 16.5539 13.6621 16.5521C13.6259 16.5521 13.3841 16.5729 13.3232 16.8814C13.2623 17.1899 13.1899 16.9976 13.1899 16.9976C13.1899 16.9976 13.1766 17.1309 13.2413 17.169C13.306 17.207 13.2108 17.3174 13.2108 17.3174C13.2108 17.3174 13.0946 17.0338 13.1118 16.9099C13.089 17.009 13.0909 17.2545 13.2375 17.5231C13.4088 17.7039 13.5707 17.8717 14.001 18.06C14.2276 17.7136 14.2162 17.6717 14.2162 17.6678Z" fill="#2B2B2B" stroke="#2B2B2B" stroke-width="0.77625" stroke-linejoin="round"/>
<path d="M13.8086 17.67C13.8086 17.67 13.9343 17.6851 13.9686 17.7501C14.0028 17.8147 14.0181 17.9138 14.0181 17.9138C14.039 17.8719 14.0485 17.8358 14.0904 17.8053C14.1324 17.7748 14.1628 17.7709 14.1608 17.7481C14.1589 17.7253 14.0276 17.5863 13.961 17.5786C13.8943 17.571 13.7782 17.651 13.7782 17.651C13.7782 17.651 13.7572 17.6814 13.8086 17.67Z" fill="#8A9396" stroke="#2B2B2B" stroke-width="0.77625" stroke-linejoin="round"/>
<path d="M14.0957 17.998C14.0957 17.998 14.4214 18.1465 14.9578 18.1561" stroke="#8A9396" stroke-width="0.77625" stroke-linecap="round"/>
<path d="M15.1829 16.4854C15.1829 16.4854 15.1551 16.7587 14.9448 17.298" stroke="#2B2B2B" stroke-width="0.77625" stroke-linecap="round"/>
<path d="M15.1411 16.6543C15.1411 16.6543 15.078 16.8505 14.9028 16.9976" stroke="#2B2B2B" stroke-width="0.828"/>
<path fill-rule="evenodd" clip-rule="evenodd" d="M13.9642 1.06543C14.6342 1.17185 15.2857 1.33372 15.9139 1.54619V1.74201L10.1797 4.60913L8.52824 3.78341L13.9642 1.06543ZM6.03819 2.53838L8.52824 3.78341L6.87683 4.60913L4.63956 3.4905C5.08171 3.14163 5.54896 2.82321 6.03819 2.53838ZM1.44694 7.32406L6.87683 4.60913L8.52824 5.43485L2.79401 8.30196H1.14258V7.94355C1.23824 7.73374 1.33976 7.52721 1.44694 7.32406ZM8.52824 5.43485L10.1797 4.60913L15.9139 7.47626V8.30196H14.2625L8.52824 5.43485Z" fill="white"/>
<path fill-rule="evenodd" clip-rule="evenodd" d="M7.29698 1.90129C8.07801 1.56262 8.90216 1.30458 9.75885 1.1377V3.37789H15.9136V5.8398H9.75885V8.30167H7.29698V5.8398H2.37402C3.05529 4.90821 3.8676 4.07854 4.78382 3.37789H7.29698V1.90129Z" fill="white"/>
<path fill-rule="evenodd" clip-rule="evenodd" d="M14.371 1.13672C14.6259 1.18629 14.8779 1.24392 15.1267 1.30934L10.9902 3.37764H9.88916L14.371 1.13672ZM7.78968 1.70046C8.26813 1.51788 8.76126 1.36504 9.2668 1.2442V3.87001H15.9139V5.34715H9.2668V8.30143H7.78968V5.34715H2.75431C3.18729 4.81504 3.66497 4.32076 4.18161 3.87001H7.78968V1.70046ZM4.85615 3.32301C5.00427 3.21149 5.15502 3.10333 5.30835 2.99864L6.06637 3.37764H4.96541L4.85615 3.32301ZM6.06637 5.83951L1.14258 8.30143H2.24354L7.16732 5.83951H6.06637ZM10.9902 5.83951L15.9139 8.30143V7.75093L12.0911 5.83951H10.9902Z" fill="#C8102E"/>
</svg>
