<svg width="25" height="24" viewBox="0 0 25 24" fill="none" xmlns="http://www.w3.org/2000/svg">
<path d="M12.2047 24C18.8321 24 24.2047 18.6275 24.2047 12C24.2047 5.37259 18.8321 0 12.2047 0C5.5773 0 0.204712 5.37259 0.204712 12C0.204712 18.6275 5.5773 24 12.2047 24Z" fill="#2E42A5"/>
<path fill-rule="evenodd" clip-rule="evenodd" d="M12.3075 6.0104H6.52846V10.4768H5.03113V6.0104H1.80408C2.10738 5.48485 2.44938 4.98444 2.82617 4.51306H5.03113V2.37929C5.50449 2.02576 6.00481 1.70634 6.52846 1.42468V4.51306H12.3075V6.0104Z" fill="#D9D9D9"/>
<path fill-rule="evenodd" clip-rule="evenodd" d="M10.3392 10.4768H12.3075V8.33359L9.48462 6.00587L8.09041 5.0239L12.3075 1.66547V0.000431408C12.2733 0.000143993 12.239 0 12.2047 0C11.2835 0 10.3865 0.103805 9.52481 0.300356L6.06313 3.21302L5.79123 3.40452L5.51932 3.21302L4.76841 2.5812C4.0539 3.14608 3.4052 3.79053 2.83567 4.50117L3.49204 5.02389L2.09781 6.00587L1.56492 6.44529C0.919721 7.6786 0.482674 9.038 0.300415 10.4768H1.24329L5.79123 6.85494L10.3392 10.4768Z" fill="#F7F8FB"/>
<path fill-rule="evenodd" clip-rule="evenodd" d="M11.6215 10.4768H12.3076V9.03213L8.68512 5.95852L6.73491 5.26464L6.69519 5.2335L12.3076 0.428569V0.00043105C12.2734 0.000143874 12.2391 0 12.2048 0C11.6375 0 11.0794 0.0393683 10.533 0.115522L5.52552 4.31661L4.07142 3.17675C3.72782 3.49364 3.40277 3.83035 3.0981 4.18506L4.41891 5.24501L0.789231 8.29016C0.561029 8.99285 0.395904 9.72397 0.300537 10.4768H0.57072L5.97941 5.8463L6.40152 5.98323L11.6215 10.4768Z" fill="#F50100"/>
<path fill-rule="evenodd" clip-rule="evenodd" d="M12.3075 7.13365H7.65125V10.4768H3.90792V7.13365H1.23242C1.46321 6.61405 1.72983 6.11389 2.02913 5.63631C2.18971 5.3801 2.35969 5.13038 2.53859 4.88764C2.9327 4.35293 3.37011 3.85209 3.84565 3.3903H3.90792V3.33027C4.37287 2.8852 4.87356 2.47715 5.40525 2.11088C5.64847 1.94333 5.89818 1.78452 6.15392 1.63491C6.63286 1.35471 7.13297 1.10677 7.65125 0.894043V3.3903H12.3075V7.13365Z" fill="white"/>
<path fill-rule="evenodd" clip-rule="evenodd" d="M12.3075 6.01052H6.52846V10.4768H5.03113V6.01052H1.80408C2.10738 5.48497 2.44938 4.98456 2.82617 4.51318H5.03113V2.37941C5.50449 2.02588 6.00481 1.70646 6.52846 1.4248V4.51318H12.3075V6.01052Z" fill="#F50100"/>
<path d="M16.9208 17.0181C16.8699 17.0181 16.6854 16.9188 16.6854 16.9188C16.6854 16.9188 16.5519 17.1303 16.4819 17.1424C16.4119 17.1549 16.0494 17.0122 16.0494 17.0122C16.0494 17.0122 15.7951 17.2108 15.7379 17.1984C15.6806 17.1862 15.0956 17.0619 15.0956 17.0619L14.7775 16.8629C14.7775 16.8629 14.5995 17.1487 14.5931 17.1424C14.5867 17.1362 14.0589 17.0369 14.0589 17.0369C14.0589 17.0369 14.2179 16.8195 14.2179 16.8133C14.2179 16.807 14.1416 16.782 14.1416 16.782L14.0271 16.8754L13.5565 16.9188L13.671 16.5956L13.8554 16.3222L16.113 14.1781L17.2259 16.1854L17.0607 16.7883C17.0607 16.7883 16.9715 17.0181 16.9208 17.0181Z" fill="#6A4C2D"/>
<path fill-rule="evenodd" clip-rule="evenodd" d="M20.7054 16.5524C20.7385 16.6864 20.6568 16.822 20.5228 16.8552C20.2843 16.9142 20.0266 17.1423 19.8108 17.4634C19.978 17.5578 20.1269 17.6462 20.2472 17.7195C20.345 17.7792 20.4241 17.829 20.479 17.864C20.5064 17.8815 20.5278 17.8954 20.5425 17.9049L20.5593 17.9159L20.5638 17.9189L20.565 17.9197L20.4276 18.1285C20.5716 18.3329 20.5715 18.333 20.5715 18.333L20.5702 18.3339L20.5669 18.3362L20.5553 18.3442C20.5453 18.3511 20.5309 18.361 20.5127 18.3732C20.4763 18.3977 20.4247 18.4318 20.3629 18.4708C20.2403 18.5482 20.0733 18.6478 19.9036 18.73C19.7439 18.8074 19.5454 18.8881 19.3717 18.8948C19.2823 18.8982 19.158 18.8838 19.0562 18.7939C18.9485 18.699 18.9187 18.5676 18.9213 18.453M15.6804 17.2665C15.9793 17.1121 16.3097 16.9567 16.6289 16.8382C16.9529 16.7179 17.2875 16.627 17.5734 16.627C17.8596 16.627 18.1922 16.718 18.5133 16.8385C18.8007 16.9463 19.0964 17.0846 19.3692 17.2249C19.6141 16.848 19.9714 16.4766 20.4026 16.3698C20.5366 16.3366 20.6722 16.4184 20.7054 16.5524M15.6804 17.2665C15.6409 17.2186 15.6011 17.1714 15.5618 17.1254C15.4141 16.9525 15.2697 16.7931 15.1579 16.6715C15.1145 16.6243 15.0757 16.5824 15.0437 16.548C15.0346 16.5382 15.0261 16.529 15.0182 16.5204L14.9743 16.4728L14.9611 16.4582C14.9579 16.4546 14.9567 16.4532 14.9567 16.4532C14.9566 16.4531 14.9567 16.4532 14.9567 16.4532C14.8688 16.3467 14.7112 16.3318 14.6048 16.4197C14.4983 16.5077 14.4833 16.6653 14.5713 16.7717C14.5878 16.7917 14.6322 16.8396 14.6898 16.9017C14.7202 16.9345 14.7543 16.9713 14.7899 17.01C14.8997 17.1293 15.0395 17.2838 15.1816 17.4501C15.1983 17.4697 15.2151 17.4894 15.2317 17.5092C15.0956 17.5859 14.9736 17.6575 14.8717 17.7186C14.7723 17.7782 14.6918 17.828 14.636 17.863C14.6081 17.8805 14.5864 17.8943 14.5715 17.9038L14.5543 17.9148L14.5498 17.9177L14.5486 17.9185C14.5485 17.9185 14.548 17.9189 14.6842 18.1285L14.5486 17.9185C14.4708 17.969 14.4269 18.0587 14.4352 18.151C14.4435 18.2433 14.5022 18.3234 14.5878 18.3592L14.5893 18.3598L14.593 18.3614L14.6068 18.367C14.6186 18.3718 14.6357 18.3788 14.6572 18.3873C14.7002 18.4044 14.7612 18.4282 14.8338 18.4551C14.9781 18.5085 15.1721 18.5758 15.3633 18.6272C15.5446 18.676 15.7581 18.7208 15.9262 18.7061C16.0058 18.6991 16.1359 18.6743 16.2269 18.5667C16.3322 18.4423 16.3186 18.2928 16.2834 18.1879M15.2548 18.0727C15.3327 18.0982 15.4138 18.123 15.4933 18.1444C15.5884 18.17 15.6716 18.1881 15.7396 18.1984C15.7004 18.1289 15.6478 18.0473 15.5826 17.9559C15.5708 17.9394 15.5588 17.9227 15.5465 17.9059C15.4409 17.9647 15.3427 18.0211 15.2548 18.0727ZM20.4276 18.1285L20.5715 18.333C20.639 18.2854 20.6788 18.2075 20.6776 18.1249C20.6764 18.0423 20.6339 17.9653 20.565 17.9197L20.4276 18.1285Z" fill="#FFBB00"/>
<path d="M21.2412 16.6944L20.9248 16.5766L20.6445 16.2055L19.4842 16.1202L18.4264 15.8315L17.9803 16.129L18.2205 16.4427L18.8074 16.6586L21.2412 16.6944Z" fill="#F7FCFF"/>
<path d="M16.6071 9.83466C16.6178 9.86177 16.8544 9.81371 16.9047 9.95541C17.1594 9.5794 17.4582 9.93802 17.4582 9.93802L17.7097 9.64026L17.9937 9.90916L18.2542 9.88887L18.5265 10.5278L16.3781 10.4876C16.3781 10.4876 16.5963 9.80757 16.6071 9.83466Z" fill="#656263"/>
<path d="M18.8341 12.5539C18.8168 12.3516 18.6375 12.328 18.5374 12.3348C18.4371 12.3415 18.3473 12.4257 18.3473 12.4257L18.016 12.22C18.016 12.22 18.1818 11.198 18.3577 11.1341C18.5248 11.0162 18.5544 10.9653 18.5544 10.9385C18.5544 10.9114 18.4924 10.8019 18.4924 10.8019L17.4119 10.6771L16.3903 10.7951C16.3903 10.7951 16.311 10.9551 16.3214 11.0025C16.3317 11.0496 16.3352 11.1003 16.518 11.2386C16.7205 11.3907 16.8597 12.264 16.8597 12.264C16.8597 12.264 16.5734 12.4021 16.5561 12.3852C16.5387 12.3686 16.4526 12.3516 16.4076 12.3584C16.3629 12.3652 16.2144 12.4393 16.2144 12.6314C16.2144 12.8239 16.3629 12.9352 16.3629 12.9352C16.3629 12.9352 17.3395 13.651 17.4846 13.9139C17.6262 13.5969 18.5544 12.8811 18.6648 12.827C18.7098 12.8002 18.8513 12.7563 18.8341 12.5539Z" fill="#656263"/>
<path d="M19.8089 11.6008C19.89 11.548 20.4305 11.5215 20.5604 11.6008C20.69 11.6801 20.7387 12.071 20.7387 12.071C20.7387 12.071 20.8198 12.2084 20.8252 12.3087C20.8305 12.4091 20.8414 12.4778 20.8414 12.4778C20.8414 12.4778 21.2739 13.0273 21.2792 13.5237C21.3279 13.8618 21.317 14.765 21.1821 15.1083C21.1764 15.5363 20.9928 15.8161 20.9928 15.8161C20.9928 15.8161 21.0359 15.89 21.0306 15.9693C21.025 16.0486 20.9819 16.1225 20.9819 16.1225L20.5766 16.2967L20.128 16.2229L19.6196 14.7384L19.7386 12.2294L19.7711 12.1028L19.7171 11.7646C19.7171 11.7646 19.728 11.6537 19.8089 11.6008Z" fill="black"/>
<path d="M16.8744 12.918C16.8744 12.918 17.4213 12.918 17.4804 13.0915C17.5839 12.8603 18.0568 12.8749 18.0568 12.8749C18.3426 12.8652 18.6284 12.8556 18.914 12.8459C18.919 13.5201 18.9238 14.1942 18.9289 14.8682C18.7615 15.6528 18.18 16.2067 17.5395 16.4426C16.7757 16.2018 16.293 15.5712 16.1354 14.8537C16.1056 14.2134 16.076 13.5729 16.0465 12.9326C16.3225 12.9277 16.5984 12.9229 16.8744 12.918Z" fill="#F7FCFF"/>
<path d="M16.3413 12.9251L17.5471 16.0651L18.6363 12.8567C18.2983 12.878 17.5734 12.8047 17.4835 13.1059C17.3441 12.8364 16.5813 12.9451 16.3413 12.9251Z" fill="#006B00"/>
<path fill-rule="evenodd" clip-rule="evenodd" d="M17.7391 13.4175C17.7391 13.4175 17.8487 13.7036 17.7391 13.8453C17.6294 13.9869 17.7481 14.1029 17.8143 14.1029C17.8804 14.1029 18.1075 14.3278 17.9232 14.3278C17.7391 14.3278 17.635 14.2578 17.635 14.4555C17.635 14.6531 17.8895 15.5432 17.8143 15.7567C17.7391 15.9702 17.7577 16.1334 17.8657 16.0792C17.9736 16.0249 18.0411 15.8855 17.9822 15.617C17.9232 15.3484 17.8657 15.4119 17.8657 15.1798C17.8657 14.9477 17.9232 14.6894 17.9232 14.6894C17.9232 14.6894 18.0201 14.762 17.9512 15.0269C17.8824 15.2919 18.0365 15.6573 18.0365 15.7567C18.0365 15.8561 18.0411 16.1296 17.9822 16.1567C17.9232 16.1839 17.8692 16.349 17.8143 16.2231C17.7593 16.0972 17.7249 15.8896 17.6546 16.0324C17.5842 16.1753 17.5978 16.5038 17.5246 16.5196C17.4514 16.5354 17.3421 16.6911 17.3421 16.6286C17.3421 16.5661 17.2389 16.4532 17.2703 16.348C17.3017 16.2429 17.3293 16.2305 17.3547 16.3313C17.3802 16.4322 17.4871 16.4312 17.4871 16.348C17.4871 16.2649 17.4497 16.3055 17.4871 16.1161C17.5246 15.9268 17.5662 15.6762 17.4871 15.6913C17.408 15.7064 17.2866 15.8296 17.2703 15.6022C17.2541 15.3747 17.1891 15.2683 17.2415 15.224C17.2938 15.1798 17.3636 15.0216 17.3859 15.146C17.4083 15.2704 17.3099 15.3893 17.326 15.4341C17.3421 15.4789 17.351 15.5805 17.4191 15.4954C17.4871 15.4103 17.5272 15.2701 17.5781 15.4001C17.629 15.5301 17.63 15.4275 17.5246 15.1798C17.4191 14.932 17.3294 14.7942 17.3421 14.5767C17.3547 14.3592 17.3376 14.2777 17.3547 14.2078C17.3718 14.1379 17.1657 13.7974 17.218 13.6994C17.2703 13.6013 17.2904 13.2848 17.3547 13.3418C17.4191 13.3988 17.4521 13.4753 17.4191 13.5605C17.3859 13.6457 17.3528 13.7303 17.3859 13.7878C17.4191 13.8453 17.5327 14.0112 17.5554 13.9694C17.5781 13.9278 17.6546 13.9681 17.6546 13.7317C17.6546 13.4954 17.5693 13.4124 17.623 13.3562C17.6768 13.3002 17.7391 13.4175 17.7391 13.4175Z" fill="#FFD100"/>
<path d="M18.6432 12.8572L18.8058 12.8533L18.5155 13.2126L18.8638 13.61L18.1786 14.4537L18.8253 15.2141C18.7542 15.3844 18.6717 15.5394 18.5618 15.6796L18.1902 15.2783L18.8638 14.4576L18.3103 13.8446L18.6432 12.8572Z" fill="#1E5AA6"/>
<path d="M16.1459 12.9329L16.4711 13.277L16.1267 13.697L16.8429 14.4576L16.2504 15.2331C16.3216 15.4035 16.4235 15.5925 16.5331 15.7324L16.8855 15.2974L16.1616 14.5104L16.6919 13.8522L16.3202 12.929L16.1459 12.9329Z" fill="#1E5AA6"/>
<path d="M17.1255 14.972L16.8701 15.3049L17.7837 16.3378C17.945 16.2583 18.0716 16.1675 18.2097 16.058L17.7334 15.5208L17.9271 14.9645L18.2058 15.2784L17.3348 16.3644C17.1889 16.3038 17.0276 16.2092 16.8818 16.0919L17.3425 15.5208L17.1255 14.972Z" fill="#1E5AA6"/>
<path d="M20.2847 12.3035C20.2847 12.3563 20.3422 15.4729 20.4053 15.4432C20.5621 15.3691 20.5982 15.5308 20.5982 15.5308C20.5982 15.5308 20.6522 16.0435 20.5171 16.1121C20.2738 16.2387 20.1674 16.2667 20.1674 16.2667L19.9334 16.0962C19.9334 16.0962 19.6955 15.7633 19.6415 15.6154C19.5874 15.4676 19.5225 14.8074 19.5441 14.6646C19.5657 14.5221 19.5819 13.6873 19.5712 13.6452C19.5603 13.6027 19.5172 12.9056 19.5441 12.8C19.5712 12.6944 19.7386 12.2294 19.7333 12.2294C19.7333 12.2294 20.2847 12.2507 20.2847 12.3035Z" fill="url(#paint0_linear_4_42)"/>
<path d="M19.7442 11.7699C19.8576 11.7699 19.944 11.8651 19.9712 11.9496C19.9765 11.9866 19.9603 12.013 19.9656 12.0817C19.9712 12.1503 19.1441 12.0973 19.1388 12.0921C19.1388 12.0921 19.5226 11.7278 19.7442 11.7699Z" fill="#FF7000"/>
<path d="M20.6522 16.2863C20.6522 16.2863 20.9118 16.2281 20.982 16.1383C21.0253 16.1066 21.2524 16.4712 20.6522 16.2863Z" fill="white"/>
<path fill-rule="evenodd" clip-rule="evenodd" d="M20.9935 16.5849C20.878 16.5991 20.7388 16.5746 20.5786 16.5252C20.4703 16.4918 20.398 16.3898 20.4024 16.2765C20.4068 16.1633 20.4869 16.0673 20.5974 16.0424C20.5974 16.0424 20.5974 16.0424 20.5974 16.0424L20.6042 16.0408C20.6097 16.0394 20.6182 16.0373 20.6288 16.0344C20.6502 16.0287 20.6787 16.0203 20.7082 16.01C20.7386 15.9994 20.7649 15.9884 20.784 15.9783C20.7894 15.9755 20.7932 15.9732 20.7957 15.9717C20.8073 15.9586 20.8203 15.9468 20.8345 15.9365C20.912 15.8799 20.9956 15.8813 21.0474 15.893C21.0956 15.904 21.1308 15.9259 21.1504 15.9399C21.1911 15.9691 21.2208 16.0051 21.2407 16.0348C21.276 16.0873 21.3287 16.1934 21.3035 16.3189C21.2891 16.3908 21.25 16.4597 21.1846 16.5102C21.1234 16.5575 21.0541 16.5774 20.9935 16.5849Z" fill="black"/>
<path d="M20.2215 11.9803C20.2215 12.0031 20.203 12.0217 20.1801 12.0217C20.1573 12.0217 20.1388 12.0031 20.1388 11.9803C20.1388 11.9574 20.1573 11.939 20.1801 11.939C20.203 11.939 20.2215 11.9574 20.2215 11.9803Z" fill="black"/>
<path d="M18.1635 11.5242C18.1635 11.5242 18.5941 11.9796 18.8727 11.9746C18.9233 12.1083 18.746 12.2326 18.6753 12.2919C18.5335 12.2474 18.4052 12.2999 18.0759 11.9041C18.0964 11.6516 18.1686 11.534 18.1635 11.5242Z" fill="#F7FCFF"/>
<path d="M19.8754 9.23254C19.9159 9.52459 19.873 9.5924 19.8539 9.71504C19.8349 9.83767 20.6019 9.88295 20.7994 9.64032C20.7792 9.74928 20.549 10.1927 19.5055 10.1877C19.9007 10.5542 19.3791 10.8462 19.1561 10.757C19.5664 10.4501 19.0398 10.267 18.746 10.465C18.8016 10.2967 19.2119 9.45047 19.8754 9.23254Z" fill="#F7FCFF"/>
<path fill-rule="evenodd" clip-rule="evenodd" d="M19.1804 11.2826C19.1022 10.9609 19.0643 10.5914 19.2373 10.4501C19.0092 10.2967 18.7612 10.4551 18.7612 10.4551C18.7595 10.4589 18.7548 10.4653 18.7482 10.4745C18.6952 10.5478 18.518 10.7927 18.7612 11.2327C18.1129 11.0644 18.3841 11.6528 18.432 11.6973C18.4572 11.6032 18.8016 11.5142 18.8879 11.9943C18.9169 12.0916 18.7423 12.2319 18.6862 12.277C18.6738 12.2869 18.6672 12.2922 18.6699 12.2914C18.6699 12.2914 19.2185 12.4027 19.2895 11.6779C19.3834 11.622 19.8385 11.3185 19.8247 10.6928C19.4065 10.7013 19.2217 11.162 19.1804 11.2826Z" fill="#0000FF"/>
<path d="M16.7302 11.6528C16.7302 11.6528 16.3099 12.0091 16.0717 11.8952C15.8945 11.9993 15.6869 11.8162 15.6869 11.8162C15.6869 11.8162 15.9299 12.6921 16.8012 12.0585C16.786 11.8656 16.7403 11.6677 16.7302 11.6528Z" fill="#F7FCFF"/>
<path d="M16.0666 11.8805C16.102 11.6974 16.249 11.6082 16.3655 11.7814C16.5225 11.8113 16.6795 11.1828 16.1222 11.2865C16.2792 10.4649 15.8084 10.1581 15.8084 10.1581C15.8084 10.1581 15.6412 11.0688 15.7171 11.2371C15.7932 11.4053 15.6058 10.9253 15.003 10.7915C14.9929 11.4797 15.6767 11.8014 15.6767 11.8014C15.6767 11.8014 15.8692 11.9746 16.0666 11.8805Z" fill="#0000FF"/>
<path d="M15.4968 10.8874C15.3196 10.9417 14.8885 10.6818 15.162 10.3451C14.2655 10.3253 13.7775 9.5679 14.0763 9.71232C14.375 9.85673 14.5885 9.549 14.8114 9.71232C14.5379 9.465 14.9069 9.26709 14.9069 9.26709C14.9069 9.26709 15.6717 9.48995 15.8084 10.1531C15.7628 10.2819 15.7425 10.5094 15.7324 10.4995C15.7324 10.4946 15.2588 10.4913 15.4968 10.8874Z" fill="#F7FCFF"/>
<path d="M16.9282 7.82077C16.9321 7.79807 17.5051 7.60128 17.5437 7.27595C17.5822 6.95063 17.536 7.17 17.536 7.17C17.536 7.17 17.6949 7.02248 17.6368 6.943C17.5785 6.86356 17.5979 7.04518 17.5051 7.04138C17.4122 7.03759 17.4625 6.84465 17.4625 6.84465C17.4625 6.84465 17.4548 6.82194 17.4276 6.81059C17.3888 6.81437 17.2999 6.73114 17.2999 6.73114C17.2999 6.73114 17.2419 6.65548 17.1913 6.89382C17.2185 7.14733 17.385 7.09812 17.385 7.26462C17.385 7.43109 17.2379 7.55971 17.1953 7.5635C17.1527 7.56727 17.1682 7.42352 17.1682 7.42352C17.1682 7.42352 17.145 7.35541 17.1296 7.35541C17.1142 7.35541 17.2147 7.34027 17.1993 7.1511C17.1645 6.92409 17.1373 7.20408 17.0753 7.19271C17.0133 7.18137 17.0598 6.98464 17.083 6.96193C17.1062 6.93923 17.0559 6.84465 16.9204 7.08679C16.9087 7.20408 16.8933 7.05652 16.8661 7.06409C16.8198 7.15867 16.8275 7.22678 16.8933 7.3138C16.9901 7.40082 17.0521 7.48783 17.0482 7.53323C17.0445 7.57864 16.9938 7.68079 16.9244 7.68079C16.8546 7.68079 16.9282 7.55593 16.9244 7.5143C16.9204 7.4727 16.8044 7.32137 16.8044 7.32137C16.8044 7.32137 16.723 7.19271 16.7307 7.18894C16.7383 7.18515 16.5449 7.37432 16.6609 7.4727C16.572 7.46136 16.5643 7.4954 16.5643 7.4954C16.5643 7.5408 16.6843 7.55971 16.6998 7.63916C16.7152 7.71863 16.5757 7.76401 16.5757 7.76401C16.5757 7.76401 16.6341 7.84346 16.7964 7.68836C16.8004 7.78672 16.7346 7.85483 16.7346 7.85483C16.7887 7.87878 16.8312 7.87625 16.839 7.93807C16.839 7.93807 16.9244 7.84345 16.9282 7.82077Z" fill="#CDAD56"/>
<path d="M16.3077 7.93806C16.3077 7.93806 16.2354 7.83307 16.2322 7.81239C16.2287 7.79175 15.8761 7.8385 15.7093 7.41819C15.6007 7.21852 15.7093 7.33558 15.7093 7.33558L15.7159 7.23917C15.7159 7.23917 15.6004 7.10113 15.6497 7.02883C15.699 6.95653 15.6787 7.12178 15.7422 7.12212C15.821 7.11868 15.7783 6.94309 15.7783 6.94309C15.7783 6.94309 15.7848 6.92244 15.8079 6.91212C15.8407 6.91555 15.8543 7.01914 15.8838 7.02603C15.9134 7.03292 15.9746 6.90414 15.9938 6.87765C16.0209 6.87386 16.0198 6.77097 16.0627 6.98785C16.0397 7.21852 15.8441 7.17377 15.8441 7.32525C15.8441 7.47671 15.9689 7.59376 16.0052 7.59722C16.0414 7.60065 16.0283 7.46985 16.0283 7.46985C16.0283 7.46985 16.048 7.40787 16.0611 7.40787C16.0744 7.40787 15.9461 7.43192 15.9594 7.25979C15.989 7.09864 16.0544 7.27017 16.1071 7.25982C16.1598 7.2495 16.101 7.08941 16.1162 7.06496C16.1196 7.04051 16.1971 6.93553 16.2271 7.16721C16.2369 7.27394 16.2966 7.07536 16.3195 7.08225C16.3591 7.1683 16.3022 7.28325 16.2463 7.36244C16.1641 7.4416 16.1268 7.52835 16.1302 7.56968C16.1335 7.61098 16.1529 7.66232 16.2122 7.66232C16.2713 7.66232 16.2322 7.59033 16.2354 7.55246C16.2386 7.5146 16.3373 7.39201 16.3373 7.39201C16.3567 7.36176 16.3405 7.30522 16.361 7.27909C16.3932 7.27943 16.4065 7.23574 16.4392 7.35622C16.4722 7.47671 16.5116 7.27704 16.5116 7.27704C16.5116 7.27704 16.5577 7.42508 16.4589 7.5146C16.5345 7.50428 16.5411 7.53525 16.5411 7.53525C16.5411 7.57657 16.5052 7.59376 16.4919 7.66605C16.4786 7.73836 16.5313 7.77968 16.5313 7.77968C16.5313 7.77968 16.4821 7.85197 16.3439 7.71082C16.3405 7.80032 16.3966 7.8623 16.3966 7.8623C16.3503 7.88411 16.3144 7.88181 16.3077 7.93806Z" fill="#CDAD56"/>
<path d="M17.2164 7.85671C17.1318 8.10395 16.8265 8.01015 16.8265 8.01015C16.8265 8.01015 16.8367 8.13388 16.8063 8.19325C16.8313 8.21167 17.0118 8.35049 17.2012 8.38629C17.4738 8.43779 18.0318 8.29692 18.2191 8.50506C18.4065 8.71322 18.3966 8.88121 18.3966 8.88121C18.3966 8.88121 18.1529 8.90906 18.2206 8.99491C18.2646 9.05066 18.3859 9.09208 18.3966 9.14969C18.4309 9.33308 18.2822 9.66304 18.3357 9.787C18.2513 9.79454 18.2447 9.88088 18.2447 9.88088C18.2399 9.97889 17.9964 9.92067 17.9964 9.92067C17.9964 9.92067 18.1483 9.53943 18.1584 9.45048C18.1686 9.36128 18.052 9.2029 17.961 9.2029C17.8697 9.2029 17.804 9.48507 17.804 9.48507C17.804 9.48507 17.7584 9.6978 17.7737 9.71756C17.7888 9.73733 17.7127 9.64839 17.7127 9.64839C17.7127 9.64839 17.6888 9.7348 17.6496 9.787C17.6055 9.84572 17.5456 9.871 17.5456 9.871C17.5456 9.871 17.5001 9.74227 17.5153 9.69286C17.5304 9.64345 17.7636 9.45048 17.7433 9.31187C17.7343 9.2507 17.7263 9.14393 17.6496 9.10849C17.5526 9.06364 17.3747 9.09636 17.2672 9.07423C17.2081 9.17483 17.181 9.72745 17.2214 9.76229C17.2622 9.79688 17.1203 9.871 17.1203 9.871L16.9532 9.87594C16.9505 9.80104 17.0516 9.59638 17.0516 9.42318C17.0516 9.24998 17.0644 9.06435 17.0644 9.06435C17.0644 9.06435 16.9521 9.09262 16.8922 9.2029C16.842 9.29538 16.8421 9.47017 16.8468 9.49496C16.8568 9.54931 16.9074 9.70274 16.8922 9.74747C16.8771 9.79194 16.6138 9.85124 16.6138 9.85124L16.6035 9.70768C16.6035 9.70768 16.715 9.6385 16.715 9.4653C16.715 9.29211 16.7251 9.04454 16.72 9.02971C16.7171 9.0208 16.6288 8.64178 16.5129 8.38629C16.4354 8.21591 16.316 8.13783 16.31 8.12398C16.2948 8.08933 16.2948 8.04973 16.2948 8.04973C16.2948 8.04973 16.1274 8.16852 15.9299 7.91611C16.1109 7.7652 16.3049 7.8765 16.3049 7.8765C16.3049 7.8765 16.3555 7.73791 16.5884 7.74782C16.8214 7.75773 16.8669 7.88641 16.8568 7.87156C16.8568 7.87156 17.029 7.72307 17.2164 7.85671Z" fill="#923F00"/>
<path d="M18.131 10.4316C18.1351 10.4316 18.5611 10.4441 18.5654 10.6667C18.5696 10.8891 18.4347 10.8316 18.4304 10.8316C18.4262 10.8316 18.1183 10.7944 18.1183 10.7944L18.131 10.4316Z" fill="#0000FF"/>
<path d="M17.7174 10.3696C17.7174 10.3696 18.2488 10.3657 18.2193 10.5923C18.1898 10.8191 18.0549 10.7738 18.0549 10.7738L17.7975 10.753L17.7174 10.3696Z" fill="#F7FCFF"/>
<path d="M17.4181 10.345L17.726 10.3696C17.726 10.3696 17.9115 10.3943 17.9032 10.5675C17.8947 10.7407 17.7132 10.7449 17.7132 10.7449L17.4138 10.7282L17.4181 10.345Z" fill="#0000FF"/>
<path d="M16.6968 10.4316C16.6925 10.4316 16.2665 10.4441 16.2623 10.6667C16.2582 10.8891 16.3932 10.8316 16.3974 10.8316C16.4017 10.8316 16.7096 10.7944 16.7096 10.7944L16.6968 10.4316Z" fill="#F7FCFF"/>
<path d="M17.1101 10.3696C17.1101 10.3696 16.5787 10.3657 16.6082 10.5923C16.6378 10.8191 16.7727 10.7738 16.7727 10.7738L17.0301 10.753L17.1101 10.3696Z" fill="#0000FF"/>
<path d="M17.4097 10.345L17.1018 10.3696C17.1018 10.3696 16.9161 10.3943 16.9246 10.5675C16.933 10.7407 17.1143 10.7449 17.1143 10.7449L17.4137 10.7282L17.4097 10.345Z" fill="#F7FCFF"/>
<path d="M18.549 12.5627C18.6305 12.5893 18.5685 12.8361 18.5296 12.859L18.2343 12.8475C18.2343 12.8475 18.4557 12.5287 18.549 12.5627Z" fill="#5E0043"/>
<path d="M16.7165 12.9046C16.6468 12.8096 16.5457 12.5478 16.4526 12.6198C16.3708 12.6463 16.4331 12.8932 16.4719 12.916L16.7165 12.9046Z" fill="#5E0043"/>
<path d="M16.3498 11.0733L17.4155 11.7547L18.375 11.124C18.375 11.124 18.5752 11.0161 18.5579 10.9386C18.5409 10.8608 18.4716 10.8913 18.4371 10.9048C18.4027 10.9183 17.4327 11.5895 17.4327 11.5895L16.4007 10.9518C16.4007 10.9518 16.3249 10.9284 16.311 10.9755C16.2972 11.0229 16.3395 11.0497 16.3498 11.0733Z" fill="#B4B6B9"/>
<path d="M19.922 16.0885C19.922 16.0885 19.4563 16.2291 19.5861 16.2331C19.6821 16.2361 20.1448 16.2331 20.1448 16.2331L19.922 16.0885Z" fill="#FF7000"/>
<path d="M20.1107 16.2424L19.6972 16.2541C19.6972 16.2541 19.5931 16.3464 19.5864 16.3685C19.5801 16.3909 19.6548 16.3971 19.6548 16.3971C19.6548 16.3971 20.0815 16.5056 20.4043 16.4353C20.5671 16.3797 20.5956 16.3129 20.4814 16.2723C20.3675 16.2317 20.1139 16.244 20.1107 16.2424Z" fill="#FF7000"/>
<path d="M15.3266 12.4182C15.3266 12.4182 15.2728 12.5836 15.3266 12.6664C15.3805 12.7491 15.719 13.4182 15.719 13.4182C15.719 13.4182 15.9498 13.1399 16.0345 13.1323C16.1191 13.1251 16.0805 13.8543 16.0805 13.8543C16.0805 13.8543 15.9421 13.982 15.8575 13.9745C15.7728 13.9669 16.0651 14.2602 16.0574 14.5083C16.0497 14.7564 15.6728 15.9894 15.5344 16.0117C15.3959 16.0344 15.2763 15.7796 15.2763 15.5594C15.2763 15.3392 15.4189 14.9895 15.4112 14.8917C15.4035 14.7939 14.7231 15.9395 14.6819 16.1184C14.6741 16.1523 14.7189 16.2749 14.7189 16.2749C14.7189 16.2749 14.4522 16.2967 14.5111 16.6358C13.7265 16.3651 13.3418 15.8992 13.3495 15.4256C13.3525 15.244 13.1794 14.8169 13.3495 14.3454C13.6234 13.5863 14.291 12.7199 14.2958 12.6364C14.3034 12.5009 14.3573 12.4409 14.365 12.3657C14.3727 12.2905 14.3419 11.9069 14.4188 11.8394C14.4957 11.7717 14.8958 11.6064 14.9958 11.6139C15.0959 11.6214 15.1805 11.689 15.1805 11.689C15.1805 11.689 15.5575 11.689 15.5805 11.8318C15.6036 11.9748 15.5036 12.0274 15.5036 12.0274C15.5036 12.0274 15.5575 12.2305 15.3266 12.4182Z" fill="#8A9396"/>
<path d="M15.5509 16.6824C15.6781 16.7703 15.9717 16.8224 15.9717 16.8224C15.9717 16.8224 15.2505 17.0166 14.5178 16.6395C14.4508 16.3459 14.6749 16.2804 14.7304 16.2781C14.8598 16.2442 15.4238 16.5942 15.5509 16.6824Z" fill="#2B2B2B"/>
<path d="M16.4336 16.6513C17.2227 17.0684 17.3072 16.7876 17.8508 16.3912C17.8885 16.3636 18.068 17.0278 18.8298 16.6513C19.9079 16.1184 17.9056 15.2303 17.6225 15.2495C17.3396 15.2692 15.6446 16.2342 16.4336 16.6513Z" fill="#00713D"/>
<defs>
<linearGradient id="paint0_linear_4_42" x1="20.1937" y1="14.5829" x2="20.8078" y2="14.5762" gradientUnits="userSpaceOnUse">
<stop stop-color="#D5DFFF"/>
<stop offset="1" stop-color="white"/>
</linearGradient>
</defs>
</svg>
