<svg width="24" height="24" viewBox="0 0 24 24" fill="none" xmlns="http://www.w3.org/2000/svg">
<mask id="mask0_1_896" style="mask-type:luminance" maskUnits="userSpaceOnUse" x="0" y="0" width="24" height="24">
<path d="M24 0H0V24H24V0Z" fill="white"/>
</mask>
<g mask="url(#mask0_1_896)">
<path d="M12 24C18.6274 24 24 18.6274 24 12C24 5.37258 18.6274 0 12 0C5.37258 0 0 5.37258 0 12C0 18.6274 5.37258 24 12 24Z" fill="#F0F0F0"/>
<path d="M23.9999 12C23.9999 7.24242 21.2312 3.13167 17.2173 1.19067V22.8092C21.2312 20.8682 23.9999 16.7574 23.9999 12Z" fill="#338AF3"/>
<path d="M0 12C0 16.7574 2.76867 20.8682 6.78262 22.8092V1.19067C2.76867 3.13167 0 7.24242 0 12Z" fill="#338AF3"/>
<path d="M15.136 14.029L13.107 12L15.0384 10.0685L14.9508 9.04839L14.3979 8.49536L12.0001 10.8931L9.6024 8.49536L9.04946 9.04839L8.96195 10.0685L10.8933 12L8.86426 14.029L9.97107 15.1357L12.0001 13.1067L14.0292 15.1357L15.136 14.029Z" fill="#ACABB1"/>
<path d="M14.9515 9.04858L13.8447 10.1553C14.3168 10.6274 14.6088 11.2796 14.6088 12C14.6088 13.4407 13.4408 14.6087 12.0001 14.6087C10.5594 14.6087 9.39138 13.4407 9.39138 12C9.39138 11.2796 9.68341 10.6274 10.1555 10.1553L9.04872 9.04858C8.29333 9.80383 7.82617 10.8473 7.82617 12C7.82617 14.3052 9.69489 16.1739 12.0001 16.1739C14.3052 16.1739 16.174 14.3051 16.174 12C16.174 10.8474 15.7068 9.80388 14.9515 9.04858Z" fill="#6DA544"/>
</g>
</svg>
