<svg width="24" height="24" viewBox="0 0 24 24" fill="none" xmlns="http://www.w3.org/2000/svg">
<mask id="mask0_1_882" style="mask-type:luminance" maskUnits="userSpaceOnUse" x="0" y="0" width="24" height="24">
<path d="M24 0H0V24H24V0Z" fill="white"/>
</mask>
<g mask="url(#mask0_1_882)">
<path d="M5.23682 21.9131C7.16263 23.2296 9.49138 24.0001 12.0003 24.0001C14.5092 24.0001 16.8379 23.2296 18.7637 21.9131L12.0003 20.8696L5.23682 21.9131Z" fill="#D80027"/>
<path d="M18.7637 2.08697C16.8379 0.770484 14.5092 0 12.0003 0C9.49138 0 7.16263 0.770484 5.23682 2.08697L12.0003 3.13045L18.7637 2.08697Z" fill="#D80027"/>
<path d="M24 11.9999C24 8.02916 21.6227 4.04151 18.7635 2.08691H5.23655C2.07516 4.24804 0 7.88151 0 11.9999C0 16.1185 2.07516 19.7518 5.23655 21.913H18.7635C21.9249 19.7518 24 16.1185 24 11.9999Z" fill="#0052B4"/>
<path d="M11.3208 19.5748C11.1568 19.4342 7.3042 16.0851 7.3042 12C7.3042 7.91486 11.1568 4.56569 11.3208 4.42511L11.9999 3.84302L12.6789 4.42506C12.8429 4.56569 16.6955 7.91481 16.6955 12C16.6955 16.0851 12.8429 19.4343 12.6789 19.5748L11.9999 20.1569L11.3208 19.5748Z" fill="#D80027"/>
<path d="M15.652 11.9999C15.652 8.34774 11.9998 5.21729 11.9998 5.21729C11.9998 5.21729 8.34766 8.34783 8.34766 11.9999C8.34766 13.1172 8.6897 14.1854 9.16417 15.1304H14.8355C15.31 14.1854 15.652 13.1172 15.652 11.9999Z" fill="#338AF3"/>
<path d="M15.652 12C15.652 13.1173 15.31 14.1855 14.8355 15.1305L11.9998 15.6522L9.16417 15.1305C8.6897 14.1855 8.34766 13.1173 8.34766 12H15.652Z" fill="#0052B4"/>
<path d="M12.0002 18.7825C12.0002 18.7825 13.7593 17.2742 14.8359 15.1304H9.16455C10.2411 17.2742 12.0002 18.7825 12.0002 18.7825Z" fill="#FFDA44"/>
<path d="M9.65234 9.91309H14.348L12.0002 12.2609L9.65234 9.91309Z" fill="#6DA544"/>
<path d="M11.2173 11.4783H12.7825V16.1739H11.2173V11.4783Z" fill="#A2001D"/>
</g>
</svg>
