<svg width="24" height="24" viewBox="0 0 24 24" fill="none" xmlns="http://www.w3.org/2000/svg">
<mask id="mask0_1_914" style="mask-type:luminance" maskUnits="userSpaceOnUse" x="0" y="0" width="24" height="24">
<path d="M24 0H0V24H24V0Z" fill="white"/>
</mask>
<g mask="url(#mask0_1_914)">
<path d="M12.0001 0C10.917 0 9.86772 0.144375 8.86961 0.413391L7.82617 12L8.86966 23.5866C9.86772 23.8556 10.917 24 12.0001 24C18.6274 24 24.0001 18.6274 24.0001 12C24.0001 5.37262 18.6274 0 12.0001 0Z" fill="#FFDA44"/>
<path d="M7.82617 12L8.86966 23.5866C9.86772 23.8556 10.917 24 12.0001 24C18.6274 24 24.0001 18.6274 24.0001 12H7.82617Z" fill="#6DA544"/>
<path d="M0 11.9999C0 16.5484 2.53078 20.5056 6.26086 22.5408V1.45898C2.53078 3.4942 0 7.45139 0 11.9999Z" fill="#D80027"/>
<path d="M0 11.9999C0 17.5443 3.76036 22.2096 8.86955 23.5866V0.41333C3.76036 1.79033 0 6.45561 0 11.9999Z" fill="#D80027"/>
<path d="M4.53444 8.86963L5.31141 11.261H7.82606L5.79178 12.7391L6.56869 15.1305L4.53444 13.6525L2.50011 15.1305L3.2772 12.7391L1.24292 11.261H3.75744L4.53444 8.86963Z" fill="black"/>
</g>
</svg>
