<svg width="24" height="24" viewBox="0 0 24 24" fill="none" xmlns="http://www.w3.org/2000/svg">
<mask id="mask0_1_969" style="mask-type:luminance" maskUnits="userSpaceOnUse" x="0" y="0" width="24" height="24">
<path d="M24 0H0V24H24V0Z" fill="white"/>
</mask>
<g mask="url(#mask0_1_969)">
<path d="M12 24C18.6274 24 24 18.6274 24 12C24 5.37258 18.6274 0 12 0C5.37258 0 0 5.37258 0 12C0 18.6274 5.37258 24 12 24Z" fill="#D80027"/>
<path d="M13.2387 9.07813C12.966 10.2125 12.4814 9.99613 12.2436 10.9854C10.8429 10.6486 9.98022 9.23999 10.317 7.83913C10.6537 6.43836 12.0624 5.57567 13.4632 5.91247C12.9875 7.89092 13.4827 8.06361 13.2387 9.07813Z" fill="#F0F0F0"/>
<path d="M9.60395 9.91871C10.5985 10.5286 10.243 10.9226 11.1103 11.4545C10.3571 12.6827 8.75092 13.0678 7.5227 12.3146C6.29453 11.5615 5.90936 9.95522 6.66255 8.72705C8.3972 9.79074 8.71431 9.37322 9.60395 9.91871Z" fill="#F0F0F0"/>
<path d="M9.27995 13.6355C10.1673 12.8781 10.4321 13.338 11.206 12.6775C12.1414 13.7733 12.0113 15.4199 10.9155 16.3553C9.81967 17.2907 8.17304 17.1604 7.23779 16.0647C8.78532 14.7436 8.48621 14.3129 9.27995 13.6355Z" fill="#F0F0F0"/>
<path d="M12.715 15.0922C12.2688 14.0142 12.7879 13.9043 12.3989 12.9643C13.7301 12.4134 15.256 13.0459 15.807 14.3771C16.3579 15.7083 15.7253 17.2342 14.3941 17.7851C13.6161 15.905 13.1141 16.0564 12.715 15.0922Z" fill="#F0F0F0"/>
<path d="M15.1618 12.2755C13.9987 12.3668 14.0545 11.839 13.0403 11.9186C12.9277 10.4824 14.0009 9.22654 15.4372 9.1138C16.8734 9.00135 18.1292 10.0744 18.2418 11.5108C16.2132 11.6698 16.202 12.194 15.1618 12.2755Z" fill="#F0F0F0"/>
</g>
</svg>
