<svg width="24" height="24" viewBox="0 0 24 24" fill="none" xmlns="http://www.w3.org/2000/svg">
<mask id="mask0_1_956" style="mask-type:luminance" maskUnits="userSpaceOnUse" x="0" y="0" width="24" height="24">
<path d="M24 0H0V24H24V0Z" fill="white"/>
</mask>
<g mask="url(#mask0_1_956)">
<path d="M12 24C18.6274 24 24 18.6274 24 12C24 5.37258 18.6274 0 12 0C5.37258 0 0 5.37258 0 12C0 18.6274 5.37258 24 12 24Z" fill="#F0F0F0"/>
<path d="M11.9999 23.9999C16.7574 23.9999 20.8682 21.2312 22.8092 17.2173H1.19067C3.13167 21.2312 7.24241 23.9999 11.9999 23.9999Z" fill="#338AF3"/>
<path d="M11.9999 0C7.24241 0 3.13167 2.76867 1.19067 6.78262H22.8092C20.8682 2.76867 16.7574 0 11.9999 0Z" fill="#338AF3"/>
<path d="M7.38504 7.82617L7.77354 9.02191H9.03077L8.01368 9.76084L8.40223 10.9566L7.38504 10.2176L6.36785 10.9566L6.7564 9.76084L5.73926 9.02191H6.99649L7.38504 7.82617Z" fill="#338AF3"/>
<path d="M7.38504 13.0435L7.77354 14.2392H9.03077L8.01368 14.9782L8.40223 16.1739L7.38504 15.4349L6.36785 16.1739L6.7564 14.9782L5.73926 14.2392H6.99649L7.38504 13.0435Z" fill="#338AF3"/>
<path d="M16.615 7.82617L17.0036 9.02191H18.2608L17.2437 9.76084L17.6322 10.9566L16.615 10.2176L15.5978 10.9566L15.9864 9.76084L14.9692 9.02191H16.2265L16.615 7.82617Z" fill="#338AF3"/>
<path d="M16.615 13.0435L17.0036 14.2392H18.2608L17.2437 14.9782L17.6322 16.1739L16.615 15.4349L15.5978 16.1739L15.9864 14.9782L14.9692 14.2392H16.2265L16.615 13.0435Z" fill="#338AF3"/>
<path d="M12 10.4348L12.3886 11.6306H13.6458L12.6287 12.3695L13.0172 13.5652L12 12.8262L10.9828 13.5652L11.3714 12.3695L10.3542 11.6306H11.6115L12 10.4348Z" fill="#338AF3"/>
</g>
</svg>
