<svg width="24" height="24" viewBox="0 0 24 24" fill="none" xmlns="http://www.w3.org/2000/svg">
<mask id="mask0_1_537" style="mask-type:luminance" maskUnits="userSpaceOnUse" x="0" y="0" width="24" height="25">
<path d="M24 0.000976562H0V24.001H24V0.000976562Z" fill="white"/>
</mask>
<g mask="url(#mask0_1_537)">
<path d="M24 12.001C24 10.5331 23.736 9.127 23.2536 7.82706L12 7.3053L0.746391 7.82702C0.264047 9.127 0 10.5331 0 12.001C0 13.4688 0.264047 14.8749 0.746391 16.1748L12 16.6966L23.2536 16.1749C23.736 14.8749 24 13.4688 24 12.001Z" fill="#F0F0F0"/>
<path d="M12.0002 24.001C17.1598 24.001 21.5583 20.7445 23.2538 16.1749H0.746582C2.4421 20.7445 6.84062 24.001 12.0002 24.001Z" fill="#0052B4"/>
<path d="M0.746582 7.82709H23.2539C21.5583 3.25748 17.1598 0.000976562 12.0002 0.000976562C6.84062 0.000976562 2.4421 3.25748 0.746582 7.82709Z" fill="#D80027"/>
<path d="M15.1304 8.34887H13.0435L13.3913 5.74014L14.7826 4.69666L16.1739 5.74014V7.82711L15.1304 8.34887Z" fill="#338AF3"/>
<path d="M8.86961 8.34887H10.9566L10.6087 5.74014L9.21742 4.69666L7.82617 5.74014V7.82711L8.86961 8.34887Z" fill="#338AF3"/>
<path d="M13.3916 8.34887H10.6089V5.74014L12.0002 4.69666L13.3916 5.74014V8.34887Z" fill="#0052B4"/>
<path d="M7.82617 7.82715V13.5662C7.82617 14.9328 8.48627 16.1481 9.50439 16.9099L10.2348 16.7272L11.1566 17.6544C11.4292 17.7106 11.7112 17.7402 12.0001 17.7402C12.2875 17.7402 12.5681 17.711 12.8392 17.6554L13.8914 16.7793L14.4957 16.9082C15.5134 16.1464 16.174 14.9324 16.174 13.5662V7.82715H7.82617Z" fill="#F0F0F0"/>
<path d="M7.82617 7.82703H9.49572V9.49657H7.82617V7.82703Z" fill="#D80027"/>
<path d="M11.165 7.82703H12.8346V9.49657H11.165V7.82703Z" fill="#D80027"/>
<path d="M14.5044 7.82703H16.1739V9.49657H14.5044V7.82703Z" fill="#D80027"/>
<path d="M9.49561 9.49658H11.1652V11.1661H9.49561V9.49658Z" fill="#D80027"/>
<path d="M12.835 9.49658H14.5045V11.1661H12.835V9.49658Z" fill="#D80027"/>
<path d="M7.82617 11.1656H9.49572V12.8352H7.82617V11.1656Z" fill="#D80027"/>
<path d="M9.49561 12.8353H11.1652V14.5049H9.49561V12.8353Z" fill="#D80027"/>
<path d="M11.165 11.1656H12.8346V12.8352H11.165V11.1656Z" fill="#D80027"/>
<path d="M14.5044 11.1656H16.1739V12.8352H14.5044V11.1656Z" fill="#D80027"/>
<path d="M12.835 12.8353H14.5045V14.5049H12.835V12.8353Z" fill="#D80027"/>
<path d="M11.165 14.5048H12.8346V16.1743H11.165V14.5048Z" fill="#D80027"/>
<path d="M9.49542 14.505H7.93359C8.07684 15.1256 8.35847 15.6935 8.74463 16.1746H9.49542V14.505Z" fill="#D80027"/>
<path d="M14.5044 16.1746H15.2551C15.6414 15.6935 15.9229 15.1256 16.0662 14.505H14.5044V16.1746Z" fill="#D80027"/>
<path d="M9.49561 16.1746V16.903C9.98118 17.2684 10.5487 17.5304 11.1652 17.6561V16.1746H9.49561Z" fill="#D80027"/>
<path d="M12.835 16.1746V17.6561C13.4515 17.5305 14.0189 17.2684 14.5045 16.903V16.1746H12.835Z" fill="#D80027"/>
</g>
</svg>
