<svg width="24" height="24" viewBox="0 0 24 24" fill="none" xmlns="http://www.w3.org/2000/svg">
<mask id="mask0_1_943" style="mask-type:luminance" maskUnits="userSpaceOnUse" x="0" y="0" width="24" height="24">
<path d="M24 0H0V24H24V0Z" fill="white"/>
</mask>
<g mask="url(#mask0_1_943)">
<path d="M24 12C24 18.6274 18.6274 24 12 24C5.37262 24 0 18.6274 0 12C0 5.37262 12 0 12 0C12 0 24 5.37262 24 12Z" fill="#A2001D"/>
<path d="M0 12C0 5.37262 5.37262 0 12 0C18.6274 0 24 5.37262 24 12" fill="#0052B4"/>
<path d="M16.174 15.1305L12.0001 14.6088L7.82617 15.1305V8.86963H16.174V15.1305Z" fill="#F0F0F0"/>
<path d="M12.0001 14.6088C13.1526 14.6088 14.087 13.6744 14.087 12.5218C14.087 11.3692 13.1526 10.4348 12.0001 10.4348C10.8474 10.4348 9.91309 11.3692 9.91309 12.5218C9.91309 13.6744 10.8474 14.6088 12.0001 14.6088Z" fill="#0052B4"/>
<path d="M12 13.5652C12.5764 13.5652 13.0435 13.098 13.0435 12.5218C13.0435 11.9454 12.5764 11.4783 12 11.4783C11.4237 11.4783 10.9565 11.9454 10.9565 12.5218C10.9565 13.098 11.4237 13.5652 12 13.5652Z" fill="#A2001D"/>
<path d="M10.4348 9.91309H13.5652L12 11.4783L10.4348 9.91309Z" fill="#6DA544"/>
<path d="M11.4783 10.9565H12.5218V14.087H11.4783V10.9565Z" fill="#FFDA44"/>
<path d="M13.6696 13.7739H10.3304L7.82617 15.1305H16.174L13.6696 13.7739Z" fill="#6DA544"/>
</g>
</svg>
