<svg width="24" height="24" viewBox="0 0 24 24" fill="none" xmlns="http://www.w3.org/2000/svg">
<mask id="mask0_1_980" style="mask-type:luminance" maskUnits="userSpaceOnUse" x="0" y="0" width="24" height="24">
<path d="M24 0H0V24H24V0Z" fill="white"/>
</mask>
<g mask="url(#mask0_1_980)">
<path d="M0.746391 7.8262C0.264047 9.12623 0 10.5322 0 12.0001C0 13.4679 0.264047 14.874 0.746391 16.174L12 17.2175L23.2536 16.174C23.736 14.874 24 13.4679 24 12.0001C24 10.5322 23.736 9.12623 23.2536 7.8262L12 6.78271L0.746391 7.8262Z" fill="#F0F0F0"/>
<path d="M12.0002 0C6.84062 0 2.44205 3.2565 0.746582 7.82611H23.2539C21.5582 3.2565 17.1598 0 12.0002 0Z" fill="#D80027"/>
<path d="M12.0002 23.9999C17.1598 23.9999 21.5582 20.7434 23.2538 16.1738H0.746582C2.44205 20.7434 6.84062 23.9999 12.0002 23.9999Z" fill="#6DA544"/>
</g>
</svg>
