<svg width="24" height="24" viewBox="0 0 24 24" fill="none" xmlns="http://www.w3.org/2000/svg">
<mask id="mask0_1_1037" style="mask-type:luminance" maskUnits="userSpaceOnUse" x="0" y="0" width="24" height="24">
<path d="M24 0H0V24H24V0Z" fill="white"/>
</mask>
<g mask="url(#mask0_1_1037)">
<path d="M12 24C18.6274 24 24 18.6274 24 12C24 5.37258 18.6274 0 12 0C5.37258 0 0 5.37258 0 12C0 18.6274 5.37258 24 12 24Z" fill="#F0F0F0"/>
<path d="M23.9999 12.0001C23.9999 6.84061 20.7434 2.44205 16.1738 0.746582V23.2538C20.7434 21.5582 23.9999 17.1598 23.9999 12.0001Z" fill="#FF9811"/>
<path d="M0 12.0001C0 17.1598 3.2565 21.5582 7.82611 23.2538V0.746582C3.2565 2.44205 0 6.84061 0 12.0001Z" fill="#6DA544"/>
</g>
</svg>
