<svg width="24" height="24" viewBox="0 0 24 24" fill="none" xmlns="http://www.w3.org/2000/svg">
<mask id="mask0_1_1052" style="mask-type:luminance" maskUnits="userSpaceOnUse" x="0" y="0" width="24" height="24">
<path d="M24 0H0V24H24V0Z" fill="white"/>
</mask>
<g mask="url(#mask0_1_1052)">
<path d="M12 24C18.6274 24 24 18.6274 24 12C24 5.37258 18.6274 0 12 0C5.37258 0 0 5.37258 0 12C0 18.6274 5.37258 24 12 24Z" fill="#F0F0F0"/>
<path d="M16.5185 9.3914H13.5062L12.0001 6.78271L10.4941 9.3914H7.48169L8.98797 12.0001L7.48169 14.6088H10.4941L12.0001 17.2175L13.5062 14.6088H16.5185L15.0123 12.0001L16.5185 9.3914ZM13.8505 12.0001L12.9254 13.6027H11.075L10.1497 12.0001L11.0749 10.3975H12.9253L13.8505 12.0001ZM12.0001 8.79492L12.3445 9.39136H11.6559L12.0001 8.79492ZM9.22446 10.3975H9.91314L9.5688 10.994L9.22446 10.3975ZM9.22446 13.6027L9.56885 13.0062L9.91319 13.6027H9.22446ZM12.0001 15.2052L11.6558 14.6088H12.3445L12.0001 15.2052ZM14.7758 13.6027H14.0871L14.4315 13.0062L14.7758 13.6027ZM14.0871 10.3975H14.7758L14.4314 10.994L14.0871 10.3975Z" fill="#0052B4"/>
<path d="M19.4698 2.60889H4.53009C3.43495 3.48114 2.49576 4.54061 1.76123 5.73934H22.2387C21.5041 4.54065 20.5649 3.48114 19.4698 2.60889Z" fill="#0052B4"/>
<path d="M4.53009 21.3912H19.4698C20.5649 20.5189 21.5041 19.4595 22.2386 18.2607H1.76123C2.49581 19.4594 3.435 20.5189 4.53009 21.3912Z" fill="#0052B4"/>
</g>
</svg>
