<svg width="24" height="24" viewBox="0 0 24 24" fill="none" xmlns="http://www.w3.org/2000/svg">
<mask id="mask0_1_1045" style="mask-type:luminance" maskUnits="userSpaceOnUse" x="0" y="0" width="24" height="24">
<path d="M24 0H0V24H24V0Z" fill="white"/>
</mask>
<g mask="url(#mask0_1_1045)">
<path d="M12 24C18.6274 24 24 18.6274 24 12C24 5.37258 18.6274 0 12 0C5.37258 0 0 5.37258 0 12C0 18.6274 5.37258 24 12 24Z" fill="#D80027"/>
<path d="M16.4432 8.04441L15.595 11.0712L13.0502 10.6012L11.4121 7.22461L6.98678 8.79497L6.63779 7.81153L5.47998 7.66889L6.35237 10.1274L9.39779 9.34861L10.2632 11.7875L8.158 14.8944L11.7307 17.9416L11.0535 18.7355L11.5089 19.8096L13.2019 17.8247L11.0047 15.5767L12.6841 13.6079L16.4274 13.8776L17.28 9.25992L18.3062 9.44944L19.0088 8.51803L16.4432 8.04441Z" fill="#F0F0F0"/>
</g>
</svg>
