<svg width="24" height="25" viewBox="0 0 24 25" fill="none" xmlns="http://www.w3.org/2000/svg">
<mask id="mask0_1_999" style="mask-type:luminance" maskUnits="userSpaceOnUse" x="0" y="0" width="24" height="25">
<path d="M24 0.989258H0V24.9893H24V0.989258Z" fill="white"/>
</mask>
<g mask="url(#mask0_1_999)">
<path d="M12 24.9892C18.6274 24.9892 24 19.6167 24 12.9892C24 6.36182 18.6274 0.989258 12 0.989258C5.37258 0.989258 0 6.36182 0 12.9892C0 19.6167 5.37258 24.9892 12 24.9892Z" fill="#F0F0F0"/>
<path d="M12.0002 0.989258C7.24265 0.989258 3.13192 3.75793 1.19092 7.77187H22.8094C20.8685 3.75793 16.7577 0.989258 12.0002 0.989258Z" fill="#FF9811"/>
<path d="M12.0002 24.9892C16.7577 24.9892 20.8685 22.2205 22.8095 18.2065H1.19092C3.13192 22.2205 7.24265 24.9892 12.0002 24.9892Z" fill="#6DA544"/>
<path d="M12.0001 17.163C14.3052 17.163 16.174 15.2942 16.174 12.9891C16.174 10.6839 14.3052 8.81519 12.0001 8.81519C9.69489 8.81519 7.82617 10.6839 7.82617 12.9891C7.82617 15.2942 9.69489 17.163 12.0001 17.163Z" fill="#0052B4"/>
<path d="M11.9998 15.598C13.4405 15.598 14.6085 14.4301 14.6085 12.9893C14.6085 11.5486 13.4405 10.3806 11.9998 10.3806C10.5591 10.3806 9.39111 11.5486 9.39111 12.9893C9.39111 14.4301 10.5591 15.598 11.9998 15.598Z" fill="#F0F0F0"/>
<path d="M12.0002 9.77026L12.805 11.5955L14.788 11.3798L13.6097 12.9894L14.788 14.5989L12.805 14.3832L12.0002 16.2085L11.1954 14.3832L9.2124 14.5989L10.3907 12.9894L9.2124 11.3798L11.1954 11.5955L12.0002 9.77026Z" fill="#0052B4"/>
</g>
</svg>
