<svg width="24" height="24" viewBox="0 0 24 24" fill="none" xmlns="http://www.w3.org/2000/svg">
<mask id="mask0_1_296" style="mask-type:luminance" maskUnits="userSpaceOnUse" x="0" y="0" width="24" height="24">
<path d="M24 0H0V24H24V0Z" fill="white"/>
</mask>
<g mask="url(#mask0_1_296)">
<path d="M12 24C18.6274 24 24 18.6274 24 12C24 5.37258 18.6274 0 12 0C5.37258 0 0 5.37258 0 12C0 18.6274 5.37258 24 12 24Z" fill="#F0F0F0"/>
<path d="M21.9999 13.4361C20.9999 13.4361 20.9999 12.5218 19.9998 12.5218C18.9999 12.5218 18.9999 13.4361 17.9999 13.4361C17 13.4361 16.9999 12.5218 16 12.5218C15 12.5218 15 13.4361 14 13.4361C13 13.4361 12.9999 12.5218 11.9998 12.5218C10.9998 12.5218 10.9998 13.4361 9.99991 13.4361C9.00006 13.4361 9.00006 12.5218 8.00008 12.5218C7 12.5218 7 13.4361 5.99992 13.4361C4.99984 13.4361 4.99984 12.5218 3.99977 12.5218C2.99992 12.5218 2.99992 13.4361 1.99994 13.4361C1.00534 13.4361 0.999578 12.5319 0.015625 12.5222C0.0433281 13.0711 0.108859 13.61 0.207953 14.137C1.00502 14.2541 1.07481 15.0361 2.00003 15.0361C3.00002 15.0361 3.00002 14.1218 3.99986 14.1218C4.99994 14.1218 4.99994 15.0361 6.00002 15.0361C7.00009 15.0361 7.00009 14.1218 8.00017 14.1218C9.00016 14.1218 9.00016 15.0361 10 15.0361C11 15.0361 11 14.1218 11.9999 14.1218C13 14.1218 13 15.0361 14.0001 15.0361C15.0002 15.0361 15.0002 14.1218 16.0001 14.1218C17.0001 14.1218 17.0001 15.0361 18 15.0361C19 15.0361 19 14.1218 19.9999 14.1218C21 14.1218 21 15.0361 22 15.0361C22.9252 15.0361 22.995 14.2541 23.7921 14.137C23.8913 13.6099 23.9567 13.0711 23.9845 12.5222C23.0004 12.5319 22.9945 13.4361 21.9999 13.4361Z" fill="#0052B4"/>
<path d="M19.9998 15.6522C18.9998 15.6522 18.9998 16.5665 17.9999 16.5665C16.9999 16.5665 16.9999 15.6522 16 15.6522C15 15.6522 15 16.5665 13.9999 16.5665C12.9999 16.5665 12.9999 15.6522 11.9998 15.6522C10.9998 15.6522 10.9998 16.5665 9.99986 16.5665C9.00002 16.5665 9.00002 15.6522 8.00003 15.6522C6.99995 15.6522 6.99995 16.5665 5.99988 16.5665C4.9998 16.5665 4.9998 15.6522 3.99971 15.6522C2.99986 15.6522 2.99986 16.5665 1.99988 16.5665C1.26324 16.5665 1.06875 16.0707 0.617676 15.8095C0.890863 16.626 1.24969 17.4031 1.68305 18.1308C1.77689 18.1535 1.88124 18.1665 1.99983 18.1665C2.99982 18.1665 2.99982 17.2522 3.99966 17.2522C4.99975 17.2522 4.99975 18.1665 5.99983 18.1665C6.99991 18.1665 6.99991 17.2522 7.99999 17.2522C8.99997 17.2522 8.99997 18.1665 9.99981 18.1665C10.9998 18.1665 10.9998 17.2522 11.9997 17.2522C12.9998 17.2522 12.9998 18.1665 13.9999 18.1665C15 18.1665 15 17.2522 15.9999 17.2522C16.9999 17.2522 16.9999 18.1665 17.9998 18.1665C18.9998 18.1665 18.9998 17.2522 19.9998 17.2522C20.9998 17.2522 20.9998 18.1665 21.9998 18.1665C22.1185 18.1665 22.2229 18.1535 22.3168 18.1308C22.7502 17.4031 23.109 16.626 23.3821 15.8095C22.931 16.0707 22.7365 16.5666 21.9998 16.5666C20.9999 16.5665 20.9999 15.6522 19.9998 15.6522Z" fill="#0052B4"/>
<path d="M23.7207 9.41909C22.9897 9.57083 22.8965 10.3056 21.9997 10.3056C20.9997 10.3056 20.9997 9.3913 19.9997 9.3913C18.9997 9.3913 18.9997 10.3056 17.9997 10.3056C16.9998 10.3056 16.9998 9.3913 15.9998 9.3913C14.9998 9.3913 14.9998 10.3056 13.9998 10.3056C12.9998 10.3056 12.9997 9.3913 11.9997 9.3913C11.4593 9.3913 11.2109 9.6582 10.939 9.90364V11.5036C11.2109 11.2582 11.4593 10.9914 11.9997 10.9914C12.9997 10.9914 12.9997 11.9056 13.9998 11.9056C14.9999 11.9056 14.9999 10.9914 15.9998 10.9914C16.9998 10.9914 16.9998 11.9056 17.9997 11.9056C18.9997 11.9056 18.9997 10.9914 19.9997 10.9914C20.9997 10.9914 20.9997 11.9056 21.9997 11.9056C22.9249 11.9056 22.9947 11.1237 23.7919 11.0066C23.8429 11.0066 23.9 11.006 23.9585 11.0053C23.9142 10.4657 23.834 9.93617 23.7207 9.41909Z" fill="#0052B4"/>
<path d="M22.844 6.8566C22.6368 7.03065 22.3973 7.17521 21.9997 7.17521C20.9997 7.17521 20.9997 6.26086 19.9997 6.26086C18.9997 6.26086 18.9997 7.17521 17.9997 7.17521C16.9998 7.17521 16.9998 6.26086 15.9998 6.26086C14.9998 6.26086 14.9998 7.17521 13.9998 7.17521C12.9998 7.17521 12.9997 6.26086 11.9997 6.26086C11.4593 6.26086 11.2109 6.52777 10.939 6.77321V8.37319C11.2109 8.1278 11.4593 7.86094 11.9997 7.86094C12.9997 7.86094 12.9997 8.77519 13.9998 8.77519C14.9998 8.77519 14.9998 7.86094 15.9998 7.86094C16.9998 7.86094 16.9998 8.77519 17.9997 8.77519C18.9996 8.77519 18.9996 7.86094 19.9996 7.86094C20.9997 7.86094 20.9997 8.77519 21.9996 8.77519C22.7092 8.77519 22.9159 8.31558 23.333 8.0483C23.1909 7.64063 23.0276 7.2429 22.844 6.8566Z" fill="#0052B4"/>
<path d="M20.0851 3.13287C20.0574 3.13137 20.0291 3.13043 19.9997 3.13043C18.9997 3.13043 18.9997 4.04478 17.9998 4.04478C16.9998 4.04478 16.9998 3.13043 15.9999 3.13043C14.9999 3.13043 14.9999 4.04478 13.9998 4.04478C12.9997 4.04478 12.9997 3.13043 11.9997 3.13043C11.4593 3.13043 11.2109 3.39734 10.939 3.64278V5.24276C11.2109 4.99737 11.4593 4.73051 11.9997 4.73051C12.9997 4.73051 12.9997 5.64476 13.9998 5.64476C14.9999 5.64476 14.9999 4.73051 15.9998 4.73051C16.9998 4.73051 16.9998 5.64476 17.9997 5.64476C18.9997 5.64476 18.9997 4.73051 19.9997 4.73051C20.9997 4.73051 20.9997 5.64476 21.9997 5.64476C22.0613 5.64476 22.1188 5.6411 22.1733 5.63459C21.5924 4.70815 20.8891 3.86642 20.0851 3.13287Z" fill="#0052B4"/>
<path d="M15.0669 0.396309C14.7924 0.643249 14.5443 0.914468 13.9996 0.914468C12.9996 0.914468 12.9996 0.000215821 11.9995 0.00012207H11.9994C11.4822 0.000168946 11.2326 0.244716 10.9736 0.480921V2.08095C11.2325 1.84475 11.4823 1.60016 11.9995 1.60016C12.9996 1.60016 12.9996 2.51441 13.9997 2.51441C14.9997 2.51441 14.9997 1.60016 15.9997 1.60016C16.9997 1.60016 16.9997 2.51441 17.9996 2.51441C18.4192 2.51441 18.6626 2.35334 18.8778 2.1665C17.7371 1.36705 16.4509 0.76114 15.0669 0.396309Z" fill="#0052B4"/>
<path d="M13.9998 22.8274C12.9997 22.8274 12.9997 21.913 11.9996 21.913C10.9997 21.913 10.9997 22.8274 9.99972 22.8274C8.99988 22.8274 8.99988 21.913 7.99989 21.913C7.23391 21.913 7.05424 22.449 6.56299 22.7001C7.91768 23.3899 9.42082 23.8295 11.0118 23.9592C11.2578 23.7344 11.5077 23.513 11.9996 23.513C12.4917 23.513 12.7416 23.7344 12.9877 23.9592C14.5787 23.8296 16.0819 23.3899 17.4367 22.7002C16.9453 22.4491 16.7657 21.913 15.9998 21.913C14.9999 21.913 14.9999 22.8274 13.9998 22.8274Z" fill="#0052B4"/>
<path d="M17.9998 19.697C16.9998 19.697 16.9998 18.7827 15.9998 18.7827C14.9999 18.7827 14.9999 19.697 13.9998 19.697C12.9998 19.697 12.9998 18.7827 11.9997 18.7827C10.9997 18.7827 10.9997 19.697 9.99975 19.697C8.99991 19.697 8.99991 18.7827 7.99992 18.7827C6.99985 18.7827 6.99985 19.697 5.99977 19.697C4.99969 19.697 4.99969 18.7827 3.99962 18.7827C3.28051 18.7827 3.07857 19.2556 2.6499 19.5212C2.91859 19.8548 3.20425 20.1742 3.50654 20.477C3.64196 20.4192 3.80087 20.3827 3.99957 20.3827C4.99964 20.3827 4.99964 21.2969 5.99972 21.2969C6.9998 21.2969 6.9998 20.3827 7.99988 20.3827C8.99986 20.3827 8.99986 21.2969 9.99971 21.2969C10.9997 21.2969 10.9997 20.3827 11.9996 20.3827C12.9997 20.3827 12.9997 21.2969 13.9998 21.2969C14.9999 21.2969 14.9999 20.3827 15.9998 20.3827C16.9997 20.3827 16.9998 21.2969 17.9997 21.2969C18.9997 21.2969 18.9997 20.3827 19.9996 20.3827C20.1986 20.3827 20.3575 20.4192 20.493 20.4771C20.7953 20.1743 21.081 19.8549 21.3497 19.5212C20.921 19.2557 20.719 18.7827 19.9997 18.7827C18.9997 18.7827 18.9997 19.697 17.9998 19.697Z" fill="#0052B4"/>
<path d="M11.9678 12H11.9999C11.9999 11.9892 11.9999 11.9787 11.9999 11.9679C11.9892 11.9786 11.9785 11.9893 11.9678 12Z" fill="#F0F0F0"/>
<path d="M12.0001 6.26085V9.78646L7.82617 5.73914L12.0001 6.26085Z" fill="#0052B4"/>
<path d="M6.26102 12H9.78649L6.26098 7.30432L5.73926 10.9565L6.26102 12Z" fill="#0052B4"/>
<path d="M12 6.26086C12 4.14938 12 2.76586 12 0H11.998C5.3715 0.001125 0 5.37323 0 12H6.26091V8.47448L9.78638 12H11.9679C11.9786 11.9893 11.9893 11.9786 12 11.9679C12 11.1594 12 10.4381 12 9.78647L8.47444 6.26086H12Z" fill="#F0F0F0"/>
<path d="M6.07126 1.56519C4.19441 2.63389 2.63413 4.19417 1.56543 6.07099V12H4.6959V4.69573V4.69563H12.0002C12.0002 3.70831 12.0002 2.76772 12.0002 1.56519H6.07126Z" fill="#D80027"/>
<path d="M11.9999 10.5243L7.73637 6.26093H6.26074V6.26102L11.9998 12H11.9999C11.9999 12 11.9999 10.9825 11.9999 10.5243Z" fill="#D80027"/>
<path d="M15.6523 6.26086H20.348L18.0002 8.60869L15.6523 6.26086Z" fill="#6DA544"/>
<path d="M17.4785 8.08698H18.522V10.9565H17.4785V8.08698Z" fill="#A2001D"/>
<path d="M17.4785 15.6522H18.522V18.5217H17.4785V15.6522Z" fill="#A2001D"/>
<path d="M21.1305 14.087C21.1305 13.2226 20.4297 12.5218 19.5653 12.5218C19.1643 12.5218 18.7988 12.6727 18.5218 12.9206V12H19.0435V10.9565H18.5218V10.4348H17.4783V10.9565H16.9566V12H17.4783V12.9206C17.2013 12.6727 16.8358 12.5218 16.4348 12.5218C15.5704 12.5218 14.8696 13.2226 14.8696 14.087C14.8696 14.5504 15.0712 14.9667 15.3913 15.2533V16.174H20.6087V15.2533C20.9289 14.9667 21.1305 14.5504 21.1305 14.087Z" fill="#FFDA44"/>
<path d="M19.5652 13.5652C19.4006 13.5652 19.2854 13.6375 19.2177 13.698L18.5217 14.321H17.4783L16.7823 13.698C16.7146 13.6375 16.5994 13.5652 16.4348 13.5652C16.1471 13.5652 15.9131 13.7992 15.9131 14.0869C15.9131 14.2895 16.0224 14.4176 16.0875 14.4759L16.4348 14.787V15.1304H19.5653V14.787L19.9126 14.4759C19.9778 14.4176 20.087 14.2895 20.087 14.0869C20.0869 13.7992 19.8529 13.5652 19.5652 13.5652Z" fill="#D80027"/>
</g>
</svg>
