<svg width="24" height="24" viewBox="0 0 24 24" fill="none" xmlns="http://www.w3.org/2000/svg">
<mask id="mask0_1_1017" style="mask-type:luminance" maskUnits="userSpaceOnUse" x="0" y="0" width="24" height="24">
<path d="M24 0H0V24H24V0Z" fill="white"/>
</mask>
<g mask="url(#mask0_1_1017)">
<path d="M12 24C18.6274 24 24 18.6274 24 12C24 5.37258 18.6274 0 12 0C5.37258 0 0 5.37258 0 12C0 18.6274 5.37258 24 12 24Z" fill="#F0F0F0"/>
<path d="M15.8976 8.86968H14.3275C14.3405 9.04222 14.3479 9.21632 14.3479 9.3914C14.3479 10.5522 14.0577 11.6773 13.5519 12.4783C13.3958 12.7253 13.1336 13.0741 12.7826 13.3094V8.86963H11.2174V13.3094C10.8665 13.0741 10.6042 12.7253 10.4481 12.4783C9.94227 11.6773 9.65216 10.5522 9.65216 9.3914C9.65216 9.21632 9.65957 9.04218 9.67251 8.86968H8.10248C8.0924 9.04138 8.08691 9.21529 8.08691 9.3914C8.08691 12.6096 9.80573 15.1305 11.9999 15.1305C14.1942 15.1305 15.913 12.6096 15.913 9.3914C15.9131 9.21529 15.9076 9.04138 15.8976 8.86968Z" fill="#D80027"/>
<path d="M4.95648 5.73914H6.52168V6.78263H8.08688V5.73914H9.65208V6.78263H11.2173V5.73914H12.7825V6.78263H14.3477V5.73914H15.9129V6.78263H17.4781V5.73914H19.0433V6.78263H22.8091C20.8682 2.76867 16.7574 0 12 0C7.24248 0 3.13167 2.76867 1.19067 6.78263H4.95648V5.73914Z" fill="#6DA544"/>
<path d="M19.0434 17.2173V18.2608H17.4782V17.2173H15.913V18.2608H14.3478V17.2173H12.7826V18.2608H11.2174V17.2173H9.65222V18.2608H8.08702V17.2173H6.52168V18.2608H4.95647V17.2173H1.19067C3.13167 21.2312 7.24243 23.9999 12 23.9999C16.7575 23.9999 20.8682 21.2312 22.8092 17.2173H19.0434Z" fill="#D80027"/>
</g>
</svg>
