<svg width="24" height="24" viewBox="0 0 24 24" fill="none" xmlns="http://www.w3.org/2000/svg">
<mask id="mask0_1_1086" style="mask-type:luminance" maskUnits="userSpaceOnUse" x="0" y="0" width="24" height="24">
<path d="M24 0H0V24H24V0Z" fill="white"/>
</mask>
<g mask="url(#mask0_1_1086)">
<path d="M12 24C18.6274 24 24 18.6274 24 12C24 5.37258 18.6274 0 12 0C5.37258 0 0 5.37258 0 12C0 18.6274 5.37258 24 12 24Z" fill="#F0F0F0"/>
<path d="M21.5204 19.3068L14.2138 12.0002H14.2137L21.5204 4.69351C21.2053 4.28401 20.8605 3.89003 20.4855 3.51489C20.1104 3.13979 19.7164 2.79503 19.3069 2.47998L12.0002 9.78662L12.0002 9.78666L4.69354 2.47998C4.28411 2.79507 3.89007 3.13975 3.51493 3.51489C3.13979 3.89003 2.79507 4.28401 2.48003 4.69351L9.78665 12.0001L9.7867 12.0001L2.47998 19.3069C2.79512 19.7164 3.13984 20.1104 3.51489 20.4855C3.89003 20.8606 4.28396 21.2054 4.6935 21.5204L12.0002 14.2138L12.0002 14.2137L19.3069 21.5204C19.7163 21.2053 20.1104 20.8606 20.4855 20.4855C20.8606 20.1103 21.2053 19.7163 21.5204 19.3068Z" fill="#D80027"/>
<path d="M9.91309 3.65214L12.0001 4.17386L14.087 3.65214V1.87825L13.2522 2.29563L12.0001 1.04346L10.7479 2.29563L9.91309 1.87825V3.65214Z" fill="#FFDA44"/>
<path d="M9.91309 3.65234V4.95678C9.91309 6.55428 12.0001 7.04375 12.0001 7.04375C12.0001 7.04375 14.087 6.55423 14.087 4.95678V3.65234H9.91309Z" fill="#D80027"/>
</g>
</svg>
