<svg width="24" height="24" viewBox="0 0 24 24" fill="none" xmlns="http://www.w3.org/2000/svg">
<mask id="mask0_1_1069" style="mask-type:luminance" maskUnits="userSpaceOnUse" x="0" y="0" width="24" height="24">
<path d="M24 0H0V24H24V0Z" fill="white"/>
</mask>
<g mask="url(#mask0_1_1069)">
<path d="M12 24C18.6274 24 24 18.6274 24 12C24 5.37258 18.6274 0 12 0C5.37258 0 0 5.37258 0 12C0 18.6274 5.37258 24 12 24Z" fill="#FFDA44"/>
<path d="M19.3059 2.48062C17.2824 0.925266 14.7495 0 12.0001 0C9.25073 0 6.71779 0.925312 4.69434 2.48062L12.0001 9.78638L19.3059 2.48062Z" fill="#6DA544"/>
<path d="M2.48058 4.69434C0.925312 6.71779 0 9.25068 0 12.0001C0 14.7495 0.925312 17.2824 2.48062 19.3059L9.78642 12.0001L2.48058 4.69434Z" fill="black"/>
<path d="M4.69434 21.5191C6.71784 23.0745 9.25073 23.9998 12.0001 23.9998C14.7495 23.9998 17.2824 23.0744 19.3059 21.5191L12.0001 14.2134L4.69434 21.5191Z" fill="#6DA544"/>
<path d="M21.5191 19.3058C23.0745 17.2824 23.9998 14.7495 23.9998 12.0001C23.9998 9.25068 23.0745 6.71779 21.5191 4.69434L14.2134 12.0001L21.5191 19.3058Z" fill="black"/>
</g>
</svg>
