<svg width="24" height="24" viewBox="0 0 24 24" fill="none" xmlns="http://www.w3.org/2000/svg">
<mask id="mask0_1_1095" style="mask-type:luminance" maskUnits="userSpaceOnUse" x="0" y="0" width="24" height="24">
<path d="M24 0H0V24H24V0Z" fill="white"/>
</mask>
<g mask="url(#mask0_1_1095)">
<path d="M12 24C18.6274 24 24 18.6274 24 12C24 5.37258 18.6274 0 12 0C5.37258 0 0 5.37258 0 12C0 18.6274 5.37258 24 12 24Z" fill="#F0F0F0"/>
<path d="M7.30438 7.82611H23.2536C21.5581 3.2565 17.1596 0 12 0C8.68626 0 5.68658 1.34339 3.51514 3.51511L7.30438 7.82611Z" fill="black"/>
<path d="M7.30438 16.1738H23.2536C21.5581 20.7434 17.1596 23.9999 12 23.9999C8.68626 23.9999 5.68658 22.6565 3.51514 20.4848L7.30438 16.1738Z" fill="#6DA544"/>
<path d="M3.51471 3.51465C-1.17157 8.20093 -1.17157 15.7989 3.51471 20.4853C5.45126 18.5487 7.31374 16.6862 12 12L3.51471 3.51465Z" fill="#D80027"/>
<path d="M4.7628 9.39111L5.42135 10.7683L6.90864 10.4245L6.24255 11.798L7.43857 12.7465L5.94949 13.0821L5.95361 14.6085L4.7628 13.6535L3.57194 14.6085L3.57611 13.0821L2.08704 12.7465L3.283 11.798L2.617 10.4245L4.10421 10.7683L4.7628 9.39111Z" fill="#F0F0F0"/>
</g>
</svg>
