<svg width="24" height="25" viewBox="0 0 24 25" fill="none" xmlns="http://www.w3.org/2000/svg">
<mask id="mask0_1_1079" style="mask-type:luminance" maskUnits="userSpaceOnUse" x="0" y="0" width="24" height="25">
<path d="M24 0.989258H0V24.9893H24V0.989258Z" fill="white"/>
</mask>
<g mask="url(#mask0_1_1079)">
<path d="M12 24.9892C18.6274 24.9892 24 19.6167 24 12.9892C24 6.36182 18.6274 0.989258 12 0.989258C5.37258 0.989258 0 6.36182 0 12.9892C0 19.6167 5.37258 24.9892 12 24.9892Z" fill="#F0F0F0"/>
<path d="M12.0001 18.2067C14.8816 18.2067 17.2175 15.8708 17.2175 12.9893C17.2175 10.1079 14.8816 7.77197 12.0001 7.77197C9.11864 7.77197 6.78271 10.1079 6.78271 12.9893C6.78271 15.8708 9.11864 18.2067 12.0001 18.2067Z" fill="#D80027"/>
</g>
</svg>
