<svg width="24" height="24" viewBox="0 0 24 24" fill="none" xmlns="http://www.w3.org/2000/svg">
<mask id="mask0_1_1114" style="mask-type:luminance" maskUnits="userSpaceOnUse" x="0" y="0" width="24" height="24">
<path d="M24 0H0V24H24V0Z" fill="white"/>
</mask>
<g mask="url(#mask0_1_1114)">
<path d="M12 24C18.6274 24 24 18.6274 24 12C24 5.37258 18.6274 0 12 0C5.37258 0 0 5.37258 0 12C0 18.6274 5.37258 24 12 24Z" fill="#F0F0F0"/>
<path d="M11.9999 0C7.24241 0 3.13167 2.76867 1.19067 6.78262H22.8092C20.8682 2.76867 16.7574 0 11.9999 0Z" fill="black"/>
<path d="M11.9999 23.9999C7.24241 23.9999 3.13167 21.2312 1.19067 17.2173H22.8092C20.8682 21.2312 16.7574 23.9999 11.9999 23.9999Z" fill="#496E2D"/>
<path d="M23.4333 8.34766H0.566672C0.199078 9.49933 0 10.7263 0 11.9998C0 13.2734 0.199078 14.5003 0.566672 15.652H23.4333C23.8009 14.5003 24 13.2734 24 11.9998C24 10.7263 23.8009 9.49933 23.4333 8.34766Z" fill="#A2001D"/>
<path d="M15.7367 5.54557L14.3156 4.88965L12.0001 10.1327L9.68454 4.88965L8.26343 5.54557L11.1382 12.0002L8.26343 18.4549L9.68454 19.1108L12.0001 13.8678L14.3156 19.1108L15.7367 18.4549L12.862 12.0002L15.7367 5.54557Z" fill="#F0F0F0"/>
<path d="M12.9653 6.16346C12.4152 5.56266 12.0001 5.21729 12.0001 5.21729C12.0001 5.21729 11.585 5.56261 11.0349 6.16346V17.8363C11.585 18.4372 12.0001 18.7825 12.0001 18.7825C12.0001 18.7825 12.4152 18.4372 12.9653 17.8363V6.16346Z" fill="#F0F0F0"/>
<path d="M9.39136 8.4019V15.5978C9.9727 16.6279 10.6842 17.4722 11.2175 18.0319V5.96777C10.6842 6.52751 9.97265 7.37187 9.39136 8.4019Z" fill="#A2001D"/>
<path d="M14.6086 8.4019C14.0272 7.37182 13.3157 6.52751 12.7825 5.96777V18.0319C13.3157 17.4722 14.0272 16.6279 14.6086 15.5978V8.4019Z" fill="#A2001D"/>
<path d="M14.6086 8.40186V15.5977C15.1972 14.5548 15.6521 13.3216 15.6521 11.9998C15.6521 10.6781 15.1972 9.44482 14.6086 8.40186Z" fill="black"/>
<path d="M9.39138 8.40186V15.5977C8.80287 14.5548 8.3479 13.3216 8.3479 11.9998C8.3479 10.6781 8.80287 9.44482 9.39138 8.40186Z" fill="black"/>
</g>
</svg>
