<svg width="24" height="24" viewBox="0 0 24 24" fill="none" xmlns="http://www.w3.org/2000/svg">
<mask id="mask0_1_1151" style="mask-type:luminance" maskUnits="userSpaceOnUse" x="0" y="0" width="24" height="24">
<path d="M24 0H0V24H24V0Z" fill="white"/>
</mask>
<g mask="url(#mask0_1_1151)">
<path d="M12 24C18.6274 24 24 18.6274 24 12C24 5.37258 18.6274 0 12 0C5.37258 0 0 5.37258 0 12C0 18.6274 5.37258 24 12 24Z" fill="#D80027"/>
<path d="M17.8686 12.0001L15.4707 13.128L16.7476 15.4505L14.1436 14.9523L13.8137 17.5827L11.9999 15.6482L10.1862 17.5827L9.85627 14.9523L7.25246 15.4504L8.52933 13.1279L6.13135 12.0001L8.52933 10.8722L7.25246 8.54968L9.85618 9.04796L10.1863 6.41748L11.9999 8.35206L13.8138 6.41748L14.1436 9.04796L16.7477 8.54968L15.4707 10.8724L17.8686 12.0001Z" fill="#FFDA44"/>
<path d="M12.0001 15.652C14.0171 15.652 15.6522 14.0169 15.6522 11.9998C15.6522 9.9828 14.0171 8.34766 12.0001 8.34766C9.98304 8.34766 8.3479 9.9828 8.3479 11.9998C8.3479 14.0169 9.98304 15.652 12.0001 15.652Z" fill="#D80027"/>
<path d="M10.1739 12C10.0859 12 9.99906 12.0045 9.91333 12.013C9.91647 12.5189 10.0995 12.9818 10.4017 13.3415C10.563 12.9076 10.8037 12.5119 11.1073 12.1733C10.8174 12.0618 10.5028 12 10.1739 12Z" fill="#FFDA44"/>
<path d="M11.2981 13.9656C11.5175 14.044 11.7537 14.0869 12 14.0869C12.2464 14.0869 12.4826 14.044 12.702 13.9656C12.5824 13.4963 12.3355 13.0773 12 12.748C11.6646 13.0772 11.4177 13.4963 11.2981 13.9656Z" fill="#FFDA44"/>
<path d="M13.8074 10.9569C13.4466 10.3332 12.7726 9.91309 12.0001 9.91309C11.2276 9.91309 10.5537 10.3331 10.1929 10.9569C10.8507 10.9602 11.4676 11.1391 12.0001 11.448C12.5327 11.1391 13.1495 10.9602 13.8074 10.9569Z" fill="#FFDA44"/>
<path d="M12.8926 12.1733C13.1962 12.5119 13.4369 12.9075 13.5982 13.3415C13.9004 12.9818 14.0834 12.5189 14.0866 12.013C14.0008 12.0045 13.9139 12 13.826 12C13.4972 12 13.1826 12.0617 12.8926 12.1733Z" fill="#FFDA44"/>
</g>
</svg>
