<svg width="24" height="24" viewBox="0 0 24 24" fill="none" xmlns="http://www.w3.org/2000/svg">
<mask id="mask0_1_366" style="mask-type:luminance" maskUnits="userSpaceOnUse" x="0" y="0" width="24" height="24">
<path d="M24 0H0V24H24V0Z" fill="white"/>
</mask>
<g mask="url(#mask0_1_366)">
<path d="M0 12C0 14.0789 0.528891 16.0343 1.45908 17.7392L12 18.7827L22.5409 17.7392C23.4711 16.0343 24 14.0789 24 12C24 9.92113 23.4711 7.96578 22.5409 6.26089L12 5.21741L1.45908 6.26089C0.528891 7.96578 0 9.92113 0 12Z" fill="#D80027"/>
<path d="M1.45898 6.26086H22.5408C20.5056 2.53073 16.5484 0 11.9999 0C7.45139 0 3.49425 2.53073 1.45898 6.26086Z" fill="#0052B4"/>
<path d="M11.9999 24C16.5484 24 20.5056 21.4693 22.5408 17.7391H1.45898C3.49425 21.4693 7.45139 24 11.9999 24Z" fill="#0052B4"/>
<path d="M16.174 14.3478V12.7826H15.1305V10.6956L14.0871 9.65215L13.0436 10.6956V8.60867L12.0001 7.56519L10.9566 8.60867V10.6956L9.91312 9.65215L8.86964 10.6956V12.7826H7.8262V14.3478H6.78271V15.913H17.2175V14.3478H16.174Z" fill="#F0F0F0"/>
</g>
</svg>
