<svg width="24" height="24" viewBox="0 0 24 24" fill="none" xmlns="http://www.w3.org/2000/svg">
<mask id="mask0_1_487" style="mask-type:luminance" maskUnits="userSpaceOnUse" x="0" y="0" width="24" height="24">
<path d="M24 0H0V24H24V0Z" fill="white"/>
</mask>
<g mask="url(#mask0_1_487)">
<path d="M12 24C18.6274 24 24 18.6274 24 12C24 5.37258 18.6274 0 12 0C5.37258 0 0 5.37258 0 12C0 18.6274 5.37258 24 12 24Z" fill="#F0F0F0"/>
<path d="M23.9996 11.9652H10.9913C8.40867 14.5479 6.84688 16.5419 5.2522 18.1365L12.0348 18.7478L22.5599 17.7043C23.4784 16.0077 24 14.0647 24 11.9999C24 11.9883 23.9996 11.9768 23.9996 11.9652Z" fill="#D80027"/>
<path d="M5.25222 6.22612H22.5215C20.4807 2.51513 16.5343 0 12 0C8.69509 0 5.70278 1.33645 3.53271 3.498L5.25222 6.22612Z" fill="#FFDA44"/>
<path d="M5.774 17.7043C4.69522 18.7831 4.27832 19.687 3.4978 20.4674C5.67068 22.6493 8.67748 24 12.0001 24C16.5627 24 20.5304 21.4535 22.5599 17.7043H5.774Z" fill="#0052B4"/>
<path d="M3.51471 3.47998C-1.17157 8.16626 -1.17157 15.7643 3.51471 20.4506C5.45128 18.5141 7.31377 16.6516 12 11.9653L3.51471 3.47998Z" fill="#6DA544"/>
<path d="M3.16535 11.9653C3.16535 10.2169 4.39408 8.75636 6.0349 8.39805C5.78272 8.34297 5.52106 8.31311 5.25228 8.31311C3.23519 8.31311 1.6001 9.9482 1.6001 11.9653C1.6001 13.9824 3.23519 15.6175 5.25228 15.6175C5.52101 15.6175 5.78267 15.5876 6.0349 15.5325C4.39408 15.1742 3.16535 13.7136 3.16535 11.9653Z" fill="#F0F0F0"/>
<path d="M5.99452 8.83484L6.18882 9.43268H6.81741L6.30882 9.8022L6.50312 10.4L5.99452 10.0306L5.48593 10.4L5.68022 9.8022L5.17163 9.43268H5.80022L5.99452 8.83484Z" fill="#F0F0F0"/>
<path d="M5.99452 10.4L6.18882 10.9979H6.81741L6.30882 11.3674L6.50312 11.9653L5.99452 11.5958L5.48593 11.9653L5.68022 11.3674L5.17163 10.9979H5.80022L5.99452 10.4Z" fill="#F0F0F0"/>
<path d="M5.99452 11.9652L6.18882 12.5631H6.81741L6.30882 12.9326L6.50312 13.5304L5.99452 13.1609L5.48593 13.5304L5.68022 12.9326L5.17163 12.5631H5.80022L5.99452 11.9652Z" fill="#F0F0F0"/>
<path d="M5.99452 13.5305L6.18882 14.1284H6.81741L6.30882 14.4979L6.50312 15.0957L5.99452 14.7263L5.48593 15.0957L5.68022 14.4979L5.17163 14.1284H5.80022L5.99452 13.5305Z" fill="#F0F0F0"/>
</g>
</svg>
