<svg width="25" height="25" viewBox="0 0 25 25" fill="none" xmlns="http://www.w3.org/2000/svg">
<path d="M1.89751 18.5195C5.21068 24.2581 12.5485 26.2242 18.2871 22.9111C24.0256 19.5979 25.9918 12.2601 22.6786 6.5215C19.3655 0.782958 12.0277 -1.18322 6.2891 2.12994C0.550535 5.44309 -1.41564 12.7809 1.89751 18.5195Z" fill="#C8102E"/>
<path d="M22.6786 6.5215C19.3655 0.782958 12.0277 -1.18322 6.2891 2.12994C0.550535 5.44309 -1.41564 12.7809 1.89751 18.5195L22.6786 6.5215Z" fill="#009739"/>
<path d="M0.289802 12.3292L18.1213 2.03418C19.9586 3.0539 21.5515 4.56956 22.6786 6.52183C23.8058 8.47408 24.3219 10.6114 24.2864 12.7124L6.45491 23.0075C4.61759 21.9877 3.02465 20.4721 1.89751 18.5198C0.770383 16.5676 0.254254 14.4302 0.289802 12.3292Z" fill="#FFCD00"/>
<path d="M0.36084 13.8493L19.4027 2.85547C20.6986 3.80837 21.8228 5.0389 22.6786 6.52111C23.5343 8.00328 24.0379 9.59218 24.2152 11.1909L5.17326 22.1847C3.87744 21.2318 2.7532 20.0013 1.89745 18.5191C1.04171 17.0369 0.538158 15.448 0.36084 13.8493Z" fill="black"/>
<path d="M11.0992 16.2835L5.58008 15.6459L10.396 12.8989L8.12276 17.9809L6.98511 12.5049L11.0992 16.2835Z" fill="white"/>
<path d="M19.0665 11.6839L13.5474 11.0463L18.3632 8.29933L16.09 13.3813L14.9524 7.90527L19.0665 11.6839Z" fill="white"/>
</svg>
