<svg width="25" height="24" viewBox="0 0 25 24" fill="none" xmlns="http://www.w3.org/2000/svg">
<mask id="mask0_1_1588" style="mask-type:luminance" maskUnits="userSpaceOnUse" x="0" y="0" width="25" height="24">
<path d="M24.9883 0H0.988281V24H24.9883V0Z" fill="white"/>
</mask>
<g mask="url(#mask0_1_1588)">
<path d="M12.9883 24C19.6157 24 24.9883 18.6274 24.9883 12C24.9883 5.37258 19.6157 0 12.9883 0C6.36085 0 0.988281 5.37258 0.988281 12C0.988281 18.6274 6.36085 24 12.9883 24Z" fill="#F0F0F0"/>
<path d="M12.9882 0C9.35112 0 6.09223 1.61831 3.8916 4.17389H22.0848C19.8842 1.61831 16.6253 0 12.9882 0Z" fill="#0052B4"/>
<path d="M22.0848 19.8262H3.8916C6.09223 22.3818 9.35112 24.0001 12.9882 24.0001C16.6253 24.0001 19.8842 22.3818 22.0848 19.8262Z" fill="#0052B4"/>
<path d="M23.227 5.73926H2.74956C1.63258 7.56199 0.988281 9.70573 0.988281 12.0001C0.988281 14.2945 1.63258 16.4383 2.74956 18.261H23.227C24.344 16.4383 24.9883 14.2945 24.9883 12.0001C24.9883 9.70573 24.344 7.56199 23.227 5.73926Z" fill="#D80027"/>
<path d="M8.37078 16.6176C10.9209 16.6176 12.9882 14.5503 12.9882 12.0002C12.9882 9.45009 10.9209 7.38281 8.37078 7.38281C5.82069 7.38281 3.75342 9.45009 3.75342 12.0002C3.75342 14.5503 5.82069 16.6176 8.37078 16.6176Z" fill="#F0F0F0"/>
<path d="M8.37106 7.38281L9.40705 10.5713H12.7651L10.0474 12.542L11.0915 15.74L8.37106 13.7599L5.65475 15.7363L6.69472 12.542L3.97949 10.5713H7.33503L8.37106 7.38281Z" fill="#D80027"/>
</g>
</svg>
