<svg width="24" height="24" viewBox="0 0 24 24" fill="none" xmlns="http://www.w3.org/2000/svg">
<mask id="mask0_1_1924" style="mask-type:luminance" maskUnits="userSpaceOnUse" x="0" y="0" width="24" height="24">
<path d="M24 0H0V24H24V0Z" fill="white"/>
</mask>
<g mask="url(#mask0_1_1924)">
<path d="M12 24C18.6274 24 24 18.6274 24 12C24 5.37258 18.6274 0 12 0C5.37258 0 0 5.37258 0 12C0 18.6274 5.37258 24 12 24Z" fill="#F0F0F0"/>
<path d="M16.174 12.0001C16.174 13.0435 14.3052 15.6522 12.0001 15.6522C9.69489 15.6522 7.82617 13.0435 7.82617 12.0001C7.82617 9.69484 9.69489 7.82617 12.0001 7.82617C14.3052 7.82617 16.174 9.69484 16.174 12.0001Z" fill="#D80027"/>
<path d="M16.174 12C16.174 14.3052 14.3052 16.1739 12.0001 16.1739C9.69489 16.1739 7.82617 14.3052 7.82617 12" fill="#0052B4"/>
<path d="M16.4238 15.6896L17.5304 14.583L18.2682 15.3208L17.1615 16.4274L16.4238 15.6896Z" fill="black"/>
<path d="M14.579 17.5333L15.6856 16.4268L16.4233 17.1645L15.3167 18.2711L14.579 17.5333Z" fill="black"/>
<path d="M18.6372 17.9025L19.7438 16.7959L20.4816 17.5337L19.375 18.6402L18.6372 17.9025Z" fill="black"/>
<path d="M16.7924 19.7472L17.8989 18.6406L18.6367 19.3783L17.5301 20.485L16.7924 19.7472Z" fill="black"/>
<path d="M17.5304 16.796L18.637 15.6895L19.3747 16.4272L18.2681 17.5338L17.5304 16.796Z" fill="black"/>
<path d="M15.686 18.6408L16.7927 17.5342L17.5304 18.2719L16.4238 19.3785L15.686 18.6408Z" fill="black"/>
<path d="M18.6421 8.3127L15.6912 5.36177L16.4289 4.62402L19.3799 7.57498L18.6421 8.3127Z" fill="black"/>
<path d="M15.6906 7.57477L14.584 6.46819L15.3217 5.73047L16.4283 6.83705L15.6906 7.57477Z" fill="black"/>
<path d="M17.5349 9.41949L16.4283 8.31287L17.1661 7.5752L18.2726 8.68177L17.5349 9.41949Z" fill="black"/>
<path d="M17.9036 5.36193L16.797 4.25533L17.5348 3.51758L18.6413 4.62418L17.9036 5.36193Z" fill="black"/>
<path d="M19.7489 7.20665L18.6423 6.10007L19.3801 5.3623L20.4867 6.46893L19.7489 7.20665Z" fill="black"/>
<path d="M4.2541 16.7939L7.20505 19.7449L6.46728 20.4826L3.51636 17.5317L4.2541 16.7939Z" fill="black"/>
<path d="M7.20488 17.5312L8.31146 18.6378L7.57374 19.3755L6.46716 18.269L7.20488 17.5312Z" fill="black"/>
<path d="M5.36042 15.6875L6.46704 16.7941L5.72928 17.5318L4.62268 16.4253L5.36042 15.6875Z" fill="black"/>
<path d="M6.46709 14.5801L9.41806 17.531L8.68029 18.2688L5.72937 15.3178L6.46709 14.5801Z" fill="black"/>
<path d="M7.20466 4.25239L4.25373 7.20333L3.51599 6.46557L6.46695 3.51465L7.20466 4.25239Z" fill="black"/>
<path d="M8.31137 5.35886L5.3604 8.30978L4.62268 7.57202L7.57361 4.62109L8.31137 5.35886Z" fill="black"/>
<path d="M9.41903 6.46619L6.46807 9.41716L5.73035 8.67944L8.68132 5.72852L9.41903 6.46619Z" fill="black"/>
</g>
</svg>
