<svg width="24" height="24" viewBox="0 0 24 24" fill="none" xmlns="http://www.w3.org/2000/svg">
<mask id="mask0_1_1142" style="mask-type:luminance" maskUnits="userSpaceOnUse" x="0" y="0" width="24" height="24">
<path d="M24 0H0V24H24V0Z" fill="white"/>
</mask>
<g mask="url(#mask0_1_1142)">
<path d="M23.2536 16.174C23.736 14.874 24 13.4679 24 12.0001C24 10.5322 23.736 9.12618 23.2536 7.8262L12 6.78271L0.746391 7.8262C0.264047 9.12618 0 10.5322 0 12.0001C0 13.4679 0.264047 14.874 0.746391 16.174L12 17.2175L23.2536 16.174Z" fill="#F0F0F0"/>
<path d="M12 23.9999C17.1595 23.9999 21.5581 20.7434 23.2536 16.1738H0.746338C2.4419 20.7434 6.84037 23.9999 12 23.9999Z" fill="#D80027"/>
<path d="M12 0C6.84037 0 2.4419 3.2565 0.746338 7.82611H23.2536C21.5581 3.2565 17.1595 0 12 0Z" fill="#6DA544"/>
<path d="M3.51471 3.51465C-1.17157 8.20093 -1.17157 15.7989 3.51471 20.4853C4.73794 19.2621 5.93184 18.0682 7.82611 16.1739V7.82607L3.51471 3.51465Z" fill="black"/>
</g>
</svg>
