<svg width="24" height="24" viewBox="0 0 24 24" fill="none" xmlns="http://www.w3.org/2000/svg">
<mask id="mask0_1_412" style="mask-type:luminance" maskUnits="userSpaceOnUse" x="0" y="0" width="24" height="24">
<path d="M24 0H0V24H24V0Z" fill="white"/>
</mask>
<g mask="url(#mask0_1_412)">
<path d="M24 12C24 18.6274 18.6274 24 12 24C5.37262 24 0 18.6274 0 12C0 12.0029 12 0.0013125 12 0C18.6274 0 24 5.37262 24 12Z" fill="#0052B4"/>
<path d="M11.9678 12H11.9999C11.9999 11.9892 11.9999 11.9787 11.9999 11.9679C11.9892 11.9786 11.9785 11.9893 11.9678 12Z" fill="#F0F0F0"/>
<path d="M12 6.26086C12 4.14938 12 2.76586 12 0H11.998C5.37145 0.001125 0 5.37323 0 12H6.26086V8.47448L9.78638 12H11.9679C11.9786 11.9893 11.9893 11.9786 12 11.9679C12 11.1594 12 10.4381 12 9.78647L8.47444 6.26086H12Z" fill="#F0F0F0"/>
<path d="M17.2173 8.86962C18.3699 8.86962 19.3043 7.93526 19.3043 6.78265C19.3043 5.63004 18.3699 4.69568 17.2173 4.69568C16.0647 4.69568 15.1304 5.63004 15.1304 6.78265C15.1304 7.93526 16.0647 8.86962 17.2173 8.86962Z" fill="#6DA544"/>
<path d="M6.07126 1.56519C4.19441 2.63389 2.63409 4.19417 1.56543 6.07099V12H4.6959V4.69573V4.69563H12.0002C12.0002 3.70831 12.0002 2.76772 12.0002 1.56519H6.07126Z" fill="#D80027"/>
<path d="M11.9999 10.5243L7.73637 6.26086H6.26074V6.26096L11.9998 12H11.9999C11.9999 12 11.9999 10.9824 11.9999 10.5243Z" fill="#D80027"/>
<path d="M13.5654 6.26086H20.8698V9.39132H13.5654V6.26086Z" fill="#D80027"/>
<path d="M13.5654 14.087V16.174H14.6634C15.3218 16.8192 16.223 17.2175 17.2176 17.2175C18.2122 17.2175 19.1134 16.8192 19.7718 16.174H19.8263H20.8698V14.087H13.5654Z" fill="#FFDA44"/>
<path d="M13.5654 8.86951V12C13.5654 14.7955 17.2176 15.6521 17.2176 15.6521C17.2176 15.6521 20.8698 14.7955 20.8698 12V8.86951H13.5654Z" fill="#338AF3"/>
<path d="M17.2174 10.5416C16.3044 10.5416 16.3044 11.3764 15.3914 11.3764C14.4784 11.3764 14.4784 10.5416 13.5654 10.5416V12.0025C14.4784 12.0025 14.4784 12.8373 15.3914 12.8373C16.3044 12.8373 16.3044 12.0025 17.2174 12.0025C18.1304 12.0025 18.1304 12.8373 19.0436 12.8373C19.9567 12.8373 19.9566 12.0025 20.8698 12.0025V10.5416C19.9567 10.5416 19.9567 11.3764 19.0436 11.3764C18.1304 11.3764 18.1304 10.5416 17.2174 10.5416Z" fill="#F3F3F3"/>
<path d="M17.2174 7.61743C16.3044 7.61743 16.3044 8.45223 15.3914 8.45223C14.4784 8.45223 14.4784 7.61743 13.5654 7.61743V9.07829C14.4784 9.07829 14.4784 9.91309 15.3914 9.91309C16.3044 9.91309 16.3044 9.07829 17.2174 9.07829C18.1304 9.07829 18.1304 9.91309 19.0436 9.91309C19.9567 9.91309 19.9566 9.07829 20.8698 9.07829V7.61743C19.9567 7.61743 19.9567 8.45223 19.0436 8.45223C18.1304 8.45223 18.1304 7.61743 17.2174 7.61743Z" fill="#F3F3F3"/>
</g>
</svg>
