<svg width="24" height="24" viewBox="0 0 24 24" fill="none" xmlns="http://www.w3.org/2000/svg">
<mask id="mask0_1_1105" style="mask-type:luminance" maskUnits="userSpaceOnUse" x="0" y="0" width="24" height="24">
<path d="M24 0H0V24H24V0Z" fill="white"/>
</mask>
<g mask="url(#mask0_1_1105)">
<path d="M12 24C18.6274 24 24 18.6274 24 12C24 5.37258 18.6274 0 12 0C5.37258 0 0 5.37258 0 12C0 18.6274 5.37258 24 12 24Z" fill="#338AF3"/>
<path d="M18.7827 12.1304H5.21741C5.21741 13.0669 6.03308 13.826 6.9695 13.826H6.91306C6.91306 14.7625 7.6722 15.5217 8.60872 15.5217C8.60872 16.4582 9.36786 17.2173 10.3044 17.2173H13.6957C14.6322 17.2173 15.3913 16.4582 15.3913 15.5217C16.3279 15.5217 17.087 14.7625 17.087 13.826H17.0306C17.9669 13.826 18.7827 13.0669 18.7827 12.1304Z" fill="#FFDA44"/>
<path d="M16.6956 9.91309C16.6956 12.5064 14.5933 14.6087 12 14.6087C9.40662 14.6087 7.30432 12.5064 7.30432 9.91309" fill="#338AF3"/>
<path d="M15.5866 9.91287L14.1211 10.6023L14.9015 12.0216L13.3101 11.7172L13.1084 13.3248L12 12.1424L10.8915 13.3248L10.6899 11.7172L9.09845 12.0215L9.87883 10.6022L8.41333 9.91287L9.87888 9.22352L9.09845 7.8042L10.6898 8.1086L10.8915 6.50098L12 7.6834L13.1085 6.50098L13.3101 8.1086L14.9015 7.8042L14.1211 9.22357L15.5866 9.91287Z" fill="#FFDA44"/>
</g>
</svg>
