<svg width="24" height="24" viewBox="0 0 24 24" fill="none" xmlns="http://www.w3.org/2000/svg">
<mask id="mask0_1_1163" style="mask-type:luminance" maskUnits="userSpaceOnUse" x="0" y="0" width="24" height="24">
<path d="M24 0H0V24H24V0Z" fill="white"/>
</mask>
<g mask="url(#mask0_1_1163)">
<path d="M22.8095 6.78262C20.8685 2.76867 16.7577 0 12.0002 0C7.24265 0 3.13192 2.76867 1.19092 6.78262L12.0002 7.82611L22.8095 6.78262Z" fill="#D80027"/>
<path d="M1.19092 17.2173C3.13192 21.2313 7.24265 23.9999 12.0002 23.9999C16.7577 23.9999 20.8685 21.2313 22.8095 17.2173L12.0002 16.1738L1.19092 17.2173Z" fill="#D80027"/>
<path d="M22.8093 6.78271H1.19072C0.427875 8.36029 0 10.1302 0 12.0001C0 13.87 0.427875 15.6399 1.19072 17.2175H22.8092C23.5722 15.6399 24 13.87 24 12.0001C24 10.1302 23.5722 8.36029 22.8093 6.78271Z" fill="#0052B4"/>
<path d="M12.0001 16.174C14.3052 16.174 16.174 14.3052 16.174 12.0001C16.174 9.69489 14.3052 7.82617 12.0001 7.82617C9.69489 7.82617 7.82617 9.69489 7.82617 12.0001C7.82617 14.3052 9.69489 16.174 12.0001 16.174Z" fill="#F0F0F0"/>
</g>
</svg>
