<svg width="24" height="24" viewBox="0 0 24 24" fill="none" xmlns="http://www.w3.org/2000/svg">
<mask id="mask0_1_1180" style="mask-type:luminance" maskUnits="userSpaceOnUse" x="0" y="0" width="24" height="24">
<path d="M24 0H0V24H24V0Z" fill="white"/>
</mask>
<g mask="url(#mask0_1_1180)">
<path d="M12 24C18.6274 24 24 18.6274 24 12C24 5.37258 18.6274 0 12 0C5.37258 0 0 5.37258 0 12C0 18.6274 5.37258 24 12 24Z" fill="#F0F0F0"/>
<path d="M12.0002 0C7.24265 0 3.13192 2.76867 1.19092 6.78262H22.8094C20.8685 2.76867 16.7577 0 12.0002 0Z" fill="#D80027"/>
<path d="M12.0002 23.9999C16.7577 23.9999 20.8685 21.2312 22.8095 17.2173H1.19092C3.13192 21.2312 7.24265 23.9999 12.0002 23.9999Z" fill="#D80027"/>
<path d="M15.1305 14.0868L12.0001 8.34766L8.86963 14.0868H11.2175V15.652H12.7827V14.0868H15.1305Z" fill="#6DA544"/>
</g>
</svg>
