<svg width="24" height="24" viewBox="0 0 24 24" fill="none" xmlns="http://www.w3.org/2000/svg">
<mask id="mask0_1_1969" style="mask-type:luminance" maskUnits="userSpaceOnUse" x="0" y="0" width="24" height="24">
<path d="M24 0H0V24H24V0Z" fill="white"/>
</mask>
<g mask="url(#mask0_1_1969)">
<path d="M12 24C18.6274 24 24 18.6274 24 12C24 5.37259 18.6274 0 12 0C5.37259 0 0 5.37259 0 12C0 18.6274 5.37259 24 12 24Z" fill="#FFDA44"/>
<path d="M9.39148 2.08691H5.23671C5.05259 2.21277 4.8724 2.34379 4.69582 2.4794L3.65234 11.9999L4.69582 21.5204C4.8724 21.6561 5.05259 21.7871 5.23671 21.9129H9.39148V2.08691Z" fill="#FF9811"/>
<path d="M0 12C0 15.8787 1.84069 19.3269 4.69566 21.5205V2.47949C1.84069 4.67315 0 8.12137 0 12Z" fill="#6DA544"/>
<path d="M19.3044 7.31543V7.61566L19.3156 7.61735L19.3044 7.31543Z" fill="#FFDA44"/>
<path d="M23.0435 15.1304H20.7826L19.8261 16.1738V18.2608H17.7391V17.2173H18.7826V15.1304H14.0869V16.4347H13.0435V13.9489C12.7233 13.6623 12.5217 13.246 12.5217 12.7825V5.99994C12.5217 5.13552 13.2225 4.43474 14.0869 4.43474V14.0869H16.1739L16.89 13.4901C16.7649 13.1923 16.6956 12.8651 16.6956 12.5217V10.9565H15.1304V7.8261H18.2608C18.2608 7.30438 19.0435 6.78262 19.0435 6.78262C19.0435 6.78262 19.8261 7.30434 19.8261 7.8261V8.60873V10.9566C20.4065 10.9634 21.3288 10.9484 22.3251 10.9566C22.0633 10.4991 21.913 9.95619 21.913 9.39135C21.913 8.47068 22.3105 7.64296 22.9432 7.07015C22.0312 5.04913 20.5759 3.32591 18.7634 2.08691H10.9565V21.913H18.7635C20.9675 20.4064 22.6432 18.184 23.4562 15.5806L23.0435 15.1304Z" fill="#A2001D"/>
</g>
</svg>
