<svg width="24" height="24" viewBox="0 0 24 24" fill="none" xmlns="http://www.w3.org/2000/svg">
<mask id="mask0_1_1198" style="mask-type:luminance" maskUnits="userSpaceOnUse" x="0" y="0" width="24" height="24">
<path d="M24 0H0V24H24V0Z" fill="white"/>
</mask>
<g mask="url(#mask0_1_1198)">
<path d="M12 24C18.6274 24 24 18.6274 24 12C24 5.37258 18.6274 0 12 0C5.37258 0 0 5.37258 0 12C0 18.6274 5.37258 24 12 24Z" fill="#F0F0F0"/>
<path d="M2.74292 4.36344H21.257C20.5732 3.53539 19.7801 2.80109 18.9003 2.18164H5.09965C4.21986 2.801 3.42678 3.53534 2.74292 4.36344Z" fill="#F0F0F0"/>
<path d="M0 12.0001C0 12.3679 0.0174844 12.7315 0.049875 13.091H23.9501C23.9825 12.7315 24 12.3679 24 12.0001C24 11.6322 23.9825 11.2686 23.9501 10.9092H0.049875C0.0174844 11.2686 0 11.6322 0 12.0001Z" fill="#F0F0F0"/>
<path d="M1.30859 17.4547H22.6915C23.0448 16.7635 23.333 16.0336 23.5481 15.2729H0.451904C0.667012 16.0336 0.955293 16.7635 1.30859 17.4547Z" fill="#F0F0F0"/>
<path d="M5.09965 21.818H18.9003C19.7801 21.1986 20.5732 20.4643 21.257 19.6362H2.74292C3.42678 20.4642 4.21986 21.1986 5.09965 21.818Z" fill="#F0F0F0"/>
<path d="M0.451782 8.72721H23.5481C23.333 7.96652 23.0447 7.23658 22.6914 6.54541H1.30852C0.955222 7.23658 0.66694 7.96652 0.451782 8.72721Z" fill="#F0F0F0"/>
<path d="M5.73914 2.1818H18.9003C16.9484 0.807516 14.5686 0 12 0C10.4348 0 7.69101 0.807516 5.73914 2.1818Z" fill="#D80027"/>
<path d="M11.4783 6.54558H22.6914C22.2924 5.76497 21.8104 5.03376 21.2571 4.36377H11.4783V6.54558Z" fill="#D80027"/>
<path d="M11.4783 10.9093H23.9501C23.8826 10.1602 23.747 9.43062 23.5482 8.72754H11.4783V10.9093Z" fill="#D80027"/>
<path d="M0.451927 15.2726H23.5482C23.747 14.5696 23.8827 13.84 23.9502 13.0908H0.0499268C0.117427 13.84 0.253083 14.5695 0.451927 15.2726Z" fill="#D80027"/>
<path d="M2.74297 19.6364H21.2571C21.8105 18.9663 22.2924 18.2352 22.6915 17.4546H1.30859C1.70764 18.2352 2.18961 18.9664 2.74297 19.6364Z" fill="#D80027"/>
<path d="M11.9999 24.0002C14.5685 24.0002 16.9484 23.1926 18.9003 21.8184H5.09961C7.05148 23.1926 9.43133 24.0002 11.9999 24.0002Z" fill="#D80027"/>
<path d="M0.45188 8.72728C0.253036 9.43041 0.117427 10.1599 0.0499268 10.9091H12.0001V0C6.50724 0 1.87651 3.69056 0.45188 8.72728Z" fill="#0052B4"/>
<path d="M7.1432 3.13037L7.92016 5.52169H10.4348L8.40053 6.99975L9.17744 9.39122L7.1432 7.91325L5.10888 9.39122L5.88597 6.99975L3.85168 5.52169H6.3662L7.1432 3.13037Z" fill="#F0F0F0"/>
</g>
</svg>
