<svg width="24" height="24" viewBox="0 0 24 24" fill="none" xmlns="http://www.w3.org/2000/svg">
<mask id="mask0_1_1235" style="mask-type:luminance" maskUnits="userSpaceOnUse" x="0" y="0" width="24" height="24">
<path d="M24 0H0V24H24V0Z" fill="white"/>
</mask>
<g mask="url(#mask0_1_1235)">
<path d="M23.2536 16.174C23.736 14.874 24 13.4679 24 12.0001C24 10.5322 23.736 9.12614 23.2536 7.8262L12 6.78271L0.746391 7.8262C0.264 9.12614 0 10.5322 0 12.0001C0 13.4679 0.264 14.874 0.746391 16.174L12 17.2175L23.2536 16.174Z" fill="#6DA544"/>
<path d="M23.2536 7.82611C21.558 3.2565 17.1595 0 11.9999 0C6.84036 0 2.44185 3.2565 0.746338 7.82611H23.2536Z" fill="#FFDA44"/>
<path d="M11.9999 23.9999C17.1595 23.9999 21.558 20.7434 23.2536 16.1738H0.746338C2.44185 20.7434 6.84036 23.9999 11.9999 23.9999Z" fill="#D80027"/>
</g>
</svg>
