<svg width="24" height="25" viewBox="0 0 24 25" fill="none" xmlns="http://www.w3.org/2000/svg">
<mask id="mask0_1_1172" style="mask-type:luminance" maskUnits="userSpaceOnUse" x="0" y="0" width="24" height="25">
<path d="M24 0.989258H0V24.9893H24V0.989258Z" fill="white"/>
</mask>
<g mask="url(#mask0_1_1172)">
<path d="M12 24.9892C18.6274 24.9892 24 19.6167 24 12.9892C24 6.36182 18.6274 0.989258 12 0.989258C5.37258 0.989258 0 6.36182 0 12.9892C0 19.6167 5.37258 24.9892 12 24.9892Z" fill="#F0F0F0"/>
<path d="M12.0002 0.989258C6.45584 0.989258 1.79057 4.74962 0.413574 9.85879H23.5868C22.2098 4.74962 17.5445 0.989258 12.0002 0.989258Z" fill="#A2001D"/>
<path d="M12.0002 24.9892C17.5445 24.9892 22.2098 21.2288 23.5868 16.1196H0.413574C1.79057 21.2288 6.45584 24.9892 12.0002 24.9892Z" fill="#A2001D"/>
</g>
</svg>
