<svg width="24" height="24" viewBox="0 0 24 24" fill="none" xmlns="http://www.w3.org/2000/svg">
<mask id="mask0_1_1217" style="mask-type:luminance" maskUnits="userSpaceOnUse" x="0" y="0" width="24" height="24">
<path d="M24 0H0V24H24V0Z" fill="white"/>
</mask>
<g mask="url(#mask0_1_1217)">
<path d="M1.19072 6.78274C0.427875 8.36037 0 10.1302 0 12.0001C0 13.87 0.427875 15.6399 1.19072 17.2175L12 18.261L22.8093 17.2175C23.5721 15.6399 24 13.87 24 12.0001C24 10.1302 23.5721 8.36037 22.8093 6.78274L12 5.73926L1.19072 6.78274Z" fill="black"/>
<path d="M1.19116 17.2173C3.13207 21.2312 7.24249 23.9999 12 23.9999C16.7575 23.9999 20.868 21.2312 22.8089 17.2173H1.19116Z" fill="#496E2D"/>
<path d="M1.19116 6.78262H22.8089C20.868 2.76867 16.7575 0 12 0C7.24249 0 3.13207 2.76867 1.19116 6.78262Z" fill="#D80027"/>
<path d="M14.7931 9.80566L15.7776 11.1625L17.3722 10.6454L16.386 12.0011L17.3705 13.3578L15.7765 12.8388L14.7904 14.1944L14.7914 12.5181L13.1974 11.9991L14.792 11.4821L14.7931 9.80566Z" fill="#F0F0F0"/>
<path d="M12.106 15.3914C10.2331 15.3914 8.71473 13.873 8.71473 12.0001C8.71473 10.1272 10.2331 8.6088 12.106 8.6088C12.69 8.6088 13.2395 8.75645 13.7192 9.01642C12.9666 8.28044 11.9374 7.82617 10.8017 7.82617C8.49648 7.82617 6.62781 9.69489 6.62781 12.0001C6.62781 14.3052 8.49653 16.174 10.8017 16.174C11.9375 16.174 12.9667 15.7197 13.7192 14.9837C13.2395 15.2438 12.6901 15.3914 12.106 15.3914Z" fill="#F0F0F0"/>
</g>
</svg>
