<svg width="24" height="24" viewBox="0 0 24 24" fill="none" xmlns="http://www.w3.org/2000/svg">
<mask id="mask0_1_1379" style="mask-type:luminance" maskUnits="userSpaceOnUse" x="0" y="0" width="24" height="24">
<path d="M24 0H0V24H24V0Z" fill="white"/>
</mask>
<g mask="url(#mask0_1_1379)">
<path d="M17.2175 1.19072C15.6399 0.427875 13.87 0 12.0001 0C10.1303 0 8.36037 0.427875 6.78274 1.19072L5.73926 12L6.78274 22.8093C8.36037 23.5721 10.1303 24 12.0001 24C13.87 24 15.6399 23.5721 17.2175 22.8093L18.261 12L17.2175 1.19072Z" fill="#FFDA44"/>
<path d="M6.78262 1.19092C2.76872 3.13187 0 7.24229 0 11.9998C0 16.7573 2.76872 20.8677 6.78262 22.8086V1.19092Z" fill="#0052B4"/>
<path d="M17.2173 1.19092V22.8086C21.2312 20.8677 23.9999 16.7573 23.9999 11.9998C23.9999 7.24229 21.2312 3.13187 17.2173 1.19092Z" fill="#D80027"/>
<path d="M16.174 9.44155H13.3044C13.3044 8.72118 12.7204 8.13721 12.0001 8.13721C11.2797 8.13721 10.6957 8.72118 10.6957 9.44155H7.82617C7.82617 10.1508 8.44403 10.7257 9.1532 10.7257H9.11045C9.11045 11.4351 9.68542 12.0101 10.3947 12.0101C10.3947 12.6381 10.8458 13.1599 11.4415 13.2714L10.4294 15.5562C10.9143 15.7533 11.4443 15.8629 12.0001 15.8629C12.5558 15.8629 13.0858 15.7533 13.5707 15.5562L12.5587 13.2714C13.1544 13.1599 13.6054 12.6381 13.6054 12.0101C14.3147 12.0101 14.8897 11.4351 14.8897 10.7257H14.8469C15.5561 10.7257 16.174 10.1508 16.174 9.44155Z" fill="#FF9811"/>
<path d="M11.9999 11.2173L10.3042 11.9999V13.5651L11.9999 14.6086L13.6955 13.5651V11.9999L11.9999 11.2173Z" fill="#0052B4"/>
<path d="M10.3042 10.4346H13.6955V11.9998H10.3042V10.4346Z" fill="#D80027"/>
</g>
</svg>
