<svg width="24" height="24" viewBox="0 0 24 24" fill="none" xmlns="http://www.w3.org/2000/svg">
<mask id="mask0_1_1412" style="mask-type:luminance" maskUnits="userSpaceOnUse" x="0" y="0" width="24" height="24">
<path d="M24 0H0V24H24V0Z" fill="white"/>
</mask>
<g mask="url(#mask0_1_1412)">
<path d="M12 24C18.6274 24 24 18.6274 24 12C24 5.37258 18.6274 0 12 0C5.37258 0 0 5.37258 0 12C0 18.6274 5.37258 24 12 24Z" fill="#FFDA44"/>
<path d="M24 11.9999C24 7.88146 21.9249 4.24799 18.7635 2.08691H5.23655C2.07516 4.24799 0 7.88146 0 11.9999C0 16.1185 2.07516 19.7519 5.23655 21.913H18.7635C21.9249 19.7519 24 16.1185 24 11.9999Z" fill="#A2001D"/>
<path d="M9.39136 8.86966H14.6087V6.78274L13.5652 7.30446L12 5.73926L10.4348 7.30446L9.39136 6.78274V8.86966Z" fill="#FFDA44"/>
<path d="M16.6956 12H14.0879C14.1902 11.823 14.2496 11.6183 14.2496 11.3993C14.2496 10.7343 13.7105 10.1953 13.0456 10.1953C12.5862 10.1953 12.1872 10.4527 11.9842 10.831C11.7811 10.4527 11.3821 10.1953 10.9227 10.1953C10.2578 10.1953 9.71868 10.7343 9.71868 11.3993C9.71868 11.6184 9.77821 11.8231 9.8804 12H7.3042C7.3042 12.7979 7.99921 13.4447 8.79712 13.4447H8.74903C8.74903 14.0992 9.18436 14.6519 9.78121 14.8294L8.60854 16.0022L9.71531 17.109L11.2853 15.539C11.3468 15.5615 11.4104 15.5795 11.4762 15.5919L10.5275 17.7338C10.9821 17.9187 11.4789 18.0213 11.9999 18.0213C12.5209 18.0213 13.0177 17.9187 13.4724 17.7338L12.5237 15.5919C12.5894 15.5796 12.6531 15.5615 12.7145 15.539L14.2845 17.109L15.3912 16.0022L14.2185 14.8295C14.8153 14.6519 15.2507 14.0993 15.2507 13.4448H15.2025C16.0005 13.4447 16.6956 12.7979 16.6956 12Z" fill="#FFDA44"/>
<path d="M12 12.7827L10.3043 13.5653V15.1305L12 16.174L13.6956 15.1305V13.5653L12 12.7827Z" fill="#6DA544"/>
<path d="M10.3043 12H13.6956V14.087H10.3043V12Z" fill="#0052B4"/>
</g>
</svg>
