<svg width="24" height="24" viewBox="0 0 24 24" fill="none" xmlns="http://www.w3.org/2000/svg">
<mask id="mask0_1_1319" style="mask-type:luminance" maskUnits="userSpaceOnUse" x="0" y="0" width="24" height="24">
<path d="M24 0H0V24H24V0Z" fill="white"/>
</mask>
<g mask="url(#mask0_1_1319)">
<path d="M12 24C18.6274 24 24 18.6274 24 12C24 9.98611 23.5031 8.08847 22.6265 6.42188L11.9859 12.0141L17.5781 1.37353C15.9115 0.496875 14.0139 0 12 0C5.37262 0 0 5.37262 0 12C0 15.3137 1.34316 18.3137 3.51469 20.4853C5.68627 22.6569 8.68627 24 12 24Z" fill="#0052B4"/>
<path d="M22.6139 6.43489C22.0646 5.38939 21.3505 4.40779 20.4714 3.5287C19.5922 2.64961 18.6108 1.93546 17.5652 1.38623L3.50073 20.4993L22.6139 6.43489Z" fill="#F0F0F0"/>
<path d="M3.50073 20.4994L22.6139 6.43502C22.0646 5.38952 21.3505 4.4079 20.4714 3.52881L3.50073 20.4994Z" fill="#FF9811"/>
<path d="M10.4206 7.03694L8.95509 7.72628L9.73551 9.14566L8.14411 8.8412L7.94245 10.4488L6.83395 9.26641L5.72545 10.4488L5.52389 8.8412L3.93249 9.14556L4.71281 7.72623L3.24731 7.03694L4.71286 6.34755L3.93249 4.92827L5.52379 5.23262L5.7255 3.625L6.83395 4.80742L7.94245 3.625L8.14411 5.23262L9.73556 4.92827L8.95514 6.34759L10.4206 7.03694Z" fill="#F0F0F0"/>
</g>
</svg>
