<svg width="24" height="24" viewBox="0 0 24 24" fill="none" xmlns="http://www.w3.org/2000/svg">
<mask id="mask0_1_1303" style="mask-type:luminance" maskUnits="userSpaceOnUse" x="0" y="0" width="24" height="24">
<path d="M24 0H0V24H24V0Z" fill="white"/>
</mask>
<g mask="url(#mask0_1_1303)">
<path d="M16.1739 0.746391C14.8739 0.264047 13.4678 0 12 0C10.5321 0 9.12606 0.264047 7.82608 0.746391L6.78259 12L7.82608 23.2536C9.12606 23.736 10.5321 24 12 24C13.4678 24 14.8739 23.736 16.1739 23.2536L17.2173 12L16.1739 0.746391Z" fill="#FFDA44"/>
<path d="M23.9999 12.0002C23.9999 6.84062 20.7434 2.44205 16.1738 0.746582V23.2539C20.7434 21.5582 23.9999 17.1598 23.9999 12.0002Z" fill="#D80027"/>
<path d="M0 12.0002C0 17.1598 3.2565 21.5582 7.82611 23.2538V0.746582C3.2565 2.44205 0 6.84062 0 12.0002Z" fill="#6DA544"/>
</g>
</svg>
