<svg width="24" height="24" viewBox="0 0 24 24" fill="none" xmlns="http://www.w3.org/2000/svg">
<mask id="mask0_1_1397" style="mask-type:luminance" maskUnits="userSpaceOnUse" x="0" y="0" width="24" height="24">
<path d="M24 0H0V24H24V0Z" fill="white"/>
</mask>
<g mask="url(#mask0_1_1397)">
<path d="M12 24C13.4678 24 14.8739 23.736 16.1739 23.2536L16.6956 12L16.1739 0.746391C14.8739 0.264047 13.4678 0 12 0C10.5321 0 9.12602 0.264047 7.82609 0.746391L7.30432 12L7.82604 23.2536C9.12602 23.736 10.5321 24 12 24Z" fill="#0052B4"/>
<path d="M0 12.0002C0 17.1598 3.2565 21.5583 7.82611 23.2538V0.746582C3.2565 2.4421 0 6.84062 0 12.0002Z" fill="#A2001D"/>
<path d="M16.1738 0.746582V23.2539C20.7434 21.5583 23.9999 17.1598 23.9999 12.0002C23.9999 6.84062 20.7434 2.4421 16.1738 0.746582Z" fill="#A2001D"/>
<path d="M5.73914 12H6.78262V16.1739H5.73914V12Z" fill="#FFDA44"/>
<path d="M1.56519 12H2.60867V16.1739H1.56519V12Z" fill="#FFDA44"/>
<path d="M4.17386 14.6085C4.75017 14.6085 5.21733 14.1412 5.21733 13.565C5.21733 12.9886 4.75017 12.5215 4.17386 12.5215C3.59756 12.5215 3.13037 12.9886 3.13037 13.565C3.13037 14.1412 3.59756 14.6085 4.17386 14.6085Z" fill="#FFDA44"/>
<path d="M4.17394 10.4346C4.46208 10.4346 4.69565 10.201 4.69565 9.91283C4.69565 9.62469 4.46208 9.39111 4.17394 9.39111C3.8858 9.39111 3.65222 9.62469 3.65222 9.91283C3.65222 10.201 3.8858 10.4346 4.17394 10.4346Z" fill="#FFDA44"/>
<path d="M3.13049 15.1304H5.21745V16.1739H3.13049V15.1304Z" fill="#FFDA44"/>
<path d="M3.13049 10.9565H5.21745V12H3.13049V10.9565Z" fill="#FFDA44"/>
<path d="M4.17385 6.26074L4.54341 7.39793H5.73908L4.77182 8.10077L5.1411 9.23796L4.17385 8.53512L3.20663 9.23796L3.57591 8.10077L2.60864 7.39793H3.80433L4.17385 6.26074Z" fill="#FFDA44"/>
</g>
</svg>
