<svg width="24" height="24" viewBox="0 0 24 24" fill="none" xmlns="http://www.w3.org/2000/svg">
<mask id="mask0_1_1251" style="mask-type:luminance" maskUnits="userSpaceOnUse" x="0" y="0" width="24" height="24">
<path d="M24 0H0V24H24V0Z" fill="white"/>
</mask>
<g mask="url(#mask0_1_1251)">
<path d="M12 24C18.6274 24 24 18.6274 24 12C24 5.37258 18.6274 0 12 0C5.37258 0 0 5.37258 0 12C0 18.6274 5.37258 24 12 24Z" fill="#496E2D"/>
<path d="M14.087 11.4996C13.7924 11.4996 13.5128 11.5584 13.2531 11.6518C13.3953 11.3348 13.4907 10.982 13.4907 10.6053C13.4907 9.1146 12.0001 7.99658 12.0001 7.99658C12.0001 7.99658 10.5094 9.1146 10.5094 10.6053C10.5094 10.982 10.6048 11.3348 10.747 11.6518C10.4873 11.5585 10.2076 11.4996 9.91313 11.4996C8.42246 11.4996 7.30444 12.9903 7.30444 12.9903C7.30444 12.9903 8.42246 14.481 9.91313 14.481C10.7871 14.481 11.5325 13.9688 12.0001 13.5448C12.4677 13.9687 13.2131 14.481 14.0871 14.481C15.5777 14.481 16.6958 12.9903 16.6958 12.9903C16.6958 12.9903 15.5776 11.4996 14.087 11.4996Z" fill="#F0F0F0"/>
<path d="M11.9999 4.6958L12.3078 5.64343H13.3042L12.4982 6.22918L12.8059 7.1768L11.9999 6.59105L11.1939 7.1768L11.5016 6.22918L10.6956 5.64343H11.692L11.9999 4.6958Z" fill="#FFDA44"/>
<path d="M8.21086 6.35303L8.80326 6.88637L9.49359 6.48784L9.1694 7.21604L9.76176 7.74948L8.96901 7.66614L8.64483 8.39434L8.47898 7.61467L7.68628 7.53132L8.37656 7.1327L8.21086 6.35303Z" fill="#FFDA44"/>
<path d="M5.43726 9.12716L6.21697 9.29287L6.61555 8.60254L6.6989 9.39524L7.47852 9.56109L6.75037 9.88532L6.83371 10.678L6.30022 10.0857L5.57207 10.4099L5.97065 9.71952L5.43726 9.12716Z" fill="#FFDA44"/>
<path d="M15.7891 6.35303L15.1968 6.88637L14.5065 6.48784L14.8306 7.21604L14.2383 7.74948L15.031 7.66614L15.3552 8.39434L15.5211 7.61467L16.3138 7.53132L15.6235 7.1327L15.7891 6.35303Z" fill="#FFDA44"/>
<path d="M18.5627 9.12716L17.783 9.29287L17.3845 8.60254L17.3011 9.39524L16.5215 9.56109L17.2496 9.88532L17.1663 10.678L17.6998 10.0857L18.4279 10.4099L18.0294 9.71952L18.5627 9.12716Z" fill="#FFDA44"/>
<path d="M11.9999 18.655C13.184 18.655 14.2755 18.2599 15.151 17.5952H8.84888C9.72441 18.2599 10.8158 18.655 11.9999 18.655Z" fill="#F0F0F0"/>
<path d="M7.21729 15.5244C7.38289 15.9034 7.59289 16.2584 7.83955 16.5842H16.1607C16.4074 16.2585 16.6174 15.9034 16.783 15.5244H7.21729Z" fill="#F0F0F0"/>
</g>
</svg>
