<svg width="24" height="24" viewBox="0 0 24 24" fill="none" xmlns="http://www.w3.org/2000/svg">
<mask id="mask0_1_1328" style="mask-type:luminance" maskUnits="userSpaceOnUse" x="0" y="0" width="24" height="24">
<path d="M24 0H0V24H24V0Z" fill="white"/>
</mask>
<g mask="url(#mask0_1_1328)">
<path d="M12 24C18.6274 24 24 18.6274 24 12C24 5.37258 18.6274 0 12 0C5.37258 0 0 5.37258 0 12C0 18.6274 5.37258 24 12 24Z" fill="#F0F0F0"/>
<path d="M23.8971 10.435C23.5661 7.90439 22.4294 5.45911 20.4852 3.51497C18.5411 1.57083 16.0958 0.434059 13.5652 0.103027L13.5652 10.435H23.8971Z" fill="#0052B4"/>
<path d="M10.4347 0.103027C7.90414 0.434059 5.45881 1.57078 3.51467 3.51492C1.57058 5.45911 0.433814 7.90444 0.102783 10.4351L10.4348 10.435L10.4347 0.103027Z" fill="#0052B4"/>
<path d="M0.102783 13.5654C0.433814 16.096 1.57058 18.5414 3.51467 20.4855C5.45881 22.4296 7.90409 23.5663 10.4348 23.8975L10.4347 13.5655L0.102783 13.5654Z" fill="#0052B4"/>
<path d="M13.5652 23.8973C16.0958 23.5663 18.5411 22.4296 20.4852 20.4854C22.4293 18.5413 23.5661 16.096 23.8971 13.5654H13.5652V23.8973Z" fill="#0052B4"/>
<path d="M16.0963 7.61421C16.0963 7.45465 16.226 7.32495 16.3856 7.32495H17.0055C17.9854 7.32495 18.7826 6.52779 18.7826 5.54796C18.7826 4.56814 17.9854 3.77094 17.0055 3.77094H16.4168C16.2247 3.62661 15.9669 3.5376 15.6826 3.5376C15.0895 3.5376 14.6087 3.92221 14.6087 4.39668C14.6087 4.86654 15.0803 5.24773 15.6655 5.25514L15.6652 5.25856H17.0055C17.1651 5.25856 17.2948 5.38831 17.2948 5.54787C17.2948 5.70743 17.1651 5.83714 17.0055 5.83714H16.3856C15.4058 5.83714 14.6086 6.63429 14.6086 7.61412C14.6086 8.59395 15.4057 9.39115 16.3856 9.39115H18.7825V7.90343H16.3856C16.226 7.90348 16.0963 7.77378 16.0963 7.61421Z" fill="#F0F0F0"/>
<path d="M6.70515 7.61421C6.70515 7.45465 6.83486 7.32495 6.99447 7.32495H7.61434C8.59422 7.32495 9.39142 6.52779 9.39142 5.54796C9.39142 4.56814 8.59426 3.77094 7.61434 3.77094H7.02569C6.83355 3.62661 6.57578 3.5376 6.29144 3.5376C5.69833 3.5376 5.21753 3.92221 5.21753 4.39668C5.21753 4.86654 5.68914 5.24773 6.27433 5.25514L6.27404 5.25856H7.61439C7.774 5.25856 7.9037 5.38831 7.9037 5.54787C7.9037 5.70743 7.774 5.83714 7.61439 5.83714H6.99451C6.01464 5.83714 5.21753 6.63429 5.21753 7.61412C5.21753 8.59395 6.01459 9.39115 6.99451 9.39115H9.39137V7.90343H6.99447C6.83486 7.90348 6.70515 7.77378 6.70515 7.61421Z" fill="#F0F0F0"/>
<path d="M16.0964 18.6855C16.0964 18.5259 16.2261 18.3962 16.3857 18.3962H17.0055C17.9854 18.3962 18.7826 17.5991 18.7826 16.6193C18.7826 15.6394 17.9855 14.8422 17.0055 14.8422H16.4169C16.2248 14.6979 15.967 14.6089 15.6826 14.6089C15.0895 14.6089 14.6087 14.9935 14.6087 15.468C14.6087 15.9378 15.0803 16.319 15.6655 16.3264L15.6652 16.3299H17.0055C17.1651 16.3299 17.2948 16.4596 17.2948 16.6192C17.2948 16.7787 17.1651 16.9084 17.0055 16.9084H16.3856C15.4058 16.9084 14.6086 17.7056 14.6086 18.6854C14.6086 19.6652 15.4057 20.4624 16.3856 20.4624H18.7826V18.9748H16.3857C16.2261 18.9748 16.0964 18.845 16.0964 18.6855Z" fill="#F0F0F0"/>
<path d="M6.70496 18.6855C6.70496 18.5259 6.83466 18.3962 6.99427 18.3962H7.61414C8.59402 18.3962 9.39122 17.5991 9.39122 16.6193C9.39122 15.6394 8.59407 14.8422 7.61414 14.8422H7.02549C6.83335 14.6979 6.57558 14.6089 6.29124 14.6089C5.69808 14.6089 5.21729 14.9935 5.21729 15.468C5.21729 15.9378 5.68889 16.319 6.27408 16.3264L6.2738 16.3299H7.61414C7.77375 16.3299 7.90346 16.4596 7.90346 16.6192C7.90346 16.7787 7.77375 16.9084 7.61414 16.9084H6.99427C6.01439 16.9084 5.21729 17.7056 5.21729 18.6854C5.21729 19.6652 6.01435 20.4624 6.99427 20.4624H9.39118V18.9748H6.99427C6.83466 18.9748 6.70496 18.845 6.70496 18.6855Z" fill="#F0F0F0"/>
</g>
</svg>
