<svg width="24" height="24" viewBox="0 0 24 24" fill="none" xmlns="http://www.w3.org/2000/svg">
<mask id="mask0_1_1311" style="mask-type:luminance" maskUnits="userSpaceOnUse" x="0" y="0" width="24" height="24">
<path d="M24 0H0V24H24V0Z" fill="white"/>
</mask>
<g mask="url(#mask0_1_1311)">
<path d="M12 24C18.6274 24 24 18.6274 24 12C24 5.37258 18.6274 0 12 0C5.37258 0 0 5.37258 0 12C0 18.6274 5.37258 24 12 24Z" fill="#F0F0F0"/>
<path d="M12 0C18.6274 0 24 5.37262 24 12C24 18.6274 18.6274 24 12 24" fill="#D80027"/>
<path d="M8.34786 4.69556V3.13037H6.78266V4.69556H5.21741V6.26077H6.78266V7.82602H8.34786V6.26077H9.91306V4.69556H8.34786Z" fill="#ACABB1"/>
</g>
</svg>
