<svg width="24" height="24" viewBox="0 0 24 24" fill="none" xmlns="http://www.w3.org/2000/svg">
<mask id="mask0_1_1350" style="mask-type:luminance" maskUnits="userSpaceOnUse" x="0" y="0" width="24" height="24">
<path d="M24 0H0V24H24V0Z" fill="white"/>
</mask>
<g mask="url(#mask0_1_1350)">
<path d="M1.45898 6.26086L11.9999 7.30434L22.5408 6.26086C20.5056 2.53073 16.5484 0 11.9999 0C7.45139 0 3.49425 2.53073 1.45898 6.26086Z" fill="#D80027"/>
<path d="M1.45908 17.7392L12 18.7827L22.5409 17.7392C23.4711 16.0343 24 14.0789 24 12L12 10.9565L0 12C0 14.0789 0.528891 16.0343 1.45908 17.7392Z" fill="#FFDA44"/>
<path d="M1.45908 6.26074C0.528891 7.96563 0 9.92098 0 11.9999H24C24 9.92098 23.4711 7.96563 22.5409 6.26074H12H1.45908Z" fill="#0052B4"/>
<path d="M11.9999 24.0001C16.5484 24.0001 20.5056 21.4694 22.5408 17.7393H1.45898C3.49425 21.4694 7.45139 24.0001 11.9999 24.0001Z" fill="#6DA544"/>
</g>
</svg>
