<svg width="24" height="24" viewBox="0 0 24 24" fill="none" xmlns="http://www.w3.org/2000/svg">
<mask id="mask0_1_1282" style="mask-type:luminance" maskUnits="userSpaceOnUse" x="0" y="0" width="24" height="24">
<path d="M24 0H0V24H24V0Z" fill="white"/>
</mask>
<g mask="url(#mask0_1_1282)">
<path d="M12 24C18.6274 24 24 18.6274 24 12C24 5.37258 18.6274 0 12 0C5.37258 0 0 5.37258 0 12C0 18.6274 5.37258 24 12 24Z" fill="#F0F0F0"/>
<path d="M11.4785 12.0001H24.0002C24.0002 10.9169 23.8559 9.86779 23.5868 8.86963H11.4785V12.0001Z" fill="#D80027"/>
<path d="M11.4785 5.73934H22.239C21.5044 4.54065 20.5652 3.48114 19.4701 2.60889H11.4785V5.73934Z" fill="#D80027"/>
<path d="M12.0001 23.9998C14.8243 23.9998 17.4201 23.0237 19.47 21.3911H4.53027C6.58017 23.0237 9.17597 23.9998 12.0001 23.9998Z" fill="#D80027"/>
<path d="M1.76147 18.2608H22.2389C22.8286 17.2986 23.286 16.2467 23.5868 15.1304H0.413574C0.714372 16.2467 1.17173 17.2986 1.76147 18.2608Z" fill="#D80027"/>
<path d="M12 12C12 5.37262 12 4.59131 12 0C5.37262 0 0 5.37262 0 12H12Z" fill="#0052B4"/>
<path d="M7.97952 10.2718C6.34068 10.2718 5.01214 8.94326 5.01214 7.30446C5.01214 5.66567 6.34072 4.33709 7.97952 4.33709C8.4905 4.33709 8.9713 4.46633 9.39107 4.69376C8.73257 4.04984 7.832 3.65234 6.83821 3.65234C4.82122 3.65234 3.18604 5.28748 3.18604 7.30451C3.18604 9.32154 4.82122 10.9567 6.83821 10.9567C7.832 10.9567 8.73257 10.5592 9.39107 9.91526C8.9713 10.1426 8.49055 10.2718 7.97952 10.2718Z" fill="#FFDA44"/>
<path d="M8.81598 5.21729L9.34281 6.31894L10.5325 6.04407L9.99976 7.14277L10.9566 7.90153L9.76529 8.17008L9.76862 9.39122L8.81598 8.62725L7.86329 9.39122L7.86657 8.17008L6.67529 7.90153L7.63211 7.14277L7.09928 6.04407L8.28911 6.31894L8.81598 5.21729Z" fill="#FFDA44"/>
</g>
</svg>
