<svg width="24" height="24" viewBox="0 0 24 24" fill="none" xmlns="http://www.w3.org/2000/svg">
<mask id="mask0_1_1443" style="mask-type:luminance" maskUnits="userSpaceOnUse" x="0" y="0" width="24" height="24">
<path d="M24 0H0V24H24V0Z" fill="white"/>
</mask>
<g mask="url(#mask0_1_1443)">
<path d="M12 24C18.6274 24 24 18.6274 24 12C24 5.37258 18.6274 0 12 0C5.37258 0 0 5.37258 0 12C0 18.6274 5.37258 24 12 24Z" fill="#F0F0F0"/>
<path d="M6.48617 16.6958L3.51514 20.485C5.68657 22.6568 8.68625 24.0001 12 24.0001C16.9608 24.0001 21.2177 20.9894 23.0452 16.6958H6.48617Z" fill="#FFDA44"/>
<path d="M23.0639 7.3478C21.2466 3.03103 16.9776 0 12 0C8.68625 0 5.68657 1.34339 3.51514 3.51511L6.52029 7.3478H23.0639Z" fill="#496E2D"/>
<path d="M2.60864 8.82617V15.1305H23.5866C23.8558 14.1325 24 13.0832 24 12.0001C24 10.9012 23.8519 9.83717 23.5752 8.82617H2.60864Z" fill="black"/>
<path d="M3.51471 3.51465C-1.17157 8.20093 -1.17157 15.7989 3.51471 20.4853C5.45126 18.5487 7.31374 16.6862 12 12L3.51471 3.51465Z" fill="#A2001D"/>
<path d="M4.8567 8.86963L5.63365 11.261H8.14831L6.11403 12.7391L6.89094 15.1305L4.8567 13.6525L2.82237 15.1305L3.59947 12.7391L1.56519 11.261H4.07965L4.8567 8.86963Z" fill="#FFDA44"/>
<path d="M2.58325 12H7.13125V14.087H2.58325V12Z" fill="#F0F0F0"/>
<path d="M7.99228 9.60754L7.25442 8.86963L4.85686 11.2672L2.45929 8.86963L1.72144 9.60754L4.12111 12.0029L1.72144 14.4027L2.45929 15.1305L4.85686 12.7373L7.25442 15.1305L7.99228 14.4027L5.59261 12.0029L7.99228 9.60754Z" fill="black"/>
</g>
</svg>
