<svg width="24" height="24" viewBox="0 0 24 24" fill="none" xmlns="http://www.w3.org/2000/svg">
<mask id="mask0_1_1465" style="mask-type:luminance" maskUnits="userSpaceOnUse" x="0" y="0" width="24" height="24">
<path d="M24 0H0V24H24V0Z" fill="white"/>
</mask>
<g mask="url(#mask0_1_1465)">
<path d="M12 24C18.6274 24 24 18.6274 24 12C24 5.37258 18.6274 0 12 0C5.37258 0 0 5.37258 0 12C0 18.6274 5.37258 24 12 24Z" fill="#F0F0F0"/>
<path d="M3.51451 20.485C4.0179 20.9884 4.55499 21.4374 5.11838 21.8326L21.8326 5.11839C21.4374 4.55499 20.9884 4.0179 20.485 3.51451C19.9816 3.01112 19.4445 2.56224 18.8811 2.16699L2.16699 18.8812C2.5622 19.4445 3.01112 19.9817 3.51451 20.485Z" fill="#A2001D"/>
<path d="M3.51477 3.51465C-0.271042 7.30046 -0.997794 12.986 1.33297 17.5021L17.5021 1.33295C12.9861 -0.997814 7.30049 -0.270969 3.51477 3.51465Z" fill="#0052B4"/>
<path d="M20.4854 20.4855C24.2711 16.6997 24.9979 11.0141 22.6672 6.49805L6.49805 22.6672C11.014 24.998 16.6996 24.2712 20.4854 20.4855Z" fill="#496E2D"/>
<path d="M9.91307 6.78279L8.56842 7.41528L9.28448 8.71756L7.82437 8.43828L7.63931 9.9132L6.62231 8.82837L5.60526 9.9132L5.42029 8.43828L3.96014 8.71751L4.67615 7.41523L3.33154 6.78279L4.6762 6.15026L3.96014 4.84807L5.42025 5.12735L5.60531 3.65234L6.62231 4.73721L7.63936 3.65234L7.82437 5.12735L9.28448 4.84807L8.56851 6.15031L9.91307 6.78279Z" fill="#FFDA44"/>
</g>
</svg>
