<svg width="24" height="24" viewBox="0 0 24 24" fill="none" xmlns="http://www.w3.org/2000/svg">
<mask id="mask0_1_1475" style="mask-type:luminance" maskUnits="userSpaceOnUse" x="0" y="0" width="24" height="24">
<path d="M24 0H0V24H24V0Z" fill="white"/>
</mask>
<g mask="url(#mask0_1_1475)">
<path d="M12 24C18.6274 24 24 18.6274 24 12C24 5.37258 18.6274 0 12 0C5.37258 0 0 5.37258 0 12C0 18.6274 5.37258 24 12 24Z" fill="#0052B4"/>
<path d="M17.1501 12.8373L19.3045 12.0001L17.1501 11.163L15.9667 10.7032L14.0441 9.95616L13.2971 8.03358C14.5568 8.4465 15.5537 9.44339 15.9667 10.7032L17.15 11.163C16.7924 8.95533 15.0449 7.20774 12.8373 6.85018L12.0001 4.6958L11.163 6.85022C8.95533 7.20788 7.20783 8.95538 6.85022 11.163L4.6958 12.0001L6.85027 12.8373C7.20788 15.045 8.95538 16.7925 11.163 17.1501L12.0001 19.3045L12.8373 17.1501C15.0449 16.7925 16.7925 15.0449 17.1501 12.8373ZM13.238 10.7623L12.0001 12.0001H16.4235L13.238 13.238L12.0001 12.0001V16.4235L10.7623 13.238L12.0001 12.0001H7.57678L10.7623 10.7623L12.0001 12.0001V7.57678L13.238 10.7623ZM10.7032 8.03363L9.95607 9.95621L8.03358 10.7033C8.4465 9.44339 9.44339 8.4466 10.7032 8.03363ZM8.03363 13.2971L9.95607 14.0442L10.7032 15.9667C9.44339 15.5537 8.4466 14.5569 8.03363 13.2971ZM13.2971 15.9667L14.0442 14.0442L15.9667 13.2971C15.5537 14.5569 14.5569 15.5537 13.2971 15.9667Z" fill="#F0F0F0"/>
<path d="M16.4234 12H12L13.2379 13.2379L16.4234 12Z" fill="#0052B4"/>
<path d="M7.57666 12H12L10.7621 10.7622L7.57666 12Z" fill="#0052B4"/>
<path d="M12.0001 16.4234V12L10.7622 13.2379L12.0001 16.4234Z" fill="#0052B4"/>
<path d="M12 12L13.2379 10.7622L12 7.57666V12Z" fill="#0052B4"/>
<path d="M11.4785 1.56543H12.522V3.6524H11.4785V1.56543Z" fill="#F0F0F0"/>
<path d="M1.56543 11.4785H3.6524V12.522H1.56543V11.4785Z" fill="#F0F0F0"/>
<path d="M11.4785 20.3477H12.522V22.4346H11.4785V20.3477Z" fill="#F0F0F0"/>
<path d="M20.3477 11.4785H22.4346V12.522H20.3477V11.4785Z" fill="#F0F0F0"/>
</g>
</svg>
