<svg width="26" height="25" viewBox="0 0 26 25" fill="none" xmlns="http://www.w3.org/2000/svg">
<mask id="mask0_1_2450" style="mask-type:luminance" maskUnits="userSpaceOnUse" x="1" y="0" width="25" height="25">
<path d="M25.335 24.4746V0.474609L1.33496 0.474609V24.4746H25.335Z" fill="white"/>
</mask>
<g mask="url(#mask0_1_2450)">
<path d="M24.5886 16.6481C25.0709 15.3481 25.335 13.9421 25.335 12.4742C25.335 11.0064 25.0709 9.6003 24.5886 8.30032L13.335 7.25684L2.0814 8.30032C1.59896 9.60026 1.33496 11.0063 1.33496 12.4742C1.33496 13.942 1.59896 15.3481 2.0814 16.6481L13.335 17.6915L24.5886 16.6481Z" fill="#ED4135"/>
<path d="M13.335 24.4745C18.4946 24.4745 22.8932 21.218 24.5886 16.6484H2.0813C3.77696 21.218 8.1754 24.4745 13.335 24.4745Z" fill="#009543"/>
<path d="M13.335 0.474609C8.17535 0.474609 3.77691 3.73111 2.0813 8.30064L24.5885 8.30069C22.8931 3.73111 18.4946 0.47461 13.335 0.474609Z" fill="#0052B4"/>
</g>
<path d="M9.27343 7.11523C12.2335 7.11523 14.6332 9.51486 14.6332 12.475C14.6332 15.4351 12.2335 17.8348 9.27343 17.8348C6.31322 17.8348 3.91357 15.4351 3.91357 12.475C3.91357 9.51486 6.31322 7.11523 9.27343 7.11523Z" fill="#FAE600"/>
<path d="M9.27343 7.11523C12.2335 7.11523 14.6332 9.51486 14.6332 12.475C14.6332 15.4351 12.2335 17.8348 9.27343 17.8348C6.31322 17.8348 3.91357 15.4351 3.91357 12.475C3.91357 9.51486 6.31322 7.11523 9.27343 7.11523Z" stroke="black" stroke-width="6.25"/>
<path d="M9.27337 7.13184V16.2901M8.36475 11.9291H10.1819M8.36475 13.2737H10.1819" stroke="black" stroke-width="7.5"/>
<path d="M7.11546 17.3961C9.30293 18.2894 11.3532 17.451 11.3532 17.451C11.3532 17.451 10.5793 16.6134 10.1824 16.2863C9.79539 15.9673 8.65647 15.9799 8.26779 16.2863C7.94346 16.5421 7.01332 17.4845 7.11546 17.3961Z" fill="black"/>
<path d="M9.27345 14.0732C9.60462 14.0732 9.87312 14.4637 9.87312 14.9454C9.87312 15.4271 9.60462 15.8177 9.27345 15.8177C8.94228 15.8177 8.67383 15.4271 8.67383 14.9454C8.67383 14.4637 8.94228 14.0732 9.27345 14.0732Z" fill="black"/>
<path d="M9.27347 12.1416C9.67487 12.1416 10.0003 12.3476 10.0003 12.6018C10.0003 12.8558 9.67487 13.0618 9.27347 13.0618C8.87204 13.0618 8.54663 12.8558 8.54663 12.6018C8.54663 12.3476 8.87204 12.1416 9.27347 12.1416Z" fill="black"/>
<path d="M9.27347 9.74902C9.67487 9.74902 10.0003 10.0744 10.0003 10.4759C10.0003 10.8773 9.67487 11.2027 9.27347 11.2027C8.87199 11.2027 8.54663 10.8773 8.54663 10.4759C8.54663 10.0744 8.87199 9.74902 9.27347 9.74902Z" fill="black"/>
<path d="M10.1456 7.76814C10.1454 7.76758 10.2086 7.87239 10.0761 8.11113C9.44275 9.25155 8.80722 9.27625 8.6867 9.3745C8.55367 9.48264 8.49756 9.47533 8.49756 9.47533C8.50707 9.37755 8.51589 8.97812 8.52287 8.93964C8.61892 8.40677 9.42404 8.41408 10.054 7.86841C10.1525 7.78323 10.1454 7.76758 10.1454 7.76758L10.1456 7.76814Z" fill="black"/>
<path d="M8.01953 10.2217C8.01953 10.2217 8.1618 10.6298 8.18303 11.0394C8.21716 11.6934 8.84373 11.7117 9.27334 11.7117V11.3483C8.95136 11.3483 8.67175 11.3005 8.43752 10.8214C8.32197 10.585 8.01953 10.2217 8.01953 10.2217Z" fill="black"/>
<path d="M8.00146 15.491C8.00146 15.491 8.23022 15.2087 8.49792 14.5469C8.63761 14.2017 8.96859 14.0009 9.27342 14.0009V13.4922C8.58192 13.4922 8.25032 13.7485 8.2154 14.1231C8.1435 14.8928 8.00146 15.491 8.00146 15.491Z" fill="black"/>
<path d="M10.5273 10.2217C10.5273 10.2217 10.385 10.6298 10.3637 11.0394C10.3298 11.6934 9.70305 11.7117 9.27344 11.7117V11.3483C9.59538 11.3483 9.87503 11.3005 10.1094 10.8214C10.225 10.585 10.5273 10.2217 10.5273 10.2217Z" fill="black"/>
<path d="M10.5454 15.491C10.5454 15.491 10.3166 15.2087 10.0489 14.5469C9.9092 14.2017 9.57831 14.0009 9.27344 14.0009V13.4922C9.96498 13.4922 10.2965 13.7485 10.3315 14.1231C10.4033 14.8928 10.5454 15.491 10.5454 15.491Z" fill="black"/>
</svg>
