<svg width="25" height="24" viewBox="0 0 25 24" fill="none" xmlns="http://www.w3.org/2000/svg">
<mask id="mask0_1_1546" style="mask-type:luminance" maskUnits="userSpaceOnUse" x="0" y="0" width="25" height="24">
<path d="M24.9883 0H0.988281V24H24.9883V0Z" fill="white"/>
</mask>
<g mask="url(#mask0_1_1546)">
<path d="M2.179 6.78274C1.41616 8.36037 0.988281 10.1302 0.988281 12.0001C0.988281 13.87 1.41616 15.6399 2.179 17.2175L12.9883 18.261L23.7975 17.2175C24.5604 15.6399 24.9883 13.87 24.9883 12.0001C24.9883 10.1302 24.5604 8.36037 23.7975 6.78274L12.9883 5.73926L2.179 6.78274Z" fill="#F0F0F0"/>
<path d="M2.17944 17.2173C4.12035 21.2312 8.23076 23.9999 12.9883 23.9999C17.7458 23.9999 21.8562 21.2312 23.7972 17.2173H2.17944Z" fill="#6DA544"/>
<path d="M2.17944 6.78262H23.7972C21.8562 2.76867 17.7458 0 12.9883 0C8.23081 0 4.12035 2.76867 2.17944 6.78262Z" fill="#FF9811"/>
<path d="M12.9883 16.174C15.2935 16.174 17.1622 14.3052 17.1622 12.0001C17.1622 9.69489 15.2935 7.82617 12.9883 7.82617C10.6832 7.82617 8.81445 9.69489 8.81445 12.0001C8.81445 14.3052 10.6832 16.174 12.9883 16.174Z" fill="#FF9811"/>
</g>
</svg>
