<svg width="25" height="24" viewBox="0 0 25 24" fill="none" xmlns="http://www.w3.org/2000/svg">
<mask id="mask0_1_1579" style="mask-type:luminance" maskUnits="userSpaceOnUse" x="0" y="0" width="25" height="24">
<path d="M24.9883 0H0.988281V24H24.9883V0Z" fill="white"/>
</mask>
<g mask="url(#mask0_1_1579)">
<path d="M18.2058 1.19072C16.6281 0.427875 14.8583 0 12.9884 0C11.1185 0 9.34865 0.427875 7.77102 1.19072L6.72754 12L7.77102 22.8093C9.34865 23.5721 11.1185 24 12.9884 24C14.8583 24 16.6281 23.5721 18.2058 22.8093L19.2493 12L18.2058 1.19072Z" fill="#F0F0F0"/>
<path d="M7.77089 1.19092C3.75695 3.13182 0.988281 7.24225 0.988281 11.9998C0.988281 16.7573 3.75695 20.8677 7.77089 22.8086V1.19092Z" fill="#6DA544"/>
<path d="M18.2056 1.19092V22.8086C22.2195 20.8677 24.9882 16.7573 24.9882 11.9998C24.9882 7.2423 22.2195 3.13182 18.2056 1.19092Z" fill="#6DA544"/>
<path d="M16.1188 15.6523L12.9884 5.73926L9.85791 15.6523H12.2057V18.261H13.771V15.6523H16.1188Z" fill="#6DA544"/>
</g>
</svg>
