<svg width="25" height="24" viewBox="0 0 25 24" fill="none" xmlns="http://www.w3.org/2000/svg">
<mask id="mask0_1_1555" style="mask-type:luminance" maskUnits="userSpaceOnUse" x="0" y="0" width="25" height="24">
<path d="M24.9883 0H0.988281V24H24.9883V0Z" fill="white"/>
</mask>
<g mask="url(#mask0_1_1555)">
<path d="M12.9883 24C19.6157 24 24.9883 18.6274 24.9883 12C24.9883 5.37258 19.6157 0 12.9883 0C6.36085 0 0.988281 5.37258 0.988281 12C0.988281 18.6274 6.36085 24 12.9883 24Z" fill="#F0F0F0"/>
<path d="M0.988281 12.0001C0.988281 17.1598 4.24478 21.5582 8.81438 23.2538V0.746582C4.24478 2.44205 0.988281 6.84061 0.988281 12.0001Z" fill="#6DA544"/>
<path d="M24.9882 12.0001C24.9882 6.84061 21.7317 2.44205 17.1621 0.746582V23.2538C21.7317 21.5582 24.9882 17.1598 24.9882 12.0001Z" fill="#6DA544"/>
</g>
</svg>
