<svg width="25" height="24" viewBox="0 0 25 24" fill="none" xmlns="http://www.w3.org/2000/svg">
<mask id="mask0_1_1534" style="mask-type:luminance" maskUnits="userSpaceOnUse" x="0" y="0" width="25" height="24">
<path d="M24.9883 0H0.988281V24H24.9883V0Z" fill="white"/>
</mask>
<g mask="url(#mask0_1_1534)">
<path d="M12.9883 24C19.6157 24 24.9883 18.6274 24.9883 12C24.9883 5.37258 19.6157 0 12.9883 0C6.36085 0 0.988281 5.37258 0.988281 12C0.988281 18.6274 6.36085 24 12.9883 24Z" fill="#F0F0F0"/>
<path d="M12.9882 0C8.23069 0 4.11996 2.76867 2.17896 6.78262H23.7975C21.8565 2.76867 17.7457 0 12.9882 0Z" fill="#338AF3"/>
<path d="M12.9882 23.9999C17.7457 23.9999 21.8565 21.2312 23.7975 17.2173H2.17896C4.11996 21.2312 8.23069 23.9999 12.9882 23.9999Z" fill="#338AF3"/>
<path d="M12.9884 8.34766C10.9713 8.34766 9.33618 9.9828 9.33618 11.9998C9.33618 14.0169 10.9713 15.652 12.9884 15.652C15.0054 15.652 16.6405 14.0169 16.6405 11.9998C16.6405 9.9828 15.0054 8.34766 12.9884 8.34766ZM12.9884 14.0868C11.8358 14.0868 10.9014 13.1525 10.9014 11.9998C10.9014 10.8472 11.8357 9.91286 12.9884 9.91286C14.141 9.91286 15.0753 10.8472 15.0753 11.9998C15.0753 13.1525 14.1409 14.0868 12.9884 14.0868Z" fill="#FFDA44"/>
<path d="M14.7956 12.5217L12.9882 12L11.1808 12.5217L10.5784 13.5652H15.398L14.7956 12.5217Z" fill="#0052B4"/>
<path d="M12.9884 9.39111L11.7834 11.4781L12.9884 11.9998L14.1933 11.4781L12.9884 9.39111Z" fill="#338AF3"/>
<path d="M11.1809 12.522H14.7957L14.1932 11.4785H11.7834L11.1809 12.522Z" fill="#6DA544"/>
</g>
</svg>
