<svg width="25" height="24" viewBox="0 0 25 24" fill="none" xmlns="http://www.w3.org/2000/svg">
<mask id="mask0_1_1500" style="mask-type:luminance" maskUnits="userSpaceOnUse" x="0" y="0" width="25" height="24">
<path d="M24.9883 0H0.988281V24H24.9883V0Z" fill="white"/>
</mask>
<g mask="url(#mask0_1_1500)">
<path d="M12.9883 24C19.6157 24 24.9883 18.6274 24.9883 12C24.9883 5.37258 19.6157 0 12.9883 0C6.36085 0 0.988281 5.37258 0.988281 12C0.988281 18.6274 6.36085 24 12.9883 24Z" fill="#F0F0F0"/>
<path d="M24.9178 13.3046L24.9175 13.3042L24.9175 13.3046H24.9178Z" fill="#0052B4"/>
<path d="M24.9175 13.3044C24.9175 13.3044 24.9175 13.3043 24.9175 13.3041L11.7576 0.0625C11.1639 0.123016 10.583 0.226797 10.0181 0.370657C4.82725 1.6923 0.988281 12.0001 0.988281 12.0001C0.988281 12.0001 17.7882 23.2424 19.7048 21.9453C20.0882 21.6858 20.4559 21.4047 20.806 21.1037L13.0068 13.3044H24.9175Z" fill="#0052B4"/>
<path d="M21.8578 12.0001L10.1873 0.32959C4.91116 1.59133 0.988281 6.33723 0.988281 12.0001C0.988281 18.6275 6.36089 24.0001 12.9883 24.0001C15.5021 24.0001 17.835 23.2266 19.7631 21.9053L9.85782 12.0001H21.8578Z" fill="#D80027"/>
<path d="M12.4009 17.7186L10.9353 17.0292L11.7157 15.6099L10.1243 15.9144L9.92267 14.3066L8.81422 15.4891L7.70576 14.3066L7.50406 15.9144L5.9127 15.6099L6.69312 17.0292L5.22754 17.7186L6.69312 18.4079L5.9127 19.8273L7.50415 19.5228L7.70572 21.1305L8.81422 19.948L9.92267 21.1305L10.1243 19.5228L11.7157 19.8273L10.9353 18.408L12.4009 17.7186Z" fill="#F0F0F0"/>
<path d="M11.423 6.65539L10.3571 6.15406L10.9247 5.12173L9.76718 5.34317L9.6205 4.17383L8.8143 5.03384L8.0081 4.17383L7.86138 5.34317L6.70389 5.12173L7.27155 6.15406L6.20557 6.65539L8.8143 7.1772L11.423 6.65539Z" fill="#F0F0F0"/>
<path d="M11.945 6.65527C11.945 8.38416 10.5434 9.78573 8.81454 9.78573C7.08564 9.78573 5.68408 8.38416 5.68408 6.65527" fill="#F0F0F0"/>
</g>
</svg>
