<svg width="25" height="24" viewBox="0 0 25 24" fill="none" xmlns="http://www.w3.org/2000/svg">
<mask id="mask0_1_1490" style="mask-type:luminance" maskUnits="userSpaceOnUse" x="0" y="0" width="25" height="24">
<path d="M24.9883 0H0.988281V24H24.9883V0Z" fill="white"/>
</mask>
<g mask="url(#mask0_1_1490)">
<path d="M12.9883 24C19.6157 24 24.9883 18.6274 24.9883 12C24.9883 5.37258 19.6157 0 12.9883 0C6.36085 0 0.988281 5.37258 0.988281 12C0.988281 18.6274 6.36085 24 12.9883 24Z" fill="#0052B4"/>
<path d="M12.9883 24C19.6157 24 24.9883 18.6274 24.9883 12C24.9883 5.37258 19.6157 0 12.9883 0C6.36085 0 0.988281 5.37258 0.988281 12C0.988281 18.6274 6.36085 24 12.9883 24Z" fill="#FFDA44"/>
<path d="M12.9885 0C6.71265 0 1.56307 4.81786 1.03418 10.9565H24.9428C24.4139 4.81786 19.2643 0 12.9885 0Z" fill="#0052B4"/>
<path d="M12.9885 24C19.2643 24 24.4139 19.1821 24.9428 13.0435H1.03418C1.56307 19.1821 6.71265 24 12.9885 24Z" fill="#0052B4"/>
<path d="M10.9014 16.1739L9.55674 16.8064L10.2728 18.1086L8.81265 17.8293L8.62763 19.3043L7.61059 18.2195L6.59359 19.3043L6.40857 17.8293L4.94842 18.1086L5.66448 16.8063L4.31982 16.1739L5.66452 15.5414L4.94842 14.2392L6.40852 14.5185L6.59363 13.0435L7.61059 14.1283L8.62768 13.0435L8.81265 14.5185L10.2728 14.2392L9.55679 15.5414L10.9014 16.1739Z" fill="#F0F0F0"/>
</g>
</svg>
