<svg width="25" height="24" viewBox="0 0 25 24" fill="none" xmlns="http://www.w3.org/2000/svg">
<mask id="mask0_1_1563" style="mask-type:luminance" maskUnits="userSpaceOnUse" x="0" y="0" width="25" height="24">
<path d="M24.9883 0H0.988281V24H24.9883V0Z" fill="white"/>
</mask>
<g mask="url(#mask0_1_1563)">
<path d="M24.9883 12C24.9883 18.6274 19.6156 24 12.9883 24C6.36089 24 0.988281 18.6274 0.988281 12C0.988281 12.0029 12.9883 0.0013125 12.9883 0C19.6156 0 24.9883 5.37262 24.9883 12Z" fill="#FFDA44"/>
<path d="M12.9883 5.73926V9.78659L8.81445 5.73926H12.9883Z" fill="#0052B4"/>
<path d="M7.24901 11.9999H10.7745L7.24901 7.3042L6.72729 10.9564L7.24901 11.9999Z" fill="#0052B4"/>
<path d="M12.9561 11.9999H12.9882C12.9882 11.9891 12.9882 11.9786 12.9882 11.9678C12.9775 11.9785 12.9668 11.9892 12.9561 11.9999Z" fill="#F0F0F0"/>
<path d="M12.9883 6.26086C12.9883 4.14938 12.9883 2.76586 12.9883 0H12.9863C6.35972 0.001125 0.988281 5.37323 0.988281 12H7.24913V8.47448L10.7746 12H12.9562C12.9669 11.9893 12.9776 11.9786 12.9883 11.9679C12.9883 11.1594 12.9883 10.4381 12.9883 9.78647L9.46271 6.26086H12.9883Z" fill="#F0F0F0"/>
<path d="M12.9882 10.5242L8.72465 6.26074H7.24902V6.26084L12.9881 11.9998H12.9882C12.9882 11.9998 12.9882 10.9823 12.9882 10.5242Z" fill="#D80027"/>
<path d="M7.05927 1.56543C6.59666 1.82887 6.15345 2.12245 5.73195 2.44293H6.22433L4.923 3.38859L5.41997 4.91844L4.11862 3.97298L3.98015 4.07362C3.43983 4.68721 2.96076 5.35602 2.55347 6.07124V12.0002H5.68391V4.69597V4.69588H12.9882C12.9882 3.70855 12.9882 2.76796 12.9882 1.56543H7.05927Z" fill="#D80027"/>
<path d="M6.11452 2.16357C5.9851 2.25418 5.8575 2.34732 5.73183 2.4429L4.92302 3.38856L4.11864 3.9729L3.979 4.07434C3.68435 4.40903 3.40802 4.76021 3.15161 5.12644C3.44388 5.26829 3.77196 5.34802 4.11864 5.34802C5.3433 5.34802 6.336 4.35531 6.336 3.13065C6.3361 2.78387 6.25641 2.45589 6.11452 2.16357Z" fill="#0052B4"/>
<path d="M3.979 4.07431L4.11864 3.97287L5.41999 4.91838L4.92297 3.38853L6.22421 2.44287H5.73174C5.09454 2.92751 4.50733 3.47426 3.979 4.07431Z" fill="#FFDA44"/>
<path d="M9.28231 2.08691L9.54134 2.88402H10.3795L9.70142 3.37673L9.96031 4.17384L9.28231 3.68118L8.60426 4.17384L8.86311 3.37673L8.18506 2.88402H9.02323L9.28231 2.08691Z" fill="#FFDA44"/>
<path d="M4.11869 7.3042L4.37772 8.10131H5.21584L4.53784 8.59406L4.79673 9.39117L4.11869 8.89846L3.44059 9.39117L3.69948 8.59406L3.02148 8.10131H3.85961L4.11869 7.3042Z" fill="#FFDA44"/>
</g>
</svg>
