<svg width="25" height="24" viewBox="0 0 25 24" fill="none" xmlns="http://www.w3.org/2000/svg">
<mask id="mask0_1_1520" style="mask-type:luminance" maskUnits="userSpaceOnUse" x="0" y="0" width="25" height="24">
<path d="M24.9883 0H0.988281V24H24.9883V0Z" fill="white"/>
</mask>
<g mask="url(#mask0_1_1520)">
<path d="M24.9883 12C24.9883 18.6274 19.6156 24 12.9883 24C6.36089 24 0.988281 18.6274 0.988281 12C0.988281 12.0029 12.9883 0.0013125 12.9883 0C19.6156 0 24.9883 5.37262 24.9883 12Z" fill="#0052B4"/>
<path d="M12.9562 11.9999H12.9883C12.9883 11.9891 12.9883 11.9786 12.9883 11.9678C12.9776 11.9785 12.9669 11.9892 12.9562 11.9999Z" fill="#F0F0F0"/>
<path d="M12.9883 6.26086C12.9883 4.14938 12.9883 2.76586 12.9883 0H12.9863C6.35977 0.001125 0.988281 5.37323 0.988281 12H7.24913V8.47448L10.7747 12H12.9562C12.9669 11.9893 12.9776 11.9786 12.9883 11.9679C12.9883 11.1594 12.9883 10.4381 12.9883 9.78647L9.46271 6.26086H12.9883Z" fill="#F0F0F0"/>
<path d="M7.05926 1.56543C5.18245 2.63413 3.62217 4.19441 2.55347 6.07124V12.0002H5.6839V4.69597V4.69588H12.9882C12.9882 3.70855 12.9882 2.76796 12.9882 1.56543H7.05926Z" fill="#D80027"/>
<path d="M12.9882 10.5242L8.72482 6.26074C8.72482 6.26074 7.24915 6.26084 7.24915 6.26074V6.26084L12.9882 11.9998H12.9882C12.9882 11.9998 12.9882 10.9823 12.9882 10.5242Z" fill="#D80027"/>
<path d="M21.7694 8.9043L22.0284 9.70145H22.8665L22.1884 10.1941L22.4475 10.9912L21.7694 10.4986L21.0912 10.9912L21.3503 10.1941L20.6721 9.70145H21.5103L21.7694 8.9043Z" fill="#D80027"/>
<path d="M18.7732 14.6436L19.1618 15.8393H20.419L19.4018 16.5783L19.7904 17.774L18.7732 17.035L17.756 17.774L18.1446 16.5783L17.1274 15.8393H18.3847L18.7732 14.6436Z" fill="#D80027"/>
<path d="M18.8863 5.25195L19.2101 6.24847H20.2578L19.4101 6.86417L19.734 7.86064L18.8863 7.24475L18.0387 7.86064L18.3625 6.86417L17.5149 6.24847H18.5625L18.8863 5.25195Z" fill="#D80027"/>
<path d="M16.0033 8.86963L16.3918 10.0654H17.6491L16.6319 10.8043L17.0205 12.0001L16.0033 11.2611L14.9861 12.0001L15.3747 10.8043L14.3575 10.0654H15.6148L16.0033 8.86963Z" fill="#D80027"/>
</g>
</svg>
