<svg width="24" height="24" viewBox="0 0 24 24" fill="none" xmlns="http://www.w3.org/2000/svg">
<mask id="mask0_1_1610" style="mask-type:luminance" maskUnits="userSpaceOnUse" x="0" y="0" width="24" height="24">
<path d="M24 0H0V24H24V0Z" fill="white"/>
</mask>
<g mask="url(#mask0_1_1610)">
<path d="M12 24C18.6274 24 24 18.6274 24 12C24 5.37258 18.6274 0 12 0C5.37258 0 0 5.37258 0 12C0 18.6274 5.37258 24 12 24Z" fill="#F0F0F0"/>
<path d="M0 11.9999C0 16.5484 2.53078 20.5056 6.26086 22.5408V1.45898C2.53078 3.4942 0 7.45139 0 11.9999Z" fill="#D80027"/>
<path d="M23.2537 16.174C23.736 14.874 24 13.4679 24 12.0001C24 10.5322 23.736 9.12611 23.2537 7.82617H0.746437C0.264047 9.12611 0 10.5322 0 12.0001C0 13.4679 0.264047 14.874 0.746437 16.174L12 17.2174L23.2537 16.174Z" fill="#D80027"/>
<path d="M12.0001 23.9999C17.1598 23.9999 21.5582 20.7434 23.2538 16.1738H0.746582C2.44205 20.7434 6.84061 23.9999 12.0001 23.9999Z" fill="#6DA544"/>
<path d="M0 12.0002C0 17.5445 3.76036 22.2098 8.86955 23.5868V0.413574C3.76036 1.79057 0 6.45585 0 12.0002Z" fill="#D80027"/>
<path d="M7.34159 5.28059L6.23482 4.17383L5.49701 4.91173L4.7592 4.17383L3.65244 5.28059L4.3903 6.01845L3.65234 6.75636L4.7591 7.86313L5.49696 7.12522L6.23482 7.86313L7.34159 6.75636L6.60373 6.01845L7.34159 5.28059Z" fill="#F0F0F0"/>
</g>
</svg>
