<svg width="24" height="24" viewBox="0 0 24 24" fill="none" xmlns="http://www.w3.org/2000/svg">
<mask id="mask0_1_1647" style="mask-type:luminance" maskUnits="userSpaceOnUse" x="0" y="0" width="24" height="24">
<path d="M24 0H0V24H24V0Z" fill="white"/>
</mask>
<g mask="url(#mask0_1_1647)">
<path d="M12 24C18.6274 24 24 18.6274 24 12C24 5.37258 18.6274 0 12 0C5.37258 0 0 5.37258 0 12C0 18.6274 5.37258 24 12 24Z" fill="#F0F0F0"/>
<path d="M0 12C0 18.6274 5.37262 24 12 24C12 19.4365 12 12 12 12C12 12 4.17389 12 0 12Z" fill="#0052B4"/>
<path d="M12 0C18.6274 0 24 5.37262 24 12C19.4365 12 12 12 12 12C12 12 12 4.17389 12 0Z" fill="#D80027"/>
<path d="M7.14337 4.17383L7.92042 6.5653H10.4349L8.40066 8.04327L9.17766 10.4347L7.14337 8.95672L5.10909 10.4347L5.88609 8.04327L3.85181 6.5653H6.36633L7.14337 4.17383Z" fill="#0052B4"/>
<path d="M16.8567 13.5654L17.6338 15.9569H20.1483L18.114 17.4349L18.891 19.8263L16.8567 18.3483L14.8225 19.8263L15.5995 17.4349L13.5652 15.9569H16.0797L16.8567 13.5654Z" fill="#D80027"/>
</g>
</svg>
