<svg width="24" height="24" viewBox="0 0 24 24" fill="none" xmlns="http://www.w3.org/2000/svg">
<mask id="mask0_1_1657" style="mask-type:luminance" maskUnits="userSpaceOnUse" x="0" y="0" width="24" height="24">
<path d="M24 0H0V24H24V0Z" fill="white"/>
</mask>
<g mask="url(#mask0_1_1657)">
<path d="M20.4853 20.4853C15.7991 25.1715 8.20109 25.1715 3.51471 20.4853C-1.17158 15.799 -1.17158 8.20097 3.51475 3.51464C8.20104 -1.17164 15.0611 -0.433784 19.7474 4.25255C24.4337 8.93883 25.1716 15.799 20.4853 20.4853Z" fill="black"/>
<path d="M3.51465 3.51467C8.20093 -1.17161 15.7989 -1.17152 20.4852 3.51472C25.1715 8.201 25.1715 15.799 20.4852 20.4853" fill="#A2001D"/>
<path d="M9.17079 16.1738L9.36504 16.7717H9.99368L9.48509 17.1412L9.67938 17.7391L9.17079 17.3696L8.6622 17.7391L8.85645 17.1412L8.3479 16.7717H8.97649L9.17079 16.1738Z" fill="#F0F0F0"/>
<path d="M7.56532 10.4346L7.88918 11.431H8.93683L8.08919 12.0468L8.41296 13.0433L7.56532 12.4274L6.71772 13.0433L7.04154 12.0468L6.19385 11.431H7.2416L7.56532 10.4346Z" fill="#F0F0F0"/>
<path d="M7.56532 17.7393L7.88908 18.7357H8.93683L8.0891 19.3515L8.41296 20.3479L7.56532 19.7321L6.71772 20.3479L7.04144 19.3515L6.19385 18.7357H7.24146L7.56532 17.7393Z" fill="#F0F0F0"/>
<path d="M10.6285 13.0435L10.9524 14.0399H12L11.1524 14.6557L11.4761 15.6521L10.6285 15.0363L9.78091 15.6521L10.1047 14.6557L9.25708 14.0399H10.3048L10.6285 13.0435Z" fill="#F0F0F0"/>
<path d="M4.50184 13.0435L4.82569 14.0399H5.8733L5.02571 14.6557L5.34942 15.6521L4.50184 15.0363L3.6542 15.6521L3.97806 14.6557L3.13037 14.0399H4.17807L4.50184 13.0435Z" fill="#F0F0F0"/>
<path d="M20.0884 8.88575C19.5521 8.34945 18.8552 8.03262 18.1064 7.9782L20.348 6.23478C19.4552 5.34205 18.2587 4.93887 17.0911 5.02414C16.9514 4.52183 16.6849 4.04736 16.2899 3.65234L15.4044 5.42319C15.3464 5.31734 15.2728 5.21773 15.1831 5.12806C14.6737 4.61867 13.8478 4.61867 13.3385 5.12806C12.8291 5.63745 12.829 6.4633 13.3385 6.97269C13.4281 7.06236 13.5278 7.13591 13.6336 7.19403L11.8628 8.07945C12.2579 8.47461 12.7327 8.74128 13.2353 8.88097C13.1497 10.0485 13.5525 11.2449 14.4453 12.1377L16.4037 9.61962C16.551 9.47455 16.7456 9.39444 16.9526 9.39444C17.1617 9.39444 17.3582 9.47581 17.506 9.6237C17.6538 9.7715 17.7352 9.96805 17.7352 10.1771C17.7352 10.3861 17.6538 10.5826 17.506 10.7305L18.2439 11.4684C18.5887 11.1235 18.7787 10.6649 18.7787 10.1771C18.7787 9.77802 18.6514 9.39861 18.4164 9.08492C18.7589 9.17637 19.0825 9.35553 19.3507 9.6237C20.1644 10.4374 20.1644 11.7614 19.3507 12.5751L20.0886 13.313C20.6798 12.7217 21.0054 11.9356 21.0054 11.0994C21.0053 10.2631 20.6796 9.47703 20.0884 8.88575Z" fill="#FFDA44"/>
</g>
</svg>
