<svg width="24" height="24" viewBox="0 0 24 24" fill="none" xmlns="http://www.w3.org/2000/svg">
<mask id="mask0_1_1688" style="mask-type:luminance" maskUnits="userSpaceOnUse" x="0" y="0" width="24" height="24">
<path d="M24 0H0V24H24V0Z" fill="white"/>
</mask>
<g mask="url(#mask0_1_1688)">
<path d="M12 24C18.6274 24 24 18.6274 24 12C24 5.37258 18.6274 0 12 0C5.37258 0 0 5.37258 0 12C0 18.6274 5.37258 24 12 24Z" fill="#F0F0F0"/>
<path d="M12 0V12L3.51465 20.4853C5.68623 22.6568 8.68623 24 12 24C18.6273 24 24 18.6274 24 12C24 5.37262 12 0 12 0Z" fill="#D80027"/>
<path d="M12 0C8.68623 0 5.68623 1.34316 3.51465 3.51469C6.45887 6.45891 7.50404 7.50412 12 12H24C24 5.37262 18.6273 0 12 0Z" fill="#0052B4"/>
<path d="M8.21674 12.0003L6.75124 11.3109L7.53166 9.8916L5.94025 10.1961L5.7386 8.58838L4.6301 9.77075L3.52164 8.58838L3.31994 10.1961L1.72858 9.89155L2.509 11.3109L1.04346 12.0003L2.509 12.6896L1.72858 14.1089L3.32008 13.8045L3.5216 15.4122L4.6301 14.2298L5.7386 15.4122L5.94025 13.8045L7.53157 14.109L6.75119 12.6897L8.21674 12.0003Z" fill="#FFDA44"/>
<path d="M3.20033 4.6958L3.68802 5.3775L4.487 5.12443L3.98929 5.79886L4.47697 6.48057L3.68169 6.21568L3.18402 6.89007L3.19025 6.05194L2.39502 5.787L3.19414 5.53393L3.20033 4.6958Z" fill="#FFDA44"/>
<path d="M3.20033 17.1104L3.68802 17.7921L4.487 17.5389L3.98929 18.2134L4.47697 18.8951L3.68169 18.6302L3.18402 19.3046L3.19025 18.4665L2.39502 18.2016L3.19414 17.9485L3.20033 17.1104Z" fill="#FFDA44"/>
<path d="M10.1563 10.9028L9.66866 11.5845L8.86963 11.3314L9.36735 12.0058L8.87966 12.6876L9.67494 12.4227L10.1727 13.0971L10.1664 12.259L10.9616 11.994L10.1625 11.741L10.1563 10.9028Z" fill="#FFDA44"/>
</g>
</svg>
