<svg width="24" height="24" viewBox="0 0 24 24" fill="none" xmlns="http://www.w3.org/2000/svg">
<mask id="mask0_1_1621" style="mask-type:luminance" maskUnits="userSpaceOnUse" x="0" y="0" width="24" height="24">
<path d="M24 0H0V24H24V0Z" fill="white"/>
</mask>
<g mask="url(#mask0_1_1621)">
<path d="M12 24C18.6274 24 24 18.6274 24 12C24 5.37258 18.6274 0 12 0C5.37258 0 0 5.37258 0 12C0 18.6274 5.37258 24 12 24Z" fill="#F0F0F0"/>
<path d="M0 11.9999C0 16.5484 2.53073 20.5056 6.26086 22.5408V1.45898C2.53073 3.49425 0 7.45139 0 11.9999Z" fill="#F0F0F0"/>
<path d="M12 0C9.9211 0 7.96575 0.528891 6.26086 1.45908V22.5409C7.96575 23.4711 9.9211 24 12 24C18.6274 24 24 18.6274 24 12C24 5.37262 18.6274 0 12 0Z" fill="#496E2D"/>
<path d="M17.1306 13.9845C15.6124 15.0814 13.4925 14.7399 12.3956 13.2219C11.2986 11.7037 11.6401 9.58374 13.1582 8.48687C13.6316 8.14487 14.1634 7.9427 14.7045 7.87243C13.6636 7.71676 12.5632 7.95132 11.6427 8.61643C9.77425 9.96653 9.35392 12.5756 10.704 14.4442C12.054 16.3126 14.6632 16.7329 16.5317 15.3827C17.4523 14.7176 18.0204 13.7467 18.1994 12.7094C17.9629 13.2009 17.604 13.6424 17.1306 13.9845Z" fill="#F0F0F0"/>
<path d="M17.0655 7.82617L17.9207 8.74778L19.0615 8.21941L18.4491 9.31741L19.3043 10.2391L18.0707 9.99606L17.4584 11.0942L17.3084 9.84588L16.0748 9.60283L17.2156 9.07445L17.0655 7.82617Z" fill="#F0F0F0"/>
</g>
</svg>
