<svg width="25" height="25" viewBox="0 0 25 25" fill="none" xmlns="http://www.w3.org/2000/svg">
<path d="M12.5601 24.625C19.1875 24.625 24.5601 19.2524 24.5601 12.625C24.5601 5.99758 19.1875 0.625 12.5601 0.625C5.93263 0.625 0.560059 5.99758 0.560059 12.625C0.560059 19.2524 5.93263 24.625 12.5601 24.625Z" fill="#0092C8"/>
<path fill-rule="evenodd" clip-rule="evenodd" d="M1.12851 16.2851H7.94193V9.03711H1.10559C0.751105 10.17 0.560059 11.3751 0.560059 12.6249C0.560059 13.9013 0.759349 15.1312 1.12851 16.2851Z" fill="white"/>
<path d="M7.2358 13.2506C7.15915 13.3029 7.07754 13.3147 7.0175 13.2827C6.97086 13.2574 6.96589 13.2726 7.00419 13.3231C7.0242 13.3484 7.06915 13.3753 7.10914 13.3854C7.14753 13.3956 7.21414 13.4191 7.2575 13.436C7.35744 13.4781 7.44744 13.4781 7.51573 13.436C7.65406 13.3517 7.56739 13.2001 7.38242 13.2001C7.32912 13.2001 7.28914 13.2135 7.2358 13.2506ZM7.63737 13.4343C7.62908 13.4528 7.62073 13.5034 7.62073 13.5489C7.6174 13.8505 7.49909 14.1352 7.27578 14.3812C7.2275 14.4335 7.18751 14.4807 7.18751 14.4874C7.18751 14.5042 7.43745 14.4992 7.47078 14.4806C7.50078 14.4655 7.50406 14.4705 7.51409 14.5295C7.5274 14.6104 7.5724 14.6879 7.62739 14.725C7.6624 14.7486 7.67572 14.7502 7.71406 14.73C7.78072 14.698 7.82403 14.6289 7.83237 14.5413C7.84067 14.4756 7.84737 14.4638 7.86898 14.4756C7.88403 14.4824 7.95903 14.4907 8.03567 14.4941L8.17564 14.5009L8.10228 14.4133C7.964 14.2481 7.91904 14.1858 7.86401 14.0763C7.78737 13.9263 7.75573 13.8084 7.74237 13.6297C7.73736 13.5455 7.72573 13.4613 7.71903 13.4393C7.70239 13.3939 7.66072 13.3905 7.63737 13.4343ZM4.78974 12.6807C4.76807 12.7077 4.74309 12.7582 4.73808 12.7903C4.73142 12.824 4.71143 12.8829 4.69475 12.9217C4.65144 13.0194 4.65309 13.102 4.69976 13.1728C4.75808 13.2621 4.85638 13.2604 4.90306 13.1712C4.94636 13.0886 4.93472 12.9723 4.87637 12.8848C4.82472 12.8089 4.81806 12.7398 4.8514 12.6606C4.87307 12.6151 4.83472 12.627 4.78974 12.6809V12.6807ZM4.99638 13.2149C4.96472 13.2284 4.9297 13.2519 4.91804 13.2688C4.82471 13.3918 5.03637 13.5266 5.18964 13.444C5.35461 13.353 5.35962 13.3514 5.43795 13.3783C5.50461 13.4002 5.50794 13.4002 5.49458 13.3732C5.46795 13.3227 5.42628 13.2991 5.26465 13.2435C5.07967 13.1812 5.07302 13.1812 4.99638 13.2149ZM4.35981 13.2553C4.28317 13.3076 4.20152 13.3193 4.14153 13.2873C4.09486 13.2621 4.08987 13.2772 4.12819 13.3278C4.14819 13.353 4.19319 13.38 4.23318 13.3901C4.2715 13.4002 4.33814 13.4238 4.38148 13.4407C4.48145 13.4828 4.57143 13.4828 4.63977 13.4407C4.77807 13.3564 4.69143 13.2048 4.50646 13.2048C4.45313 13.2048 4.41314 13.2182 4.35981 13.2553ZM4.76142 13.439C4.75309 13.4575 4.74474 13.5081 4.74474 13.5536C4.74142 13.8552 4.62309 14.1399 4.3998 14.3859C4.35149 14.4382 4.31149 14.4854 4.31149 14.4921C4.31149 14.5089 4.56144 14.5039 4.59477 14.4854C4.62476 14.4702 4.62811 14.4752 4.6381 14.5342C4.65145 14.6151 4.69642 14.6926 4.75142 14.7297C4.7864 14.7532 4.79974 14.7549 4.83805 14.7347C4.90473 14.7027 4.94803 14.6336 4.95636 14.546C4.96472 14.4803 4.97137 14.4685 4.99304 14.4803C5.00801 14.487 5.08301 14.4954 5.15965 14.4988L5.29967 14.5056L5.22631 14.418C5.08803 14.2528 5.04302 14.1905 4.98802 14.081C4.91139 13.931 4.87972 13.813 4.86638 13.6344C4.86139 13.5502 4.84973 13.4659 4.84307 13.444C4.82639 13.3985 4.78472 13.3951 4.76142 13.439ZM7.59781 8.70586C7.58947 8.72437 7.58112 8.7749 7.58112 8.82042C7.57779 9.12201 7.45948 9.40678 7.23617 9.65278C7.18789 9.705 7.14786 9.7522 7.14786 9.75895C7.14786 9.77578 7.39784 9.77072 7.43117 9.75215C7.46117 9.73701 7.4645 9.74208 7.47448 9.80104C7.48784 9.88195 7.53279 9.95944 7.58783 9.99651C7.62279 10.0201 7.63611 10.0218 7.67445 10.0016C7.74111 9.96956 7.78442 9.90047 7.79276 9.81286C7.80111 9.74714 7.80776 9.73533 7.82942 9.74714C7.84442 9.75389 7.91942 9.76228 7.99601 9.76565L8.13603 9.7724L8.06272 9.68479C7.92439 9.51965 7.87939 9.45736 7.8244 9.34781C7.74776 9.19786 7.71612 9.07992 7.70276 8.90128C7.69779 8.81704 7.68612 8.73281 7.67947 8.71087C7.66278 8.6654 7.62111 8.66203 7.59781 8.70586ZM4.7218 8.7105C4.71347 8.72906 4.70515 8.77959 4.70515 8.82511C4.7018 9.1267 4.5835 9.41142 4.36022 9.65747C4.3119 9.70969 4.27191 9.75689 4.27191 9.76359C4.27191 9.78047 4.52185 9.7754 4.55518 9.75689C4.58518 9.7417 4.58849 9.74676 4.59849 9.80573C4.61183 9.88659 4.65683 9.96412 4.7118 10.0012C4.74681 10.0248 4.76012 10.0265 4.79847 10.0062C4.86511 9.97425 4.90844 9.90515 4.91677 9.8175C4.9251 9.75183 4.93175 9.74001 4.95342 9.75183C4.96843 9.75853 5.04339 9.76697 5.12006 9.77034L5.26001 9.77709L5.18671 9.68948C5.04841 9.52434 5.00341 9.462 4.94844 9.3525C4.87176 9.20254 4.8401 9.08456 4.82679 8.90597C4.82177 8.82173 4.81011 8.73745 4.80345 8.71556C4.7868 8.67004 4.74514 8.66667 4.7218 8.7105ZM6.24631 15.1198C6.22465 15.1468 6.19967 15.1973 6.19465 15.2293C6.188 15.2631 6.16803 15.322 6.15139 15.3607C6.10803 15.4585 6.10972 15.5411 6.15636 15.6119C6.21467 15.7011 6.31301 15.6994 6.35965 15.6103C6.40297 15.5277 6.39129 15.4114 6.33298 15.3238C6.28133 15.248 6.27467 15.1789 6.308 15.0997C6.32965 15.0542 6.29131 15.066 6.24631 15.12V15.1198ZM6.45298 15.654C6.42129 15.6674 6.38633 15.691 6.37465 15.7079C6.28133 15.8309 6.49297 15.9657 6.64625 15.8831C6.81125 15.7921 6.81622 15.7905 6.89455 15.8174C6.9612 15.8393 6.96453 15.8393 6.95122 15.8123C6.92455 15.7618 6.88287 15.7382 6.72125 15.6826C6.53628 15.6202 6.52962 15.6202 6.45298 15.654ZM5.81642 15.6944C5.73978 15.7466 5.65812 15.7584 5.59812 15.7264C5.55148 15.7011 5.54647 15.7163 5.58481 15.7668C5.60483 15.7921 5.64978 15.8191 5.68976 15.8292C5.72811 15.8393 5.79476 15.8629 5.83808 15.8797C5.93806 15.9219 6.02806 15.9219 6.09636 15.8797C6.23464 15.7955 6.14801 15.6438 5.96304 15.6438C5.90975 15.6438 5.86972 15.6573 5.81642 15.6944ZM6.24833 15.8664C6.23998 15.8847 6.23169 15.9348 6.23169 15.9799C6.22831 16.2787 6.11004 16.5608 5.88683 16.8046C5.83854 16.8563 5.79856 16.9031 5.79856 16.9098C5.79856 16.9265 6.0484 16.9215 6.08173 16.9031C6.11173 16.8881 6.11506 16.893 6.12504 16.9515C6.13836 17.0317 6.18336 17.1084 6.23834 17.1451C6.27331 17.1685 6.28662 17.1702 6.32497 17.1502C6.39158 17.1184 6.43494 17.05 6.44323 16.9632C6.45158 16.8981 6.45823 16.8864 6.47989 16.8981C6.49489 16.9048 6.56984 16.9131 6.64648 16.9164L6.7864 16.9231L6.71309 16.8363C6.57486 16.6727 6.52986 16.611 6.47492 16.5024C6.39823 16.3538 6.36659 16.237 6.35328 16.0601C6.34826 15.9766 6.33659 15.8931 6.32994 15.8714C6.31329 15.8264 6.27167 15.823 6.24833 15.8664ZM3.37036 15.1245C3.34869 15.1515 3.32368 15.202 3.31869 15.234C3.31201 15.2677 3.29201 15.3267 3.27536 15.3654C3.23203 15.4632 3.2337 15.5457 3.28038 15.6165C3.33869 15.7058 3.437 15.7041 3.48367 15.615C3.52697 15.5324 3.51531 15.4161 3.45699 15.3285C3.40533 15.2527 3.39868 15.1836 3.43202 15.1044C3.45368 15.0589 3.41533 15.0707 3.37036 15.1246V15.1245ZM3.57696 15.6586C3.5453 15.6721 3.51032 15.6957 3.49865 15.7125C3.40533 15.8355 3.61695 15.9703 3.77026 15.8878C3.93524 15.7968 3.94025 15.7951 4.01856 15.822C4.0852 15.844 4.08855 15.844 4.07521 15.817C4.04855 15.7665 4.00689 15.7429 3.84526 15.6872C3.66029 15.6249 3.65363 15.6249 3.57696 15.6586ZM2.94043 15.699C2.86379 15.7513 2.78214 15.7631 2.72215 15.7311C2.67548 15.7058 2.67049 15.721 2.70881 15.7715C2.72881 15.7968 2.77381 15.8237 2.8138 15.8339C2.85212 15.844 2.91876 15.8676 2.96209 15.8844C3.06207 15.9265 3.15205 15.9265 3.22039 15.8844C3.35869 15.8002 3.27202 15.6485 3.08708 15.6485C3.03375 15.6485 2.99376 15.662 2.94043 15.699ZM3.37312 15.871C3.36476 15.8894 3.35644 15.9395 3.35644 15.9845C3.3531 16.2833 3.23483 16.5655 3.0116 16.8092C2.9633 16.861 2.92332 16.9077 2.92332 16.9144C2.92332 16.9311 3.17319 16.9261 3.20652 16.9077C3.2365 16.8927 3.23984 16.8977 3.24984 16.9561C3.26315 17.0362 3.30814 17.1131 3.36313 17.1498C3.39809 17.1731 3.41143 17.1748 3.44974 17.1548C3.51636 17.1231 3.55968 17.0546 3.56801 16.9678C3.57633 16.9027 3.58302 16.891 3.60467 16.9027C3.61965 16.9094 3.69463 16.9177 3.77125 16.9211L3.91118 16.9277L3.8379 16.841C3.69961 16.6773 3.65465 16.6156 3.59966 16.507C3.52305 16.3585 3.49139 16.2416 3.47805 16.0647C3.47307 15.9812 3.46141 15.8977 3.45472 15.876C3.43807 15.831 3.39642 15.8276 3.37312 15.871ZM6.23731 10.33C6.21561 10.3569 6.19062 10.4075 6.18561 10.4395C6.17895 10.4732 6.15898 10.5322 6.14229 10.5709C6.09898 10.6687 6.10067 10.7512 6.14731 10.822C6.20562 10.9113 6.30397 10.9096 6.35061 10.8204C6.39392 10.7378 6.38225 10.6216 6.32394 10.534C6.27228 10.4581 6.26562 10.3891 6.29895 10.3099C6.32061 10.2644 6.28231 10.2762 6.23731 10.3301V10.33ZM6.44394 10.8641C6.41225 10.8776 6.37728 10.9012 6.36561 10.918C6.27228 11.041 6.48392 11.1758 6.63725 11.0933C6.80215 11.0023 6.80717 11.0006 6.8855 11.0276C6.95215 11.0495 6.95548 11.0495 6.94217 11.0225C6.9155 10.972 6.87383 10.9484 6.7122 10.8928C6.52723 10.8304 6.52058 10.8304 6.44394 10.8641ZM5.80737 10.9046C5.73073 10.9568 5.64908 10.9686 5.58908 10.9365C5.54244 10.9113 5.53742 10.9264 5.57576 10.977C5.59573 11.0023 5.64073 11.0293 5.68072 11.0393C5.71906 11.0494 5.78572 11.073 5.82903 11.0899C5.92901 11.1321 6.01901 11.1321 6.08731 11.0899C6.22564 11.0056 6.13897 10.854 5.954 10.854C5.9007 10.854 5.86067 10.8675 5.80737 10.9046ZM6.20895 11.0882C6.20065 11.1067 6.19231 11.1573 6.19231 11.2028C6.18898 11.5044 6.07067 11.7892 5.8474 12.0352C5.79903 12.0874 5.75904 12.1346 5.75904 12.1413C5.75904 12.1582 6.00903 12.1531 6.04231 12.1346C6.07231 12.1194 6.07564 12.1245 6.08567 12.1834C6.09898 12.2643 6.14398 12.3418 6.19897 12.3789C6.23394 12.4025 6.24729 12.4042 6.28559 12.384C6.35229 12.3519 6.39561 12.2828 6.40395 12.1952C6.41225 12.1295 6.4189 12.1177 6.44056 12.1295C6.45561 12.1363 6.53056 12.1447 6.60725 12.1481L6.74722 12.1548L6.67386 12.0672C6.53558 11.9021 6.49058 11.8397 6.43559 11.7302C6.35895 11.5802 6.32726 11.4623 6.31395 11.2837C6.30894 11.1994 6.29726 11.1152 6.29061 11.0933C6.27397 11.0478 6.23229 11.0444 6.20895 11.0882ZM3.36132 10.3347C3.33965 10.3616 3.31464 10.4122 3.30966 10.4442C3.30297 10.4779 3.28298 10.5368 3.26633 10.5756C3.22299 10.6733 3.22466 10.7559 3.27131 10.8267C3.32965 10.916 3.42796 10.9143 3.47461 10.8251C3.51794 10.7425 3.50627 10.6263 3.44795 10.5386C3.3963 10.4628 3.38964 10.3937 3.42294 10.3146C3.44461 10.269 3.40629 10.2809 3.36132 10.3348V10.3347ZM3.56792 10.8688C3.53626 10.8823 3.50128 10.9058 3.48962 10.9227C3.39629 11.0457 3.60791 11.1805 3.76122 11.0979C3.9262 11.007 3.93118 11.0053 4.00952 11.0322C4.07616 11.0542 4.0795 11.0542 4.06616 11.0272C4.03952 10.9766 3.99785 10.953 3.83622 10.8974C3.65125 10.8351 3.64459 10.8351 3.56792 10.8688ZM2.93139 10.9092C2.85472 10.9614 2.7731 10.9732 2.71308 10.9412C2.66643 10.916 2.66145 10.9311 2.69977 10.9817C2.71976 11.007 2.76474 11.0339 2.80473 11.044C2.84308 11.0541 2.90972 11.0777 2.95306 11.0946C3.05303 11.1367 3.14301 11.1367 3.21132 11.0946C3.34965 11.0103 3.26298 10.8587 3.07801 10.8587C3.02471 10.8587 2.98472 10.8721 2.93139 10.9092ZM3.33296 11.0929C3.32464 11.1114 3.31631 11.162 3.31631 11.2074C3.31297 11.5091 3.19467 11.7938 2.97138 12.0398C2.92306 12.0921 2.88307 12.1393 2.88307 12.146C2.88307 12.1628 3.13301 12.1578 3.16635 12.1392C3.19634 12.1241 3.19965 12.1291 3.20965 12.1881C3.22299 12.269 3.26799 12.3465 3.32297 12.3835C3.35797 12.4072 3.37131 12.4088 3.40963 12.3886C3.47627 12.3566 3.51961 12.2875 3.52794 12.1999C3.53626 12.1342 3.54294 12.1224 3.56458 12.1342C3.57959 12.141 3.65459 12.1493 3.73123 12.1527L3.8712 12.1595L3.79787 12.0719C3.65957 11.9067 3.6146 11.8444 3.55959 11.7349C3.48296 11.5849 3.45129 11.4669 3.43795 11.2883C3.43294 11.2041 3.4213 11.1199 3.41462 11.0979C3.39797 11.0525 3.3563 11.0491 3.33296 11.0929Z" fill="black"/>
<path fill-rule="evenodd" clip-rule="evenodd" d="M1.10559 9.03702H7.94196V1.78906H7.39746C4.4113 3.21433 2.1067 5.83761 1.10559 9.03702Z" fill="#CC0000"/>
<path fill-rule="evenodd" clip-rule="evenodd" d="M1.51526 7.92515L3.49087 6.32849L6.83296 9.03702H7.94193V8.09479L4.62362 5.41307L7.94193 2.7313V1.78906H7.39743C4.76508 3.04547 2.66235 5.23283 1.51526 7.92515Z" fill="#08672F"/>
<path fill-rule="evenodd" clip-rule="evenodd" d="M2.46472 6.13543L2.77151 6.13519L2.77463 9.11007L4.21649 9.10913L4.21337 6.13393L7.94199 6.13065L7.94087 4.68882L4.21186 4.69207L4.21114 4.00586C3.55121 4.6452 2.96447 5.35965 2.46472 6.13543Z" fill="white"/>
<path fill-rule="evenodd" clip-rule="evenodd" d="M7.55197 23.5332H7.94197V16.2852H1.12854C2.15912 19.5065 4.51361 22.1359 7.55197 23.5332Z" fill="#CC0000"/>
<path fill-rule="evenodd" clip-rule="evenodd" d="M5.72797 22.4919C5.80442 22.4152 5.88528 22.4219 5.88528 22.4219L5.88481 22.4189C5.90708 22.4296 5.93178 22.4327 5.95475 22.4356L5.95836 22.4361C5.96155 22.4364 5.96469 22.4369 5.96778 22.4373C5.98151 22.4392 5.99117 22.4385 5.99816 22.4372C5.97875 22.5 5.97214 22.5857 6.00594 22.6544C6.01991 22.5891 6.04466 22.5402 6.06776 22.506C6.10316 22.5317 6.15936 22.5505 6.2368 22.5332C6.33069 22.5134 6.36111 22.4231 6.37405 22.3847C6.38042 22.3657 6.38253 22.3595 6.38591 22.3806C6.39219 22.42 6.42884 22.4559 6.47933 22.4731C6.48251 22.5027 6.49466 22.5183 6.51387 22.5404C6.53872 22.5689 6.56684 22.6536 6.56684 22.6536C6.56684 22.6536 6.60645 22.5424 6.62276 22.4665C6.66481 22.4341 6.67901 22.3507 6.67184 22.3112L6.67072 22.3058C6.66898 22.2973 6.66762 22.2906 6.66692 22.2856L6.68197 22.2802C6.68183 22.2799 6.68169 22.2795 6.68155 22.2791C6.68117 22.278 6.68075 22.277 6.68033 22.276C6.68431 22.2776 6.68928 22.28 6.69537 22.2829C6.69772 22.284 6.70025 22.2852 6.70297 22.2864L6.70709 22.2884C6.75795 22.286 6.78055 22.2599 6.78701 22.2271L6.80666 22.1962C6.80028 22.1922 6.79395 22.1879 6.78762 22.1834C6.78223 22.1441 6.76348 22.1054 6.74787 22.0898C6.73901 22.081 6.73015 22.0758 6.72298 22.0726L6.72359 22.0673C6.72969 22.0666 6.7377 22.0655 6.74787 22.0636C6.737 21.967 6.71422 21.9126 6.63064 21.9055C6.61901 21.904 6.61034 21.9032 6.6043 21.9026C6.59881 21.9021 6.59548 21.9018 6.59403 21.9014L6.59422 21.9C6.5953 21.8995 6.59726 21.8987 6.60008 21.8977C6.60645 21.8954 6.61705 21.8916 6.63064 21.8848C6.68005 21.8503 6.60003 21.7282 6.53375 21.7211C6.52803 21.7205 6.52297 21.7202 6.51851 21.7201C6.52391 21.7169 6.52995 21.7124 6.53647 21.7064C6.48837 21.642 6.41642 21.6114 6.33486 21.6114C6.31278 21.6114 6.29403 21.6127 6.27903 21.6138C6.25301 21.6156 6.23844 21.6165 6.23741 21.6086L6.23797 21.6048H6.23778C6.23895 21.6005 6.24237 21.5945 6.24819 21.5864C6.2788 21.5438 6.26473 21.4588 6.18547 21.4658C6.14951 21.4532 6.06978 21.4658 6.01878 21.5155C5.96778 21.5651 5.89639 21.6289 5.83522 21.6431L5.82861 21.6446C5.76303 21.66 5.60862 21.6962 5.54459 21.5935C5.47044 21.4215 5.17372 21.1211 4.78547 21.0749C4.8845 21.0743 5.78886 21.0757 6.33945 21.0765H6.33955C6.58278 21.0769 6.75697 21.0772 6.76217 21.0771C6.84847 21.0831 6.94419 21.1378 7.00353 21.1739C6.989 21.0952 6.86239 21.0087 6.7843 20.9931C6.74267 20.9844 6.61662 20.9702 6.56623 20.9655C6.59562 20.9493 6.63017 20.8445 6.62923 20.7736C6.62726 20.6219 6.51256 20.4436 6.35019 20.4448C6.27903 20.4403 5.91795 20.4516 5.63483 20.4605C5.4717 20.4656 5.33445 20.4699 5.29344 20.4699C5.21345 20.4699 5.13409 20.4888 5.07667 20.5124C5.21197 20.4478 5.37326 20.3454 5.39848 20.2647C5.51066 20.2364 5.57084 20.2008 5.34139 20.2108C5.29184 20.2224 5.12049 20.2587 5.00936 20.2821L5.0093 20.2821L5.00882 20.2822L5.00856 20.2823C4.98793 20.2866 4.96939 20.2906 4.95414 20.2938L4.94985 20.2836C4.93775 20.2886 4.9244 20.293 4.91014 20.2968C4.92006 20.2919 4.93218 20.2863 4.94583 20.28C4.82247 20.131 4.5636 20.1002 4.47324 20.1087C4.41196 20.1146 4.19518 20.1937 4.12382 20.2221C4.07411 20.2419 3.93218 20.2321 3.81954 20.2243C3.77036 20.2209 3.72677 20.2179 3.69887 20.2179C3.61644 20.2179 3.42292 20.2522 3.31787 20.2798C3.34244 20.3094 3.36716 20.3389 3.39202 20.3683C3.48037 20.3477 3.58016 20.3395 3.63259 20.3384C3.74755 20.3362 4.00973 20.3998 4.15163 20.4965C4.23252 20.5491 4.44347 20.5635 4.5162 20.5685C4.52245 20.5689 4.52769 20.5693 4.53172 20.5696C4.53446 20.5701 4.53773 20.5706 4.54145 20.5711C4.53363 20.5709 4.52599 20.5708 4.51859 20.5708C4.41661 20.5708 4.22914 20.5795 4.14247 20.615C4.06335 20.6474 3.80149 20.6619 3.66338 20.6697C3.66083 20.6698 3.65832 20.6699 3.65586 20.6701C3.68598 20.7034 3.71629 20.7366 3.74679 20.7696C3.885 20.7707 4.00587 20.7695 4.0405 20.7639C4.09669 20.7547 4.22362 20.7306 4.31705 20.7128L4.31711 20.7128C4.36775 20.7032 4.40855 20.6954 4.42288 20.693C4.46367 20.6859 4.42509 20.8076 4.39957 20.8289C4.37409 20.8501 4.38955 20.8991 4.55056 20.8568C4.55416 20.8556 4.55763 20.8543 4.56091 20.853C4.56783 20.8504 4.5739 20.8481 4.57854 20.8482L4.5811 20.8531L4.58492 20.8511C4.58666 20.8532 4.58775 20.8567 4.58806 20.8619C4.59828 20.8911 4.74036 20.8792 4.77466 20.8641C4.77893 20.8619 4.78285 20.8599 4.78646 20.8581L4.78647 20.8581H4.78653L4.78657 20.858H4.78662L4.78666 20.858H4.78671L4.78674 20.8579H4.78679L4.78684 20.8579C4.79748 20.8525 4.80531 20.8485 4.81077 20.8461L4.81639 20.8553C4.81484 20.8581 4.81294 20.8612 4.81075 20.8649L4.80884 20.8681C4.84196 20.8892 5.02229 20.8813 5.04781 20.8601C5.08211 20.8327 5.09301 20.8409 5.08279 20.8672C5.07702 20.8904 5.20752 20.8853 5.23644 20.8672C5.24651 20.8631 5.25359 20.8552 5.25833 20.8499C5.26409 20.8436 5.26634 20.841 5.26634 20.8537C5.26634 20.8892 5.35705 20.8851 5.3892 20.8579C5.40116 20.8442 5.41386 20.8279 5.42637 20.8119C5.44981 20.782 5.47255 20.7529 5.48853 20.7426C5.53948 20.693 5.64148 20.6575 5.71283 20.6433C5.78426 20.6292 6.17684 20.6292 6.2533 20.6362C6.3298 20.6433 6.40611 20.6999 6.41126 20.7779C6.41633 20.8559 6.31962 20.9199 6.2533 20.927C6.22231 20.9302 5.70256 20.9218 5.14929 20.9128C4.61705 20.9041 4.05376 20.8949 3.86467 20.8952C4.01558 21.0539 4.17079 21.2084 4.3301 21.3585C4.34266 21.3597 4.35553 21.3609 4.36871 21.3621C4.48596 21.3764 4.74281 21.5068 4.81039 21.7708C4.81307 21.7791 4.81585 21.787 4.81871 21.7948C4.90033 21.8637 4.98289 21.9316 5.06635 21.9985C5.07556 21.9993 5.0843 21.9999 5.09243 22.0004C5.10804 22.0015 5.12141 22.0024 5.1316 22.0047C5.19074 22.0184 5.52664 22.0339 5.74198 21.9372C5.74976 21.9405 5.7567 21.9392 5.75984 21.9384C5.76317 21.9374 5.7657 21.936 5.76701 21.9353C5.76969 21.9337 5.77194 21.9318 5.7733 21.9306C5.77583 21.9285 5.77967 21.9248 5.78422 21.9205C5.8978 21.8984 6.2008 22.0012 6.2533 22.0544C6.30941 22.1111 6.29923 22.1749 6.26351 22.1394C6.24308 22.1191 6.18411 22.1082 6.12505 22.0971C6.08098 22.0889 6.03687 22.0806 6.00861 22.0686C5.99136 22.0612 5.97687 22.0629 5.96544 22.0696L5.96623 22.0588C5.945 22.0117 5.79528 22.0505 5.76566 22.1982C5.86653 22.1374 5.95667 22.1875 5.95667 22.1875L5.95873 22.16C5.96816 22.1703 5.96628 22.1895 5.95503 22.2039C5.94411 22.2066 5.93356 22.2097 5.92381 22.2131L5.92658 22.2211L5.92578 22.2212C5.86592 22.227 5.84117 22.2575 5.83128 22.2918C5.78666 22.3072 5.71925 22.3789 5.70795 22.478C5.71461 22.4826 5.72131 22.4872 5.72797 22.4919ZM4.69834 21.6917C4.70607 21.6133 4.67544 21.5749 4.63698 21.5411C4.63883 21.5324 4.6406 21.5232 4.64231 21.5136L4.60664 21.5157L4.60644 21.5155C4.58563 21.4981 4.53795 21.4954 4.48186 21.4992C4.55324 21.5642 4.6254 21.6284 4.69834 21.6917ZM4.91681 20.5732C4.94604 20.5674 4.99241 20.5507 5.04514 20.5271C5.03544 20.5321 5.02681 20.5373 5.01944 20.5424C4.97996 20.5699 4.90682 20.577 4.85452 20.5822C4.83929 20.5836 4.82583 20.585 4.81548 20.5866C4.79516 20.5897 4.7546 20.587 4.70685 20.5829C4.78238 20.5852 4.86414 20.5836 4.91681 20.5732Z" fill="#F2C94C"/>
<path fill-rule="evenodd" clip-rule="evenodd" d="M2.54716 19.241C2.58726 19.1866 2.61311 19.1106 2.59752 19.0075C2.59527 18.9762 2.59801 18.9517 2.60441 18.9386L2.61381 18.9412C2.61511 18.9365 2.61644 18.9321 2.61781 18.9277C2.62076 18.9278 2.62397 18.929 2.62742 18.9316C2.62826 18.9419 2.63127 18.9516 2.63711 18.9597L2.64538 18.9538C2.67705 19 2.74922 18.9893 2.79915 18.9476C2.80902 18.9394 2.83774 18.9184 2.87818 18.8894C2.88875 18.8862 2.89999 18.8825 2.91196 18.8785C2.91722 18.8766 2.92002 18.8709 2.91821 18.8657C2.91776 18.8644 2.91706 18.8632 2.91617 18.8622C2.93402 18.8495 2.95327 18.8357 2.97354 18.8213L2.99422 18.8066C3.002 18.8037 3.01008 18.8006 3.01849 18.7973C3.02334 18.7954 3.0258 18.7901 3.02417 18.7852C3.05324 18.7645 3.08355 18.7428 3.11414 18.7208C3.12805 18.7151 3.14342 18.7067 3.16065 18.6966C3.16442 18.6944 3.16569 18.6895 3.16347 18.6858L3.1633 18.6855C3.18864 18.6672 3.21382 18.6489 3.23827 18.6311C3.2448 18.6282 3.25158 18.625 3.25864 18.6216C3.26213 18.6199 3.26401 18.6162 3.26355 18.6126C3.36564 18.5376 3.45093 18.4722 3.4761 18.4447C3.5475 18.3668 3.77023 18.2772 3.8569 18.263C3.87956 18.2593 3.9052 18.2601 3.92648 18.2661C3.92775 18.2667 3.92939 18.2671 3.93139 18.2677C3.98785 18.2866 4.00704 18.3457 3.83651 18.4616C3.79572 18.497 3.76514 18.6459 3.81102 18.6885C3.83272 18.7086 3.86922 18.7477 3.90599 18.7871C3.947 18.8311 3.98835 18.8754 4.00985 18.8941C4.05064 18.9296 4.04555 19.043 3.97928 19.0359C3.95801 19.0336 3.9273 19.0372 3.89471 19.041C3.82574 19.049 3.74838 19.058 3.73454 19.0146C3.71414 18.9508 3.66826 18.8799 3.60198 18.8516C3.58187 18.8429 3.5627 18.8382 3.54617 18.8367C3.5207 18.7866 3.39548 18.7439 3.3266 18.8441C3.38116 18.8503 3.42403 18.8791 3.45334 18.9064C3.40361 18.908 3.37104 18.9413 3.34194 18.988C3.28642 18.98 3.15288 19.0916 3.15903 19.25C3.24973 19.1458 3.35516 19.1409 3.37839 19.1412C3.37824 19.1425 3.37811 19.1438 3.37799 19.145L3.37655 19.1424C3.33681 19.1483 3.24092 19.3944 3.39381 19.4822C3.396 19.4135 3.41174 19.3574 3.42841 19.3164C3.46232 19.342 3.51331 19.3509 3.58158 19.3054C3.60466 19.3025 3.61565 19.2947 3.62095 19.2906L3.62605 19.2928L3.62612 19.2953C3.62624 19.3002 3.62643 19.308 3.62747 19.3196C3.62874 19.3337 3.63585 19.3452 3.64652 19.3543C3.63301 19.4093 3.70218 19.5742 3.80572 19.5697C3.76556 19.5051 3.7502 19.4345 3.74446 19.3849C3.75705 19.3854 3.76866 19.3848 3.77803 19.3834C3.79924 19.3801 3.81116 19.3677 3.82037 19.3581C3.82423 19.3542 3.82762 19.3506 3.83101 19.3485C3.83807 19.3544 3.83807 19.3544 3.83807 19.3544L3.83808 19.3544L3.83815 19.3543L3.83834 19.3541L3.83904 19.3532C3.83965 19.3525 3.84052 19.3514 3.84163 19.35L3.84332 19.3478C3.84588 19.3492 3.84867 19.3515 3.85181 19.355C3.86465 19.379 3.94791 19.3792 3.98369 19.3485L3.98439 19.349C3.98637 19.3903 4.09609 19.3811 4.11981 19.3663C4.138 19.3581 4.16568 19.3249 4.17757 19.3107L4.17779 19.3104L4.17882 19.3114L4.17811 19.3124C4.09439 19.4025 4.28229 19.3763 4.31712 19.3623C4.32308 19.3588 4.32834 19.3553 4.33288 19.3522L4.34553 19.3658L4.34589 19.3655L4.34515 19.3673C4.38591 19.3886 4.53026 19.3478 4.54724 19.327C4.56141 19.3106 4.57436 19.2714 4.58261 19.2458L4.58831 19.247L4.58983 19.2473C4.58799 19.2668 4.58737 19.2874 4.60212 19.2929C4.6883 19.2851 4.73896 19.1777 4.74408 19.121C4.74917 19.0643 4.74917 19.0643 4.78997 19.0926C4.83076 19.121 4.89703 19.0359 4.85115 18.9934C4.84475 18.9875 4.83864 18.9816 4.83268 18.976C4.79594 18.9411 4.7647 18.9114 4.70329 18.887C4.63189 18.8586 4.6115 18.7736 4.65741 18.731C4.66394 18.725 4.66922 18.7204 4.67352 18.7166L4.67353 18.7166C4.68201 18.7092 4.68665 18.7051 4.68935 18.7001C4.69261 18.694 4.69307 18.6863 4.69407 18.6695C4.69478 18.6577 4.69576 18.6413 4.6982 18.6176C4.70632 18.5384 4.67558 18.4999 4.63693 18.4659C4.63879 18.4571 4.64056 18.4479 4.64227 18.4383L4.60649 18.4404L4.60641 18.4403C4.57451 18.4137 4.47948 18.4214 4.38782 18.4344C4.39575 18.3725 4.39356 18.3785 4.38403 18.4045C4.38074 18.4135 4.37657 18.425 4.37165 18.4368C4.34824 18.4402 4.32532 18.4439 4.30402 18.4474H4.30396C4.2806 18.4512 4.25918 18.4546 4.24119 18.4572C4.18614 18.4438 4.19206 18.3598 4.19575 18.3075C4.19614 18.302 4.1965 18.2969 4.19677 18.2922C4.05214 18.2853 3.95859 18.2748 3.93139 18.2677C3.92978 18.2671 3.92814 18.2666 3.92648 18.2661C3.90002 18.2561 4.02954 18.2549 4.36868 18.287C4.48593 18.3012 4.74278 18.4316 4.81036 18.6956C4.87982 18.911 5.01417 18.92 5.0924 18.9253C5.10801 18.9263 5.12138 18.9272 5.13156 18.9296C5.19072 18.9433 5.52674 18.9587 5.74209 18.8619C5.74982 18.8652 5.75671 18.8639 5.7598 18.8631C5.76313 18.8622 5.76566 18.8608 5.76698 18.86C5.76965 18.8584 5.7719 18.8565 5.77326 18.8554C5.77579 18.8532 5.77954 18.8496 5.78404 18.8453C5.89752 18.8231 6.20076 18.926 6.25326 18.9792C6.30937 19.0359 6.29919 19.0997 6.26348 19.0643C6.24304 19.044 6.18407 19.033 6.12501 19.022C6.08094 19.0137 6.03684 19.0055 6.00857 18.9934C5.99132 18.986 5.97684 18.9877 5.9654 18.9944L5.96619 18.9836C5.94496 18.9365 5.79524 18.9753 5.76562 19.123C5.86649 19.0622 5.95663 19.1123 5.95663 19.1123L5.95869 19.0848C5.96812 19.0951 5.96624 19.1143 5.95499 19.1287C5.94407 19.1315 5.93352 19.1345 5.92377 19.1379L5.92654 19.1459L5.92574 19.146C5.86588 19.1518 5.84118 19.1823 5.83124 19.2165C5.78109 19.234 5.70219 19.3222 5.70641 19.4408C5.7883 19.3387 5.88524 19.3467 5.88524 19.3467L5.88477 19.3437C5.90704 19.3544 5.93174 19.3575 5.95471 19.3604C5.95659 19.3606 5.95846 19.3609 5.96034 19.3611C5.96287 19.3614 5.9653 19.3618 5.96774 19.3621C5.98148 19.364 5.99113 19.3633 5.99812 19.362C5.97871 19.4248 5.9721 19.5105 6.0059 19.5792C6.01987 19.5139 6.04462 19.465 6.06773 19.4308C6.10312 19.4565 6.15932 19.4753 6.2368 19.458C6.33065 19.4383 6.36107 19.3479 6.37401 19.3095C6.38038 19.2905 6.38249 19.2843 6.38587 19.3054C6.39215 19.3448 6.42885 19.3807 6.47929 19.3979C6.48252 19.4275 6.49462 19.4431 6.51384 19.4652C6.53868 19.4937 6.5668 19.5784 6.5668 19.5784C6.5668 19.5784 6.60641 19.4673 6.62273 19.3913C6.66477 19.3589 6.67898 19.2755 6.6718 19.236L6.67068 19.2306C6.66895 19.2221 6.66759 19.2155 6.66688 19.2105L6.68193 19.205C6.68141 19.2036 6.68085 19.2022 6.68029 19.2008C6.68427 19.2024 6.68924 19.2048 6.69534 19.2077L6.69543 19.2077L6.70176 19.2107L6.70429 19.2119L6.70705 19.2132C6.75801 19.2108 6.78055 19.1846 6.78702 19.1518L6.80662 19.121C6.80024 19.1169 6.79391 19.1126 6.78754 19.108C6.78215 19.0689 6.76344 19.0302 6.74784 19.0146C6.73898 19.0058 6.73012 19.0006 6.72294 18.9975L6.72355 18.9921C6.72965 18.9915 6.73766 18.9903 6.74784 18.9884C6.73696 18.8918 6.71418 18.8374 6.6306 18.8303C6.61898 18.8288 6.6103 18.828 6.60426 18.8274C6.59877 18.8269 6.59545 18.8266 6.59399 18.8262L6.59418 18.8248C6.59526 18.8243 6.59723 18.8236 6.60004 18.8225C6.60641 18.8202 6.61701 18.8164 6.6306 18.8096C6.68001 18.7752 6.59999 18.653 6.53371 18.6459C6.52799 18.6453 6.52293 18.645 6.51848 18.6449C6.52387 18.6417 6.52991 18.6372 6.53643 18.6312C6.48834 18.5668 6.41638 18.5362 6.33487 18.5362C6.31274 18.5362 6.29399 18.5375 6.27899 18.5386C6.25298 18.5404 6.2384 18.5413 6.23737 18.5334L6.23793 18.5296H6.23774C6.23891 18.5253 6.24234 18.5194 6.24819 18.5112C6.2788 18.4686 6.26469 18.3836 6.18543 18.3906C6.14948 18.378 6.06974 18.3906 6.01874 18.4403C5.96774 18.4899 5.89635 18.5538 5.83518 18.5679L5.82857 18.5695C5.76299 18.5848 5.60859 18.621 5.54455 18.5183C5.47044 18.3463 5.17368 18.0459 4.78543 17.9997C4.88446 17.9991 5.78859 18.0005 6.33923 18.0014H6.33951C6.58274 18.0017 6.75693 18.002 6.76213 18.002C6.84843 18.008 6.94415 18.0626 7.00349 18.0988C6.98896 18.02 6.86235 17.9335 6.78426 17.918C6.74268 17.9093 6.61659 17.895 6.56619 17.8903C6.59559 17.8741 6.63013 17.7693 6.62919 17.6984C6.62723 17.5468 6.51252 17.3685 6.35015 17.3696C6.27899 17.3651 5.91791 17.3764 5.63479 17.3853C5.47166 17.3904 5.33441 17.3947 5.2934 17.3947C5.21342 17.3947 5.13406 17.4136 5.07663 17.4372C5.21193 17.3726 5.37323 17.2703 5.39844 17.1895C5.51062 17.1612 5.5708 17.1257 5.34135 17.1356C5.2918 17.1473 5.1204 17.1835 5.00927 17.207C4.98834 17.2114 4.96954 17.2153 4.95411 17.2186L4.94981 17.2084C4.93772 17.2134 4.92437 17.2178 4.91011 17.2216C4.92002 17.2168 4.93214 17.2111 4.9458 17.2048C4.82244 17.0558 4.56357 17.025 4.4732 17.0335C4.41192 17.0394 4.19515 17.1186 4.12378 17.147C4.07408 17.1667 3.93214 17.1569 3.8195 17.1491C3.77033 17.1457 3.72673 17.1427 3.69884 17.1427C3.60707 17.1427 3.37764 17.1852 3.28584 17.2136C3.19408 17.242 3.04224 17.2889 3.05131 17.476C3.05643 17.5925 3.15329 17.6745 3.23996 17.6816C3.32663 17.6887 3.95379 17.7028 4.04046 17.6887C4.09666 17.6795 4.22358 17.6554 4.31702 17.6376H4.31708C4.36772 17.628 4.40852 17.6202 4.42285 17.6178C4.46364 17.6107 4.42505 17.7324 4.39954 17.7537C4.37405 17.7749 4.38951 17.8239 4.55053 17.7816C4.55413 17.7804 4.5576 17.7791 4.56088 17.7778C4.56779 17.7752 4.57386 17.7729 4.57851 17.773L4.58106 17.7779L4.58489 17.7759C4.58663 17.778 4.58772 17.7815 4.58803 17.7868C4.59824 17.8159 4.74032 17.804 4.77463 17.7889C4.77888 17.7868 4.7828 17.7847 4.7864 17.7829C4.79723 17.7774 4.80521 17.7733 4.81074 17.7709L4.81636 17.7801C4.81483 17.7828 4.81298 17.7859 4.81084 17.7895L4.81082 17.7896L4.81072 17.7897L4.80881 17.7929C4.84193 17.814 5.02226 17.8061 5.04778 17.7849C5.08208 17.7575 5.09297 17.7657 5.08276 17.792C5.07699 17.8152 5.20749 17.8101 5.23644 17.792C5.24652 17.7879 5.2536 17.78 5.25829 17.7747C5.26405 17.7684 5.2663 17.7658 5.2663 17.7785C5.2663 17.814 5.35701 17.81 5.38916 17.7828C5.40112 17.769 5.41382 17.7528 5.42634 17.7367C5.44977 17.7068 5.47251 17.6777 5.48849 17.6674C5.53944 17.6178 5.64144 17.5823 5.71279 17.5681C5.78423 17.554 6.1768 17.554 6.25326 17.561C6.32976 17.5681 6.40607 17.6247 6.41123 17.7027C6.41629 17.7807 6.31959 17.8447 6.25326 17.8518C6.22227 17.855 5.70257 17.8466 5.14928 17.8376C4.51865 17.8273 3.84441 17.8163 3.80069 17.8213C3.75221 17.8331 3.70157 17.8396 3.65335 17.8458C3.59854 17.8528 3.54686 17.8595 3.5051 17.873C3.49022 17.8781 3.47583 17.8831 3.46195 17.888C3.40592 17.9075 3.35831 17.9241 3.32154 17.9298C3.27566 17.9368 3.05131 17.9439 2.99012 17.9439C2.94372 17.9336 2.89436 17.9139 2.85476 17.8956C2.85685 17.8931 2.85881 17.8904 2.86063 17.8878L2.86749 17.8776L2.8562 17.8729C2.81647 17.8561 2.78567 17.8497 2.76267 17.8463C2.75549 17.8453 2.74875 17.8445 2.74303 17.8439C2.7399 17.8435 2.73707 17.8432 2.73463 17.8429C2.72847 17.8421 2.72461 17.8413 2.72209 17.8404C2.80446 17.7213 2.7681 17.478 2.62413 17.5552C2.70705 17.4532 2.62391 17.3148 2.5559 17.3296C2.57465 17.2327 2.46451 17.1508 2.42188 17.2055C2.41614 17.0891 2.31755 17.0833 2.27918 17.1634C2.26828 17.0256 2.13678 17.0383 2.11382 17.1353C2.08777 17.0093 1.96981 17.0772 1.9677 17.1633C1.9364 17.0676 1.81571 17.1188 1.83005 17.2063C1.79013 17.1339 1.70874 17.186 1.72665 17.2644C1.68815 17.2161 1.60328 17.2925 1.65519 17.3889C1.61618 17.3493 1.57561 17.3619 1.54749 17.3995C1.82763 18.0447 2.16283 18.6605 2.54716 19.241ZM4.17882 19.3114L4.18243 19.3148L4.18443 19.3167C4.18502 19.3172 4.18502 19.3172 4.18502 19.3172L4.18505 19.3172L4.18511 19.3171L4.18531 19.3169L4.18605 19.3161C4.18668 19.3154 4.18759 19.3144 4.18874 19.3131C4.19105 19.3104 4.19432 19.3066 4.19829 19.3016C4.2062 19.2917 4.21688 19.2772 4.22803 19.2592C4.24227 19.2362 4.25739 19.2071 4.2684 19.1738C4.26167 19.173 4.2549 19.1721 4.24804 19.1712C4.23778 19.201 4.22406 19.2274 4.21091 19.2486C4.20026 19.2658 4.19005 19.2796 4.18254 19.289C4.17879 19.2938 4.17571 19.2974 4.17359 19.2998L4.17212 19.3015L4.17116 19.3025L4.17055 19.3033L4.17041 19.3034L4.1777 19.3103L4.17779 19.3104C4.18409 19.3028 4.18576 19.3009 4.17882 19.3114ZM2.8359 17.8867L2.83247 17.885L2.83445 17.8858L2.83614 17.8865L2.8359 17.8867ZM3.38063 19.1273L3.37303 19.0836C3.37652 19.0858 3.37967 19.0879 3.38223 19.09C3.38154 19.0921 3.38088 19.0942 3.38026 19.0963L3.3889 19.0988C3.38962 19.1014 3.38935 19.104 3.38782 19.1068C3.3846 19.1128 3.38228 19.1197 3.38063 19.1273ZM4.91678 17.498C4.946 17.4922 4.99237 17.4755 5.04511 17.4519C5.0354 17.4569 5.02678 17.4621 5.0194 17.4673C4.97993 17.4947 4.90679 17.5018 4.85449 17.507C4.83926 17.5085 4.8258 17.5098 4.81545 17.5114C4.79513 17.5145 4.75457 17.5118 4.70682 17.5078C4.78234 17.51 4.8641 17.5085 4.91678 17.498ZM4.53169 17.4944C4.53443 17.4949 4.53769 17.4954 4.54142 17.4959C4.53359 17.4958 4.52595 17.4956 4.51855 17.4956C4.41658 17.4956 4.22911 17.5043 4.14244 17.5398C4.06331 17.5722 3.80145 17.5868 3.66334 17.5945H3.66324C3.65011 17.5952 3.6381 17.5959 3.62747 17.5965C3.5051 17.6036 3.21798 17.5934 3.21956 17.405C3.21826 17.2978 3.52502 17.2654 3.63256 17.2632C3.74751 17.261 4.0097 17.3246 4.1516 17.4213C4.23249 17.4739 4.44344 17.4883 4.51616 17.4933C4.52241 17.4937 4.52765 17.4941 4.53169 17.4944Z" fill="#F2C94C"/>
<path d="M7.66571 12.6761C7.64405 12.7031 7.61902 12.7537 7.61405 12.7857C7.60735 12.8194 7.58738 12.8784 7.57074 12.9171C7.52738 13.0148 7.52907 13.0974 7.57571 13.1682C7.63407 13.2575 7.73237 13.2558 7.77901 13.1666C7.82232 13.084 7.81065 12.9678 7.75233 12.8801C7.70068 12.8043 7.69402 12.7353 7.72735 12.656C7.74901 12.6106 7.71066 12.6224 7.66571 12.6763V12.6761ZM7.87233 13.2103C7.84065 13.2238 7.80568 13.2474 7.79401 13.2642C7.70068 13.3872 7.91232 13.522 8.0656 13.4395C8.2306 13.3485 8.23557 13.3468 8.3139 13.3737C8.38055 13.3957 8.38388 13.3957 8.37057 13.3687C8.3439 13.3181 8.30227 13.2945 8.1406 13.2389C7.95563 13.1766 7.94897 13.1766 7.87233 13.2103Z" fill="black"/>
<path fill-rule="evenodd" clip-rule="evenodd" d="M16.9908 6.70974C16.9811 6.64791 17.0005 6.59256 17.046 6.54376C17.1305 6.45259 17.2899 6.45976 17.3776 6.54765C17.3991 6.56921 17.4149 6.59241 17.4251 6.61693C17.4367 6.64295 17.4433 6.67206 17.4433 6.7037C17.4433 6.75577 17.414 6.82412 17.3783 6.85665C17.3477 6.88543 17.2743 7.05966 17.2191 7.21679C17.179 7.33848 17.1511 7.44873 17.16 7.47531C17.1603 7.47615 17.1611 7.47723 17.1623 7.47859C17.1959 7.50948 17.301 7.58771 17.4358 7.68437C17.7383 7.89943 18.201 8.21382 18.3555 8.30312C18.3587 8.30443 18.361 8.30509 18.3625 8.30509C18.3918 8.30509 18.4277 8.32899 18.456 8.35937C18.479 8.37788 18.493 8.39865 18.497 8.42148C18.5041 8.43952 18.5056 8.45607 18.4989 8.46784C18.4962 8.47196 18.4908 8.47852 18.4834 8.48696C18.4666 8.51748 18.4352 8.55043 18.3878 8.5854C18.3723 8.60035 18.3561 8.61563 18.3397 8.63059C18.3111 8.65716 18.2789 8.69054 18.2442 8.72921C18.1813 8.80088 18.1119 8.88648 18.0418 8.97798C17.9082 9.15493 17.7687 9.36221 17.6641 9.54521C17.6507 9.56832 17.6384 9.5896 17.6272 9.60938L17.54 9.78676C17.5362 9.79768 17.5331 9.80804 17.5306 9.81807L17.5386 10.0209C17.5717 10.2333 17.6212 10.4164 17.6706 10.5185L17.7167 10.6081C17.7205 10.6108 17.7242 10.6121 17.7278 10.6121C17.7321 10.6121 17.7362 10.611 17.7399 10.6089L17.758 10.5694C17.766 10.5358 17.8188 10.4245 17.8833 10.2987C17.9332 10.1961 17.994 10.0818 18.043 10.0014C18.0781 9.93952 18.1084 9.88899 18.1279 9.86115C18.1619 9.81395 18.1748 9.78263 18.165 9.77307L18.1561 9.76998C18.1554 9.76998 18.1547 9.76998 18.1539 9.77002C18.1202 9.77209 18.0832 9.75671 18.053 9.73102C18.0171 9.71209 18.0024 9.68996 17.9975 9.64932C17.9904 9.62663 17.9888 9.60235 17.9947 9.57798C17.9951 9.56354 17.9968 9.54943 17.9999 9.53551C18.0156 9.43234 18.0795 9.37159 18.2942 9.22623C18.4039 9.1523 19.0731 8.64784 19.6483 8.20852C20.2241 7.76471 20.3795 7.63421 20.3735 7.59531C20.3236 7.58143 20.2179 7.57407 20.0645 7.57599C20.051 7.57623 20.0374 7.57655 20.0239 7.57698C19.8677 7.58537 19.6753 7.60857 19.4499 7.6576C19.4309 7.66182 19.4122 7.66595 19.3938 7.66988C18.9891 7.76841 18.6575 7.7761 18.4664 7.68995L18.3605 7.64218L18.3358 7.63154L18.3365 7.63135L18.4332 7.60548L18.4826 7.59226C18.5408 7.57834 18.6354 7.55265 18.7227 7.52846C18.7389 7.52377 18.7551 7.51904 18.771 7.51435L19.0081 7.44601L18.9772 7.43696L18.8887 7.41652C18.8172 7.40349 18.7133 7.35793 18.6548 7.31884C18.5574 7.25377 18.4177 7.05198 18.4177 6.97712C18.4177 6.97543 18.4187 6.97407 18.4206 6.97299C18.4183 6.96554 18.417 6.96029 18.417 6.95776C18.417 6.95316 18.4609 6.96324 18.5257 6.98101C18.5575 6.98715 18.5949 6.99573 18.6353 7.00641C18.753 7.03988 18.8651 7.05901 18.979 7.06407C19.0595 7.06646 19.143 7.0629 19.2287 7.05334C19.3144 7.0426 19.4038 7.02474 19.4993 6.99985C19.7917 6.92499 20.1035 6.90873 20.4315 6.94777C20.4468 6.95021 20.4611 6.95251 20.4744 6.95462C20.6099 6.97627 20.6427 6.98152 20.6037 6.93479C20.5999 6.9308 20.5965 6.92654 20.5932 6.92199V6.92195C20.5613 6.9024 20.5536 6.84788 20.5653 6.78971C20.5703 6.73524 20.5913 6.68031 20.6264 6.6451C20.6696 6.60174 20.7209 6.58384 20.7718 6.58426C20.8292 6.58046 20.8887 6.6031 20.9408 6.6518C20.9696 6.67857 20.9897 6.7067 21.0011 6.73604C21.0295 6.79857 21.0268 6.87118 20.9707 6.93479C20.9123 7.00313 20.7498 7.56296 20.7823 7.58902C20.8343 7.63459 21.9809 8.08702 22.0686 8.09677C22.1065 8.10155 22.1378 8.10934 22.1631 8.12077C22.1874 8.12991 22.2066 8.14477 22.2207 8.16526C22.2412 8.19282 22.2505 8.2291 22.2505 8.27579C22.2505 8.28648 22.2492 8.29707 22.2466 8.30757C22.2275 8.39387 22.1224 8.47224 21.9774 8.50899C21.9617 8.51312 21.9455 8.51677 21.9289 8.51991C21.7683 8.55071 21.4324 8.89655 21.1125 9.33582C20.9821 9.51657 20.8531 9.71401 20.7366 9.91388C20.6757 10.0194 20.6218 10.1181 20.5753 10.209C20.5591 10.2408 20.5435 10.2724 20.5283 10.3038L20.3867 10.6608C20.3785 10.6917 20.3727 10.7199 20.3695 10.745L20.3807 10.965C20.4084 11.203 20.4731 11.5969 20.5427 11.9395C20.5693 12.0676 20.5939 12.1777 20.612 12.2473C20.6225 12.2867 20.6312 12.3124 20.6391 12.3272C20.64 12.3283 20.6405 12.3294 20.6408 12.3302C20.6424 12.3329 20.644 12.3351 20.6455 12.3369C20.6488 12.3377 20.6549 12.3383 20.6659 12.3388C20.6688 12.3363 20.6719 12.3327 20.6751 12.3282C20.6763 12.3266 20.6777 12.3251 20.6791 12.3236C20.7038 12.2796 20.7566 12.2765 21.2865 12.2763C21.3389 12.2762 21.3959 12.2761 21.4579 12.2761H22.205L22.4583 11.8367C22.5857 11.6141 22.6887 11.4241 22.701 11.3897C22.7005 11.3873 22.6996 11.3852 22.6982 11.3836C22.698 11.3834 22.6977 11.3832 22.6975 11.3829C22.6899 11.3814 22.6727 11.3792 22.6472 11.3766C22.6173 11.3755 22.5339 11.3682 22.4194 11.3581H22.4194C22.3573 11.3527 22.2861 11.3464 22.2094 11.34C22.1027 11.3321 21.9845 11.3239 21.8607 11.3159C21.5804 11.2979 21.3297 11.2798 21.1772 11.2679C21.1676 11.2675 21.1602 11.2673 21.1551 11.2673C21.122 11.2673 21.086 11.2644 21.0614 11.2583C21.0374 11.2561 21.0239 11.2546 21.0227 11.2541C21.0221 11.2528 21.0272 11.2413 21.0374 11.2209C21.1052 11.0581 21.7159 9.96338 21.7373 9.94234C21.7633 9.93188 22.5307 10.0657 23.007 10.1561C23.1622 10.1823 23.2714 10.201 23.2964 10.206C23.3679 10.219 23.3938 10.206 23.4523 10.1051C23.4584 10.094 23.4642 10.0827 23.4696 10.0715C23.4869 10.0236 23.4966 9.96774 23.4995 9.9256C23.4966 9.90929 23.4981 9.8911 23.503 9.87221C23.5186 9.7877 23.6001 9.71134 23.6803 9.69146C23.7415 9.67051 23.7695 9.67866 23.8348 9.72695C23.9063 9.77162 23.9416 9.83823 23.9355 9.90957C23.9363 9.96624 23.914 10.0232 23.8681 10.0693C23.8258 10.1084 23.54 10.6259 23.2346 11.215L22.8342 11.9782L22.6727 12.2925V12.8653L22.6817 13.0249H22.5486C22.4833 13.0249 22.4279 13.0349 22.415 13.0461C22.4189 13.0699 22.4277 13.1203 22.4389 13.1844L22.439 13.185L22.4399 13.1902C22.4465 13.2279 22.4539 13.2702 22.4616 13.3145C22.4786 13.4125 22.4901 13.4899 22.4932 13.5353L22.4934 13.536C22.5096 13.6076 22.4999 13.6108 22.331 13.6108H22.1564L22.1523 13.6109L22.0554 13.8245L22.0426 13.858C21.877 14.2258 21.4515 14.9126 21.0909 15.3911L21.0408 15.456C21.0292 15.4888 21.0552 15.5088 21.1637 15.5621L21.1948 15.5766C21.4515 15.6938 21.7178 15.9737 21.8932 16.3123C22.0296 16.5791 22.0361 16.5987 22.0361 16.8819C22.0361 16.8839 22.0361 16.886 22.0361 16.8881C22.0048 16.8699 21.9723 16.8509 21.9386 16.8307C21.6265 16.6376 21.3143 16.4865 21.2384 16.4865C20.9937 16.4865 20.8334 16.5872 20.8334 16.7384C20.8334 17.2337 20.6225 17.2673 19.8801 16.8979C19.1377 16.5201 18.9015 16.4613 18.6737 16.6041C18.5809 16.6712 18.4712 16.8391 18.4459 16.9818C18.4122 17.1246 18.3362 17.2421 18.2687 17.2421C18.2097 17.2421 17.8891 17.1246 17.577 16.9734C17.2142 16.8055 16.8599 16.7048 16.6237 16.6964C16.2356 16.6964 16.1597 16.7636 16.0669 17.175C15.9994 17.5024 15.7716 17.4772 15.1051 17.0826C14.2784 16.6041 14.0928 16.5789 13.7722 16.9483C13.6777 17.0533 13.5649 17.1475 13.4773 17.1995C13.4028 17.1618 13.3498 17.1328 13.3337 17.1196C13.3288 17.1148 13.3124 17.1033 13.2875 17.0868C13.2033 17.0401 13.1255 16.995 13.0583 16.9535C12.7163 16.7423 12.489 16.5806 12.1716 16.2867C11.973 16.1085 11.763 15.8987 11.5153 15.6343C11.4208 15.5366 11.3185 15.4299 11.2069 15.313C11.1154 15.2176 11.043 15.1438 10.9812 15.0843C10.866 14.9827 10.7539 14.8981 10.6474 14.832C10.6252 14.8201 10.6019 14.8081 10.5767 14.7954C10.3565 14.6867 10.29 14.6691 10.1028 14.6685L10.1018 14.6687C10.0157 14.6835 9.94529 14.6769 9.8927 14.6542C9.86012 14.6449 9.84067 14.63 9.82319 14.6066C9.81578 14.5962 9.80931 14.5857 9.80378 14.5749C9.80148 14.5705 9.79933 14.566 9.7974 14.5614C9.75245 14.4576 9.79464 14.3374 9.93039 14.1901L9.96015 14.1579L10.0076 14.1024L9.81892 14.0064L9.58609 13.8906C9.51934 13.8564 9.45906 13.8266 9.40473 13.801C9.25731 13.7334 9.15001 13.6929 9.08429 13.6802C9.07131 13.6779 9.05954 13.6765 9.04895 13.676C9.04801 13.676 9.04708 13.6759 9.04619 13.6759C9.04225 13.6759 9.03836 13.6759 9.03451 13.6757C8.89328 13.6739 8.81195 13.6037 8.80394 13.4814C8.80304 13.472 8.80286 13.4626 8.80342 13.4531C8.81012 13.2601 9.06475 13.1766 9.18653 13.3307L9.22703 13.382L9.25033 13.4053L9.30672 13.308C9.34253 13.2457 9.40342 13.1551 9.48161 13.0463C9.61956 12.8501 9.81939 12.5908 10.0406 12.3192C10.3082 11.9868 10.5905 11.6542 10.7879 11.4461C10.8306 11.4007 10.8652 11.3638 10.8932 11.3326C11.0026 11.2028 11.0113 11.162 11.0113 11.0622C11.0113 11.0501 11.0117 11.0373 11.0124 11.0238C11.022 10.7169 11.201 10.1574 11.3974 9.8049C11.4225 9.75699 11.4475 9.71363 11.4717 9.67627C11.519 9.58965 11.5215 9.55791 11.4988 9.50316C11.4424 9.43815 11.4627 9.34426 11.557 9.25899C11.5636 9.25276 11.5764 9.24212 11.5945 9.22759C11.6603 9.1682 11.7567 9.0953 11.8922 8.99841C11.9191 8.9792 11.9456 8.96021 11.9717 8.94146C12.0968 8.84837 12.2402 8.74248 12.3885 8.63406C12.7977 8.33785 13.1388 8.07418 13.1485 8.0514C13.1579 8.02004 13.085 8.00757 12.9826 8.01179C12.8747 8.01849 12.731 8.04437 12.6011 8.08576C12.588 8.09021 12.5748 8.09462 12.5617 8.09893C12.038 8.28263 11.5665 8.32421 11.3401 8.20745C11.2647 8.16971 11.1602 8.06345 11.1085 7.98184C11.0885 7.95479 11.0762 7.93201 11.0762 7.91799C11.0762 7.91706 11.0768 7.91612 11.078 7.91527C11.0773 7.91152 11.077 7.90801 11.077 7.90477C11.077 7.89498 11.1842 7.89498 11.3173 7.90477C11.3704 7.90866 11.4256 7.91101 11.4759 7.91157C11.5064 7.91166 11.5356 7.91129 11.5622 7.91054C11.5988 7.90909 11.6282 7.90609 11.6454 7.90149L11.7362 7.87876L11.7363 7.87871L11.5999 7.81037C11.4871 7.75384 11.4087 7.66491 11.3807 7.56113C11.3727 7.5368 11.3686 7.51238 11.3686 7.48834C11.3686 7.48191 11.3685 7.47587 11.3685 7.4702C11.3684 7.44254 11.3682 7.42379 11.3723 7.41287C11.3739 7.40087 11.3761 7.39374 11.379 7.39374C11.3817 7.39374 11.425 7.40954 11.4806 7.42984C11.4918 7.43391 11.5035 7.43818 11.5155 7.44254C11.667 7.49602 11.8705 7.50591 12.1195 7.47132C12.1544 7.4663 12.19 7.46059 12.2263 7.45421C12.3262 7.43626 12.4326 7.41174 12.5451 7.38071C12.766 7.31888 13.0453 7.26029 13.1622 7.24726L13.3187 7.23062L13.3763 7.22232L13.3604 7.1138C13.3247 6.89246 13.5683 6.75901 13.7307 6.91201C13.8281 7.00313 13.8249 7.12355 13.7274 7.22776C13.7233 7.23207 13.7192 7.23695 13.7151 7.24234C13.7032 7.25846 13.6907 7.27909 13.6778 7.30398C13.6412 7.37663 13.6039 7.48529 13.5683 7.62155C13.5228 7.79082 13.4903 7.93079 13.4903 7.93402C13.4913 7.93402 13.5278 7.94152 13.5904 7.95441C13.7214 7.98141 13.967 8.03199 14.2439 8.08702C14.3168 8.10193 14.3853 8.11562 14.4492 8.12813C14.6786 8.16877 14.8899 8.20393 15.0041 8.21935C15.0489 8.22334 15.0803 8.22371 15.0981 8.22048C15.2215 8.19446 15.2995 8.24654 15.2995 8.35393C15.2995 8.38599 15.2915 8.41356 15.2698 8.44112C15.2408 8.48279 15.1896 8.51963 15.115 8.55207C15.0761 8.5727 15.0298 8.59529 14.9747 8.62084C14.9079 8.65248 14.8198 8.70216 14.7366 8.75415C14.6154 8.8359 14.4862 8.93598 14.3556 9.04998C14.0948 9.29073 13.7743 9.63901 13.617 9.86424C13.5263 9.99348 13.4843 10.0534 13.4649 10.1199C13.4481 10.1773 13.4481 10.2396 13.4481 10.3557C13.4481 10.6291 13.513 11.0458 13.5975 11.3322L13.6492 11.5103L13.6645 11.4708L13.7404 11.2671C13.7932 11.1219 13.8522 10.9829 13.9184 10.8489C14.0081 10.6572 14.0957 10.5137 14.2367 10.3169C14.2752 10.2637 14.3054 10.2216 14.3285 10.1879C14.3754 10.1169 14.3927 10.0788 14.3881 10.0582C14.3858 10.052 14.3814 10.047 14.3753 10.0422C14.3739 10.0414 14.3723 10.0407 14.3705 10.04C14.3023 10.014 14.2601 9.89677 14.2958 9.83166C14.3023 9.82004 14.3155 9.80476 14.3327 9.78831C14.349 9.77096 14.3713 9.7532 14.4014 9.73257C14.4067 9.72887 14.4121 9.72526 14.4175 9.72174C14.421 9.71945 14.4246 9.7171 14.4283 9.71471C14.4306 9.71335 14.4332 9.71176 14.436 9.70988C14.5014 9.66409 14.7796 9.41921 15.1058 9.11757C15.171 9.05677 15.238 8.99391 15.3053 8.93026L16.0458 8.2337V8.04493L16.0466 8.03452C16.0466 7.95877 16.0476 7.91504 16.0569 7.88818L16.0583 7.8677L16.0713 7.86404C16.0861 7.84951 16.1097 7.84393 16.1473 7.83638C16.2025 7.82663 16.3032 7.81688 16.3682 7.81688C16.4623 7.8136 16.5208 7.78107 16.68 7.63787C16.7783 7.54548 16.8534 7.45895 16.8475 7.43884C16.8355 7.42862 16.781 7.41727 16.7077 7.40945C16.663 7.4049 16.6109 7.40143 16.5565 7.40026C16.5353 7.39927 16.5147 7.39857 16.4945 7.3982C16.3564 7.39665 16.224 7.41202 16.0114 7.45534C15.9667 7.46485 15.9181 7.47577 15.8647 7.4881C15.6115 7.54852 15.4269 7.57965 15.2763 7.58438C15.2419 7.58574 15.2098 7.58546 15.179 7.58363C15.0887 7.57899 15.0098 7.56315 14.9325 7.53695C14.7937 7.4896 14.7381 7.43691 14.8097 7.42768C14.8277 7.42252 14.8553 7.41901 14.8929 7.41741C14.9542 7.40513 15.0521 7.38146 15.1501 7.3547L15.4055 7.28832L15.258 7.23099C15.0385 7.15187 14.9929 7.1147 14.8967 6.93802C14.8155 6.7883 14.8123 6.77204 14.8643 6.7883C14.8775 6.79234 14.8906 6.79627 14.9034 6.80012C14.926 6.80584 14.9536 6.81362 14.9845 6.82234C15.0085 6.82913 15.0346 6.83649 15.0617 6.84381C15.0658 6.84502 15.07 6.84615 15.0741 6.84732C15.382 6.9242 15.564 6.91477 15.8842 6.83387C15.9584 6.81526 16.0445 6.79998 16.1356 6.78821C16.368 6.75174 16.6296 6.74359 16.8382 6.77485L16.9848 6.79501C16.9887 6.79393 16.9916 6.7922 16.994 6.7898C16.9976 6.78605 16.9995 6.78062 17.0002 6.77326L16.9908 6.70974ZM17.0896 7.60946C17.0933 7.60112 17.0968 7.59502 17.1 7.59179L17.1866 7.64762C17.2264 7.67148 17.3913 7.78627 17.583 7.91959L17.583 7.91963C17.6264 7.94982 17.6711 7.98095 17.7161 8.01216C17.7797 8.05693 17.8403 8.10006 17.8951 8.13952C18.0444 8.24757 18.1464 8.32604 18.1506 8.33457C18.1534 8.34212 18.084 8.37385 17.9834 8.41449C17.7334 8.51115 17.3021 8.66166 17.2906 8.65013C17.2841 8.64362 17.3296 8.53295 17.3913 8.40601C17.4099 8.36977 17.4273 8.33382 17.4429 8.3003L17.5238 8.13601L17.5066 8.12256C17.4826 8.06884 17.2026 7.93501 17.1082 7.91509C17.0783 7.90168 17.0556 7.8902 17.0461 7.88424C17.0431 7.88007 17.0406 7.87543 17.0387 7.87027C17.0348 7.84177 17.0455 7.77113 17.0602 7.7078L17.0896 7.60946ZM21.7941 8.14407C21.7435 8.17782 20.5421 8.55216 20.4764 8.55601L20.4763 8.55591C20.4742 8.55385 20.4811 8.52132 20.4937 8.47009C20.5427 8.28371 20.6669 7.84876 20.7076 7.72899C20.7169 7.7041 20.8837 7.75955 21.2107 7.88968C21.2254 7.89568 21.2404 7.90187 21.2558 7.9082C21.5409 8.02431 21.7776 8.12532 21.7941 8.14407ZM16.7488 7.77465C16.7477 7.77671 16.7463 7.77887 16.7449 7.78107C16.7352 7.80062 16.7092 7.81688 16.6897 7.81688C16.685 7.81688 16.6814 7.81571 16.6791 7.8136C16.6775 7.80123 16.683 7.78468 16.6954 7.76893L16.6962 7.76804C16.7188 7.74052 16.7398 7.72993 16.7508 7.73302C16.7554 7.73916 16.7551 7.75327 16.7488 7.77465ZM20.2751 8.08787L20.2688 8.1076L20.2687 8.10788C20.2563 8.14712 20.2433 8.18832 20.2301 8.23027C20.2045 8.31324 20.1788 8.39204 20.1559 8.45954C20.1167 8.57059 20.0831 8.65356 20.0679 8.67741C20.008 8.71093 19.5689 8.85371 18.8725 9.06676C18.8487 9.07398 18.8269 9.08059 18.8068 9.08663C18.7199 9.11073 18.6553 9.12704 18.6329 9.13004C18.6241 9.12732 18.6396 9.11415 18.6775 9.08954C18.723 9.05373 19.1095 8.75429 19.5383 8.42232C19.6136 8.36457 19.6873 8.30795 19.7578 8.25385L19.7579 8.25376L19.7582 8.25357C19.9328 8.11955 20.0874 8.00091 20.1956 7.91874C20.2858 7.85073 20.3446 7.80718 20.3546 7.80141C20.3553 7.80099 20.3559 7.80081 20.3561 7.80081H20.3562C20.3608 7.80235 20.3253 7.92235 20.2751 8.08787ZM13.5243 8.05327C13.6171 8.07062 13.8262 8.11248 14.0652 8.16188C14.5081 8.25277 14.6689 8.28601 14.6926 8.30795C14.6769 8.31985 14.5945 8.34891 14.4664 8.3889C14.4203 8.40193 14.3668 8.41698 14.3081 8.43348L14.3079 8.43352L14.3072 8.43371L14.3068 8.43381C14.189 8.46695 14.0505 8.5059 13.9093 8.54598L13.5173 8.65534C13.3792 8.69124 13.2915 8.7122 13.2882 8.70887C13.2866 8.70727 13.2864 8.70062 13.2874 8.68988L13.3019 8.63387C13.3723 8.33884 13.4553 8.05332 13.4733 8.04488H13.4733C13.4764 8.04488 13.4944 8.04788 13.5243 8.05327ZM13.0532 8.3851C13.0378 8.4376 13.0161 8.51077 12.9933 8.58502L12.9374 8.78696C12.9346 8.79362 12.9324 8.79807 12.9309 8.80004C12.9219 8.81059 12.8564 8.8344 12.7365 8.87115L12.675 8.88774C12.5386 8.92356 12.3242 8.98538 12.2008 9.0212C12.1198 9.04257 12.0527 9.05973 12.0181 9.06624C12.0033 9.06652 11.9979 9.06352 12.0045 9.05771C12.1179 8.9716 12.992 8.33101 13.0748 8.27631C13.0748 8.28816 13.0665 8.3288 13.0532 8.3851ZM16.0651 8.45321C16.0727 8.4624 16.0865 8.46418 16.1027 8.46245C16.1147 8.46282 16.1277 8.46137 16.1408 8.45809C16.1626 8.4526 16.1814 8.45021 16.1937 8.45031C16.2006 8.47009 16.1588 8.53899 16.0488 8.69274C15.9694 8.79831 15.8719 8.92252 15.784 9.03038L15.6721 9.1644C15.6101 9.23654 15.5638 9.28581 15.5496 9.29134C15.5287 9.30006 15.464 9.32373 15.3789 9.35485C15.3052 9.38181 15.2163 9.41434 15.1273 9.44757L14.8352 9.55234C14.8072 9.56129 14.7907 9.56588 14.7888 9.56495C14.7881 9.56354 14.8007 9.55004 14.8244 9.52646L15.0429 9.32063C15.1923 9.18395 15.4749 8.92027 15.6698 8.73474C15.6779 8.7271 15.6859 8.71955 15.6937 8.7122C15.8783 8.54602 15.9854 8.45841 16.0327 8.43596C16.0414 8.43343 16.0472 8.43427 16.0498 8.43859C16.0532 8.44459 16.0585 8.44946 16.0651 8.45321ZM16.3349 9.01487L16.4324 8.72518L16.5298 8.43549H16.444C16.3834 8.43976 16.3099 8.51846 16.0985 8.79985C16.04 8.87893 15.9859 8.95299 15.9422 9.01402C15.8856 9.09643 15.8471 9.15624 15.8392 9.1749C15.8602 9.17387 15.9652 9.14059 16.0888 9.09929L16.2284 9.05331L16.3349 9.01487ZM17.2509 8.68613L17.16 8.62754C17.1493 8.62079 17.1386 8.61427 17.1281 8.60795C17.075 8.57762 17.0026 8.5412 16.9495 8.51996L16.9179 8.50623C16.8705 8.49057 16.8355 8.48649 16.8201 8.49666L16.7741 8.64038C16.7547 8.70095 16.7338 8.76296 16.7201 8.80351C16.7147 8.82746 16.7127 8.84382 16.7138 8.8516C16.7428 8.85488 16.8465 8.82915 16.9723 8.78359L17.2465 8.68773L17.2509 8.68613ZM16.9511 12.8664C16.9452 12.7866 16.9412 12.6764 16.9366 12.5365C16.9138 12.0483 16.9561 11.5535 17.0567 11.0881C17.125 10.7789 17.2874 10.2744 17.3718 10.1116L17.4205 10.014L17.4628 10.2223C17.4887 10.3395 17.544 10.512 17.5894 10.6063L17.6739 10.7789L17.5927 11.0458C17.4952 11.3778 17.427 11.7065 17.375 12.1101C17.3425 12.3705 17.3166 12.4454 17.2061 12.6277C17.1379 12.7449 17.0632 12.8815 17.047 12.9336C17.0443 12.9399 17.0416 12.9459 17.039 12.9515C17.0191 12.9867 17.0019 13.0123 16.9913 13.0213C16.9841 13.0232 16.978 13.0181 16.9727 13.0061C16.9649 12.9809 16.9575 12.9316 16.9511 12.8664ZM13.3443 10.4279C13.3481 10.4705 13.3489 10.5312 13.3474 10.6096C13.3498 10.7512 13.3961 10.9973 13.4603 11.2336C13.4743 11.2867 13.4892 11.3382 13.5048 11.3867C13.5128 11.4124 13.521 11.4377 13.5293 11.4624C13.5942 11.6544 13.604 11.7228 13.578 11.8335C13.5702 11.8678 13.5594 11.9367 13.5482 12.0203C13.5344 12.0995 13.5235 12.1925 13.5157 12.2925C13.5148 12.3012 13.5139 12.3099 13.513 12.3184C13.4514 12.9401 13.552 13.5325 13.8183 14.0826C13.8996 14.2421 13.971 14.4114 13.984 14.4537L13.9934 14.4859C13.9937 14.489 13.9936 14.4914 13.993 14.4929C13.9892 14.5039 13.972 14.5004 13.9459 14.486L13.9158 14.4634C13.6462 14.2714 13.3636 13.8938 13.2077 13.5195C13.1103 13.2884 13.1038 13.2526 13.172 13.2526C13.2142 13.2526 13.2207 13.1843 13.2207 12.8457V12.4389H13.1233C13.0388 12.4389 13.0226 12.4226 12.9868 12.2989C12.9838 12.2894 12.9809 12.2777 12.9781 12.2642C12.9731 12.2362 12.968 12.201 12.9632 12.161C12.9514 12.0495 12.9446 11.8929 12.9446 11.7228C12.9446 11.5178 12.9528 11.3635 12.9783 11.2179C12.9816 11.2002 12.9853 11.182 12.9894 11.1631C13.019 11.0373 13.0762 10.8685 13.1354 10.7178C13.1544 10.6725 13.1752 10.6247 13.198 10.5738C13.2068 10.5515 13.2152 10.5309 13.223 10.512C13.2669 10.4184 13.3037 10.3559 13.3207 10.3559C13.3305 10.3559 13.339 10.3842 13.3443 10.4279ZM20.2875 11.1187C20.292 11.1468 20.2967 11.1771 20.3016 11.2085C20.3393 11.4758 20.4443 12.018 20.5172 12.3258L20.5716 12.6062C20.5697 12.6557 20.5551 12.7054 20.5257 12.7904C20.49 12.8913 20.4705 12.9922 20.477 13.0118C20.4868 13.0345 20.4218 13.1289 20.3373 13.2233C20.3228 13.2394 20.3096 13.254 20.2976 13.2672L20.195 13.3652C20.1856 13.3696 20.1783 13.3694 20.1717 13.3653L20.1125 13.2495C19.9693 12.8663 19.9364 12.2329 20.0695 11.5686C20.1253 11.3405 20.2089 11.0434 20.2412 10.9627C20.2466 10.9518 20.2504 10.9465 20.2522 10.9483C20.2556 10.95 20.269 11.0161 20.2875 11.1187ZM10.9985 11.4215L11.0055 11.4982C11.012 11.56 11.038 11.7 11.0607 11.8107L11.0794 11.8922L11.1032 12.0202L10.8366 12.9987L10.5638 13.9849L10.5547 13.9841L10.4598 13.9752C10.3234 13.959 9.35542 13.513 9.35542 13.4642C9.35542 13.3405 10.2812 12.1459 10.8009 11.5959L10.979 11.4084C10.9891 11.4052 10.9948 11.4101 10.9985 11.4215ZM12.0664 11.8526L12.0669 11.8499C12.0782 11.7972 12.0819 11.7738 12.0596 11.7636C12.0436 11.7594 12.0208 11.7566 11.9951 11.7557C11.9867 11.7556 11.9776 11.7555 11.9675 11.7555C11.8712 11.7587 11.7431 11.8114 11.642 11.8817C11.504 11.9905 11.4094 12.1605 11.4077 12.3575C11.4094 12.3815 11.4148 12.3999 11.4245 12.4096C11.4397 12.4248 11.5121 12.4341 11.6017 12.4344C11.617 12.4339 11.6334 12.4333 11.6511 12.4325L11.8742 12.4239L11.9013 12.4226L11.9117 12.3895L11.9929 12.1134C12.0224 12.0108 12.0496 11.9154 12.0664 11.8526ZM12.5547 12.0034L12.5581 12.006C12.6231 12.0548 12.7238 12.159 12.7855 12.2371C12.8231 12.2866 12.8559 12.335 12.8757 12.3682C12.8872 12.3888 12.8943 12.4044 12.8951 12.4118C12.8839 12.427 12.7555 12.4389 12.6003 12.4389H12.5665C12.4239 12.4375 12.3105 12.4285 12.3105 12.4195C12.3105 12.4126 12.3191 12.3733 12.3317 12.3201C12.3426 12.2798 12.3589 12.2206 12.3753 12.1614C12.3822 12.1362 12.3892 12.1111 12.3957 12.0873L12.4361 11.9469C12.4575 11.9416 12.502 11.9642 12.5547 12.0034ZM11.1664 12.212C11.1842 12.2297 11.23 12.3303 11.2653 12.4161C11.3121 12.5255 11.3298 12.6099 11.335 12.7778C11.3357 12.8142 11.3361 12.8551 11.3361 12.9013V13.2528H11.548L11.5544 13.5391C11.5577 13.6953 11.5901 13.9394 11.6259 14.0794C11.6909 14.356 11.6779 14.4895 11.5739 14.4895C11.5447 14.4895 11.3725 14.4016 11.1907 14.2942C11.0725 14.2231 10.9487 14.155 10.8624 14.1113C10.8274 14.0925 10.799 14.078 10.7807 14.0698L10.6704 14.0206L10.9113 13.1387C10.9658 12.9377 11.016 12.7456 11.0569 12.5889L11.0682 12.5457C11.1228 12.3512 11.16 12.2234 11.1664 12.212ZM17.3456 12.8546L17.3523 12.9369C17.3653 13.1126 17.3978 13.3763 17.4303 13.5228C17.505 13.9004 17.6414 14.2551 17.8525 14.6262C17.923 14.7492 17.9823 14.8594 18.0093 14.9168C18.0137 14.9482 18.0006 14.9656 17.9703 14.9788C17.8735 15.0045 17.6833 15.0321 17.639 15.0254C17.617 15.0097 17.5847 14.959 17.546 14.8843C17.5249 14.8426 17.5015 14.7935 17.4768 14.7394C17.3881 14.5422 17.2838 14.2718 17.1983 14.0158C17.1111 13.7334 17.0426 13.4377 17.0352 13.3079C17.0375 13.2763 17.0428 13.2446 17.0519 13.2104C17.0785 13.1395 17.1348 13.0141 17.1932 12.8946L17.287 12.6997L17.3267 12.6223L17.3328 12.6976L17.3354 12.7483C17.3375 12.772 17.3411 12.8093 17.3456 12.8546ZM19.5707 13.3352C19.6815 13.3499 19.7873 13.3774 19.8631 13.4154C19.9126 13.4408 19.9481 13.4612 19.9727 13.48C19.994 13.5024 20.0005 13.5209 20.0059 13.5363C20.0095 13.5466 20.0127 13.5556 20.0195 13.5634C20.0194 13.565 20.0192 13.5667 20.019 13.5684C20.0178 13.5795 20.0174 13.589 20.0181 13.5971C20.0178 13.6019 20.0188 13.6064 20.0209 13.6107C20.0293 13.6346 20.0557 13.643 20.1165 13.6497C20.2886 13.666 20.2594 13.7441 19.9898 13.9785C19.9142 14.0437 19.8423 14.1022 19.7893 14.1422C19.7265 14.181 19.683 14.1856 19.6271 14.1489C19.5029 14.0388 19.2887 13.7633 19.207 13.5944L19.1004 13.3677C19.1006 13.3672 19.1009 13.3666 19.1012 13.3662L19.1875 13.3438C19.2053 13.3395 19.2243 13.3359 19.2442 13.3329C19.308 13.3288 19.3909 13.3283 19.4889 13.3309C19.5183 13.3319 19.5454 13.3333 19.5707 13.3352ZM19.026 13.4976L19.1258 13.6888C19.1875 13.806 19.3207 13.985 19.4246 14.0891L19.5526 14.2173L19.6109 14.2794L19.5286 14.3365C19.4851 14.3664 19.3487 14.4387 19.1962 14.5159C19.1731 14.5272 19.15 14.5386 19.127 14.5499L19.1244 14.5512C18.8919 14.6655 18.6769 14.7711 18.6528 14.7557C18.6644 14.6934 18.7381 14.4288 18.8269 14.1184L19.0137 13.4827C19.0171 13.4856 19.0211 13.4906 19.026 13.4976ZM18.3653 14.1574C18.3504 14.2044 18.3352 14.2527 18.3203 14.3007C18.226 14.5904 18.1383 14.8443 18.1254 14.8606C18.0832 14.9029 18.0506 14.6685 18.0734 14.496C18.1017 14.3045 18.1506 14.1525 18.2275 14.0238C18.2602 13.9704 18.2983 13.92 18.3422 13.8712C18.3472 13.8659 18.352 13.8606 18.3569 13.8554L18.3706 13.8406C18.4388 13.7666 18.4924 13.7085 18.4982 13.7085C18.501 13.7085 18.4445 13.9007 18.3653 14.1574ZM14.6437 14.0988C14.6944 13.9456 14.733 13.8293 14.7401 13.8126C14.7473 13.7911 14.7412 13.7797 14.7166 13.7784C14.6912 13.7808 14.6466 13.7912 14.572 13.8092C14.3998 13.8515 14.2471 13.9719 14.1432 14.1477C14.1235 14.1816 14.1086 14.2081 14.0979 14.2309C14.0818 14.2695 14.0751 14.2996 14.0763 14.3366C14.0788 14.3679 14.0875 14.4054 14.101 14.4602C14.1251 14.5571 14.1448 14.6034 14.1883 14.6403C14.2082 14.6561 14.2332 14.6709 14.2659 14.6882C14.3373 14.724 14.4088 14.7436 14.4218 14.7272C14.4348 14.7143 14.5095 14.5092 14.5842 14.2781C14.605 14.2155 14.6252 14.1547 14.6437 14.0988ZM15.3537 13.9152C15.3685 13.945 15.382 13.9898 15.3977 14.0578C15.4019 14.0952 15.4146 14.1483 15.4331 14.2104C15.4692 14.3419 15.5269 14.4948 15.6012 14.6528C15.6296 14.7155 15.6582 14.7736 15.685 14.8219L15.802 15.0542C15.8039 15.062 15.8041 15.0671 15.8022 15.069C15.7978 15.0742 15.7713 15.0749 15.7296 15.0719L15.6471 15.0624C15.5529 15.0526 15.3287 15.0103 15.1501 14.9745L14.9058 14.9241C14.8627 14.9101 14.8362 14.8966 14.8256 14.884L14.8967 14.6555C14.9132 14.6023 14.9345 14.5339 14.9573 14.4607L14.9575 14.4601L14.9576 14.4599L14.9578 14.4591C14.9841 14.3746 15.0124 14.2841 15.0373 14.2035L15.1465 13.8877C15.1528 13.8774 15.1593 13.8691 15.1662 13.8628L15.2468 13.8517C15.2962 13.8633 15.3364 13.8928 15.3537 13.9152ZM15.5849 13.9527C15.6339 13.9698 15.7102 13.9992 15.7979 14.035C15.8571 14.0611 15.9265 14.0932 16.0076 14.1314L16.2157 14.2317C16.2924 14.2698 16.3265 14.2901 16.3321 14.3093L16.2316 14.4231C16.2301 14.4247 16.2285 14.4263 16.227 14.4279C16.2229 14.432 16.2189 14.4363 16.2147 14.4408C16.2066 14.4501 16.1987 14.4596 16.1909 14.4692C16.1079 14.5636 16.02 14.7027 15.9914 14.7824C15.9714 14.8379 15.95 14.8919 15.9343 14.9247C15.9124 14.9635 15.8898 14.9565 15.8408 14.882C15.7187 14.6837 15.5052 14.1567 15.4948 13.9873C15.497 13.9705 15.5024 13.9567 15.5095 13.9476C15.5235 13.9412 15.5477 13.9426 15.5849 13.9527ZM16.4593 14.3602C16.4805 14.3678 16.5781 14.4232 16.6897 14.4927C16.8033 14.5621 16.9291 14.6459 17.0456 14.7282C17.0526 14.7331 17.0595 14.738 17.0665 14.7429C17.0684 14.7443 17.0702 14.7456 17.0722 14.747C17.1302 14.7883 17.1855 14.8289 17.2353 14.8668L17.4559 15.0553C17.4587 15.059 17.461 15.0622 17.4626 15.0651L17.4026 15.0819C17.3295 15.0868 17.1962 15.0966 17.0535 15.1079C17.0139 15.1104 16.9701 15.1127 16.9238 15.1147C16.7532 15.119 16.5634 15.1209 16.4027 15.12C16.3836 15.1194 16.3655 15.1186 16.3487 15.1177L16.0274 15.0987C16.024 15.0918 16.0237 15.0753 16.0262 15.0525L16.0368 14.9972C16.066 14.841 16.1668 14.6587 16.3129 14.5025C16.3219 14.4926 16.3308 14.483 16.3395 14.4737C16.3989 14.4114 16.4468 14.3663 16.4593 14.3602Z" fill="#FFCF00"/>
<path fill-rule="evenodd" clip-rule="evenodd" d="M23.8522 16.6955C23.6907 16.6127 23.55 16.5491 23.4283 16.5058C23.2951 16.4584 23.1783 16.433 23.0783 16.4374C22.9746 16.442 22.8871 16.4789 22.823 16.5546C22.7621 16.6267 22.7301 16.7248 22.7144 16.837C22.7001 16.9366 22.6798 16.9966 22.6559 17.0307C22.637 17.0577 22.6146 17.071 22.5724 17.0713C22.5227 17.0717 22.4486 17.0531 22.3388 17.0043C22.2309 16.9563 22.0969 16.883 21.9298 16.7829C21.7722 16.6851 21.6142 16.5978 21.4852 16.5345C21.4208 16.5028 21.3625 16.4767 21.3145 16.4583C21.2906 16.4491 21.2681 16.4413 21.248 16.4358C21.2294 16.4307 21.2071 16.4258 21.1857 16.4258C21.0531 16.4258 20.9344 16.453 20.8457 16.5084C20.7547 16.5653 20.694 16.6541 20.694 16.7655C20.694 16.886 20.6808 16.9651 20.6578 17.0143C20.6382 17.0564 20.6124 17.0759 20.5697 17.0831C20.5185 17.0915 20.4395 17.0821 20.3196 17.0424C20.2017 17.0033 20.0542 16.9383 19.8705 16.8467C19.5014 16.6583 19.2489 16.5444 19.0578 16.4976C18.9606 16.4738 18.8754 16.4662 18.796 16.4767C18.7157 16.4873 18.6465 16.5156 18.581 16.5568C18.5794 16.5579 18.5777 16.559 18.5762 16.5601C18.5174 16.6027 18.4598 16.6716 18.4142 16.7457C18.3687 16.8194 18.33 16.9065 18.3146 16.9911C18.2996 17.0534 18.2761 17.1075 18.2518 17.144C18.2394 17.1625 18.2287 17.1736 18.2213 17.1793C18.2207 17.1798 18.2202 17.1802 18.2196 17.1806C18.2173 17.1801 18.2142 17.1795 18.21 17.1785C18.1978 17.1756 18.1814 17.1711 18.161 17.1648C18.1202 17.1521 18.0669 17.1334 18.0049 17.1097C17.8809 17.0622 17.7255 16.9961 17.5722 16.9217L17.5708 16.921C17.204 16.7507 16.8384 16.6448 16.5861 16.6358L16.5846 16.6357H16.583C16.392 16.6357 16.244 16.65 16.1375 16.7421C16.0335 16.832 15.9874 16.9813 15.942 17.1829C15.9419 17.1834 15.9418 17.1839 15.9417 17.1845C15.9263 17.259 15.9047 17.2973 15.8837 17.3165C15.8661 17.3326 15.838 17.3451 15.7807 17.3395C15.7208 17.3335 15.6383 17.3083 15.5256 17.2569C15.414 17.2061 15.2782 17.1323 15.1132 17.0343L15.1124 17.0338C14.9059 16.914 14.7368 16.8209 14.5946 16.7552C14.4529 16.6898 14.3323 16.6487 14.2235 16.6373C14.1116 16.6255 14.0144 16.6453 13.9227 16.6967C13.8342 16.7462 13.7548 16.8229 13.6731 16.9174C13.6056 16.9925 13.5283 17.0616 13.4601 17.1112C13.4258 17.1361 13.3954 17.155 13.3708 17.1673C13.3492 17.178 13.3381 17.1807 13.3354 17.1814C13.3347 17.1815 13.3345 17.1815 13.335 17.1815C13.3275 17.1815 13.3043 17.1781 13.2618 17.1658C13.222 17.1542 13.1721 17.137 13.1153 17.115C13.0017 17.0711 12.8636 17.0095 12.7273 16.9394C12.4001 16.7698 12.1283 16.6778 11.9103 16.6767C11.7995 16.676 11.6998 16.6989 11.6143 16.7493C11.5287 16.7997 11.463 16.8742 11.4146 16.968C11.3597 17.0694 11.3113 17.1351 11.2623 17.1747C11.2168 17.2115 11.1681 17.2283 11.1026 17.2247C11.0327 17.2209 10.9416 17.1937 10.8165 17.1341C10.6923 17.0748 10.5412 16.9868 10.3527 16.8676C10.0963 16.7056 9.88424 16.6133 9.6719 16.6074C9.45754 16.6014 9.25841 16.6838 9.02901 16.835L9.02868 16.8352C8.85899 16.9481 8.78868 16.9885 8.72319 16.9977C8.6594 17.0067 8.59138 16.9873 8.41677 16.9263C8.33033 16.8949 8.25571 16.8562 8.20222 16.8192C8.17536 16.8007 8.15554 16.7837 8.14251 16.7697C8.1328 16.7593 8.12943 16.7533 8.12854 16.7517C8.1284 16.7514 8.12835 16.7513 8.1283 16.7513V16.7513C8.11602 16.705 8.06877 16.6771 8.02218 16.6887C7.97516 16.7005 7.94657 16.7482 7.95833 16.7952C7.96776 16.8329 7.99119 16.8648 8.01402 16.8893C8.03811 16.9152 8.06849 16.9402 8.10233 16.9636C8.17021 17.0105 8.2589 17.0558 8.35733 17.0915L8.35836 17.0919C8.51994 17.1483 8.63277 17.1877 8.74771 17.1715C8.86105 17.1555 8.96736 17.0868 9.12576 16.9814C9.34222 16.8388 9.50488 16.7784 9.66702 16.7829C9.83122 16.7875 10.0103 16.859 10.2589 17.016C10.449 17.1362 10.6071 17.2287 10.7409 17.2925C10.8738 17.3559 10.9894 17.3944 11.0931 17.4C11.2011 17.4059 11.2928 17.3759 11.3728 17.3112C11.4491 17.2494 11.5109 17.159 11.5694 17.0508C11.5697 17.0503 11.57 17.0497 11.5703 17.0491C11.6061 16.9796 11.6506 16.9316 11.7034 16.9006C11.7564 16.8694 11.8234 16.8517 11.9093 16.8522C12.0846 16.8531 12.3261 16.9291 12.6467 17.0953L12.647 17.0955C12.7884 17.1682 12.9321 17.2325 13.052 17.2788C13.1119 17.3019 13.1667 17.321 13.2129 17.3344C13.2563 17.347 13.3004 17.3571 13.335 17.3571C13.3752 17.3571 13.4161 17.3409 13.4491 17.3244C13.485 17.3065 13.524 17.2818 13.5633 17.2532C13.6422 17.1959 13.7288 17.1182 13.8043 17.034L13.8053 17.0329C13.8831 16.9429 13.9467 16.8844 14.0084 16.8498C14.0672 16.817 14.1277 16.8037 14.2051 16.8118C14.2857 16.8203 14.386 16.8523 14.5209 16.9146C14.6552 16.9767 14.8183 17.0661 15.0239 17.1855C15.1911 17.2847 15.3329 17.3621 15.4528 17.4167C15.5718 17.4708 15.675 17.5054 15.7634 17.5141C15.8544 17.5232 15.9373 17.5053 16.002 17.4462C16.063 17.3906 16.0951 17.3095 16.1135 17.2206C16.1606 17.0113 16.1985 16.9214 16.2523 16.8749C16.3034 16.8307 16.3864 16.8114 16.5814 16.8113C16.8003 16.8195 17.1404 16.9148 17.4962 17.0799C17.654 17.1565 17.8138 17.2246 17.9421 17.2737C18.0063 17.2982 18.0634 17.3183 18.1089 17.3324C18.1316 17.3395 18.1523 17.3453 18.17 17.3495C18.1858 17.3532 18.2056 17.3571 18.2238 17.3571C18.2666 17.3571 18.3024 17.3386 18.3289 17.3181C18.3556 17.2973 18.3786 17.2702 18.3978 17.2415C18.4363 17.1839 18.4672 17.1087 18.4859 17.0292C18.4862 17.0282 18.4864 17.0272 18.4866 17.0262C18.4867 17.0256 18.4868 17.0249 18.487 17.0243C18.4971 16.9669 18.5254 16.8997 18.5636 16.8378C18.6013 16.7767 18.6435 16.7289 18.6771 16.7038C18.7242 16.6746 18.7689 16.6573 18.8189 16.6507C18.8707 16.6439 18.9332 16.6478 19.016 16.6681C19.1845 16.7094 19.4199 16.8138 19.7911 17.0032L19.7918 17.0036C19.9782 17.0966 20.1345 17.1659 20.2643 17.209C20.3921 17.2514 20.5044 17.2719 20.5985 17.2562C20.7009 17.2392 20.774 17.1805 20.8169 17.0885C20.8566 17.0036 20.8696 16.8928 20.8696 16.7655C20.8696 16.7257 20.8888 16.6885 20.9388 16.6572C20.991 16.6246 21.074 16.6014 21.1851 16.6013C21.1851 16.6013 21.185 16.6013 21.185 16.6014C21.185 16.6014 21.1851 16.6014 21.1855 16.6014C21.1869 16.6017 21.1918 16.6025 21.2014 16.6051C21.214 16.6085 21.2308 16.6142 21.2515 16.6221C21.2929 16.6381 21.3461 16.6618 21.4079 16.6921C21.5312 16.7526 21.6844 16.8372 21.8378 16.9325L21.839 16.9332C22.0082 17.0345 22.1496 17.1123 22.2674 17.1647C22.3835 17.2163 22.4856 17.2476 22.5737 17.2469C22.6693 17.2462 22.7463 17.2076 22.7997 17.1314C22.8481 17.0623 22.873 16.9681 22.8882 16.8619L22.8882 16.8617C22.9019 16.7641 22.9268 16.7037 22.9571 16.668C22.9843 16.6359 23.0224 16.6156 23.086 16.6128C23.1531 16.6099 23.2451 16.627 23.3694 16.6712C23.4858 16.7126 23.625 16.7757 23.791 16.8613C23.8118 16.8062 23.8322 16.751 23.8522 16.6955ZM21.1851 16.6013C21.1853 16.6013 21.1855 16.6013 21.1857 16.6013H21.1854C21.1852 16.6013 21.1851 16.6013 21.1851 16.6013ZM18.2162 17.1828C18.2162 17.1827 18.2163 17.1827 18.2164 17.1826C18.2162 17.1827 18.2162 17.1828 18.2162 17.1828Z" fill="black"/>
<path fill-rule="evenodd" clip-rule="evenodd" d="M23.7352 17.0061C23.6234 16.9518 23.5254 16.9096 23.4399 16.8792C23.3156 16.835 23.2236 16.8179 23.1564 16.8208C23.0929 16.8236 23.0547 16.8439 23.0275 16.876C23.0034 16.9044 22.9828 16.9484 22.9684 17.0144L21.9056 16.9335C21.7804 16.8591 21.6588 16.7931 21.5557 16.7425C21.4913 16.7109 21.4329 16.6847 21.385 16.6663C21.361 16.6571 21.3385 16.6494 21.3185 16.6438C21.2999 16.6387 21.2776 16.6338 21.2562 16.6338C21.1235 16.6338 21.0048 16.661 20.9162 16.7164C20.8252 16.7734 20.7645 16.8621 20.7645 16.9735C20.7645 17.094 20.7512 17.1731 20.7283 17.2223C20.7087 17.2644 20.6829 17.2839 20.6402 17.291C20.5891 17.2996 20.5099 17.2901 20.39 17.2504C20.2722 17.2113 20.1247 17.1463 19.941 17.0547C19.5719 16.8663 19.3194 16.7525 19.1282 16.7056C19.0311 16.6818 18.9459 16.6742 18.8664 16.6847C18.7862 16.6953 18.717 16.7236 18.6515 16.7648C18.6498 16.7658 18.6482 16.767 18.6466 16.7681C18.5879 16.8107 18.5303 16.8796 18.4847 16.9537C18.4391 17.0275 18.4005 17.1146 18.385 17.1991C18.3701 17.2614 18.3466 17.3155 18.3223 17.352C18.3099 17.3705 18.2992 17.3816 18.2918 17.3874C18.2912 17.3879 18.2906 17.3882 18.2901 17.3886C18.2878 17.3881 18.2846 17.3875 18.2805 17.3866C18.2683 17.3837 18.2519 17.3791 18.2314 17.3728C18.1907 17.3602 18.1374 17.3414 18.0753 17.3177C17.9514 17.2703 17.796 17.2041 17.6426 17.1297L17.6413 17.129C17.2745 16.9588 16.9089 16.8528 16.6566 16.8438C16.6555 16.8437 16.6545 16.8437 16.6535 16.8437C16.4625 16.8437 16.3144 16.858 16.2079 16.9501C16.104 17.0401 16.0578 17.1893 16.0125 17.3909C16.0124 17.3911 16.0124 17.3913 16.0123 17.3915C16.0123 17.3919 16.0122 17.3922 16.0121 17.3925C15.9968 17.467 15.9752 17.5053 15.9542 17.5246C15.9366 17.5406 15.9085 17.5531 15.8512 17.5474C15.7913 17.5415 15.7088 17.5163 15.5961 17.4649C15.4845 17.4141 15.3487 17.3403 15.1837 17.2423L15.1829 17.2419C14.9764 17.122 14.8073 17.0289 14.665 16.9632C14.5233 16.8978 14.4027 16.8567 14.294 16.8453C14.182 16.8335 14.0849 16.8533 13.9931 16.9047C13.9047 16.9542 13.8253 17.031 13.7435 17.1254C13.6761 17.2006 13.5988 17.2696 13.5306 17.3192C13.4963 17.3442 13.4658 17.3631 13.4412 17.3753C13.4197 17.3861 13.4086 17.3887 13.4058 17.3894C13.4051 17.3896 13.405 17.3896 13.4055 17.3896C13.398 17.3896 13.3748 17.3861 13.3322 17.3738C13.2924 17.3622 13.2426 17.3451 13.1858 17.323C13.0721 17.2791 12.9341 17.2175 12.7979 17.1474C12.4706 16.9778 12.1988 16.8858 11.9807 16.8847C11.87 16.8841 11.7703 16.9069 11.6847 16.9573C11.5992 17.0077 11.5335 17.0822 11.4851 17.176C11.4302 17.2774 11.3817 17.3431 11.3327 17.3828C11.2873 17.4196 11.2385 17.4363 11.173 17.4327C11.1032 17.4289 11.0121 17.4017 10.887 17.3421C10.7628 17.2828 10.6117 17.1948 10.4232 17.0756C10.1668 16.9136 9.95471 16.8213 9.74237 16.8154C9.52801 16.8094 9.32889 16.8918 9.09948 17.043L9.09915 17.0431C8.92946 17.1561 8.85911 17.1965 8.79367 17.2057C8.72987 17.2147 8.66186 17.1953 8.48725 17.1343C8.39903 17.1023 8.31418 17.0627 8.25076 17.0244C8.21889 17.005 8.19465 16.9874 8.17857 16.9727C8.1684 16.9634 8.16437 16.9579 8.1632 16.9563C8.16315 16.9562 8.16306 16.9561 8.16301 16.9561C8.14942 16.9118 8.10329 16.8853 8.05778 16.8968C8.01076 16.9085 7.98222 16.9562 7.99398 17.0032C8.00472 17.0461 8.03528 17.0796 8.06017 17.1023C8.08773 17.1275 8.12242 17.1519 8.15992 17.1746C8.23525 17.2201 8.33111 17.2644 8.42786 17.2995L8.42884 17.2999C8.59042 17.3563 8.70325 17.3957 8.81818 17.3795C8.93153 17.3635 9.03784 17.2948 9.19623 17.1894C9.4127 17.0468 9.57536 16.9864 9.7375 16.9909C9.9017 16.9955 10.0808 17.067 10.3294 17.224C10.5195 17.3442 10.6776 17.4367 10.8114 17.5006C10.9443 17.5639 11.0598 17.6024 11.1635 17.608C11.2716 17.6139 11.3633 17.5839 11.4432 17.5192C11.5195 17.4574 11.5814 17.367 11.6399 17.2588L11.6402 17.2582L11.6408 17.2571C11.6765 17.1876 11.7211 17.1396 11.7738 17.1085C11.8269 17.0774 11.8939 17.0597 11.9798 17.0602C12.1551 17.0611 12.3965 17.1371 12.7172 17.3034L12.7174 17.3035C12.8588 17.3762 13.0026 17.4405 13.1224 17.4868C13.1823 17.5099 13.2372 17.529 13.2834 17.5424C13.3268 17.555 13.3709 17.5651 13.4055 17.5651C13.4456 17.5651 13.4866 17.5489 13.5196 17.5324C13.5555 17.5145 13.5945 17.4899 13.6338 17.4612C13.7126 17.4039 13.7993 17.3263 13.8747 17.242L13.8758 17.2409C13.9537 17.1509 14.0172 17.0924 14.079 17.0578C14.1377 17.025 14.1982 17.0117 14.2756 17.0199C14.3562 17.0283 14.4564 17.0603 14.5914 17.1226C14.7257 17.1847 14.8888 17.2741 15.0944 17.3935C15.2616 17.4927 15.4034 17.5701 15.5233 17.6247C15.6423 17.6789 15.7455 17.7134 15.8339 17.7221C15.9249 17.7312 16.0077 17.7133 16.0725 17.6543C16.1335 17.5986 16.1656 17.5175 16.1839 17.4287C16.231 17.2194 16.269 17.1294 16.3228 17.0829C16.3739 17.0387 16.4569 17.0194 16.6518 17.0193C16.8707 17.0275 17.2109 17.1229 17.5667 17.2879C17.7245 17.3645 17.8843 17.4326 18.0126 17.4817C18.0768 17.5062 18.1339 17.5263 18.1794 17.5404C18.2021 17.5475 18.2228 17.5533 18.2405 17.5575C18.2563 17.5612 18.2761 17.5651 18.2943 17.5651C18.337 17.5651 18.3729 17.5466 18.3993 17.5261C18.4262 17.5054 18.4491 17.4782 18.4682 17.4495C18.5067 17.3919 18.5377 17.3166 18.5564 17.2372C18.5568 17.2356 18.5572 17.2339 18.5574 17.2323C18.5676 17.1749 18.5959 17.1077 18.634 17.0458C18.6717 16.9847 18.714 16.9369 18.7475 16.9118C18.7946 16.8826 18.8394 16.8654 18.8894 16.8587C18.9412 16.8519 19.0037 16.8558 19.0864 16.8761C19.255 16.9174 19.4904 17.0218 19.8616 17.2112L19.8623 17.2116C20.0487 17.3046 20.205 17.374 20.3348 17.417C20.4626 17.4594 20.5749 17.4799 20.6689 17.4642C20.7714 17.4472 20.8445 17.3885 20.8874 17.2965C20.927 17.2116 20.9401 17.1008 20.9401 16.9735C20.9401 16.9338 20.9593 16.8965 21.0093 16.8653L21.5105 16.9161C21.6278 16.9751 21.7679 17.0534 21.9083 17.1405L21.9095 17.1412C22.0787 17.2425 22.2201 17.3202 22.3379 17.3727C22.454 17.4243 22.5561 17.4556 22.6442 17.4549C22.7398 17.4542 22.8167 17.4156 22.8701 17.3394C22.9186 17.2704 22.9434 17.1761 22.9586 17.0699L22.9587 17.0697C22.9615 17.0497 22.9648 17.0313 22.9684 17.0144L23.7096 17.0707C23.7182 17.0492 23.7267 17.0276 23.7352 17.0061ZM21.9511 16.9607C21.9359 16.9516 21.9207 16.9425 21.9056 16.9335L21.4804 16.9011C21.4797 16.9008 21.4791 16.9005 21.4784 16.9001C21.4166 16.8698 21.3634 16.8461 21.322 16.8301C21.3012 16.8222 21.2845 16.8166 21.2718 16.8131C21.2623 16.8105 21.2574 16.8097 21.2559 16.8095C21.2556 16.8094 21.2555 16.8094 21.2555 16.8094C21.2555 16.8094 21.2555 16.8094 21.2555 16.8094C21.2556 16.8094 21.2559 16.8094 21.2562 16.8094C21.1448 16.8094 21.0616 16.8326 21.0093 16.8653L21.4804 16.9011C21.4903 16.9059 21.5003 16.911 21.5105 16.9161L21.9511 16.9607ZM21.9511 16.9607C21.9675 16.9707 21.9839 16.9808 22.0003 16.9909C22.1673 17.091 22.3014 17.1643 22.4093 17.2123C22.519 17.2611 22.5932 17.2797 22.6428 17.2794C22.685 17.279 22.7075 17.2657 22.7264 17.2387C22.7502 17.2046 22.7706 17.1447 22.7848 17.0453L21.9511 16.9607ZM18.2869 17.3907C18.2868 17.3907 18.2867 17.3907 18.2867 17.3907C18.2867 17.3908 18.2867 17.3908 18.2867 17.3908C18.2867 17.3908 18.2867 17.3907 18.2869 17.3907Z" fill="white"/>
<path fill-rule="evenodd" clip-rule="evenodd" d="M23.088 18.3887C22.8203 18.2341 22.7559 18.2385 22.5307 18.3197C22.4346 18.3553 22.3305 18.4122 22.2984 18.4549C22.2344 18.5545 21.8179 18.5545 21.5937 18.4549C21.4575 18.398 21.4655 18.4193 21.6417 18.5616C21.914 18.7821 22.1142 18.7963 22.4666 18.6043C22.7048 18.4678 22.744 18.4622 22.9943 18.5562C23.026 18.5007 23.0572 18.4448 23.088 18.3887ZM9.68459 18.2059C9.42832 18.2415 9.41229 18.2343 9.55648 18.1419C9.78073 17.9925 9.94892 18.0067 10.4054 18.213C10.9099 18.4406 11.1262 18.4335 11.5747 18.2059C11.9671 17.9996 12.4076 17.9996 12.6319 18.2059C12.7359 18.2984 12.7119 18.2984 12.4476 18.2486C12.1032 18.1774 11.927 18.2273 11.4866 18.4905C11.1182 18.7181 10.8859 18.6968 10.3333 18.3766C10.045 18.213 9.90082 18.1774 9.68459 18.2059ZM17.0687 18.6754C17.1808 18.6754 17.5172 18.5331 17.8215 18.3553C18.1339 18.1703 18.4622 18.0352 18.5904 18.0352C18.7105 18.0352 19.0469 18.1134 19.3432 18.213C19.6315 18.3126 20.0239 18.3908 20.2081 18.398H20.5365L20.2722 18.5189C20.0239 18.6256 19.9839 18.6256 19.4713 18.4762C18.6144 18.2273 18.3661 18.2628 17.7655 18.6896C17.2449 19.0595 16.9566 19.0311 15.9555 18.4976C15.7072 18.3624 15.6992 18.3624 15.1946 18.5189C14.586 18.711 14.3137 18.7181 14.0013 18.5545C13.681 18.3837 13.713 18.3268 14.0814 18.4122C14.4018 18.4905 14.8343 18.4122 15.499 18.1703C15.7392 18.085 15.7873 18.0992 16.3078 18.3766C16.6122 18.5402 16.9566 18.6754 17.0687 18.6754ZM19.3992 19.5291C19.5034 19.5291 19.7837 19.401 20.0159 19.2445C20.2482 19.088 20.5285 18.96 20.6246 18.96C20.7207 18.96 21.0331 19.0524 21.3133 19.1734C21.5856 19.2872 21.9461 19.3868 22.0982 19.3939L22.3785 19.401L22.1142 19.5006C21.874 19.5931 21.8179 19.586 21.3534 19.4153C20.7287 19.1734 20.4724 19.1805 20.104 19.4437C19.5194 19.8563 19.3512 19.8705 18.8226 19.5291C18.4382 19.2943 18.214 19.2801 17.8215 19.4864C17.4692 19.6713 17.2129 19.7211 17.2129 19.6144C17.2129 19.586 17.3089 19.5219 17.4371 19.4722C17.5572 19.4295 17.7895 19.3228 17.9577 19.2374L18.262 19.0809L18.7425 19.3085C18.9988 19.4295 19.3031 19.5291 19.3992 19.5291ZM12.4476 19.3156C12.8401 19.5931 13.0803 19.586 13.4567 19.2801C13.8251 18.9813 13.9212 18.9813 14.4739 19.209C14.9544 19.4081 15.1386 19.4224 15.3949 19.3014C15.555 19.2303 15.563 19.2303 15.4589 19.3441C15.2186 19.6002 15.0745 19.6144 14.578 19.4224C14.0334 19.2232 13.9212 19.2374 13.3606 19.6002C13.1764 19.714 13.0002 19.8136 12.9682 19.8136C12.9362 19.8136 12.7199 19.6998 12.4957 19.5646C12.0472 19.2872 11.871 19.2659 11.5186 19.4295C11.3824 19.4864 11.2143 19.5219 11.1422 19.4935C11.0381 19.4579 11.0942 19.4081 11.3665 19.2801C11.847 19.0524 12.0873 19.0595 12.4476 19.3156ZM8.81965 19.963C8.8677 19.8848 8.98784 19.7923 9.08393 19.7496C9.33223 19.6429 9.34821 19.65 9.7887 19.9559C10.3173 20.3329 10.4614 20.3543 10.8859 20.1409C11.3504 19.9061 11.6628 19.9061 11.9671 20.1409C12.1433 20.2689 12.1593 20.3116 12.0472 20.276C11.5826 20.1409 11.3665 20.1551 11.0461 20.34C10.6216 20.589 10.2773 20.5819 9.86079 20.3187C9.68459 20.2049 9.5164 20.0768 9.48438 20.0341C9.42031 19.9346 9.07592 19.9346 8.87571 20.0341C8.73157 20.0982 8.72356 20.091 8.81965 19.963ZM14.4098 20.3116C14.4739 20.276 14.658 20.1693 14.8102 20.0697C14.9624 19.9701 15.1386 19.8919 15.1946 19.8848C15.3388 19.8848 15.6031 20.0128 15.9314 20.2546C16.2758 20.5036 16.3719 20.5036 16.7644 20.2404C17.1648 19.9701 17.3971 19.9772 17.8456 20.2404C18.2861 20.5108 18.5183 20.5036 18.9668 20.2404C19.4073 19.9772 19.5514 19.9772 20.056 20.2404C20.5285 20.4894 20.7607 20.5036 21.1372 20.3045L21.4175 20.1551L21.2573 20.3116C21.0731 20.4894 20.7207 20.6673 20.5365 20.6673C20.4724 20.6673 20.2802 20.589 20.112 20.4965C19.6235 20.212 19.4473 20.2049 18.9588 20.4467C18.4142 20.7242 18.2299 20.7242 17.7735 20.4539C17.333 20.1978 17.2529 20.1907 16.8845 20.4112C16.3879 20.7171 16.2518 20.7099 15.8113 20.3898C15.5871 20.2262 15.3548 20.0982 15.2747 20.0982C15.2027 20.0982 14.9704 20.1764 14.7622 20.276C14.554 20.3756 14.3617 20.4396 14.3377 20.4112C14.3137 20.3898 14.3457 20.3472 14.4098 20.3116Z" fill="white"/>
</svg>
