<svg width="25" height="25" viewBox="0 0 25 25" fill="none" xmlns="http://www.w3.org/2000/svg">
<mask id="mask0_1_2570" style="mask-type:luminance" maskUnits="userSpaceOnUse" x="0" y="0" width="25" height="25">
<path d="M24.5679 0.994141H0.567871V24.9941H24.5679V0.994141Z" fill="white"/>
</mask>
<g mask="url(#mask0_1_2570)">
<path d="M12.5679 24.9941C19.1953 24.9941 24.5678 19.6216 24.5678 12.9941C24.5678 6.36671 19.1953 0.994141 12.5679 0.994141C5.94043 0.994141 0.567871 6.36671 0.567871 12.9941C0.567871 19.6216 5.94043 24.9941 12.5679 24.9941Z" fill="#012169"/>
</g>
<mask id="mask1_1_2570" style="mask-type:alpha" maskUnits="userSpaceOnUse" x="0" y="0" width="25" height="25">
<path d="M12.5679 24.9941C19.1953 24.9941 24.5679 19.6216 24.5679 12.9941C24.5679 6.36672 19.1953 0.994141 12.5679 0.994141C5.94045 0.994141 0.567871 6.36672 0.567871 12.9941C0.567871 19.6216 5.94045 24.9941 12.5679 24.9941Z" fill="#D9D9D9"/>
</mask>
<g mask="url(#mask1_1_2570)">
<path d="M1.64355 0.994141H16.4149V8.3798H1.64355V0.994141Z" fill="#012169"/>
<path d="M1.64355 0.994141V1.81986L14.7635 8.3798H16.4149V7.5541L3.29499 0.994141H1.64355ZM16.4149 0.994141V1.81986L3.29499 8.3798H1.64355V7.5541L14.7635 0.994141H16.4149Z" fill="white"/>
<path d="M7.79831 0.994141V8.3798H10.2602V0.994141H7.79831ZM1.64355 3.45603V5.91793H16.4149V3.45603H1.64355Z" fill="white"/>
<path d="M1.64355 3.94841V5.42555H16.4149V3.94841H1.64355ZM8.29068 0.994141V8.3798H9.76781V0.994141H8.29068ZM1.64355 8.3798L6.56732 5.91793H7.66828L2.74451 8.3798H1.64355ZM1.64355 0.994141L6.56732 3.45603H5.46637L1.64355 1.54462V0.994141ZM10.3902 3.45603L15.314 0.994141H16.4149L11.4911 3.45603H10.3902ZM16.4149 8.3798L11.4911 5.91793H12.5921L16.4149 7.82935V8.3798Z" fill="#C8102E"/>
</g>
<path d="M14.7554 16.3447C14.4589 16.5959 14.1763 16.9628 14.1067 17.2946C13.9112 18.2276 13.6518 18.4352 13.2515 18.2351C13.2515 18.7364 13.6907 18.7744 13.8834 18.4816C13.8834 18.9514 14.0539 19.3591 14.4385 19.7066C14.6007 19.8529 14.6312 19.7529 14.5543 19.5907C14.4774 19.4285 14.4774 18.905 14.3236 18.6048C14.5701 18.7818 14.9324 18.6817 14.9018 18.1961C14.5858 18.3815 14.2717 18.374 14.2393 17.9339C14.1994 17.4178 14.4005 16.6681 14.7554 16.3447Z" fill="#F7E017" stroke="black" stroke-width="0.6"/>
<path d="M14.3799 12.6344C14.4012 12.449 14.3613 12.2591 14.226 12.1395C13.9648 11.9097 13.709 11.9857 13.5181 12.1711C13.2327 12.0172 13.0817 12.563 12.7583 12.4713C12.812 12.6483 12.8973 12.7252 13.0585 12.664C12.8889 12.8179 13.0585 13.0032 12.8584 13.1876C13.2207 13.3034 13.4134 13.1032 13.3977 12.7557C13.5367 12.879 13.7516 12.8716 13.8675 12.7326C13.6747 12.6705 13.6738 12.5037 13.7516 12.3471C13.8675 12.1164 14.4105 12.1257 14.3799 12.6344Z" fill="#F7E017" stroke="black" stroke-width="0.6"/>
<path d="M15.2159 15.315C14.8073 15.531 14.0604 15.4383 13.9909 14.9064C13.9214 14.3745 14.4375 14.1354 14.5765 14.0669C14.7924 13.9584 14.962 14.1512 14.8925 14.3754C15.1316 14.2911 15.1853 14.0131 15.0695 13.8519C15.3855 13.875 15.6783 13.636 15.8015 13.2968C15.6903 13.4025 15.3882 13.3311 15.1399 13.3154C15.2168 13.231 15.2159 13.0661 15.1927 12.9809C14.9314 13.2496 14.5533 13.1264 14.053 13.9047C14.1299 13.635 14.2763 13.0958 14.3616 12.7409C14.3699 12.7057 14.3764 12.6705 14.381 12.6343C14.4106 12.1256 13.8686 12.1163 13.7528 12.348C13.8797 12.4907 13.813 12.6575 13.7676 12.9105C13.7139 13.2107 13.598 13.9047 13.4979 14.1354C13.4673 13.7731 13.2283 13.7499 13.182 13.573C13.1124 13.6193 13.0745 13.7425 13.0893 13.8269C13.004 13.7342 12.7112 13.85 12.6038 13.711C12.4879 13.9418 12.6732 14.1734 12.866 14.2735C12.7539 14.2809 12.727 14.4162 12.6038 14.4162C12.7696 14.6089 12.9392 14.6858 13.1356 14.7016C13.3321 14.7173 13.4785 14.7906 13.598 15.0287C13.7907 15.4151 14.5246 15.6653 15.2159 15.315Z" fill="#337321" stroke="black" stroke-width="0.6"/>
<path d="M16.2333 14.8445C16.0026 15.4838 15.3706 15.9388 15.0852 16.0083C14.5997 16.126 13.61 16.6069 13.345 16.8543C13.3033 16.845 13.2644 16.8302 13.2357 16.8098C13.105 16.7172 12.9966 16.417 13.2283 16.1621C13.9529 15.4838 14.7313 15.7767 15.2168 15.3143C14.8081 15.5302 14.0613 15.4375 13.9918 14.9056C14.431 15.0215 15.2251 15.0289 15.8562 14.3506C15.9405 14.4441 16.187 14.737 16.2333 14.8445Z" fill="#F7E017" stroke="black" stroke-width="0.6"/>
<path d="M14.7555 16.3456C14.3894 16.656 14.1995 17.4186 14.2384 17.9347C14.2495 18.0783 14.2893 18.1757 14.3505 18.235C14.3774 17.9422 14.5812 17.1851 15.1011 16.8478C15.5403 16.5624 16.226 15.923 16.4808 15.191C16.4345 15.0603 16.3576 14.9677 16.2112 14.875C15.9582 15.5663 15.2827 15.898 14.7555 16.3456Z" fill="#337321" stroke="black" stroke-width="0.6"/>
<path d="M15.9978 14.5471C15.8671 14.7435 15.5697 15.0132 15.2852 15.1216C15.3464 15.0521 15.3658 14.9641 15.3695 14.8909C15.0072 15.0298 14.2826 15.0141 13.9897 14.9066C14.429 15.0224 15.2231 15.0298 15.8542 14.3516C15.9172 14.4201 15.9709 14.4813 15.9978 14.5471Z" fill="#316D3A" stroke="black" stroke-width="0.6"/>
<path d="M13.2285 16.1611C12.6391 16.7125 13.0283 17.1934 13.259 17.3018C13.1978 17.6873 13.5592 17.641 13.5518 17.9644C13.6982 17.88 13.7371 17.6558 13.714 17.4788C13.8993 17.6789 14.3691 17.4556 14.4692 17.8254C14.5312 17.4167 14.2153 17.009 13.8224 17.047C13.9845 16.9006 13.8919 16.6615 13.7381 16.6004C13.7075 16.9006 13.3683 16.9006 13.2367 16.8089C13.1052 16.7162 12.9968 16.416 13.2285 16.1611Z" fill="#337321" stroke="black" stroke-width="0.6"/>
<path d="M14.5034 19.6683C14.4395 19.7054 14.4441 19.7878 14.484 19.8416C14.5646 19.9491 14.4265 20.1937 14.6878 20.2465C14.7647 20.2623 14.824 20.215 14.8537 20.127C14.9343 19.8842 14.6767 19.8573 14.6536 19.7415C14.6304 19.6257 14.5572 19.6377 14.5034 19.6683Z" fill="#F7E017" stroke="black" stroke-width="0.6"/>
<path d="M14.723 20.1228C14.6369 20.1627 14.5609 20.2192 14.5961 20.4962C14.61 20.6112 14.6035 20.8891 14.5034 20.8928C14.5646 20.9234 14.6962 20.9568 14.7499 20.8854C14.8018 20.9725 14.9195 20.9475 14.9658 20.8391C15.027 20.8891 15.1122 20.8048 15.1122 20.7316C15.166 20.7659 15.2744 20.7158 15.2466 20.5509C15.3124 20.5741 15.3967 20.5277 15.4273 20.4851C15.3309 20.4657 15.0881 20.335 15.0307 20.2312C14.9732 20.1265 14.8231 20.0765 14.723 20.1228Z" fill="#F7E017" stroke="black" stroke-width="0.6"/>
<path d="M13.3877 12.3293C13.4266 12.2719 13.4701 12.2181 13.5183 12.1709" stroke="black" stroke-width="0.6"/>
<path d="M14.8535 13.3496C14.9212 13.3107 15.0249 13.3061 15.1398 13.3135" stroke="black" stroke-width="0.6"/>
<path d="M14.7498 20.8853C14.723 20.8464 14.7128 20.6852 14.7323 20.5869" stroke="black" stroke-width="0.6"/>
<path d="M14.9658 20.8394C14.9231 20.807 14.8425 20.6949 14.8286 20.5967" stroke="black" stroke-width="0.6"/>
<path d="M15.112 20.7317C15.0583 20.7066 14.9267 20.5371 14.8979 20.4277" stroke="black" stroke-width="0.6"/>
<path d="M15.2464 20.5496C15.1824 20.5357 14.9878 20.4088 14.9072 20.2744" stroke="black" stroke-width="0.6"/>
<path d="M18.7994 16.1699C19.7474 16.964 19.8085 17.5951 19.6621 17.9657C19.5852 17.6192 19.1923 17.0799 18.7837 16.9409L18.7994 16.1699Z" fill="#F7E017" stroke="black" stroke-width="0.6"/>
<path d="M17.1045 15.7227H18.8614C18.8614 15.7227 18.8614 16.1851 18.8614 17.803C18.8614 19.5756 17.8755 20.6236 16.8729 21.1777C15.8711 20.6227 14.8843 19.5747 14.8843 17.803C14.8843 16.1851 14.8843 15.7227 14.8843 15.7227H16.1177C16.1195 15.8301 16.1297 15.9923 16.2566 16.1545C16.5476 16.1257 16.8766 15.908 17.1045 15.7227Z" fill="#337321" stroke="black" stroke-width="0.6"/>
<path d="M18.8615 15.7227C18.8615 15.7227 18.8615 16.1851 18.8615 17.803C18.8615 18.3376 18.7716 18.8074 18.6187 19.2161L16.8739 16.0145L15.129 19.2161C14.9761 18.8065 14.8862 18.3376 14.8862 17.803C14.8862 16.1851 14.8862 15.7227 14.8862 15.7227H18.8615Z" fill="#006EC7" stroke="black" stroke-width="0.6"/>
<path d="M18.6715 19.0625C18.6409 19.157 18.5844 19.3099 18.5418 19.4045L16.8738 16.304L15.2059 19.4045C15.1624 19.3099 15.1068 19.157 15.0762 19.0625L16.8748 15.7285L18.6715 19.0625Z" fill="#F7E017"/>
<path d="M17.6659 20.2038C17.7122 20.227 17.7974 20.2696 17.8355 20.2853C17.9281 20.1 17.9429 19.8387 17.9124 19.607C17.8123 19.8618 17.4731 19.8535 17.3805 20.0073C17.437 20.0361 17.4898 20.0731 17.5352 20.1055C17.4194 20.2214 17.1488 20.4151 16.995 20.4614V18.8083C16.995 18.6925 16.9561 18.5961 16.9561 18.4997C16.9561 18.4997 16.9561 18.2347 16.9561 18.1578C16.9561 18.0809 16.9403 17.9688 16.8718 17.9688C16.8022 17.9688 16.7874 18.0809 16.7874 18.1578C16.7874 18.2347 16.7874 18.4997 16.7874 18.4997C16.7874 18.5961 16.7485 18.7082 16.7485 18.8083V20.4614C16.6642 20.2149 16.3315 20.2992 16.1777 20.0528C16.238 20.0379 16.3019 20.0333 16.363 20.0453C16.2472 19.6525 15.9312 19.6218 15.8701 19.506C15.8701 19.6682 15.8006 20.0453 15.909 20.2075C15.9331 20.1788 15.9692 20.1482 16.0137 20.1222C16.1444 20.4077 16.7337 20.4085 16.8727 20.8784C16.9839 20.7051 17.3851 20.5049 17.6659 20.2038Z" fill="#F7E017" stroke="black" stroke-width="0.6"/>
<path d="M16.8726 18.828C17.0033 18.828 17.4193 18.7854 17.5704 18.7854C17.6093 18.7854 17.6417 18.727 17.6417 18.6547C17.6417 18.5825 17.6102 18.5241 17.5704 18.5241C17.4202 18.5241 17.0042 18.4814 16.8726 18.4814C16.742 18.4814 16.3259 18.5241 16.1749 18.5241C16.136 18.5241 16.1035 18.5825 16.1035 18.6547C16.1035 18.727 16.135 18.7854 16.1749 18.7854C16.3259 18.7854 16.742 18.828 16.8726 18.828Z" fill="#F7E017" stroke="black" stroke-width="0.6"/>
<path d="M16.7886 18.1509C16.7609 18.1286 16.7247 18.1148 16.6839 18.1148C16.5968 18.1148 16.5254 18.1796 16.5254 18.2593C16.5254 18.339 16.5959 18.4038 16.6839 18.4038C16.771 18.4038 16.8414 18.339 16.8414 18.2593C16.8414 18.1972 16.9313 18.1972 16.9313 18.2593C16.9313 18.3844 16.8201 18.4854 16.6839 18.4854C16.5468 18.4854 16.4365 18.3844 16.4365 18.2593C16.4365 18.1342 16.5477 18.0332 16.6839 18.0332C16.7247 18.0332 16.7636 18.0425 16.7979 18.0582C16.7951 18.0786 16.7886 18.1175 16.7886 18.1509Z" fill="#F7E017" stroke="black" stroke-width="0.6"/>
<path d="M16.1758 18.7857C16.2147 18.7857 16.2462 18.7273 16.2462 18.6551C16.2462 18.5828 16.2147 18.5244 16.1758 18.5244" fill="#F7E017"/>
<path d="M16.1758 18.7857C16.2147 18.7857 16.2462 18.7273 16.2462 18.6551C16.2462 18.5828 16.2147 18.5244 16.1758 18.5244" stroke="black" stroke-width="0.6"/>
<path d="M16.2334 18.7857C16.2723 18.7857 16.3038 18.7273 16.3038 18.6551C16.3038 18.5828 16.2723 18.5244 16.2334 18.5244" fill="#F7E017"/>
<path d="M16.2334 18.7857C16.2723 18.7857 16.3038 18.7273 16.3038 18.6551C16.3038 18.5828 16.2723 18.5244 16.2334 18.5244" stroke="black" stroke-width="0.6"/>
<path d="M16.6143 18.8131C16.6615 18.8131 16.6995 18.7427 16.6995 18.6556C16.6995 18.5685 16.6615 18.498 16.6143 18.498" fill="#F7E017"/>
<path d="M16.6143 18.8131C16.6615 18.8131 16.6995 18.7427 16.6995 18.6556C16.6995 18.5685 16.6615 18.498 16.6143 18.498" stroke="black" stroke-width="0.6"/>
<path d="M16.7021 18.8191C16.7512 18.8191 16.7911 18.745 16.7911 18.6542C16.7911 18.5634 16.7512 18.4893 16.7021 18.4893" fill="#F7E017"/>
<path d="M16.7021 18.8191C16.7512 18.8191 16.7911 18.745 16.7911 18.6542C16.7911 18.5634 16.7512 18.4893 16.7021 18.4893" stroke="black" stroke-width="0.6"/>
<path d="M16.999 18.8209C17.049 18.8209 17.0889 18.7458 17.0889 18.6541C17.0889 18.5624 17.0481 18.4873 16.999 18.4873" fill="#F7E017"/>
<path d="M16.999 18.8209C17.049 18.8209 17.0889 18.7458 17.0889 18.6541C17.0889 18.5624 17.0481 18.4873 16.999 18.4873" stroke="black" stroke-width="0.6"/>
<path d="M17.0913 18.8166C17.1404 18.8166 17.1803 18.7444 17.1803 18.6554C17.1803 18.5664 17.1404 18.4941 17.0913 18.4941" fill="#F7E017"/>
<path d="M17.0913 18.8166C17.1404 18.8166 17.1803 18.7444 17.1803 18.6554C17.1803 18.5664 17.1404 18.4941 17.0913 18.4941" stroke="black" stroke-width="0.6"/>
<path d="M17.5054 18.7874C17.5452 18.7874 17.5777 18.7281 17.5777 18.654C17.5777 18.5799 17.5452 18.5205 17.5054 18.5205" fill="#F7E017"/>
<path d="M17.5054 18.7874C17.5452 18.7874 17.5777 18.7281 17.5777 18.654C17.5777 18.5799 17.5452 18.5205 17.5054 18.5205" stroke="black" stroke-width="0.6"/>
<path d="M16.0137 20.1223C16.0609 20.0936 16.1184 20.0676 16.1786 20.0537L16.0137 20.1223Z" fill="#F7E017"/>
<path d="M16.0137 20.1223C16.0609 20.0936 16.1184 20.0676 16.1786 20.0537" stroke="black" stroke-width="0.6"/>
<path d="M17.5815 20.1379C17.5676 20.1277 17.5519 20.1175 17.5361 20.1055L17.5815 20.1379Z" fill="#F7E017"/>
<path d="M17.5815 20.1379C17.5676 20.1277 17.5519 20.1175 17.5361 20.1055" stroke="black" stroke-width="0.6"/>
<path d="M17.666 20.2032C17.7735 20.0874 17.8634 19.9567 17.9134 19.8066L17.666 20.2032Z" fill="#F7E017"/>
<path d="M17.666 20.2032C17.7735 20.0874 17.8634 19.9567 17.9134 19.8066" stroke="black" stroke-width="0.6"/>
<path d="M16.5195 17.1942C16.5195 17.1562 16.5501 17.1405 16.5862 17.1136C16.6298 17.0812 16.6474 17.0654 16.6863 17.0654H17.1923C17.2293 17.0654 17.2386 17.0747 17.2386 17.1099V17.7965C17.2386 17.8308 17.2303 17.841 17.1923 17.841H16.5195V17.1868" fill="white"/>
<path d="M16.5195 17.1942C16.5195 17.1562 16.5501 17.1405 16.5862 17.1136C16.6298 17.0812 16.6474 17.0654 16.6863 17.0654H17.1923C17.2293 17.0654 17.2386 17.0747 17.2386 17.1099V17.7965C17.2386 17.8308 17.2303 17.841 17.1923 17.841H16.5195V17.1868" stroke="black" stroke-width="0.6"/>
<path d="M17.0672 17.9008C17.134 17.9008 17.1219 17.8989 17.1683 17.8526C17.2174 17.8044 17.2127 17.8081 17.2127 17.7636V17.1344C17.2127 17.102 17.2044 17.0928 17.1701 17.0928H16.7022C16.6651 17.0928 16.6494 17.1076 16.6095 17.1381C16.5761 17.1632 16.5483 17.1789 16.5483 17.2141V17.9008H17.0672Z" fill="#E5E5E5" stroke="black" stroke-width="0.6"/>
<path d="M17.1172 17.8863C17.1172 17.9206 17.1089 17.9308 17.0709 17.9308H16.565C16.5269 17.9308 16.5195 17.9215 16.5195 17.8863V17.1988C16.5195 17.1645 16.5279 17.1543 16.565 17.1543H17.0709C17.1089 17.1543 17.1172 17.1636 17.1172 17.1988V17.8863Z" fill="white" stroke="black" stroke-width="0.6"/>
<path d="M18.0977 15.319C18.1959 15.4293 18.2284 15.5766 18.1747 15.7212H18.0282C18.0894 15.5358 18.0514 15.3598 17.7892 15.3366C17.3972 15.3023 16.9413 16.0613 16.2556 16.153C16.0554 15.9139 16.0657 15.4589 16.3205 15.243C16.1889 14.864 15.9118 14.4471 15.7191 14.2673C15.5931 14.2469 15.4476 14.2367 15.354 14.2423C15.4541 14.0264 15.7395 13.7993 15.9711 13.7067C16.0082 13.652 16.049 13.5992 16.0861 13.5519C16.1092 13.2554 17.5195 13.3944 17.8198 13.5788C17.8207 13.9115 17.9513 15.0188 18.0977 15.319Z" fill="#96877D" stroke="black" stroke-width="0.6"/>
<path d="M16.3892 15.5221C16.3559 15.0088 16.1483 14.5853 15.8564 14.2971C15.9954 14.3361 16.2799 14.3361 16.4727 14.197C16.7265 14.0275 17.39 13.7309 17.6328 13.8579C17.6522 13.9005 17.6633 13.9969 17.6485 14.058C17.5911 13.9042 16.9508 14.1424 16.7701 14.2156C16.5968 14.2962 16.5199 14.4046 16.581 14.6474C16.481 14.5631 16.5153 14.4815 16.4115 14.4203C16.4532 14.5204 16.4875 14.7011 16.4995 14.8475C16.4606 14.7437 16.392 14.5204 16.241 14.3888C16.3716 14.6428 16.4856 15.2534 16.4319 15.5777C16.5357 15.5777 16.7654 15.4758 16.8572 15.4026C16.7766 15.5184 16.5431 15.599 16.3929 15.6296C16.3253 15.7102 16.279 15.9187 16.2827 16.0345C16.2725 15.8918 16.3169 15.5443 16.3892 15.5221Z" fill="black"/>
<path d="M18.0977 15.3195C17.9698 15.1777 17.7317 15.1008 17.4277 15.1833C17.4741 15.1601 17.5741 15.1212 17.6631 15.1064C17.652 15.0258 17.5788 14.6783 17.5667 14.594L17.652 14.5596C17.6946 14.7681 17.7484 15.0063 17.7826 15.1026C17.8095 15.1101 17.8716 15.1221 17.9254 15.149C17.9022 15.0684 17.7715 14.4865 17.7752 14.4244L17.891 14.3623C17.9365 14.6783 18.0096 15.137 18.0977 15.3195Z" fill="black"/>
<path d="M18.0294 15.7226C18.0905 15.5372 18.0525 15.3612 17.7903 15.338C17.5873 15.3204 17.3668 15.5178 17.1064 15.7226H18.0294Z" fill="#96877D" stroke="black" stroke-width="0.6"/>
<path d="M16.3262 14.0617C16.2104 14.0775 15.9528 14.0543 15.8212 14.0117C15.8287 13.9765 15.8425 13.9412 15.8592 13.9023C15.7786 13.9561 15.6248 14.0617 15.5664 14.1349C15.7517 14.1738 16.1335 14.1933 16.3262 14.0617Z" fill="#96877D" stroke="black" stroke-width="0.6"/>
<path d="M16.3213 15.2441C16.3639 15.3674 16.3917 15.486 16.3954 15.5916" stroke="black" stroke-width="0.6"/>
<path d="M15.9718 13.708C15.9023 13.8099 15.8412 13.9193 15.8208 14.0119C15.9514 14.0546 16.21 14.0777 16.3258 14.062" stroke="black" stroke-width="0.6"/>
<path d="M15.7197 14.2686C15.7698 14.2769 15.8161 14.2862 15.8559 14.2973C15.995 14.3363 16.2794 14.3363 16.4722 14.1972C16.6649 14.0582 17.1885 13.6274 17.7824 13.5811" stroke="black" stroke-width="0.6"/>
<path d="M15.5669 14.1348C15.7522 14.1738 16.134 14.1923 16.3258 14.0617C16.7724 13.7577 17.2042 13.5798 17.6361 13.5566" stroke="black" stroke-width="0.6"/>
<path d="M18.7993 16.1699C19.4461 16.6165 19.9242 17.0484 20.0633 17.7415C20.2022 18.4346 20.4645 18.6199 20.7878 18.4346C20.7109 18.8349 20.3097 18.8812 19.9715 18.5736C20.0021 19.036 19.8177 19.591 19.3396 19.7912C19.3089 19.5141 19.4924 19.2945 19.4396 19.0666C19.4164 18.9665 19.409 18.7348 19.5397 18.6273C19.2858 18.7117 18.8846 18.5504 18.8466 18.1724C19.1394 18.3114 19.5165 18.3345 19.6629 17.9639C19.8084 17.5951 19.7473 16.9631 18.7993 16.1699Z" fill="#337321" stroke="black" stroke-width="0.6"/>
<path d="M19.6162 12.5634C19.8164 12.0398 20.3409 12.0936 20.5179 12.3169C21.034 12.0241 21.1035 12.6866 21.5427 12.5559C21.5353 12.6792 21.3889 12.795 21.2267 12.7867C21.3963 12.9405 21.1572 13.1722 21.5195 13.3102C21.2109 13.464 20.7801 13.3028 20.6642 12.8784C20.5642 13.0786 20.2019 13.0786 20.0555 12.9173C20.3714 12.833 20.3483 12.5402 20.1713 12.4244C19.9924 12.3076 19.6774 12.3549 19.6162 12.5634Z" fill="#337321" stroke="black" stroke-width="0.6"/>
<path d="M18.0534 13.7169C18.197 14.1802 18.4944 14.6121 18.8151 14.9058C19.1848 15.245 19.7436 15.1597 20.0558 14.8363C20.0632 15.4812 19.3951 15.5313 19.0236 15.3292C18.8595 15.2403 18.727 15.2866 18.8846 15.4293C19.1236 15.6452 19.6462 15.8055 20.2634 15.9381C21.342 16.1688 20.9574 17.025 20.6414 17.0166C20.7322 17.0148 20.8064 16.9203 20.6757 16.8026C19.7399 15.9603 17.8365 16.292 17.8671 14.4119C17.667 14.9049 16.8423 14.7121 17.2278 14.1265C17.351 14.2266 17.5669 14.234 17.629 14.0802C17.6772 13.9606 17.6457 13.7521 17.4298 13.5724C17.465 13.5696 17.5419 13.5724 17.5335 13.4834C17.5428 13.5353 17.5901 13.6122 17.7114 13.5863C17.7457 13.6409 17.7828 13.6771 17.8319 13.6576C17.8412 13.6539 17.8709 13.6391 17.8588 13.5844C17.868 13.6882 17.9894 13.7243 18.0534 13.7169Z" fill="#337321" stroke="black" stroke-width="0.6"/>
<path d="M19.0227 15.3299C19.4693 15.6226 19.9752 15.6226 20.4404 15.0833C20.5868 14.9138 20.8176 14.7674 20.9797 14.7516C21.1418 14.7359 21.1335 14.5821 21.2568 14.5514C21.1798 14.5283 21.1493 14.4356 21.0335 14.4477C21.3225 14.3476 21.2373 14.1159 21.38 14.0047C21.2642 14.0474 21.0835 13.8741 20.9176 14.0937C20.9602 13.9936 20.9019 13.8741 20.8602 13.8278C20.8759 13.9436 20.6331 13.9668 20.5868 14.2596C20.5609 14.4236 20.471 14.4134 20.4561 14.1595C20.445 13.9732 20.3561 13.458 20.2486 13.1968C20.1411 12.9345 20.1161 12.575 20.2625 12.5212C20.2402 12.4842 20.2097 12.4508 20.1717 12.4267C19.9928 12.31 19.6787 12.3572 19.6166 12.5657C19.4165 13.0892 19.979 13.3904 19.9326 13.9603C19.8483 13.5368 19.1616 13.4284 19.17 13.0124C18.9467 13.1124 18.9772 13.2977 19.0625 13.4442C18.9235 13.2283 18.6075 13.5831 18.3379 13.2903C18.3073 13.6758 18.6464 13.8222 18.9235 13.837C18.7845 14.0835 18.9698 14.292 19.1542 14.3606C19.1616 13.9288 20.0466 14.1058 20.0558 14.8461C20.0632 15.4762 19.385 15.53 19.0227 15.3299Z" fill="#F7E017" stroke="black" stroke-width="0.6"/>
<path d="M20.2634 15.9385C21.342 16.1692 20.9574 17.0254 20.6415 17.0171C20.4404 17.0124 20.2486 16.8438 20.2366 16.6974C20.0058 16.8206 20.067 17.0634 20.244 17.1598C19.7584 17.1023 19.5545 17.422 19.5425 17.7723C19.6314 17.6101 19.9011 17.599 20.0012 17.6332C20.1013 17.6676 20.3598 17.687 20.4636 17.5712C20.3783 17.6444 20.5173 17.8139 20.3978 17.9446C20.8027 17.9288 20.9797 17.5517 20.9102 17.3858C21.4347 16.9096 21.3346 16.1312 20.2634 15.9385Z" fill="#F7E017" stroke="black" stroke-width="0.6"/>
<path d="M19.4424 19.5996C19.5128 19.6432 19.5035 19.7359 19.4562 19.7943C19.3608 19.911 19.5044 20.1899 19.2107 20.2372C19.1236 20.2511 19.0596 20.1955 19.0309 20.0963C18.9512 19.8221 19.2403 19.8035 19.2709 19.6747C19.3024 19.5469 19.3831 19.5626 19.4424 19.5996Z" fill="#F7E017" stroke="black" stroke-width="0.6"/>
<path d="M19.177 20.0972C19.2715 20.1454 19.353 20.2121 19.303 20.5197C19.2817 20.6476 19.277 20.958 19.3892 20.9664C19.3188 20.9979 19.1714 21.0284 19.114 20.9469C19.0519 21.0414 18.9222 21.0081 18.8749 20.8858C18.8036 20.9386 18.7128 20.8403 18.7165 20.7588C18.6544 20.795 18.5367 20.7347 18.5737 20.5513C18.4996 20.5744 18.4069 20.5188 18.3745 20.4706C18.4829 20.453 18.7591 20.3177 18.8286 20.2038C18.8971 20.0907 19.0667 20.0416 19.177 20.0972Z" fill="#F7E017" stroke="black" stroke-width="0.6"/>
<path d="M19.1133 20.9479C19.1448 20.9062 19.1633 20.7255 19.1457 20.6152" stroke="black" stroke-width="0.6"/>
<path d="M18.875 20.8861C18.9241 20.8518 19.0186 20.7305 19.0381 20.6211" stroke="black" stroke-width="0.6"/>
<path d="M18.7158 20.7595C18.7769 20.7335 18.9308 20.5501 18.9679 20.4287" stroke="black" stroke-width="0.6"/>
<path d="M18.5732 20.5516C18.6446 20.5396 18.8679 20.4062 18.9633 20.2588" stroke="black" stroke-width="0.6"/>
<path d="M17.8671 14.4131C17.8541 15.2026 18.1821 15.6029 18.6371 15.8623C18.4685 15.7613 18.5416 15.4148 18.3137 15.3026C18.3675 15.2989 18.4527 15.3759 18.5871 15.3452C18.5213 15.1989 18.4138 14.9755 18.1636 14.9449C18.2294 14.9375 18.3721 14.9607 18.4638 14.9255C18.3332 14.7244 17.9866 14.8208 17.8671 14.4131Z" fill="#F7E017" stroke="black" stroke-width="0.6"/>
<path d="M17.7853 13.6614C17.7575 13.6521 17.7343 13.6243 17.7112 13.5882C17.5898 13.6141 17.5425 13.5372 17.5332 13.4854C17.5407 13.5743 17.4647 13.5706 17.4286 13.5733C17.6454 13.7531 17.6769 13.9616 17.6287 14.0811C17.5666 14.235 17.3516 14.2276 17.2275 14.1275C17.2117 14.4546 17.6361 14.563 17.7899 14.1506C17.7899 14.2202 17.8789 14.2127 17.9021 14.3044C18.0114 14.1275 17.928 13.8727 17.7853 13.6614Z" fill="#F7E017" stroke="black" stroke-width="0.6"/>
<path d="M17.108 12.0972C16.9152 11.9203 16.8263 11.6237 16.8346 11.4542C16.842 11.2846 16.9115 11.0993 17.158 11.1771C17.0811 11.1771 17.1348 11.3309 17.0542 11.3467C17.12 11.3699 17.208 11.3161 17.2201 11.2809C17.2358 11.3346 17.3359 11.3198 17.3433 11.381C17.3822 11.3504 17.3396 11.2003 17.2822 11.1688C17.3248 11.1456 17.348 11.0261 17.3285 10.9686C17.2896 10.976 17.2321 11.0307 17.221 11.1076C17.2405 11.0455 17.2173 10.8917 17.1089 10.8685C17.0783 10.9112 17.07 11.0149 17.1126 11.0724C17.0125 11.0492 16.8661 11.115 16.8309 11.1993C16.8383 11.0974 16.8532 10.9519 16.9162 10.8602C16.9374 10.8296 16.8855 10.7759 16.8448 10.8491C16.7697 10.7027 16.5696 10.6258 16.4806 10.699C16.3917 10.7722 16.2731 10.6647 16.1999 10.7796C16.1266 10.8954 15.8783 10.9075 15.8913 11.0298C15.8987 11.103 15.8811 11.216 15.845 11.2568C15.756 11.3569 15.8876 11.4301 15.9107 11.519C15.895 11.2262 16.3611 10.6563 16.8281 10.8797C16.7855 10.9529 16.7484 11.0993 16.7355 11.2763C16.716 11.5385 16.7549 11.9082 17.0088 12.1241L17.108 12.0972Z" fill="#337321" stroke="black" stroke-width="0.6"/>
<path d="M17.2461 11.18C17.2434 11.1105 17.3638 11.0207 17.525 11.0225C17.7197 11.0244 17.8698 11.2013 18.0254 11.1847C18.1811 11.1671 18.1042 11.2541 18.0717 11.2773C18.0394 11.3005 18.0199 11.3348 18.031 11.3774C18.0421 11.42 18.0227 11.4478 17.9597 11.408C17.8206 11.3208 17.6826 11.4423 17.4991 11.3756C17.3425 11.3163 17.2508 11.2838 17.2461 11.18Z" fill="#C8102E" stroke="black" stroke-width="0.6"/>
<path d="M16.453 12.9992C16.376 12.7564 16.0832 12.4905 15.9406 12.4293L15.9331 12.2987C16.01 12.2681 16.1954 12.1217 16.2797 12.0401C16.8579 12.3172 17.6437 11.9243 18.006 11.5166L18.145 11.6009L18.0755 11.6936L18.0023 11.6546C17.9133 11.7621 17.5825 12.0735 17.4825 12.1393C17.6168 12.1736 17.8012 12.1967 17.8522 12.1939C18.1756 11.9623 18.4294 11.7547 18.5527 11.739L18.6565 11.878L18.5638 11.9438L18.4906 11.9011C18.1441 12.1865 17.7512 12.8102 17.5964 13.2262C17.3814 13.1799 16.6105 13.2105 16.453 12.9992Z" fill="#96877D" stroke="black" stroke-width="0.6"/>
<path d="M17.4826 12.1394C17.4326 12.1264 17.3899 12.1125 17.363 12.0977C17.301 12.1551 17.1471 12.2051 16.9507 12.2135" stroke="black" stroke-width="0.6"/>
<path d="M16.4834 12.9143C16.4315 12.627 16.5139 12.3092 16.6604 12.2128C16.98 12.425 17.5276 12.425 17.8511 12.1934" stroke="black" stroke-width="0.6"/>
<path d="M16.4834 12.7636C16.7299 12.7562 17.2655 12.7979 17.3961 12.8173C17.5267 12.8368 17.7464 12.8905 17.7158 12.9563" stroke="black" stroke-width="0.6"/>
<path d="M16.5973 12.7229L16.6687 12.6524L16.5973 12.582L16.5269 12.6515L16.5973 12.7229Z" stroke="black" stroke-width="0.6"/>
<path d="M16.7652 11.2886C16.6762 11.1654 16.4325 11.1265 16.3797 11.2923C16.3565 11.3655 16.3222 11.4424 16.2638 11.4776C16.2064 11.5119 16.2194 11.6176 16.2444 11.6629C16.3056 11.7751 16.2518 11.8825 16.3713 11.9558C16.3713 11.8668 16.502 11.7751 16.6141 11.7519C16.7262 11.7287 16.8949 11.6287 16.918 11.5165C16.9421 11.4035 16.9811 11.3108 16.7652 11.2886Z" fill="#337321" stroke="black" stroke-width="0.6"/>
<path d="M16.21 12.3975H16.2406L16.2415 12.6078C16.248 12.6096 16.2545 12.6133 16.2601 12.6171L16.4417 12.5124L16.4575 12.5392L16.2749 12.6449C16.2759 12.6513 16.2767 12.6587 16.2759 12.6652L16.4575 12.7699L16.4417 12.7968L16.2582 12.6931C16.2536 12.6976 16.2471 12.7023 16.2406 12.7042V12.9136H16.21V12.7032C16.2036 12.7014 16.1971 12.6976 16.1915 12.6939L16.0099 12.7987L15.9941 12.7718L16.1767 12.6661C16.1758 12.6597 16.1748 12.6523 16.1758 12.6458L15.9941 12.5411L16.0099 12.5142L16.1924 12.6189C16.1971 12.6143 16.2036 12.6096 16.21 12.6078V12.3975Z" fill="#96877D" stroke="black" stroke-width="0.6"/>
<path d="M16.4844 12.9127C16.4186 12.9794 16.3269 13.0202 16.2249 13.0202C16.0229 13.0202 15.8599 12.8571 15.8599 12.6551C15.8599 12.4531 16.0229 12.29 16.2249 12.29C16.3436 12.29 16.4483 12.3465 16.515 12.4337C16.4965 12.48 16.4742 12.5828 16.4724 12.6292C16.4594 12.5031 16.3537 12.4049 16.224 12.4049C16.0859 12.4049 15.9748 12.5171 15.9748 12.6542C15.9748 12.7923 16.0869 12.9034 16.224 12.9034C16.3389 12.9034 16.439 12.8228 16.4677 12.7163C16.4686 12.7645 16.4705 12.8747 16.4844 12.9127Z" fill="#96877D" stroke="black" stroke-width="0.6"/>
<path d="M16.0712 13.2608C16.0481 13.2339 16.0055 13.1608 16.0101 13.107C16.0444 13.1033 16.1102 13.1265 16.1408 13.1571C16.1371 13.1181 16.1213 13.0338 16.1296 12.9949C16.1723 13.0106 16.2603 13.0607 16.2918 13.1181C16.2844 13.0792 16.2686 12.9791 16.2844 12.918C16.3307 12.9449 16.4076 13.0181 16.4234 13.0681C16.4271 12.9912 16.4539 12.8642 16.4771 12.8327C16.5114 12.867 16.5661 12.8985 16.6004 12.9449C16.6078 12.8828 16.6393 12.8096 16.6847 12.791C16.719 12.83 16.7736 12.918 16.7848 13.0181C16.819 13.0069 16.8654 12.9486 16.8848 12.918C16.9043 12.9486 16.9238 13.0023 16.9117 13.0681C16.9543 13.0292 17.0044 12.9754 17.0155 12.9291C17.0461 12.9523 17.1045 13.0097 17.1193 13.0718C17.1119 13.0218 17.1156 12.9328 17.0998 12.8828C17.1572 12.9134 17.2036 12.9671 17.2156 13.0255C17.2314 12.9717 17.2657 12.8753 17.2963 12.8522C17.3268 12.9143 17.3583 12.9875 17.3537 13.0486C17.3731 13.0097 17.4038 12.9412 17.4343 12.9254C17.4612 12.968 17.4575 13.0607 17.4501 13.1107C17.4769 13.0718 17.527 13.0264 17.5576 13.0106C17.5613 13.0338 17.565 13.0801 17.5576 13.1144C17.5919 13.095 17.6502 12.9912 17.6697 12.9375C17.7234 12.9643 17.7772 13.057 17.7818 13.1033C17.8207 13.0875 17.8976 13.019 17.9208 12.9801C17.9208 13.0069 17.9328 13.0801 17.9171 13.1376C17.9402 13.1144 17.9634 13.0681 17.9746 13.0486C17.9903 13.0875 17.9783 13.1793 17.9625 13.2293C17.9968 13.1987 18.0478 13.1793 18.0783 13.1793C18.082 13.2451 18.0357 13.36 17.9931 13.4453C17.6243 13.3424 16.8496 13.3035 16.0712 13.2608Z" fill="#337321" stroke="black" stroke-width="0.6"/>
<path d="M17.3609 11.2197C17.3591 11.1909 17.4221 11.127 17.536 11.1279C17.6722 11.1288 17.7983 11.2289 17.9067 11.2215C18.016 11.2141 17.9623 11.2502 17.9391 11.2595C17.9159 11.2688 17.9029 11.2836 17.9104 11.3003C17.9187 11.3179 17.9048 11.329 17.8603 11.3132C17.763 11.278 17.6658 11.3272 17.5379 11.3003C17.4276 11.2753 17.3636 11.2623 17.3609 11.2197Z" fill="#F7E017"/>
<path d="M16.1905 13.4926C16.0747 13.6316 15.9598 13.6084 15.9367 13.5194C15.9135 13.4305 15.9987 13.3888 15.9672 13.3109C15.9367 13.2341 16.0173 13.1988 16.0562 13.2341C16.0951 13.2683 16.2183 13.1571 16.2721 13.273C16.3258 13.3888 16.3685 13.4694 16.3379 13.5157C16.3064 13.5621 16.2137 13.5389 16.1905 13.4926Z" fill="#F7E017" stroke="black" stroke-width="0.6"/>
<path d="M16.6876 13.2836C16.6662 13.2327 16.7858 13.1353 16.8479 13.2049C16.9099 13.2743 17.0063 13.1298 17.0601 13.2391C17.1138 13.3494 17.1314 13.4068 17.1583 13.468C17.1852 13.5301 17.0119 13.5625 16.9581 13.5087C16.9655 13.5449 16.808 13.5736 16.7654 13.4698C16.7422 13.4152 16.7172 13.3512 16.6876 13.2836Z" fill="#F7E017" stroke="black" stroke-width="0.6"/>
<path d="M17.4892 13.3473C17.4604 13.2935 17.6013 13.2166 17.6745 13.3149C17.694 13.2741 17.8329 13.2667 17.8422 13.3843C17.8515 13.502 17.8561 13.5715 17.8598 13.6179C17.8635 13.6642 17.7755 13.7068 17.7115 13.5891C17.5976 13.6123 17.5457 13.5484 17.5327 13.4817C17.5188 13.4131 17.5049 13.3797 17.4892 13.3473Z" fill="#F7E017" stroke="black" stroke-width="0.6"/>
<path d="M16.2655 13.271C16.2479 13.232 16.3637 13.1552 16.4425 13.2135C16.5212 13.271 16.6306 13.1635 16.6778 13.2672C16.7723 13.4776 16.7779 13.4924 16.7492 13.5332C16.7204 13.574 16.5972 13.5582 16.5657 13.5026C16.5601 13.5416 16.4536 13.535 16.398 13.5045C16.335 13.4693 16.2905 13.3405 16.2655 13.271Z" fill="#337321" stroke="black" stroke-width="0.6"/>
<path d="M17.0764 13.28C17.0496 13.2208 17.2302 13.168 17.3099 13.2726C17.3507 13.2356 17.4387 13.2337 17.4888 13.3477C17.5388 13.4617 17.5462 13.5247 17.5101 13.5534C17.4841 13.5738 17.3905 13.5896 17.36 13.5377C17.3174 13.5645 17.1867 13.5414 17.1579 13.4682C17.1293 13.3959 17.1042 13.3319 17.0764 13.28Z" fill="#337321" stroke="black" stroke-width="0.6"/>
<path d="M17.8439 13.3939C17.8401 13.3401 17.9384 13.3151 17.9745 13.3939C18.0116 13.4726 18.1283 13.4013 18.1386 13.5329C18.1404 13.5579 18.1246 13.6542 18.0885 13.7006C18.0524 13.7469 17.8726 13.7006 17.8615 13.6023C17.8494 13.5032 17.8457 13.4476 17.8439 13.3939Z" fill="#337321" stroke="black" stroke-width="0.6"/>
<path d="M16.1909 13.4919C16.1482 13.4344 16.0908 13.3417 16.0176 13.4418" stroke="black" stroke-width="0.6"/>
<path d="M16.5671 13.5009C16.542 13.4684 16.5096 13.4138 16.4976 13.3721" stroke="black" stroke-width="0.6"/>
<path d="M16.9581 13.5093C16.9312 13.4899 16.8905 13.4519 16.8691 13.4111" stroke="black" stroke-width="0.6"/>
<path d="M16.9229 13.3066C16.9905 13.314 17.0368 13.378 17.0572 13.4067C17.0785 13.4355 17.123 13.4873 17.1573 13.4938" stroke="black" stroke-width="0.6"/>
<path d="M17.36 13.5388C17.3368 13.5017 17.3137 13.4692 17.3081 13.4424" stroke="black" stroke-width="0.6"/>
<path d="M17.3101 13.2725C17.3333 13.3049 17.3508 13.3318 17.3638 13.3633" stroke="black" stroke-width="0.6"/>
<path d="M17.7104 13.5886C17.6797 13.5311 17.6316 13.4746 17.5908 13.4561" stroke="black" stroke-width="0.6"/>
<path d="M17.6958 13.376C17.6995 13.4899 17.8515 13.4973 17.8579 13.578" stroke="black" stroke-width="0.6"/>
<path d="M17.9746 13.3936C17.9904 13.4222 17.9959 13.451 17.9978 13.4992" stroke="black" stroke-width="0.6"/>
</svg>
