<svg width="25" height="25" viewBox="0 0 25 25" fill="none" xmlns="http://www.w3.org/2000/svg">
<path d="M12.4734 24.6352C19.1008 24.6352 24.4734 19.2627 24.4734 12.6352C24.4734 6.00784 19.1008 0.635254 12.4734 0.635254C5.84597 0.635254 0.473389 6.00784 0.473389 12.6352C0.473389 19.2627 5.84597 24.6352 12.4734 24.6352Z" fill="#2E42A5"/>
<path fill-rule="evenodd" clip-rule="evenodd" d="M12.5762 6.64565H6.79714V11.1121H5.2998V6.64565H2.07275C2.37606 6.1201 2.71806 5.61969 3.09485 5.14831H5.2998V3.01455C5.77316 2.66101 6.27349 2.3416 6.79714 2.05994V5.14831H12.5762V6.64565Z" fill="#D9D9D9"/>
<path fill-rule="evenodd" clip-rule="evenodd" d="M10.6078 11.1121H12.5762V8.96884L9.7533 6.64112L8.35909 5.65915L12.5762 2.30073V0.635685C12.5419 0.635398 12.5077 0.635254 12.4733 0.635254C11.5521 0.635254 10.6552 0.739059 9.79349 0.93561L6.33181 3.84827L6.0599 4.03978L5.788 3.84827L5.03709 3.21645C4.32258 3.78133 3.67387 4.42578 3.10435 5.13642L3.76071 5.65914L2.36649 6.64112L1.83359 7.08055C1.1884 8.31386 0.751351 9.67325 0.569092 11.1121H1.51197L6.0599 7.49019L10.6078 11.1121Z" fill="#F7F8FB"/>
<path fill-rule="evenodd" clip-rule="evenodd" d="M11.8902 11.1121H12.5763V9.66739L8.95379 6.59377L7.00359 5.89989L6.96387 5.86876L12.5763 1.06382V0.635685C12.542 0.635398 12.5078 0.635254 12.4735 0.635254C11.9062 0.635254 11.348 0.674622 10.8017 0.750776L5.79419 4.95186L4.34009 3.812C3.9965 4.1289 3.67145 4.4656 3.36677 4.82031L4.68758 5.88026L1.05791 8.92541C0.829706 9.6281 0.664581 10.3592 0.569214 11.1121H0.839397L6.24809 6.48156L6.67019 6.61849L11.8902 11.1121Z" fill="#F50100"/>
<path fill-rule="evenodd" clip-rule="evenodd" d="M12.5762 7.7689H7.91993V11.1121H4.17659V7.7689H1.5011C1.73189 7.2493 1.99851 6.74915 2.29781 6.27156C2.45838 6.01535 2.62836 5.76563 2.80727 5.5229C3.20137 4.98818 3.63878 4.48734 4.11433 4.02556H4.17659V3.96553C4.64155 3.52045 5.14224 3.11241 5.67393 2.74614C5.91715 2.57859 6.16686 2.41978 6.4226 2.27016C6.90154 1.98997 7.40164 1.74202 7.91993 1.5293V4.02556H12.5762V7.7689Z" fill="white"/>
<path fill-rule="evenodd" clip-rule="evenodd" d="M12.5762 6.64577H6.79714V11.1121H5.2998V6.64577H2.07275C2.37606 6.12023 2.71806 5.61982 3.09485 5.14844H5.2998V3.01467C5.77316 2.66114 6.27349 2.34172 6.79714 2.06006V5.14844H12.5762V6.64577Z" fill="#F50100"/>
<path fill-rule="evenodd" clip-rule="evenodd" d="M14.6162 10.9007C14.6162 10.9007 14.6908 11.7286 14.5271 12.1978C14.3634 12.6669 14.2801 12.9392 14.2801 12.6393C14.2801 12.3394 14.1652 12.1018 14.0727 12.1018C13.9803 12.1018 14.0532 12.3992 13.9603 12.3992C13.8673 12.3992 13.5472 12.4503 13.5472 12.276C13.5472 12.1018 13.5051 12.7435 13.7128 12.8009C13.9206 12.8583 13.6119 13.0364 13.4741 12.9812C13.4741 12.9812 14.0409 13.1655 14.2632 13.3224C14.2632 13.3224 14.9295 14.1543 15.5528 14.0528C15.5528 14.0528 14.7041 13.7599 14.8537 13.2001C15.0032 12.6404 15.5528 12.5594 15.5528 12.5594C15.5528 12.5594 15.8107 12.6457 15.8029 12.8716C15.7952 13.0976 15.9916 12.8009 15.9916 12.8009C15.9916 12.8009 16.0232 12.5154 15.9883 12.4458C15.9534 12.3761 16.5791 12.2412 16.6185 11.9473C16.6185 11.9473 15.9793 11.9765 15.9354 11.901C15.8916 11.8255 16.1332 11.7071 16.0577 11.5599C15.982 11.4127 14.8537 12.3992 14.8537 12.3992C14.8537 12.3992 15.2433 11.7277 15.2433 11.3672C15.2433 11.0065 15.1443 10.7601 14.8537 10.7601C14.563 10.7601 14.6162 10.9007 14.6162 10.9007Z" fill="#5EAA22"/>
<path fill-rule="evenodd" clip-rule="evenodd" d="M20.4908 11.0975L20.4927 11.0989C20.5347 11.0575 20.7936 10.8194 21.0105 11.0077C21.2474 11.2133 20.8911 11.4137 20.8911 11.4137C20.8911 11.4137 21.0577 11.5752 21.2481 11.5752C21.4385 11.5752 21.4853 11.4137 21.4853 11.4137C21.4853 11.4137 21.4998 11.7732 22.121 11.9093C22.121 11.9093 22.3426 11.5911 22.121 11.4169C22.121 11.4169 22.3827 11.3626 22.3638 11.1505C22.3638 11.1505 22.1485 11.2239 21.9951 11.0554C21.8416 10.8869 21.5425 10.8092 21.325 10.848C20.773 10.6489 20.5245 11.0389 20.4908 11.0975Z" fill="#5EAA22"/>
<path fill-rule="evenodd" clip-rule="evenodd" d="M16.7245 12.9112C16.7245 12.9112 17.3668 14.1193 16.9653 14.3696C16.5638 14.62 18.8741 14.4419 19.0918 14.3696C19.3095 14.2974 19.0478 13.9165 18.8064 13.8108C18.565 13.705 17.5726 13.3531 17.3086 13.0878C17.0446 12.8224 17.2058 12.7283 17.4184 12.4663C17.6311 12.2044 18.4183 12.0997 18.4183 11.8548C18.4183 11.61 18.9176 10.6002 19.2666 10.5241C19.6155 10.4479 19.4271 10.3279 19.3468 10.3279C19.2666 10.3279 18.7841 10.8252 18.6012 10.7355C18.4183 10.6458 18.3959 10.6521 18.6012 10.4352C18.8064 10.2183 18.9609 9.96872 18.6896 10.1483C18.4183 10.3279 17.9709 10.6122 17.7558 10.6122C17.5408 10.6122 16.7752 10.5152 16.8703 10.7355C16.9653 10.9558 17.0056 11.3382 17.4184 11.5965C17.8312 11.8548 17.6518 12.0438 17.3086 12.2927C16.9653 12.5417 16.7245 12.9112 16.7245 12.9112Z" fill="#96877D"/>
<path d="M20.9863 11.3135L19.7624 13.7681C19.7624 13.7681 19.7268 14.4614 20.6017 13.9994C21.4767 13.5374 21.4422 13.2097 21.6945 13.2097C21.9468 13.2097 22.0269 13.0696 22.0269 13.0696L21.8589 12.9375C21.8589 12.9375 21.8394 12.6964 21.9458 12.6423C21.9458 12.6423 21.737 12.5273 21.7072 12.6234C21.6773 12.7193 21.5302 12.4224 21.6134 12.4224C21.6134 12.4224 21.4293 12.7205 21.3905 12.8369C21.3905 12.8369 21.1241 12.7286 21.1369 12.2267C21.1496 11.7248 20.9863 11.3135 20.9863 11.3135Z" fill="#FFD018"/>
<path d="M15.1609 10.9248C15.1609 10.9248 14.5377 11.07 14.6049 11.2209C14.6721 11.3719 14.7711 11.2169 14.466 11.3988C14.466 11.3988 13.93 11.8132 13.8132 11.7684C13.6963 11.7234 13.8959 11.8727 13.8959 11.3988C13.8959 10.9248 13.5846 11.3106 13.8959 10.9943C14.2072 10.6779 14.3163 10.9248 14.466 10.7428C14.6157 10.5607 14.4811 10.6576 14.8872 10.6576C15.2932 10.6576 15.1609 10.9248 15.1609 10.9248Z" fill="#FFD018"/>
<path d="M17.0624 13.3643C17.0624 13.3643 15.3175 14.7355 14.9688 14.8378C14.6201 14.9401 15.686 14.8097 15.9465 14.6286C16.2069 14.4476 17.0624 13.3643 17.0624 13.3643Z" fill="#FFD018"/>
<path fill-rule="evenodd" clip-rule="evenodd" d="M20.522 15.7697C20.522 15.7697 20.6895 16.85 20.2523 16.7437C19.8151 16.6374 19.6336 16.5825 19.6336 16.5825C19.6336 16.5825 19.794 17.0856 20.0232 17.0856C20.0232 17.0856 20.4136 17.8465 20.2634 18.0868C20.2634 18.0868 20.9359 17.5411 20.8271 17.1073C20.7185 16.6735 21.001 17.1787 21.001 17.1787C21.001 17.1787 21.2485 17.2982 21.4274 17.1647C21.6063 17.0313 21.4252 17.0906 21.2462 16.8365C21.0673 16.5825 21.1115 15.8688 20.5673 15.4989C20.0232 15.1291 19.8965 15.1409 19.8965 15.1409C19.8965 15.1409 19.4957 14.4857 19.7358 14.529C19.7358 14.529 21.4566 15.1189 21.5013 15.2701C21.5459 15.4213 22.0023 15.3935 21.7741 14.9613C21.5459 14.529 20.3159 14.2685 20.1695 14.1466C20.0232 14.0246 20.1594 13.5623 19.8965 13.4616C19.6336 13.3608 18.9154 12.6461 18.9158 12.3017C18.9163 11.9572 18.5783 11.7951 18.2844 11.7951C17.9906 11.7951 17.4373 11.7102 17.2036 11.7102C16.9698 11.7102 16.7519 12.1012 16.9777 12.1012C17.2036 12.1012 17.0106 12.8333 16.6326 12.9933C16.2544 13.1533 15.9621 13.3833 15.5303 13.3833C15.0985 13.3833 16.1416 13.7556 16.3078 13.6086C16.474 13.4616 16.4195 13.2425 16.9777 12.9933C17.536 12.7442 18.0688 12.5967 18.0014 12.795C17.9339 12.9933 18.106 13.3251 18.369 13.205C18.6321 13.085 18.7164 12.7817 18.7164 12.9933C18.7164 13.205 19.1197 14.2922 19.4277 14.7166C19.7358 15.1409 20.522 15.7697 20.522 15.7697Z" fill="#5EAA22"/>
<path d="M16.8511 11.7998C16.8511 11.7998 16.6465 12.1258 16.8511 12.1258C17.0556 12.1258 17.3846 12.1258 17.1842 11.9628C16.9837 11.7998 16.8511 11.7998 16.8511 11.7998Z" fill="#FFD018"/>
<path d="M17.5347 11.7918C17.5347 11.7918 17.5357 12.0086 17.6774 12.0086C17.8192 12.0086 17.9454 12.2253 17.9454 12.0086C17.9454 11.7918 18.1425 11.8637 17.8386 11.7918C17.5347 11.72 17.5347 11.7918 17.5347 11.7918Z" fill="#FFD018"/>
<path d="M18.408 11.8416C18.408 11.8416 18.2713 11.9444 18.3396 12.128C18.408 12.3116 18.5625 12.6749 18.3396 12.6749C18.1167 12.6749 17.9332 12.8059 18.1074 12.8059C18.2816 12.8059 18.5914 12.9368 18.5914 12.8059C18.5914 12.6749 18.7174 13.0218 18.7174 12.8059C18.7174 12.5899 18.7174 12.4867 18.7174 12.36C18.7174 12.2334 18.8435 12.1969 18.7174 12.0192C18.5914 11.8416 18.408 11.8416 18.408 11.8416Z" fill="#FFD018"/>
<path d="M18.7238 13.1052C18.7238 13.1052 19.0087 14.0018 19.1636 14.1174C19.3185 14.233 19.388 15.2067 19.456 15.3126C19.5239 15.4184 20.4503 15.9527 20.4503 16.2395C20.4503 16.5262 20.7355 16.0191 20.5929 15.7352C20.4503 15.4513 20.0013 14.8467 19.6783 14.7149C19.3554 14.583 19.3963 14.2638 19.3284 14.0394C19.2605 13.8151 19.7302 14.2207 19.3284 13.7118C18.9266 13.2029 18.9373 13.476 19.0504 13.476C19.1636 13.476 19.2767 13.4158 19.1636 13.3368C19.0504 13.2577 18.7238 13.1052 18.7238 13.1052Z" fill="#FFD018"/>
<path d="M15.7038 14.9543C15.7038 14.9543 14.7785 16.5885 14.6134 16.6729C14.4483 16.7573 14.3251 16.7745 14.2408 16.6729C14.1564 16.5713 14.1477 16.9455 14.2408 17.048C14.3338 17.1504 14.6134 17.1504 14.7685 16.9685C14.7685 16.9685 14.793 17.4282 15.0347 17.7748C15.2764 18.1214 15.377 18.0257 15.377 18.2217C15.377 18.4177 15.4341 18.6772 15.5079 18.6772C15.5817 18.6772 15.6388 19.2941 15.5079 19.2941C15.377 19.2941 15.8112 19.3447 16.0005 19.1904C16.1897 19.0362 16.2706 18.9186 16.2302 18.9186C16.1897 18.9186 15.7038 18.6628 15.7038 18.4818C15.7038 18.3009 15.377 18.1591 15.377 17.8905C15.377 17.6218 15.2072 17.3024 15.2072 17.1752C15.2072 17.048 15.3524 17.2243 15.5079 17.1038C15.6634 16.9833 15.7038 16.6729 15.7038 16.6729C15.7038 16.6729 15.4589 16.8371 15.377 16.755C15.2951 16.6729 15.0375 16.5108 15.2072 16.2326C15.377 15.9544 15.7038 14.9543 15.7038 14.9543Z" fill="#FFD018"/>
<path fill-rule="evenodd" clip-rule="evenodd" d="M17.3073 9.80054C17.3073 9.80054 16.976 9.9479 17.0864 10.1669C17.1968 10.3858 17.2365 10.4828 17.3073 10.4343C17.378 10.3858 17.8744 10.2942 17.7632 10.0473C17.652 9.80054 17.4191 9.80054 17.4191 9.80054H17.3073Z" fill="#5EAA22"/>
<path d="M18.4567 9.68214C18.4567 9.68214 18.0191 9.48849 18.1649 9.68214C18.3108 9.87579 18.4974 9.97787 18.6317 9.97787C18.7659 9.97787 19.0449 9.93785 18.9054 9.85972C18.7659 9.78159 18.4567 9.68214 18.4567 9.68214Z" fill="#FFD018"/>
<path fill-rule="evenodd" clip-rule="evenodd" d="M14.1361 14.7154C14.1383 14.7036 14.1242 14.6953 14.1155 14.7036C14.0242 14.7908 13.7514 15.0804 13.8674 15.3324C14.0057 15.633 14.1441 15.7374 14.1441 15.7374C14.1441 15.7374 14.2284 16.1977 14.4026 16.3229C14.4026 16.3229 14.6366 16.311 14.6481 15.9527C14.6481 15.9527 15.0455 15.8361 15.1623 16.0842C15.1623 16.0842 15.0852 16.1121 15.0852 16.3229C15.0852 16.5337 15.265 16.7621 15.265 16.7621C15.265 16.7621 15.3473 16.035 15.7173 15.5662C16.0873 15.0975 16.1931 15.0049 16.1931 15.0049V14.4774C16.1931 14.4774 15.4277 15.1012 15.265 15.6198C15.265 15.6198 14.8795 15.6326 14.7229 15.5662C14.5663 15.4998 14.9185 15.3909 14.7229 15.1549C14.5273 14.9189 14.6169 15.4872 14.4026 15.3324C14.0674 15.2391 14.1129 14.8408 14.1361 14.7154Z" fill="#5EAA22"/>
<path fill-rule="evenodd" clip-rule="evenodd" d="M15.8041 14.2571H19.7253V16.6529C19.7253 16.6529 19.4057 18.6105 17.698 19.5749C17.698 19.5749 16.0438 18.5972 15.8041 16.6529V14.2571Z" fill="#5EAA22"/>
<mask id="mask0_4_265" style="mask-type:luminance" maskUnits="userSpaceOnUse" x="15" y="14" width="5" height="6">
<path fill-rule="evenodd" clip-rule="evenodd" d="M15.8041 14.2571H19.7253V16.6529C19.7253 16.6529 19.4057 18.6105 17.698 19.5749C17.698 19.5749 16.0438 18.5972 15.8041 16.6529V14.2571Z" fill="white"/>
</mask>
<g mask="url(#mask0_4_265)">
<path fill-rule="evenodd" clip-rule="evenodd" d="M17.6683 14.1277L15.9551 17.6829L18.2784 15.573L19.8775 18.2234V14.1277L18.2784 15.4385L17.6683 14.1277Z" fill="#58A5FF"/>
<path d="M17.6143 16.6915C17.6143 16.621 17.6715 16.5637 17.7421 16.5637C17.8127 16.5637 17.8699 16.621 17.8699 16.6915V18.9744C17.8699 19.045 17.8127 19.1023 17.7421 19.1023C17.6715 19.1023 17.6143 19.045 17.6143 18.9744V16.6915Z" fill="#FFD018"/>
<path d="M17.1698 17.2546C17.1005 17.2546 17.0442 17.1983 17.0442 17.129C17.0442 17.0596 17.1005 17.0034 17.1698 17.0034H18.3249C18.3942 17.0034 18.4504 17.0596 18.4504 17.129C18.4504 17.1983 18.3942 17.2546 18.3249 17.2546H17.1698Z" fill="#FFD018"/>
<path d="M17.7926 19.0175L17.6935 19.0978C17.5477 18.9206 17.4148 18.8355 17.2973 18.8355C17.1243 18.8355 16.9835 18.6911 16.8688 18.4173L16.9868 18.3685C17.0839 18.6001 17.1895 18.7085 17.2973 18.7085C17.4606 18.7085 17.6249 18.8137 17.7926 19.0175Z" fill="#FFD018"/>
<path fill-rule="evenodd" clip-rule="evenodd" d="M16.7545 17.9817L16.7524 17.9826V18.5997L16.7541 18.6009L17.2183 18.4098L17.2186 18.4078L16.7545 17.9817Z" fill="#FFD018"/>
<path d="M17.6875 19.0175L17.7865 19.0978C17.9323 18.9206 18.0653 18.8355 18.1828 18.8355C18.3559 18.8355 18.4965 18.6911 18.6113 18.4173L18.4933 18.3685C18.3963 18.6001 18.2906 18.7085 18.1828 18.7085C18.0195 18.7085 17.8553 18.8137 17.6875 19.0175Z" fill="#FFD018"/>
<path fill-rule="evenodd" clip-rule="evenodd" d="M18.7255 17.9817L18.7276 17.9826V18.5997L18.7259 18.6009L18.2618 18.4098L18.2614 18.4078L18.7255 17.9817Z" fill="#FFD018"/>
<path d="M17.9956 15.6669H17.4843V16.4287H17.9956V15.6669Z" fill="white"/>
</g>
</svg>
