<svg width="24" height="24" viewBox="0 0 24 24" fill="none" xmlns="http://www.w3.org/2000/svg">
<mask id="mask0_1_1717" style="mask-type:luminance" maskUnits="userSpaceOnUse" x="0" y="0" width="24" height="24">
<path d="M24 0H0V24H24V0Z" fill="white"/>
</mask>
<g mask="url(#mask0_1_1717)">
<path d="M12 24C18.6274 24 24 18.6274 24 12C24 5.37258 18.6274 0 12 0C5.37258 0 0 5.37258 0 12C0 18.6274 5.37258 24 12 24Z" fill="#F0F0F0"/>
<path d="M12.0001 0C8.07418 0 4.58879 1.88545 2.39954 4.8H21.6006C19.4113 1.88545 15.9259 0 12.0001 0Z" fill="#D80027"/>
<path d="M12.0001 24.0002C15.9259 24.0002 19.4113 22.1147 21.6006 19.2002H2.39954C4.58879 22.1147 8.07418 24.0002 12.0001 24.0002Z" fill="#D80027"/>
<path d="M0 12.0001C0 12.8221 0.082875 13.6246 0.240328 14.4001H23.7598C23.9172 13.6246 24 12.8221 24 12.0001C24 11.1781 23.9171 10.3756 23.7597 9.6001H0.240328C0.082875 10.3756 0 11.1781 0 12.0001Z" fill="#D80027"/>
<path d="M3.51471 3.51465C-1.17157 8.20093 -1.17157 15.7989 3.51471 20.4853C5.45126 18.5487 7.31374 16.6862 12 12L3.51471 3.51465Z" fill="#0052B4"/>
<path d="M4.8567 8.86963L5.63365 11.261H8.14831L6.11403 12.7391L6.89094 15.1305L4.8567 13.6525L2.82237 15.1305L3.59947 12.7391L1.56519 11.261H4.07965L4.8567 8.86963Z" fill="#F0F0F0"/>
</g>
</svg>
