<svg width="24" height="24" viewBox="0 0 24 24" fill="none" xmlns="http://www.w3.org/2000/svg">
<mask id="mask0_1_1707" style="mask-type:luminance" maskUnits="userSpaceOnUse" x="0" y="0" width="24" height="24">
<path d="M24 0H0V24H24V0Z" fill="white"/>
</mask>
<g mask="url(#mask0_1_1707)">
<path d="M0 12.0002C0 17.1597 3.2565 21.5582 7.82602 23.2538L8.86955 12.0001L7.82602 0.746582C3.2565 2.44214 0 6.84061 0 12.0002Z" fill="#6DA544"/>
<path d="M24.0002 12C24.0002 5.37262 18.6275 0 12.0002 0C10.5323 0 9.1262 0.264047 7.82617 0.746391V23.2536C9.1262 23.736 10.5323 24 12.0002 24C18.6275 24 24.0002 18.6274 24.0002 12Z" fill="#D80027"/>
<path d="M7.82623 16.174C10.1314 16.174 12.0001 14.3052 12.0001 12.0001C12.0001 9.69489 10.1314 7.82617 7.82623 7.82617C5.52106 7.82617 3.65234 9.69489 3.65234 12.0001C3.65234 14.3052 5.52106 16.174 7.82623 16.174Z" fill="#FFDA44"/>
<path d="M5.47852 9.91309V12.5218C5.47852 13.8184 6.52964 14.8696 7.82634 14.8696C9.12305 14.8696 10.1742 13.8185 10.1742 12.5218V9.91309H5.47852Z" fill="#D80027"/>
<path d="M7.82608 13.3046C7.39455 13.3046 7.04346 12.9535 7.04346 12.522V11.4785H8.60866V12.522C8.60866 12.9535 8.25757 13.3046 7.82608 13.3046Z" fill="#F0F0F0"/>
</g>
</svg>
