<svg width="24" height="25" viewBox="0 0 24 25" fill="none" xmlns="http://www.w3.org/2000/svg">
<path d="M12 24.5547C18.6274 24.5547 24 19.1821 24 12.5547C24 5.92728 18.6274 0.554688 12 0.554688C5.37257 0.554688 0 5.92728 0 12.5547C0 19.1821 5.37257 24.5547 12 24.5547Z" fill="#3366FF"/>
<path fill-rule="evenodd" clip-rule="evenodd" d="M21.9857 19.2118C19.8339 22.4331 16.1647 24.5547 12.0001 24.5547C7.8354 24.5547 4.16623 22.4331 2.0144 19.2118L12.0001 12.5547L21.9857 19.2118Z" fill="#FF0000"/>
<path fill-rule="evenodd" clip-rule="evenodd" d="M0.0147046 13.1536L12 12.5544L23.9853 13.1536C23.9951 12.9551 24 12.7553 24 12.5543C24 12.3534 23.9951 12.1536 23.9853 11.9551L12 12.5544L0.014701 11.9551C0.00493861 12.1536 0 12.3534 0 12.5543C0 12.7553 0.00493983 12.9551 0.0147046 13.1536Z" fill="#FFFF00"/>
<path fill-rule="evenodd" clip-rule="evenodd" d="M1.63293 6.50719L11.9999 12.5546L22.367 6.50719C22.1632 6.15858 21.9423 5.82117 21.7055 5.49609L11.9999 12.5546L2.29445 5.49609C2.05763 5.82117 1.83674 6.15858 1.63293 6.50719Z" fill="#FFFF00"/>
<path d="M12 12.5547L11.1 0.554688H12.9L12 12.5547Z" fill="#FFFF00"/>
</svg>
