<svg width="24" height="24" viewBox="0 0 24 24" fill="none" xmlns="http://www.w3.org/2000/svg">
<mask id="mask0_1_1759" style="mask-type:luminance" maskUnits="userSpaceOnUse" x="0" y="0" width="24" height="24">
<path d="M24 0H0V24H24V0Z" fill="white"/>
</mask>
<g mask="url(#mask0_1_1759)">
<path d="M16.174 0.746344C14.8739 0.264047 13.4679 6.23894e-09 12.0001 6.23894e-09C10.5322 -4.68688e-05 9.12618 0.264047 7.8262 0.746344L6.78271 12L7.8262 23.2536C9.12614 23.736 10.5322 24 12.0001 24C13.4679 24 14.874 23.736 16.174 23.2536L17.2174 12L16.174 0.746344Z" fill="#FFDA44"/>
<path d="M23.9999 12.0002C23.9999 6.84066 20.7434 2.44205 16.1738 0.746582V23.2539C20.7434 21.5582 23.9999 17.1598 23.9999 12.0002Z" fill="#D80027"/>
<path d="M0 12.0001C0 17.1598 3.2565 21.5582 7.82602 23.2538L7.82606 0.746582C3.2565 2.44205 0 6.84052 0 12.0001Z" fill="#0052B4"/>
</g>
</svg>
