<svg width="24" height="24" viewBox="0 0 24 24" fill="none" xmlns="http://www.w3.org/2000/svg">
<mask id="mask0_1_1829" style="mask-type:luminance" maskUnits="userSpaceOnUse" x="0" y="0" width="24" height="24">
<path d="M24 0H0V24H24V0Z" fill="white"/>
</mask>
<g mask="url(#mask0_1_1829)">
<path d="M12 24C18.6274 24 24 18.6274 24 12C24 5.37258 18.6274 0 12 0C5.37258 0 0 5.37258 0 12C0 18.6274 5.37258 24 12 24Z" fill="#F0F0F0"/>
<path d="M12 0C5.37262 0 0 5.37262 0 12C0 13.4678 0.264047 14.874 0.746391 16.1739H23.2537C23.736 14.874 24 13.4678 24 12C24 5.37262 18.6274 0 12 0Z" fill="#0052B4"/>
<path d="M11.9999 0C6.84036 0 2.44185 3.2565 0.746338 7.82611H23.2536C21.558 3.2565 17.1595 0 11.9999 0Z" fill="#D80027"/>
<path d="M3.10303 6.78223V12.7684C3.10303 16.1736 7.55151 17.217 7.55151 17.217C7.55151 17.217 11.9999 16.1736 11.9999 12.7684V6.78223H3.10303Z" fill="#D80027"/>
<path d="M4.94275 7.82577H10.1602V5.7388L9.11669 6.26052L7.55148 4.69531L5.98623 6.26052L4.94275 5.7388V7.82577Z" fill="#FFDA44"/>
<path d="M10.9565 13.6023L7.56514 10.2109L4.17383 13.6023L5.28059 14.709L7.56514 12.4245L9.84969 14.709L10.9565 13.6023Z" fill="#FFDA44"/>
<path d="M10.9565 10.4342H9.37414C9.46311 10.2807 9.51486 10.1028 9.51486 9.91263C9.51486 9.33625 9.04766 8.86914 8.47137 8.86914C8.07317 8.86914 7.72737 9.09217 7.55145 9.42006C7.37553 9.09222 7.02973 8.86914 6.63153 8.86914C6.05525 8.86914 5.58805 9.33625 5.58805 9.91263C5.58805 10.1028 5.6398 10.2807 5.72877 10.4342H4.17383C4.17383 11.0106 4.67581 11.4777 5.25205 11.4777H5.21731C5.21731 12.0541 5.68447 12.5212 6.2608 12.5212C6.2608 13.0315 6.62727 13.4554 7.11125 13.5462L6.28906 15.4025C6.68309 15.5627 7.11369 15.6517 7.56519 15.6517C8.01669 15.6517 8.44728 15.5627 8.84131 15.4025L8.01913 13.5462C8.50311 13.4555 8.86958 13.0315 8.86958 12.5212C9.44591 12.5212 9.91306 12.0541 9.91306 11.4777H9.87833C10.4545 11.4777 10.9565 11.0105 10.9565 10.4342Z" fill="#F0F0F0"/>
</g>
</svg>
