<svg width="24" height="24" viewBox="0 0 24 24" fill="none" xmlns="http://www.w3.org/2000/svg">
<mask id="mask0_1_1775" style="mask-type:luminance" maskUnits="userSpaceOnUse" x="0" y="0" width="24" height="24">
<path d="M24 0H0V24H24V0Z" fill="white"/>
</mask>
<g mask="url(#mask0_1_1775)">
<path d="M0 12C0 14.0789 0.528891 16.0343 1.45908 17.7392L12 18.7827L22.5409 17.7392C23.4711 16.0343 24 14.0789 24 12L12 10.9565L0 12Z" fill="#FFDA44"/>
<path d="M22.5409 6.26086C20.5057 2.53073 16.5485 0 12 0C7.45148 0 3.49434 2.53073 1.45908 6.26086C0.528891 7.96575 0 9.92109 0 12H24C24 9.92109 23.4711 7.96575 22.5409 6.26086Z" fill="#338AF3"/>
<path d="M11.9999 24.0001C16.5484 24.0001 20.5056 21.4694 22.5408 17.7393H1.45898C3.49425 21.4694 7.45139 24.0001 11.9999 24.0001Z" fill="#496E2D"/>
<path d="M13.5654 7.02268L15.031 7.71207L14.2506 9.13145L15.842 8.82704L16.0437 10.4346L17.1521 9.25225L18.2606 10.4346L18.4622 8.82704L20.0536 9.13136L19.2732 7.71203L20.7387 7.02268L19.2732 6.33339L20.0536 4.91401L18.4622 5.21842L18.2605 3.61084L17.1521 4.79321L16.0436 3.61084L15.842 5.21842L14.2506 4.91401L15.031 6.33343L13.5654 7.02268Z" fill="#FFDA44"/>
</g>
</svg>
