<svg width="24" height="24" viewBox="0 0 24 24" fill="none" xmlns="http://www.w3.org/2000/svg">
<mask id="mask0_1_1808" style="mask-type:luminance" maskUnits="userSpaceOnUse" x="0" y="0" width="24" height="24">
<path d="M24 0H0V24H24V0Z" fill="white"/>
</mask>
<g mask="url(#mask0_1_1808)">
<path d="M12 24C18.6274 24 24 18.6274 24 12C24 5.37258 18.6274 0 12 0C5.37258 0 0 5.37258 0 12C0 18.6274 5.37258 24 12 24Z" fill="#6DA544"/>
<path d="M6.78271 14.3481C6.78271 15.2126 7.4835 15.9133 8.34792 15.9133H13.0436C13.0436 16.6337 13.6275 17.2177 14.3479 17.2177H15.9131C16.6335 17.2177 17.2175 16.6337 17.2175 15.9133V14.3481H6.78271Z" fill="#F0F0F0"/>
<path d="M17.3477 6.78271V10.4349C17.3477 11.0103 16.8796 11.4784 16.3042 11.4784V13.0436C17.7427 13.0436 18.9129 11.8733 18.9129 10.4349V6.78271H17.3477Z" fill="#F0F0F0"/>
<path d="M6.1304 10.4349C6.1304 11.0103 5.6623 11.4784 5.08691 11.4784V13.0436C6.52537 13.0436 7.6956 11.8733 7.6956 10.4349V6.78271H6.1304V10.4349Z" fill="#F0F0F0"/>
<path d="M15 6.78271H16.5652V10.4349H15V6.78271Z" fill="#F0F0F0"/>
<path d="M12.6524 8.86968C12.6524 9.01354 12.5354 9.13054 12.3915 9.13054C12.2477 9.13054 12.1307 9.0135 12.1307 8.86968V6.78271H10.5655V8.86968C10.5655 9.01354 10.4484 9.13054 10.3046 9.13054C10.1608 9.13054 10.0438 9.0135 10.0438 8.86968V6.78271H8.47852V8.86968C8.47852 9.8766 9.2977 10.6958 10.3046 10.6958C10.6924 10.6958 11.052 10.5739 11.3481 10.3669C11.6441 10.5739 12.0038 10.6958 12.3916 10.6958C12.4697 10.6958 12.5465 10.6903 12.622 10.6807C12.5111 11.1377 12.0995 11.4784 11.609 11.4784V13.0436C13.0474 13.0436 14.2177 11.8733 14.2177 10.4349V8.86968V6.78271H12.6525V8.86968H12.6524Z" fill="#F0F0F0"/>
<path d="M8.47852 11.4785H10.8263V13.0437H8.47852V11.4785Z" fill="#F0F0F0"/>
</g>
</svg>
