<svg width="24" height="24" viewBox="0 0 24 24" fill="none" xmlns="http://www.w3.org/2000/svg">
<mask id="mask0_1_1841" style="mask-type:luminance" maskUnits="userSpaceOnUse" x="0" y="0" width="24" height="24">
<path d="M24 0H0V24H24V0Z" fill="white"/>
</mask>
<g mask="url(#mask0_1_1841)">
<path d="M12 24C18.6274 24 24 18.6274 24 12C24 5.37258 18.6274 0 12 0C5.37258 0 0 5.37258 0 12C0 18.6274 5.37258 24 12 24Z" fill="#F0F0F0"/>
<path d="M20.1003 3.14705C17.9656 1.19273 15.1222 0 11.9999 0C11.4888 0 10.9851 0.0322031 10.4908 0.0942187L4.69556 6.78262L0.379639 15.0061C0.658454 16.0871 1.08473 17.1087 1.63472 18.0491L11.9999 12L20.1003 3.14705Z" fill="#FFDA44"/>
<path d="M21.9905 18.6484L5.20142 21.8884C7.13403 23.2197 9.47581 23.9998 12 23.9998C16.1682 23.9998 19.8394 21.8743 21.9905 18.6484Z" fill="#6DA544"/>
<path d="M20.1021 3.14844L1.6416 18.0605C2.12446 18.884 2.70257 19.6449 3.36102 20.3278L23.9999 11.9998C23.9999 8.49547 22.4976 5.34228 20.1021 3.14844Z" fill="#D80027"/>
<path d="M0 11.9995C0 13.0377 0.131906 14.045 0.379734 15.0057L10.4909 0.09375C4.57584 0.835969 0 5.88328 0 11.9995Z" fill="#0052B4"/>
</g>
</svg>
