<svg width="25" height="24" viewBox="0 0 25 24" fill="none" xmlns="http://www.w3.org/2000/svg">
<mask id="mask0_1_2012" style="mask-type:luminance" maskUnits="userSpaceOnUse" x="0" y="0" width="25" height="24">
<path d="M24.5781 0H0.578125V24H24.5781V0Z" fill="white"/>
</mask>
<g mask="url(#mask0_1_2012)">
<path d="M1.76884 6.78274C1.006 8.36037 0.578125 10.1302 0.578125 12.0001C0.578125 13.87 1.006 15.6399 1.76884 17.2175L12.5781 18.261L23.3874 17.2175C24.1502 15.6399 24.5781 13.87 24.5781 12.0001C24.5781 10.1302 24.1502 8.36037 23.3874 6.78274L12.5781 5.73926L1.76884 6.78274Z" fill="#F0F0F0"/>
<path d="M1.76904 17.2178C3.70995 21.2317 7.82037 24.0004 12.5779 24.0004C17.3354 24.0004 21.4459 21.2317 23.3868 17.2178H1.76904Z" fill="black"/>
<path d="M1.76904 6.78262H23.3868C21.4459 2.76867 17.3354 0 12.5779 0C7.82037 0 3.70995 2.76867 1.76904 6.78262Z" fill="#D80027"/>
<path d="M4.09284 3.51465C-0.593445 8.20093 -0.593445 15.7989 4.09284 20.4853C6.02938 18.5487 7.89186 16.6862 12.5781 12L4.09284 3.51465Z" fill="#496E2D"/>
</g>
</svg>
