<svg width="25" height="24" viewBox="0 0 25 24" fill="none" xmlns="http://www.w3.org/2000/svg">
<mask id="mask0_1_2048" style="mask-type:luminance" maskUnits="userSpaceOnUse" x="0" y="-1" width="25" height="25">
<path d="M24.5781 -0.000976562H0.578125V23.999H24.5781V-0.000976562Z" fill="white"/>
</mask>
<g mask="url(#mask0_1_2048)">
<path d="M12.5781 23.999C19.2055 23.999 24.5781 18.6264 24.5781 11.999C24.5781 5.3716 19.2055 -0.000976562 12.5781 -0.000976562C5.9507 -0.000976562 0.578125 5.3716 0.578125 11.999C0.578125 18.6264 5.9507 23.999 12.5781 23.999Z" fill="#FFDA44"/>
<path d="M9.96953 10.4338H24.4766C23.7096 4.54599 18.6751 -0.000976562 12.5782 -0.000976562C11.6822 -0.000976562 10.8094 0.0980702 9.96948 0.284258V10.4338H9.96953Z" fill="#0052B4"/>
<path d="M6.83896 10.4337V1.45801C3.54394 3.25585 1.18514 6.55355 0.679688 10.4337H6.83896V10.4337Z" fill="#0052B4"/>
<path d="M6.83892 13.5645H0.679688C1.18514 17.4446 3.54394 20.7423 6.83896 22.5401L6.83892 13.5645Z" fill="#0052B4"/>
<path d="M9.96948 13.5645V23.714C10.8094 23.9002 11.6822 23.9992 12.5782 23.9992C18.6751 23.9992 23.7096 19.4523 24.4766 13.5645L9.96948 13.5645Z" fill="#0052B4"/>
</g>
</svg>
