<svg width="24" height="24" viewBox="0 0 24 24" fill="none" xmlns="http://www.w3.org/2000/svg">
<mask id="mask0_1_1859" style="mask-type:luminance" maskUnits="userSpaceOnUse" x="0" y="0" width="24" height="24">
<path d="M24 0H0V24H24V0Z" fill="white"/>
</mask>
<g mask="url(#mask0_1_1859)">
<path d="M12 24C18.6274 24 24 18.6274 24 12C24 5.37258 18.6274 0 12 0C5.37258 0 0 5.37258 0 12C0 18.6274 5.37258 24 12 24Z" fill="#F0F0F0"/>
<path d="M0 12C0 5.37263 5.37262 0 12 0C18.6274 0 24 5.37263 24 12" fill="#D80027"/>
<path d="M7.30426 6.26052C7.30426 4.51218 8.533 3.05165 10.1738 2.69329C9.92162 2.63826 9.66001 2.6084 9.39119 2.6084C7.37411 2.6084 5.73901 4.24349 5.73901 6.26057C5.73901 8.27765 7.37411 9.91274 9.39119 9.91274C9.65992 9.91274 9.92158 9.88288 10.1738 9.8278C8.533 9.46945 7.30426 8.00891 7.30426 6.26052Z" fill="#F0F0F0"/>
<path d="M12 2.86914L12.259 3.66625H13.0972L12.4191 4.15895L12.6781 4.95606L12 4.46345L11.3219 4.95606L11.5809 4.15895L10.9028 3.66625H11.741L12 2.86914Z" fill="#F0F0F0"/>
<path d="M9.96688 4.43457L10.2259 5.23173H11.064L10.3859 5.72438L10.645 6.52149L9.96688 6.02888L9.28869 6.52149L9.54777 5.72438L8.86963 5.23173H9.7078L9.96688 4.43457Z" fill="#F0F0F0"/>
<path d="M14.0332 4.43457L14.2923 5.23173H15.1304L14.4523 5.72438L14.7113 6.52149L14.0332 6.02888L13.3551 6.52149L13.6141 5.72438L12.936 5.23173H13.7742L14.0332 4.43457Z" fill="#F0F0F0"/>
<path d="M13.2507 6.78223L13.5098 7.57938H14.3479L13.6698 8.07204L13.9288 8.86915L13.2507 8.37654L12.5726 8.86915L12.8317 8.07204L12.1536 7.57938H12.9916L13.2507 6.78223Z" fill="#F0F0F0"/>
<path d="M10.7493 6.78223L11.0083 7.57938H11.8465L11.1684 8.07204L11.4274 8.86915L10.7493 8.37654L10.0712 8.86915L10.3302 8.07204L9.6521 7.57938H10.4903L10.7493 6.78223Z" fill="#F0F0F0"/>
</g>
</svg>
