<svg width="25" height="25" viewBox="0 0 25 25" fill="none" xmlns="http://www.w3.org/2000/svg">
<path d="M12.343 24.9572C18.9704 24.9572 24.343 19.5847 24.343 12.9572C24.343 6.32986 18.9704 0.957275 12.343 0.957275C5.7156 0.957275 0.343018 6.32986 0.343018 12.9572C0.343018 19.5847 5.7156 24.9572 12.343 24.9572Z" fill="#2E42A5"/>
<path fill-rule="evenodd" clip-rule="evenodd" d="M12.4458 6.96767H6.66677V11.4341H5.16943V6.96767H1.94238C2.24569 6.44212 2.58769 5.94172 2.96448 5.47034H5.16943V3.33657C5.64279 2.98304 6.14312 2.66362 6.66677 2.38196V5.47034H12.4458V6.96767Z" fill="#D9D9D9"/>
<path fill-rule="evenodd" clip-rule="evenodd" d="M10.4775 11.4341H12.4458V9.29086L9.62293 6.96315L8.22872 5.98117L12.4458 2.62275V0.957707C12.4116 0.957419 12.3773 0.957275 12.343 0.957275C11.4218 0.957275 10.5248 1.06108 9.66312 1.25763L6.20144 4.17029L5.92953 4.3618L5.65763 4.17029L4.90671 3.53847C4.19221 4.10335 3.5435 4.7478 2.97398 5.45844L3.63034 5.98117L2.23612 6.96315L1.70322 7.40257C1.05803 8.63588 0.62098 9.99527 0.438721 11.4341H1.3816L5.92953 7.81221L10.4775 11.4341Z" fill="#F7F8FB"/>
<path fill-rule="evenodd" clip-rule="evenodd" d="M11.7598 11.4341H12.4459V9.98941L8.82342 6.91579L6.87321 6.22191L6.83349 6.19078L12.4459 1.38584V0.957706C12.4117 0.957419 12.3774 0.957275 12.3431 0.957275C11.7758 0.957275 11.2177 0.996644 10.6713 1.0728L5.66382 5.27388L4.20972 4.13403C3.86612 4.45092 3.54108 4.78762 3.2364 5.14233L4.55721 6.20228L0.927536 9.24743C0.699334 9.95012 0.53421 10.6812 0.438843 11.4341H0.709026L6.11772 6.80358L6.53982 6.94051L11.7598 11.4341Z" fill="#F50100"/>
<path fill-rule="evenodd" clip-rule="evenodd" d="M12.4458 8.09092H7.78956V11.4341H4.04622V8.09092H1.37073C1.60152 7.57133 1.86813 7.07117 2.16744 6.59359C2.32801 6.33737 2.49799 6.08765 2.6769 5.84492C3.071 5.3102 3.50841 4.80936 3.98396 4.34758H4.04622V4.28755C4.51117 3.84247 5.01187 3.43443 5.54356 3.06816C5.78678 2.90061 6.03649 2.7418 6.29223 2.59218C6.77117 2.31199 7.27127 2.06404 7.78956 1.85132V4.34758H12.4458V8.09092Z" fill="white"/>
<path fill-rule="evenodd" clip-rule="evenodd" d="M12.4458 6.96779H6.66677V11.4341H5.16943V6.96779H1.94238C2.24569 6.44225 2.58769 5.94184 2.96448 5.47046H5.16943V3.33669C5.64279 2.98316 6.14312 2.66374 6.66677 2.38208V5.47046H12.4458V6.96779Z" fill="#F50100"/>
<path d="M14.706 10.9418H14.5095V11.1383C14.5095 11.4787 14.508 11.8123 14.5064 12.1379C14.5028 12.9139 14.4994 13.6446 14.5177 14.3154C14.5437 15.2678 14.6136 16.1166 14.7936 16.8248C14.9738 17.5343 15.2689 18.1201 15.7581 18.5265C16.249 18.9344 16.9103 19.1409 17.7811 19.1409C18.6618 19.1409 19.3411 18.8836 19.8517 18.4189C20.358 17.9577 20.6803 17.3087 20.8819 16.5558C21.2834 15.0567 21.2243 13.0734 21.1133 11.1271L21.1028 10.9418H20.9171H14.706Z" fill="#B7E1FF"/>
<path fill-rule="evenodd" clip-rule="evenodd" d="M14.2595 10.6918H21.3389L21.3629 11.1128C21.3629 11.1128 21.3629 11.1128 21.3629 11.1128C21.4736 13.0525 21.537 15.0763 21.1234 16.6205C20.9146 17.4003 20.5741 18.0991 20.02 18.6037C19.4565 19.1167 18.714 19.3909 17.7811 19.3909C16.8709 19.3909 16.1468 19.1745 15.5984 18.7188M14.2595 10.6918V10.9418ZM14.7594 11.1918H20.8666C20.976 13.1277 21.0264 15.0497 20.6404 16.4911C20.446 17.2172 20.1419 17.8164 19.6834 18.234M21.1132 11.1271L21.1028 11.1277ZM14.7564 12.139C14.7579 11.8305 14.7593 11.5143 14.7594 11.1918ZM14.2595 10.9418V11.1383ZM14.2595 11.1383C14.2595 11.478 14.258 11.8111 14.2564 12.1367ZM14.2564 12.1367C14.2528 12.9117 14.2494 13.6466 14.2678 14.3222ZM14.7564 12.139C14.7528 12.916 14.7494 13.6425 14.7676 14.3086C14.7935 15.2562 14.8629 16.0826 15.0359 16.7633C15.2088 17.4437 15.4839 17.9737 15.9179 18.3342C16.3512 18.6943 16.9498 18.8909 17.7811 18.8909C18.6096 18.8909 19.2258 18.6505 19.6834 18.234M14.2678 14.3222C14.2939 15.2793 14.3643 16.1505 14.5513 16.8864ZM14.5513 16.8864C14.7389 17.6248 15.0539 18.2665 15.5984 18.7188Z" fill="#F7FCFF"/>
<mask id="mask0_4_171" style="mask-type:luminance" maskUnits="userSpaceOnUse" x="14" y="10" width="8" height="10">
<path d="M14.706 10.9418H14.5095V11.1383C14.5095 11.4787 14.508 11.8123 14.5064 12.1379C14.5028 12.9139 14.4994 13.6446 14.5177 14.3154C14.5437 15.2678 14.6136 16.1166 14.7936 16.8248C14.9738 17.5343 15.2689 18.1201 15.7581 18.5265C16.249 18.9344 16.9103 19.1409 17.7811 19.1409C18.6618 19.1409 19.3411 18.8836 19.8517 18.4189C20.358 17.9577 20.6803 17.3087 20.8819 16.5558C21.2834 15.0567 21.2243 13.0734 21.1133 11.1271L21.1028 10.9418H20.9171H14.706Z" fill="white"/>
<path fill-rule="evenodd" clip-rule="evenodd" d="M14.2595 10.6918H21.3389L21.3629 11.1128C21.3629 11.1128 21.3629 11.1128 21.3629 11.1128C21.4736 13.0525 21.537 15.0763 21.1234 16.6205C20.9146 17.4003 20.5741 18.0991 20.02 18.6037C19.4565 19.1167 18.714 19.3909 17.7811 19.3909C16.8709 19.3909 16.1468 19.1745 15.5984 18.7188M14.2595 10.6918V10.9418ZM14.7594 11.1918H20.8666C20.976 13.1277 21.0264 15.0497 20.6404 16.4911C20.446 17.2172 20.1419 17.8164 19.6834 18.234M21.1132 11.1271L21.1028 11.1277ZM14.7564 12.139C14.7579 11.8305 14.7593 11.5143 14.7594 11.1918ZM14.2595 10.9418V11.1383ZM14.2595 11.1383C14.2595 11.478 14.258 11.8111 14.2564 12.1367ZM14.2564 12.1367C14.2528 12.9117 14.2494 13.6466 14.2678 14.3222ZM14.7564 12.139C14.7528 12.916 14.7494 13.6425 14.7676 14.3086C14.7935 15.2562 14.8629 16.0826 15.0359 16.7633C15.2088 17.4437 15.4839 17.9737 15.9179 18.3342C16.3512 18.6943 16.9498 18.8909 17.7811 18.8909C18.6096 18.8909 19.2258 18.6505 19.6834 18.234M14.2678 14.3222C14.2939 15.2793 14.3643 16.1505 14.5513 16.8864ZM14.5513 16.8864C14.7389 17.6248 15.0539 18.2665 15.5984 18.7188Z" fill="white"/>
</mask>
<g mask="url(#mask0_4_171)">
<path d="M20.9642 17.4006H16.2482V18.9727H20.9642V17.4006Z" fill="#2E42A5"/>
<g filter="url(#filter0_d_4_171)">
<path d="M22.5363 9.54053H13.1041V14.2566H22.5363V9.54053Z" fill="#FDFF00"/>
</g>
<path d="M17.1751 11.8017C17.1691 11.7425 17.1597 11.6661 17.1351 11.5858L17.5064 12.7394C17.472 12.7053 17.4355 12.6744 17.4087 12.6519C17.4035 12.6476 17.3985 12.6434 17.3938 12.6395C17.3705 12.62 17.3518 12.6042 17.3324 12.5869C17.253 12.5157 17.2142 12.4623 17.2082 12.3612C17.2035 12.281 17.1997 12.2039 17.1961 12.1319C17.1897 12.0015 17.184 11.8875 17.1751 11.8017Z" fill="#F7FCFF"/>
<path fill-rule="evenodd" clip-rule="evenodd" d="M16.657 11.7322L17.611 11.4326L17.9823 12.5862L17.1544 13.0945C17.1363 13.0765 17.114 13.0574 17.0873 13.035C17.0873 13.035 17.0874 13.0351 17.0873 13.035L17.0736 13.0236L17.0726 13.0227L17.0694 13.02C17.0483 13.0024 17.024 12.982 16.9985 12.9591M16.657 11.7322C16.6668 11.7642 16.6724 11.8008 16.6777 11.8526ZM16.6777 11.8526C16.6848 11.9219 16.69 12.0209 16.6967 12.1565ZM16.6373 14.2765L16.568 14.2208L17.1945 13.4414L17.2638 13.4971L16.6373 14.2765Z" fill="#272727"/>
<path d="M16.8977 14.2913H17.0549V17.4001H16.8977V14.2913Z" fill="#FDFF00"/>
<path fill-rule="evenodd" clip-rule="evenodd" d="M16.327 16.4674H17.7283C17.7283 16.4674 17.7418 16.8717 17.5292 16.797C17.3164 16.7222 17.5505 16.8717 17.2268 16.797C16.9032 16.7222 16.6179 17.0317 16.5454 16.8769C16.4728 16.7222 16.1913 16.9209 16.2591 16.6942C16.327 16.4674 16.327 16.4674 16.327 16.4674Z" fill="#F7FCFF"/>
<path d="M17.7154 16.4291H16.353V16.5863H17.7154V16.4291Z" fill="#212123"/>
<path fill-rule="evenodd" clip-rule="evenodd" d="M16.5208 15.8801H17.6418C17.6418 15.8801 17.6526 16.2036 17.4824 16.1438C17.3123 16.0839 17.4996 16.2036 17.2406 16.1438C16.9817 16.0839 16.7535 16.3315 16.6955 16.2077C16.6374 16.0839 16.4122 16.2429 16.4665 16.0615C16.5208 15.8801 16.5208 15.8801 16.5208 15.8801Z" fill="#F7FCFF"/>
<path d="M17.6316 15.8495H16.5416V16.0067H17.6316V15.8495Z" fill="#212123"/>
<path fill-rule="evenodd" clip-rule="evenodd" d="M16.3166 15.2351H17.5311C17.5311 15.2351 17.5428 15.5586 17.3584 15.4987C17.1741 15.4389 17.3769 15.5586 17.0964 15.4987C16.8159 15.4389 16.5687 15.6866 16.5058 15.5628C16.4429 15.4389 16.1989 15.5979 16.2577 15.4165C16.3166 15.2351 16.3166 15.2351 16.3166 15.2351Z" fill="#F7FCFF"/>
<path d="M17.5198 15.2046H16.339V15.3618H17.5198V15.2046Z" fill="#212123"/>
<path fill-rule="evenodd" clip-rule="evenodd" d="M16.4161 14.6937H17.5371C17.5371 14.6937 17.5479 15.098 17.3777 15.0232C17.2075 14.9485 17.3948 15.098 17.1358 15.0232C16.8769 14.9485 16.6487 15.258 16.5907 15.1032C16.5327 14.9485 16.3075 15.1472 16.3618 14.9205C16.4161 14.6937 16.4161 14.6937 16.4161 14.6937Z" fill="#F7FCFF"/>
<path d="M17.5268 14.6555H16.4369V14.8127H17.5268V14.6555Z" fill="#212123"/>
<path d="M18.4038 14.6842H18.561V17.793H18.4038V14.6842Z" fill="#FDFF00"/>
<path fill-rule="evenodd" clip-rule="evenodd" d="M17.899 16.5956H19.3003C19.3003 16.5956 19.3139 16.9191 19.1012 16.8592C18.8884 16.7994 19.1225 16.9191 18.7988 16.8592C18.4752 16.7994 18.19 17.0471 18.1174 16.9232C18.0449 16.7994 17.7633 16.9584 17.8311 16.777C17.899 16.5956 17.899 16.5956 17.899 16.5956Z" fill="#F7FCFF"/>
<path d="M19.2875 16.5649H17.925V16.7221H19.2875V16.5649Z" fill="#212123"/>
<path fill-rule="evenodd" clip-rule="evenodd" d="M18.1068 16.0096H19.2077C19.2077 16.0096 19.2183 16.2523 19.0512 16.2074C18.8841 16.1625 19.068 16.2523 18.8137 16.2074C18.5594 16.1625 18.3353 16.3483 18.2783 16.2554C18.2213 16.1625 18 16.2818 18.0534 16.1457C18.1068 16.0096 18.1068 16.0096 18.1068 16.0096Z" fill="#F7FCFF"/>
<path d="M19.1975 15.9863H18.1271V16.1435H19.1975V15.9863Z" fill="#212123"/>
<path fill-rule="evenodd" clip-rule="evenodd" d="M17.8878 15.3647H19.089C19.089 15.3647 19.1006 15.6074 18.9182 15.5625C18.7358 15.5176 18.9365 15.6074 18.659 15.5625C18.3817 15.5176 18.1372 15.7034 18.075 15.6105C18.0128 15.5176 17.7715 15.6369 17.8297 15.5008C17.8878 15.3647 17.8878 15.3647 17.8878 15.3647Z" fill="#F7FCFF"/>
<path d="M19.0778 15.3413H17.91V15.4985H19.0778V15.3413Z" fill="#212123"/>
<path fill-rule="evenodd" clip-rule="evenodd" d="M17.9944 14.822H19.0954C19.0954 14.822 19.106 15.1455 18.9389 15.0856C18.7718 15.0258 18.9557 15.1455 18.7014 15.0856C18.4471 15.0258 18.223 15.2735 18.166 15.1496C18.109 15.0258 17.8877 15.1848 17.9411 15.0034C17.9944 14.822 17.9944 14.822 17.9944 14.822Z" fill="#F7FCFF"/>
<path d="M19.0852 14.7914H18.0148V14.9486H19.0852V14.7914Z" fill="#212123"/>
<path d="M20.5638 14.3026H20.721V18.4359H20.5638V14.3026Z" fill="#FDFF00"/>
<path fill-rule="evenodd" clip-rule="evenodd" d="M19.9214 16.8136H21.7049C21.7049 16.8136 21.7221 17.1371 21.4513 17.0772C21.1806 17.0174 21.4785 17.1371 21.0666 17.0772C20.6546 17.0174 20.2917 17.2651 20.1993 17.1412C20.1069 17.0174 19.7486 17.1764 19.835 16.995C19.9214 16.8136 19.9214 16.8136 19.9214 16.8136Z" fill="#F7FCFF"/>
<path d="M21.6885 16.7831H19.9545V16.9403H21.6885V16.7831Z" fill="#212123"/>
<path fill-rule="evenodd" clip-rule="evenodd" d="M20.1858 16.0294H21.5871C21.5871 16.0294 21.6006 16.272 21.3879 16.2271C21.1752 16.1822 21.4092 16.272 21.0856 16.2271C20.7619 16.1822 20.4767 16.368 20.4042 16.2751C20.3315 16.1822 20.05 16.3015 20.1179 16.1654C20.1858 16.0294 20.1858 16.0294 20.1858 16.0294Z" fill="#F7FCFF"/>
<path d="M21.5741 16.0101H20.2117V16.1673H21.5741V16.0101Z" fill="#212123"/>
<path fill-rule="evenodd" clip-rule="evenodd" d="M20.0427 14.9915H21.444C21.444 14.9915 21.4575 15.315 21.2449 15.2551C21.0321 15.1953 21.2662 15.315 20.9425 15.2551C20.6189 15.1953 20.3336 15.4429 20.2611 15.3191C20.1885 15.1953 19.907 15.3543 19.9748 15.1729C20.0427 14.9915 20.0427 14.9915 20.0427 14.9915Z" fill="#F7FCFF"/>
<path d="M21.4311 14.9608H20.0687V15.118H21.4311V14.9608Z" fill="#212123"/>
<path fill-rule="evenodd" clip-rule="evenodd" d="M16.058 18.0531C16.058 18.0531 16.7855 18.4483 17.8948 18.3803C19.0041 18.3122 18.9245 18.5263 19.2122 18.2217C19.4999 17.9171 19.5252 17.9849 19.884 17.825C20.2429 17.6652 20.2944 17.5143 20.4795 17.5143C20.6645 17.5143 22.6348 17.4352 22.6348 17.4352C22.6348 17.4352 22.4545 17.5971 22.4545 17.825C22.4545 18.0531 22.5746 18.0764 22.4545 18.2831C22.3343 18.4899 22.1985 18.7664 22.024 18.8465C21.8495 18.9268 19.4947 18.9775 18.8942 18.9775C18.2937 18.9775 17.0604 19.0444 16.9185 18.9775C16.7766 18.9106 16.058 18.0531 16.058 18.0531Z" fill="#272727"/>
<path fill-rule="evenodd" clip-rule="evenodd" d="M14.7687 15.5822L15.4707 14.9354C15.4707 14.9354 15.5014 14.9354 15.6319 15.2588C15.7624 15.5822 15.7685 16.0244 15.9042 15.9139C16.04 15.8035 16.2488 15.9055 16.3368 15.5822C16.4247 15.2588 16.4192 14.8401 16.5311 15.0494C16.6428 15.2588 16.5764 14.9527 16.7549 15.4334C16.9333 15.9139 17.004 15.2269 17.1022 15.9139C17.2003 16.6011 17.2834 16.8381 17.2834 16.998C17.2834 17.1578 18.1772 17.634 17.8344 17.962C17.4915 18.29 17.5886 18.1354 17.2834 18.3417C16.9782 18.5479 16.6655 18.428 17.1022 18.59C17.5389 18.752 17.4763 19.0456 17.4763 19.2621C17.4763 19.4786 17.4494 19.5756 17.1022 19.5271C16.7549 19.4786 16.3326 19.6515 16.2482 19.6515C16.1638 19.6515 15.1457 19.4441 15.1457 19.017C15.1457 18.59 14.7687 15.5822 14.7687 15.5822Z" fill="#CE6201"/>
</g>
<defs>
<filter id="filter0_d_4_171" x="13.1041" y="9.54053" width="9.43213" height="5.71606" filterUnits="userSpaceOnUse" color-interpolation-filters="sRGB">
<feFlood flood-opacity="0" result="BackgroundImageFix"/>
<feColorMatrix in="SourceAlpha" type="matrix" values="0 0 0 0 0 0 0 0 0 0 0 0 0 0 0 0 0 0 127 0" result="hardAlpha"/>
<feOffset dy="1"/>
<feColorMatrix type="matrix" values="0 0 0 0 0 0 0 0 0 0 0 0 0 0 0 0 0 0 0.5 0"/>
<feBlend mode="normal" in2="BackgroundImageFix" result="effect1_dropShadow_4_171"/>
<feBlend mode="normal" in="SourceGraphic" in2="effect1_dropShadow_4_171" result="shape"/>
</filter>
</defs>
</svg>
