<svg width="24" height="25" viewBox="0 0 24 25" fill="none" xmlns="http://www.w3.org/2000/svg">
<path d="M12 24.4805C18.6274 24.4805 24 19.1079 24 12.4805C24 5.85305 18.6274 0.480469 12 0.480469C5.37258 0.480469 0 5.85305 0 12.4805C0 19.1079 5.37258 24.4805 12 24.4805Z" fill="#012169"/>
<path d="M12 24.4805C18.6274 24.4805 24 19.1079 24 12.4805C24 5.85305 18.6274 0.480469 12 0.480469C5.37258 0.480469 0 5.85305 0 12.4805C0 19.1079 5.37258 24.4805 12 24.4805Z" fill="#012169"/>
<path d="M12 24.4805C18.6274 24.4805 24 19.1079 24 12.4805C24 5.85305 18.6274 0.480469 12 0.480469C5.37258 0.480469 0 5.85305 0 12.4805C0 19.1079 5.37258 24.4805 12 24.4805Z" fill="#012169"/>
<path fill-rule="evenodd" clip-rule="evenodd" d="M13.8973 0.629883C14.5673 0.736267 15.2188 0.898133 15.847 1.11063V1.30646L10.1128 4.17361L8.46134 3.3479L13.8973 0.629883ZM5.97129 2.10287L8.46134 3.3479L6.80993 4.17361L4.57268 3.05493C5.01481 2.70602 5.48206 2.38769 5.97129 2.10287ZM1.38005 6.88853L6.80993 4.17361L8.46134 4.99924L2.72711 7.86639H1.07568V7.50803C1.17136 7.29822 1.27286 7.09169 1.38005 6.88853ZM8.46134 4.99924L10.1128 4.17361L15.847 7.04069V7.86639H14.1956L8.46134 4.99924Z" fill="white"/>
<path fill-rule="evenodd" clip-rule="evenodd" d="M7.23008 1.4657C8.01111 1.12705 8.83527 0.869049 9.692 0.702148V2.94226H15.8467V5.40418H9.692V7.86606H7.23008V5.40418H2.30713C2.9884 4.47265 3.80072 3.64292 4.71697 2.94226H7.23008V1.4657Z" fill="white"/>
<path fill-rule="evenodd" clip-rule="evenodd" d="M14.3041 0.701172C14.559 0.750702 14.811 0.808289 15.0598 0.873749L10.9233 2.94202H9.82231L14.3041 0.701172ZM7.72278 1.26486C8.20123 1.08231 8.6944 0.929504 9.19995 0.808655V3.43448H15.847V4.91159H9.19995V7.86581H7.72278V4.91159H2.6874C3.12038 4.37949 3.59803 3.88519 4.11466 3.43448H7.72278V1.26486ZM4.78929 2.88736C4.93742 2.77585 5.08817 2.66782 5.2415 2.56308L5.99947 2.94202H4.89851L4.78929 2.88736ZM5.99947 5.40394L1.07568 7.86581H2.17665L7.10042 5.40394H5.99947ZM10.9233 5.40394L15.847 7.86581V7.31541L12.0242 5.40394H10.9233Z" fill="#C8102E"/>
<path d="M13.0768 10.4764L20.1487 10.4502L20.1355 16.7479C20.1355 16.7479 20.3848 17.7057 17.1703 19.1621C18.3249 19.044 19.5845 17.8107 19.5845 17.8107C19.5845 17.8107 20.0962 17.1547 20.3454 17.522C20.5947 17.8894 20.8309 18.0731 21.0146 18.2174C21.1983 18.3617 21.3426 18.7553 21.0671 19.044C20.7915 19.3326 20.3586 19.372 20.2405 19.0177C20.0568 19.1096 18.9285 20.4741 16.6193 20.5397C14.2708 20.5003 12.985 19.0046 12.985 19.0046C12.985 19.0046 12.6701 19.5032 12.224 19.1096C11.791 18.5979 12.119 18.2699 12.119 18.2699C12.119 18.2699 12.4864 18.06 12.5914 17.9156C12.7619 17.7188 12.8144 17.4564 13.1031 17.4564C13.4442 17.4827 13.5754 17.7582 13.5754 17.7582C13.5754 17.7582 14.7562 19.0046 16.0289 19.1621C13.1557 17.7844 13.0507 16.9315 13.0638 16.7216L13.0769 10.4764L13.0768 10.4764Z" fill="white"/>
<path d="M13.2474 10.6468L19.9913 10.6074V16.669C20.0044 17.4562 18.6792 18.2566 16.6062 19.28C14.4676 18.1778 13.2343 17.5087 13.2212 16.6559L13.2474 10.6468Z" fill="#006129" stroke="black" stroke-width="1.8873"/>
<path d="M14.165 11.5426L14.5631 10.958L14.9631 11.5439" stroke="#FFC72C" stroke-width="1.8873"/>
<path d="M14.643 11.3242C14.643 11.3679 14.6076 11.4033 14.5639 11.4033C14.5203 11.4033 14.4848 11.3679 14.4849 11.3242C14.4848 11.2805 14.5203 11.2451 14.5639 11.2451C14.6076 11.2451 14.643 11.2805 14.643 11.3242Z" fill="#FFC72C" stroke="black" stroke-width="0.9437"/>
<path d="M14.24 11.9742L14.8571 11.976C14.8571 11.976 14.8668 11.8959 14.7927 11.8472C15.1159 11.8028 15.0319 11.5177 15.3026 11.5015C15.3552 11.5096 15.1612 11.6227 15.1612 11.6227C15.1612 11.6227 14.998 11.7379 15.0723 11.7964C15.1314 11.8429 15.1572 11.7682 15.1653 11.7116C15.1734 11.655 15.4279 11.6187 15.3916 11.4571C15.331 11.3237 14.9754 11.5459 14.9754 11.5459L14.7217 11.5445C14.7059 11.5161 14.636 11.4019 14.5637 11.4014C14.4781 11.4045 14.4178 11.5459 14.4178 11.5459H14.0501H13.844C13.844 11.5459 13.8243 11.6932 14.1153 11.7214C14.1808 11.807 14.2315 11.8309 14.2885 11.853C14.2505 11.8846 14.2398 11.9229 14.24 11.9742Z" fill="#FFC72C" stroke="black" stroke-width="0.9437"/>
<path d="M14.2842 11.8494L14.7982 11.8477" stroke="black" stroke-width="0.9437"/>
<path d="M14.0488 11.5459C14.0488 11.5459 14.0899 11.7863 14.2797 11.8432L14.0488 11.5459Z" fill="#FFC72C"/>
<path d="M14.0488 11.5459C14.0488 11.5459 14.0899 11.7863 14.2797 11.8432" stroke="black" stroke-width="0.9437"/>
<path d="M14.0175 11.5433C14.0365 11.4516 14.0713 11.4358 14.1092 11.3187C14.1156 11.2049 14.0175 11.2175 14.046 11.1447C14.0966 11.0657 14.0713 10.9898 13.9764 10.9297C13.9954 11.0341 13.853 11.1321 13.853 11.2175C13.853 11.303 13.9258 11.284 13.9163 11.4137C13.9226 11.4896 13.8973 11.4706 13.891 11.5433H14.0175Z" fill="#EB5757" stroke="black" stroke-width="0.9437"/>
<path d="M14.6367 10.9732C14.6367 11.0134 14.6041 11.0459 14.564 11.0459C14.5237 11.0459 14.4912 11.0134 14.4912 10.9732C14.4912 10.933 14.5237 10.9004 14.564 10.9004C14.6041 10.9004 14.6367 10.933 14.6367 10.9732Z" fill="#FFC72C" stroke="black" stroke-width="0.9437"/>
<path d="M14.1431 12.7096L14.5411 12.125L14.9411 12.7108" stroke="#FFC72C" stroke-width="1.8873"/>
<path d="M14.621 12.4912C14.621 12.5348 14.5857 12.5703 14.542 12.5703C14.4983 12.5703 14.4629 12.5348 14.4629 12.4912C14.4629 12.4475 14.4983 12.4121 14.542 12.4121C14.5857 12.4121 14.621 12.4475 14.621 12.4912Z" fill="#FFC72C" stroke="black" stroke-width="0.9437"/>
<path d="M14.218 13.1412L14.8352 13.143C14.8352 13.143 14.8448 13.0629 14.7707 13.0142C15.0939 12.9697 15.01 12.6846 15.2807 12.6685C15.3332 12.6765 15.1392 12.7897 15.1392 12.7897C15.1392 12.7897 14.976 12.9049 15.0504 12.9634C15.1093 13.0099 15.1352 12.9352 15.1433 12.8786C15.1514 12.822 15.4059 12.7856 15.3695 12.624C15.3089 12.4907 14.9534 12.7129 14.9534 12.7129L14.6997 12.7115C14.6839 12.683 14.614 12.5689 14.5418 12.5684C14.4561 12.5715 14.3958 12.7129 14.3958 12.7129H14.0281H13.8221C13.8221 12.7129 13.8024 12.8601 14.0933 12.8884C14.1588 12.974 14.2096 12.9979 14.2665 13.02C14.2286 13.0516 14.2179 13.0899 14.218 13.1412Z" fill="#FFC72C" stroke="black" stroke-width="0.9437"/>
<path d="M14.2627 13.0155L14.7767 13.0137" stroke="black" stroke-width="0.9437"/>
<path d="M14.0273 12.7129C14.0273 12.7129 14.0685 12.9533 14.2582 13.0102L14.0273 12.7129Z" fill="#FFC72C"/>
<path d="M14.0273 12.7129C14.0273 12.7129 14.0685 12.9533 14.2582 13.0102" stroke="black" stroke-width="0.9437"/>
<path d="M13.9955 12.7094C14.0145 12.6177 14.0493 12.6019 14.0873 12.4848C14.0936 12.3709 13.9955 12.3836 14.024 12.3108C14.0746 12.2317 14.0493 12.1558 13.9544 12.0957C13.9734 12.2001 13.8311 12.2982 13.8311 12.3836C13.8311 12.469 13.9038 12.45 13.8943 12.5797C13.9006 12.6556 13.8753 12.6366 13.869 12.7094H13.9955Z" fill="#EB5757" stroke="black" stroke-width="0.9437"/>
<path d="M14.6152 12.1401C14.6152 12.1803 14.5826 12.2129 14.5424 12.2129C14.5023 12.2129 14.4697 12.1803 14.4697 12.1401C14.4697 12.1 14.5023 12.0674 14.5424 12.0674C14.5826 12.0674 14.6152 12.1 14.6152 12.1401Z" fill="#FFC72C" stroke="black" stroke-width="0.9437"/>
<path d="M14.1343 13.859L14.5323 13.2744L14.9324 13.8603" stroke="#FFC72C" stroke-width="1.8873"/>
<path d="M14.6122 13.6406C14.6123 13.6843 14.5769 13.7197 14.5332 13.7197C14.4895 13.7197 14.4541 13.6843 14.4541 13.6406C14.4541 13.5969 14.4895 13.5615 14.5332 13.5615C14.5769 13.5615 14.6123 13.5969 14.6122 13.6406Z" fill="#FFC72C" stroke="black" stroke-width="0.9437"/>
<path d="M14.2092 14.2906L14.8264 14.2924C14.8264 14.2924 14.836 14.2123 14.7619 14.1636C15.0851 14.1192 15.0012 13.8341 15.2719 13.8179C15.3244 13.826 15.1305 13.9391 15.1305 13.9391C15.1305 13.9391 14.9672 14.0543 15.0416 14.1128C15.1006 14.1593 15.1264 14.0846 15.1345 14.028C15.1426 13.9715 15.3971 13.9351 15.3608 13.7735C15.3001 13.6401 14.9446 13.8623 14.9446 13.8623L14.6909 13.8609C14.6751 13.8325 14.6052 13.7183 14.533 13.7178C14.4473 13.7209 14.387 13.8623 14.387 13.8623H14.0193H13.8133C13.8133 13.8623 13.7936 14.0096 14.0845 14.0378C14.15 14.1234 14.2008 14.1473 14.2577 14.1694C14.2198 14.2011 14.2091 14.2394 14.2092 14.2906Z" fill="#FFC72C" stroke="black" stroke-width="0.9437"/>
<path d="M14.2534 14.1658L14.7674 14.1641" stroke="black" stroke-width="0.9437"/>
<path d="M14.0181 13.8623C14.0181 13.8623 14.0592 14.1027 14.249 14.1596L14.0181 13.8623Z" fill="#FFC72C"/>
<path d="M14.0181 13.8623C14.0181 13.8623 14.0592 14.1027 14.249 14.1596" stroke="black" stroke-width="0.9437"/>
<path d="M13.9868 13.8597C14.0057 13.768 14.0405 13.7522 14.0785 13.6352C14.0848 13.5213 13.9867 13.534 14.0152 13.4612C14.0658 13.3821 14.0405 13.3062 13.9456 13.2461C13.9646 13.3505 13.8223 13.4485 13.8223 13.534C13.8223 13.6194 13.895 13.6004 13.8855 13.7301C13.8918 13.806 13.8665 13.787 13.8602 13.8597H13.9868Z" fill="#EB5757" stroke="black" stroke-width="0.9437"/>
<path d="M14.6059 13.2895C14.6059 13.3297 14.5733 13.3623 14.5332 13.3623C14.493 13.3623 14.4604 13.3297 14.4604 13.2895C14.4604 13.2494 14.493 13.2168 14.5332 13.2168C14.5733 13.2168 14.6059 13.2494 14.6059 13.2895Z" fill="#FFC72C" stroke="black" stroke-width="0.9437"/>
<path d="M14.8887 15.1042L15.2867 14.5195L15.6868 15.1054" stroke="#FFC72C" stroke-width="1.8873"/>
<path d="M15.3671 14.8857C15.3671 14.9294 15.3317 14.9648 15.288 14.9648C15.2444 14.9648 15.2089 14.9294 15.209 14.8857C15.2089 14.842 15.2444 14.8066 15.288 14.8066C15.3317 14.8066 15.3671 14.842 15.3671 14.8857Z" fill="#FFC72C" stroke="black" stroke-width="0.9437"/>
<path d="M14.9636 15.5358L15.5808 15.5375C15.5808 15.5375 15.5904 15.4575 15.5163 15.4088C15.8395 15.3643 15.7556 15.0792 16.0263 15.0631C16.0788 15.0711 15.8848 15.1842 15.8848 15.1842C15.8848 15.1842 15.7216 15.2995 15.796 15.358C15.855 15.4045 15.8808 15.3297 15.8889 15.2732C15.897 15.2166 16.1515 15.1802 16.1151 15.0186C16.0546 14.8853 15.699 15.1075 15.699 15.1075L15.4453 15.1061C15.4295 15.0776 15.3596 14.9635 15.2874 14.9629C15.2017 14.966 15.1414 15.1075 15.1414 15.1075H14.7737H14.5677C14.5677 15.1075 14.548 15.2547 14.8389 15.283C14.9044 15.3685 14.9552 15.3924 15.0121 15.4146C14.9742 15.4462 14.9635 15.4845 14.9636 15.5358Z" fill="#FFC72C" stroke="black" stroke-width="0.9437"/>
<path d="M15.0083 15.4109L15.5223 15.4092" stroke="black" stroke-width="0.9437"/>
<path d="M14.7729 15.1074C14.7729 15.1074 14.8141 15.3478 15.0039 15.4048L14.7729 15.1074Z" fill="#FFC72C"/>
<path d="M14.7729 15.1074C14.7729 15.1074 14.8141 15.3478 15.0039 15.4048" stroke="black" stroke-width="0.9437"/>
<path d="M14.7411 15.1049C14.7601 15.0132 14.7949 14.9973 14.8329 14.8803C14.8392 14.7664 14.7411 14.7791 14.7696 14.7063C14.8202 14.6272 14.7949 14.5513 14.7 14.4912C14.719 14.5956 14.5767 14.6937 14.5767 14.7791C14.5767 14.8645 14.6494 14.8455 14.6399 14.9752C14.6462 15.0511 14.621 15.0321 14.6146 15.1049H14.7411Z" fill="#EB5757" stroke="black" stroke-width="0.9437"/>
<path d="M15.3608 14.5347C15.3608 14.5748 15.3283 14.6074 15.288 14.6074C15.2479 14.6074 15.2153 14.5748 15.2153 14.5347C15.2153 14.4945 15.2479 14.4619 15.288 14.4619C15.3283 14.4619 15.3608 14.4945 15.3608 14.5347Z" fill="#FFC72C" stroke="black" stroke-width="0.9437"/>
<path d="M14.0361 16.1227L14.4342 15.5381L14.8342 16.124" stroke="#FFC72C" stroke-width="1.8873"/>
<path d="M14.5141 15.9043C14.5141 15.948 14.4787 15.9834 14.435 15.9834C14.3913 15.9834 14.356 15.948 14.356 15.9043C14.356 15.8606 14.3913 15.8252 14.435 15.8252C14.4787 15.8252 14.5141 15.8606 14.5141 15.9043Z" fill="#FFC72C" stroke="black" stroke-width="0.9437"/>
<path d="M14.1106 16.5543L14.7277 16.5561C14.7277 16.5561 14.7374 16.476 14.6633 16.4273C14.9865 16.3828 14.9025 16.0977 15.1732 16.0816C15.2258 16.0896 15.0318 16.2028 15.0318 16.2028C15.0318 16.2028 14.8686 16.318 14.9429 16.3765C15.002 16.423 15.0278 16.3482 15.0359 16.2917C15.044 16.2351 15.2985 16.1988 15.2622 16.0371C15.2016 15.9038 14.846 16.126 14.846 16.126L14.5923 16.1246C14.5765 16.0961 14.5066 15.982 14.4344 15.9814C14.3487 15.9846 14.2884 16.126 14.2884 16.126H13.9207H13.7146C13.7146 16.126 13.6949 16.2732 13.9859 16.3015C14.0514 16.3871 14.1022 16.411 14.1591 16.4331C14.1211 16.4647 14.1104 16.503 14.1106 16.5543Z" fill="#FFC72C" stroke="black" stroke-width="0.9437"/>
<path d="M14.1553 16.4295L14.6693 16.4277" stroke="black" stroke-width="0.9437"/>
<path d="M13.9199 16.126C13.9199 16.126 13.961 16.3664 14.1508 16.4233L13.9199 16.126Z" fill="#FFC72C"/>
<path d="M13.9199 16.126C13.9199 16.126 13.961 16.3664 14.1508 16.4233" stroke="black" stroke-width="0.9437"/>
<path d="M13.8881 16.1234C13.9071 16.0317 13.9419 16.0159 13.9799 15.8988C13.9862 15.785 13.8881 15.7976 13.9166 15.7249C13.9672 15.6457 13.9419 15.5699 13.847 15.5098C13.866 15.6142 13.7236 15.7122 13.7236 15.7976C13.7236 15.883 13.7964 15.864 13.7869 15.9937C13.7932 16.0696 13.7679 16.0507 13.7616 16.1234H13.8881Z" fill="#EB5757" stroke="black" stroke-width="0.9437"/>
<path d="M14.5078 15.5532C14.5078 15.5934 14.4752 15.626 14.4351 15.626C14.3949 15.626 14.3623 15.5934 14.3623 15.5532C14.3623 15.513 14.3949 15.4805 14.4351 15.4805C14.4752 15.4805 14.5078 15.513 14.5078 15.5532Z" fill="#FFC72C" stroke="black" stroke-width="0.9437"/>
<path d="M14.0581 17.3258L14.4562 16.7412L14.8562 17.3271" stroke="#FFC72C" stroke-width="1.8873"/>
<path d="M14.536 17.1074C14.536 17.1511 14.5006 17.1865 14.457 17.1865C14.4133 17.1865 14.3779 17.1511 14.3779 17.1074C14.3779 17.0637 14.4133 17.0283 14.457 17.0283C14.5006 17.0283 14.536 17.0637 14.536 17.1074Z" fill="#FFC72C" stroke="black" stroke-width="0.9437"/>
<path d="M14.1331 17.7574L14.7502 17.7592C14.7502 17.7592 14.7599 17.6791 14.6858 17.6304C15.009 17.586 14.925 17.3009 15.1957 17.2847C15.2483 17.2928 15.0543 17.4059 15.0543 17.4059C15.0543 17.4059 14.8911 17.5211 14.9654 17.5796C15.0244 17.6261 15.0503 17.5514 15.0584 17.4948C15.0664 17.4382 15.321 17.4019 15.2846 17.2403C15.224 17.1069 14.8684 17.3291 14.8684 17.3291L14.6148 17.3277C14.5989 17.2993 14.529 17.1851 14.4569 17.1846C14.3712 17.1877 14.3108 17.3291 14.3108 17.3291H13.9432H13.7371C13.7371 17.3291 13.7175 17.4764 14.0084 17.5046C14.0738 17.5902 14.1246 17.6141 14.1816 17.6362C14.1436 17.6679 14.1329 17.7061 14.1331 17.7574Z" fill="#FFC72C" stroke="black" stroke-width="0.9437"/>
<path d="M14.1777 17.6326L14.6918 17.6309" stroke="black" stroke-width="0.9437"/>
<path d="M13.9419 17.3291C13.9419 17.3291 13.983 17.5695 14.1728 17.6264L13.9419 17.3291Z" fill="#FFC72C"/>
<path d="M13.9419 17.3291C13.9419 17.3291 13.983 17.5695 14.1728 17.6264" stroke="black" stroke-width="0.9437"/>
<path d="M13.9106 17.3265C13.9296 17.2348 13.9643 17.219 14.0023 17.102C14.0086 16.9881 13.9106 17.0007 13.9391 16.928C13.9897 16.8489 13.9643 16.773 13.8695 16.7129C13.8885 16.8173 13.7461 16.9153 13.7461 17.0007C13.7461 17.0862 13.8188 17.0672 13.8094 17.1969C13.8157 17.2728 13.7904 17.2538 13.7841 17.3265H13.9106Z" fill="#EB5757" stroke="black" stroke-width="0.9437"/>
<path d="M14.5297 16.7564C14.5298 16.7966 14.4972 16.8291 14.457 16.8291C14.4169 16.8291 14.3843 16.7966 14.3843 16.7564C14.3843 16.7162 14.4169 16.6836 14.457 16.6836C14.4972 16.6836 14.5298 16.7162 14.5297 16.7564Z" fill="#FFC72C" stroke="black" stroke-width="0.9437"/>
<path d="M18.2964 11.5622L18.6944 10.9775L19.0945 11.5634" stroke="#FFC72C" stroke-width="1.8873"/>
<path d="M18.7743 11.3437C18.7743 11.3874 18.7389 11.4228 18.6952 11.4228C18.6516 11.4228 18.6162 11.3874 18.6162 11.3437C18.6162 11.3001 18.6516 11.2646 18.6952 11.2646C18.7389 11.2646 18.7743 11.3001 18.7743 11.3437Z" fill="#FFC72C" stroke="black" stroke-width="0.9437"/>
<path d="M18.3713 11.9938L18.9885 11.9955C18.9885 11.9955 18.9981 11.9154 18.924 11.8668C19.2472 11.8223 19.1633 11.5372 19.434 11.521C19.4865 11.5291 19.2926 11.6422 19.2926 11.6422C19.2926 11.6422 19.1293 11.7574 19.2037 11.816C19.2627 11.8625 19.2885 11.7877 19.2966 11.7312C19.3047 11.6746 19.5592 11.6382 19.5229 11.4766C19.4623 11.3433 19.1067 11.5655 19.1067 11.5655L18.853 11.5641C18.8372 11.5356 18.7673 11.4214 18.6951 11.4209C18.6095 11.424 18.5491 11.5655 18.5491 11.5655H18.1814H17.9754C17.9754 11.5655 17.9557 11.7127 18.2466 11.741C18.3121 11.8265 18.3629 11.8504 18.4198 11.8725C18.3819 11.9042 18.3712 11.9425 18.3713 11.9938Z" fill="#FFC72C" stroke="black" stroke-width="0.9437"/>
<path d="M18.4155 11.8689L18.9295 11.8672" stroke="black" stroke-width="0.9437"/>
<path d="M18.1802 11.5654C18.1802 11.5654 18.2213 11.8059 18.4111 11.8628L18.1802 11.5654Z" fill="#FFC72C"/>
<path d="M18.1802 11.5654C18.1802 11.5654 18.2213 11.8059 18.4111 11.8628" stroke="black" stroke-width="0.9437"/>
<path d="M18.1484 11.5619C18.1674 11.4702 18.2021 11.4544 18.2401 11.3373C18.2464 11.2234 18.1484 11.2361 18.1768 11.1634C18.2274 11.0843 18.2021 11.0083 18.1073 10.9482C18.1262 11.0526 17.9839 11.1507 17.9839 11.2361C17.9839 11.3215 18.0566 11.3025 18.0471 11.4322C18.0534 11.5081 18.0281 11.4892 18.0218 11.5619H18.1484Z" fill="#EB5757" stroke="black" stroke-width="0.9437"/>
<path d="M18.768 10.9917C18.768 11.0319 18.7354 11.0644 18.6953 11.0644C18.6551 11.0644 18.6225 11.0319 18.6226 10.9917C18.6225 10.9515 18.6551 10.9189 18.6953 10.9189C18.7354 10.9189 18.768 10.9515 18.768 10.9917Z" fill="#FFC72C" stroke="black" stroke-width="0.9437"/>
<path d="M18.2583 12.7067L18.6564 12.1221L19.0564 12.7079" stroke="#FFC72C" stroke-width="1.8873"/>
<path d="M18.7362 12.4883C18.7362 12.5319 18.7008 12.5673 18.6572 12.5673C18.6135 12.5673 18.5781 12.5319 18.5781 12.4883C18.5781 12.4446 18.6135 12.4092 18.6572 12.4092C18.7008 12.4092 18.7362 12.4446 18.7362 12.4883Z" fill="#FFC72C" stroke="black" stroke-width="0.9437"/>
<path d="M18.3333 13.1383L18.9504 13.1401C18.9504 13.1401 18.9601 13.06 18.8859 13.0113C19.2092 12.9668 19.1252 12.6817 19.3959 12.6656C19.4484 12.6736 19.2545 12.7868 19.2545 12.7868C19.2545 12.7868 19.0913 12.9019 19.1656 12.9605C19.2246 13.007 19.2504 12.9322 19.2586 12.8756C19.2666 12.8191 19.5212 12.7827 19.4848 12.6211C19.4242 12.4878 19.0686 12.71 19.0686 12.71L18.815 12.7086C18.7991 12.6801 18.7292 12.5659 18.6571 12.5654C18.5714 12.5685 18.511 12.71 18.511 12.71H18.1434H17.9373C17.9373 12.71 17.9176 12.8572 18.2086 12.8855C18.274 12.971 18.3248 12.9949 18.3818 13.0171C18.3438 13.0487 18.3331 13.087 18.3333 13.1383Z" fill="#FFC72C" stroke="black" stroke-width="0.9437"/>
<path d="M18.3774 13.0135L18.8915 13.0117" stroke="black" stroke-width="0.9437"/>
<path d="M18.1421 12.7109C18.1421 12.7109 18.1832 12.9514 18.373 13.0083L18.1421 12.7109Z" fill="#FFC72C"/>
<path d="M18.1421 12.7109C18.1421 12.7109 18.1832 12.9514 18.373 13.0083" stroke="black" stroke-width="0.9437"/>
<path d="M18.1108 12.7074C18.1298 12.6157 18.1645 12.5999 18.2025 12.4828C18.2088 12.369 18.1108 12.3816 18.1393 12.3088C18.1899 12.2297 18.1645 12.1538 18.0697 12.0938C18.0886 12.1981 17.9463 12.2962 17.9463 12.3816C17.9463 12.467 18.019 12.448 18.0096 12.5777C18.0159 12.6536 17.9906 12.6346 17.9843 12.7074H18.1108Z" fill="#EB5757" stroke="black" stroke-width="0.9437"/>
<path d="M18.7299 12.1373C18.73 12.1774 18.6974 12.21 18.6572 12.21C18.6171 12.21 18.5845 12.1774 18.5845 12.1373C18.5845 12.097 18.6171 12.0645 18.6572 12.0645C18.6974 12.0645 18.73 12.097 18.7299 12.1373Z" fill="#FFC72C" stroke="black" stroke-width="0.9437"/>
<path d="M18.2075 13.8776L18.6056 13.293L19.0056 13.8788" stroke="#FFC72C" stroke-width="1.8873"/>
<path d="M18.6859 13.6592C18.6859 13.7028 18.6505 13.7382 18.6069 13.7382C18.5632 13.7382 18.5278 13.7028 18.5278 13.6592C18.5278 13.6155 18.5632 13.5801 18.6069 13.5801C18.6505 13.5801 18.6859 13.6155 18.6859 13.6592Z" fill="#FFC72C" stroke="black" stroke-width="0.9437"/>
<path d="M18.2825 14.3092L18.8996 14.311C18.8996 14.311 18.9093 14.2309 18.8352 14.1822C19.1584 14.1378 19.0744 13.8526 19.3451 13.8365C19.3977 13.8446 19.2037 13.9577 19.2037 13.9577C19.2037 13.9577 19.0405 14.0729 19.1148 14.1314C19.1738 14.1779 19.1997 14.1032 19.2078 14.0466C19.2158 13.99 19.4704 13.9536 19.434 13.7921C19.3734 13.6587 19.0178 13.8809 19.0178 13.8809L18.7642 13.8795C18.7484 13.851 18.6785 13.7369 18.6063 13.7363C18.5206 13.7395 18.4603 13.8809 18.4603 13.8809H18.0926H17.8865C17.8865 13.8809 17.8668 14.0281 18.1578 14.0564C18.2233 14.142 18.274 14.1659 18.331 14.188C18.293 14.2197 18.2823 14.2579 18.2825 14.3092Z" fill="#FFC72C" stroke="black" stroke-width="0.9437"/>
<path d="M18.3271 14.1844L18.8412 14.1826" stroke="black" stroke-width="0.9437"/>
<path d="M18.0918 13.8809C18.0918 13.8809 18.1329 14.1212 18.3227 14.1782L18.0918 13.8809Z" fill="#FFC72C"/>
<path d="M18.0918 13.8809C18.0918 13.8809 18.1329 14.1212 18.3227 14.1782" stroke="black" stroke-width="0.9437"/>
<path d="M18.06 13.8774C18.079 13.7856 18.1138 13.7698 18.1517 13.6528C18.1581 13.5389 18.06 13.5515 18.0884 13.4788C18.1391 13.3997 18.1138 13.3238 18.0189 13.2637C18.0379 13.3681 17.8955 13.4661 17.8955 13.5515C17.8955 13.6369 17.9683 13.618 17.9588 13.7477C17.9651 13.8236 17.9398 13.8046 17.9335 13.8774H18.06Z" fill="#EB5757" stroke="black" stroke-width="0.9437"/>
<path d="M18.6796 13.3071C18.6797 13.3473 18.6471 13.3799 18.6069 13.3799C18.5668 13.3799 18.5342 13.3473 18.5342 13.3071C18.5342 13.267 18.5668 13.2344 18.6069 13.2344C18.6471 13.2344 18.6797 13.267 18.6796 13.3071Z" fill="#FFC72C" stroke="black" stroke-width="0.9437"/>
<path d="M18.2646 15.029L18.6628 14.4443L19.0627 15.0302" stroke="#FFC72C" stroke-width="1.8873"/>
<path d="M18.7426 14.8105C18.7426 14.8542 18.7072 14.8896 18.6635 14.8896C18.6199 14.8896 18.5845 14.8542 18.5845 14.8105C18.5845 14.7669 18.6199 14.7314 18.6635 14.7314C18.7072 14.7314 18.7426 14.7669 18.7426 14.8105Z" fill="#FFC72C" stroke="black" stroke-width="0.9437"/>
<path d="M18.3396 15.4606L18.9567 15.4623C18.9567 15.4623 18.9664 15.3822 18.8923 15.3336C19.2155 15.2891 19.1315 15.004 19.4022 14.9878C19.4548 14.9959 19.2608 15.109 19.2608 15.109C19.2608 15.109 19.0976 15.2242 19.172 15.2828C19.231 15.3293 19.2568 15.2545 19.2649 15.1979C19.273 15.1414 19.5275 15.105 19.4912 14.9434C19.4306 14.8101 19.075 15.0323 19.075 15.0323L18.8213 15.0309C18.8055 15.0024 18.7356 14.8882 18.6634 14.8877C18.5777 14.8908 18.5174 15.0323 18.5174 15.0323H18.1497H17.9436C17.9436 15.0323 17.924 15.1795 18.2149 15.2078C18.2804 15.2933 18.3312 15.3172 18.3881 15.3393C18.3501 15.371 18.3395 15.4093 18.3396 15.4606Z" fill="#FFC72C" stroke="black" stroke-width="0.9437"/>
<path d="M18.3838 15.3357L18.8978 15.334" stroke="black" stroke-width="0.9437"/>
<path d="M18.1484 15.0322C18.1484 15.0322 18.1895 15.2726 18.3793 15.3296L18.1484 15.0322Z" fill="#FFC72C"/>
<path d="M18.1484 15.0322C18.1484 15.0322 18.1895 15.2726 18.3793 15.3296" stroke="black" stroke-width="0.9437"/>
<path d="M18.1166 15.0287C18.1356 14.937 18.1704 14.9211 18.2084 14.8041C18.2147 14.6902 18.1166 14.7029 18.1451 14.6301C18.1957 14.5511 18.1704 14.4751 18.0755 14.415C18.0945 14.5194 17.9521 14.6175 17.9521 14.7029C17.9521 14.7883 18.0249 14.7693 18.0154 14.899C18.0217 14.9749 17.9964 14.9559 17.9901 15.0287H18.1166Z" fill="#EB5757" stroke="black" stroke-width="0.9437"/>
<path d="M18.7363 14.4595C18.7363 14.4996 18.7037 14.5322 18.6636 14.5322C18.6234 14.5322 18.5908 14.4996 18.5908 14.4595C18.5908 14.4193 18.6234 14.3867 18.6636 14.3867C18.7037 14.3867 18.7363 14.4193 18.7363 14.4595Z" fill="#FFC72C" stroke="black" stroke-width="0.9437"/>
<path d="M18.252 16.1803L18.65 15.5957L19.05 16.1815" stroke="#FFC72C" stroke-width="1.8873"/>
<path d="M18.7299 15.9619C18.7299 16.0055 18.6945 16.041 18.6508 16.041C18.6072 16.041 18.5717 16.0055 18.5718 15.9619C18.5717 15.9182 18.6072 15.8828 18.6508 15.8828C18.6945 15.8828 18.7299 15.9182 18.7299 15.9619Z" fill="#FFC72C" stroke="black" stroke-width="0.9437"/>
<path d="M18.3269 16.612L18.9441 16.6137C18.9441 16.6137 18.9537 16.5336 18.8796 16.4849C19.2028 16.4405 19.1189 16.1554 19.3896 16.1392C19.4421 16.1473 19.2481 16.2605 19.2481 16.2605C19.2481 16.2605 19.0849 16.3756 19.1593 16.4342C19.2183 16.4807 19.2441 16.4059 19.2522 16.3493C19.2603 16.2927 19.5148 16.2564 19.4785 16.0948C19.4179 15.9614 19.0623 16.1837 19.0623 16.1837L18.8086 16.1823C18.7928 16.1538 18.7229 16.0396 18.6507 16.0391C18.565 16.0422 18.5047 16.1837 18.5047 16.1837H18.137H17.9309C17.9309 16.1837 17.9113 16.3309 18.2022 16.3592C18.2677 16.4447 18.3185 16.4686 18.3754 16.4907C18.3374 16.5224 18.3268 16.5606 18.3269 16.612Z" fill="#FFC72C" stroke="black" stroke-width="0.9437"/>
<path d="M18.3711 16.4871L18.8851 16.4854" stroke="black" stroke-width="0.9437"/>
<path d="M18.1357 16.1836C18.1357 16.1836 18.1769 16.424 18.3666 16.481L18.1357 16.1836Z" fill="#FFC72C"/>
<path d="M18.1357 16.1836C18.1357 16.1836 18.1769 16.424 18.3666 16.481" stroke="black" stroke-width="0.9437"/>
<path d="M18.1044 16.1801C18.1234 16.0884 18.1582 16.0726 18.1962 15.9555C18.2025 15.8416 18.1044 15.8543 18.1329 15.7815C18.1835 15.7024 18.1582 15.6265 18.0633 15.5664C18.0823 15.6708 17.9399 15.7689 17.9399 15.8543C17.9399 15.9397 18.0127 15.9207 18.0032 16.0504C18.0095 16.1263 17.9842 16.1073 17.9779 16.1801H18.1044Z" fill="#EB5757" stroke="black" stroke-width="0.9437"/>
<path d="M18.7236 15.6108C18.7236 15.651 18.691 15.6836 18.6509 15.6836C18.6107 15.6836 18.5781 15.651 18.5781 15.6108C18.5781 15.5707 18.6107 15.5381 18.6509 15.5381C18.691 15.5381 18.7236 15.5707 18.7236 15.6108Z" fill="#FFC72C" stroke="black" stroke-width="0.9437"/>
<path d="M18.2583 17.3376L18.6564 16.7529L19.0564 17.3388" stroke="#FFC72C" stroke-width="1.8873"/>
<path d="M18.7362 17.1191C18.7362 17.1628 18.7008 17.1982 18.6572 17.1982C18.6135 17.1982 18.5781 17.1628 18.5781 17.1191C18.5781 17.0754 18.6135 17.04 18.6572 17.04C18.7008 17.04 18.7362 17.0754 18.7362 17.1191Z" fill="#FFC72C" stroke="black" stroke-width="0.9437"/>
<path d="M18.3333 17.7701L18.9504 17.7719C18.9504 17.7719 18.9601 17.6918 18.8859 17.6431C19.2092 17.5987 19.1252 17.3136 19.3959 17.2974C19.4484 17.3055 19.2545 17.4186 19.2545 17.4186C19.2545 17.4186 19.0913 17.5338 19.1656 17.5923C19.2246 17.6388 19.2504 17.5641 19.2586 17.5075C19.2666 17.4509 19.5212 17.4146 19.4848 17.253C19.4242 17.1196 19.0686 17.3418 19.0686 17.3418L18.815 17.3404C18.7991 17.312 18.7292 17.1978 18.6571 17.1973C18.5714 17.2004 18.511 17.3418 18.511 17.3418H18.1434H17.9373C17.9373 17.3418 17.9176 17.4891 18.2086 17.5173C18.274 17.6029 18.3248 17.6268 18.3818 17.6489C18.3438 17.6805 18.3331 17.7188 18.3333 17.7701Z" fill="#FFC72C" stroke="black" stroke-width="0.9437"/>
<path d="M18.3774 17.6444L18.8915 17.6426" stroke="black" stroke-width="0.9437"/>
<path d="M18.1421 17.3418C18.1421 17.3418 18.1832 17.5822 18.373 17.6391L18.1421 17.3418Z" fill="#FFC72C"/>
<path d="M18.1421 17.3418C18.1421 17.3418 18.1832 17.5822 18.373 17.6391" stroke="black" stroke-width="0.9437"/>
<path d="M18.1108 17.3383C18.1298 17.2466 18.1645 17.2308 18.2025 17.1137C18.2088 16.9999 18.1108 17.0125 18.1393 16.9397C18.1899 16.8606 18.1645 16.7848 18.0697 16.7246C18.0886 16.829 17.9463 16.9271 17.9463 17.0125C17.9463 17.0979 18.019 17.0789 18.0096 17.2086C18.0159 17.2845 17.9906 17.2655 17.9843 17.3383H18.1108Z" fill="#EB5757" stroke="black" stroke-width="0.9437"/>
<path d="M18.7299 16.7681C18.73 16.8082 18.6974 16.8408 18.6572 16.8408C18.6171 16.8408 18.5845 16.8082 18.5845 16.7681C18.5845 16.7279 18.6171 16.6953 18.6572 16.6953C18.6974 16.6953 18.73 16.7279 18.7299 16.7681Z" fill="#FFC72C" stroke="black" stroke-width="0.9437"/>
<path d="M17.0188 17.8827C17.0188 17.8827 17.1799 18.254 17.3633 18.0259C17.5468 17.7977 17.4796 17.6993 17.4796 17.6993L17.0681 17.4756L16.9473 17.7306L17.0188 17.8827Z" fill="#FFC72C" stroke="black" stroke-width="0.9437"/>
<path d="M17.3723 17.833C17.3723 17.833 17.3991 17.8375 17.4215 17.7972C17.4439 17.757 17.3723 17.7391 17.341 17.6943L17.3052 17.7659L17.3723 17.833Z" fill="#FFC6B5" stroke="black" stroke-width="0.9437"/>
<path d="M16.442 17.7349L16.0796 17.9318C16.0796 17.9318 15.9007 17.9675 15.8872 17.9318C15.8738 17.896 15.8917 17.8646 15.9857 17.8602C16.0796 17.8557 16.3346 17.623 16.3346 17.623L16.442 17.7349Z" fill="#FFC6B5" stroke="black" stroke-width="0.9437"/>
<path d="M16.4465 11.2979C16.4465 11.2979 16.4554 11.3829 16.4599 11.4276C16.4644 11.4724 16.3883 11.5664 16.3839 11.5619C16.3794 11.5574 16.3436 11.5664 16.348 11.5932C16.3525 11.62 16.4062 11.629 16.4062 11.629C16.4062 11.629 16.3839 11.7229 16.4062 11.7274C16.4286 11.7319 16.348 11.8482 16.4062 11.8795C16.4644 11.9108 16.5628 11.9511 16.6075 11.9421C16.6523 11.9332 16.6075 12.1166 16.6075 12.1166L16.4822 12.385L17.1712 12.3134L17.0281 12.0853C17.0281 12.0853 16.9609 12.0405 16.9788 11.9108C16.9967 11.7811 16.9699 11.1951 16.9699 11.1951L16.4778 11.1279L16.4465 11.2979Z" fill="#FFC6B5" stroke="black" stroke-width="0.9437"/>
<path d="M16.321 12.3174C16.321 12.3174 16.0973 12.4203 16.1062 12.6976C16.0481 12.966 16.0167 13.2344 16.0167 13.2344C16.0167 13.2344 15.7528 13.5342 15.6723 13.6416C15.5918 13.7489 15.471 13.9681 15.4262 14.0263C15.3815 14.0844 15.2071 14.2768 15.2115 14.3484C15.216 14.42 15.1712 14.7376 15.3457 14.7734C15.3904 14.7913 15.5336 14.4065 15.5336 14.4065C15.5336 14.4065 15.5425 14.241 15.4933 14.2097C15.4442 14.1784 15.6007 14.071 15.6007 14.071C15.6007 14.071 15.9004 13.8518 15.9676 13.7981C16.0346 13.7444 16.2181 13.5387 16.2181 13.5387L16.321 12.3174Z" fill="#FFC6B5" stroke="black" stroke-width="0.9437"/>
<path d="M16.5759 12.1072C16.5759 12.1072 16.634 12.2638 16.7637 12.237C16.8935 12.2101 17.0456 12.0894 17.0456 12.0894C17.0456 12.0894 17.1664 12.0849 17.1843 12.1028C17.2022 12.1207 17.5108 12.4204 17.5019 12.5143C17.493 12.6083 17.3587 12.5814 17.3096 12.644C17.2603 12.7067 17.1798 12.8633 17.2022 12.9796C17.2245 13.0959 17.2916 13.248 17.2827 13.3062C17.2737 13.3643 17.2245 13.3822 17.2245 13.4135C17.2245 13.4449 17.2648 13.4985 17.2648 13.5567C17.2648 13.6148 17.2111 13.6998 17.2201 13.758C17.229 13.8162 17.2335 13.9861 17.2335 13.9861L17.2201 14.7735C17.2201 14.7735 17.2648 14.8003 17.2693 14.8451C17.2737 14.8898 17.5735 16.1916 17.5735 16.1916C17.5735 16.1916 17.5601 16.2319 17.5287 16.2274C17.4974 16.2229 17.6495 16.4287 17.654 16.4869C17.6585 16.545 17.8106 17.0013 17.8061 17.0639C17.8016 17.1266 17.7792 17.2652 17.7658 17.2697C17.7524 17.2742 17.8643 17.556 17.8464 17.6007C17.8285 17.6455 17.645 17.641 17.645 17.641L17.5959 17.6321C17.5959 17.6321 17.6003 17.6902 17.5646 17.6947C17.5287 17.6992 17.2648 17.6813 17.2648 17.6813C17.2648 17.6813 17.1888 17.7976 17.144 17.7931C17.0993 17.7886 17.0411 17.7081 17.0277 17.7215C17.0143 17.7349 17.068 17.811 17.0546 17.8334C17.0411 17.8557 16.813 17.905 16.7682 17.7976C16.7235 17.6902 16.7951 17.717 16.7816 17.6947C16.7682 17.6723 16.6653 17.6142 16.634 17.6321C16.6027 17.65 16.7146 17.6768 16.7101 17.7215C16.7056 17.7663 16.6117 17.8334 16.5759 17.8334C16.5401 17.8334 16.4551 17.6679 16.3298 17.6857C16.2046 17.7036 16.124 17.7349 16.124 17.7349C16.124 17.7349 15.9764 17.7976 15.9138 17.7842C15.8512 17.7708 15.8243 17.7215 15.8243 17.6947C15.8243 17.6679 15.869 17.5515 15.8646 17.5158C15.8601 17.48 15.8243 17.4442 15.8243 17.3905C15.8243 17.3368 15.9272 17.1534 15.9272 17.1534L15.9228 16.3302C15.9228 16.3302 15.8288 16.3302 15.8243 16.2721C15.8199 16.2139 15.9675 14.9703 15.9898 14.8898C16.0122 14.8092 16.0704 14.5229 16.0704 14.5229C16.0704 14.5229 16.0032 14.5542 15.9988 14.5229C15.9943 14.4916 16.2001 13.7803 16.2001 13.7803C16.2001 13.7803 16.2359 13.4269 16.2359 13.333C16.2359 13.239 16.218 13.1093 16.218 13.1093C16.218 13.1093 16.0343 13.0316 16.0301 12.9125C16.0133 12.723 16.2046 12.6172 16.2269 12.5546C16.2493 12.492 16.3164 12.3041 16.3164 12.3041C16.3164 12.3041 16.4148 12.1341 16.5759 12.1072Z" fill="white" stroke="black" stroke-width="0.9437"/>
<path d="M16.5092 17.7884C16.5092 17.7884 16.0752 18.0165 16.0126 18.0344C15.95 18.0523 15.9097 17.9584 15.9723 17.9405C16.0349 17.9226 16.1334 17.9136 16.1334 17.9136C16.1334 17.9136 15.9858 17.7973 15.9902 17.7929C15.9947 17.7884 16.1916 17.7168 16.196 17.7168C16.2005 17.7168 16.2586 17.8331 16.2989 17.8242C16.3392 17.8152 16.4555 17.7258 16.4555 17.7258C16.4555 17.7258 16.5181 17.7973 16.5092 17.7884Z" fill="#FFC72C" stroke="black" stroke-width="0.9437"/>
<path d="M17.1201 17.9139C17.1611 17.9668 17.1772 18.0586 17.2711 18.0049C17.3651 17.9512 17.223 17.8516 17.223 17.8516L17.1201 17.9139Z" fill="#FFC6B5" stroke="black" stroke-width="0.9437"/>
<path d="M17.292 17.9051C17.292 17.9051 17.3367 17.9409 17.3769 17.9006C17.4172 17.8604 17.2964 17.7754 17.2964 17.7754L17.2383 17.8425L17.292 17.9051Z" fill="#FFC6B5" stroke="black" stroke-width="0.9437"/>
<path d="M17.4841 12.5352C17.4886 12.5352 17.6318 12.978 17.6497 13.0899C17.6676 13.2017 17.7257 13.649 17.7033 13.7117C17.681 13.7743 17.4528 14.074 17.426 14.1501C17.3991 14.2261 17.2381 14.5169 17.2381 14.5169C17.2381 14.5169 17.1978 14.8033 17.1799 14.8167C17.162 14.8301 17.2261 14.9003 17.2202 14.924C17.2113 14.9506 17.0904 15.0761 17.0368 15.0627C16.9831 15.0492 16.8981 14.9866 16.8936 14.9285C16.8892 14.8703 16.8981 14.678 16.9384 14.6288C16.9786 14.5796 17.1889 14.083 17.2023 14.0517C17.2157 14.0203 17.3947 13.6311 17.3991 13.5641C17.4036 13.4969 17.3435 13.3418 17.2802 13.2848C17.1394 12.8705 17.1947 12.6206 17.4841 12.5352Z" fill="#FFC6B5" stroke="black" stroke-width="0.9437"/>
<path d="M16.433 11.2711C16.433 11.2711 16.5314 11.2846 16.5851 11.2533C16.6388 11.2219 16.7014 11.2085 16.7461 11.2711C16.7909 11.3337 16.8222 11.3293 16.8222 11.3293C16.8222 11.3293 16.7551 11.4948 16.8222 11.5127C16.8893 11.5306 16.9206 11.5306 16.9251 11.553C16.9295 11.5753 16.8669 11.6246 16.8848 11.6469C16.9027 11.6693 16.934 11.6961 16.9385 11.714C16.943 11.7319 16.8982 11.808 16.9117 11.8258C16.9251 11.8437 16.9653 11.9153 16.9921 11.9153C17.019 11.9153 17.0011 12.0272 17.0816 12.0003C17.1622 11.9735 17.1577 11.9019 17.1577 11.9019C17.1577 11.9019 17.2427 11.8885 17.2651 11.8124C17.2874 11.7364 17.3411 11.7185 17.3411 11.7185C17.3411 11.7185 17.4485 11.6603 17.3053 11.5709C17.3053 10.9446 16.8938 11.0117 16.8938 11.0117C16.8938 11.0117 16.8445 10.8998 16.764 10.9132C16.6835 10.9267 16.679 11.0206 16.6208 11.0117C16.5627 11.0027 16.5493 10.9624 16.5448 10.9669C16.5403 10.9714 16.4911 11.0609 16.4911 11.0832C16.4911 11.1056 16.3345 11.0519 16.348 11.1682C16.3614 11.2846 16.4374 11.2801 16.433 11.2711Z" fill="#9C5100" stroke="black" stroke-width="0.9437"/>
<path d="M17.1574 12.2822C17.1574 12.2822 16.7593 12.5372 16.7682 12.6267" stroke="black" stroke-width="0.9437"/>
<path d="M17.2473 12.3262C17.2473 12.3262 17.1578 12.4246 17.1533 12.4246" stroke="black" stroke-width="0.9437"/>
<path d="M17.3676 12.4336C17.3676 12.4336 17.1708 12.5947 17.2021 12.6975" stroke="black" stroke-width="0.9437"/>
<path d="M16.4374 12.2598C16.4374 12.2598 16.3792 12.3805 16.3926 12.4208C16.4061 12.461 16.5045 12.6132 16.5179 12.7071C16.5313 12.801 16.5179 12.8682 16.5179 12.8682" stroke="black" stroke-width="0.9437"/>
<path d="M16.3345 12.4834C16.3345 12.4834 16.3524 12.6266 16.3792 12.6534C16.4061 12.6802 16.4776 12.801 16.4866 12.8502" stroke="black" stroke-width="0.9437"/>
<path d="M16.2988 13.0776C16.2988 13.0776 16.4151 13.1358 16.5225 12.9121" stroke="black" stroke-width="0.9437"/>
<path d="M16.697 12.7559C16.6925 12.7559 16.612 12.9751 16.7552 13.0556C16.8983 13.1361 17.0057 13.1272 17.0683 13.1048C17.1309 13.0824 17.198 13.0422 17.198 13.0422" stroke="black" stroke-width="0.9437"/>
<path d="M16.6343 13.0244C16.6343 13.0244 16.6432 13.3197 17.0772 13.6104" stroke="black" stroke-width="0.9437"/>
<path d="M16.6519 13.3018C16.6519 13.3018 16.6474 13.5612 16.8174 13.6776" stroke="black" stroke-width="0.9437"/>
<path d="M16.5627 12.998C16.5627 12.998 16.4329 13.3828 16.3301 13.423" stroke="black" stroke-width="0.9437"/>
<path d="M16.5222 13.2793C16.5222 13.2793 16.5177 13.5567 16.4819 13.6551" stroke="black" stroke-width="0.9437"/>
<path d="M16.4463 13.7221C16.4463 13.7221 16.5358 13.834 16.6342 13.825C16.7326 13.8161 16.7729 13.6998 16.8399 13.7177C16.9071 13.7356 16.9697 13.7893 17.1263 13.7758" stroke="black" stroke-width="0.9437"/>
<path d="M16.9028 13.8926C16.9028 13.8926 16.9028 14.1207 16.9431 14.1431C16.9834 14.1654 16.9655 14.3757 16.9655 14.3757" stroke="black" stroke-width="0.9437"/>
<path d="M16.3568 13.7852C16.3568 13.7852 16.3524 13.9999 16.3255 14.0759C16.2987 14.152 16.245 14.2817 16.2539 14.3935" stroke="black" stroke-width="0.9437"/>
<path d="M16.084 14.5184C16.1063 14.5095 16.1824 14.4424 16.1824 14.4424" stroke="black" stroke-width="0.9437"/>
<path d="M16.2228 14.4922C16.2228 14.4922 16.0305 15.3153 16.0842 15.8074" stroke="black" stroke-width="0.9437"/>
<path d="M16.2675 14.5322C16.2675 14.5322 16.1691 15.1496 16.2138 15.2659" stroke="black" stroke-width="0.9437"/>
<path d="M16.2183 14.5137C16.2228 14.5137 16.5941 14.5405 16.5941 14.5405" stroke="black" stroke-width="0.9437"/>
<path d="M16.6475 14.4922C16.6475 14.4922 16.7504 14.5459 16.8935 14.5369" stroke="black" stroke-width="0.9437"/>
<path d="M16.6028 14.792C16.6028 14.792 16.5849 15.8478 16.5581 16.0804" stroke="black" stroke-width="0.9437"/>
<path d="M17.1533 15.0332C17.1533 15.0332 17.2696 15.9592 17.3367 16.0442" stroke="black" stroke-width="0.9437"/>
<path d="M16.9292 15.1494C16.9292 15.1494 17.0008 15.9681 17.041 16.0397" stroke="black" stroke-width="0.9437"/>
<path d="M15.9141 16.3256C15.9141 16.3256 16.0527 16.2809 16.178 16.1467C16.3212 16.339 16.5404 16.1557 16.5404 16.1557C16.5404 16.1557 16.8803 16.3883 17.0325 16.1288C17.2651 16.2809 17.3814 16.1064 17.3814 16.1064C17.3814 16.1064 17.4664 16.2361 17.529 16.2227" stroke="black" stroke-width="0.9437"/>
<path d="M17.1577 16.3125C17.1577 16.3125 17.3322 17.1312 17.5916 17.3638" stroke="black" stroke-width="0.9437"/>
<path d="M16.2583 16.2275C16.2583 16.2275 16.2807 16.912 16.3209 17.3951" stroke="black" stroke-width="0.9437"/>
<path d="M16.227 17.001C16.227 17.001 16.2046 17.4483 16.1777 17.4796" stroke="black" stroke-width="0.9437"/>
<path d="M15.9629 17.5249C15.9629 17.5249 16.0121 17.7173 16.2582 17.5384C16.5042 17.3594 16.5087 17.6054 16.5176 17.6323C16.5266 17.6591 16.5668 17.8515 16.6608 17.6904" stroke="black" stroke-width="0.9437"/>
<path d="M16.8578 17.4261C16.8578 17.4261 16.8176 17.8243 17.171 17.5335C17.5244 17.2427 17.5826 17.529 17.5915 17.6185" stroke="black" stroke-width="0.9437"/>
<path d="M16.8625 11.1191C16.8625 11.1191 16.8311 11.316 17.0414 11.2981C17.0146 11.4055 17.0951 11.4412 17.0951 11.4412" stroke="black" stroke-width="0.9437"/>
<path d="M17.2515 11.5615C17.256 11.5615 17.3455 11.6197 17.2471 11.6913" stroke="black" stroke-width="0.9437"/>
<path d="M16.9473 11.7178C16.9473 11.7178 16.992 11.7714 17.0412 11.758C17.0904 11.7446 17.171 11.8073 17.171 11.8073C17.171 11.8073 17.238 11.8296 17.247 11.8162" stroke="black" stroke-width="0.9437"/>
<path d="M16.6743 11.8885C16.6743 11.8885 16.8264 11.9466 16.9249 11.7051" stroke="black" stroke-width="0.9437"/>
<path d="M16.3926 11.6328L16.4821 11.6373" stroke="black" stroke-width="0.9437"/>
<path d="M15.3999 14.4541L15.4069 14.6501" stroke="black" stroke-width="0.9437"/>
<path d="M15.2163 14.4404C15.2163 14.4404 15.342 14.6507 15.3315 14.7627" stroke="black" stroke-width="0.9437"/>
<path d="M16.4062 11.7227H16.4867L16.4152 11.754" stroke="black" stroke-width="0.9437" stroke-linejoin="round"/>
<path d="M16.9009 14.8797C16.9009 14.8797 16.9949 14.8698 16.9919 15.0267C17.0519 14.8318 17.174 14.8271 17.174 14.8271" stroke="black" stroke-width="0.9437" stroke-linejoin="round"/>
<path d="M16.5181 11.4724C16.5315 11.4724 16.5807 11.4545 16.5896 11.4679C16.5986 11.4813 16.536 11.4902 16.5181 11.4724Z" stroke="black" stroke-width="1.6986" stroke-linejoin="round"/>
<path d="M16.5801 19.3591C18.4695 19.3067 19.6896 17.9421 19.6766 17.929C19.6634 17.9159 19.9258 17.5485 20.1358 17.601C20.3457 17.6535 20.6474 18.2702 21.0148 18.4014C21.1985 18.69 20.9623 18.9524 20.8836 19.0049C20.8049 19.0574 20.4507 19.2017 20.3982 18.9918C20.3457 18.7819 20.2407 18.8212 20.2407 18.8212C20.2407 18.8212 18.5613 20.4612 16.6195 20.3956C14.6121 20.4087 12.959 18.8212 12.959 18.8212L12.8147 18.9786C12.8147 18.9786 12.6572 19.1492 12.5785 19.1361C12.4998 19.123 12.1587 18.8999 12.1324 18.6769C12.1062 18.4538 12.3423 18.3095 12.3423 18.3095C12.3423 18.3095 12.9196 17.8634 12.9852 17.6273C13.1164 17.4961 13.3657 17.7191 13.3657 17.7191C13.3657 17.7191 14.8876 19.4641 16.5801 19.3591Z" fill="#FFC72C" stroke="black" stroke-width="1.8873"/>
<path d="M12.3027 18.3442C12.3027 18.3442 12.4589 18.3025 12.5161 18.3676C12.5733 18.4326 12.9662 18.8177 12.9662 18.8177" stroke="black" stroke-width="1.8873"/>
<path d="M12.659 18.5264L12.5029 18.6435C12.5029 18.6435 12.8958 18.7215 12.8073 18.9791" stroke="black" stroke-width="1.8873"/>
<path d="M20.874 18.3308C20.874 18.3308 20.7959 18.2891 20.6737 18.3802C20.5514 18.4713 20.2417 18.8174 20.2417 18.8174" stroke="black" stroke-width="1.8873"/>
<path d="M20.5227 18.5156L20.6918 18.6458C20.6918 18.6458 20.338 18.6691 20.416 19.0048" stroke="black" stroke-width="1.8873"/>
<path d="M14.3027 18.7603C14.2924 18.79 14.2654 18.7595 14.2429 18.7655C14.1837 18.7677 14.1346 18.8063 14.084 18.8326C13.9107 18.9336 13.7374 19.0347 13.5641 19.1357C13.5466 19.1299 13.5507 19.1158 13.555 19.1016C13.6012 18.8852 13.6492 18.6691 13.6941 18.4525C13.7016 18.4146 13.7136 18.3674 13.677 18.3399C13.6614 18.3292 13.6855 18.3077 13.6955 18.3273C13.7841 18.3905 13.8726 18.4536 13.9612 18.5168C13.9527 18.5418 13.9376 18.5242 13.9225 18.5141C13.8857 18.4787 13.8413 18.5114 13.8424 18.5562C13.8108 18.6988 13.78 18.8417 13.7487 18.9844C13.8663 18.9145 13.9853 18.8468 14.1019 18.7751C14.1435 18.7566 14.1742 18.7008 14.1309 18.6662C14.1145 18.6566 14.0873 18.6301 14.1144 18.6261C14.1772 18.6708 14.2399 18.7156 14.3027 18.7603Z" fill="black"/>
<path d="M14.4892 19.664C14.4845 19.6802 14.476 19.6837 14.4631 19.6721C14.3589 19.6151 14.2546 19.5581 14.1504 19.5011C14.1551 19.4849 14.1636 19.4814 14.1765 19.493C14.2047 19.5122 14.2508 19.5195 14.2714 19.4858C14.3128 19.4194 14.3477 19.3491 14.386 19.2809C14.4382 19.1844 14.4925 19.0889 14.5431 18.9915C14.5673 18.957 14.5403 18.9145 14.5064 18.8997C14.495 18.8936 14.4781 18.8891 14.4926 18.8753C14.4996 18.8667 14.5144 18.8851 14.5245 18.8873C14.6244 18.9419 14.7244 18.9966 14.8243 19.0512C14.8196 19.0674 14.8111 19.0709 14.7983 19.0593C14.77 19.0401 14.7237 19.0328 14.7028 19.0662C14.6614 19.1326 14.6265 19.2029 14.5882 19.2711C14.536 19.3677 14.4818 19.4631 14.4312 19.5605C14.407 19.5953 14.4339 19.6381 14.4683 19.6526C14.4752 19.6564 14.4822 19.6602 14.4892 19.664Z" fill="black"/>
<path d="M15.6929 19.382C15.6646 19.4615 15.6363 19.5409 15.608 19.6204C15.5732 19.6167 15.5963 19.5722 15.5855 19.5487C15.5731 19.4414 15.4939 19.3412 15.3861 19.3182C15.3036 19.2958 15.2166 19.3382 15.1682 19.4053C15.095 19.5052 15.0506 19.627 15.0443 19.7508C15.0401 19.8211 15.0724 19.8933 15.1338 19.9304C15.1825 19.9624 15.2416 19.9753 15.2995 19.9737C15.3198 19.9136 15.3442 19.8547 15.3612 19.7935C15.3682 19.7537 15.327 19.7297 15.2941 19.7205C15.289 19.709 15.3017 19.6948 15.3152 19.7072C15.419 19.7443 15.523 19.7812 15.6269 19.8183C15.6231 19.8566 15.5798 19.8152 15.5558 19.8305C15.5174 19.8452 15.5141 19.8914 15.4995 19.9248C15.4869 19.9604 15.4742 19.9959 15.4615 20.0315C15.3219 20.0414 15.1779 20.0118 15.0564 19.9415C14.9381 19.867 14.8582 19.7232 14.8815 19.5822C14.8995 19.4615 14.9747 19.3484 15.086 19.2951C15.1882 19.2408 15.313 19.241 15.4191 19.284C15.4772 19.3036 15.5273 19.3395 15.5722 19.3803C15.5994 19.4171 15.6521 19.4171 15.6745 19.3754C15.6806 19.3776 15.6867 19.3798 15.6929 19.382Z" fill="black"/>
<path d="M16.1998 20.195C16.1992 20.2077 16.1978 20.2193 16.1826 20.2123C16.0636 20.1942 15.9447 20.1762 15.8257 20.1582C15.8263 20.1455 15.8277 20.1339 15.8429 20.141C15.8738 20.1473 15.9153 20.1468 15.9303 20.1133C15.9454 20.0657 15.9484 20.0152 15.9571 19.9661C15.9775 19.829 15.9993 19.692 16.0188 19.5547C16.0264 19.5251 16.0163 19.4916 15.9856 19.4802C15.9683 19.4719 15.949 19.4707 15.9303 19.4676C15.9309 19.4549 15.9323 19.4433 15.9475 19.4504C16.0665 19.4684 16.1854 19.4864 16.3044 19.5044C16.3038 19.5171 16.3024 19.5287 16.2872 19.5216C16.2561 19.5153 16.2148 19.5161 16.1993 19.5492C16.1842 19.5968 16.1812 19.6473 16.1725 19.6964C16.1521 19.8336 16.1303 19.9706 16.1108 20.1078C16.1033 20.1373 16.1134 20.1715 16.1442 20.1826C16.1617 20.1906 16.1811 20.1919 16.1998 20.195Z" fill="black"/>
<path d="M17.1633 19.9608C17.1586 20.0452 17.1539 20.1295 17.1492 20.2139C16.9369 20.2248 16.7247 20.2356 16.5124 20.2464C16.5085 20.2309 16.5127 20.2226 16.5296 20.2259C16.5615 20.2267 16.6028 20.2132 16.6069 20.1764C16.6097 20.1135 16.6026 20.0506 16.6005 19.9877C16.5936 19.8623 16.5887 19.7367 16.5805 19.6114C16.584 19.5741 16.5504 19.5464 16.5149 19.5476C16.5037 19.5419 16.4733 19.5593 16.4763 19.5388C16.4712 19.5222 16.4943 19.531 16.504 19.5279C16.6221 19.5218 16.7401 19.5158 16.8582 19.5098C16.8621 19.5253 16.8579 19.5335 16.8411 19.5302C16.8084 19.5301 16.7658 19.5381 16.7568 19.575C16.7516 19.6294 16.7592 19.6841 16.7607 19.7387C16.7678 19.8693 16.7729 20.0001 16.7815 20.1306C16.7789 20.1647 16.8063 20.195 16.8417 20.1884C16.8934 20.1858 16.9462 20.188 16.9966 20.175C17.0675 20.1562 17.1061 20.086 17.1254 20.0206C17.1381 20.0028 17.1276 19.9586 17.1557 19.9612C17.1582 19.961 17.1607 19.9609 17.1633 19.9608Z" fill="black"/>
<path d="M17.6594 19.3486C17.6426 19.3489 17.65 19.3705 17.6457 19.3818C17.6175 19.5929 17.5908 19.8043 17.5617 20.0153C17.5546 20.062 17.5429 20.1166 17.4968 20.1403C17.4798 20.1463 17.4948 20.1731 17.5103 20.1582C17.5813 20.1369 17.6521 20.1156 17.723 20.0944C17.7203 20.0586 17.6795 20.0911 17.6566 20.0848C17.6078 20.0848 17.6006 20.0255 17.6074 19.9885C17.6103 19.9635 17.6133 19.9385 17.6162 19.9135C17.6974 19.8891 17.7786 19.8646 17.8598 19.8402C17.8909 19.8794 17.9251 19.9162 17.9533 19.9575C17.9744 19.9973 17.9231 20.0155 17.8933 20.0232C17.8793 20.0247 17.8915 20.0539 17.9042 20.0403C18.0109 20.0083 18.1176 19.9763 18.2243 19.9444C18.2233 19.9081 18.1769 19.9421 18.1574 19.9179C18.0975 19.8729 18.0545 19.8103 18.0049 19.7548C17.8897 19.6194 17.7746 19.484 17.6594 19.3486ZM17.6577 19.6019C17.7154 19.6708 17.773 19.7396 17.8307 19.8084C17.7615 19.8291 17.6924 19.8496 17.6233 19.8702C17.6347 19.7808 17.6462 19.6914 17.6577 19.6019Z" fill="black"/>
<path d="M18.7487 18.873C18.7794 18.9301 18.8101 18.9871 18.8408 19.0442C18.8121 19.0688 18.7973 19.0118 18.7713 19.003C18.7287 18.9672 18.6646 18.9604 18.6172 18.9908C18.5978 19.0009 18.5786 19.0115 18.5594 19.0217C18.6519 19.1931 18.7432 19.3652 18.8365 19.5361C18.851 19.5799 18.9048 19.5881 18.9396 19.5634C18.953 19.5537 18.9652 19.5482 18.9695 19.5688C18.9225 19.596 18.8712 19.6219 18.8225 19.6486C18.7613 19.6815 18.6999 19.7145 18.6387 19.7475C18.6242 19.7325 18.6339 19.7248 18.6502 19.719C18.6937 19.7029 18.7104 19.65 18.6813 19.6128C18.5908 19.4426 18.4989 19.2731 18.4078 19.1033C18.3571 19.1313 18.2923 19.1567 18.2795 19.2199C18.265 19.2597 18.2862 19.3085 18.2863 19.3423C18.2706 19.3585 18.2665 19.3364 18.2593 19.3247C18.2331 19.276 18.2069 19.2272 18.1807 19.1784C18.37 19.0766 18.5594 18.9748 18.7487 18.873Z" fill="black"/>
<path d="M19.1795 18.6178C19.2382 18.6955 19.2969 18.7733 19.3556 18.8511C19.3964 18.8252 19.4305 18.7788 19.4182 18.7281C19.4229 18.6886 19.3663 18.6438 19.3858 18.6161C19.3986 18.6081 19.4061 18.6377 19.4167 18.6455C19.4837 18.7343 19.5507 18.8232 19.6177 18.912C19.5915 18.9419 19.5725 18.881 19.5448 18.8744C19.5056 18.8466 19.4507 18.8327 19.4087 18.8632C19.3773 18.8732 19.3788 18.8909 19.4001 18.9102C19.4473 18.9711 19.4911 19.0347 19.5414 19.093C19.5722 19.1229 19.6106 19.0917 19.6366 19.0709C19.7041 19.025 19.7633 18.9532 19.7598 18.8672C19.7643 18.8297 19.7406 18.7878 19.7409 18.7561C19.756 18.736 19.7602 18.7672 19.7689 18.7775C19.8006 18.8347 19.8323 18.8919 19.864 18.9492C19.6988 19.0737 19.5337 19.1983 19.3685 19.3229C19.347 19.3077 19.3682 19.2987 19.3817 19.2882C19.428 19.2596 19.4133 19.2012 19.3792 19.1692C19.2734 19.0297 19.1694 18.8889 19.0622 18.7506C19.0347 18.7133 18.9841 18.7329 18.9564 18.7589C18.9449 18.7752 18.9269 18.7425 18.9487 18.7401C19.1044 18.6226 19.2602 18.5052 19.4159 18.3877C19.4585 18.4442 19.5012 18.5007 19.5438 18.5572C19.5142 18.5872 19.4879 18.5203 19.4541 18.5168C19.3928 18.4849 19.3198 18.5106 19.2691 18.551C19.2387 18.5726 19.2094 18.5954 19.1795 18.6178Z" fill="black"/>
</svg>
