<svg width="24" height="24" viewBox="0 0 24 24" fill="none" xmlns="http://www.w3.org/2000/svg">
<mask id="mask0_1_2559" style="mask-type:luminance" maskUnits="userSpaceOnUse" x="0" y="0" width="24" height="24">
<path d="M24 0H0V24H24V0Z" fill="white"/>
</mask>
<g mask="url(#mask0_1_2559)">
<path d="M12 24C18.6274 24 24 18.6274 24 12C24 5.37258 18.6274 0 12 0C5.37258 0 0 5.37258 0 12C0 18.6274 5.37258 24 12 24Z" fill="#F0F0F0"/>
<path d="M0.413574 15.1309C1.10789 17.7071 2.63812 19.9399 4.69584 21.521V15.1309H0.413574Z" fill="#EF2B2D"/>
<path d="M10.9565 23.9548C11.3005 23.9844 11.6484 24.0004 12 24.0004C17.5444 24.0004 22.2096 20.24 23.5866 15.1309H10.9565V23.9548Z" fill="#EF2B2D"/>
<path d="M23.5866 8.86955C22.2096 3.76036 17.5444 0 12 0C11.6484 0 11.3005 0.0160312 10.9565 0.0456562V8.86955H23.5866Z" fill="#EF2B2D"/>
<path d="M4.69584 2.47949C2.63812 4.06059 1.10789 6.29341 0.413574 8.86961H4.69584V2.47949Z" fill="#EF2B2D"/>
<path d="M23.8984 10.4347H9.39136L9.39131 0.285156C8.28234 0.531061 7.23098 0.929639 6.26086 1.459V10.4346L0.101578 10.4347C0.0347813 10.9471 0 11.4694 0 11.9999C0 12.5304 0.0347813 13.0528 0.101578 13.5651H6.26081H6.26086V22.5408C7.23098 23.0701 8.28234 23.4688 9.39131 23.7146V13.5653V13.5652H23.8984C23.9651 13.0528 24 12.5304 24 11.9999C24 11.4694 23.9651 10.9471 23.8984 10.4347Z" fill="#002868"/>
</g>
</svg>
