<svg width="24" height="24" viewBox="0 0 24 24" fill="none" xmlns="http://www.w3.org/2000/svg">
<mask id="mask0_1_1872" style="mask-type:luminance" maskUnits="userSpaceOnUse" x="0" y="0" width="24" height="24">
<path d="M24 0H0V24H24V0Z" fill="white"/>
</mask>
<g mask="url(#mask0_1_1872)">
<path d="M12 24C18.6274 24 24 18.6274 24 12C24 5.37258 18.6274 0 12 0C5.37258 0 0 5.37258 0 12C0 18.6274 5.37258 24 12 24Z" fill="#F0F0F0"/>
<path d="M12 24.0001C18.6274 24.0001 24 18.6274 24 12.0001C24 10.5322 23.736 9.12611 23.2536 7.82617H0.746391C0.264047 9.12611 0 10.5322 0 12.0001C0 18.6274 5.37262 24.0001 12 24.0001Z" fill="#0052B4"/>
<path d="M12 23.9999C17.1595 23.9999 21.558 20.7434 23.2536 16.1738H0.746338C2.44185 20.7434 6.84037 23.9999 12 23.9999Z" fill="#D80027"/>
<path d="M3.10303 6.78223V12.7684C3.10303 16.1736 7.5515 17.217 7.5515 17.217C7.5515 17.217 11.9999 16.1736 11.9999 12.7684V6.78223H3.10303Z" fill="#F0F0F0"/>
<path d="M4.14648 6.78223V12.7684C4.14648 13.1682 4.23527 13.5457 4.41114 13.8997H10.6918C10.8677 13.5458 10.9564 13.1682 10.9564 12.7684V6.78223H4.14648Z" fill="#D80027"/>
<path d="M9.63849 10.9566H8.07333V9.91309H9.11682V8.86961H8.07333V7.82617H7.02985V8.86961H5.98641V9.91309H7.02985V10.9566H5.4646V12.0001H7.02985V13.0435H8.07333V12.0001H9.63849V10.9566Z" fill="#F0F0F0"/>
<path d="M5.83465 15.3564C6.50707 15.779 7.19791 16.0244 7.55158 16.1335C7.90526 16.0244 8.5961 15.779 9.26852 15.3564C9.94662 14.9303 10.422 14.4428 10.6919 13.8998C10.3942 13.6892 10.0309 13.565 9.63855 13.565C9.49568 13.565 9.35688 13.5819 9.22343 13.613C8.94063 12.9704 8.29868 12.5215 7.55163 12.5215C6.80459 12.5215 6.16258 12.9704 5.87983 13.613C5.74638 13.5819 5.60754 13.565 5.46471 13.565C5.07232 13.565 4.70908 13.6892 4.41138 13.8998C4.68114 14.4428 5.15651 14.9302 5.83465 15.3564Z" fill="#0052B4"/>
</g>
</svg>
