<svg width="24" height="24" viewBox="0 0 24 24" fill="none" xmlns="http://www.w3.org/2000/svg">
<mask id="mask0_1_1851" style="mask-type:luminance" maskUnits="userSpaceOnUse" x="0" y="0" width="24" height="24">
<path d="M24 0H0V24H24V0Z" fill="white"/>
</mask>
<g mask="url(#mask0_1_1851)">
<path d="M23.2536 16.1735C23.736 14.8735 24 13.4674 24 11.9996C24 10.5318 23.736 9.12569 23.2536 7.82571L12 6.78223L0.746391 7.82571C0.264 9.12569 0 10.5318 0 11.9996C0 13.4674 0.264 14.8735 0.746391 16.1735L12 17.217L23.2536 16.1735Z" fill="#F0F0F0"/>
<path d="M12 23.9999C17.1595 23.9999 21.5581 20.7434 23.2536 16.1738H0.746338C2.4419 20.7434 6.84037 23.9999 12 23.9999Z" fill="#338AF3"/>
<path d="M12 0C6.84037 0 2.4419 3.2565 0.746338 7.82611H23.2536C21.5581 3.2565 17.1595 0 12 0Z" fill="#6DA544"/>
</g>
</svg>
