<svg width="24" height="24" viewBox="0 0 24 24" fill="none" xmlns="http://www.w3.org/2000/svg">
<mask id="mask0_1_1796" style="mask-type:luminance" maskUnits="userSpaceOnUse" x="0" y="0" width="24" height="24">
<path d="M24 0H0V24H24V0Z" fill="white"/>
</mask>
<g mask="url(#mask0_1_1796)">
<path d="M24 11.9998C24 18.6271 18.6274 23.9998 12 23.9998C5.37262 23.9998 0 18.6271 0 11.9998C0.521719 11.9998 12 10.4346 12 10.4346L24 11.9998Z" fill="#338AF3"/>
<path d="M0 12C0 5.37262 5.37262 0 12 0C18.6274 0 24 5.37262 24 12" fill="#F0F0F0"/>
<path d="M16.7631 8.28027L11.9998 13.0436L7.23659 8.28027C6.6206 9.19466 6.26074 10.2952 6.26074 11.4783V13.0435C6.26074 15.5568 7.88473 17.6977 10.1383 18.4726C9.83754 19.0621 9.88826 19.7978 10.329 20.3479C10.9144 19.8787 11.5204 19.393 12.0346 18.9811C12.5487 19.3931 13.1548 19.8787 13.7401 20.3479C14.186 19.7914 14.2331 19.0446 13.9204 18.4517C16.1433 17.66 17.7389 15.5347 17.7389 13.0435V11.4784C17.739 10.2952 17.3791 9.19471 16.7631 8.28027Z" fill="#6DA544"/>
<path d="M12.0001 17.2172C9.69855 17.2172 7.82617 15.3448 7.82617 13.0433V11.4781C7.82617 9.17657 9.69859 7.3042 12.0001 7.3042C14.3015 7.3042 16.174 9.17662 16.174 11.4781V13.0433C16.174 15.3448 14.3016 17.2172 12.0001 17.2172Z" fill="#FFDA44"/>
<path d="M14.6085 13.0435V11.4783C14.6085 10.0399 13.4382 8.86963 11.9998 8.86963C10.5614 8.86963 9.39111 10.0399 9.39111 11.4783V13.0435L11.9998 13.5652L14.6085 13.0435Z" fill="#338AF3"/>
<path d="M9.39111 13.0435C9.39111 14.4819 10.5614 15.6521 11.9998 15.6521C13.4382 15.6521 14.6085 14.4819 14.6085 13.0435H9.39111Z" fill="#6DA544"/>
<path d="M15.1305 7.30452C15.1305 6.44009 14.4297 5.73931 13.5653 5.73931C13.1643 5.73931 12.7988 5.89025 12.5218 6.13817V5.21755H13.0435V4.17406H12.5218V3.65234H11.4783V4.17406H10.9566V5.21755H11.4783V6.13817C11.2013 5.89025 10.8358 5.73931 10.4348 5.73931C9.57041 5.73931 8.86963 6.44009 8.86963 7.30452C8.86963 7.76797 9.07124 8.18422 9.39135 8.47086V9.39148H14.6087V8.47086C14.9289 8.18422 15.1305 7.76797 15.1305 7.30452Z" fill="#FFDA44"/>
</g>
</svg>
