<svg width="24" height="24" viewBox="0 0 24 24" fill="none" xmlns="http://www.w3.org/2000/svg">
<mask id="mask0_1_1820" style="mask-type:luminance" maskUnits="userSpaceOnUse" x="0" y="0" width="24" height="24">
<path d="M24 0H0V24H24V0Z" fill="white"/>
</mask>
<g mask="url(#mask0_1_1820)">
<path d="M17.2174 1.19072C15.6397 0.427875 13.8698 0 12 0C10.1302 0 8.36025 0.427875 6.78262 1.19072L5.73914 12L6.78262 22.8093C8.36025 23.5721 10.1302 24 12 24C13.8698 24 15.6397 23.5721 17.2174 22.8093L18.2609 12L17.2174 1.19072Z" fill="#FFDA44"/>
<path d="M12 7.82617L13.0359 11.0146H16.3888L13.6764 12.9854L14.7124 16.174L12 14.2033L9.28753 16.174L10.3237 12.9854L7.61133 11.0146H10.964L12 7.82617Z" fill="#496E2D"/>
<path d="M6.78262 1.19141C2.76872 3.13236 0 7.24278 0 12.0003C0 16.7578 2.76872 20.8682 6.78262 22.8091V1.19141Z" fill="#496E2D"/>
<path d="M17.2174 1.19141V22.8091C21.2313 20.8682 24 16.7578 24 12.0003C24 7.24278 21.2313 3.13236 17.2174 1.19141Z" fill="#D80027"/>
</g>
</svg>
