<svg width="25" height="24" viewBox="0 0 25 24" fill="none" xmlns="http://www.w3.org/2000/svg">
<mask id="mask0_1_2021" style="mask-type:luminance" maskUnits="userSpaceOnUse" x="0" y="0" width="25" height="24">
<path d="M24.5781 0H0.578125V24H24.5781V0Z" fill="white"/>
</mask>
<g mask="url(#mask0_1_2021)">
<path d="M12.5781 24C19.2055 24 24.5781 18.6274 24.5781 12C24.5781 5.37258 19.2055 0 12.5781 0C5.9507 0 0.578125 5.37258 0.578125 12C0.578125 18.6274 5.9507 24 12.5781 24Z" fill="#F0F0F0"/>
<path d="M23.8317 7.82617H1.32447C0.842172 9.1262 0.578125 10.5322 0.578125 12.0001C0.578125 13.4679 0.842172 14.874 1.32447 16.174H23.8317C24.3141 14.874 24.5781 13.4679 24.5781 12.0001C24.5781 10.5322 24.3141 9.1262 23.8317 7.82617Z" fill="#A2001D"/>
<path d="M12.6127 23.9996C16.7228 23.9996 20.3498 21.9328 22.5125 18.7822H2.71289C4.87561 21.9328 8.50252 23.9996 12.6127 23.9996Z" fill="#6DA544"/>
<path d="M12.6127 0C16.7228 0 20.3498 2.06681 22.5125 5.21738H2.71289C4.87561 2.06681 8.50252 0 12.6127 0Z" fill="#6DA544"/>
<path d="M12.5782 7.82617L13.6142 11.0146H16.9669L14.2545 12.9854L15.2906 16.174L12.5782 14.2034L9.86575 16.174L10.9019 12.9854L8.18945 11.0146H11.5422L12.5782 7.82617Z" fill="#FFDA44"/>
</g>
</svg>
