<svg width="24" height="24" viewBox="0 0 24 24" fill="none" xmlns="http://www.w3.org/2000/svg">
<mask id="mask0_1_1950" style="mask-type:luminance" maskUnits="userSpaceOnUse" x="0" y="0" width="24" height="24">
<path d="M24 0H0V24H24V0Z" fill="white"/>
</mask>
<g mask="url(#mask0_1_1950)">
<path d="M12 24C18.6274 24 24 18.6274 24 12C24 5.37258 18.6274 0 12 0C5.37258 0 0 5.37258 0 12C0 18.6274 5.37258 24 12 24Z" fill="#F0F0F0"/>
<path d="M23.0639 7.3478C21.2466 3.03103 16.9776 0 12 0C8.68625 0 5.68657 1.34339 3.51514 3.51511L6.52029 7.3478H23.0639Z" fill="black"/>
<path d="M6.55437 16.6084L3.51514 20.4845C5.68657 22.6563 8.68625 23.9996 12 23.9996C16.9944 23.9996 21.2756 20.9484 23.0824 16.6084H6.55437Z" fill="#496E2D"/>
<path d="M2.60864 8.82617V15.1305H23.5866C23.8558 14.1325 24 13.0832 24 12.0001C24 10.9012 23.8519 9.83717 23.5752 8.82617H2.60864Z" fill="#A2001D"/>
<path d="M3.51471 3.51465C-1.17157 8.20093 -1.17157 15.7989 3.51471 20.4853C5.45126 18.5487 7.31374 16.6862 12 12L3.51471 3.51465Z" fill="#0052B4"/>
<path d="M3.90877 9.0166L5.37338 11.0604L7.77 10.2989L6.27886 12.3236L7.74347 14.3675L5.35716 13.575L3.86597 15.5996L3.88238 13.0851L1.49597 12.2925L3.89241 11.531L3.90877 9.0166Z" fill="#FFDA44"/>
</g>
</svg>
