<svg width="24" height="25" viewBox="0 0 24 25" fill="none" xmlns="http://www.w3.org/2000/svg">
<path d="M12 24.5937C18.6274 24.5937 24 19.2212 24 12.5938C24 5.96634 18.6274 0.59375 12 0.59375C5.37258 0.59375 0 5.96634 0 12.5938C0 19.2212 5.37258 24.5937 12 24.5937Z" fill="#338AF3"/>
<mask id="mask0_1_3697" style="mask-type:luminance" maskUnits="userSpaceOnUse" x="0" y="0" width="24" height="25">
<path d="M24 24.5937V0.59375L1.14441e-05 0.59375V24.5937H24Z" fill="white"/>
</mask>
<g mask="url(#mask0_1_3697)">
<path d="M23.2536 16.7672C23.7359 15.4672 24 14.0612 24 12.5933C24 11.1255 23.7359 9.71944 23.2536 8.41946L12 7.37598L0.746437 8.41946C0.264001 9.7194 6.41634e-08 11.1255 0 12.5933C-6.41596e-08 14.0611 0.264 15.4673 0.746437 16.7672L12 17.8107L23.2536 16.7672Z" fill="#FFDA44"/>
<path d="M12 24.5937C17.1596 24.5937 21.5582 21.3372 23.2536 16.7676H0.746338C2.44199 21.3372 6.84041 24.5936 12 24.5937Z" fill="#009739"/>
<path d="M12 0.59375C6.84036 0.59375 2.44195 3.85025 0.746338 8.41977L23.2535 8.41982C21.5581 3.85025 17.1596 0.59375 12 0.59375Z" fill="#009739"/>
</g>
<path d="M13.752 10.458L15.1402 14.7304L11.5059 12.0899H15.9981L12.3638 14.7304L13.752 10.458Z" fill="black"/>
<path d="M19.2238 10.458L20.612 14.7304L16.9777 12.0899H21.4699L17.8356 14.7304L19.2238 10.458Z" fill="black"/>
<path fill-rule="evenodd" clip-rule="evenodd" d="M2.80971 20.31L10.5263 12.5935L2.80971 4.87695C1.05622 6.96314 0 9.65498 0 12.5935C0 15.532 1.05622 18.2239 2.80971 20.31Z" fill="#EF3340"/>
</svg>
