<svg width="25" height="24" viewBox="0 0 25 24" fill="none" xmlns="http://www.w3.org/2000/svg">
<mask id="mask0_1_2065" style="mask-type:luminance" maskUnits="userSpaceOnUse" x="0" y="0" width="25" height="24">
<path d="M24.5781 0H0.578125V24H24.5781V0Z" fill="white"/>
</mask>
<g mask="url(#mask0_1_2065)">
<path d="M12.5781 24C19.2055 24 24.5781 18.6274 24.5781 12C24.5781 5.37258 19.2055 0 12.5781 0C5.9507 0 0.578125 5.37258 0.578125 12C0.578125 18.6274 5.9507 24 12.5781 24Z" fill="#F0F0F0"/>
<path d="M12.5781 0C7.41849 0 3.01998 3.2565 1.32446 7.82611H23.8317C22.1362 3.2565 17.7376 0 12.5781 0Z" fill="#D80027"/>
<path d="M12.5781 23.9999C17.7376 23.9999 22.1362 20.7434 23.8317 16.1738H1.32446C3.01998 20.7434 7.41849 23.9999 12.5781 23.9999Z" fill="black"/>
<path d="M7.7483 9.13086L8.39578 11.1236H10.4912L8.796 12.3554L9.44353 14.3482L7.7483 13.1166L6.05306 14.3482L6.7006 12.3554L5.00537 11.1236H7.10082L7.7483 9.13086Z" fill="#6DA544"/>
<path d="M17.408 9.13086L18.0555 11.1236H20.151L18.4557 12.3554L19.1032 14.3482L17.408 13.1166L15.7127 14.3482L16.3603 12.3554L14.665 11.1236H16.7605L17.408 9.13086Z" fill="#6DA544"/>
</g>
</svg>
