<svg width="25" height="24" viewBox="0 0 25 24" fill="none" xmlns="http://www.w3.org/2000/svg">
<mask id="mask0_1_2031" style="mask-type:luminance" maskUnits="userSpaceOnUse" x="0" y="0" width="25" height="24">
<path d="M24.5781 0H0.578125V24H24.5781V0Z" fill="white"/>
</mask>
<g mask="url(#mask0_1_2031)">
<path d="M23.3874 17.2173C24.1502 15.6397 24.5781 13.8697 24.5781 11.9999C24.5781 10.13 24.1502 8.36009 23.3874 6.78251L12.5781 6.26074L1.76884 6.78246C1.006 8.36009 0.578125 10.13 0.578125 11.9999C0.578125 13.8697 1.006 15.6397 1.76884 17.2173L12.5781 17.739L23.3874 17.2173Z" fill="#FFDA44"/>
<path d="M12.5783 0C7.82079 0 3.71004 2.76867 1.76904 6.78262H23.3876C21.4466 2.76867 17.3358 0 12.5783 0Z" fill="black"/>
<path d="M12.5783 24.0004C7.82079 24.0004 3.71004 21.2317 1.76904 17.2178H23.3876C21.4466 21.2317 17.3358 24.0004 12.5783 24.0004Z" fill="#0052B4"/>
<path d="M24.0114 8.34766H1.1448C0.777203 9.49933 0.578125 10.7263 0.578125 11.9998C0.578125 13.2734 0.777203 14.5003 1.1448 15.652H24.0114C24.379 14.5003 24.5781 13.2734 24.5781 11.9998C24.5781 10.7263 24.379 9.49933 24.0114 8.34766Z" fill="#A2001D"/>
<path d="M4.75195 11.4785H20.4041V12.522H4.75195V11.4785Z" fill="#FFDA44"/>
<path d="M6.83887 9.3916H18.3171V10.4351H6.83887V9.3916Z" fill="#FFDA44"/>
<path d="M18.3919 11.9996C18.3919 11.9996 15.7086 15.13 12.5782 15.13C9.4478 15.13 9.44775 11.9996 9.44775 11.9996C9.44775 11.9996 9.44775 8.86914 12.5782 8.86914C15.7087 8.86914 18.3919 11.9996 18.3919 11.9996Z" fill="#F0F0F0"/>
<path d="M12.5783 15.13C9.44787 15.13 6.76465 11.9996 6.76465 11.9996C6.76465 11.9996 9.44787 8.86914 12.5783 8.86914" fill="black"/>
<path d="M10.4912 10.9561H11.5347V13.043H10.4912V10.9561Z" fill="#F0F0F0"/>
<path d="M13.6216 10.9561H14.6651V13.043H13.6216V10.9561Z" fill="black"/>
<path d="M4.75198 13.043C5.3283 13.043 5.79546 12.5758 5.79546 11.9995C5.79546 11.4233 5.3283 10.9561 4.75198 10.9561C4.17568 10.9561 3.7085 11.4233 3.7085 11.9995C3.7085 12.5758 4.17568 13.043 4.75198 13.043Z" fill="#0052B4"/>
<path d="M20.4043 13.043C20.9807 13.043 21.4478 12.5758 21.4478 11.9995C21.4478 11.4233 20.9807 10.9561 20.4043 10.9561C19.828 10.9561 19.3608 11.4233 19.3608 11.9995C19.3608 12.5758 19.828 13.043 20.4043 13.043Z" fill="#0052B4"/>
</g>
</svg>
