<svg width="24" height="24" viewBox="0 0 24 24" fill="none" xmlns="http://www.w3.org/2000/svg">
<mask id="mask0_1_2201" style="mask-type:luminance" maskUnits="userSpaceOnUse" x="0" y="0" width="24" height="24">
<path d="M24 0H0V24H24V0Z" fill="white"/>
</mask>
<g mask="url(#mask0_1_2201)">
<path d="M24 12C24 18.6274 18.6274 24 12 24C5.37262 24 0 18.6274 0 12C0 12.0029 12 0.0013125 12 0C18.6274 0 24 5.37263 24 12Z" fill="#0052B4"/>
<path d="M11.9678 11.9999H11.9999C11.9999 11.9891 11.9999 11.9786 11.9999 11.9678C11.9892 11.9785 11.9785 11.9892 11.9678 11.9999Z" fill="#F0F0F0"/>
<path d="M12 6.26086C12 4.14938 12 2.76586 12 0H11.998C5.37145 0.001125 0 5.37324 0 12H6.26086V8.47449L9.78638 12H11.9679C11.9786 11.9893 11.9893 11.9786 12 11.9679C12 11.1594 12 10.4381 12 9.78647L8.47444 6.26086H12Z" fill="#F0F0F0"/>
<path d="M6.07099 1.56543C4.19417 2.63413 2.63384 4.19441 1.56519 6.07124V12.0002H4.69563V4.69597V4.69588H12C12 3.70855 12 2.76796 12 1.56543H6.07099Z" fill="#D80027"/>
<path d="M11.9999 10.5242L7.73637 6.26074H6.26074V6.26084L11.9998 11.9998H11.9999C11.9999 11.9998 11.9999 10.9823 11.9999 10.5242Z" fill="#D80027"/>
<path d="M13.5652 6.26074V11.9998C13.5652 14.7955 17.2174 15.6521 17.2174 15.6521C17.2174 15.6521 20.8695 14.7955 20.8695 11.9998V6.26074H13.5652Z" fill="#FFDA44"/>
<path d="M16.6956 8.34817C16.6956 8.9245 16.2285 10.4351 15.6521 10.4351C15.0758 10.4351 14.6086 8.9245 14.6086 8.34817C14.6086 7.77184 15.6521 7.30469 15.6521 7.30469C15.6521 7.30469 16.6956 7.77184 16.6956 8.34817Z" fill="#FF9811"/>
<path d="M19.4647 9.48466C19.6331 9.0738 19.764 8.47323 19.764 8.17427C19.764 7.69398 19.1379 7.30469 19.1379 7.30469C19.1379 7.30469 18.5118 7.69403 18.5118 8.17427C18.5118 8.47323 18.6428 9.0738 18.8112 9.48466L18.4497 10.3008C18.6621 10.3871 18.8944 10.4351 19.1379 10.4351C19.3814 10.4351 19.6136 10.3871 19.8261 10.3008L19.4647 9.48466Z" fill="#A2001D"/>
<path d="M16.4348 12.0002C16.4348 12.0002 15.9131 13.0437 15.9131 14.0872H18.5218C18.5217 13.0437 18 12.0002 18 12.0002L17.2174 11.4785L16.4348 12.0002Z" fill="#6DA544"/>
<path d="M18.0001 11.9995V11.7387C18.0001 11.3065 17.6497 10.9561 17.2174 10.9561C16.7853 10.9561 16.4348 11.3064 16.4348 11.7387V11.9995H18.0001Z" fill="#D80027"/>
</g>
</svg>
