<svg width="24" height="24" viewBox="0 0 24 24" fill="none" xmlns="http://www.w3.org/2000/svg">
<mask id="mask0_1_444" style="mask-type:luminance" maskUnits="userSpaceOnUse" x="0" y="0" width="24" height="25">
<path d="M24 0.000976562H0V24.001H24V0.000976562Z" fill="white"/>
</mask>
<g mask="url(#mask0_1_444)">
<path d="M12 0.000976562C10.5321 0.000976562 9.12602 0.265024 7.82609 0.747368L7.30432 12.001L7.82604 23.2546C9.12602 23.737 10.5321 24.001 12 24.001C13.4678 24.001 14.8739 23.737 16.1739 23.2546L16.6956 12.001L16.1739 0.747368C14.8739 0.265024 13.4678 0.000976562 12 0.000976562Z" fill="#FFDA44"/>
<path d="M23.9999 12.0009C23.9999 6.84134 20.7434 2.44283 16.1738 0.747314V23.2546C20.7434 21.559 23.9999 17.1605 23.9999 12.0009Z" fill="#D80027"/>
<path d="M7.82611 23.2545V0.747314C3.2565 2.44283 0 6.84134 0 12.0009C0 17.1605 3.2565 21.559 7.82611 23.2545Z" fill="#0052B4"/>
</g>
</svg>
