<svg width="24" height="25" viewBox="0 0 24 25" fill="none" xmlns="http://www.w3.org/2000/svg">
<mask id="mask0_1_2085" style="mask-type:luminance" maskUnits="userSpaceOnUse" x="0" y="0" width="24" height="25">
<path d="M24 0.581055H0V24.5811H24V0.581055Z" fill="white"/>
</mask>
<g mask="url(#mask0_1_2085)">
<path d="M1.19072 7.3638C0.427875 8.94142 0 10.7113 0 12.5812C0 14.451 0.427875 16.2209 1.19072 17.7985L12 18.842L22.8093 17.7985C23.5721 16.2209 24 14.451 24 12.5812C24 10.7113 23.5721 8.94142 22.8093 7.3638L12 6.32031L1.19072 7.3638Z" fill="#F0F0F0"/>
<path d="M1.19116 17.7988C3.13212 21.8127 7.24253 24.5815 12 24.5815C16.7575 24.5815 20.868 21.8127 22.8089 17.7988H1.19116Z" fill="#6DA544"/>
<path d="M1.19116 7.36368H22.8089C20.868 3.34978 16.7575 0.581055 12 0.581055C7.24253 0.581055 3.13212 3.34978 1.19116 7.36368Z" fill="#D80027"/>
<path d="M9.91309 15.7113H14.087V13.9373L13.2522 14.3547L12.0001 13.1025L10.7479 14.3547L9.91309 13.9373V15.7113Z" fill="#FFDA44"/>
<path d="M7.52504 13.625L7.71934 14.2228H8.34793L7.83934 14.5924L8.03363 15.1902L7.52504 14.8207L7.01645 15.1902L7.21074 14.5924L6.70215 14.2228H7.33074L7.52504 13.625Z" fill="#FFDA44"/>
<path d="M8.12733 11.5371L8.32163 12.135H8.95022L8.44163 12.5045L8.63588 13.1023L8.12733 12.7328L7.61874 13.1023L7.81304 12.5045L7.30444 12.135H7.93304L8.12733 11.5371Z" fill="#FFDA44"/>
<path d="M9.84901 9.97266L10.0433 10.5705H10.6719L10.1634 10.94L10.3576 11.5379L9.84901 11.1684L9.34047 11.5379L9.53472 10.94L9.02612 10.5705H9.65476L9.84901 9.97266Z" fill="#FFDA44"/>
<path d="M16.475 13.625L16.2807 14.2228H15.6521L16.1607 14.5924L15.9664 15.1902L16.475 14.8207L16.9835 15.1902L16.7893 14.5924L17.2979 14.2228H16.6693L16.475 13.625Z" fill="#FFDA44"/>
<path d="M15.8727 11.5371L15.6784 12.135H15.0498L15.5584 12.5045L15.3641 13.1023L15.8727 12.7328L16.3813 13.1023L16.187 12.5045L16.6956 12.135H16.067L15.8727 11.5371Z" fill="#FFDA44"/>
<path d="M14.151 9.97266L13.9567 10.5705H13.3281L13.8366 10.94L13.6424 11.5379L14.151 11.1684L14.6595 11.5379L14.4653 10.94L14.9738 10.5705H14.3452L14.151 9.97266Z" fill="#FFDA44"/>
<path d="M12.0001 9.18945L12.1944 9.7873H12.823L12.3144 10.1568L12.5087 10.7547L12.0001 10.3852L11.4915 10.7547L11.6858 10.1568L11.1772 9.7873H11.8058L12.0001 9.18945Z" fill="#FFDA44"/>
</g>
</svg>
