<svg width="24" height="24" viewBox="0 0 24 24" fill="none" xmlns="http://www.w3.org/2000/svg">
<mask id="mask0_1_2130" style="mask-type:luminance" maskUnits="userSpaceOnUse" x="0" y="0" width="24" height="24">
<path d="M24 0H0V24H24V0Z" fill="white"/>
</mask>
<g mask="url(#mask0_1_2130)">
<path d="M12 24C18.6274 24 24 18.6274 24 12C24 5.37258 18.6274 0 12 0C5.37258 0 0 5.37258 0 12C0 18.6274 5.37258 24 12 24Z" fill="#FFDA44"/>
<path d="M19.3043 5.73914C19.1967 6.25641 19.1478 6.80733 19.1478 7.35652C19.1478 10.5222 21.035 13.2621 23.7394 14.4955C23.9097 13.6904 24 12.8558 24 12C24 5.37262 18.6274 0 12 0C5.37262 0 0 5.37262 0 12C0 18.6274 5.37262 24 12 24C16.1101 24 19.7371 21.9332 21.8998 18.7826H6.78262V17.2174H22.8093C22.9733 16.8782 23.1215 16.53 23.2537 16.1739H6.78262L19.3043 5.73914Z" fill="#0052B4"/>
<path d="M8.81595 6.26074L9.07499 7.0579H9.91311L9.23506 7.5506L9.49409 8.34771L8.81595 7.8551L8.13791 8.34771L8.39689 7.5506L7.71875 7.0579H8.55692L8.81595 6.26074Z" fill="#F0F0F0"/>
<path d="M5.41097 12L5.73479 12.9965H6.78244L5.9348 13.6122L6.25861 14.6087L5.41097 13.9928L4.56338 14.6087L4.88714 13.6122L4.03955 12.9965H5.08721L5.41097 12Z" fill="#F0F0F0"/>
<path d="M5.41097 3.65234L5.73479 4.64886H6.78244L5.9348 5.26456L6.25861 6.26103L5.41097 5.64518L4.56338 6.26103L4.88714 5.26456L4.03955 4.64886H5.08721L5.41097 3.65234Z" fill="#F0F0F0"/>
<path d="M2.80257 8.34766L3.12639 9.34417H4.174L3.3264 9.95987L3.65021 10.9563L2.80257 10.3405L1.95498 10.9563L2.27875 9.95987L1.43115 9.34417H2.47876L2.80257 8.34766Z" fill="#F0F0F0"/>
</g>
</svg>
