<svg width="25" height="25" viewBox="0 0 25 25" fill="none" xmlns="http://www.w3.org/2000/svg">
<path d="M12.7866 24.3789C19.4141 24.3789 24.7866 19.0063 24.7866 12.3789C24.7866 5.75149 19.4141 0.378906 12.7866 0.378906C6.15922 0.378906 0.786621 5.75149 0.786621 12.3789C0.786621 19.0063 6.15922 24.3789 12.7866 24.3789Z" fill="#DA291C"/>
<path fill-rule="evenodd" clip-rule="evenodd" d="M3.95262 20.5002L14.6461 12.3785L3.95262 4.25684C1.98689 6.39386 0.786621 9.24601 0.786621 12.3785C0.786621 15.511 1.98689 18.3632 3.95262 20.5002Z" fill="black"/>
<path fill-rule="evenodd" clip-rule="evenodd" d="M3.95262 20.5002L14.6461 12.3785L3.95262 4.25684C1.98689 6.39386 0.786621 9.24601 0.786621 12.3785C0.786621 15.511 1.98689 18.3632 3.95262 20.5002Z" fill="black"/>
<path fill-rule="evenodd" clip-rule="evenodd" d="M3.95262 20.5002L14.6461 12.3785L3.95262 4.25684C1.98689 6.39386 0.786621 9.24601 0.786621 12.3785C0.786621 15.511 1.98689 18.3632 3.95262 20.5002Z" fill="#FFC72C"/>
<path fill-rule="evenodd" clip-rule="evenodd" d="M3.59634 20.0952L11.3129 12.3787L3.59634 4.66211C1.84284 6.74829 0.786621 9.44013 0.786621 12.3787C0.786621 15.3172 1.84284 18.009 3.59634 20.0952Z" fill="black"/>
<path fill-rule="evenodd" clip-rule="evenodd" d="M3.59634 20.0952L11.3129 12.3787L3.59634 4.66211C1.84284 6.74829 0.786621 9.44013 0.786621 12.3787C0.786621 15.3172 1.84284 18.009 3.59634 20.0952Z" fill="black"/>
<path fill-rule="evenodd" clip-rule="evenodd" d="M3.59634 20.0952L11.3129 12.3787L3.59634 4.66211C1.84284 6.74829 0.786621 9.44013 0.786621 12.3787C0.786621 15.3172 1.84284 18.009 3.59634 20.0952Z" fill="black"/>
<path d="M5.0137 10.2432L6.40192 14.5155L2.76758 11.875H7.25982L3.6255 14.5155L5.0137 10.2432Z" fill="white"/>
</svg>
