<svg width="24" height="24" viewBox="0 0 24 24" fill="none" xmlns="http://www.w3.org/2000/svg">
<mask id="mask0_1_2175" style="mask-type:luminance" maskUnits="userSpaceOnUse" x="0" y="0" width="24" height="24">
<path d="M24 0H0V24H24V0Z" fill="white"/>
</mask>
<g mask="url(#mask0_1_2175)">
<path d="M12 0C11.104 0 10.2313 0.0990469 9.39135 0.285234L8.86963 12L9.39135 23.7147C10.2313 23.9009 11.1041 24 12 24C18.6274 24 24 18.6274 24 12C23.9999 5.37258 18.6274 0 12 0Z" fill="#496E2D"/>
<path d="M3.13041 3.91699C1.18584 6.04962 0 8.88602 0 11.9996C0 15.1131 1.18589 17.9495 3.13045 20.0822L3.65217 11.9996L3.13041 3.91699Z" fill="#496E2D"/>
<path d="M17.5509 9.05131C18.1413 7.40572 17.478 5.61598 16.0546 4.72461C16.3106 4.75794 16.5669 4.81822 16.8199 4.90892C18.7185 5.59011 19.7054 7.6813 19.0242 9.57983C18.343 11.4785 16.2518 12.4653 14.3532 11.7841C14.1002 11.6934 13.864 11.5769 13.6453 11.4399C15.3107 11.6568 16.9605 10.6969 17.5509 9.05131Z" fill="#F0F0F0"/>
<path d="M14.2764 4.27344L13.7633 4.93634L12.9745 4.65327L13.4463 5.34598L12.9333 6.00879L13.738 5.77414L14.2099 6.46676L14.2352 5.62901L15.0399 5.39431L14.251 5.11132L14.2764 4.27344Z" fill="#F0F0F0"/>
<path d="M15.6617 6.43359L15.1486 7.09645L14.3597 6.81338L14.8316 7.50609L14.3186 8.16891L15.1232 7.93416L15.5952 8.62692L15.6206 7.78912L16.4252 7.55438L15.6363 7.27134L15.6617 6.43359Z" fill="#F0F0F0"/>
<path d="M11.834 5.06055L11.3209 5.72336L10.5321 5.44037L11.004 6.13305L10.491 6.79591L11.2955 6.5612L11.7675 7.25388L11.7929 6.41612L12.5975 6.18142L11.8086 5.89834L11.834 5.06055Z" fill="#F0F0F0"/>
<path d="M11.7779 7.53418L11.2649 8.19704L10.476 7.91401L10.9479 8.60673L10.4348 9.26954L11.2395 9.03488L11.7114 9.72751L11.7368 8.88976L12.5414 8.65505L11.7525 8.37198L11.7779 7.53418Z" fill="#F0F0F0"/>
<path d="M14.1321 8.37891L13.6191 9.04172L12.8302 8.75869L13.3022 9.45141L12.7891 10.1142L13.5938 9.87952L14.0657 10.5722L14.091 9.73439L14.8957 9.49973L14.1067 9.2167L14.1321 8.37891Z" fill="#F0F0F0"/>
<path d="M3.13037 3.91731V20.0825C4.76536 21.8756 6.93708 23.1706 9.39122 23.7146V0.285156C6.93703 0.829189 4.76541 2.12411 3.13037 3.91731Z" fill="#D80027"/>
<path d="M5.5196 6.31821L4.47144 5.53737V4.43314L5.5196 3.65234H7.00203L8.0502 4.43314V5.53737L7.00203 6.31821H5.5196Z" fill="#F0F0F0"/>
<path d="M6.26084 3.65234H5.5196L4.47144 4.43314V4.973H6.26084V3.65234Z" fill="#FF9811"/>
<path d="M6.26099 6.31777H7.00217L8.05035 5.53693V4.97363H6.26099V6.31777Z" fill="#FF9811"/>
<path d="M5.5196 20.3475L4.47144 19.5667V18.4625L5.5196 17.6816H7.00203L8.0502 18.4625V19.5667L7.00203 20.3475H5.5196Z" fill="#F0F0F0"/>
<path d="M6.26084 17.6816H5.5196L4.47144 18.4625V19.0023H6.26084V17.6816Z" fill="#FF9811"/>
<path d="M6.26099 20.348H7.00217L8.05035 19.5672V19.0039H6.26099V20.348Z" fill="#FF9811"/>
<path d="M5.5196 13.3329L4.47144 12.552V11.4478L5.5196 10.667H7.00203L8.0502 11.4478V12.552L7.00203 13.3329H5.5196Z" fill="#496E2D"/>
<path d="M8.08694 15.0511H7.63038V14.5946H6.82812L6.26083 14.0273L5.6936 14.5946H4.89133V15.0511H4.43481V15.9642H4.89133V16.4207H5.69355L6.26088 16.988L6.82812 16.4207H7.63038V15.9642H8.08694V15.0511Z" fill="#496E2D"/>
<path d="M8.08694 8.03556H7.63038V7.579H6.82812L6.26083 7.01172L5.6936 7.579H4.89133V8.03556H4.43481V8.94859H4.89133V9.40511H5.69355L6.26088 9.97248L6.82812 9.40511H7.63038V8.94859H8.08694V8.03556Z" fill="#496E2D"/>
<path d="M5.73901 11.4785H6.7825V12.522H5.73901V11.4785Z" fill="#D80027"/>
<path d="M6.26073 9.01414C6.54887 9.01414 6.78245 8.78056 6.78245 8.49242C6.78245 8.20428 6.54887 7.9707 6.26073 7.9707C5.97259 7.9707 5.73901 8.20428 5.73901 8.49242C5.73901 8.78056 5.97259 9.01414 6.26073 9.01414Z" fill="#D80027"/>
<path d="M6.26073 16.0288C6.54887 16.0288 6.78245 15.7952 6.78245 15.5071C6.78245 15.2189 6.54887 14.9854 6.26073 14.9854C5.97259 14.9854 5.73901 15.2189 5.73901 15.5071C5.73901 15.7952 5.97259 16.0288 6.26073 16.0288Z" fill="#D80027"/>
</g>
</svg>
