<svg width="24" height="25" viewBox="0 0 24 25" fill="none" xmlns="http://www.w3.org/2000/svg">
<mask id="mask0_1_2167" style="mask-type:luminance" maskUnits="userSpaceOnUse" x="0" y="0" width="24" height="25">
<path d="M24 0.581055H0V24.5811H24V0.581055Z" fill="white"/>
</mask>
<g mask="url(#mask0_1_2167)">
<path d="M12 24.581C18.6274 24.581 24 19.2085 24 12.5811C24 5.95363 18.6274 0.581055 12 0.581055C5.37258 0.581055 0 5.95363 0 12.5811C0 19.2085 5.37258 24.581 12 24.581Z" fill="#D80027"/>
<path d="M11.5087 10.3867L12.4933 11.7435L14.0879 11.2265L13.1017 12.5821L14.0862 13.9389L12.4922 13.4199L11.5061 14.7755L11.5071 13.0992L9.91309 12.5802L11.5077 12.0632L11.5087 10.3867Z" fill="#F0F0F0"/>
<path d="M8.82173 15.9725C6.94879 15.9725 5.43042 14.4541 5.43042 12.5812C5.43042 10.7082 6.94879 9.18985 8.82173 9.18985C9.4057 9.18985 9.95517 9.33755 10.4349 9.59748C9.68231 8.86145 8.65307 8.40723 7.51739 8.40723C5.21217 8.40723 3.34351 10.2759 3.34351 12.5811C3.34351 14.8863 5.21222 16.755 7.51739 16.755C8.65317 16.755 9.68236 16.3007 10.4349 15.5648C9.95517 15.8248 9.4057 15.9725 8.82173 15.9725Z" fill="#F0F0F0"/>
</g>
</svg>
