<svg width="24" height="24" viewBox="0 0 24 24" fill="none" xmlns="http://www.w3.org/2000/svg">
<mask id="mask0_1_2149" style="mask-type:luminance" maskUnits="userSpaceOnUse" x="0" y="0" width="24" height="24">
<path d="M24 0H0V24H24V0Z" fill="white"/>
</mask>
<g mask="url(#mask0_1_2149)">
<path d="M6.49763 1.33301C5.42335 1.88749 4.41493 2.61429 3.51436 3.51485C2.61375 4.41546 1.88696 5.42388 1.33252 6.49816L9.04847 14.952L17.5023 22.668C18.5767 22.1135 19.5851 21.3867 20.4856 20.4862C21.3863 19.5856 22.113 18.5771 22.6675 17.5029L14.9515 9.04896L6.49763 1.33301Z" fill="#F0F0F0"/>
<path d="M20.4856 20.4859C20.989 19.9825 21.438 19.4453 21.8332 18.882L5.11828 2.16699C4.55489 2.5622 4.01775 3.01116 3.51436 3.51455C3.01097 4.01795 2.562 4.55509 2.16675 5.11852L18.8817 21.8334C19.445 21.4382 19.9822 20.9893 20.4856 20.4859Z" fill="black"/>
<path d="M3.51431 20.4861C7.30026 24.272 12.9861 24.9988 17.5023 22.6679L1.33251 6.49805C-0.998348 11.0143 -0.271455 16.7001 3.51431 20.4861Z" fill="#D80027"/>
<path d="M20.4856 3.51437C16.6997 -0.271539 11.0139 -0.998287 6.49768 1.33248L22.6674 17.5024C24.9984 12.9862 24.2716 7.30028 20.4856 3.51437Z" fill="#D80027"/>
</g>
</svg>
