<svg width="24" height="24" viewBox="0 0 24 24" fill="none" xmlns="http://www.w3.org/2000/svg">
<mask id="mask0_1_2075" style="mask-type:luminance" maskUnits="userSpaceOnUse" x="0" y="0" width="24" height="24">
<path d="M24 0H0V24H24V0Z" fill="white"/>
</mask>
<g mask="url(#mask0_1_2075)">
<path d="M24 12C24 18.6274 18.6274 24 12 24C5.37262 24 0 18.6274 0 12C4.12172 7.87828 7.61737 4.38262 12 0C18.6274 0 24 5.37262 24 12Z" fill="#D80027"/>
<path d="M12 12C12 5.37262 12 4.59131 12 0C5.37262 0 0 5.37262 0 12H12Z" fill="#0052B4"/>
<path d="M10.4348 7.02318L8.9692 7.71261L9.74958 9.13194L8.15822 8.82744L7.95652 10.4351L6.84811 9.25274L5.73961 10.4351L5.538 8.82744L3.9466 9.13185L4.72697 7.71252L3.26147 7.02318L4.72702 6.33388L3.9466 4.9145L5.53795 5.21896L5.73966 3.61133L6.84811 4.79371L7.95656 3.61133L8.15822 5.21896L9.74963 4.9145L8.9692 6.33393L10.4348 7.02318Z" fill="#F0F0F0"/>
<path d="M6.84825 9.25653C8.0819 9.25653 9.08198 8.25645 9.08198 7.0228C9.08198 5.78914 8.0819 4.78906 6.84825 4.78906C5.61459 4.78906 4.6145 5.78914 4.6145 7.0228C4.6145 8.25645 5.61459 9.25653 6.84825 9.25653Z" fill="#0052B4"/>
<path d="M6.84816 8.21351C6.19186 8.21351 5.65796 7.67955 5.65796 7.02326C5.65796 6.36696 6.19191 5.83301 6.84816 5.83301C7.50446 5.83301 8.03841 6.36696 8.03841 7.02326C8.03836 7.67955 7.50436 8.21351 6.84816 8.21351Z" fill="#F0F0F0"/>
</g>
</svg>
