<svg width="24" height="24" viewBox="0 0 24 24" fill="none" xmlns="http://www.w3.org/2000/svg">
<mask id="mask0_1_2101" style="mask-type:luminance" maskUnits="userSpaceOnUse" x="0" y="0" width="24" height="24">
<path d="M24 0H0V24H24V0Z" fill="white"/>
</mask>
<g mask="url(#mask0_1_2101)">
<path d="M12 24C18.6274 24 24 18.6274 24 12C24 5.37258 18.6274 0 12 0C5.37258 0 0 5.37258 0 12C0 18.6274 5.37258 24 12 24Z" fill="#FFDA44"/>
<path d="M3.51471 20.4851C4.0181 20.9885 4.55519 21.4374 5.11858 21.8327L21.8328 5.11839C21.4376 4.55499 20.9887 4.0179 20.4853 3.51451C19.9819 3.01112 19.4448 2.56224 18.8814 2.16699L2.16724 18.8813C2.56239 19.4445 3.01136 19.9817 3.51471 20.4851Z" fill="black"/>
<path d="M3.51471 3.51514C-0.271008 7.30095 -0.997803 12.9865 1.33296 17.5025L17.5021 1.33344C12.986 -0.997326 7.30048 -0.270481 3.51471 3.51514Z" fill="#6DA544"/>
<path d="M20.4852 20.4855C24.2709 16.6997 24.9976 11.0141 22.667 6.49805L6.4978 22.6672C11.0138 24.998 16.6994 24.2712 20.4852 20.4855Z" fill="#338AF3"/>
</g>
</svg>
