<svg width="24" height="24" viewBox="0 0 24 24" fill="none" xmlns="http://www.w3.org/2000/svg">
<mask id="mask0_1_2237" style="mask-type:luminance" maskUnits="userSpaceOnUse" x="0" y="0" width="24" height="24">
<path d="M24 0H0V24H24V0Z" fill="white"/>
</mask>
<g mask="url(#mask0_1_2237)">
<path d="M20.9434 20.0004C22.8439 17.8773 24 15.0741 24 12.0004C24 8.92672 22.8438 6.12345 20.9434 4.00039L12 3.13086L3.05663 4.00039C1.15617 6.12345 0 8.92672 0 12.0004C0 15.0741 1.15613 17.8773 3.05658 20.0004L12 20.87L20.9434 20.0004Z" fill="#FFDA44"/>
<path d="M3.05664 3.99998H20.9434C18.7462 1.54528 15.5537 0 12 0C8.44628 0 5.25386 1.54528 3.05664 3.99998Z" fill="black"/>
<path d="M0 12L12 13.0435L24 12C24 10.5973 23.7585 9.25119 23.3162 8H0.683813C0.241453 9.25119 0 10.5973 0 12Z" fill="#D80027"/>
<path d="M0.683813 16H23.3163C23.7585 14.7488 24 13.4027 24 12H0C0 13.4027 0.241453 14.7488 0.683813 16Z" fill="black"/>
<path d="M20.9435 20H3.05664C5.25386 22.4548 8.44628 24 12.0001 24C15.5538 24 18.7463 22.4548 20.9435 20Z" fill="#D80027"/>
<path d="M16.0043 11.9995C16.0043 14.2112 14.2117 16.0038 11.9999 16.0038C9.78825 16.0038 7.99561 14.2112 7.99561 11.9995C7.99561 9.78776 9.78825 7.99512 11.9999 7.99512C14.2117 7.99512 16.0043 9.78776 16.0043 11.9995Z" fill="#F0F0F0"/>
<path d="M13.4669 12.2036L11.9999 11.568C11.9999 11.568 12.3431 10.4288 12.3614 10.3508C12.3748 10.2939 12.3819 10.2345 12.3819 10.1734C12.3819 9.9573 12.2943 9.76164 12.1526 9.62008L12.5215 9.25117C12.2855 9.01516 11.9594 8.86914 11.5992 8.86914C11.239 8.86914 10.9129 9.01511 10.6769 9.25117L11.0458 9.62008C10.9042 9.76169 10.8166 9.95734 10.8166 10.1734C10.8166 10.2525 10.8285 10.3286 10.8503 10.4006L10.2949 10.956H11.3044C11.3044 10.956 10.887 11.5829 10.6592 12.0977C10.4313 12.6125 10.6623 13.2409 11.1889 13.475L11.4934 13.6104L11.9999 14.0864V14.6081L11.4782 15.1299H12.5217V14.0864L12.9978 13.6103H13.9825C13.9873 13.6005 13.9922 13.5909 13.9967 13.5809C14.2307 13.0543 13.9935 12.4376 13.4669 12.2036Z" fill="black"/>
</g>
</svg>
