<svg width="24" height="24" viewBox="0 0 24 24" fill="none" xmlns="http://www.w3.org/2000/svg">
<mask id="mask0_1_2284" style="mask-type:luminance" maskUnits="userSpaceOnUse" x="0" y="0" width="24" height="24">
<path d="M24 0H0V24H24V0Z" fill="white"/>
</mask>
<g mask="url(#mask0_1_2284)">
<path d="M12 24C18.6274 24 24 18.6274 24 12C24 5.37258 18.6274 0 12 0C5.37258 0 0 5.37258 0 12C0 18.6274 5.37258 24 12 24Z" fill="#F0F0F0"/>
<path d="M11.4783 11.9996H24C24 10.9165 23.8556 9.86725 23.5866 8.86914H11.4783V11.9996Z" fill="#D80027"/>
<path d="M11.4783 5.73886H22.2387C21.5041 4.54016 20.5649 3.48065 19.4698 2.6084H11.4783V5.73886Z" fill="#D80027"/>
<path d="M12 24.0003C14.8241 24.0003 17.4199 23.0242 19.4698 21.3916H4.53015C6.58 23.0242 9.17579 24.0003 12 24.0003Z" fill="#D80027"/>
<path d="M1.76134 18.2613H22.2388C22.8285 17.299 23.2859 16.2471 23.5867 15.1309H0.413452C0.714247 16.2471 1.17161 17.299 1.76134 18.2613Z" fill="#D80027"/>
<path d="M5.55862 1.87397H6.65217L5.63498 2.61295L6.02353 3.80869L5.00639 3.0697L3.98925 3.80869L4.32487 2.7757C3.42928 3.52172 2.64431 4.39575 1.99744 5.36962H2.34783L1.70034 5.84001C1.59947 6.0083 1.50272 6.17925 1.41 6.35273L1.71919 7.30434L1.14234 6.88523C0.998953 7.18903 0.867797 7.49967 0.749906 7.81678L1.09055 8.86528H2.34783L1.33064 9.60426L1.71919 10.8L0.702047 10.061L0.0927656 10.5037C0.0317812 10.9939 0 11.4932 0 12H12C12 5.37262 12 4.59131 12 0C9.62944 0 7.41961 0.687655 5.55862 1.87397ZM6.02353 10.8L5.00639 10.061L3.98925 10.8L4.3778 9.60426L3.36061 8.86528H4.61789L5.00639 7.66955L5.39489 8.86528H6.65217L5.63498 9.60426L6.02353 10.8ZM5.63498 6.10861L6.02353 7.30434L5.00639 6.56536L3.98925 7.30434L4.3778 6.10861L3.36061 5.36962H4.61789L5.00639 4.17389L5.39489 5.36962H6.65217L5.63498 6.10861ZM10.3279 10.8L9.31073 10.061L8.29359 10.8L8.68214 9.60426L7.66495 8.86528H8.92223L9.31073 7.66955L9.69923 8.86528H10.9565L9.93933 9.60426L10.3279 10.8ZM9.93933 6.10861L10.3279 7.30434L9.31073 6.56536L8.29359 7.30434L8.68214 6.10861L7.66495 5.36962H8.92223L9.31073 4.17389L9.69923 5.36962H10.9565L9.93933 6.10861ZM9.93933 2.61295L10.3279 3.80869L9.31073 3.0697L8.29359 3.80869L8.68214 2.61295L7.66495 1.87397H8.92223L9.31073 0.678233L9.69923 1.87397H10.9565L9.93933 2.61295Z" fill="#0052B4"/>
</g>
</svg>
