<svg width="24" height="25" viewBox="0 0 24 25" fill="none" xmlns="http://www.w3.org/2000/svg">
<mask id="mask0_1_2295" style="mask-type:luminance" maskUnits="userSpaceOnUse" x="0" y="0" width="24" height="25">
<path d="M24 0.581055H0V24.5811H24V0.581055Z" fill="white"/>
</mask>
<g mask="url(#mask0_1_2295)">
<path d="M12 24.581C18.6274 24.581 24 19.2085 24 12.5811C24 5.95363 18.6274 0.581055 12 0.581055C5.37258 0.581055 0 5.95363 0 12.5811C0 19.2085 5.37258 24.581 12 24.581Z" fill="#F0F0F0"/>
<path d="M12 9.45077H23.5866C23.2857 8.33448 22.8284 7.28256 22.2387 6.32031H12V9.45077Z" fill="#338AF3"/>
<path d="M4.53009 21.9722H19.4698C20.5649 21.1 21.5041 20.0405 22.2386 18.8418H1.76123C2.49581 20.0405 3.435 21.1 4.53009 21.9722Z" fill="#338AF3"/>
<path d="M12 0.581055V3.18974H19.4699C17.42 1.55718 14.8242 0.581055 12 0.581055Z" fill="#338AF3"/>
<path d="M12 9.45077H23.5866C23.2857 8.33448 22.8284 7.28256 22.2387 6.32031H12V9.45077Z" fill="#338AF3"/>
<path d="M0 12.5811C0 13.6642 0.144375 14.7134 0.413391 15.7115H23.5867C23.8556 14.7134 24 13.6642 24 12.5811H0Z" fill="#338AF3"/>
<path d="M10.4348 7.60422L8.96916 8.29361L9.74958 9.71298L8.15817 9.40858L7.95652 11.0162L6.84811 9.83378L5.73961 11.0162L5.538 9.40858L3.9466 9.71289L4.72697 8.29356L3.26147 7.60422L4.72702 6.91492L3.9466 5.49555L5.53795 5.79995L5.73966 4.19238L6.84811 5.37475L7.95656 4.19238L8.15817 5.79995L9.74963 5.49555L8.9692 6.91497L10.4348 7.60422Z" fill="#FFDA44"/>
</g>
</svg>
