<svg width="24" height="24" viewBox="0 0 24 24" fill="none" xmlns="http://www.w3.org/2000/svg">
<mask id="mask0_1_2307" style="mask-type:luminance" maskUnits="userSpaceOnUse" x="0" y="0" width="24" height="24">
<path d="M24 0H0V24H24V0Z" fill="white"/>
</mask>
<g mask="url(#mask0_1_2307)">
<path d="M0.566625 8.34794C0.199031 9.49956 -4.68667e-05 10.7264 8.276e-09 12C-4.68667e-05 13.2736 0.199078 14.5005 0.566672 15.6521L12 16.174L23.4333 15.6522C23.8009 14.5006 24 13.2736 24 12.0001C24 10.7265 23.8009 9.49956 23.4333 8.34789L12 7.82617L0.566625 8.34794Z" fill="#F0F0F0"/>
<path d="M23.4332 8.34789L11.9999 7.82617L0.566502 8.34789C0.457562 8.68933 0.363766 9.03747 0.285156 9.39138H23.7144C23.6359 9.03742 23.5421 8.68923 23.4332 8.34789Z" fill="#D80027"/>
<path d="M0.2854 14.6084C0.363916 14.9623 0.457713 15.3104 0.566651 15.6518L0.567776 15.6519L11.9999 16.1736L23.4333 15.6519C23.5422 15.3104 23.636 14.9623 23.7146 14.6084H0.2854Z" fill="#D80027"/>
<path d="M11.9999 24.0002C17.3538 24.0002 21.888 20.4938 23.4333 15.6523H0.56665C2.11188 20.4937 6.6462 24.0002 11.9999 24.0002Z" fill="#6DA544"/>
<path d="M12 4.69973e-10C6.6462 4.68753e-05 2.11198 3.50644 0.56665 8.34783L23.4333 8.34788C21.8881 3.50639 17.3539 -4.68746e-05 12 4.69973e-10Z" fill="#338AF3"/>
<path d="M5.48376 4.95619C5.48376 3.83226 6.27365 2.89335 7.32848 2.66301C7.16638 2.62757 6.99815 2.6084 6.82537 2.6084C5.52871 2.6084 4.47754 3.65952 4.47754 4.95624C4.47754 6.25294 5.52862 7.30406 6.82537 7.30406C6.99815 7.30406 7.16634 7.28484 7.32848 7.24945C6.2737 7.01902 5.48376 6.08011 5.48376 4.95619Z" fill="#F0F0F0"/>
<path d="M8.71604 6.02344L8.87494 6.51258H9.38926L8.97319 6.81492L9.1321 7.30406L8.71604 7.00177L8.29988 7.30406L8.45883 6.81492L8.04272 6.51258H8.55704L8.71604 6.02344Z" fill="#F0F0F0"/>
<path d="M10.3578 6.02344L10.5167 6.51258H11.0311L10.6149 6.81492L10.7739 7.30406L10.3578 7.00177L9.94168 7.30406L10.1006 6.81492L9.68457 6.51258H10.1988L10.3578 6.02344Z" fill="#F0F0F0"/>
<path d="M11.9992 6.02344L12.1581 6.51258H12.6725L12.2564 6.81492L12.4153 7.30406L11.9992 7.00177L11.5831 7.30406L11.7421 6.81492L11.3259 6.51258H11.8403L11.9992 6.02344Z" fill="#F0F0F0"/>
<path d="M13.6408 6.02344L13.7998 6.51258H14.3141L13.898 6.81492L14.057 7.30406L13.6408 7.00177L13.2247 7.30406L13.3837 6.81492L12.9675 6.51258H13.4818L13.6408 6.02344Z" fill="#F0F0F0"/>
<path d="M15.2826 6.02344L15.4415 6.51258H15.9559L15.5398 6.81492L15.6987 7.30406L15.2826 7.00177L14.8665 7.30406L15.0254 6.81492L14.6094 6.51258H15.1236L15.2826 6.02344Z" fill="#F0F0F0"/>
<path d="M10.3578 4.31641L10.5167 4.8055H11.0311L10.6149 5.10789L10.7739 5.59698L10.3578 5.29468L9.94168 5.59698L10.1006 5.10789L9.68457 4.8055H10.1988L10.3578 4.31641Z" fill="#F0F0F0"/>
<path d="M11.9992 4.31641L12.1581 4.8055H12.6725L12.2564 5.10789L12.4153 5.59698L11.9992 5.29468L11.5831 5.59698L11.7421 5.10789L11.3259 4.8055H11.8403L11.9992 4.31641Z" fill="#F0F0F0"/>
<path d="M13.6408 4.31641L13.7998 4.8055H14.3141L13.898 5.10789L14.057 5.59698L13.6408 5.29468L13.2247 5.59698L13.3837 5.10789L12.9675 4.8055H13.4818L13.6408 4.31641Z" fill="#F0F0F0"/>
<path d="M15.2826 4.31641L15.4415 4.8055H15.9559L15.5398 5.10789L15.6987 5.59698L15.2826 5.29468L14.8665 5.59698L15.0254 5.10789L14.6094 4.8055H15.1236L15.2826 4.31641Z" fill="#F0F0F0"/>
<path d="M11.9992 2.6084L12.1581 3.09759H12.6725L12.2564 3.39988L12.4153 3.88907L11.9992 3.58677L11.5831 3.88907L11.7421 3.39988L11.3259 3.09759H11.8403L11.9992 2.6084Z" fill="#F0F0F0"/>
<path d="M13.6408 2.6084L13.7998 3.09759H14.3141L13.898 3.39988L14.057 3.88907L13.6408 3.58677L13.2247 3.88907L13.3837 3.39988L12.9675 3.09759H13.4818L13.6408 2.6084Z" fill="#F0F0F0"/>
<path d="M15.2826 2.6084L15.4415 3.09759H15.9559L15.5398 3.39988L15.6987 3.88907L15.2826 3.58677L14.8665 3.88907L15.0254 3.39988L14.6094 3.09759H15.1236L15.2826 2.6084Z" fill="#F0F0F0"/>
</g>
</svg>
