<svg width="25" height="24" viewBox="0 0 25 24" fill="none" xmlns="http://www.w3.org/2000/svg">
<mask id="mask0_1_2001" style="mask-type:luminance" maskUnits="userSpaceOnUse" x="0" y="0" width="25" height="25">
<path d="M24.5781 0.000976562H0.578125V24.001H24.5781V0.000976562Z" fill="white"/>
</mask>
<g mask="url(#mask0_1_2001)">
<path d="M18.3172 1.46006C16.6123 0.529868 14.6569 0.000976562 12.578 0.000976562C10.4991 0.000976562 8.54379 0.529868 6.83889 1.46006L5.79541 12.001L6.83889 22.5419C8.54379 23.4721 10.4991 24.001 12.578 24.001C14.6569 24.001 16.6123 23.4721 18.3172 22.5419L19.3607 12.001L18.3172 1.46006Z" fill="#FFDA44"/>
<path d="M6.83898 22.5418V1.45996C3.10886 3.49527 0.578125 7.45241 0.578125 12.0009C0.578125 16.5494 3.10886 20.5066 6.83898 22.5418Z" fill="#338AF3"/>
<path d="M24.5782 12.0009C24.5782 7.45241 22.0475 3.49527 18.3174 1.45996V22.5418C22.0475 20.5066 24.5782 16.5494 24.5782 12.0009Z" fill="#6DA544"/>
<path d="M9.96934 15.131L7.88232 12.0006L9.96929 8.87012L12.0564 12.0006L9.96934 15.131Z" fill="#6DA544"/>
<path d="M15.1866 15.131L13.0996 12.0006L15.1866 8.87012L17.2735 12.0006L15.1866 15.131Z" fill="#6DA544"/>
<path d="M12.5782 19.3058L10.4912 16.1753L12.5782 13.0449L14.6651 16.1753L12.5782 19.3058Z" fill="#6DA544"/>
</g>
</svg>
