<svg width="24" height="24" viewBox="0 0 24 24" fill="none" xmlns="http://www.w3.org/2000/svg">
<mask id="mask0_1_2367" style="mask-type:luminance" maskUnits="userSpaceOnUse" x="0" y="0" width="24" height="24">
<path d="M24 0H0V24H24V0Z" fill="white"/>
</mask>
<g mask="url(#mask0_1_2367)">
<path d="M22.8093 17.2175C23.5722 15.6399 24 13.87 24 12.0001C24 10.1302 23.5722 8.36037 22.8093 6.78274L12 5.73926L1.19072 6.78274C0.427828 8.36037 0 10.1302 0 12.0001C0 13.87 0.427828 15.6399 1.19072 17.2175L12 18.261L22.8093 17.2175Z" fill="#0052B4"/>
<path d="M12 24.0004C16.7574 24.0004 20.8682 21.2317 22.8092 17.2178H1.19067C3.13167 21.2317 7.24242 24.0004 12 24.0004Z" fill="#D80027"/>
<path d="M20.7829 14.3557L20.1491 14.851L20.4241 15.6067L19.7572 15.157L19.1234 15.6522L19.345 14.879L18.6782 14.4292L19.4821 14.4011L19.7039 13.6279L19.9791 14.3837L20.7829 14.3557Z" fill="#F0F0F0"/>
<path d="M19.1598 11.5444L18.7336 12.2266L19.2507 12.8426L18.4702 12.6483L18.0439 13.3303L17.9877 12.5279L17.2073 12.3333L17.9531 12.0319L17.8971 11.2295L18.4141 11.8458L19.1598 11.5444Z" fill="#F0F0F0"/>
<path d="M16.6731 9.45801L16.506 10.2448L17.2025 10.647L16.4026 10.7313L16.2354 11.5179L15.9082 10.7832L15.1082 10.8671L15.706 10.3289L15.3789 9.59418L16.0754 9.99627L16.6731 9.45801Z" fill="#F0F0F0"/>
<path d="M13.6228 8.34766L13.7349 9.1442L14.527 9.2838L13.8041 9.63658L13.916 10.4331L13.3573 9.85445L12.6342 10.207L13.0119 9.49675L12.4531 8.91822L13.2453 9.05786L13.6228 8.34766Z" fill="#F0F0F0"/>
<path d="M10.377 8.34766L10.7547 9.05786L11.5467 8.91812L10.988 9.49689L11.3655 10.2071L10.6426 9.85445L10.0838 10.4329L10.1959 9.63658L9.4729 9.28398L10.265 9.1442L10.377 8.34766Z" fill="#F0F0F0"/>
<path d="M7.32687 9.45801L7.92472 9.99627L8.62114 9.59418L8.29409 10.3292L8.89179 10.8673L8.09187 10.7832L7.76459 11.5179L7.59758 10.7312L6.79761 10.6472L7.49417 10.2449L7.32687 9.45801Z" fill="#F0F0F0"/>
<path d="M4.84022 11.5443L5.58614 11.8456L6.10298 11.2295L6.04706 12.032L6.79275 12.3334L6.01232 12.5279L5.95612 13.3301L5.53003 12.6482L4.74951 12.8426L5.26654 12.2265L4.84022 11.5443Z" fill="#F0F0F0"/>
<path d="M3.21729 14.3556L4.02129 14.3836L4.29625 13.6279L4.51821 14.4012L5.32197 14.4293L4.65513 14.8791L4.87675 15.6522L4.243 15.157L3.57611 15.6067L3.85122 14.8509L3.21729 14.3556Z" fill="#F0F0F0"/>
<path d="M22.8092 6.78262C20.8682 2.76867 16.7574 0 12 0C7.24242 0 3.13167 2.76867 1.19067 6.78262H22.8092Z" fill="#FFDA44"/>
</g>
</svg>
