<svg width="24" height="25" viewBox="0 0 24 25" fill="none" xmlns="http://www.w3.org/2000/svg">
<mask id="mask0_1_2961" style="mask-type:luminance" maskUnits="userSpaceOnUse" x="0" y="0" width="24" height="25">
<path d="M24 0.480469H0V24.4805H24V0.480469Z" fill="white"/>
</mask>
<g mask="url(#mask0_1_2961)">
<path d="M12 24.4804C18.6274 24.4804 24 19.1079 24 12.4804C24 5.85307 18.6274 0.480469 12 0.480469C5.37258 0.480469 0 5.85307 0 12.4804C0 19.1079 5.37258 24.4804 12 24.4804Z" fill="#012169"/>
</g>
<mask id="mask1_1_2961" style="mask-type:alpha" maskUnits="userSpaceOnUse" x="0" y="0" width="24" height="25">
<path d="M12 24.4805C18.6274 24.4805 24 19.1079 24 12.4805C24 5.85305 18.6274 0.480469 12 0.480469C5.37258 0.480469 0 5.85305 0 12.4805C0 19.1079 5.37258 24.4805 12 24.4805Z" fill="#D9D9D9"/>
</mask>
<g mask="url(#mask1_1_2961)">
<path d="M1.07568 0.480469H15.847V7.86617H1.07568V0.480469Z" fill="#012169"/>
<path d="M1.07568 0.480469V1.30619L14.1956 7.86617H15.847V7.04042L2.72712 0.480469H1.07568ZM15.847 0.480469V1.30619L2.72712 7.86617H1.07568V7.04042L14.1956 0.480469H15.847Z" fill="white"/>
<path d="M7.2304 0.480469V7.86617H9.69233V0.480469H7.2304ZM1.07568 2.94236V5.40424H15.847V2.94236H1.07568Z" fill="white"/>
<path d="M1.07568 3.43474V4.91187H15.847V3.43474H1.07568ZM7.72278 0.480469V7.86617H9.1999V0.480469H7.72278ZM1.07568 7.86617L5.99947 5.40424H7.10042L2.17664 7.86617H1.07568ZM1.07568 0.480469L5.99947 2.94236H4.89851L1.07568 1.03095V0.480469ZM9.82231 2.94236L14.7461 0.480469H15.847L10.9233 2.94236H9.82231ZM15.847 7.86617L10.9233 5.40424H12.0242L15.847 7.31567V7.86617Z" fill="#C8102E"/>
<path d="M13.0768 10.4764L20.1487 10.4502L20.1355 16.7479C20.1355 16.7479 20.3848 17.7057 17.1703 19.1621C18.3249 19.044 19.5845 17.8107 19.5845 17.8107C19.5845 17.8107 20.0962 17.1547 20.3454 17.522C20.5947 17.8894 20.8309 18.0731 21.0146 18.2174C21.1983 18.3617 21.3426 18.7553 21.0671 19.044C20.7915 19.3326 20.3586 19.372 20.2405 19.0177C20.0568 19.1096 18.9285 20.4741 16.6193 20.5397C14.2708 20.5003 12.985 19.0046 12.985 19.0046C12.985 19.0046 12.6701 19.5032 12.224 19.1096C11.791 18.5979 12.119 18.2699 12.119 18.2699C12.119 18.2699 12.4864 18.06 12.5914 17.9156C12.7619 17.7188 12.8144 17.4564 13.1031 17.4564C13.4442 17.4827 13.5754 17.7582 13.5754 17.7582C13.5754 17.7582 14.7562 19.0046 16.0289 19.1621C13.1557 17.7844 13.0507 16.9315 13.0638 16.7216L13.0769 10.4764L13.0768 10.4764Z" fill="white"/>
<path d="M13.2474 10.6468L19.9913 10.6074V16.669C20.0044 17.4562 18.6792 18.2566 16.6062 19.28C14.4676 18.1778 13.2343 17.5087 13.2212 16.6559L13.2474 10.6468Z" fill="#006129" stroke="black" stroke-width="1.8873"/>
<path d="M14.165 11.5426L14.5631 10.958L14.9631 11.5439" stroke="#FFC72C" stroke-width="1.8873"/>
<path d="M14.6432 11.3242C14.6432 11.3679 14.6078 11.4033 14.5641 11.4033C14.5205 11.4033 14.4851 11.3679 14.4851 11.3242C14.4851 11.2805 14.5205 11.2451 14.5641 11.2451C14.6078 11.2451 14.6432 11.2805 14.6432 11.3242Z" fill="#FFC72C" stroke="black" stroke-width="0.9437"/>
<path d="M14.24 11.9742L14.8571 11.976C14.8571 11.976 14.8668 11.8959 14.7927 11.8472C15.1159 11.8028 15.0319 11.5177 15.3026 11.5015C15.3552 11.5096 15.1612 11.6227 15.1612 11.6227C15.1612 11.6227 14.998 11.7379 15.0723 11.7964C15.1314 11.8429 15.1572 11.7682 15.1653 11.7116C15.1734 11.655 15.4279 11.6187 15.3916 11.4571C15.331 11.3237 14.9754 11.5459 14.9754 11.5459L14.7217 11.5445C14.7059 11.5161 14.636 11.4019 14.5637 11.4014C14.4781 11.4045 14.4178 11.5459 14.4178 11.5459H14.0501H13.844C13.844 11.5459 13.8243 11.6932 14.1153 11.7214C14.1808 11.807 14.2315 11.8309 14.2885 11.853C14.2505 11.8846 14.2398 11.9229 14.24 11.9742Z" fill="#FFC72C" stroke="black" stroke-width="0.9437"/>
<path d="M14.2844 11.8494L14.7985 11.8477" stroke="black" stroke-width="0.9437"/>
<path d="M14.0488 11.5459C14.0488 11.5459 14.0899 11.7863 14.2797 11.8432L14.0488 11.5459Z" fill="#FFC72C"/>
<path d="M14.0488 11.5459C14.0488 11.5459 14.0899 11.7863 14.2797 11.8432" stroke="black" stroke-width="0.9437"/>
<path d="M14.0173 11.5433C14.0363 11.4516 14.071 11.4358 14.109 11.3187C14.1153 11.2049 14.0173 11.2175 14.0457 11.1447C14.0963 11.0657 14.071 10.9898 13.9762 10.9297C13.9951 11.0341 13.8528 11.1321 13.8528 11.2175C13.8528 11.303 13.9255 11.284 13.9161 11.4137C13.9223 11.4896 13.8971 11.4706 13.8908 11.5433H14.0173Z" fill="#EB5757" stroke="black" stroke-width="0.9437"/>
<path d="M14.6367 10.9732C14.6367 11.0134 14.6041 11.0459 14.564 11.0459C14.5237 11.0459 14.4912 11.0134 14.4912 10.9732C14.4912 10.933 14.5237 10.9004 14.564 10.9004C14.6041 10.9004 14.6367 10.933 14.6367 10.9732Z" fill="#FFC72C" stroke="black" stroke-width="0.9437"/>
<path d="M14.1433 12.7096L14.5414 12.125L14.9414 12.7108" stroke="#FFC72C" stroke-width="1.8873"/>
<path d="M14.6212 12.4912C14.6213 12.5348 14.5859 12.5703 14.5422 12.5703C14.4985 12.5703 14.4631 12.5348 14.4631 12.4912C14.4631 12.4475 14.4985 12.4121 14.5422 12.4121C14.5859 12.4121 14.6213 12.4475 14.6212 12.4912Z" fill="#FFC72C" stroke="black" stroke-width="0.9437"/>
<path d="M14.218 13.1412L14.8352 13.143C14.8352 13.143 14.8448 13.0629 14.7707 13.0142C15.0939 12.9697 15.01 12.6846 15.2807 12.6685C15.3332 12.6765 15.1392 12.7897 15.1392 12.7897C15.1392 12.7897 14.976 12.9049 15.0504 12.9634C15.1093 13.0099 15.1352 12.9352 15.1433 12.8786C15.1514 12.822 15.4059 12.7856 15.3695 12.624C15.3089 12.4907 14.9534 12.7129 14.9534 12.7129L14.6997 12.7115C14.6839 12.683 14.614 12.5689 14.5418 12.5684C14.4561 12.5715 14.3958 12.7129 14.3958 12.7129H14.0281H13.8221C13.8221 12.7129 13.8024 12.8601 14.0933 12.8884C14.1588 12.974 14.2096 12.9979 14.2665 13.02C14.2286 13.0516 14.2179 13.0899 14.218 13.1412Z" fill="#FFC72C" stroke="black" stroke-width="0.9437"/>
<path d="M14.2625 13.0155L14.7764 13.0137" stroke="black" stroke-width="0.9437"/>
<path d="M14.0271 12.7129C14.0271 12.7129 14.0682 12.9533 14.258 13.0102L14.0271 12.7129Z" fill="#FFC72C"/>
<path d="M14.0271 12.7129C14.0271 12.7129 14.0682 12.9533 14.258 13.0102" stroke="black" stroke-width="0.9437"/>
<path d="M13.9955 12.7094C14.0145 12.6177 14.0493 12.6019 14.0873 12.4848C14.0936 12.3709 13.9955 12.3836 14.024 12.3108C14.0746 12.2317 14.0493 12.1558 13.9544 12.0957C13.9734 12.2001 13.8311 12.2982 13.8311 12.3836C13.8311 12.469 13.9038 12.45 13.8943 12.5797C13.9006 12.6556 13.8753 12.6366 13.869 12.7094H13.9955Z" fill="#EB5757" stroke="black" stroke-width="0.9437"/>
<path d="M14.6149 12.1401C14.6149 12.1803 14.5824 12.2129 14.5422 12.2129C14.502 12.2129 14.4694 12.1803 14.4695 12.1401C14.4694 12.1 14.502 12.0674 14.5422 12.0674C14.5824 12.0674 14.6149 12.1 14.6149 12.1401Z" fill="#FFC72C" stroke="black" stroke-width="0.9437"/>
<path d="M14.1343 13.859L14.5323 13.2744L14.9324 13.8603" stroke="#FFC72C" stroke-width="1.8873"/>
<path d="M14.6122 13.6406C14.6123 13.6843 14.5769 13.7197 14.5332 13.7197C14.4895 13.7197 14.4541 13.6843 14.4541 13.6406C14.4541 13.5969 14.4895 13.5615 14.5332 13.5615C14.5769 13.5615 14.6123 13.5969 14.6122 13.6406Z" fill="#FFC72C" stroke="black" stroke-width="0.9437"/>
<path d="M14.2092 14.2906L14.8264 14.2924C14.8264 14.2924 14.836 14.2123 14.7619 14.1636C15.0851 14.1192 15.0012 13.8341 15.2719 13.8179C15.3244 13.826 15.1305 13.9391 15.1305 13.9391C15.1305 13.9391 14.9672 14.0543 15.0416 14.1128C15.1006 14.1593 15.1264 14.0846 15.1345 14.028C15.1426 13.9715 15.3971 13.9351 15.3608 13.7735C15.3001 13.6401 14.9446 13.8623 14.9446 13.8623L14.6909 13.8609C14.6751 13.8325 14.6052 13.7183 14.533 13.7178C14.4473 13.7209 14.387 13.8623 14.387 13.8623H14.0193H13.8133C13.8133 13.8623 13.7936 14.0096 14.0845 14.0378C14.15 14.1234 14.2008 14.1473 14.2577 14.1694C14.2198 14.2011 14.2091 14.2394 14.2092 14.2906Z" fill="#FFC72C" stroke="black" stroke-width="0.9437"/>
<path d="M14.2537 14.1658L14.7676 14.1641" stroke="black" stroke-width="0.9437"/>
<path d="M14.0181 13.8623C14.0181 13.8623 14.0592 14.1027 14.249 14.1596L14.0181 13.8623Z" fill="#FFC72C"/>
<path d="M14.0181 13.8623C14.0181 13.8623 14.0592 14.1027 14.249 14.1596" stroke="black" stroke-width="0.9437"/>
<path d="M13.9865 13.8588C14.0055 13.767 14.0403 13.7512 14.0782 13.6342C14.0846 13.5203 13.9865 13.533 14.015 13.4602C14.0656 13.3811 14.0403 13.3052 13.9454 13.2451C13.9643 13.3495 13.822 13.4476 13.822 13.533C13.822 13.6184 13.8948 13.5994 13.8853 13.7291C13.8916 13.805 13.8663 13.786 13.8599 13.8588H13.9865Z" fill="#EB5757" stroke="black" stroke-width="0.9437"/>
<path d="M14.6059 13.2895C14.6059 13.3297 14.5733 13.3623 14.5332 13.3623C14.493 13.3623 14.4604 13.3297 14.4604 13.2895C14.4604 13.2494 14.493 13.2168 14.5332 13.2168C14.5733 13.2168 14.6059 13.2494 14.6059 13.2895Z" fill="#FFC72C" stroke="black" stroke-width="0.9437"/>
<path d="M14.8889 15.1042L15.287 14.5195L15.687 15.1054" stroke="#FFC72C" stroke-width="1.8873"/>
<path d="M15.3668 14.8857C15.3668 14.9294 15.3315 14.9648 15.2878 14.9648C15.2441 14.9648 15.2087 14.9294 15.2087 14.8857C15.2087 14.842 15.2441 14.8066 15.2878 14.8066C15.3315 14.8066 15.3668 14.842 15.3668 14.8857Z" fill="#FFC72C" stroke="black" stroke-width="0.9437"/>
<path d="M14.9636 15.5358L15.5808 15.5375C15.5808 15.5375 15.5904 15.4575 15.5163 15.4088C15.8395 15.3643 15.7556 15.0792 16.0263 15.0631C16.0788 15.0711 15.8848 15.1842 15.8848 15.1842C15.8848 15.1842 15.7216 15.2995 15.796 15.358C15.855 15.4045 15.8808 15.3297 15.8889 15.2732C15.897 15.2166 16.1515 15.1802 16.1151 15.0186C16.0546 14.8853 15.699 15.1075 15.699 15.1075L15.4453 15.1061C15.4295 15.0776 15.3596 14.9635 15.2874 14.9629C15.2017 14.966 15.1414 15.1075 15.1414 15.1075H14.7737H14.5677C14.5677 15.1075 14.548 15.2547 14.8389 15.283C14.9044 15.3685 14.9552 15.3924 15.0121 15.4146C14.9742 15.4462 14.9635 15.4845 14.9636 15.5358Z" fill="#FFC72C" stroke="black" stroke-width="0.9437"/>
<path d="M15.0081 15.4109L15.5221 15.4092" stroke="black" stroke-width="0.9437"/>
<path d="M14.7727 15.1074C14.7727 15.1074 14.8138 15.3478 15.0036 15.4048L14.7727 15.1074Z" fill="#FFC72C"/>
<path d="M14.7727 15.1074C14.7727 15.1074 14.8138 15.3478 15.0036 15.4048" stroke="black" stroke-width="0.9437"/>
<path d="M14.7411 15.1049C14.7601 15.0132 14.7949 14.9973 14.8329 14.8803C14.8392 14.7664 14.7411 14.7791 14.7696 14.7063C14.8202 14.6272 14.7949 14.5513 14.7 14.4912C14.719 14.5956 14.5767 14.6937 14.5767 14.7791C14.5767 14.8645 14.6494 14.8455 14.6399 14.9752C14.6462 15.0511 14.621 15.0321 14.6146 15.1049H14.7411Z" fill="#EB5757" stroke="black" stroke-width="0.9437"/>
<path d="M15.3605 14.5347C15.3605 14.5748 15.328 14.6074 15.2878 14.6074C15.2476 14.6074 15.2151 14.5748 15.2151 14.5347C15.2151 14.4945 15.2476 14.4619 15.2878 14.4619C15.328 14.4619 15.3605 14.4945 15.3605 14.5347Z" fill="#FFC72C" stroke="black" stroke-width="0.9437"/>
<path d="M14.0359 16.1227L14.4339 15.5381L14.8339 16.124" stroke="#FFC72C" stroke-width="1.8873"/>
<path d="M14.5138 15.9043C14.5138 15.948 14.4784 15.9834 14.4347 15.9834C14.3911 15.9834 14.3557 15.948 14.3557 15.9043C14.3557 15.8606 14.3911 15.8252 14.4347 15.8252C14.4784 15.8252 14.5138 15.8606 14.5138 15.9043Z" fill="#FFC72C" stroke="black" stroke-width="0.9437"/>
<path d="M14.1108 16.5543L14.728 16.5561C14.728 16.5561 14.7376 16.476 14.6635 16.4273C14.9868 16.3828 14.9028 16.0977 15.1735 16.0816C15.226 16.0896 15.0321 16.2028 15.0321 16.2028C15.0321 16.2028 14.8688 16.318 14.9432 16.3765C15.0022 16.423 15.028 16.3482 15.0361 16.2917C15.0442 16.2351 15.2987 16.1988 15.2624 16.0371C15.2018 15.9038 14.8462 16.126 14.8462 16.126L14.5926 16.1246C14.5767 16.0961 14.5068 15.982 14.4346 15.9814C14.349 15.9846 14.2886 16.126 14.2886 16.126H13.9209H13.7149C13.7149 16.126 13.6952 16.2732 13.9861 16.3015C14.0516 16.3871 14.1024 16.411 14.1593 16.4331C14.1214 16.4647 14.1107 16.503 14.1108 16.5543Z" fill="#FFC72C" stroke="black" stroke-width="0.9437"/>
<path d="M14.1553 16.4295L14.6693 16.4277" stroke="black" stroke-width="0.9437"/>
<path d="M13.9197 16.126C13.9197 16.126 13.9608 16.3664 14.1506 16.4233L13.9197 16.126Z" fill="#FFC72C"/>
<path d="M13.9197 16.126C13.9197 16.126 13.9608 16.3664 14.1506 16.4233" stroke="black" stroke-width="0.9437"/>
<path d="M13.8881 16.1234C13.9071 16.0317 13.9419 16.0159 13.9799 15.8988C13.9862 15.785 13.8881 15.7976 13.9166 15.7249C13.9672 15.6457 13.9419 15.5699 13.847 15.5098C13.866 15.6142 13.7236 15.7122 13.7236 15.7976C13.7236 15.883 13.7964 15.864 13.7869 15.9937C13.7932 16.0696 13.7679 16.0507 13.7616 16.1234H13.8881Z" fill="#EB5757" stroke="black" stroke-width="0.9437"/>
<path d="M14.5075 15.5532C14.5076 15.5934 14.475 15.626 14.4348 15.626C14.3946 15.626 14.3621 15.5934 14.3621 15.5532C14.3621 15.513 14.3946 15.4805 14.4348 15.4805C14.475 15.4805 14.5076 15.513 14.5075 15.5532Z" fill="#FFC72C" stroke="black" stroke-width="0.9437"/>
<path d="M14.0583 17.3258L14.4564 16.7412L14.8564 17.3271" stroke="#FFC72C" stroke-width="1.8873"/>
<path d="M14.5363 17.1074C14.5363 17.1511 14.5009 17.1865 14.4572 17.1865C14.4136 17.1865 14.3782 17.1511 14.3782 17.1074C14.3782 17.0637 14.4136 17.0283 14.4572 17.0283C14.5009 17.0283 14.5363 17.0637 14.5363 17.1074Z" fill="#FFC72C" stroke="black" stroke-width="0.9437"/>
<path d="M14.1331 17.7574L14.7502 17.7592C14.7502 17.7592 14.7599 17.6791 14.6858 17.6304C15.009 17.586 14.925 17.3009 15.1957 17.2847C15.2483 17.2928 15.0543 17.4059 15.0543 17.4059C15.0543 17.4059 14.8911 17.5211 14.9654 17.5796C15.0244 17.6261 15.0503 17.5514 15.0584 17.4948C15.0664 17.4382 15.321 17.4019 15.2846 17.2403C15.224 17.1069 14.8684 17.3291 14.8684 17.3291L14.6148 17.3277C14.5989 17.2993 14.529 17.1851 14.4569 17.1846C14.3712 17.1877 14.3108 17.3291 14.3108 17.3291H13.9432H13.7371C13.7371 17.3291 13.7175 17.4764 14.0084 17.5046C14.0738 17.5902 14.1246 17.6141 14.1816 17.6362C14.1436 17.6679 14.1329 17.7061 14.1331 17.7574Z" fill="#FFC72C" stroke="black" stroke-width="0.9437"/>
<path d="M14.1775 17.6326L14.6915 17.6309" stroke="black" stroke-width="0.9437"/>
<path d="M13.9421 17.3291C13.9421 17.3291 13.9832 17.5695 14.173 17.6264L13.9421 17.3291Z" fill="#FFC72C"/>
<path d="M13.9421 17.3291C13.9421 17.3291 13.9832 17.5695 14.173 17.6264" stroke="black" stroke-width="0.9437"/>
<path d="M13.9106 17.3265C13.9296 17.2348 13.9643 17.219 14.0023 17.102C14.0086 16.9881 13.9106 17.0007 13.9391 16.928C13.9897 16.8489 13.9643 16.773 13.8695 16.7129C13.8885 16.8173 13.7461 16.9153 13.7461 17.0007C13.7461 17.0862 13.8188 17.0672 13.8094 17.1969C13.8157 17.2728 13.7904 17.2538 13.7841 17.3265H13.9106Z" fill="#EB5757" stroke="black" stroke-width="0.9437"/>
<path d="M14.53 16.7564C14.53 16.7966 14.4974 16.8291 14.4573 16.8291C14.4171 16.8291 14.3845 16.7966 14.3845 16.7564C14.3845 16.7162 14.4171 16.6836 14.4573 16.6836C14.4974 16.6836 14.53 16.7162 14.53 16.7564Z" fill="#FFC72C" stroke="black" stroke-width="0.9437"/>
<path d="M18.2964 11.5622L18.6944 10.9775L19.0945 11.5634" stroke="#FFC72C" stroke-width="1.8873"/>
<path d="M18.7743 11.3437C18.7743 11.3874 18.7389 11.4228 18.6952 11.4228C18.6516 11.4228 18.6162 11.3874 18.6162 11.3437C18.6162 11.3001 18.6516 11.2646 18.6952 11.2646C18.7389 11.2646 18.7743 11.3001 18.7743 11.3437Z" fill="#FFC72C" stroke="black" stroke-width="0.9437"/>
<path d="M18.3711 11.9938L18.9882 11.9955C18.9882 11.9955 18.9979 11.9154 18.9237 11.8668C19.247 11.8223 19.163 11.5372 19.4337 11.521C19.4863 11.5291 19.2923 11.6422 19.2923 11.6422C19.2923 11.6422 19.1291 11.7574 19.2034 11.816C19.2625 11.8625 19.2883 11.7877 19.2964 11.7312C19.3045 11.6746 19.559 11.6382 19.5226 11.4766C19.462 11.3433 19.1065 11.5655 19.1065 11.5655L18.8528 11.5641C18.837 11.5356 18.767 11.4214 18.6949 11.4209C18.6092 11.424 18.5489 11.5655 18.5489 11.5655H18.1812H17.9751C17.9751 11.5655 17.9554 11.7127 18.2464 11.741C18.3119 11.8265 18.3626 11.8504 18.4196 11.8725C18.3816 11.9042 18.3709 11.9425 18.3711 11.9938Z" fill="#FFC72C" stroke="black" stroke-width="0.9437"/>
<path d="M18.4155 11.8679L18.9295 11.8662" stroke="black" stroke-width="0.9437"/>
<path d="M18.1802 11.5654C18.1802 11.5654 18.2213 11.8059 18.4111 11.8628L18.1802 11.5654Z" fill="#FFC72C"/>
<path d="M18.1802 11.5654C18.1802 11.5654 18.2213 11.8059 18.4111 11.8628" stroke="black" stroke-width="0.9437"/>
<path d="M18.1486 11.5619C18.1676 11.4702 18.2024 11.4544 18.2403 11.3373C18.2467 11.2234 18.1486 11.2361 18.1771 11.1634C18.2277 11.0843 18.2024 11.0083 18.1075 10.9482C18.1264 11.0526 17.9841 11.1507 17.9841 11.2361C17.9841 11.3215 18.0569 11.3025 18.0474 11.4322C18.0537 11.5081 18.0284 11.4892 18.0221 11.5619H18.1486Z" fill="#EB5757" stroke="black" stroke-width="0.9437"/>
<path d="M18.768 10.9917C18.768 11.0319 18.7354 11.0644 18.6953 11.0644C18.6551 11.0644 18.6225 11.0319 18.6226 10.9917C18.6225 10.9515 18.6551 10.9189 18.6953 10.9189C18.7354 10.9189 18.768 10.9515 18.768 10.9917Z" fill="#FFC72C" stroke="black" stroke-width="0.9437"/>
<path d="M18.2583 12.7067L18.6564 12.1221L19.0564 12.7079" stroke="#FFC72C" stroke-width="1.8873"/>
<path d="M18.7362 12.4883C18.7362 12.5319 18.7008 12.5673 18.6572 12.5673C18.6135 12.5673 18.5781 12.5319 18.5781 12.4883C18.5781 12.4446 18.6135 12.4092 18.6572 12.4092C18.7008 12.4092 18.7362 12.4446 18.7362 12.4883Z" fill="#FFC72C" stroke="black" stroke-width="0.9437"/>
<path d="M18.3333 13.1383L18.9504 13.1401C18.9504 13.1401 18.9601 13.06 18.8859 13.0113C19.2092 12.9668 19.1252 12.6817 19.3959 12.6656C19.4484 12.6736 19.2545 12.7868 19.2545 12.7868C19.2545 12.7868 19.0913 12.9019 19.1656 12.9605C19.2246 13.007 19.2504 12.9322 19.2586 12.8756C19.2666 12.8191 19.5212 12.7827 19.4848 12.6211C19.4242 12.4878 19.0686 12.71 19.0686 12.71L18.815 12.7086C18.7991 12.6801 18.7292 12.5659 18.6571 12.5654C18.5714 12.5685 18.511 12.71 18.511 12.71H18.1434H17.9373C17.9373 12.71 17.9176 12.8572 18.2086 12.8855C18.274 12.971 18.3248 12.9949 18.3818 13.0171C18.3438 13.0487 18.3331 13.087 18.3333 13.1383Z" fill="#FFC72C" stroke="black" stroke-width="0.9437"/>
<path d="M18.3777 13.0135L18.8917 13.0117" stroke="black" stroke-width="0.9437"/>
<path d="M18.1423 12.71C18.1423 12.71 18.1834 12.9504 18.3732 13.0073L18.1423 12.71Z" fill="#FFC72C"/>
<path d="M18.1423 12.71C18.1423 12.71 18.1834 12.9504 18.3732 13.0073" stroke="black" stroke-width="0.9437"/>
<path d="M18.1105 12.7074C18.1295 12.6157 18.1643 12.5999 18.2023 12.4828C18.2086 12.369 18.1105 12.3816 18.139 12.3088C18.1896 12.2297 18.1643 12.1538 18.0694 12.0938C18.0884 12.1981 17.946 12.2962 17.946 12.3816C17.946 12.467 18.0188 12.448 18.0093 12.5777C18.0157 12.6536 17.9903 12.6346 17.984 12.7074H18.1105Z" fill="#EB5757" stroke="black" stroke-width="0.9437"/>
<path d="M18.7299 12.1373C18.73 12.1774 18.6974 12.21 18.6572 12.21C18.6171 12.21 18.5845 12.1774 18.5845 12.1373C18.5845 12.097 18.6171 12.0645 18.6572 12.0645C18.6974 12.0645 18.73 12.097 18.7299 12.1373Z" fill="#FFC72C" stroke="black" stroke-width="0.9437"/>
<path d="M18.2078 13.8776L18.6058 13.293L19.0059 13.8788" stroke="#FFC72C" stroke-width="1.8873"/>
<path d="M18.6857 13.6582C18.6857 13.7018 18.6503 13.7373 18.6066 13.7373C18.563 13.7373 18.5276 13.7018 18.5276 13.6582C18.5276 13.6145 18.563 13.5791 18.6066 13.5791C18.6503 13.5791 18.6857 13.6145 18.6857 13.6582Z" fill="#FFC72C" stroke="black" stroke-width="0.9437"/>
<path d="M18.2825 14.3092L18.8996 14.311C18.8996 14.311 18.9093 14.2309 18.8352 14.1822C19.1584 14.1378 19.0744 13.8526 19.3451 13.8365C19.3977 13.8446 19.2037 13.9577 19.2037 13.9577C19.2037 13.9577 19.0405 14.0729 19.1148 14.1314C19.1738 14.1779 19.1997 14.1032 19.2078 14.0466C19.2158 13.99 19.4704 13.9536 19.434 13.7921C19.3734 13.6587 19.0178 13.8809 19.0178 13.8809L18.7642 13.8795C18.7484 13.851 18.6785 13.7369 18.6063 13.7363C18.5206 13.7395 18.4603 13.8809 18.4603 13.8809H18.0926H17.8865C17.8865 13.8809 17.8668 14.0281 18.1578 14.0564C18.2233 14.142 18.274 14.1659 18.331 14.188C18.293 14.2197 18.2823 14.2579 18.2825 14.3092Z" fill="#FFC72C" stroke="black" stroke-width="0.9437"/>
<path d="M18.3269 14.1844L18.8409 14.1826" stroke="black" stroke-width="0.9437"/>
<path d="M18.0916 13.8809C18.0916 13.8809 18.1327 14.1212 18.3225 14.1782L18.0916 13.8809Z" fill="#FFC72C"/>
<path d="M18.0916 13.8809C18.0916 13.8809 18.1327 14.1212 18.3225 14.1782" stroke="black" stroke-width="0.9437"/>
<path d="M18.06 13.8774C18.079 13.7856 18.1138 13.7698 18.1517 13.6528C18.1581 13.5389 18.06 13.5515 18.0884 13.4788C18.1391 13.3997 18.1138 13.3238 18.0189 13.2637C18.0379 13.3681 17.8955 13.4661 17.8955 13.5515C17.8955 13.6369 17.9683 13.618 17.9588 13.7477C17.9651 13.8236 17.9398 13.8046 17.9335 13.8774H18.06Z" fill="#EB5757" stroke="black" stroke-width="0.9437"/>
<path d="M18.6794 13.3071C18.6794 13.3473 18.6469 13.3799 18.6067 13.3799C18.5665 13.3799 18.5339 13.3473 18.5339 13.3071C18.5339 13.267 18.5665 13.2344 18.6067 13.2344C18.6469 13.2344 18.6794 13.267 18.6794 13.3071Z" fill="#FFC72C" stroke="black" stroke-width="0.9437"/>
<path d="M18.2646 15.029L18.6628 14.4443L19.0627 15.0302" stroke="#FFC72C" stroke-width="1.8873"/>
<path d="M18.7426 14.8105C18.7426 14.8542 18.7072 14.8896 18.6635 14.8896C18.6199 14.8896 18.5845 14.8542 18.5845 14.8105C18.5845 14.7669 18.6199 14.7314 18.6635 14.7314C18.7072 14.7314 18.7426 14.7669 18.7426 14.8105Z" fill="#FFC72C" stroke="black" stroke-width="0.9437"/>
<path d="M18.3396 15.4606L18.9567 15.4623C18.9567 15.4623 18.9664 15.3822 18.8923 15.3336C19.2155 15.2891 19.1315 15.004 19.4022 14.9878C19.4548 14.9959 19.2608 15.109 19.2608 15.109C19.2608 15.109 19.0976 15.2242 19.172 15.2828C19.231 15.3293 19.2568 15.2545 19.2649 15.1979C19.273 15.1414 19.5275 15.105 19.4912 14.9434C19.4306 14.8101 19.075 15.0323 19.075 15.0323L18.8213 15.0309C18.8055 15.0024 18.7356 14.8882 18.6634 14.8877C18.5777 14.8908 18.5174 15.0323 18.5174 15.0323H18.1497H17.9436C17.9436 15.0323 17.924 15.1795 18.2149 15.2078C18.2804 15.2933 18.3312 15.3172 18.3881 15.3393C18.3501 15.371 18.3395 15.4093 18.3396 15.4606Z" fill="#FFC72C" stroke="black" stroke-width="0.9437"/>
<path d="M18.384 15.3357L18.8981 15.334" stroke="black" stroke-width="0.9437"/>
<path d="M18.1487 15.0322C18.1487 15.0322 18.1898 15.2726 18.3796 15.3296L18.1487 15.0322Z" fill="#FFC72C"/>
<path d="M18.1487 15.0322C18.1487 15.0322 18.1898 15.2726 18.3796 15.3296" stroke="black" stroke-width="0.9437"/>
<path d="M18.1169 15.0287C18.1359 14.937 18.1706 14.9211 18.2086 14.8041C18.2149 14.6902 18.1169 14.7029 18.1453 14.6301C18.196 14.5511 18.1706 14.4751 18.0758 14.415C18.0948 14.5194 17.9524 14.6175 17.9524 14.7029C17.9524 14.7883 18.0251 14.7693 18.0157 14.899C18.022 14.9749 17.9967 14.9559 17.9904 15.0287H18.1169Z" fill="#EB5757" stroke="black" stroke-width="0.9437"/>
<path d="M18.7363 14.4595C18.7363 14.4996 18.7037 14.5322 18.6636 14.5322C18.6234 14.5322 18.5908 14.4996 18.5908 14.4595C18.5908 14.4193 18.6234 14.3867 18.6636 14.3867C18.7037 14.3867 18.7363 14.4193 18.7363 14.4595Z" fill="#FFC72C" stroke="black" stroke-width="0.9437"/>
<path d="M18.252 16.1803L18.65 15.5957L19.05 16.1815" stroke="#FFC72C" stroke-width="1.8873"/>
<path d="M18.7301 15.9619C18.7301 16.0055 18.6947 16.041 18.6511 16.041C18.6074 16.041 18.572 16.0055 18.572 15.9619C18.572 15.9182 18.6074 15.8828 18.6511 15.8828C18.6947 15.8828 18.7301 15.9182 18.7301 15.9619Z" fill="#FFC72C" stroke="black" stroke-width="0.9437"/>
<path d="M18.3269 16.612L18.9441 16.6137C18.9441 16.6137 18.9537 16.5336 18.8796 16.4849C19.2028 16.4405 19.1189 16.1554 19.3896 16.1392C19.4421 16.1473 19.2481 16.2605 19.2481 16.2605C19.2481 16.2605 19.0849 16.3756 19.1593 16.4342C19.2183 16.4807 19.2441 16.4059 19.2522 16.3493C19.2603 16.2927 19.5148 16.2564 19.4785 16.0948C19.4179 15.9614 19.0623 16.1837 19.0623 16.1837L18.8086 16.1823C18.7928 16.1538 18.7229 16.0396 18.6507 16.0391C18.565 16.0422 18.5047 16.1837 18.5047 16.1837H18.137H17.9309C17.9309 16.1837 17.9113 16.3309 18.2022 16.3592C18.2677 16.4447 18.3185 16.4686 18.3754 16.4907C18.3374 16.5224 18.3268 16.5606 18.3269 16.612Z" fill="#FFC72C" stroke="black" stroke-width="0.9437"/>
<path d="M18.3713 16.4871L18.8854 16.4854" stroke="black" stroke-width="0.9437"/>
<path d="M18.136 16.1836C18.136 16.1836 18.1771 16.424 18.3669 16.481L18.136 16.1836Z" fill="#FFC72C"/>
<path d="M18.136 16.1836C18.136 16.1836 18.1771 16.424 18.3669 16.481" stroke="black" stroke-width="0.9437"/>
<path d="M18.1042 16.1801C18.1232 16.0884 18.1579 16.0726 18.1959 15.9555C18.2022 15.8416 18.1042 15.8543 18.1326 15.7815C18.1833 15.7024 18.1579 15.6265 18.0631 15.5664C18.0821 15.6708 17.9397 15.7689 17.9397 15.8543C17.9397 15.9397 18.0124 15.9207 18.003 16.0504C18.0093 16.1263 17.984 16.1073 17.9777 16.1801H18.1042Z" fill="#EB5757" stroke="black" stroke-width="0.9437"/>
<path d="M18.7236 15.6108C18.7236 15.651 18.691 15.6836 18.6509 15.6836C18.6107 15.6836 18.5781 15.651 18.5781 15.6108C18.5781 15.5707 18.6107 15.5381 18.6509 15.5381C18.691 15.5381 18.7236 15.5707 18.7236 15.6108Z" fill="#FFC72C" stroke="black" stroke-width="0.9437"/>
<path d="M18.2583 17.3376L18.6564 16.7529L19.0564 17.3388" stroke="#FFC72C" stroke-width="1.8873"/>
<path d="M18.7362 17.1191C18.7362 17.1628 18.7008 17.1982 18.6572 17.1982C18.6135 17.1982 18.5781 17.1628 18.5781 17.1191C18.5781 17.0754 18.6135 17.04 18.6572 17.04C18.7008 17.04 18.7362 17.0754 18.7362 17.1191Z" fill="#FFC72C" stroke="black" stroke-width="0.9437"/>
<path d="M18.3333 17.7701L18.9504 17.7719C18.9504 17.7719 18.9601 17.6918 18.8859 17.6431C19.2092 17.5987 19.1252 17.3136 19.3959 17.2974C19.4484 17.3055 19.2545 17.4186 19.2545 17.4186C19.2545 17.4186 19.0913 17.5338 19.1656 17.5923C19.2246 17.6388 19.2504 17.5641 19.2586 17.5075C19.2666 17.4509 19.5212 17.4146 19.4848 17.253C19.4242 17.1196 19.0686 17.3418 19.0686 17.3418L18.815 17.3404C18.7991 17.312 18.7292 17.1978 18.6571 17.1973C18.5714 17.2004 18.511 17.3418 18.511 17.3418H18.1434H17.9373C17.9373 17.3418 17.9176 17.4891 18.2086 17.5173C18.274 17.6029 18.3248 17.6268 18.3818 17.6489C18.3438 17.6805 18.3331 17.7188 18.3333 17.7701Z" fill="#FFC72C" stroke="black" stroke-width="0.9437"/>
<path d="M18.3777 17.6444L18.8917 17.6426" stroke="black" stroke-width="0.9437"/>
<path d="M18.1423 17.3408C18.1423 17.3408 18.1834 17.5812 18.3732 17.6381L18.1423 17.3408Z" fill="#FFC72C"/>
<path d="M18.1423 17.3408C18.1423 17.3408 18.1834 17.5812 18.3732 17.6381" stroke="black" stroke-width="0.9437"/>
<path d="M18.1105 17.3383C18.1295 17.2466 18.1643 17.2308 18.2023 17.1137C18.2086 16.9999 18.1105 17.0125 18.139 16.9397C18.1896 16.8606 18.1643 16.7847 18.0694 16.7246C18.0884 16.829 17.946 16.9271 17.946 17.0125C17.946 17.0979 18.0188 17.0789 18.0093 17.2086C18.0157 17.2845 17.9903 17.2655 17.984 17.3383H18.1105Z" fill="#EB5757" stroke="black" stroke-width="0.9437"/>
<path d="M18.7299 16.7681C18.73 16.8082 18.6974 16.8408 18.6572 16.8408C18.6171 16.8408 18.5845 16.8082 18.5845 16.7681C18.5845 16.7279 18.6171 16.6953 18.6572 16.6953C18.6974 16.6953 18.73 16.7279 18.7299 16.7681Z" fill="#FFC72C" stroke="black" stroke-width="0.9437"/>
<path d="M17.0188 17.8827C17.0188 17.8827 17.1799 18.254 17.3633 18.0259C17.5468 17.7977 17.4796 17.6993 17.4796 17.6993L17.0681 17.4756L16.9473 17.7306L17.0188 17.8827Z" fill="#FFC72C" stroke="black" stroke-width="0.9437"/>
<path d="M17.3723 17.833C17.3723 17.833 17.3991 17.8375 17.4215 17.7972C17.4439 17.757 17.3723 17.7391 17.341 17.6943L17.3052 17.7659L17.3723 17.833Z" fill="#FFC6B5" stroke="black" stroke-width="0.9437"/>
<path d="M16.4417 17.7349L16.0794 17.9318C16.0794 17.9318 15.9004 17.9675 15.887 17.9318C15.8736 17.896 15.8915 17.8646 15.9854 17.8602C16.0794 17.8557 16.3344 17.623 16.3344 17.623L16.4417 17.7349Z" fill="#FFC6B5" stroke="black" stroke-width="0.9437"/>
<path d="M16.4462 11.2979C16.4462 11.2979 16.4552 11.3829 16.4596 11.4276C16.4641 11.4724 16.3881 11.5664 16.3836 11.5619C16.3791 11.5574 16.3433 11.5664 16.3478 11.5932C16.3523 11.62 16.406 11.629 16.406 11.629C16.406 11.629 16.3836 11.7229 16.406 11.7274C16.4283 11.7319 16.3478 11.8482 16.406 11.8795C16.4641 11.9108 16.5625 11.9511 16.6073 11.9421C16.652 11.9332 16.6073 12.1166 16.6073 12.1166L16.482 12.385L17.1709 12.3134L17.0278 12.0853C17.0278 12.0853 16.9607 12.0405 16.9786 11.9108C16.9965 11.7811 16.9696 11.1951 16.9696 11.1951L16.4775 11.1279L16.4462 11.2979Z" fill="#FFC6B5" stroke="black" stroke-width="0.9437"/>
<path d="M16.321 12.3174C16.321 12.3174 16.0973 12.4203 16.1062 12.6976C16.0481 12.966 16.0167 13.2344 16.0167 13.2344C16.0167 13.2344 15.7528 13.5342 15.6723 13.6416C15.5918 13.7489 15.471 13.9681 15.4262 14.0263C15.3815 14.0844 15.2071 14.2768 15.2115 14.3484C15.216 14.42 15.1712 14.7376 15.3457 14.7734C15.3904 14.7913 15.5336 14.4065 15.5336 14.4065C15.5336 14.4065 15.5425 14.241 15.4933 14.2097C15.4442 14.1784 15.6007 14.071 15.6007 14.071C15.6007 14.071 15.9004 13.8518 15.9676 13.7981C16.0346 13.7444 16.2181 13.5387 16.2181 13.5387L16.321 12.3174Z" fill="#FFC6B5" stroke="black" stroke-width="0.9437"/>
<path d="M16.5761 12.1072C16.5761 12.1072 16.6343 12.2638 16.764 12.237C16.8937 12.2101 17.0458 12.0894 17.0458 12.0894C17.0458 12.0894 17.1666 12.0849 17.1845 12.1028C17.2024 12.1207 17.5111 12.4204 17.5021 12.5143C17.4932 12.6083 17.359 12.5814 17.3098 12.644C17.2606 12.7067 17.18 12.8633 17.2024 12.9796C17.2248 13.0959 17.2919 13.248 17.2829 13.3062C17.274 13.3643 17.2248 13.3822 17.2248 13.4135C17.2248 13.4449 17.265 13.4985 17.265 13.5567C17.265 13.6148 17.2114 13.6998 17.2203 13.758C17.2293 13.8162 17.2337 13.9861 17.2337 13.9861L17.2203 14.7735C17.2203 14.7735 17.265 14.8003 17.2695 14.8451C17.274 14.8898 17.5737 16.1916 17.5737 16.1916C17.5737 16.1916 17.5603 16.2319 17.529 16.2274C17.4977 16.2229 17.6498 16.4287 17.6542 16.4869C17.6587 16.545 17.8108 17.0013 17.8063 17.0639C17.8019 17.1266 17.7795 17.2652 17.7661 17.2697C17.7527 17.2742 17.8645 17.556 17.8466 17.6007C17.8287 17.6455 17.6453 17.641 17.6453 17.641L17.5961 17.6321C17.5961 17.6321 17.6006 17.6902 17.5648 17.6947C17.529 17.6992 17.265 17.6813 17.265 17.6813C17.265 17.6813 17.189 17.7976 17.1443 17.7931C17.0995 17.7886 17.0414 17.7081 17.0279 17.7215C17.0145 17.7349 17.0682 17.811 17.0548 17.8334C17.0414 17.8557 16.8132 17.905 16.7685 17.7976C16.7238 17.6902 16.7953 17.717 16.7819 17.6947C16.7685 17.6723 16.6656 17.6142 16.6343 17.6321C16.603 17.65 16.7148 17.6768 16.7103 17.7215C16.7059 17.7663 16.6119 17.8334 16.5761 17.8334C16.5403 17.8334 16.4553 17.6679 16.3301 17.6857C16.2048 17.7036 16.1243 17.7349 16.1243 17.7349C16.1243 17.7349 15.9767 17.7976 15.914 17.7842C15.8514 17.7708 15.8246 17.7215 15.8246 17.6947C15.8246 17.6679 15.8693 17.5515 15.8648 17.5158C15.8604 17.4799 15.8246 17.4442 15.8246 17.3905C15.8246 17.3368 15.9275 17.1534 15.9275 17.1534L15.923 16.3302C15.923 16.3302 15.829 16.3302 15.8246 16.2721C15.8201 16.2139 15.9677 14.9703 15.9901 14.8898C16.0124 14.8092 16.0706 14.5229 16.0706 14.5229C16.0706 14.5229 16.0035 14.5542 15.999 14.5229C15.9946 14.4916 16.2004 13.7803 16.2004 13.7803C16.2004 13.7803 16.2361 13.4269 16.2361 13.333C16.2361 13.239 16.2182 13.1093 16.2182 13.1093C16.2182 13.1093 16.0346 13.0316 16.0303 12.9125C16.0136 12.723 16.2048 12.6172 16.2272 12.5546C16.2495 12.492 16.3167 12.3041 16.3167 12.3041C16.3167 12.3041 16.4151 12.1341 16.5761 12.1072Z" fill="white" stroke="black" stroke-width="0.9437"/>
<path d="M16.5089 17.7884C16.5089 17.7884 16.075 18.0165 16.0123 18.0344C15.9497 18.0523 15.9094 17.9584 15.9721 17.9405C16.0347 17.9226 16.1331 17.9136 16.1331 17.9136C16.1331 17.9136 15.9855 17.7973 15.99 17.7929C15.9945 17.7884 16.1913 17.7168 16.1958 17.7168C16.2003 17.7168 16.2584 17.8331 16.2987 17.8242C16.3389 17.8152 16.4552 17.7258 16.4552 17.7258C16.4552 17.7258 16.5178 17.7973 16.5089 17.7884Z" fill="#FFC72C" stroke="black" stroke-width="0.9437"/>
<path d="M17.1204 17.9139C17.1614 17.9668 17.1774 18.0586 17.2714 18.0049C17.3653 17.9512 17.2233 17.8516 17.2233 17.8516L17.1204 17.9139Z" fill="#FFC6B5" stroke="black" stroke-width="0.9437"/>
<path d="M17.2917 17.9051C17.2917 17.9051 17.3364 17.9409 17.3767 17.9006C17.417 17.8604 17.2962 17.7754 17.2962 17.7754L17.238 17.8425L17.2917 17.9051Z" fill="#FFC6B5" stroke="black" stroke-width="0.9437"/>
<path d="M17.4841 12.5352C17.4886 12.5352 17.6318 12.978 17.6497 13.0899C17.6676 13.2017 17.7257 13.649 17.7033 13.7117C17.681 13.7743 17.4528 14.074 17.426 14.1501C17.3991 14.2261 17.2381 14.5169 17.2381 14.5169C17.2381 14.5169 17.1978 14.8033 17.1799 14.8167C17.162 14.8301 17.2261 14.9003 17.2202 14.924C17.2113 14.9506 17.0904 15.0761 17.0368 15.0627C16.9831 15.0492 16.8981 14.9866 16.8936 14.9285C16.8892 14.8703 16.8981 14.678 16.9384 14.6288C16.9786 14.5796 17.1889 14.083 17.2023 14.0517C17.2157 14.0203 17.3947 13.6311 17.3991 13.5641C17.4036 13.4969 17.3435 13.3418 17.2802 13.2848C17.1394 12.8705 17.1947 12.6206 17.4841 12.5352Z" fill="#FFC6B5" stroke="black" stroke-width="0.9437"/>
<path d="M16.433 11.2711C16.433 11.2711 16.5314 11.2846 16.5851 11.2533C16.6388 11.2219 16.7014 11.2085 16.7461 11.2711C16.7909 11.3337 16.8222 11.3293 16.8222 11.3293C16.8222 11.3293 16.755 11.4948 16.8222 11.5127C16.8893 11.5306 16.9206 11.5306 16.9251 11.553C16.9295 11.5753 16.8669 11.6246 16.8848 11.6469C16.9027 11.6693 16.934 11.6961 16.9385 11.714C16.943 11.7319 16.8982 11.808 16.9117 11.8258C16.9251 11.8437 16.9653 11.9153 16.9921 11.9153C17.019 11.9153 17.0011 12.0272 17.0816 12.0003C17.1622 11.9735 17.1577 11.9019 17.1577 11.9019C17.1577 11.9019 17.2427 11.8885 17.265 11.8124C17.2874 11.7364 17.3411 11.7185 17.3411 11.7185C17.3411 11.7185 17.4485 11.6603 17.3053 11.5709C17.3053 10.9446 16.8938 11.0117 16.8938 11.0117C16.8938 11.0117 16.8445 10.8998 16.764 10.9132C16.6835 10.9267 16.679 11.0206 16.6208 11.0117C16.5627 11.0027 16.5493 10.9624 16.5448 10.9669C16.5403 10.9714 16.4911 11.0609 16.4911 11.0832C16.4911 11.1056 16.3345 11.0519 16.348 11.1682C16.3614 11.2846 16.4374 11.2801 16.433 11.2711Z" fill="#9C5100" stroke="black" stroke-width="0.9437"/>
<path d="M17.1577 12.2822C17.1577 12.2822 16.7595 12.5372 16.7685 12.6267" stroke="black" stroke-width="0.9437"/>
<path d="M17.247 12.3262C17.247 12.3262 17.1575 12.4246 17.1531 12.4246" stroke="black" stroke-width="0.9437"/>
<path d="M17.3679 12.4336C17.3679 12.4336 17.171 12.5947 17.2024 12.6975" stroke="black" stroke-width="0.9437"/>
<path d="M16.4374 12.2598C16.4374 12.2598 16.3792 12.3805 16.3926 12.4208C16.4061 12.461 16.5045 12.6132 16.5179 12.7071C16.5313 12.801 16.5179 12.8682 16.5179 12.8682" stroke="black" stroke-width="0.9437"/>
<path d="M16.3345 12.4834C16.3345 12.4834 16.3524 12.6266 16.3792 12.6534C16.4061 12.6802 16.4776 12.801 16.4866 12.8502" stroke="black" stroke-width="0.9437"/>
<path d="M16.2986 13.0776C16.2986 13.0776 16.4149 13.1358 16.5223 12.9121" stroke="black" stroke-width="0.9437"/>
<path d="M16.6967 12.7559C16.6923 12.7559 16.6118 12.9751 16.7549 13.0556C16.8981 13.1361 17.0054 13.1272 17.068 13.1048C17.1307 13.0824 17.1978 13.0422 17.1978 13.0422" stroke="black" stroke-width="0.9437"/>
<path d="M16.6343 13.0244C16.6343 13.0244 16.6432 13.3197 17.0772 13.6104" stroke="black" stroke-width="0.9437"/>
<path d="M16.6521 13.3018C16.6521 13.3018 16.6476 13.5612 16.8176 13.6776" stroke="black" stroke-width="0.9437"/>
<path d="M16.5627 12.998C16.5627 12.998 16.4329 13.3828 16.3301 13.423" stroke="black" stroke-width="0.9437"/>
<path d="M16.5224 13.2793C16.5224 13.2793 16.5179 13.5567 16.4822 13.6551" stroke="black" stroke-width="0.9437"/>
<path d="M16.4463 13.7221C16.4463 13.7221 16.5358 13.834 16.6342 13.825C16.7326 13.8161 16.7729 13.6998 16.8399 13.7177C16.9071 13.7356 16.9697 13.7893 17.1263 13.7758" stroke="black" stroke-width="0.9437"/>
<path d="M16.9026 13.8926C16.9026 13.8926 16.9026 14.1207 16.9429 14.1431C16.9831 14.1654 16.9652 14.3757 16.9652 14.3757" stroke="black" stroke-width="0.9437"/>
<path d="M16.3568 13.7852C16.3568 13.7852 16.3524 13.9999 16.3255 14.0759C16.2987 14.152 16.245 14.2817 16.2539 14.3935" stroke="black" stroke-width="0.9437"/>
<path d="M16.084 14.5184C16.1063 14.5095 16.1824 14.4424 16.1824 14.4424" stroke="black" stroke-width="0.9437"/>
<path d="M16.2226 14.4922C16.2226 14.4922 16.0302 15.3153 16.0839 15.8074" stroke="black" stroke-width="0.9437"/>
<path d="M16.2673 14.5322C16.2673 14.5322 16.1688 15.1496 16.2136 15.2659" stroke="black" stroke-width="0.9437"/>
<path d="M16.218 14.5137C16.2225 14.5137 16.5938 14.5405 16.5938 14.5405" stroke="black" stroke-width="0.9437"/>
<path d="M16.6477 14.4922C16.6477 14.4922 16.7506 14.5459 16.8938 14.5369" stroke="black" stroke-width="0.9437"/>
<path d="M16.6028 14.792C16.6028 14.792 16.5849 15.8478 16.5581 16.0804" stroke="black" stroke-width="0.9437"/>
<path d="M17.1531 15.0332C17.1531 15.0332 17.2694 15.9592 17.3365 16.0442" stroke="black" stroke-width="0.9437"/>
<path d="M16.9294 15.1494C16.9294 15.1494 17.001 15.9681 17.0413 16.0397" stroke="black" stroke-width="0.9437"/>
<path d="M15.9141 16.3256C15.9141 16.3256 16.0527 16.2809 16.178 16.1467C16.3212 16.339 16.5404 16.1557 16.5404 16.1557C16.5404 16.1557 16.8803 16.3883 17.0325 16.1288C17.2651 16.2809 17.3814 16.1064 17.3814 16.1064C17.3814 16.1064 17.4664 16.2361 17.529 16.2227" stroke="black" stroke-width="0.9437"/>
<path d="M17.1577 16.3125C17.1577 16.3125 17.3322 17.1312 17.5916 17.3638" stroke="black" stroke-width="0.9437"/>
<path d="M16.2585 16.2275C16.2585 16.2275 16.2809 16.912 16.3212 17.3951" stroke="black" stroke-width="0.9437"/>
<path d="M16.2272 17.001C16.2272 17.001 16.2048 17.4483 16.178 17.4796" stroke="black" stroke-width="0.9437"/>
<path d="M15.9631 17.5249C15.9631 17.5249 16.0124 17.7173 16.2584 17.5384C16.5044 17.3594 16.5089 17.6054 16.5179 17.6323C16.5268 17.6591 16.5671 17.8515 16.661 17.6904" stroke="black" stroke-width="0.9437"/>
<path d="M16.8578 17.4261C16.8578 17.4261 16.8176 17.8243 17.171 17.5335C17.5244 17.2427 17.5826 17.529 17.5915 17.6185" stroke="black" stroke-width="0.9437"/>
<path d="M16.8625 11.1182C16.8625 11.1182 16.8311 11.315 17.0414 11.2971C17.0146 11.4045 17.0951 11.4402 17.0951 11.4402" stroke="black" stroke-width="0.9437"/>
<path d="M17.2515 11.5615C17.256 11.5615 17.3455 11.6197 17.2471 11.6913" stroke="black" stroke-width="0.9437"/>
<path d="M16.9475 11.7178C16.9475 11.7178 16.9922 11.7714 17.0414 11.758C17.0907 11.7446 17.1712 11.8073 17.1712 11.8073C17.1712 11.8073 17.2383 11.8296 17.2472 11.8162" stroke="black" stroke-width="0.9437"/>
<path d="M16.6746 11.8885C16.6746 11.8885 16.8267 11.9466 16.9251 11.7051" stroke="black" stroke-width="0.9437"/>
<path d="M16.3926 11.6328L16.4821 11.6373" stroke="black" stroke-width="0.9437"/>
<path d="M15.4001 14.4541L15.4071 14.6501" stroke="black" stroke-width="0.9437"/>
<path d="M15.2163 14.4404C15.2163 14.4404 15.342 14.6507 15.3315 14.7627" stroke="black" stroke-width="0.9437"/>
<path d="M16.406 11.7227H16.4865L16.4149 11.754" stroke="black" stroke-width="0.9437" stroke-linejoin="round"/>
<path d="M16.9009 14.8797C16.9009 14.8797 16.9949 14.8698 16.9919 15.0267C17.0519 14.8318 17.174 14.8271 17.174 14.8271" stroke="black" stroke-width="0.9437" stroke-linejoin="round"/>
<path d="M16.5178 11.4724C16.5312 11.4724 16.5804 11.4545 16.5894 11.4679C16.5984 11.4813 16.5357 11.4902 16.5178 11.4724Z" stroke="black" stroke-width="1.6986" stroke-linejoin="round"/>
<path d="M16.5799 19.3591C18.4692 19.3067 19.6894 17.9421 19.6763 17.929C19.6632 17.9159 19.9256 17.5485 20.1355 17.601C20.3455 17.6535 20.6472 18.2702 21.0146 18.4014C21.1983 18.69 20.9621 18.9524 20.8834 19.0049C20.8046 19.0574 20.4504 19.2017 20.3979 18.9918C20.3455 18.7819 20.2405 18.8212 20.2405 18.8212C20.2405 18.8212 18.5611 20.4612 16.6193 20.3956C14.6119 20.4087 12.9587 18.8212 12.9587 18.8212L12.8144 18.9786C12.8144 18.9786 12.657 19.1492 12.5782 19.1361C12.4995 19.123 12.1584 18.8999 12.1322 18.6769C12.1059 18.4538 12.3421 18.3095 12.3421 18.3095C12.3421 18.3095 12.9194 17.8634 12.985 17.6273C13.1162 17.4961 13.3654 17.7191 13.3654 17.7191C13.3654 17.7191 14.8874 19.4641 16.5799 19.3591Z" fill="#FFC72C" stroke="black" stroke-width="1.8873"/>
<path d="M12.3027 18.3442C12.3027 18.3442 12.4589 18.3025 12.5161 18.3676C12.5733 18.4326 12.9662 18.8177 12.9662 18.8177" stroke="black" stroke-width="1.8873"/>
<path d="M12.6593 18.5264L12.5032 18.6435C12.5032 18.6435 12.8961 18.7215 12.8076 18.9791" stroke="black" stroke-width="1.8873"/>
<path d="M20.874 18.3308C20.874 18.3308 20.7959 18.2891 20.6737 18.3802C20.5514 18.4713 20.2417 18.8174 20.2417 18.8174" stroke="black" stroke-width="1.8873"/>
<path d="M20.5225 18.5156L20.6916 18.6458C20.6916 18.6458 20.3377 18.6691 20.4158 19.0048" stroke="black" stroke-width="1.8873"/>
<path d="M14.3027 18.7603C14.2924 18.79 14.2654 18.7595 14.2429 18.7655C14.1837 18.7677 14.1346 18.8063 14.084 18.8326C13.9107 18.9336 13.7374 19.0347 13.5641 19.1357C13.5466 19.1299 13.5507 19.1158 13.555 19.1016C13.6012 18.8852 13.6492 18.6691 13.6941 18.4525C13.7016 18.4146 13.7136 18.3674 13.677 18.3399C13.6614 18.3292 13.6855 18.3077 13.6955 18.3273C13.7841 18.3905 13.8726 18.4536 13.9612 18.5168C13.9527 18.5418 13.9376 18.5242 13.9225 18.5141C13.8857 18.4787 13.8413 18.5114 13.8424 18.5562C13.8108 18.6988 13.78 18.8417 13.7487 18.9844C13.8663 18.9145 13.9853 18.8468 14.1019 18.7751C14.1435 18.7566 14.1742 18.7008 14.1309 18.6662C14.1145 18.6566 14.0873 18.6301 14.1144 18.6261C14.1772 18.6708 14.2399 18.7156 14.3027 18.7603Z" fill="black"/>
<path d="M14.4894 19.664C14.4847 19.6802 14.4763 19.6837 14.4634 19.6721C14.3591 19.6151 14.2549 19.5581 14.1506 19.5011C14.1554 19.4849 14.1638 19.4814 14.1767 19.493C14.2049 19.5122 14.2511 19.5195 14.2717 19.4858C14.3131 19.4194 14.3479 19.3491 14.3863 19.2809C14.4384 19.1844 14.4928 19.0889 14.5433 18.9915C14.5675 18.957 14.5405 18.9145 14.5067 18.8997C14.4952 18.8936 14.4784 18.8891 14.4928 18.8753C14.4998 18.8667 14.5146 18.8851 14.5247 18.8873C14.6247 18.9419 14.7246 18.9966 14.8246 19.0512C14.8198 19.0674 14.8114 19.0709 14.7985 19.0593C14.7703 19.0401 14.7239 19.0328 14.7031 19.0662C14.6617 19.1326 14.6268 19.2029 14.5884 19.2711C14.5363 19.3677 14.482 19.4631 14.4314 19.5605C14.4073 19.5953 14.4341 19.6381 14.4685 19.6526C14.4755 19.6564 14.4825 19.6602 14.4894 19.664Z" fill="black"/>
<path d="M15.6926 19.382C15.6643 19.4615 15.636 19.5409 15.6077 19.6204C15.5729 19.6167 15.5961 19.5722 15.5852 19.5487C15.5728 19.4414 15.4936 19.3412 15.3858 19.3182C15.3034 19.2958 15.2164 19.3382 15.168 19.4053C15.0948 19.5052 15.0503 19.627 15.0441 19.7508C15.0399 19.8211 15.0722 19.8933 15.1336 19.9304C15.1823 19.9624 15.2414 19.9753 15.2992 19.9737C15.3196 19.9136 15.344 19.8547 15.3609 19.7935C15.3679 19.7537 15.3268 19.7297 15.2939 19.7205C15.2888 19.709 15.3015 19.6948 15.3149 19.7072C15.4188 19.7443 15.5227 19.7812 15.6266 19.8183C15.6229 19.8566 15.5796 19.8152 15.5555 19.8305C15.5171 19.8452 15.5138 19.8914 15.4993 19.9248C15.4866 19.9604 15.474 19.9959 15.4613 20.0315C15.3216 20.0414 15.1777 20.0118 15.0561 19.9415C14.9379 19.867 14.858 19.7232 14.8812 19.5822C14.8992 19.4615 14.9745 19.3484 15.0857 19.2951C15.188 19.2408 15.3128 19.241 15.4189 19.284C15.477 19.3036 15.5271 19.3395 15.572 19.3803C15.5992 19.4171 15.6518 19.4171 15.6742 19.3754C15.6803 19.3776 15.6865 19.3798 15.6926 19.382Z" fill="black"/>
<path d="M16.1995 20.195C16.1989 20.2077 16.1975 20.2193 16.1823 20.2123C16.0634 20.1942 15.9444 20.1762 15.8254 20.1582C15.826 20.1455 15.8275 20.1339 15.8426 20.141C15.8736 20.1473 15.9151 20.1468 15.93 20.1133C15.9451 20.0657 15.9481 20.0152 15.9568 19.9661C15.9773 19.829 15.9991 19.692 16.0186 19.5547C16.0262 19.5251 16.016 19.4916 15.9854 19.4802C15.968 19.4719 15.9487 19.4707 15.9301 19.4676C15.9307 19.4549 15.9321 19.4433 15.9473 19.4504C16.0662 19.4684 16.1852 19.4864 16.3042 19.5044C16.3036 19.5171 16.3022 19.5287 16.287 19.5216C16.2558 19.5153 16.2145 19.5161 16.1991 19.5492C16.184 19.5968 16.181 19.6473 16.1723 19.6964C16.1518 19.8336 16.13 19.9706 16.1105 20.1078C16.103 20.1373 16.1132 20.1715 16.144 20.1826C16.1615 20.1906 16.1808 20.1919 16.1995 20.195Z" fill="black"/>
<path d="M17.1633 19.9608C17.1586 20.0452 17.1539 20.1295 17.1492 20.2139C16.9369 20.2248 16.7247 20.2356 16.5124 20.2464C16.5085 20.2309 16.5127 20.2226 16.5296 20.2259C16.5615 20.2267 16.6028 20.2132 16.6069 20.1764C16.6097 20.1135 16.6026 20.0506 16.6005 19.9877C16.5936 19.8623 16.5887 19.7367 16.5805 19.6114C16.584 19.5741 16.5504 19.5464 16.5149 19.5476C16.5037 19.5419 16.4733 19.5593 16.4763 19.5388C16.4712 19.5222 16.4943 19.531 16.504 19.5279C16.6221 19.5218 16.7401 19.5158 16.8582 19.5098C16.8621 19.5253 16.8579 19.5335 16.8411 19.5302C16.8084 19.5301 16.7658 19.5381 16.7568 19.575C16.7516 19.6294 16.7592 19.6841 16.7607 19.7387C16.7678 19.8693 16.7729 20.0001 16.7815 20.1306C16.7789 20.1647 16.8063 20.195 16.8417 20.1884C16.8934 20.1858 16.9462 20.188 16.9966 20.175C17.0675 20.1562 17.1061 20.086 17.1254 20.0206C17.1381 20.0028 17.1276 19.9586 17.1557 19.9612C17.1582 19.961 17.1607 19.9609 17.1633 19.9608Z" fill="black"/>
<path d="M17.6597 19.3486C17.6428 19.3489 17.6503 19.3705 17.646 19.3818C17.6178 19.5929 17.5911 19.8043 17.5619 20.0153C17.5548 20.062 17.5432 20.1166 17.497 20.1403C17.48 20.1463 17.495 20.1731 17.5106 20.1582C17.5815 20.1369 17.6524 20.1156 17.7233 20.0944C17.7206 20.0586 17.6798 20.0911 17.6569 20.0848C17.6081 20.0848 17.6009 20.0255 17.6076 19.9885C17.6106 19.9635 17.6135 19.9385 17.6165 19.9135C17.6977 19.8891 17.7788 19.8646 17.86 19.8402C17.8911 19.8794 17.9254 19.9162 17.9535 19.9575C17.9746 19.9973 17.9233 20.0155 17.8935 20.0232C17.8796 20.0247 17.8917 20.0539 17.9044 20.0403C18.0112 20.0083 18.1178 19.9763 18.2245 19.9444C18.2235 19.9081 18.1772 19.9421 18.1576 19.9179C18.0977 19.8729 18.0548 19.8103 18.0052 19.7548C17.89 19.6194 17.7749 19.484 17.6597 19.3486ZM17.658 19.6019C17.7156 19.6708 17.7733 19.7396 17.8309 19.8084C17.7618 19.8291 17.6926 19.8496 17.6235 19.8702C17.635 19.7808 17.6465 19.6914 17.658 19.6019Z" fill="black"/>
<path d="M18.749 18.873C18.7796 18.9301 18.8103 18.9871 18.841 19.0442C18.8124 19.0688 18.7975 19.0118 18.7715 19.003C18.729 18.9672 18.6648 18.9604 18.6174 18.9908C18.598 19.0009 18.5789 19.0115 18.5596 19.0217C18.6521 19.1931 18.7434 19.3652 18.8368 19.5361C18.8512 19.5799 18.9051 19.5881 18.9398 19.5634C18.9532 19.5537 18.9654 19.5482 18.9697 19.5688C18.9228 19.596 18.8714 19.6219 18.8228 19.6486C18.7615 19.6815 18.7002 19.7145 18.6389 19.7475C18.6245 19.7325 18.6341 19.7248 18.6504 19.719C18.694 19.7029 18.7107 19.65 18.6815 19.6128C18.591 19.4426 18.4991 19.2731 18.408 19.1033C18.3573 19.1313 18.2925 19.1567 18.2797 19.2199C18.2653 19.2597 18.2865 19.3085 18.2865 19.3423C18.2709 19.3585 18.2668 19.3364 18.2596 19.3247C18.2333 19.276 18.2071 19.2272 18.1809 19.1784C18.3703 19.0766 18.5596 18.9748 18.749 18.873Z" fill="black"/>
<path d="M19.1795 18.6178C19.2382 18.6955 19.2969 18.7733 19.3556 18.8511C19.3964 18.8252 19.4305 18.7788 19.4182 18.7281C19.4229 18.6886 19.3663 18.6438 19.3858 18.6161C19.3986 18.6081 19.4061 18.6377 19.4167 18.6455C19.4837 18.7343 19.5507 18.8232 19.6177 18.912C19.5915 18.9419 19.5725 18.881 19.5448 18.8744C19.5056 18.8466 19.4507 18.8327 19.4087 18.8632C19.3773 18.8732 19.3788 18.8909 19.4001 18.9102C19.4473 18.9711 19.4911 19.0347 19.5414 19.093C19.5722 19.1229 19.6106 19.0917 19.6366 19.0709C19.7041 19.025 19.7633 18.9532 19.7598 18.8672C19.7643 18.8297 19.7406 18.7878 19.7409 18.7561C19.756 18.736 19.7602 18.7672 19.7689 18.7775C19.8006 18.8347 19.8323 18.8919 19.864 18.9492C19.6988 19.0737 19.5337 19.1983 19.3685 19.3229C19.347 19.3077 19.3682 19.2987 19.3817 19.2882C19.428 19.2596 19.4133 19.2012 19.3792 19.1692C19.2734 19.0297 19.1694 18.8889 19.0622 18.7506C19.0347 18.7133 18.9841 18.7329 18.9564 18.7589C18.9449 18.7752 18.9269 18.7425 18.9487 18.7401C19.1044 18.6226 19.2602 18.5052 19.4159 18.3877C19.4585 18.4442 19.5012 18.5007 19.5438 18.5572C19.5142 18.5872 19.4879 18.5203 19.4541 18.5168C19.3928 18.4849 19.3198 18.5106 19.2691 18.551C19.2387 18.5726 19.2094 18.5954 19.1795 18.6178Z" fill="black"/>
</g>
</svg>
