<svg width="25" height="25" viewBox="0 0 25 25" fill="none" xmlns="http://www.w3.org/2000/svg">
<path d="M12.9082 24.2144C19.5356 24.2144 24.9082 18.8419 24.9082 12.2144C24.9082 5.58706 19.5356 0.214478 12.9082 0.214478C6.28079 0.214478 0.908203 5.58706 0.908203 12.2144C0.908203 18.8419 6.28079 24.2144 12.9082 24.2144Z" fill="#2E42A5"/>
<path fill-rule="evenodd" clip-rule="evenodd" d="M13.011 6.22487H7.23195V10.6913H5.73462V6.22487H2.50757C2.81087 5.69933 3.15287 5.19892 3.52966 4.72754H5.73462V2.59377C6.20798 2.24024 6.7083 1.92082 7.23195 1.63916V4.72754H13.011V6.22487Z" fill="#D9D9D9"/>
<path fill-rule="evenodd" clip-rule="evenodd" d="M11.0426 10.6913H13.011V8.54807L10.1881 6.22035L8.79391 5.23838L13.011 1.87995V0.214909C12.9767 0.214622 12.9425 0.214478 12.9082 0.214478C11.9869 0.214478 11.09 0.318283 10.2283 0.514834L6.76662 3.42749L6.49472 3.619L6.22281 3.42749L5.4719 2.79568C4.75739 3.36056 4.10869 4.00501 3.53916 4.71565L4.19553 5.23837L2.8013 6.22035L2.26841 6.65977C1.62321 7.89308 1.18617 9.25247 1.00391 10.6913H1.94678L6.49472 7.06941L11.0426 10.6913Z" fill="#F7F8FB"/>
<path fill-rule="evenodd" clip-rule="evenodd" d="M12.325 10.6913H13.0111V9.24661L9.38861 6.173L7.4384 5.47912L7.39868 5.44798L13.0111 0.643046V0.214909C12.9768 0.214621 12.9426 0.214478 12.9083 0.214478C12.341 0.214478 11.7828 0.253846 11.2365 0.33L6.22901 4.53108L4.77491 3.39123C4.43131 3.70812 4.10627 4.04483 3.80159 4.39953L5.1224 5.45948L1.49272 8.50464C1.26452 9.20732 1.0994 9.93845 1.00403 10.6913H1.27421L6.6829 6.06078L7.10501 6.19771L12.325 10.6913Z" fill="#F50100"/>
<path fill-rule="evenodd" clip-rule="evenodd" d="M13.011 7.34812H8.35474V10.6913H4.61141V7.34812H1.93591C2.1667 6.82853 2.43332 6.32837 2.73263 5.85079C2.8932 5.59457 3.06318 5.34485 3.24208 5.10212C3.63619 4.5674 4.0736 4.06657 4.54914 3.60478H4.61141V3.54475C5.07636 3.09967 5.57705 2.69163 6.10874 2.32536C6.35196 2.15781 6.60167 1.999 6.85741 1.84938C7.33635 1.56919 7.83646 1.32124 8.35474 1.10852V3.60478H13.011V7.34812Z" fill="white"/>
<path fill-rule="evenodd" clip-rule="evenodd" d="M13.011 6.225H7.23195V10.6913H5.73462V6.225H2.50757C2.81087 5.69945 3.15287 5.19904 3.52966 4.72766H5.73462V2.59389C6.20798 2.24036 6.7083 1.92094 7.23195 1.63928V4.72766H13.011V6.225Z" fill="#F50100"/>
<path fill-rule="evenodd" clip-rule="evenodd" d="M15.1406 9.89624V14.2451C15.1406 14.2451 15.0762 17.8433 18.3923 17.8433C21.7085 17.8433 21.7085 14.2451 21.7085 14.2451V9.89624H15.1406Z" fill="#3B7E05"/>
<path fill-rule="evenodd" clip-rule="evenodd" d="M14.9741 9.72974H21.875V14.2451H21.7085C21.875 14.2451 21.875 14.245 21.875 14.2451L21.875 14.2464L21.875 14.249L21.8749 14.2579C21.8748 14.2656 21.8746 14.2766 21.8741 14.2907C21.8733 14.3188 21.8716 14.3594 21.8682 14.4107C21.8614 14.5132 21.848 14.6586 21.8213 14.8326C21.7679 15.18 21.6609 15.6458 21.4452 16.1139C21.2294 16.5823 20.9024 17.0577 20.4071 17.416C19.91 17.7756 19.2535 18.0098 18.3924 18.0098C17.5313 18.0098 16.8783 17.7756 16.3868 17.4154C15.8971 17.0565 15.5783 16.5804 15.3707 16.1117C15.1632 15.6432 15.0645 15.1771 15.0174 14.8298C14.9937 14.6556 14.9829 14.5102 14.978 14.4077C14.9755 14.3565 14.9746 14.3159 14.9742 14.2877C14.974 14.2736 14.974 14.2626 14.974 14.255L14.9741 14.246L14.9741 14.244V9.72974ZM15.3071 14.2482L15.3071 14.2495L15.307 14.256C15.307 14.2619 15.307 14.2712 15.3072 14.2834C15.3075 14.308 15.3084 14.3447 15.3106 14.3918C15.3152 14.4861 15.3252 14.6218 15.3474 14.785C15.3918 15.1122 15.4842 15.5457 15.6752 15.9768C15.866 16.4076 16.1528 16.831 16.5837 17.1468C17.0129 17.4613 17.5954 17.6768 18.3924 17.6768C19.1893 17.6768 19.7763 17.4613 20.2119 17.1462C20.6493 16.8298 20.9441 16.4057 21.1428 15.9745C21.3416 15.5431 21.4418 15.1094 21.4921 14.7821C21.5172 14.6188 21.5297 14.4831 21.5359 14.3888C21.539 14.3417 21.5405 14.305 21.5413 14.2804C21.5416 14.2682 21.5418 14.2589 21.5419 14.253L21.542 14.2465L21.542 14.2452L21.542 10.0628H15.3071L15.3071 14.2482Z" fill="#F7FCFF"/>
<path fill-rule="evenodd" clip-rule="evenodd" d="M15.134 16.4612L15.6623 15.9308C16.488 16.9505 17.3564 17.4468 18.2798 17.4468C19.2031 17.4468 20.0708 16.9505 20.8952 15.931L21.1958 16.2324L21.2086 16.2135C21.3925 16.3691 21.5137 16.5148 21.5718 16.6834C21.6666 16.9582 21.5654 17.2222 21.3432 17.3619C21.2882 17.3965 21.2444 17.4215 21.2055 17.4396C21.1153 17.4816 21.043 17.4998 20.9357 17.4696C20.8265 17.4388 20.7347 17.3547 20.6872 17.2391C19.9379 17.9017 19.1337 18.2388 18.2798 18.2388C17.4332 18.2388 16.6351 17.9075 15.8907 17.2561C15.8409 17.3698 15.7481 17.4514 15.639 17.4801C15.5312 17.5086 15.4593 17.4891 15.3698 17.4455C15.3312 17.4267 15.288 17.401 15.2335 17.3654C15.0138 17.2218 14.9172 16.9561 15.0167 16.683C15.0438 16.6088 15.0873 16.5398 15.1435 16.4729C15.1404 16.469 15.1372 16.465 15.134 16.4612Z" fill="#FFD018"/>
<path d="M15.6624 15.9307L15.7918 15.8259L15.6752 15.6819L15.5444 15.8132L15.6624 15.9307ZM15.134 16.4611L15.0161 16.3436L14.9105 16.4496L15.0046 16.5659L15.134 16.4611ZM20.8952 15.9309L21.0131 15.8133L20.8822 15.6822L20.7656 15.8262L20.8952 15.9309ZM21.1959 16.2324L21.078 16.35L21.2208 16.4931L21.3339 16.3255L21.1959 16.2324ZM21.2086 16.2135L21.3162 16.0864L21.1745 15.9664L21.0706 16.1203L21.2086 16.2135ZM20.6872 17.239L20.8412 17.1757L20.7523 16.9591L20.5769 17.1143L20.6872 17.239ZM15.8907 17.256L16.0004 17.1306L15.8292 16.9809L15.7382 17.1893L15.8907 17.256ZM15.1436 16.4728L15.271 16.5799L15.3596 16.4746L15.2728 16.3678L15.1436 16.4728ZM15.5444 15.8132L15.0161 16.3436L15.2521 16.5786L15.7803 16.0482L15.5444 15.8132ZM18.2798 17.2802C17.4244 17.2802 16.5989 16.8228 15.7918 15.8259L15.5329 16.0355C16.3771 17.078 17.2885 17.6132 18.2798 17.6132V17.2802ZM20.7656 15.8262C19.9598 16.8229 19.1352 17.2802 18.2798 17.2802V17.6132C19.2711 17.6132 20.1818 17.078 21.0247 16.0356L20.7656 15.8262ZM21.3138 16.1148L21.0131 15.8133L20.7773 16.0485L21.078 16.35L21.3138 16.1148ZM21.0706 16.1203L21.0578 16.1392L21.3339 16.3255L21.3467 16.3067L21.0706 16.1203ZM21.7292 16.6291C21.6569 16.4194 21.5098 16.2502 21.3162 16.0864L21.101 16.3406C21.2751 16.4879 21.3704 16.6101 21.4145 16.7377L21.7292 16.6291ZM21.4318 17.5028C21.7201 17.3217 21.8491 16.9765 21.7292 16.6291L21.4145 16.7377C21.4842 16.9398 21.4108 17.1227 21.2546 17.2209L21.4318 17.5028ZM21.2758 17.5905C21.3239 17.5681 21.3744 17.539 21.4318 17.5028L21.2546 17.2209C21.2019 17.254 21.165 17.2748 21.1352 17.2886L21.2758 17.5905ZM20.8905 17.6298C20.9634 17.6504 21.0317 17.6562 21.1003 17.6465C21.1667 17.6372 21.2245 17.6144 21.2758 17.5905L21.1352 17.2886C21.0963 17.3067 21.0729 17.3141 21.0538 17.3167C21.0369 17.3191 21.0154 17.319 20.9809 17.3093L20.8905 17.6298ZM20.5331 17.3022C20.5983 17.461 20.7278 17.5839 20.8905 17.6298L20.9809 17.3093C20.9252 17.2936 20.871 17.2483 20.8412 17.1757L20.5331 17.3022ZM18.2798 18.4053C19.1817 18.4053 20.0238 18.0481 20.7975 17.3637L20.5769 17.1143C19.852 17.7554 19.0858 18.0723 18.2798 18.0723V18.4053ZM15.7811 17.3813C16.55 18.0542 17.3857 18.4053 18.2798 18.4053V18.0723C17.4807 18.0723 16.7203 17.7607 16.0004 17.1306L15.7811 17.3813ZM15.6814 17.6411C15.8439 17.5984 15.9749 17.4789 16.0433 17.3227L15.7382 17.1893C15.707 17.2605 15.6524 17.3044 15.5967 17.3191L15.6814 17.6411ZM15.297 17.5952C15.3478 17.6199 15.4052 17.6437 15.4714 17.6542C15.5398 17.665 15.6082 17.6604 15.6814 17.6411L15.5967 17.3191C15.5621 17.3282 15.5405 17.3279 15.5237 17.3253C15.5046 17.3223 15.4813 17.3145 15.4428 17.2957L15.297 17.5952ZM15.1424 17.5047C15.1993 17.5419 15.2493 17.5719 15.297 17.5952L15.4428 17.2957C15.4133 17.2814 15.3767 17.2599 15.3246 17.2259L15.1424 17.5047ZM14.8603 16.626C14.7344 16.9712 14.8575 17.3185 15.1424 17.5047L15.3246 17.2259C15.1701 17.1251 15.0999 16.9409 15.1732 16.74L14.8603 16.626ZM15.0161 16.3657C14.951 16.4432 14.8957 16.5287 14.8603 16.626L15.1732 16.74C15.1919 16.6887 15.2236 16.6364 15.271 16.5799L15.0161 16.3657ZM15.0046 16.5659C15.0079 16.5699 15.0111 16.5739 15.0143 16.5778L15.2728 16.3678C15.2696 16.3639 15.2666 16.3601 15.2635 16.3563L15.0046 16.5659Z" fill="white"/>
<path fill-rule="evenodd" clip-rule="evenodd" d="M16.2789 10.8471L16.3531 10.8743C16.4136 10.7358 16.4236 10.6302 16.3531 10.5625L16.3511 10.5594C16.3346 10.5337 16.3054 10.4881 16.3531 10.3906L16.3191 10.3209C16.2501 10.4621 16.219 10.5639 16.273 10.6326L16.2757 10.6361L16.2789 10.639C16.3102 10.6671 16.3233 10.7457 16.2789 10.8471ZM16.2789 11.8552L16.3531 11.8824C16.4136 11.7439 16.4236 11.6384 16.3531 11.5707L16.3511 11.5675C16.3346 11.5418 16.3054 11.4962 16.3531 11.3987L16.3191 11.329C16.2501 11.4702 16.219 11.572 16.273 11.6407L16.2757 11.6442L16.2789 11.6471C16.3102 11.6752 16.3233 11.7538 16.2789 11.8552ZM16.3531 12.7824L16.2789 12.7553C16.3233 12.6539 16.3102 12.5754 16.2789 12.5473L16.2757 12.5443L16.273 12.5408C16.219 12.4721 16.2501 12.3703 16.3191 12.2291L16.3531 12.2988C16.3054 12.3963 16.3346 12.4419 16.3511 12.4676L16.3531 12.4707C16.4236 12.5385 16.4136 12.644 16.3531 12.7824ZM16.7963 13.8354L16.8704 13.8626C16.931 13.7241 16.941 13.6186 16.8704 13.5508L16.8684 13.5477C16.852 13.522 16.8227 13.4764 16.8704 13.3789L16.8364 13.3092C16.7674 13.4504 16.7363 13.5522 16.7903 13.6209L16.793 13.6244L16.7963 13.6274C16.8275 13.6555 16.8406 13.7341 16.7963 13.8354ZM16.256 14.7267L16.182 14.6995C16.2263 14.5981 16.2132 14.5196 16.182 14.4914L16.1787 14.4885L16.176 14.485C16.122 14.4163 16.1531 14.3145 16.2221 14.1733L16.256 14.243C16.2084 14.3405 16.2377 14.3861 16.2541 14.4118L16.256 14.4149C16.3266 14.4826 16.3166 14.5882 16.256 14.7267ZM16.182 15.7076L16.256 15.7348C16.3166 15.5963 16.3266 15.4907 16.256 15.423L16.2541 15.4199C16.2377 15.3942 16.2084 15.3486 16.256 15.2511L16.2221 15.1814C16.1531 15.3226 16.122 15.4244 16.176 15.4931L16.1787 15.4966L16.182 15.4995C16.2132 15.5276 16.2263 15.6062 16.182 15.7076ZM19.4571 15.7348L19.383 15.7076C19.4273 15.6062 19.4142 15.5276 19.383 15.4995L19.3797 15.4966L19.377 15.4931C19.323 15.4244 19.3541 15.3226 19.4231 15.1814L19.4571 15.2511C19.4094 15.3486 19.4386 15.3942 19.4551 15.4199L19.4571 15.423C19.5276 15.4907 19.5176 15.5963 19.4571 15.7348ZM19.383 14.7355L19.4571 14.7627C19.5176 14.6242 19.5276 14.5187 19.4571 14.4509L19.4551 14.4478C19.4386 14.4221 19.4094 14.3765 19.4571 14.279L19.4231 14.2093C19.3541 14.3504 19.323 14.4523 19.377 14.521L19.3797 14.5245L19.383 14.5274C19.4142 14.5555 19.4273 14.6341 19.383 14.7355ZM19.4571 13.7906L19.383 13.7634C19.4273 13.6621 19.4142 13.5835 19.383 13.5554L19.3797 13.5524L19.377 13.5489C19.323 13.4802 19.3541 13.3784 19.4231 13.2372L19.4571 13.3069C19.4094 13.4044 19.4386 13.45 19.4551 13.4757L19.4571 13.4788C19.5276 13.5466 19.5176 13.6521 19.4571 13.7906ZM19.3507 12.8273L19.4247 12.8545C19.4853 12.716 19.4953 12.6105 19.4247 12.5427L19.4227 12.5396C19.4063 12.514 19.3771 12.4683 19.4247 12.3708L19.3908 12.3011C19.3217 12.4423 19.2907 12.5441 19.3446 12.6128L19.3474 12.6163L19.3507 12.6193C19.3818 12.6474 19.3949 12.726 19.3507 12.8273ZM19.4247 11.8464L19.3507 11.8192C19.3949 11.7178 19.3818 11.6393 19.3507 11.6111L19.3474 11.6082L19.3446 11.6047C19.2907 11.536 19.3217 11.4342 19.3908 11.293L19.4247 11.3627C19.3771 11.4602 19.4063 11.5058 19.4227 11.5315L19.4247 11.5346C19.4953 11.6024 19.4853 11.7079 19.4247 11.8464ZM19.3507 10.8831L19.4247 10.9103C19.4853 10.7718 19.4953 10.6663 19.4247 10.5985L19.4227 10.5954C19.4063 10.5697 19.3771 10.5241 19.4247 10.4266L19.3908 10.3569C19.3217 10.4981 19.2907 10.5999 19.3446 10.6686L19.3474 10.6721L19.3507 10.675C19.3818 10.7031 19.3949 10.7817 19.3507 10.8831Z" fill="#F50100"/>
<path fill-rule="evenodd" clip-rule="evenodd" d="M16.8146 10.4172C16.82 10.4068 16.823 10.3949 16.823 10.3822C16.823 10.3424 16.7932 10.3102 16.7564 10.3102C16.7196 10.3102 16.6898 10.3424 16.6898 10.3822C16.6898 10.3993 16.6954 10.415 16.7046 10.4274L16.4526 10.8177L16.4788 10.8387L16.7307 10.4486C16.7387 10.4522 16.7473 10.4542 16.7564 10.4542C16.7694 10.4542 16.7815 10.4502 16.7917 10.4433L17.0568 10.839L17.0827 10.8174L16.8146 10.4172ZM16.8055 10.7548C16.8164 10.742 16.823 10.7249 16.823 10.7062C16.823 10.6664 16.7932 10.6342 16.7564 10.6342C16.7196 10.6342 16.6898 10.6664 16.6898 10.7062C16.6898 10.7305 16.7009 10.7519 16.7179 10.765L16.6547 10.8409H16.2269C16.2269 10.8409 16.2738 10.9481 16.4196 10.9764C16.4642 11.0188 16.5781 11.0976 16.5781 11.0976L16.5131 11.1766H16.9745V11.0976C17.0869 11.0968 17.1291 11.008 17.1442 10.9763C17.1504 10.9633 17.152 10.9599 17.152 10.9764C17.152 11.0331 17.234 10.9764 17.234 10.9764C17.234 10.9764 17.3702 10.8409 17.3702 10.7117C17.3702 10.5825 17.0854 10.8409 17.0854 10.8409H16.8921L16.8055 10.7548ZM16.2269 11.849H16.6547L16.7179 11.7731C16.7009 11.76 16.6898 11.7386 16.6898 11.7143C16.6898 11.6746 16.7196 11.6423 16.7564 11.6423C16.7932 11.6423 16.823 11.6746 16.823 11.7143C16.823 11.733 16.8164 11.7501 16.8055 11.7629L16.8921 11.849H17.0854C17.0854 11.849 17.3702 11.5906 17.3702 11.7198C17.3702 11.849 17.234 11.9845 17.234 11.9845C17.234 11.9845 17.152 12.0412 17.152 11.9845C17.152 11.968 17.1504 11.9714 17.1442 11.9845C17.1291 12.0161 17.0869 12.1049 16.9745 12.1057V12.1847H16.5131L16.5781 12.1057C16.5781 12.1057 16.4642 12.0269 16.4196 11.9845C16.2738 11.9562 16.2269 11.849 16.2269 11.849ZM16.8146 11.4253C16.82 11.4149 16.823 11.403 16.823 11.3903C16.823 11.3505 16.7932 11.3183 16.7564 11.3183C16.7196 11.3183 16.6898 11.3505 16.6898 11.3903C16.6898 11.4074 16.6954 11.4232 16.7046 11.4355L16.4526 11.8258L16.4788 11.8468L16.7307 11.4567C16.7387 11.4603 16.7473 11.4623 16.7564 11.4623C16.7694 11.4623 16.7815 11.4583 16.7917 11.4514L17.0568 11.8471L17.0827 11.8255L16.8146 11.4253ZM16.2269 12.7491H16.6547L16.7179 12.6731C16.7009 12.6601 16.6898 12.6386 16.6898 12.6144C16.6898 12.5746 16.7196 12.5424 16.7564 12.5424C16.7932 12.5424 16.823 12.5746 16.823 12.6144C16.823 12.6332 16.8164 12.6502 16.8055 12.663L16.8921 12.7491H17.0854C17.0854 12.7491 17.3702 12.4907 17.3702 12.6199C17.3702 12.7491 17.234 12.8847 17.234 12.8847C17.234 12.8847 17.152 12.9413 17.152 12.8847C17.152 12.8681 17.1504 12.8715 17.1442 12.8845C17.1291 12.9162 17.0869 13.005 16.9745 13.0058V13.0848H16.5131L16.5781 13.0058C16.5781 13.0058 16.4642 12.927 16.4196 12.8847C16.2738 12.8564 16.2269 12.7491 16.2269 12.7491ZM16.8146 12.3254C16.82 12.315 16.823 12.3031 16.823 12.2903C16.823 12.2506 16.7932 12.2183 16.7564 12.2183C16.7196 12.2183 16.6898 12.2506 16.6898 12.2903C16.6898 12.3075 16.6954 12.3232 16.7046 12.3356L16.4526 12.7259L16.4788 12.7469L16.7307 12.3568C16.7387 12.3604 16.7473 12.3623 16.7564 12.3623C16.7694 12.3623 16.7815 12.3583 16.7917 12.3514L17.0568 12.7471L17.0827 12.7256L16.8146 12.3254ZM16.7442 13.8292H17.1721L17.2352 13.7532C17.2182 13.7402 17.2071 13.7187 17.2071 13.6945C17.2071 13.6547 17.237 13.6225 17.2737 13.6225C17.3106 13.6225 17.3403 13.6547 17.3403 13.6945C17.3403 13.7133 17.3337 13.7303 17.3229 13.7431L17.4095 13.8292H17.6028C17.6028 13.8292 17.8875 13.5708 17.8875 13.7C17.8875 13.8292 17.7514 13.9648 17.7514 13.9648C17.7514 13.9648 17.6693 14.0214 17.6693 13.9648C17.6693 13.9482 17.6677 13.9516 17.6615 13.9646C17.6464 13.9963 17.6042 14.0851 17.4918 14.0859V14.1649H17.0305L17.0955 14.0859C17.0955 14.0859 16.9815 14.0071 16.937 13.9648C16.7911 13.9365 16.7442 13.8292 16.7442 13.8292ZM17.3319 13.4055C17.3373 13.3951 17.3403 13.3832 17.3403 13.3704C17.3403 13.3307 17.3106 13.2984 17.2737 13.2984C17.237 13.2984 17.2071 13.3307 17.2071 13.3704C17.2071 13.3876 17.2127 13.4033 17.222 13.4157L16.9699 13.806L16.9962 13.827L17.2481 13.4369C17.256 13.4405 17.2647 13.4425 17.2737 13.4425C17.2867 13.4425 17.2988 13.4384 17.309 13.4316L17.5741 13.8272L17.6 13.8057L17.3319 13.4055ZM16.1299 14.6933H16.5578L16.6209 14.6173C16.6039 14.6043 16.5928 14.5828 16.5928 14.5586C16.5928 14.5188 16.6226 14.4866 16.6594 14.4866C16.6962 14.4866 16.726 14.5188 16.726 14.5586C16.726 14.5773 16.7194 14.5944 16.7086 14.6072L16.7952 14.6933H16.9884C16.9884 14.6933 17.2732 14.4349 17.2732 14.5641C17.2732 14.6933 17.137 14.8289 17.137 14.8289C17.137 14.8289 17.055 14.8855 17.055 14.8289C17.055 14.8123 17.0534 14.8157 17.0471 14.8287C17.0321 14.8604 16.9898 14.9491 16.8775 14.95V15.0289H16.4162L16.4812 14.95C16.4812 14.95 16.3672 14.8712 16.3226 14.8289C16.1767 14.8005 16.1299 14.6933 16.1299 14.6933ZM16.7176 14.2696C16.723 14.2592 16.726 14.2473 16.726 14.2345C16.726 14.1948 16.6962 14.1625 16.6594 14.1625C16.6226 14.1625 16.5928 14.1948 16.5928 14.2345C16.5928 14.2517 16.5983 14.2674 16.6076 14.2798L16.3555 14.6701L16.3819 14.6911L16.6338 14.301C16.6416 14.3046 16.6503 14.3066 16.6594 14.3066C16.6724 14.3066 16.6845 14.3025 16.6947 14.2957L16.9598 14.6913L16.9857 14.6698L16.7176 14.2696ZM16.1299 15.7014H16.5578L16.6209 15.6254C16.6039 15.6124 16.5928 15.591 16.5928 15.5667C16.5928 15.5269 16.6226 15.4947 16.6594 15.4947C16.6962 15.4947 16.726 15.5269 16.726 15.5667C16.726 15.5854 16.7194 15.6025 16.7086 15.6153L16.7952 15.7014H16.9884C16.9884 15.7014 17.2732 15.443 17.2732 15.5722C17.2732 15.7014 17.137 15.8369 17.137 15.8369C17.137 15.8369 17.055 15.8936 17.055 15.8369C17.055 15.8204 17.0534 15.8238 17.0471 15.8368C17.0321 15.8685 16.9898 15.9573 16.8775 15.9581V16.0371H16.4162L16.4812 15.9581C16.4812 15.9581 16.3672 15.8793 16.3226 15.8369C16.1767 15.8086 16.1299 15.7014 16.1299 15.7014ZM16.7176 15.2777C16.723 15.2673 16.726 15.2554 16.726 15.2427C16.726 15.2029 16.6962 15.1707 16.6594 15.1707C16.6226 15.1707 16.5928 15.2029 16.5928 15.2427C16.5928 15.2598 16.5983 15.2755 16.6076 15.2879L16.3555 15.6782L16.3819 15.6992L16.6338 15.3091C16.6416 15.3127 16.6503 15.3147 16.6594 15.3147C16.6724 15.3147 16.6845 15.3107 16.6947 15.3038L16.9598 15.6995L16.9857 15.6779L16.7176 15.2777ZM19.3309 15.7014H19.7588L19.8219 15.6254C19.8049 15.6124 19.7938 15.591 19.7938 15.5667C19.7938 15.5269 19.8236 15.4947 19.8604 15.4947C19.8972 15.4947 19.927 15.5269 19.927 15.5667C19.927 15.5854 19.9204 15.6025 19.9096 15.6153L19.9961 15.7014H20.1894C20.1894 15.7014 20.4742 15.443 20.4742 15.5722C20.4742 15.7014 20.338 15.8369 20.338 15.8369C20.338 15.8369 20.256 15.8936 20.256 15.8369C20.256 15.8204 20.2544 15.8238 20.2481 15.8368C20.2331 15.8685 20.1909 15.9573 20.0785 15.9581V16.0371H19.6171L19.6822 15.9581C19.6822 15.9581 19.5682 15.8793 19.5236 15.8369C19.3778 15.8086 19.3309 15.7014 19.3309 15.7014ZM19.9186 15.2777C19.924 15.2673 19.927 15.2554 19.927 15.2427C19.927 15.2029 19.8972 15.1707 19.8604 15.1707C19.8236 15.1707 19.7938 15.2029 19.7938 15.2427C19.7938 15.2598 19.7994 15.2755 19.8086 15.2879L19.5566 15.6782L19.5828 15.6992L19.8348 15.3091C19.8427 15.3127 19.8513 15.3147 19.8604 15.3147C19.8734 15.3147 19.8855 15.3107 19.8957 15.3038L20.1608 15.6995L20.1867 15.6779L19.9186 15.2777ZM19.3309 14.7293H19.7588L19.8219 14.6533C19.8049 14.6403 19.7938 14.6188 19.7938 14.5946C19.7938 14.5548 19.8236 14.5226 19.8604 14.5226C19.8972 14.5226 19.927 14.5548 19.927 14.5946C19.927 14.6133 19.9204 14.6304 19.9096 14.6432L19.9961 14.7293H20.1894C20.1894 14.7293 20.4742 14.4709 20.4742 14.6001C20.4742 14.7293 20.338 14.8649 20.338 14.8649C20.338 14.8649 20.256 14.9215 20.256 14.8649C20.256 14.8483 20.2544 14.8517 20.2482 14.8648C20.2331 14.8964 20.1909 14.9852 20.0785 14.986V15.065H19.6171L19.6822 14.986C19.6822 14.986 19.5682 14.9072 19.5236 14.8649C19.3778 14.8365 19.3309 14.7293 19.3309 14.7293ZM19.9186 14.3056C19.924 14.2953 19.927 14.2833 19.927 14.2706C19.927 14.2308 19.8972 14.1986 19.8604 14.1986C19.8236 14.1986 19.7938 14.2308 19.7938 14.2706C19.7938 14.2877 19.7994 14.3035 19.8086 14.3158L19.5566 14.7061L19.5828 14.7271L19.8348 14.337C19.8427 14.3406 19.8513 14.3426 19.8604 14.3426C19.8734 14.3426 19.8855 14.3386 19.8957 14.3316L20.1608 14.7273L20.1867 14.7058L19.9186 14.3056ZM19.3309 13.7572H19.7588L19.8219 13.6812C19.8049 13.6682 19.7938 13.6467 19.7938 13.6225C19.7938 13.5827 19.8236 13.5505 19.8604 13.5505C19.8972 13.5505 19.927 13.5827 19.927 13.6225C19.927 13.6413 19.9204 13.6583 19.9096 13.6711L19.9961 13.7572H20.1894C20.1894 13.7572 20.4742 13.4988 20.4742 13.628C20.4742 13.7572 20.338 13.8928 20.338 13.8928C20.338 13.8928 20.256 13.9494 20.256 13.8928C20.256 13.8762 20.2544 13.8796 20.2482 13.8926C20.2331 13.9243 20.1909 14.0131 20.0785 14.0139V14.0928H19.6171L19.6822 14.0139C19.6822 14.0139 19.5682 13.9351 19.5236 13.8928C19.3778 13.8645 19.3309 13.7572 19.3309 13.7572ZM19.9186 13.3335C19.924 13.3231 19.927 13.3112 19.927 13.2984C19.927 13.2587 19.8972 13.2264 19.8604 13.2264C19.8236 13.2264 19.7938 13.2587 19.7938 13.2984C19.7938 13.3156 19.7994 13.3313 19.8086 13.3437L19.5566 13.734L19.5828 13.755L19.8348 13.3649C19.8427 13.3685 19.8513 13.3704 19.8604 13.3704C19.8734 13.3704 19.8855 13.3664 19.8957 13.3595L20.1608 13.7552L20.1867 13.7337L19.9186 13.3335ZM19.2985 12.8211H19.7265L19.7896 12.7451C19.7725 12.7321 19.7615 12.7106 19.7615 12.6864C19.7615 12.6466 19.7913 12.6144 19.8281 12.6144C19.8649 12.6144 19.8947 12.6466 19.8947 12.6864C19.8947 12.7052 19.8881 12.7222 19.8772 12.735L19.9638 12.8211H20.1571C20.1571 12.8211 20.4419 12.5627 20.4419 12.6919C20.4419 12.8211 20.3057 12.9567 20.3057 12.9567C20.3057 12.9567 20.2236 13.0133 20.2236 12.9567C20.2236 12.9402 20.222 12.9435 20.2158 12.9565C20.2008 12.9882 20.1585 13.077 20.0462 13.0778V13.1568H19.5848L19.6499 13.0778C19.6499 13.0778 19.5358 12.999 19.4913 12.9567C19.3454 12.9284 19.2985 12.8211 19.2985 12.8211ZM19.8863 12.3974C19.8916 12.387 19.8947 12.3751 19.8947 12.3623C19.8947 12.3226 19.8649 12.2903 19.8281 12.2903C19.7913 12.2903 19.7615 12.3226 19.7615 12.3623C19.7615 12.3795 19.767 12.3952 19.7763 12.4076L19.5242 12.7979L19.5505 12.8189L19.8024 12.4288C19.8103 12.4324 19.819 12.4343 19.8281 12.4343C19.8411 12.4343 19.8531 12.4303 19.8634 12.4234L20.1284 12.8191L20.1544 12.7976L19.8863 12.3974ZM19.2985 11.813H19.7265L19.7896 11.737C19.7725 11.724 19.7615 11.7025 19.7615 11.6783C19.7615 11.6385 19.7913 11.6063 19.8281 11.6063C19.8649 11.6063 19.8947 11.6385 19.8947 11.6783C19.8947 11.697 19.8881 11.7141 19.8772 11.7269L19.9638 11.813H20.1571C20.1571 11.813 20.4419 11.5546 20.4419 11.6838C20.4419 11.813 20.3057 11.9486 20.3057 11.9486C20.3057 11.9486 20.2236 12.0052 20.2236 11.9486C20.2236 11.932 20.222 11.9354 20.2158 11.9484C20.2008 11.9801 20.1585 12.0689 20.0462 12.0697V12.1487H19.5848L19.6499 12.0697C19.6499 12.0697 19.5358 11.9909 19.4913 11.9486C19.3454 11.9203 19.2985 11.813 19.2985 11.813ZM19.8863 11.3893C19.8916 11.379 19.8947 11.367 19.8947 11.3542C19.8947 11.3145 19.8649 11.2822 19.8281 11.2822C19.7913 11.2822 19.7615 11.3145 19.7615 11.3542C19.7615 11.3714 19.767 11.3871 19.7763 11.3995L19.5242 11.7898L19.5505 11.8108L19.8024 11.4207C19.8103 11.4243 19.819 11.4262 19.8281 11.4262C19.8411 11.4262 19.8531 11.4222 19.8634 11.4153L20.1284 11.811L20.1544 11.7895L19.8863 11.3893Z" fill="#FFD018"/>
<path fill-rule="evenodd" clip-rule="evenodd" d="M18.0666 11.5967L17.8426 12.325C17.8426 12.325 17.4673 12.8106 17.398 13.0486C17.3288 13.2865 17.2908 13.4446 17.3098 13.4446C17.3288 13.4446 17.4821 13.3769 17.4821 13.2127C17.4821 13.0486 18.0666 12.5206 18.0666 12.5206L18.241 11.5967H18.0666Z" fill="#FFC6B5"/>
<path fill-rule="evenodd" clip-rule="evenodd" d="M19.8863 10.4533C19.8917 10.4429 19.8947 10.4309 19.8947 10.4182C19.8947 10.3784 19.8649 10.3462 19.8281 10.3462C19.7913 10.3462 19.7615 10.3784 19.7615 10.4182C19.7615 10.4354 19.7671 10.4511 19.7764 10.4635L19.5243 10.8537L19.5506 10.8748L19.8025 10.4847C19.8103 10.4883 19.819 10.4902 19.8281 10.4902C19.8411 10.4902 19.8532 10.4862 19.8634 10.4793L20.1285 10.875L20.1544 10.8535L19.8863 10.4533ZM19.8773 10.7909C19.8881 10.7781 19.8947 10.761 19.8947 10.7422C19.8947 10.7025 19.8649 10.6702 19.8281 10.6702C19.7913 10.6702 19.7615 10.7025 19.7615 10.7422C19.7615 10.7665 19.7726 10.7879 19.7896 10.801L19.7265 10.877H19.2986C19.2986 10.877 19.3455 10.9842 19.4913 11.0125C19.5359 11.0549 19.6499 11.1337 19.6499 11.1337L19.5849 11.2126H20.0462V11.1337C20.1586 11.1328 20.2008 11.0441 20.2158 11.0124C20.2221 10.9993 20.2237 10.996 20.2237 11.0125C20.2237 11.0691 20.3057 11.0125 20.3057 11.0125C20.3057 11.0125 20.4419 10.877 20.4419 10.7478C20.4419 10.6185 20.1571 10.877 20.1571 10.877H19.9639L19.8773 10.7909Z" fill="#FFD018"/>
<path fill-rule="evenodd" clip-rule="evenodd" d="M18.6129 11.3053C18.6192 11.3186 18.6239 11.3286 18.6239 11.3426C18.6239 11.3846 18.4459 11.4463 18.3175 11.4463C18.1891 11.4463 18.2394 11.3426 18.3175 11.2851C18.3956 11.2276 18.3112 11.1287 18.2394 11.1287C18.1713 11.1287 18.1716 11.0324 18.1718 10.955C18.1718 10.951 18.1718 10.9469 18.1718 10.943V10.6416C18.1718 10.5207 18.2045 10.5348 18.2672 10.5619C18.304 10.5778 18.3511 10.5982 18.408 10.5982C18.5036 10.5982 18.5089 10.6202 18.5233 10.6798C18.532 10.716 18.544 10.7661 18.5817 10.8336C18.6417 10.941 18.6294 10.9658 18.6102 11.0047C18.5975 11.0305 18.5817 11.0624 18.5817 11.1287C18.5817 11.2394 18.6004 11.2789 18.6129 11.3053ZM18.7714 12.0783L18.8093 11.6687C18.8093 11.6687 18.7714 11.5189 18.86 11.5189C18.9485 11.5189 19.0859 12.2352 19.1356 12.5225C19.1673 12.7061 19.1382 12.7402 19.0539 12.8387C19.0064 12.8942 18.9414 12.9701 18.86 13.1048C18.7245 13.3288 18.7333 13.46 18.7399 13.5599C18.7444 13.6266 18.7479 13.6794 18.707 13.7367C18.6117 13.8698 18.5726 13.7439 18.5345 13.6209C18.5317 13.6118 18.5289 13.6027 18.5261 13.5937C18.4897 13.4786 18.6556 13.1301 18.7684 12.8934C18.7831 12.8624 18.7969 12.8333 18.8093 12.807C18.916 12.579 18.906 12.4994 18.86 12.4039C18.8139 12.3085 18.7714 12.0783 18.7714 12.0783Z" fill="#FFC6B5"/>
<path fill-rule="evenodd" clip-rule="evenodd" d="M18.9856 16.1153C18.9856 16.2195 18.906 16.304 18.8078 16.304C18.7095 16.304 18.6299 16.2195 18.6299 16.1153C18.6299 16.0112 18.7095 15.9268 18.8078 15.9268C18.906 15.9268 18.9856 16.0112 18.9856 16.1153ZM18.0398 16.1677C17.9601 16.2347 17.8628 16.2501 17.8226 16.2022C17.7824 16.1544 17.8145 16.0613 17.8943 15.9944C17.9741 15.9274 18.0714 15.912 18.1115 15.9598C18.1517 16.0077 18.1196 16.1008 18.0398 16.1677Z" fill="#FFD018"/>
<path fill-rule="evenodd" clip-rule="evenodd" d="M18.274 10.3971C18.274 10.3971 18.0891 10.4346 18.1508 10.5272C18.2124 10.6198 18.0704 10.5958 18.274 10.6078C18.4777 10.6198 18.5334 10.694 18.5056 10.7487C18.4777 10.8035 18.4558 10.9395 18.5056 11.0214C18.5553 11.1033 18.5711 11.2459 18.659 11.1746C18.7469 11.1033 18.9157 11.0054 18.864 10.8771C18.8123 10.7487 18.8849 10.5994 18.7719 10.5272C18.659 10.455 18.6338 10.4992 18.5692 10.3971C18.5045 10.295 18.4093 10.2669 18.3417 10.3319C18.274 10.3971 18.274 10.3971 18.274 10.3971Z" fill="#A95601"/>
<path fill-rule="evenodd" clip-rule="evenodd" d="M18.2372 11.325C18.2372 11.325 17.8656 11.7725 17.9264 11.9301C17.9872 12.0878 18.0782 12.0961 18.0327 12.3203C17.9872 12.5445 18.0604 12.8911 17.9264 13.332C17.7924 13.773 17.7043 14.8076 17.7483 14.8076C17.7924 14.8076 17.8536 15.379 17.8009 15.6353C17.7483 15.8918 17.3815 16.1063 17.7483 16.1063C18.1152 16.1063 18.1588 16.1571 18.3054 16.1063C18.452 16.0554 18.66 16.2525 18.66 16.1063C18.66 15.96 18.6757 15.9301 18.7874 15.9301C18.8992 15.9301 18.8935 15.9301 18.9925 15.9301C19.0914 15.9301 19.2211 16.0222 19.2211 15.8037C19.2211 15.5853 19.2453 15.1158 19.1188 14.7513C18.9925 14.3867 19.0354 14.6195 18.9114 14.132C18.8379 13.8433 18.7813 13.7287 18.7366 13.6278C18.7059 13.5584 18.6181 13.6803 18.5973 13.5716C18.5902 13.5348 18.6503 13.3186 18.6509 13.2908C18.6548 13.1177 18.7874 13.0882 18.7874 12.7906C18.7874 12.4451 18.7046 12.0656 18.7874 11.8757C18.8703 11.6858 19.0735 11.7999 18.9925 11.6152C18.9114 11.4305 18.885 11.325 18.7324 11.325C18.5799 11.325 18.2372 11.325 18.2372 11.325Z" fill="#F7FCFF"/>
<path d="M15.6335 16.632L15.6958 16.5492C16.5857 17.3781 17.4084 17.7911 18.1635 17.7911C18.9193 17.7911 19.8396 17.3527 20.9225 16.4735L20.9796 16.5608C19.8817 17.4522 18.9436 17.8991 18.1635 17.8991C17.3826 17.8991 16.5395 17.4758 15.6335 16.632Z" fill="#272727"/>
</svg>
