<svg width="24" height="24" viewBox="0 0 24 24" fill="none" xmlns="http://www.w3.org/2000/svg">
<mask id="mask0_1_2390" style="mask-type:luminance" maskUnits="userSpaceOnUse" x="0" y="0" width="24" height="24">
<path d="M24 0H0V24H24V0Z" fill="white"/>
</mask>
<g mask="url(#mask0_1_2390)">
<path d="M12 24C18.6274 24 24 18.6274 24 12C24 5.37258 18.6274 0 12 0C5.37258 0 0 5.37258 0 12C0 18.6274 5.37258 24 12 24Z" fill="#FCFCFC"/>
<path d="M14.0383 8.38373C14.0383 7.25817 13.1258 6.3457 12.0002 6.3457C10.8746 6.3457 9.96216 7.25817 9.96216 8.38373H5.47852C5.47852 9.49191 6.44386 10.3904 7.55203 10.3904H7.48528C7.48528 11.4986 8.38359 12.3971 9.49195 12.3971C9.49195 13.3784 10.1967 14.1937 11.1274 14.368L11.1222 14.3797H12.8783L12.8731 14.368C13.8039 14.1936 14.5086 13.3783 14.5086 12.3971C15.6169 12.3971 16.5152 11.4986 16.5152 10.3904H16.4484C17.5566 10.3904 18.522 9.49191 18.522 8.38373H14.0383Z" fill="#FFDA44"/>
<path d="M11.104 14.1709L9.84033 17.0239C10.5071 17.2949 11.2358 17.4455 12 17.4455C12.7641 17.4455 13.4928 17.2949 14.1595 17.0239L12.8959 14.1709H11.104Z" fill="#FFDA44"/>
<path d="M9.39111 9.38574V12.8963C9.39111 14.893 11.9998 15.5049 11.9998 15.5049C11.9998 15.5049 14.6085 14.893 14.6085 12.8963V9.38574H9.39111Z" fill="#F0F0F0"/>
<path d="M2.90975 12.085L4.32064 16.0311L5.71686 12.085H6.78243L4.74683 17.3023H3.89441L1.84424 12.085H2.90975Z" fill="#338AF3"/>
<path d="M19.3042 17.3023V12.085H20.3182V17.3023H19.3042Z" fill="#338AF3"/>
<path d="M10.4346 10.5195V14.7736C10.7932 15.0376 11.1791 15.2191 11.4781 15.3354V10.5195H10.4346Z" fill="#D80027"/>
<path d="M13.565 10.5195V14.7736C13.2063 15.0376 12.8205 15.2191 12.5215 15.3354V10.5195H13.565Z" fill="#D80027"/>
<path d="M9.39111 9.38574H14.6085V11.0412H9.39111V9.38574Z" fill="#0052B4"/>
</g>
</svg>
