<svg width="24" height="24" viewBox="0 0 24 24" fill="none" xmlns="http://www.w3.org/2000/svg">
<mask id="mask0_1_2330" style="mask-type:luminance" maskUnits="userSpaceOnUse" x="0" y="0" width="24" height="24">
<path d="M24 0H0V24H24V0Z" fill="white"/>
</mask>
<g mask="url(#mask0_1_2330)">
<path d="M24 12C24 11.4695 23.9651 10.9471 23.8984 10.4347H10.4347C7.98306 7.98329 3.51452 3.51502 3.5147 3.51465C-1.17157 8.20093 -1.17157 15.7989 3.5147 20.4852L10.4348 13.5652H23.8984C23.9651 13.0528 24 12.5304 24 12Z" fill="black"/>
<path d="M23.9966 12.2725C23.996 12.2956 23.9955 12.3189 23.9949 12.342C23.9954 12.3188 23.996 12.2956 23.9966 12.2725Z" fill="#F0F0F0"/>
<path d="M23.9848 12.6006C23.9838 12.6235 23.9822 12.6463 23.981 12.6692C23.9822 12.6464 23.9837 12.6235 23.9848 12.6006Z" fill="#F0F0F0"/>
<path d="M23.9689 12.8623C23.9665 12.896 23.9641 12.9297 23.9614 12.9633C23.9641 12.9297 23.9664 12.896 23.9689 12.8623Z" fill="#F0F0F0"/>
<path d="M23.9287 10.6924C23.9331 10.7325 23.9375 10.7726 23.9415 10.8128C23.9375 10.7725 23.9331 10.7325 23.9287 10.6924Z" fill="#F0F0F0"/>
<path d="M23.981 11.3301C23.9822 11.353 23.9838 11.3758 23.9848 11.3987C23.9837 11.3758 23.9822 11.3529 23.981 11.3301Z" fill="#F0F0F0"/>
<path d="M23.9949 11.6572C23.9955 11.6804 23.996 11.7036 23.9966 11.7268C23.996 11.7035 23.9955 11.6804 23.9949 11.6572Z" fill="#F0F0F0"/>
<path d="M23.9614 11.0361C23.9641 11.0697 23.9665 11.1034 23.9689 11.1371C23.9664 11.1034 23.9641 11.0697 23.9614 11.0361Z" fill="#F0F0F0"/>
<path d="M23.8984 10.4347C23.9038 10.4758 23.9086 10.5172 23.9135 10.5584C23.2013 4.6108 18.1395 0 12 0C8.68626 0 5.68622 1.3432 3.51465 3.51487L10.4345 10.4348L23.8984 10.4347Z" fill="#D80027"/>
<path d="M23.8984 13.5651H10.4345L3.51465 20.485C5.68622 22.6566 8.68626 23.9998 12 23.9998C18.1395 23.9998 23.2014 19.389 23.9135 13.4414C23.9086 13.4826 23.9037 13.524 23.8984 13.5651Z" fill="#6DA544"/>
<path d="M23.9415 13.1875C23.9375 13.2277 23.9331 13.2678 23.9287 13.3079C23.9331 13.2678 23.9376 13.2278 23.9415 13.1875Z" fill="#F0F0F0"/>
<path d="M23.9133 10.5586C23.9187 10.6031 23.9238 10.6477 23.9286 10.6923C23.9237 10.6477 23.9186 10.6031 23.9133 10.5586Z" fill="black"/>
<path d="M23.9414 10.8125C23.9487 10.887 23.9553 10.9617 23.9613 11.0366C23.9554 10.9617 23.9488 10.8869 23.9414 10.8125Z" fill="black"/>
<path d="M24 12C24 12.0913 23.9986 12.1822 23.9966 12.2729C23.9986 12.1821 24 12.0912 24 12Z" fill="black"/>
<path d="M23.9809 12.6699C23.9774 12.7344 23.9732 12.7987 23.9688 12.8629C23.9732 12.7987 23.9773 12.7344 23.9809 12.6699Z" fill="black"/>
<path d="M23.9613 12.9639C23.9553 13.0387 23.9487 13.1134 23.9414 13.1879C23.9488 13.1134 23.9554 13.0387 23.9613 12.9639Z" fill="black"/>
<path d="M23.9286 13.3076C23.9238 13.3522 23.9187 13.3968 23.9133 13.4413C23.9186 13.3968 23.9237 13.3522 23.9286 13.3076Z" fill="black"/>
<path d="M23.9849 11.3994C23.9891 11.4853 23.9923 11.5715 23.9947 11.6578C23.9923 11.5714 23.9891 11.4853 23.9849 11.3994Z" fill="black"/>
<path d="M23.9947 12.3428C23.9923 12.4291 23.9891 12.5153 23.9849 12.6012C23.9892 12.5153 23.9923 12.4291 23.9947 12.3428Z" fill="black"/>
<path d="M23.9885 11.4737H9.99376L2.80517 4.28613C2.57281 4.53119 2.32095 4.87339 2.16519 5.11709L9.03981 11.9953L2.15942 18.8759C2.29564 19.1182 2.59241 19.4769 2.80077 19.7103L9.9939 12.5171H23.9902C23.9976 12.3441 24 12.1703 24 11.9954C23.9999 11.7611 23.9935 11.5884 23.9885 11.4737Z" fill="#FFDA44"/>
<path d="M2.9149 14.5584V13.5533C3.91793 13.5533 4.73388 12.7372 4.73388 11.7343C4.73388 11.0246 4.15652 10.4473 3.44693 10.4473C2.96351 10.4473 2.57018 10.8406 2.57018 11.3241C2.57018 11.6333 2.82167 11.8848 3.13085 11.8848C3.3056 11.8848 3.44778 11.7425 3.44778 11.5678H4.45287C4.45287 12.2968 3.85981 12.8899 3.1309 12.8899C2.26751 12.8899 1.56519 12.1875 1.56519 11.3242C1.56519 10.2866 2.4094 9.44238 3.44698 9.44238C4.71082 9.44238 5.73906 10.4706 5.73906 11.7344C5.73902 13.2915 4.47213 14.5584 2.9149 14.5584Z" fill="#FFDA44"/>
</g>
</svg>
