<svg width="24" height="25" viewBox="0 0 24 25" fill="none" xmlns="http://www.w3.org/2000/svg">
<path d="M12 24.5937C18.6274 24.5937 24 19.2212 24 12.5938C24 5.96634 18.6274 0.59375 12 0.59375C5.37258 0.59375 0 5.96634 0 12.5938C0 19.2212 5.37258 24.5937 12 24.5937Z" fill="#CE1126"/>
<path d="M12 24.5937C18.6274 24.5937 24 19.2212 24 12.5938C24 5.96634 18.6274 0.59375 12 0.59375C5.37258 0.59375 0 5.96634 0 12.5938C0 19.2212 5.37258 24.5937 12 24.5937Z" fill="#CE1126"/>
<path fill-rule="evenodd" clip-rule="evenodd" d="M8.87181 1.00586V9.4998H0.402832C1.50172 5.37053 4.74738 2.11655 8.87181 1.00586Z" fill="white"/>
<path fill-rule="evenodd" clip-rule="evenodd" d="M4.25353 3.42871V9.49947H0.402832C1.04244 7.096 2.40936 4.98905 4.25353 3.42871Z" fill="#002654"/>
<path fill-rule="evenodd" clip-rule="evenodd" d="M0.441063 9.35908H13.3493V0.668945C13.4434 0.679473 13.5372 0.691089 13.6306 0.70378V9.64033H0.366211C0.390052 9.54611 0.415008 9.45236 0.441063 9.35908Z" fill="white"/>
<path d="M17.1933 14.5331L15.0371 12.377H19.3495L17.1933 14.5331ZM16.4746 15.2518L14.3184 13.0957V17.408L16.4746 15.2518ZM17.1933 15.9706L15.0371 18.1268H19.3495L17.1933 15.9706ZM17.912 15.2518L20.0682 13.0957V17.408L17.912 15.2518Z" fill="white"/>
</svg>
