<svg width="24" height="24" viewBox="0 0 24 24" fill="none" xmlns="http://www.w3.org/2000/svg">
<mask id="mask0_1_1784" style="mask-type:luminance" maskUnits="userSpaceOnUse" x="0" y="0" width="24" height="24">
<path d="M24 0H0V24H24V0Z" fill="white"/>
</mask>
<g mask="url(#mask0_1_1784)">
<path d="M24 12C24 18.6274 18.6274 24 12 24C5.37262 24 0 18.6274 0 12C4.12172 7.87828 7.61737 4.38263 12 0C18.6274 0 24 5.37262 24 12Z" fill="#D80027"/>
<path d="M12 12C12 5.37262 12 4.59131 12 0C5.37262 0 0 5.37262 0 12H12Z" fill="#0052B4"/>
<path d="M9.61195 7.82617L9.80625 8.42406H10.4348L9.92625 8.79348L10.1205 9.39138L9.61195 9.02186L9.10336 9.39138L9.29766 8.79348L8.78906 8.42406H9.41766L9.61195 7.82617Z" fill="#F0F0F0"/>
<path d="M6.45448 3.13037L6.77824 4.12689H7.82599L6.9783 4.74259L7.30216 5.73906L6.45448 5.12317L5.60684 5.73906L5.93065 4.74259L5.08301 4.12689H6.13066L6.45448 3.13037Z" fill="#F0F0F0"/>
<path d="M9.58485 4.17383L9.90861 5.17039H10.9563L10.1087 5.78609L10.4324 6.78256L9.58485 6.16667L8.73721 6.78256L9.06102 5.78609L8.21338 5.17039H9.26103L9.58485 4.17383Z" fill="#F0F0F0"/>
<path d="M7.11073 8.34814L7.43454 9.34466H8.4822L7.63455 9.96036L7.95837 10.9568L7.11073 10.341L6.26309 10.9568L6.5869 9.96036L5.73926 9.34466H6.78696L7.11073 8.34814Z" fill="#F0F0F0"/>
<path d="M4.36752 5.73926L4.69133 6.73577H5.73903L4.89134 7.35148L5.21516 8.34795L4.36752 7.7321L3.51992 8.34795L3.84369 7.35148L2.99609 6.73577H4.04375L4.36752 5.73926Z" fill="#F0F0F0"/>
</g>
</svg>
