<svg width="25" height="24" viewBox="0 0 25 24" fill="none" xmlns="http://www.w3.org/2000/svg">
<path d="M12.3906 24C19.0181 24 24.3906 18.6274 24.3906 12C24.3906 5.37258 19.0181 0 12.3906 0C5.76322 0 0.390625 5.37258 0.390625 12C0.390625 18.6274 5.76322 24 12.3906 24Z" fill="white"/>
<path d="M5.74512 6.95087V5.0567H6.36274L6.76671 6.4982L7.16515 5.0567H7.78554V6.95087H7.39399V5.42317L6.98177 6.95087H6.55437L6.13666 5.42317V6.95087H5.74512ZM8.96571 5.43602L8.68446 6.24231H9.24832L8.96571 5.43602ZM8.72304 5.0567H9.20562L9.93771 6.95087H9.49929L9.36138 6.5612H8.57416L8.44043 6.95087H8.00065L8.72304 5.0567ZM11.0544 6.95087H10.6367V6.24489L9.89909 5.0567H10.4106L10.8449 5.87327L11.2461 5.0567H11.7231L11.0544 6.24489V6.95087ZM12.2428 6.00569C12.2428 6.214 12.2925 6.37605 12.3918 6.49178C12.491 6.60667 12.6298 6.66409 12.8081 6.66409C12.9883 6.66409 13.1284 6.60667 13.2286 6.49178C13.3288 6.37605 13.3789 6.214 13.3789 6.00569C13.3789 5.79738 13.3288 5.6358 13.2286 5.52091C13.1284 5.40517 12.9883 5.34733 12.8081 5.34733C12.6298 5.34733 12.491 5.40475 12.3918 5.51964C12.2925 5.63448 12.2428 5.79653 12.2428 6.00569ZM11.8168 6.00569C11.8168 5.69964 11.906 5.45702 12.0843 5.27786C12.2636 5.09786 12.5048 5.00781 12.8081 5.00781C13.1114 5.00781 13.3527 5.09786 13.5319 5.27786C13.7121 5.45791 13.8021 5.70053 13.8021 6.00569C13.8021 6.31089 13.7121 6.55352 13.5319 6.73352C13.3527 6.91356 13.1114 7.00356 12.8081 7.00356C12.5048 7.00356 12.2636 6.91356 12.0843 6.73352C11.906 6.55352 11.8168 6.31089 11.8168 6.00569ZM14.5535 6.95087V5.39491H13.9511V5.0567H15.5696V5.39491H14.9713V6.95087H14.5535ZM16.23 6.95087V5.39491H15.6275V5.0567H17.2461V5.39491H16.6478V6.95087H16.23ZM17.486 6.95087V5.0567H18.9598V5.38591H17.8982V5.78969H18.8688V6.11373H17.8982V6.60109H19.0094V6.95087H17.486Z" fill="#D42E12"/>
<path d="M7.01742 8.33411C6.84084 8.359 6.70781 8.40747 6.52996 8.51443C6.47278 8.54922 6.41929 8.57411 6.40936 8.57036C6.39942 8.56665 6.38822 8.53679 6.38325 8.50075C6.37828 8.46714 6.36707 8.42861 6.35836 8.4174C6.33351 8.38262 6.30989 8.41122 6.26386 8.52807C6.24271 8.58404 6.21909 8.63753 6.21286 8.64498C6.1905 8.67236 6.16064 8.66237 6.12459 8.61761C6.08854 8.57162 6.03379 8.55793 6.02137 8.5915C6.01762 8.60148 6.02011 8.64123 6.02761 8.68103C6.04996 8.79793 6.01392 8.81532 5.91197 8.737C5.82365 8.66861 5.79009 8.65492 5.75653 8.67236C5.7217 8.69101 5.72292 8.71712 5.76768 8.82029C5.80626 8.90982 5.80875 8.97451 5.77143 8.92229C5.7615 8.90861 5.71546 8.87753 5.66821 8.85512C5.62096 8.8315 5.54761 8.79297 5.50406 8.76807C5.46056 8.74445 5.40089 8.71586 5.37103 8.70465C5.31632 8.686 5.02035 8.6425 4.99548 8.65122C4.98802 8.6537 5.02906 8.68726 5.085 8.72706C5.20814 8.81162 5.44439 9.028 5.44439 9.05532C5.44439 9.0715 5.4307 9.07398 5.34492 9.06653C5.23176 9.05659 5.23425 9.05284 5.25909 9.17097C5.26781 9.21203 5.26907 9.23936 5.26157 9.24686C5.25412 9.25431 5.21559 9.25182 5.15714 9.23936C5.10614 9.22942 5.06137 9.2207 5.05641 9.2207C5.03776 9.2207 5.04646 9.31895 5.07257 9.40229C5.09746 9.48062 5.09746 9.48807 5.07754 9.50176C5.05269 9.52042 5.02408 9.5117 4.83507 9.42465C4.72315 9.37243 4.69456 9.36371 4.63362 9.3662C4.59507 9.36746 4.54906 9.37618 4.53041 9.38612L4.49559 9.40351L4.57642 9.49056C4.67217 9.595 4.76917 9.73431 4.78409 9.79023C4.81144 9.88351 4.71942 9.89968 4.40979 9.85989C4.24067 9.83748 4.12628 9.84123 4.07032 9.87109C4.02679 9.89345 3.87757 10.0327 3.87757 10.0514C3.87757 10.0576 3.9497 10.0663 4.03799 10.07C4.22326 10.0775 4.35757 10.1098 4.46824 10.1708C4.57269 10.2279 4.57021 10.2404 4.45704 10.2404C4.36254 10.2404 4.30783 10.2553 4.25808 10.2951C4.23446 10.3138 4.23446 10.315 4.25808 10.3411C4.29414 10.3809 4.36378 10.412 4.44959 10.4257C4.49311 10.4331 4.53041 10.4406 4.5329 10.4443C4.53539 10.4468 4.49684 10.4555 4.4471 10.463C4.31777 10.4841 4.13622 10.5376 4.04793 10.5824C3.96835 10.6222 3.96462 10.6271 3.94845 10.7428L3.94099 10.79L3.98079 10.7813C4.04296 10.7676 4.36378 10.7602 4.41601 10.7714C4.49559 10.7888 4.47321 10.8062 4.3501 10.8211C4.19591 10.8398 4.10887 10.8572 4.06783 10.8783L4.0355 10.8957L4.10265 10.9281C4.13995 10.9467 4.22575 10.9728 4.29414 10.9865C4.58513 11.0462 4.62119 11.0798 4.37746 11.0673C4.17726 11.0574 4.09767 11.0649 4.10389 11.0959C4.11011 11.1308 4.23322 11.1904 4.3613 11.2228C4.43964 11.2427 4.40979 11.2576 4.28171 11.2626C4.16607 11.2663 4.07902 11.2961 4.04296 11.3446C4.01436 11.3807 4.03177 11.5448 4.06534 11.5659C4.07281 11.5697 4.08773 11.5647 4.09891 11.5548C4.11011 11.5436 4.16109 11.5162 4.21208 11.4914C4.30783 11.4453 4.30907 11.4453 4.44586 11.4665C4.5043 11.4752 4.55528 11.5237 4.5988 11.6132C4.61994 11.6555 4.66347 11.7227 4.6958 11.7624C4.72813 11.8022 4.76544 11.8482 4.77787 11.8644C4.8015 11.893 4.8015 11.8943 4.77538 11.9465C4.7617 11.9763 4.74678 12.0099 4.74305 12.0211C4.72067 12.0982 4.34016 12.0721 4.04047 11.9726C3.92109 11.9328 3.74452 11.8457 3.66494 11.7873L3.604 11.7425V11.791C3.604 11.9104 3.69727 12.1131 3.79053 12.1964L3.85021 12.2499L3.78929 12.3668C3.71343 12.5123 3.70846 12.5682 3.7669 12.6267C3.78804 12.649 3.80296 12.6739 3.79799 12.6839C3.79426 12.6938 3.76193 12.7187 3.72586 12.7386C3.61395 12.802 3.61892 12.7958 3.66494 12.8194C3.68732 12.8319 3.74825 12.8443 3.79799 12.848C3.8527 12.853 3.89623 12.8617 3.90369 12.8717C3.93477 12.909 3.87011 12.991 3.7582 13.0582C3.73954 13.0694 3.75322 13.0743 3.83405 13.0868C3.88876 13.0942 3.96835 13.1017 4.01063 13.1029L4.08773 13.1054L4.06161 13.1527C4.03052 13.2086 3.97208 13.2696 3.92358 13.2994L3.88876 13.3218L3.92731 13.3268C3.94845 13.3305 3.99197 13.328 4.02431 13.3231C4.11757 13.3081 4.23073 13.3106 4.2556 13.328C4.29414 13.3566 4.26182 13.4213 4.16482 13.5145L4.08026 13.5966L4.13498 13.6053C4.23819 13.6202 4.36876 13.6041 4.43839 13.568C4.47445 13.5506 4.50554 13.5369 4.50803 13.5394C4.52544 13.558 4.45829 13.7384 4.41477 13.7881C4.40482 13.7993 4.39984 13.813 4.40482 13.8192C4.40979 13.8242 4.47694 13.8279 4.5528 13.8279C4.66098 13.8279 4.70202 13.8229 4.73435 13.8055C4.75797 13.7943 4.77911 13.7844 4.7816 13.7844C4.78284 13.7844 4.78533 13.8105 4.78533 13.8428C4.78533 13.8851 4.77662 13.9112 4.753 13.9423L4.72191 13.9833H4.75673C4.83756 13.9821 5.02906 13.9199 5.09747 13.8702C5.14223 13.8391 5.14593 13.8403 5.14593 13.8864C5.14471 13.9386 5.11734 14.0144 5.08875 14.0468C5.06264 14.0766 5.06887 14.0766 5.1907 14.0455C5.30015 14.0182 5.39714 13.9796 5.44687 13.9448C5.4929 13.9112 5.49787 13.9149 5.48789 13.9672C5.47673 14.0293 5.45311 14.0654 5.40586 14.0903C5.38471 14.1002 5.36976 14.1127 5.37351 14.1152C5.38345 14.1264 5.64586 14.0853 5.70553 14.0642C5.73539 14.0542 5.77017 14.0356 5.78264 14.0244C5.80378 14.0057 5.805 14.0057 5.805 14.0356C5.805 14.053 5.79131 14.0927 5.77392 14.1251C5.75653 14.1574 5.74284 14.186 5.74284 14.1898C5.74284 14.1997 5.81123 14.1786 5.89082 14.1437C5.93432 14.1239 5.98532 14.1077 6.00398 14.1077C6.04626 14.1077 6.096 14.1462 6.13453 14.2072C6.15567 14.2407 6.18801 14.2656 6.25017 14.2967L6.33721 14.3402L6.34218 14.2892C6.34842 14.2432 6.55359 13.7035 6.57346 13.6824C6.58218 13.6737 6.83212 13.8453 7.07339 14.0244C7.21889 14.1325 7.55339 14.4646 7.65159 14.5989C7.92145 14.967 8.00971 15.2206 8.01098 15.631C8.01098 15.8573 7.99607 15.9779 7.94381 16.1955C7.82943 16.6606 7.56332 17.1033 7.26112 17.3271C7.06218 17.4751 6.82715 17.5248 6.38943 17.5112C5.8597 17.495 5.52895 17.3843 5.28398 17.1443C5.10243 16.9652 4.98305 16.7315 4.93331 16.4579C4.92585 16.4132 4.91963 16.3037 4.91963 16.2154C4.91963 15.912 4.98802 15.7019 5.13726 15.5415C5.26654 15.4034 5.40459 15.3276 5.58117 15.3002C5.74903 15.2741 5.94056 15.3301 6.05868 15.4382C6.14076 15.5141 6.14446 15.5501 6.07982 15.6795C6.02264 15.7951 6.01762 15.825 6.05371 15.861C6.08728 15.8946 6.15693 15.8934 6.23648 15.8548C6.35212 15.8013 6.40936 15.6708 6.39942 15.4892C6.38943 15.3263 6.31359 15.2206 6.14198 15.1336C5.97534 15.0503 5.89082 15.0341 5.6309 15.0354C5.41579 15.0354 5.39339 15.0378 5.28895 15.0701C5.08003 15.1336 4.9532 15.2181 4.85497 15.3549C4.63114 15.6708 4.50803 16.2129 4.58015 16.5636C4.63611 16.8309 4.78533 17.1207 4.99299 17.3595C5.34365 17.7648 5.80875 17.9501 6.47648 17.9501C6.97139 17.9501 7.32206 17.8556 7.67025 17.6293C8.05823 17.3781 8.30943 17.0523 8.52206 16.5263C8.57925 16.3821 8.60165 16.2925 8.61159 16.1682C8.61534 16.1072 8.62528 16.0575 8.63648 16.045C8.68622 15.9879 8.70361 15.825 8.67253 15.7193L8.65387 15.6596L8.6924 15.626C8.76079 15.5651 8.75334 15.4333 8.67623 15.345L8.64018 15.304L8.68125 15.2629C8.73468 15.2082 8.75831 15.105 8.74837 14.9682C8.74214 14.8737 8.69986 14.7419 8.67623 14.7419C8.65139 14.7419 8.66756 14.7083 8.70361 14.6872C8.75957 14.6536 8.78939 14.5976 8.78939 14.523C8.78939 14.3725 8.72723 14.1413 8.68125 14.1239C8.66259 14.1164 8.65884 14.0828 8.67623 14.0828C8.70487 14.0828 8.7434 13.9659 8.74964 13.8602C8.75709 13.7272 8.73098 13.6252 8.67623 13.5705L8.64018 13.5332L8.67872 13.4536C8.71232 13.3852 8.71729 13.3653 8.71106 13.3081C8.69737 13.1763 8.55192 12.9326 8.44246 12.8604C8.40267 12.8343 8.39151 12.8194 8.39151 12.7908C8.39151 12.7075 8.32307 12.5844 8.2087 12.4613C8.08931 12.3345 8.05078 12.2772 8.02589 12.1877C8.0085 12.1305 7.98984 12.1007 7.93762 12.0484C7.87668 11.9875 7.74736 11.9104 7.67025 11.8905C7.65407 11.8868 7.6454 11.8743 7.6454 11.8545C7.64414 11.7749 7.54589 11.6418 7.45884 11.602C7.41534 11.5821 7.40911 11.5747 7.40911 11.5386C7.40911 11.4876 7.36682 11.4366 7.26736 11.3682C7.17286 11.3049 7.02365 11.2663 6.79359 11.2464C6.30989 11.2066 6.09473 11.1257 5.8672 10.8994C5.72915 10.7627 5.67567 10.6706 5.62593 10.4891C5.58492 10.3386 5.58243 10.1981 5.6197 10.0887C5.64586 10.0116 5.72915 9.85492 5.74406 9.85492C5.74903 9.85492 5.74157 9.89593 5.72789 9.94445C5.69559 10.0626 5.69184 10.2565 5.7217 10.351C5.76271 10.4829 5.84357 10.5811 5.95673 10.6396C6.03379 10.6794 6.07111 10.6881 6.20292 10.7005C6.3397 10.7129 6.43171 10.7403 6.47648 10.7813C6.54365 10.8435 6.69412 10.851 6.83836 10.8012C6.87567 10.7875 6.94528 10.7726 6.99379 10.7689L7.08332 10.7602L7.19896 10.841C7.31836 10.9231 7.8344 11.2141 7.92515 11.2501C8.09057 11.316 8.27709 11.27 8.35542 11.1444C8.41884 11.0437 8.36165 10.9492 8.09179 10.7055C7.87293 10.509 7.82072 10.4418 7.79212 10.3274C7.7797 10.2789 7.7399 10.1732 7.70132 10.0937C7.61057 9.89842 7.60931 9.86486 7.69514 9.77532C7.7287 9.73928 7.76601 9.68954 7.77595 9.66339C7.79587 9.6174 7.80454 9.51297 7.79086 9.49801C7.7834 9.49182 7.70011 9.50922 7.65656 9.52539C7.64292 9.53036 7.64043 9.5117 7.64414 9.42592C7.64662 9.35875 7.64165 9.30526 7.63293 9.28164L7.61681 9.24437L7.57204 9.28787C7.52601 9.33264 7.49245 9.34384 7.4775 9.32022C7.47379 9.31398 7.46507 9.27793 7.45884 9.24062C7.44642 9.16229 7.39668 9.04042 7.38426 9.05532C7.37929 9.06029 7.36809 9.0864 7.35937 9.11129C7.35192 9.1374 7.34071 9.15854 7.33453 9.15854C7.32956 9.15854 7.32084 9.12868 7.31587 9.09264C7.30218 8.98571 7.28728 8.94095 7.25367 8.90982C7.22634 8.88372 7.21889 8.8825 7.21017 8.8974C7.20393 8.90734 7.19775 8.92975 7.19775 8.94714C7.19775 9.00189 7.16292 9.11256 7.11689 9.20579C7.02736 9.38486 6.94279 9.36746 6.7687 9.1374C6.66923 9.00559 6.65432 8.96457 6.68165 8.90486C6.74756 8.76559 7.02365 8.57781 7.28353 8.497C7.33204 8.48209 7.37179 8.46592 7.37179 8.46095C7.37179 8.43732 7.30964 8.38136 7.25493 8.35525C7.19273 8.32665 7.12064 8.32042 7.01742 8.33411Z" fill="#DFDFDF"/>
<path d="M4.44834 10.8056C4.5273 10.7617 4.14419 10.7686 4.0632 10.7694C4.00836 10.786 3.95799 10.8099 3.94114 10.8021C3.92429 10.7943 3.93784 10.733 3.95493 10.6289C4.01522 10.5794 4.07765 10.5529 4.14412 10.5335C4.20749 10.511 4.26341 10.4963 4.33571 10.4733C4.40502 10.465 4.42747 10.4682 4.52612 10.4466C4.4104 10.4282 4.32825 10.4423 4.21321 10.3212C4.25971 10.2932 4.27802 10.2578 4.33394 10.2444C4.38986 10.2324 4.4095 10.2343 4.45542 10.2343C4.54346 10.2343 4.5692 10.2504 4.51029 10.208C4.45138 10.1655 4.33889 10.1173 4.21258 10.0943C4.10159 10.0752 3.93318 10.0746 3.85201 10.0713C3.88927 9.99767 3.95858 9.95464 4.00068 9.9087C4.06958 9.82452 4.22789 9.82639 4.46519 9.86469C4.84028 9.91058 4.86324 9.86469 4.62594 9.56614L4.47511 9.40011L4.57079 9.36214L4.67527 9.35933C4.77478 9.3823 4.90151 9.45898 4.97806 9.48959C5.10055 9.54317 5.0939 9.49273 5.05561 9.39322C5.02499 9.30898 5.0472 9.30945 5.03532 9.21627C5.09657 9.21627 5.25801 9.27753 5.25801 9.23923C5.25801 9.1933 5.23687 9.16255 5.22496 9.05694C5.27854 9.05694 5.39868 9.07133 5.42512 9.06561C5.45155 9.05994 5.38837 8.99905 5.32396 8.94134L5.15826 8.79284L4.92423 8.63502L5.27151 8.67852C5.37866 8.67852 5.54821 8.79491 5.63816 8.84178C5.68312 8.86522 5.72582 8.87248 5.75282 8.90084C5.8147 8.92381 5.74035 8.98508 5.78516 8.92864C5.80804 8.88758 5.7022 8.76617 5.71659 8.70275C5.79248 8.55805 5.96254 8.82298 5.99952 8.78019C6.07035 8.77255 5.96488 8.60764 6.02104 8.57422C6.1012 8.5265 6.14681 8.69037 6.18993 8.66141C6.2331 8.63244 6.26104 8.42239 6.3292 8.396C6.3974 8.36966 6.36965 8.61036 6.41554 8.57783C6.51505 8.50892 6.73045 8.37378 6.90759 8.34922C6.99618 8.33698 7.0994 8.31153 7.18677 8.32723C7.27415 8.34298 7.35655 8.40308 7.38032 8.47644C7.26266 8.51075 7.2441 8.51394 7.12162 8.56752C6.99913 8.61345 6.8384 8.72825 6.76185 8.8048C6.63168 8.95025 6.63168 8.96558 6.77713 9.14928C6.96084 9.40189 7.05271 9.38656 7.15223 9.0957C7.19432 8.98086 7.1812 8.90792 7.20116 8.86883C7.21274 8.87727 7.25465 8.89461 7.27982 8.93403C7.3019 8.96848 7.32159 9.12092 7.32135 9.16067C7.33977 9.14947 7.35698 9.09941 7.37423 9.01916C7.42026 9.10784 7.43343 9.13705 7.44876 9.17914C7.46404 9.22123 7.45077 9.33298 7.49671 9.33298C7.52348 9.33298 7.55601 9.28128 7.61305 9.23084C7.66232 9.32337 7.65529 9.43892 7.6356 9.52653C7.67418 9.51397 7.75326 9.48702 7.79165 9.48345C7.80365 9.52953 7.8029 9.58503 7.79357 9.62698C7.76559 9.68698 7.75696 9.73869 7.6957 9.78463C7.60387 9.86117 7.60387 9.90711 7.6957 10.0832C7.75696 10.198 7.8029 10.3281 7.8029 10.3817C7.8029 10.4276 7.94066 10.5807 8.11673 10.7262C8.33109 10.9099 8.40763 11.0247 8.37698 11.1089C8.30043 11.2926 8.06315 11.3462 7.84879 11.2314C7.74932 11.1778 7.52732 11.0553 7.35126 10.9558C7.23262 10.8907 7.15448 10.8198 7.0821 10.7743C6.9658 10.7727 6.87721 10.7834 6.77713 10.8333C6.62404 10.8563 6.50156 10.841 6.47095 10.7951C6.44034 10.7491 6.31785 10.7109 6.20301 10.7109C5.89682 10.7109 5.69638 10.5083 5.68438 10.2118C5.67979 10.083 5.69718 10.0016 5.73993 9.85653C5.57095 10.1234 5.56101 10.2464 5.62171 10.4819C5.69484 10.8106 6.03463 11.2314 6.78477 11.2391C6.92638 11.2429 7.04502 11.283 7.17895 11.3098C7.26459 11.3606 7.44721 11.4576 7.41013 11.5793C7.54902 11.6164 7.64437 11.7604 7.64634 11.8785C7.9874 11.9806 8.03254 12.1806 8.03254 12.2188C8.03254 12.2571 8.11673 12.3719 8.22388 12.4715C8.33109 12.571 8.4021 12.7318 8.38893 12.8206C8.50752 12.8818 8.55009 12.9713 8.62223 13.0685C8.6834 13.1927 8.78521 13.3472 8.63498 13.533C8.79229 13.5913 8.7854 14.0367 8.65982 14.1012C8.75221 14.1647 8.77204 14.3197 8.79177 14.5306C8.79262 14.6016 8.7697 14.6651 8.65696 14.7213C8.68701 14.7364 8.71087 14.778 8.72723 14.8324C8.74359 14.8867 8.7524 14.9539 8.7523 15.0202C8.75221 15.0865 8.74321 15.1519 8.72395 15.2028C8.70468 15.2537 8.6751 15.29 8.6339 15.2983C8.77438 15.3899 8.77096 15.6326 8.64988 15.6576C8.71771 15.7814 8.69643 16.0249 8.6099 16.0727C8.62884 16.3226 8.52984 16.4998 8.47748 16.6318C8.37271 16.8959 8.23466 17.1199 8.0616 17.3079C7.88854 17.4959 7.68041 17.648 7.43545 17.7686C6.89962 18.0289 5.9887 18.0212 5.46815 17.7533C5.00888 17.516 4.63379 17.0031 4.55725 16.5056C4.48835 16.0616 4.70269 15.4109 4.97826 15.2042C5.41457 14.8827 6.26427 14.9899 6.38676 15.3803C6.44798 15.5793 6.37143 15.8166 6.22598 15.8702C6.03463 15.9391 5.95809 15.8472 6.06524 15.6788C6.14179 15.5487 6.13415 15.5104 6.01166 15.4109C5.64421 15.143 5.0931 15.3803 4.96295 15.8549C4.8022 16.4673 5.05481 17.0873 5.56766 17.3399C5.99634 17.5543 6.86132 17.5696 7.16755 17.3782C7.7646 17.0031 8.1397 15.985 7.95599 15.2195C7.85648 14.7985 7.44309 14.278 6.90726 13.9182L6.57046 13.6809L6.44798 13.9948C6.38291 14.1593 6.32549 14.2507 6.34101 14.3547C6.24154 14.294 6.20563 14.305 6.13701 14.2404C6.1064 14.1715 6.04991 14.0943 5.96573 14.1172C5.9466 14.123 5.83059 14.1913 5.71504 14.207C5.75484 14.114 5.79515 14.1113 5.79046 14.0186C5.72849 14.0976 5.55107 14.1074 5.32101 14.1318C5.50101 14.0287 5.46684 14.0086 5.4802 13.922C5.41129 13.9999 5.23935 14.0485 5.04052 14.0842C5.14302 13.9771 5.12549 13.9442 5.13557 13.8466C5.03473 13.9458 4.78913 14.0013 4.69805 13.9954C4.77783 13.9026 4.77913 13.9038 4.77758 13.789C4.68803 13.8593 4.52258 13.8494 4.37459 13.8232C4.46582 13.7255 4.49375 13.6178 4.49895 13.536C4.37898 13.6475 4.18249 13.6235 4.05413 13.6022C4.15467 13.513 4.21561 13.4628 4.24684 13.4068C4.28322 13.3364 4.25871 13.3135 4.13623 13.3135C4.05203 13.3135 3.99376 13.3675 3.8695 13.3199C4.04968 13.2486 4.09863 13.0184 4.13908 13.0137C4.30027 12.9952 3.91481 13.3071 4.25989 13.2415C4.34608 13.229 4.38528 13.2306 4.44921 13.2343C4.40441 13.3 4.39677 13.3027 4.35822 13.3518C4.3149 13.4156 4.30628 13.4988 4.20378 13.5526C4.29078 13.5531 4.3619 13.5611 4.41951 13.5154C4.47712 13.4697 4.47773 13.451 4.59918 13.3636C4.61574 13.4552 4.60757 13.4735 4.59858 13.5342C4.58305 13.6392 4.56277 13.6668 4.53117 13.7498C4.66302 13.7804 4.74408 13.7388 4.76712 13.6819C4.80154 13.646 4.85075 13.5544 4.91834 13.5358C4.94579 13.6184 4.91657 13.6216 4.90648 13.6915C4.87775 13.7701 4.8706 13.826 4.84597 13.8998C4.97979 13.8617 5.06198 13.8134 5.14668 13.7115C5.29209 13.589 5.29209 13.589 5.2462 13.7498C5.22726 13.857 5.23185 13.8809 5.19295 13.9734C5.3218 13.951 5.44138 13.8914 5.50645 13.7881C5.58299 13.6733 5.59063 13.6809 5.56002 13.8264C5.55571 13.9242 5.57268 13.94 5.54863 14.0347C5.66559 14.0099 5.75141 13.9641 5.81263 13.8646C5.88918 13.7498 5.89682 13.7575 5.86621 13.9029C5.84709 13.9947 5.88224 14.0137 5.82801 14.1095C5.9602 14.0532 5.96573 14.0675 6.01166 13.9948C6.04227 13.9335 6.09276 14.0153 6.15398 14.1301C6.20376 14.2182 6.24416 14.2249 6.28124 14.2292C6.29034 14.162 6.31785 14.1172 6.37907 13.9718C6.44798 13.8034 6.49391 13.6656 6.48627 13.6503C6.47095 13.6426 6.27955 13.5432 6.06524 13.4283C5.84324 13.3212 5.65954 13.1987 5.65954 13.1527C5.65954 13.1145 5.62124 13.0838 5.56766 13.0838C5.44518 13.0838 5.12371 12.7776 5.12371 12.6628C5.12371 12.6093 5.05481 12.4791 4.9706 12.3796C4.85578 12.2265 4.72565 12.1729 4.38118 12.1347C4.13767 12.0916 3.93333 12.0275 3.80707 11.9586C3.74389 11.9255 3.73525 11.8976 3.68673 11.8787C3.68482 11.9189 3.71139 12.0428 3.79942 12.127C3.84918 12.1806 3.90013 12.1922 3.94541 12.2202C3.90282 12.2635 3.87214 12.3452 3.83769 12.4025C3.76114 12.525 3.76114 12.5633 3.86831 12.6016C3.96783 12.6399 3.96783 12.6628 3.88362 12.7164C3.84918 12.7432 3.7973 12.7616 3.76099 12.785C3.81788 12.7992 3.86237 12.8027 3.97093 12.775C4.10872 12.6916 4.11925 12.7162 4.05968 12.8006C4.01087 12.8743 3.97787 12.9566 3.9069 13.0137C3.98815 13.018 4.02523 13.0035 4.09796 12.9767C4.1745 12.9461 4.2393 12.9255 4.18671 13.0444C4.13673 13.1274 4.16432 12.9997 4.11689 13.1093C4.03516 13.125 3.84955 13.1056 3.71383 13.0728C3.83597 13.0058 3.88061 12.9534 3.89592 12.919C3.91889 12.8501 3.853 12.8542 3.79176 12.8542C3.76497 12.8542 3.67641 12.8649 3.61023 12.7915C3.66522 12.7616 3.7488 12.7345 3.7991 12.6714C3.64217 12.5809 3.73335 12.4438 3.76993 12.3786C3.80021 12.3266 3.80269 12.299 3.83786 12.245C3.78956 12.2414 3.71904 12.1499 3.68459 12.0887C3.61188 11.9586 3.58031 11.8349 3.59085 11.7286C3.69459 11.8086 3.7348 11.8344 3.79942 11.8665C3.90908 11.9321 4.14447 12.0146 4.35243 12.046C4.5604 12.0775 4.74096 12.0734 4.74096 11.9968C4.74096 11.9203 4.82418 11.9267 4.76399 11.8655C4.65129 11.7509 4.59063 11.648 4.55553 11.5466C4.48993 11.4672 4.40708 11.4613 4.29726 11.4601C4.239 11.4913 4.12535 11.5184 4.0729 11.5942C4.02356 11.5706 3.99814 11.4186 4.02312 11.3463C4.03385 11.3152 4.16063 11.2557 4.23212 11.2531C4.3036 11.2506 4.34155 11.271 4.4045 11.2443C4.3304 11.2229 4.28989 11.2242 4.21268 11.1857C4.14401 11.1515 4.07747 11.1312 4.08646 11.0876C4.09758 11.0337 4.47731 11.0705 4.53089 11.0724C4.5749 11.0743 4.44788 11.0216 4.35428 11.0097C4.29286 10.9877 4.15596 10.9963 4.01747 10.8935C4.11966 10.8279 4.1735 10.8555 4.25729 10.8246M4.5727 10.8372C4.54188 10.9021 4.17279 10.8844 4.27542 10.9112C4.27542 10.9112 4.5605 10.9638 4.65485 11.0447C4.67154 11.1164 4.57206 11.1482 4.57206 11.1482L4.21054 11.1097C4.20666 11.1591 4.56197 11.1778 4.54974 11.2522C4.54578 11.2763 4.5694 11.3217 4.45117 11.3082C4.3435 11.3131 4.2114 11.3022 4.13146 11.3435C4.07337 11.3725 4.06637 11.4369 4.08462 11.492C4.13721 11.4492 4.22088 11.4139 4.26681 11.3986C4.36488 11.3859 4.43582 11.406 4.50209 11.4343C4.56836 11.4627 4.61443 11.4931 4.67207 11.6065C4.71034 11.706 4.83281 11.8208 4.94764 11.8667C5.07013 11.905 5.26579 12.0098 5.35335 12.127C5.45038 12.2569 5.5228 12.3621 5.75657 12.4971C5.98621 12.7038 5.78788 12.6304 5.88627 12.6455C6.14985 12.6859 6.29488 12.747 6.34082 12.8082C6.3944 12.8695 6.51688 12.9384 6.6164 12.9613C6.72356 12.992 6.80774 13.0456 6.80774 13.0838C6.80774 13.1298 6.86132 13.1604 6.93023 13.1604C7.09865 13.1604 7.84879 13.9489 7.9866 14.2627C8.24685 14.8521 8.29279 15.0665 8.29279 15.6405C8.28515 16.0233 8.23921 16.3678 8.1703 16.5285C8.01721 16.8883 7.36434 17.6112 7.18832 17.6112C7.1572 17.62 7.16976 17.6167 7.13287 17.6227C7.1159 17.648 7.10624 17.6504 7.04643 17.6784C6.95952 17.7218 6.8481 17.743 6.71221 17.7469C6.57632 17.7508 6.41596 17.7373 6.23118 17.7114C6.0464 17.6855 5.86523 17.6472 5.73023 17.6024C5.59523 17.5576 5.54559 17.5334 5.50645 17.4921C5.49473 17.4797 5.46365 17.4637 5.46885 17.4099C5.4411 17.4352 5.37656 17.4292 5.2994 17.3594C5.23677 17.3027 5.17649 17.2763 5.2079 17.2194C5.12507 17.2107 5.11096 17.1755 5.04568 17.0838C5.00276 17.0234 4.95396 16.9701 4.97486 16.8847C4.91781 16.8961 4.88952 16.8163 4.85684 16.7406C4.82819 16.6744 4.7771 16.5841 4.84067 16.5514C4.76758 16.5532 4.78131 16.4639 4.77242 16.4017C4.76354 16.3396 4.74521 16.2431 4.81891 16.2262C4.74342 16.2023 4.77572 16.1244 4.78709 16.0544C4.80303 15.9563 4.81205 15.9033 4.87469 15.8903C4.8187 15.8652 4.85283 15.7732 4.88973 15.6476C4.91931 15.5469 4.98711 15.5102 5.06512 15.5269C4.99051 15.47 5.12676 15.3771 5.15606 15.3527C5.23743 15.2847 5.32991 15.2595 5.3481 15.3037C5.34027 15.221 5.62879 15.2137 5.73918 15.2262C5.84957 15.2387 5.9466 15.2884 6.04991 15.3726C6.2107 15.5028 6.21834 15.541 6.13415 15.6788C6.03463 15.8549 6.11118 15.8931 6.25659 15.7477C6.40973 15.5946 6.36379 15.4032 6.14179 15.2272C5.97337 15.0894 5.85857 15.0665 5.56766 15.0894C5.05481 15.143 4.84812 15.3037 4.70268 15.7783C4.47304 16.5668 4.78689 17.3476 5.47584 17.6844C5.78202 17.8298 5.96573 17.8681 6.4633 17.8681C7.19048 17.8604 7.64212 17.6844 8.06315 17.2175C8.3234 16.9342 8.61431 16.1943 8.52243 16.0565C8.37299 15.9929 8.52243 15.9927 8.56837 15.9927C8.62959 15.9927 8.65255 15.6755 8.53855 15.6178C8.76604 15.6187 8.64557 15.3344 8.5086 15.2785C8.63123 15.2755 8.69193 15.1556 8.69554 15.0288C8.6992 14.9019 8.6458 14.7681 8.54034 14.7374C8.46084 14.7143 8.53406 14.6931 8.60868 14.6762C8.6977 14.6559 8.73191 14.6426 8.72095 14.4841C8.70773 14.3802 8.67116 14.2065 8.59584 14.1745C8.5183 14.1415 8.3976 14.1319 8.33024 14.1259C8.41199 14.0995 8.48995 14.0842 8.55304 14.079C8.69085 14.0216 8.7373 13.7429 8.61341 13.6649C8.48952 13.5868 8.17771 13.7402 8.1613 13.6769C8.2221 13.6104 8.41045 13.594 8.49407 13.5332C8.59645 13.4326 8.69085 13.3364 8.52243 13.0992C8.43824 12.969 8.4516 12.9368 8.35415 12.9008C8.22491 12.8956 7.94774 13.0696 7.73568 13.0628C7.8328 12.982 8.16309 12.9171 8.26851 12.8407C8.37388 12.7642 8.29391 12.6455 8.18563 12.5098C8.05551 12.3949 8.00188 12.3873 7.83351 12.4638C7.71866 12.5097 7.53693 12.5576 7.34001 12.5905C7.41646 12.5116 7.7646 12.4255 7.84115 12.3643C7.9866 12.2571 7.9866 12.2122 7.84879 12.0591L7.64268 11.9743L7.41248 12.0964C7.2441 12.1729 6.98348 12.2638 6.98348 12.2408C6.98348 12.2255 7.22113 12.1193 7.34357 12.0505C7.47374 11.9816 7.55301 11.882 7.55301 11.8285C7.55301 11.6371 7.37643 11.6117 7.10577 11.8003C6.96796 11.8807 6.62399 11.9855 6.60346 11.9469C6.57796 11.8989 6.83409 11.8519 6.96084 11.7902C7.08665 11.7184 7.32295 11.6007 7.32295 11.5395C7.29191 11.4356 7.15223 11.3615 6.54749 11.2926C6.09585 11.239 5.85857 11.0936 5.65954 10.7645C5.41457 10.3664 5.46051 10.0219 5.78966 9.70808L6.06524 9.44783L5.90451 9.69275C5.60596 10.1214 5.75141 10.6343 6.1724 10.6343C6.27191 10.6343 6.41737 10.6726 6.49391 10.7262C6.60107 10.7874 6.69435 10.7742 6.78435 10.7477L6.93065 10.7046L6.98137 10.6937L6.76949 10.5501C6.53216 10.4353 6.43265 10.2133 6.56282 10.0832C6.60871 10.0372 6.62404 10.0832 6.60107 10.2057C6.57046 10.3511 6.60107 10.42 6.70823 10.4583C6.78477 10.4965 6.93787 10.5807 7.03738 10.6572C7.36654 10.8946 7.81054 11.1702 7.85648 11.1702C7.87945 11.1702 7.84115 11.0936 7.75696 10.9941C7.67277 10.9022 7.71866 10.9175 7.85648 11.0477C8.06315 11.2314 8.12437 11.2543 8.22388 11.1702C8.39231 11.0323 8.36934 10.9711 8.07848 10.7874C7.90241 10.6879 7.77993 10.5271 7.71866 10.3434C7.67277 10.1903 7.59618 10.0219 7.56557 9.97602C7.51963 9.92239 7.5426 9.85353 7.61151 9.79227C7.67657 9.73869 7.74163 9.61423 7.7347 9.56867C7.70446 9.57434 7.68149 9.58283 7.64981 9.60092C7.61151 9.62389 7.57326 9.59323 7.57326 9.52437C7.57326 9.48992 7.59974 9.35942 7.59257 9.32736C7.57452 9.36059 7.51963 9.43634 7.49671 9.44783C7.45841 9.4708 7.41248 9.44783 7.41248 9.39425C7.40099 9.28325 7.38674 9.25077 7.37727 9.19855C7.36152 9.22709 7.28226 9.34152 7.24631 9.36898C7.27687 9.28447 7.25273 9.0133 7.23955 8.98808C7.2373 9.06073 7.19638 9.18987 7.18406 9.23661C7.10277 9.35117 7.08304 9.3762 6.99154 9.40395C6.91401 9.40681 6.87665 9.37508 6.76949 9.2488C6.66234 9.11867 6.59676 9.02112 6.59052 8.9548C6.59052 8.88589 6.81763 8.61345 7.08656 8.51094C7.20051 8.46955 7.21593 8.45783 7.28582 8.43917C7.26679 8.43486 7.23885 8.40828 7.15579 8.39277C7.11224 8.38466 6.93604 8.38527 6.82227 8.43927C6.72055 8.47189 6.48543 8.5723 6.37827 8.6795C6.32015 8.68925 6.3861 8.49373 6.31827 8.52195C6.25045 8.55017 6.27726 8.75384 6.22002 8.78436C6.13415 8.8302 6.12027 8.67978 6.08202 8.67978C6.04373 8.68362 6.11287 8.85819 6.04176 8.89887C5.99526 8.9255 5.8341 8.72773 5.81493 8.75834C5.80082 8.78225 5.93938 8.9458 5.90202 8.97008C5.8559 9.00645 5.86035 9.05511 5.75831 9.0147C5.67468 8.97252 5.30531 8.74062 5.21015 8.74723C5.29846 8.80517 5.36704 8.87553 5.46281 8.963C5.6159 9.12373 5.65916 9.1438 5.53668 9.16241C5.42291 9.1438 5.39479 9.10939 5.33868 9.14736C5.3106 9.16634 5.36432 9.31128 5.3263 9.33444C5.28829 9.35764 5.1577 9.30669 5.14312 9.32173C5.08476 9.38202 5.18859 9.46278 5.15413 9.55081C5.1082 9.68098 5.08523 9.68094 4.93214 9.57378C4.80966 9.48575 4.65312 9.4228 4.64843 9.45608C4.64225 9.49986 4.67953 9.5202 4.74843 9.61972C4.97041 9.93355 4.90917 9.99481 4.47285 9.94887C4.47285 9.94887 4.11755 9.84523 4.01112 10.0077C4.11625 9.98792 4.36809 10.038 4.43525 10.0672C4.47163 10.0829 4.55041 10.1301 4.61843 10.1842C4.65244 10.2112 4.63277 10.2325 4.61217 10.2922C4.53255 10.3209 4.44579 10.3385 4.35184 10.3332C4.63595 10.4476 4.61051 10.353 4.71352 10.4105C4.63953 10.5325 4.58065 10.5235 4.32761 10.5589C4.26493 10.5889 4.20436 10.6031 4.13547 10.6222C4.06466 10.6413 4.02086 10.6962 4.03834 10.7025C4.05583 10.7088 4.12527 10.6912 4.20329 10.6835C4.29479 10.6847 4.24742 10.6839 4.45248 10.705C4.54833 10.7284 4.59124 10.7988 4.5727 10.8372Z" fill="black"/>
<path d="M7.1771 10.0702C7.1771 10.1149 7.15108 10.1512 7.11907 10.1512C7.087 10.1512 7.06104 10.1149 7.06104 10.0702C7.06104 10.0255 7.087 9.98926 7.11907 9.98926C7.15029 9.98926 7.17593 10.0238 7.17705 10.0674" fill="black"/>
<path d="M7.29386 10.1301C7.25711 10.223 7.14921 10.2697 7.05288 10.2342C6.9565 10.1988 6.90818 10.0947 6.94493 10.0017C6.98163 9.90877 7.08953 9.86217 7.18591 9.89761C7.28214 9.933 7.33047 10.0369 7.29396 10.1298" stroke="black" stroke-width="1.7"/>
<path d="M6.61865 9.82895C6.86029 9.70149 7.19418 9.89921 7.19418 9.89921" stroke="black" stroke-width="1.7"/>
<path d="M4.80693 12.0231C4.7983 11.982 4.81701 11.9616 4.88349 11.9189C4.96552 11.9292 5.10804 11.9875 5.19837 12.0675C5.35222 12.2038 5.37556 12.2545 5.46233 12.3711C5.42693 12.4412 5.40392 12.4563 5.33684 12.5216C5.26869 12.5662 5.22837 12.5933 5.18206 12.6155C5.14512 12.5009 5.10017 12.4443 4.99814 12.3126C4.95041 12.2399 4.80934 12.1844 4.73779 12.1305C4.75323 12.0735 4.78152 12.069 4.80693 12.0231Z" fill="#DFDFDF"/>
<path d="M5.38262 12.5641C5.45307 12.5186 5.47177 12.4542 5.52066 12.4248C5.58512 12.4526 5.56834 12.4605 5.67296 12.5118C5.78541 12.5829 5.74473 12.5671 5.83149 12.6837C5.7961 12.7537 5.77749 12.7864 5.72359 12.8605C5.66424 12.9139 5.66345 12.9542 5.60837 13.0203C5.50552 12.9935 5.43859 12.9545 5.35852 12.8624C5.30199 12.794 5.23562 12.7913 5.20801 12.6759C5.28057 12.6277 5.33963 12.6056 5.38262 12.5641Z" fill="#DFDFDF"/>
<path d="M5.78252 12.8883C5.83539 12.8165 5.84529 12.7653 5.88982 12.7139C5.96744 12.724 6.02979 12.7364 6.12119 12.7658C6.24686 12.7929 6.26327 12.8342 6.32805 12.9024C6.29266 12.9725 6.28722 13.0623 6.25966 13.1891C6.23988 13.2777 6.2215 13.3268 6.184 13.406C6.08116 13.3617 6.00546 13.3227 5.91658 13.2657C5.82494 13.2105 5.73658 13.1551 5.6958 13.0396C5.74197 12.9563 5.73954 12.9299 5.78252 12.8883Z" fill="#DFDFDF"/>
<path d="M6.33136 13.231C6.35348 13.1328 6.3502 13.0289 6.39914 12.9512C6.47677 12.9613 6.46439 12.9868 6.5558 13.0162C6.65072 13.0565 6.71545 13.067 6.76706 13.1705C6.68334 13.2493 6.66473 13.2381 6.63717 13.3649C6.61739 13.4535 6.65611 13.5772 6.61861 13.6565C6.51577 13.6122 6.50597 13.5863 6.41709 13.5294C6.32545 13.4741 6.31617 13.4978 6.25781 13.4395C6.29081 13.3385 6.31031 13.2902 6.33136 13.231Z" fill="#DFDFDF"/>
<path d="M6.70931 13.3722C6.75337 13.2827 6.77208 13.2623 6.82102 13.2197C6.91181 13.2562 6.95217 13.2335 7.03922 13.3111C7.12092 13.369 7.29112 13.5113 7.35586 13.5796C7.29412 13.6101 7.23652 13.6312 7.16452 13.7257C7.09247 13.8202 7.11314 13.8457 7.07123 13.9514C6.99473 13.9027 6.95859 13.8768 6.8873 13.833C6.81323 13.7646 6.78202 13.7444 6.69727 13.6861C6.73027 13.5895 6.69708 13.4489 6.70931 13.3722Z" fill="#DFDFDF"/>
<path d="M7.21466 13.7847C7.25872 13.6954 7.32139 13.6794 7.37028 13.6367C7.46108 13.6732 7.49704 13.7515 7.58408 13.8292C7.69218 13.9486 7.70858 13.9679 7.76019 14.0406C7.68088 14.0799 7.65838 14.0834 7.58638 14.1471C7.51185 14.2131 7.49108 14.2145 7.44041 14.2717C7.38589 14.2099 7.39368 14.2147 7.32238 14.1446C7.24827 14.0762 7.23904 14.0779 7.14111 13.9888C7.16971 13.8879 7.18485 13.8527 7.21466 13.7847Z" fill="#DFDFDF"/>
<path d="M7.63652 14.211C7.6894 14.17 7.73885 14.1408 7.78338 14.1113C7.82585 14.1611 7.86621 14.1997 7.89171 14.2555C7.9339 14.309 7.93718 14.3195 7.97116 14.3922C7.89185 14.4315 7.9001 14.4218 7.84127 14.4504C7.78409 14.4782 7.7592 14.5089 7.69095 14.553C7.63638 14.4912 7.67496 14.5136 7.60366 14.4435C7.56912 14.4014 7.55107 14.368 7.49707 14.3141C7.57404 14.2483 7.58473 14.2394 7.63652 14.211Z" fill="#DFDFDF"/>
<path d="M7.84527 14.5211C7.90911 14.491 7.93663 14.475 7.98993 14.4521C8.02583 14.5194 8.03544 14.5296 8.06094 14.5853C8.07674 14.6322 8.08879 14.6559 8.11621 14.733C8.05668 14.7547 8.03858 14.7604 7.99954 14.778C7.9596 14.796 7.91741 14.8211 7.87114 14.8477C7.8276 14.7661 7.82877 14.7841 7.8036 14.736C7.78007 14.6895 7.76422 14.6758 7.72119 14.6132C7.78499 14.5649 7.80449 14.5473 7.84527 14.5211Z" fill="#DFDFDF"/>
<path d="M8.00359 14.8377C8.06748 14.8076 8.06701 14.8149 8.1203 14.792C8.15616 14.8593 8.18134 14.9782 8.20065 15.051C8.2149 15.1336 8.22695 15.2257 8.23102 15.326C8.17459 15.3369 8.19788 15.3302 8.14852 15.34C8.0994 15.3498 8.09677 15.3516 8.04427 15.3735C8.02866 15.2639 8.01516 15.2035 7.9868 15.1286C7.96787 15.076 7.92873 14.9567 7.88574 14.894C7.94021 14.8644 7.96281 14.8639 8.00359 14.8377Z" fill="#DFDFDF"/>
<path d="M8.14168 15.405C8.16141 15.4004 8.1825 15.3969 8.22422 15.3936C8.23214 15.5369 8.23243 15.572 8.22844 15.7146C8.21785 15.8641 8.21588 15.9856 8.19207 16.1373C8.16507 16.1295 8.15888 16.1212 8.10952 16.1186C8.06021 16.116 8.06311 16.1152 8.01221 16.1184C8.04788 15.9762 8.0491 15.9275 8.05964 15.7581C8.06405 15.6262 8.06372 15.5836 8.05308 15.4351C8.09199 15.4227 8.10863 15.4141 8.14168 15.405Z" fill="#DFDFDF"/>
<path d="M8.07329 16.1878C8.09302 16.1832 8.1421 16.1891 8.18377 16.1856C8.13886 16.4378 8.10188 16.5318 8.01713 16.6869C7.91644 16.8333 7.81819 16.9704 7.68872 17.1096C7.67274 17.0985 7.66182 17.0839 7.64658 17.0692C7.63191 17.055 7.61954 17.0507 7.60205 17.0348C7.74957 16.8398 7.77563 16.7817 7.86385 16.6031C7.9366 16.4246 7.94869 16.3758 7.99711 16.1807C8.03602 16.1961 8.04024 16.1969 8.07329 16.1878Z" fill="#DFDFDF"/>
<path d="M7.61035 17.1098C7.63557 17.1261 7.62324 17.1203 7.66182 17.1449C7.60139 17.2168 7.55818 17.2581 7.44544 17.3697C7.36027 17.4321 7.33482 17.4866 7.16049 17.557C7.13977 17.5336 7.13888 17.5306 7.1288 17.5157C7.11905 17.5012 7.11493 17.4976 7.104 17.4696C7.1925 17.4423 7.29718 17.3806 7.36364 17.3138C7.47366 17.2192 7.50132 17.1766 7.57453 17.084C7.5915 17.095 7.59929 17.0991 7.61035 17.1098Z" fill="#DFDFDF"/>
<path d="M7.06049 17.5415C7.07437 17.5634 7.06907 17.5698 7.0821 17.5956C7.00307 17.6427 6.9854 17.6467 6.79148 17.6845C6.55312 17.6926 6.45271 17.6869 6.34082 17.6718C6.34485 17.642 6.34523 17.6392 6.34654 17.6111C6.3478 17.5844 6.34434 17.5931 6.34645 17.5646C6.56929 17.5794 6.63698 17.5644 6.72515 17.5588C6.88373 17.5439 7.0033 17.5067 7.04099 17.4971C7.05796 17.5279 7.05604 17.5199 7.06049 17.5415Z" fill="#DFDFDF"/>
<path d="M6.282 17.617C6.27722 17.6404 6.27821 17.6328 6.27099 17.6664C6.0863 17.6343 6.08264 17.6383 5.85919 17.5922C5.69077 17.5444 5.63518 17.508 5.53102 17.4526C5.52347 17.4158 5.52558 17.4202 5.53393 17.4049C5.54494 17.3847 5.53664 17.3912 5.56163 17.376C5.68543 17.4503 5.81808 17.4721 5.88919 17.496C6.05864 17.5309 6.1425 17.5402 6.2858 17.5555C6.28411 17.5879 6.28374 17.5953 6.282 17.617Z" fill="#DFDFDF"/>
<path d="M5.48378 17.3567C5.45575 17.3779 5.45364 17.3877 5.41839 17.3828C5.36087 17.3748 5.35347 17.3586 5.2982 17.3135C5.27111 17.2913 5.22906 17.2485 5.2374 17.2332C5.24847 17.213 5.26708 17.1523 5.2915 17.1918C5.31287 17.2264 5.40405 17.2798 5.45805 17.3169C5.50103 17.3464 5.49465 17.3484 5.48378 17.3567Z" fill="#DFDFDF"/>
<path d="M5.20736 17.1673C5.17464 17.1776 5.18284 17.1841 5.15594 17.1609C5.13414 17.142 5.119 17.1102 5.07925 17.0635C5.05659 17.0369 5.01126 16.9602 5.00915 16.9428C5.00309 16.8931 5.03079 16.8603 5.05237 16.9015C5.09083 16.9749 5.14005 17.0517 5.20801 17.1136C5.24659 17.1487 5.22039 17.1632 5.20736 17.1673Z" fill="#DFDFDF"/>
<path d="M5.00823 16.8474C4.97554 16.8577 4.97907 16.8642 4.95219 16.841C4.93038 16.8221 4.90858 16.773 4.88326 16.7172C4.86836 16.6844 4.83525 16.6352 4.84732 16.6027C4.86072 16.5667 4.90781 16.542 4.92005 16.5863C4.94216 16.6661 4.94943 16.6672 4.98718 16.7611C5.00173 16.7973 5.02127 16.8433 5.00823 16.8474Z" fill="#DFDFDF"/>
<path d="M4.90115 16.5076C4.88835 16.5322 4.86476 16.5292 4.82647 16.512C4.79561 16.4981 4.80719 16.4493 4.80259 16.3883C4.80011 16.3554 4.79341 16.3249 4.80238 16.2815C4.81017 16.2439 4.88123 16.2302 4.88598 16.2759C4.88945 16.3092 4.88453 16.3286 4.89098 16.3855C4.90142 16.4775 4.91114 16.4883 4.90115 16.5076Z" fill="#DFDFDF"/>
<path d="M4.87325 16.1853C4.8658 16.2061 4.8353 16.1992 4.8172 16.1773C4.79563 16.1513 4.82122 16.1053 4.82283 16.0535C4.82385 16.0206 4.83304 15.9875 4.85058 15.9468C4.86148 15.9216 4.90083 15.9186 4.90156 15.9645C4.90192 15.9869 4.89558 16.0161 4.88947 16.0648C4.88278 16.1183 4.88513 16.1521 4.87325 16.1853Z" fill="#DFDFDF"/>
<path d="M4.92739 15.8607C4.91995 15.8815 4.88676 15.8618 4.88067 15.8341C4.87152 15.7925 4.90039 15.7467 4.91271 15.6963C4.92305 15.6541 4.94208 15.6039 4.97618 15.5757C5.00106 15.5551 5.04605 15.5438 5.03648 15.5887C5.02908 15.6235 4.97924 15.6899 4.96227 15.7464C4.94675 15.7981 4.93928 15.8275 4.92739 15.8607Z" fill="#DFDFDF"/>
<path d="M5.13109 15.4898C5.10901 15.4906 5.08341 15.4968 5.09059 15.4693C5.09696 15.4449 5.12073 15.4328 5.1661 15.3968C5.18926 15.3785 5.23004 15.345 5.25287 15.3336C5.27921 15.3206 5.33087 15.3043 5.31319 15.3466C5.30579 15.3644 5.28235 15.3718 5.24049 15.4003C5.19596 15.4307 5.14609 15.4892 5.13109 15.4898Z" fill="#DFDFDF"/>
<path d="M17.7642 8.33411C17.9407 8.359 18.0738 8.40747 18.2516 8.51443C18.3088 8.54922 18.3623 8.57411 18.3722 8.57036C18.3822 8.56665 18.3934 8.53679 18.3984 8.50075C18.4033 8.46714 18.4145 8.42861 18.4232 8.4174C18.4481 8.38262 18.4717 8.41122 18.5177 8.52807C18.5389 8.58404 18.5625 8.63753 18.5687 8.64498C18.5911 8.67236 18.6209 8.66237 18.657 8.61761C18.6931 8.57162 18.7478 8.55793 18.7602 8.5915C18.764 8.60148 18.7615 8.64123 18.754 8.68103C18.7316 8.79793 18.7677 8.81532 18.8697 8.737C18.9579 8.66861 18.9915 8.65492 19.0251 8.67236C19.0599 8.69101 19.0587 8.71712 19.0139 8.82029C18.9754 8.90982 18.9729 8.97451 19.0101 8.92229C19.0201 8.90861 19.0661 8.87753 19.1134 8.85512C19.1606 8.8315 19.234 8.79297 19.2775 8.76807C19.321 8.74445 19.3807 8.71586 19.4105 8.70465C19.4653 8.686 19.7612 8.6425 19.7861 8.65122C19.7936 8.6537 19.7525 8.68726 19.6966 8.72706C19.5735 8.81162 19.3372 9.028 19.3372 9.05532C19.3372 9.0715 19.3509 9.07398 19.4367 9.06653C19.5499 9.05659 19.5473 9.05284 19.5225 9.17097C19.5138 9.21203 19.5125 9.23936 19.52 9.24686C19.5275 9.25431 19.566 9.25182 19.6244 9.23936C19.6754 9.22942 19.7202 9.2207 19.7252 9.2207C19.7438 9.2207 19.7351 9.31895 19.709 9.40229C19.6842 9.48062 19.6842 9.48807 19.704 9.50176C19.7289 9.52042 19.7575 9.5117 19.9465 9.42465C20.0585 9.37243 20.087 9.36371 20.148 9.3662C20.1865 9.36746 20.2325 9.37618 20.2512 9.38612L20.286 9.40351L20.2052 9.49056C20.1094 9.595 20.0124 9.73431 19.9975 9.79023C19.9701 9.88351 20.0622 9.89968 20.3718 9.85989C20.5409 9.83748 20.6553 9.84123 20.7113 9.87109C20.7548 9.89345 20.904 10.0327 20.904 10.0514C20.904 10.0576 20.8319 10.0663 20.7436 10.07C20.5583 10.0775 20.424 10.1098 20.3134 10.1708C20.2089 10.2279 20.2114 10.2404 20.3246 10.2404C20.4191 10.2404 20.4738 10.2553 20.5235 10.2951C20.5471 10.3138 20.5471 10.315 20.5235 10.3411C20.4875 10.3809 20.4178 10.412 20.332 10.4257C20.2885 10.4331 20.2512 10.4406 20.2487 10.4443C20.2462 10.4468 20.2848 10.4555 20.3345 10.463C20.4638 10.4841 20.6454 10.5376 20.7336 10.5824C20.8132 10.6222 20.817 10.6271 20.8332 10.7428L20.8406 10.79L20.8008 10.7813C20.7386 10.7676 20.4178 10.7602 20.3656 10.7714C20.286 10.7888 20.3084 10.8062 20.4315 10.8211C20.5857 10.8398 20.6727 10.8572 20.7138 10.8783L20.7461 10.8957L20.6789 10.9281C20.6416 10.9467 20.5558 10.9728 20.4875 10.9865C20.1965 11.0462 20.1604 11.0798 20.4041 11.0673C20.6043 11.0574 20.6839 11.0649 20.6777 11.0959C20.6715 11.1308 20.5484 11.1904 20.4203 11.2228C20.342 11.2427 20.3718 11.2576 20.4999 11.2626C20.6155 11.2663 20.7026 11.2961 20.7386 11.3446C20.7672 11.3807 20.7498 11.5448 20.7162 11.5659C20.7088 11.5697 20.6938 11.5647 20.6827 11.5548C20.6715 11.5436 20.6205 11.5162 20.5695 11.4914C20.4738 11.4453 20.4725 11.4453 20.3357 11.4665C20.2773 11.4752 20.2263 11.5237 20.1828 11.6132C20.1616 11.6555 20.1181 11.7227 20.0858 11.7624C20.0534 11.8022 20.0162 11.8482 20.0037 11.8644C19.9801 11.893 19.9801 11.8943 20.0062 11.9465C20.0199 11.9763 20.0348 12.0099 20.0385 12.0211C20.0609 12.0982 20.4414 12.0721 20.7411 11.9726C20.8605 11.9328 21.0371 11.8457 21.1167 11.7873L21.1776 11.7425V11.791C21.1776 11.9104 21.0843 12.1131 20.9911 12.1964L20.9314 12.2499L20.9923 12.3668C21.0681 12.5123 21.0731 12.5682 21.0147 12.6267C20.9936 12.649 20.9786 12.6739 20.9836 12.6839C20.9873 12.6938 21.0197 12.7187 21.0557 12.7386C21.1677 12.802 21.1626 12.7958 21.1167 12.8194C21.0942 12.8319 21.0334 12.8443 20.9836 12.848C20.9289 12.853 20.8854 12.8617 20.8779 12.8717C20.8468 12.909 20.9115 12.991 21.0234 13.0582C21.042 13.0694 21.0283 13.0743 20.9475 13.0868C20.8928 13.0942 20.8132 13.1017 20.771 13.1029L20.6938 13.1054L20.72 13.1527C20.7511 13.2086 20.8095 13.2696 20.858 13.2994L20.8928 13.3218L20.8542 13.3268C20.8332 13.3305 20.7896 13.328 20.7573 13.3231C20.664 13.3081 20.5509 13.3106 20.526 13.328C20.4875 13.3566 20.5197 13.4213 20.6168 13.5145L20.7013 13.5966L20.6466 13.6053C20.5434 13.6202 20.4128 13.6041 20.3432 13.568C20.3071 13.5506 20.276 13.5369 20.2736 13.5394C20.2561 13.558 20.3233 13.7384 20.3668 13.7881C20.3768 13.7993 20.3817 13.813 20.3768 13.8192C20.3718 13.8242 20.3046 13.8279 20.2288 13.8279C20.1206 13.8279 20.0795 13.8229 20.0472 13.8055C20.0236 13.7943 20.0025 13.7844 20 13.7844C19.9987 13.7844 19.9962 13.8105 19.9962 13.8428C19.9962 13.8851 20.005 13.9112 20.0286 13.9423L20.0597 13.9833H20.0248C19.944 13.9821 19.7525 13.9199 19.6842 13.8702C19.6394 13.8391 19.6356 13.8403 19.6356 13.8864C19.6369 13.9386 19.6642 14.0144 19.6928 14.0468C19.7189 14.0766 19.7128 14.0766 19.5909 14.0455C19.4815 14.0182 19.3844 13.9796 19.3347 13.9448C19.2887 13.9112 19.2838 13.9149 19.2937 13.9672C19.3049 14.0293 19.3285 14.0654 19.3758 14.0903C19.3969 14.1002 19.4118 14.1127 19.4081 14.1152C19.3981 14.1264 19.1358 14.0853 19.076 14.0642C19.0462 14.0542 19.0114 14.0356 18.999 14.0244C18.9778 14.0057 18.9766 14.0057 18.9766 14.0356C18.9766 14.053 18.9903 14.0927 19.0077 14.1251C19.0251 14.1574 19.0388 14.186 19.0388 14.1898C19.0388 14.1997 18.9703 14.1786 18.8908 14.1437C18.8473 14.1239 18.7963 14.1077 18.7776 14.1077C18.7354 14.1077 18.6856 14.1462 18.647 14.2072C18.6259 14.2407 18.5936 14.2656 18.5314 14.2967L18.4444 14.3402L18.4394 14.2892C18.4332 14.2432 18.228 13.7035 18.2081 13.6824C18.1994 13.6737 17.9495 13.8453 17.7082 14.0244C17.5627 14.1325 17.2282 14.4646 17.13 14.5989C16.8601 14.967 16.7719 15.2206 16.7706 15.631C16.7706 15.8573 16.7855 15.9779 16.8378 16.1955C16.9521 16.6606 17.2182 17.1033 17.5205 17.3271C17.7194 17.4751 17.9544 17.5248 18.3921 17.5112C18.9219 17.495 19.2526 17.3843 19.4976 17.1443C19.6791 16.9652 19.7985 16.7315 19.8483 16.4579C19.8557 16.4132 19.862 16.3037 19.862 16.2154C19.862 15.912 19.7936 15.7019 19.6444 15.5415C19.515 15.4034 19.377 15.3276 19.2004 15.3002C19.0325 15.2741 18.8411 15.3301 18.7229 15.4382C18.6409 15.5141 18.6371 15.5501 18.7017 15.6795C18.759 15.7951 18.764 15.825 18.7279 15.861C18.6943 15.8946 18.6247 15.8934 18.5451 15.8548C18.4295 15.8013 18.3722 15.6708 18.3822 15.4892C18.3921 15.3263 18.468 15.2206 18.6396 15.1336C18.8062 15.0503 18.8908 15.0341 19.1507 15.0354C19.3658 15.0354 19.3882 15.0378 19.4926 15.0701C19.7015 15.1336 19.8284 15.2181 19.9266 15.3549C20.1505 15.6708 20.2736 16.2129 20.2014 16.5636C20.1455 16.8309 19.9962 17.1207 19.7886 17.3595C19.4379 17.7648 18.9729 17.9501 18.3051 17.9501C17.8102 17.9501 17.4595 17.8556 17.1113 17.6293C16.7233 17.3781 16.4722 17.0523 16.2595 16.5263C16.2023 16.3821 16.18 16.2925 16.17 16.1682C16.1663 16.1072 16.1563 16.0575 16.1451 16.045C16.0954 15.9879 16.078 15.825 16.109 15.7193L16.1277 15.6596L16.0892 15.626C16.0208 15.5651 16.0282 15.4333 16.1053 15.345L16.1414 15.304L16.1004 15.2629C16.0469 15.2082 16.0233 15.105 16.0332 14.9682C16.0394 14.8737 16.0817 14.7419 16.1053 14.7419C16.1302 14.7419 16.1141 14.7083 16.078 14.6872C16.022 14.6536 15.9922 14.5976 15.9922 14.523C15.9922 14.3725 16.0543 14.1413 16.1004 14.1239C16.119 14.1164 16.1227 14.0828 16.1053 14.0828C16.0768 14.0828 16.0382 13.9659 16.032 13.8602C16.0245 13.7272 16.0506 13.6252 16.1053 13.5705L16.1414 13.5332L16.1029 13.4536C16.0693 13.3852 16.0643 13.3653 16.0705 13.3081C16.0842 13.1763 16.2297 12.9326 16.3391 12.8604C16.3789 12.8343 16.3901 12.8194 16.3901 12.7908C16.3901 12.7075 16.4585 12.5844 16.5729 12.4613C16.6923 12.3345 16.7308 12.2772 16.7557 12.1877C16.7731 12.1305 16.7917 12.1007 16.844 12.0484C16.9049 11.9875 17.0342 11.9104 17.1113 11.8905C17.1275 11.8868 17.1362 11.8743 17.1362 11.8545C17.1374 11.7749 17.2357 11.6418 17.3227 11.602C17.3662 11.5821 17.3725 11.5747 17.3725 11.5386C17.3725 11.4876 17.4148 11.4366 17.5142 11.3682C17.6087 11.3049 17.758 11.2663 17.988 11.2464C18.4717 11.2066 18.6868 11.1257 18.9144 10.8994C19.0524 10.7627 19.1059 10.6706 19.1556 10.4891C19.1967 10.3386 19.1992 10.1981 19.1619 10.0887C19.1358 10.0116 19.0524 9.85492 19.0375 9.85492C19.0325 9.85492 19.04 9.89593 19.0537 9.94445C19.086 10.0626 19.0897 10.2565 19.0599 10.351C19.0189 10.4829 18.938 10.5811 18.8249 10.6396C18.7478 10.6794 18.7105 10.6881 18.5787 10.7005C18.4419 10.7129 18.3499 10.7403 18.3051 10.7813C18.2379 10.8435 18.0875 10.851 17.9432 10.8012C17.9059 10.7875 17.8363 10.7726 17.7878 10.7689L17.6982 10.7602L17.5826 10.841C17.4632 10.9231 16.9472 11.2141 16.8564 11.2501C16.691 11.316 16.5045 11.27 16.4262 11.1444C16.3627 11.0437 16.4199 10.9492 16.6898 10.7055C16.9086 10.509 16.9609 10.4418 16.9895 10.3274C17.0019 10.2789 17.0417 10.1732 17.0803 10.0937C17.171 9.89842 17.1723 9.86486 17.0864 9.77532C17.0529 9.73928 17.0156 9.68954 17.0056 9.66339C16.9857 9.6174 16.977 9.51297 16.9907 9.49801C16.9982 9.49182 17.0815 9.50922 17.125 9.52539C17.1387 9.53036 17.1412 9.5117 17.1374 9.42592C17.135 9.35875 17.1399 9.30526 17.1486 9.28164L17.1648 9.24437L17.2096 9.28787C17.2556 9.33264 17.2892 9.34384 17.3041 9.32022C17.3078 9.31398 17.3165 9.27793 17.3227 9.24062C17.3352 9.16229 17.3849 9.04042 17.3973 9.05532C17.4023 9.06029 17.4135 9.0864 17.4222 9.11129C17.4297 9.1374 17.4409 9.15854 17.4471 9.15854C17.4521 9.15854 17.4607 9.12868 17.4658 9.09264C17.4794 8.98571 17.4943 8.94095 17.5279 8.90982C17.5553 8.88372 17.5627 8.8825 17.5714 8.8974C17.5776 8.90734 17.5839 8.92975 17.5839 8.94714C17.5839 9.00189 17.6187 9.11256 17.6647 9.20579C17.7542 9.38486 17.8388 9.36746 18.0129 9.1374C18.1123 9.00559 18.1272 8.96457 18.0999 8.90486C18.034 8.76559 17.758 8.57781 17.498 8.497C17.4496 8.48209 17.4098 8.46592 17.4098 8.46095C17.4098 8.43732 17.4719 8.38136 17.5266 8.35525C17.5888 8.32665 17.6609 8.32042 17.7642 8.33411Z" fill="#DFDFDF"/>
<path d="M20.3332 10.8056C20.2542 10.7617 20.6373 10.7686 20.7183 10.7694C20.7731 10.786 20.8235 10.8099 20.8403 10.8021C20.8572 10.7943 20.8437 10.733 20.8266 10.6289C20.7663 10.5794 20.7038 10.5529 20.6374 10.5335C20.574 10.511 20.5181 10.4963 20.4458 10.4733C20.3765 10.465 20.354 10.4682 20.2554 10.4466C20.3711 10.4282 20.4533 10.4423 20.5683 10.3212C20.5218 10.2932 20.5035 10.2578 20.4476 10.2444C20.3917 10.2324 20.372 10.2343 20.3261 10.2343C20.2381 10.2343 20.2123 10.2504 20.2712 10.208C20.3301 10.1655 20.4426 10.1173 20.5689 10.0943C20.6799 10.0752 20.8483 10.0746 20.9295 10.0713C20.8922 9.99767 20.8229 9.95464 20.7808 9.9087C20.7119 9.82452 20.5536 9.82639 20.3163 9.86469C19.9412 9.91058 19.9183 9.86469 20.1556 9.56614L20.3064 9.40011L20.2107 9.36214L20.1062 9.35933C20.0067 9.3823 19.88 9.45898 19.8034 9.48959C19.681 9.54317 19.6876 9.49273 19.7259 9.39322C19.7565 9.30898 19.7343 9.30945 19.7462 9.21627C19.685 9.21627 19.5235 9.27753 19.5235 9.23923C19.5235 9.1933 19.5446 9.16255 19.5565 9.05694C19.503 9.05694 19.3828 9.07133 19.3564 9.06561C19.3299 9.05994 19.3932 8.99905 19.4575 8.94134L19.6232 8.79284L19.8573 8.63502L19.51 8.67852C19.4028 8.67852 19.2333 8.79491 19.1433 8.84178C19.0984 8.86522 19.0557 8.87248 19.0287 8.90084C18.9668 8.92381 19.0411 8.98508 18.9963 8.92864C18.9735 8.88758 19.0793 8.76617 19.065 8.70275C18.9891 8.55805 18.819 8.82298 18.782 8.78019C18.7111 8.77255 18.8166 8.60764 18.7605 8.57422C18.6803 8.5265 18.6347 8.69037 18.5916 8.66141C18.5484 8.63244 18.5205 8.42239 18.4523 8.396C18.3841 8.36966 18.4119 8.61036 18.366 8.57783C18.2664 8.50892 18.0511 8.37378 17.8739 8.34922C17.7853 8.33698 17.6821 8.31153 17.5948 8.32723C17.5074 8.34298 17.4249 8.40308 17.4012 8.47644C17.5188 8.51075 17.5374 8.51394 17.6599 8.56752C17.7824 8.61345 17.9431 8.72825 18.0197 8.8048C18.1498 8.95025 18.1498 8.96558 18.0044 9.14928C17.8207 9.40189 17.7288 9.38656 17.6293 9.0957C17.5872 8.98086 17.6003 8.90792 17.5803 8.86883C17.5688 8.87727 17.5269 8.89461 17.5017 8.93403C17.4796 8.96848 17.46 9.12092 17.4601 9.16067C17.4417 9.14947 17.4245 9.09941 17.4073 9.01916C17.3612 9.10784 17.3481 9.13705 17.3328 9.17914C17.3175 9.22123 17.3308 9.33298 17.2848 9.33298C17.258 9.33298 17.2255 9.28128 17.1684 9.23084C17.1192 9.32337 17.1262 9.43892 17.1459 9.52653C17.1073 9.51397 17.0282 9.48702 16.9898 9.48345C16.9778 9.52953 16.9786 9.58503 16.9879 9.62698C17.0159 9.68698 17.0245 9.73869 17.0858 9.78463C17.1776 9.86117 17.1776 9.90711 17.0858 10.0832C17.0245 10.198 16.9786 10.3281 16.9786 10.3817C16.9786 10.4276 16.8408 10.5807 16.6648 10.7262C16.4505 10.9099 16.3739 11.0247 16.4045 11.1089C16.4811 11.2926 16.7183 11.3462 16.9327 11.2314C17.0322 11.1778 17.2542 11.0553 17.4302 10.9558C17.5489 10.8907 17.627 10.8198 17.6994 10.7743C17.8157 10.7727 17.9043 10.7834 18.0044 10.8333C18.1575 10.8563 18.2799 10.841 18.3106 10.7951C18.3412 10.7491 18.4636 10.7109 18.5785 10.7109C18.8847 10.7109 19.0852 10.5083 19.0971 10.2118C19.1017 10.083 19.0843 10.0016 19.0416 9.85653C19.2106 10.1234 19.2205 10.2464 19.1598 10.4819C19.0867 10.8106 18.7469 11.2314 17.9967 11.2391C17.8551 11.2429 17.7365 11.283 17.6026 11.3098C17.517 11.3606 17.3343 11.4576 17.3714 11.5793C17.2325 11.6164 17.1372 11.7604 17.1352 11.8785C16.7941 11.9806 16.749 12.1806 16.749 12.2188C16.749 12.2571 16.6648 12.3719 16.5576 12.4715C16.4505 12.571 16.3794 12.7318 16.3926 12.8206C16.274 12.8818 16.2315 12.9713 16.1593 13.0685C16.0981 13.1927 15.9963 13.3472 16.1465 13.533C15.9892 13.5913 15.9961 14.0367 16.1217 14.1012C16.0293 14.1647 16.0095 14.3197 15.9898 14.5306C15.9889 14.6016 16.0118 14.6651 16.1245 14.7213C16.0945 14.7364 16.0706 14.778 16.0543 14.8324C16.0379 14.8867 16.0291 14.9539 16.0292 15.0202C16.0293 15.0865 16.0383 15.1519 16.0576 15.2028C16.0768 15.2537 16.1064 15.29 16.1476 15.2983C16.0072 15.3899 16.0105 15.6326 16.1316 15.6576C16.0638 15.7814 16.0851 16.0249 16.1716 16.0727C16.1527 16.3226 16.2517 16.4998 16.3041 16.6318C16.4088 16.8959 16.5468 17.1199 16.7199 17.3079C16.893 17.4959 17.1011 17.648 17.3461 17.7686C17.8819 18.0289 18.7928 18.0212 19.3133 17.7533C19.7726 17.516 20.1477 17.0031 20.2243 16.5056C20.2932 16.0616 20.0788 15.4109 19.8032 15.2042C19.3669 14.8827 18.5172 14.9899 18.3948 15.3803C18.3335 15.5793 18.4101 15.8166 18.5555 15.8702C18.7469 15.9391 18.8234 15.8472 18.7163 15.6788C18.6397 15.5487 18.6474 15.5104 18.7698 15.4109C19.1373 15.143 19.6884 15.3803 19.8186 15.8549C19.9793 16.4673 19.7267 17.0873 19.2138 17.3399C18.7852 17.5543 17.9202 17.5696 17.614 17.3782C17.0169 17.0031 16.6418 15.985 16.8256 15.2195C16.925 14.7985 17.3384 14.278 17.8742 13.9182L18.211 13.6809L18.3335 13.9948C18.3986 14.1593 18.456 14.2507 18.4405 14.3547C18.54 14.294 18.5759 14.305 18.6445 14.2404C18.6751 14.1715 18.7316 14.0943 18.8158 14.1172C18.8349 14.123 18.951 14.1913 19.0665 14.207C19.0267 14.114 18.9863 14.1113 18.9911 14.0186C19.053 14.0976 19.2304 14.1074 19.4605 14.1318C19.2805 14.0287 19.3147 14.0086 19.3013 13.922C19.3702 13.9999 19.5421 14.0485 19.741 14.0842C19.6385 13.9771 19.656 13.9442 19.6459 13.8466C19.7468 13.9458 19.9924 14.0013 20.0835 13.9954C20.0037 13.9026 20.0024 13.9038 20.0039 13.789C20.0935 13.8593 20.2589 13.8494 20.4069 13.8232C20.3157 13.7255 20.2877 13.6178 20.2826 13.536C20.4025 13.6475 20.599 13.6235 20.7274 13.6022C20.6268 13.513 20.5659 13.4628 20.5347 13.4068C20.4983 13.3364 20.5228 13.3135 20.6453 13.3135C20.7295 13.3135 20.7878 13.3675 20.912 13.3199C20.7318 13.2486 20.6829 13.0184 20.6424 13.0137C20.4812 12.9952 20.8667 13.3071 20.5216 13.2415C20.4354 13.229 20.3962 13.2306 20.3323 13.2343C20.3771 13.3 20.3847 13.3027 20.4233 13.3518C20.4666 13.4156 20.4752 13.4988 20.5777 13.5526C20.4907 13.5531 20.4196 13.5611 20.362 13.5154C20.3044 13.4697 20.3038 13.451 20.1823 13.3636C20.1658 13.4552 20.1739 13.4735 20.1829 13.5342C20.1984 13.6392 20.2187 13.6668 20.2503 13.7498C20.1185 13.7804 20.0374 13.7388 20.0144 13.6819C19.98 13.646 19.9307 13.5544 19.8631 13.5358C19.8357 13.6184 19.8649 13.6216 19.875 13.6915C19.9037 13.7701 19.9109 13.826 19.9355 13.8998C19.8017 13.8617 19.7196 13.8134 19.6349 13.7115C19.4894 13.589 19.4894 13.589 19.5353 13.7498C19.5542 13.857 19.5497 13.8809 19.5886 13.9734C19.4597 13.951 19.3401 13.8914 19.2751 13.7881C19.1985 13.6733 19.1909 13.6809 19.2215 13.8264C19.2258 13.9242 19.2088 13.94 19.2329 14.0347C19.1159 14.0099 19.0301 13.9641 18.9689 13.8646C18.8923 13.7498 18.8847 13.7575 18.9153 13.9029C18.9344 13.9947 18.8993 14.0137 18.9535 14.1095C18.8213 14.0532 18.8158 14.0675 18.7698 13.9948C18.7392 13.9335 18.6887 14.0153 18.6275 14.1301C18.5777 14.2182 18.5373 14.2249 18.5003 14.2292C18.4912 14.162 18.4636 14.1172 18.4024 13.9718C18.3335 13.8034 18.2876 13.6656 18.2953 13.6503C18.3106 13.6426 18.5019 13.5432 18.7163 13.4283C18.9383 13.3212 19.122 13.1987 19.122 13.1527C19.122 13.1145 19.1603 13.0838 19.2138 13.0838C19.3363 13.0838 19.6578 12.7776 19.6578 12.6628C19.6578 12.6093 19.7267 12.4791 19.8109 12.3796C19.9257 12.2265 20.0558 12.1729 20.4003 12.1347C20.6438 12.0916 20.8482 12.0275 20.9745 11.9586C21.0376 11.9255 21.0463 11.8976 21.0948 11.8787C21.0967 11.9189 21.0701 12.0428 20.9821 12.127C20.9323 12.1806 20.8814 12.1922 20.8361 12.2202C20.8787 12.2635 20.9093 12.3452 20.9438 12.4025C21.0203 12.525 21.0203 12.5633 20.9132 12.6016C20.8137 12.6399 20.8137 12.6628 20.8979 12.7164C20.9323 12.7432 20.9842 12.7616 21.0205 12.785C20.9636 12.7992 20.9191 12.8027 20.8106 12.775C20.6728 12.6916 20.6623 12.7162 20.7218 12.8006C20.7706 12.8743 20.8036 12.9566 20.8746 13.0137C20.7933 13.018 20.7563 13.0035 20.6836 12.9767C20.607 12.9461 20.5422 12.9255 20.5948 13.0444C20.6448 13.1274 20.6172 12.9997 20.6646 13.1093C20.7464 13.125 20.9319 13.1056 21.0677 13.0728C20.9455 13.0058 20.9009 12.9534 20.8856 12.919C20.8626 12.8501 20.9285 12.8542 20.9897 12.8542C21.0166 12.8542 21.1051 12.8649 21.1713 12.7915C21.1163 12.7616 21.0327 12.7345 20.9824 12.6714C21.1393 12.5809 21.0481 12.4438 21.0116 12.3786C20.9813 12.3266 20.9788 12.299 20.9437 12.245C20.9919 12.2414 21.0625 12.1499 21.0969 12.0887C21.1696 11.9586 21.2012 11.8349 21.1906 11.7286C21.0869 11.8086 21.0467 11.8344 20.9821 11.8665C20.8724 11.9321 20.6371 12.0146 20.4291 12.046C20.2211 12.0775 20.0406 12.0734 20.0406 11.9968C20.0406 11.9203 19.9573 11.9267 20.0175 11.8655C20.1302 11.7509 20.1909 11.648 20.226 11.5466C20.2916 11.4672 20.3744 11.4613 20.4842 11.4601C20.5425 11.4913 20.6562 11.5184 20.7086 11.5942C20.7579 11.5706 20.7833 11.4186 20.7584 11.3463C20.7477 11.3152 20.6209 11.2557 20.5494 11.2531C20.4779 11.2506 20.4399 11.271 20.377 11.2443C20.4511 11.2229 20.4916 11.2242 20.5688 11.1857C20.6375 11.1515 20.704 11.1312 20.695 11.0876C20.6839 11.0337 20.3042 11.0705 20.2506 11.0724C20.2066 11.0743 20.3336 11.0216 20.4272 11.0097C20.4886 10.9877 20.6256 10.9963 20.764 10.8935C20.6618 10.8279 20.608 10.8555 20.5242 10.8246M20.2088 10.8372C20.2396 10.9021 20.6087 10.8844 20.5061 10.9112C20.5061 10.9112 20.221 10.9638 20.1267 11.0447C20.11 11.1164 20.2095 11.1482 20.2095 11.1482L20.571 11.1097C20.5748 11.1591 20.2195 11.1778 20.2318 11.2522C20.2358 11.2763 20.2121 11.3217 20.3303 11.3082C20.438 11.3131 20.5701 11.3022 20.65 11.3435C20.7081 11.3725 20.7151 11.4369 20.6969 11.492C20.6443 11.4492 20.5606 11.4139 20.5147 11.3986C20.4166 11.3859 20.3457 11.406 20.2794 11.4343C20.2132 11.4627 20.1671 11.4931 20.1094 11.6065C20.0712 11.706 19.9487 11.8208 19.8338 11.8667C19.7114 11.905 19.5157 12.0098 19.4281 12.127C19.3311 12.2569 19.2587 12.3621 19.0249 12.4971C18.7953 12.7038 18.9936 12.6304 18.8953 12.6455C18.6316 12.6859 18.4866 12.747 18.4407 12.8082C18.3871 12.8695 18.2647 12.9384 18.1651 12.9613C18.0579 12.992 17.9738 13.0456 17.9738 13.0838C17.9738 13.1298 17.9202 13.1604 17.8513 13.1604C17.6829 13.1604 16.9327 13.9489 16.7949 14.2627C16.5346 14.8521 16.4887 15.0665 16.4887 15.6405C16.4964 16.0233 16.5423 16.3678 16.6112 16.5285C16.7643 16.8883 17.4172 17.6112 17.5932 17.6112C17.6243 17.62 17.6118 17.6167 17.6487 17.6227C17.6656 17.648 17.6753 17.6504 17.7351 17.6784C17.822 17.7218 17.9334 17.743 18.0693 17.7469C18.2052 17.7508 18.3655 17.7373 18.5503 17.7114C18.7351 17.6855 18.9163 17.6472 19.0513 17.6024C19.1863 17.5576 19.2359 17.5334 19.2751 17.4921C19.2868 17.4797 19.3178 17.4637 19.3126 17.4099C19.3404 17.4352 19.405 17.4292 19.4821 17.3594C19.5447 17.3027 19.605 17.2763 19.5736 17.2194C19.6565 17.2107 19.6706 17.1755 19.7358 17.0838C19.7788 17.0234 19.8276 16.9701 19.8067 16.8847C19.8637 16.8961 19.892 16.8163 19.9246 16.7406C19.9533 16.6744 20.0044 16.5841 19.9408 16.5514C20.0139 16.5532 20.0002 16.4639 20.0091 16.4017C20.018 16.3396 20.0363 16.2431 19.9626 16.2262C20.0381 16.2023 20.0058 16.1244 19.9944 16.0544C19.9785 15.9563 19.9695 15.9033 19.9068 15.8903C19.9628 15.8652 19.9287 15.7732 19.8918 15.6476C19.8622 15.5469 19.7944 15.5102 19.7164 15.5269C19.791 15.47 19.6547 15.3771 19.6254 15.3527C19.5441 15.2847 19.4516 15.2595 19.4334 15.3037C19.4413 15.221 19.1527 15.2137 19.0423 15.2262C18.9319 15.2387 18.8349 15.2884 18.7316 15.3726C18.5708 15.5028 18.5632 15.541 18.6474 15.6788C18.7469 15.8549 18.6704 15.8931 18.5249 15.7477C18.3718 15.5946 18.4178 15.4032 18.6397 15.2272C18.8081 15.0894 18.923 15.0665 19.2138 15.0894C19.7267 15.143 19.9334 15.3037 20.0788 15.7783C20.3085 16.5668 19.9946 17.3476 19.3057 17.6844C18.9995 17.8298 18.8158 17.8681 18.3182 17.8681C17.591 17.8604 17.1394 17.6844 16.7183 17.2175C16.4581 16.9342 16.1672 16.1943 16.2591 16.0565C16.4085 15.9929 16.2591 15.9927 16.2131 15.9927C16.1519 15.9927 16.1289 15.6755 16.243 15.6178C16.0155 15.6187 16.1359 15.3344 16.2729 15.2785C16.1503 15.2755 16.0896 15.1556 16.086 15.0288C16.0823 14.9019 16.1357 14.7681 16.2412 14.7374C16.3207 14.7143 16.2474 14.6931 16.1728 14.6762C16.0838 14.6559 16.0496 14.6426 16.0606 14.4841C16.0738 14.3802 16.1103 14.2065 16.1857 14.1745C16.2632 14.1415 16.3839 14.1319 16.4513 14.1259C16.3695 14.0995 16.2916 14.0842 16.2285 14.079C16.0907 14.0216 16.0442 13.7429 16.1681 13.6649C16.292 13.5868 16.6038 13.7402 16.6202 13.6769C16.5594 13.6104 16.3711 13.594 16.2874 13.5332C16.1851 13.4326 16.0907 13.3364 16.2591 13.0992C16.3433 12.969 16.3299 12.9368 16.4274 12.9008C16.5566 12.8956 16.8338 13.0696 17.0458 13.0628C16.9487 12.982 16.6184 12.9171 16.513 12.8407C16.4076 12.7642 16.4876 12.6455 16.5959 12.5098C16.726 12.3949 16.7796 12.3873 16.948 12.4638C17.0628 12.5097 17.2446 12.5576 17.4415 12.5905C17.365 12.5116 17.0169 12.4255 16.9403 12.3643C16.7949 12.2571 16.7949 12.2122 16.9327 12.0591L17.1388 11.9743L17.369 12.0964C17.5374 12.1729 17.798 12.2638 17.798 12.2408C17.798 12.2255 17.5604 12.1193 17.4379 12.0505C17.3078 11.9816 17.2285 11.882 17.2285 11.8285C17.2285 11.6371 17.4051 11.6117 17.6758 11.8003C17.8135 11.8807 18.1575 11.9855 18.178 11.9469C18.2035 11.8989 17.9474 11.8519 17.8207 11.7902C17.6948 11.7184 17.4586 11.6007 17.4586 11.5395C17.4896 11.4356 17.6293 11.3615 18.234 11.2926C18.6856 11.239 18.9229 11.0936 19.122 10.7645C19.3669 10.3664 19.321 10.0219 18.9918 9.70808L18.7163 9.44783L18.877 9.69275C19.1755 10.1214 19.0301 10.6343 18.6091 10.6343C18.5096 10.6343 18.3641 10.6726 18.2876 10.7262C18.1804 10.7874 18.0871 10.7742 17.9971 10.7477L17.8508 10.7046L17.8001 10.6937L18.012 10.5501C18.2493 10.4353 18.3488 10.2133 18.2187 10.0832C18.1728 10.0372 18.1575 10.0832 18.1804 10.2057C18.211 10.3511 18.1804 10.42 18.0733 10.4583C17.9967 10.4965 17.8436 10.5807 17.7441 10.6572C17.415 10.8946 16.971 11.1702 16.925 11.1702C16.9021 11.1702 16.9403 11.0936 17.0245 10.9941C17.1088 10.9022 17.0628 10.9175 16.925 11.0477C16.7183 11.2314 16.6571 11.2543 16.5576 11.1702C16.3892 11.0323 16.4122 10.9711 16.7031 10.7874C16.8791 10.6879 17.0016 10.5271 17.0628 10.3434C17.1088 10.1903 17.1853 10.0219 17.2159 9.97602C17.2619 9.92239 17.2389 9.85353 17.17 9.79227C17.1049 9.73869 17.0399 9.61423 17.0468 9.56867C17.077 9.57434 17.1 9.58283 17.1317 9.60092C17.17 9.62389 17.2083 9.59323 17.2083 9.52437C17.2083 9.48992 17.1818 9.35942 17.1889 9.32736C17.207 9.36059 17.2619 9.43634 17.2848 9.44783C17.3231 9.4708 17.369 9.44783 17.369 9.39425C17.3805 9.28325 17.3948 9.25077 17.4043 9.19855C17.42 9.22709 17.4993 9.34152 17.5352 9.36898C17.5046 9.28447 17.5288 9.0133 17.5419 8.98808C17.5442 9.06073 17.5851 9.18987 17.5974 9.23661C17.6787 9.35117 17.6985 9.3762 17.79 9.40395C17.8675 9.40681 17.9048 9.37508 18.012 9.2488C18.1192 9.11867 18.1847 9.02112 18.191 8.9548C18.191 8.88589 17.9639 8.61345 17.6949 8.51094C17.581 8.46955 17.5656 8.45783 17.4957 8.43917C17.5147 8.43486 17.5426 8.40828 17.6258 8.39277C17.6693 8.38466 17.8455 8.38527 17.9592 8.43927C18.0609 8.47189 18.2961 8.5723 18.4032 8.6795C18.4613 8.68925 18.3954 8.49373 18.4632 8.52195C18.5311 8.55017 18.5042 8.75384 18.5615 8.78436C18.6473 8.8302 18.6612 8.67978 18.6995 8.67978C18.7378 8.68362 18.6687 8.85819 18.7397 8.89887C18.7863 8.9255 18.9474 8.72773 18.9666 8.75834C18.9807 8.78225 18.8422 8.9458 18.8795 8.97008C18.9256 9.00645 18.9211 9.05511 19.0232 9.0147C19.1068 8.97252 19.4762 8.74062 19.5713 8.74723C19.4831 8.80517 19.4145 8.87553 19.3187 8.963C19.1656 9.12373 19.1223 9.1438 19.2448 9.16241C19.3586 9.1438 19.3867 9.10939 19.4429 9.14736C19.4709 9.16634 19.4172 9.31128 19.4552 9.33444C19.4933 9.35764 19.6238 9.30669 19.6384 9.32173C19.6967 9.38202 19.593 9.46278 19.6274 9.55081C19.6733 9.68098 19.6963 9.68094 19.8494 9.57378C19.9718 9.48575 20.1284 9.4228 20.1331 9.45608C20.1392 9.49986 20.102 9.5202 20.0331 9.61972C19.8111 9.93355 19.8723 9.99481 20.3086 9.94887C20.3086 9.94887 20.664 9.84523 20.7704 10.0077C20.6653 9.98792 20.4134 10.038 20.3462 10.0672C20.3099 10.0829 20.2311 10.1301 20.1631 10.1842C20.1291 10.2112 20.1488 10.2325 20.1693 10.2922C20.249 10.3209 20.3357 10.3385 20.4297 10.3332C20.1456 10.4476 20.171 10.353 20.068 10.4105C20.142 10.5325 20.2009 10.5235 20.4539 10.5589C20.5166 10.5889 20.5771 10.6031 20.6461 10.6222C20.7168 10.6413 20.7607 10.6962 20.7432 10.7025C20.7257 10.7088 20.6562 10.6912 20.5782 10.6835C20.4867 10.6847 20.5341 10.6839 20.329 10.705C20.2332 10.7284 20.1903 10.7988 20.2088 10.8372Z" fill="black"/>
<path d="M17.604 10.0702C17.604 10.1149 17.63 10.1512 17.662 10.1512C17.6941 10.1512 17.7201 10.1149 17.7201 10.0702C17.7201 10.0255 17.6941 9.98926 17.662 9.98926C17.6308 9.98926 17.6052 10.0238 17.604 10.0674" fill="black"/>
<path d="M17.4874 10.1301C17.5241 10.223 17.632 10.2697 17.7284 10.2342C17.8247 10.1988 17.8731 10.0947 17.8364 10.0017C17.7996 9.90877 17.6917 9.86217 17.5954 9.89761C17.4991 9.933 17.4508 10.0369 17.4873 10.1298" stroke="black" stroke-width="1.7"/>
<path d="M18.1624 9.82895C17.9208 9.70149 17.5869 9.89921 17.5869 9.89921" stroke="black" stroke-width="1.7"/>
<path d="M19.9742 12.0231C19.9828 11.982 19.9641 11.9616 19.8977 11.9189C19.8156 11.9292 19.6731 11.9875 19.5828 12.0675C19.4289 12.2038 19.4056 12.2545 19.3188 12.3711C19.3542 12.4412 19.3772 12.4563 19.4443 12.5216C19.5124 12.5662 19.5528 12.5933 19.5991 12.6155C19.636 12.5009 19.681 12.4443 19.783 12.3126C19.8307 12.2399 19.9718 12.1844 20.0433 12.1305C20.0279 12.0735 19.9996 12.069 19.9742 12.0231Z" fill="#DFDFDF"/>
<path d="M19.3986 12.5641C19.3281 12.5186 19.3094 12.4542 19.2605 12.4248C19.196 12.4526 19.2128 12.4605 19.1082 12.5118C18.9957 12.5829 19.0364 12.5671 18.9497 12.6837C18.9851 12.7537 19.0037 12.7864 19.0576 12.8605C19.117 12.9139 19.1178 12.9542 19.1728 13.0203C19.2757 12.9935 19.3426 12.9545 19.4226 12.8624C19.4792 12.794 19.5455 12.7913 19.5731 12.6759C19.5006 12.6277 19.4416 12.6056 19.3986 12.5641Z" fill="#DFDFDF"/>
<path d="M18.9987 12.8883C18.9458 12.8165 18.9359 12.7653 18.8914 12.7139C18.8137 12.724 18.7514 12.7364 18.66 12.7658C18.5344 12.7929 18.5179 12.8342 18.4531 12.9024C18.4885 12.9725 18.494 13.0623 18.5215 13.1891C18.5413 13.2777 18.5597 13.3268 18.5972 13.406C18.7 13.3617 18.7757 13.3227 18.8646 13.2657C18.9562 13.2105 19.0446 13.1551 19.0854 13.0396C19.0392 12.9563 19.0416 12.9299 18.9987 12.8883Z" fill="#DFDFDF"/>
<path d="M18.4499 13.231C18.4277 13.1328 18.431 13.0289 18.3821 12.9512C18.3045 12.9613 18.3168 12.9868 18.2254 13.0162C18.1305 13.0565 18.0657 13.067 18.0142 13.1705C18.0978 13.2493 18.1164 13.2381 18.144 13.3649C18.1638 13.4535 18.1251 13.5772 18.1626 13.6565C18.2654 13.6122 18.2752 13.5863 18.3641 13.5294C18.4557 13.4741 18.465 13.4978 18.5234 13.4395C18.4904 13.3385 18.4709 13.2902 18.4499 13.231Z" fill="#DFDFDF"/>
<path d="M18.0719 13.3722C18.0278 13.2827 18.0091 13.2623 17.9601 13.2197C17.8693 13.2562 17.829 13.2335 17.742 13.3111C17.6602 13.369 17.49 13.5113 17.4253 13.5796C17.487 13.6101 17.5447 13.6312 17.6167 13.7257C17.6887 13.8202 17.668 13.8457 17.7099 13.9514C17.7864 13.9027 17.8226 13.8768 17.8939 13.833C17.9679 13.7646 17.9992 13.7444 18.0839 13.6861C18.0509 13.5895 18.0841 13.4489 18.0719 13.3722Z" fill="#DFDFDF"/>
<path d="M17.5665 13.7847C17.5224 13.6954 17.4598 13.6794 17.4109 13.6367C17.3201 13.6732 17.2841 13.7515 17.1971 13.8292C17.089 13.9486 17.0726 13.9679 17.021 14.0406C17.1003 14.0799 17.1228 14.0834 17.1948 14.1471C17.2693 14.2131 17.2901 14.2145 17.3407 14.2717C17.3953 14.2099 17.3875 14.2147 17.4588 14.1446C17.5329 14.0762 17.5422 14.0779 17.64 13.9888C17.6114 13.8879 17.5963 13.8527 17.5665 13.7847Z" fill="#DFDFDF"/>
<path d="M17.1447 14.211C17.0918 14.17 17.0424 14.1408 16.9978 14.1113C16.9554 14.1611 16.915 14.1997 16.8895 14.2555C16.8473 14.309 16.8441 14.3195 16.8101 14.3922C16.8894 14.4315 16.8811 14.4218 16.9399 14.4504C16.9972 14.4782 17.0221 14.5089 17.0903 14.553C17.1448 14.4912 17.1063 14.5136 17.1776 14.4435C17.2122 14.4014 17.2302 14.368 17.2842 14.3141C17.2072 14.2483 17.1965 14.2394 17.1447 14.211Z" fill="#DFDFDF"/>
<path d="M16.936 14.5211C16.8721 14.491 16.8446 14.475 16.7913 14.4521C16.7554 14.5194 16.7459 14.5296 16.7203 14.5853C16.7045 14.6322 16.6925 14.6559 16.665 14.733C16.7246 14.7547 16.7427 14.7604 16.7818 14.778C16.8216 14.796 16.8638 14.8211 16.9101 14.8477C16.9537 14.7661 16.9525 14.7841 16.9776 14.736C17.0012 14.6895 17.0171 14.6758 17.0601 14.6132C16.9963 14.5649 16.9768 14.5473 16.936 14.5211Z" fill="#DFDFDF"/>
<path d="M16.7777 14.8377C16.7139 14.8076 16.7144 14.8149 16.661 14.792C16.6252 14.8593 16.6 14.9782 16.5807 15.051C16.5665 15.1336 16.5544 15.2257 16.5503 15.326C16.6067 15.3369 16.5834 15.3302 16.6328 15.34C16.6819 15.3498 16.6846 15.3516 16.737 15.3735C16.7527 15.2639 16.7662 15.2035 16.7945 15.1286C16.8134 15.076 16.8526 14.9567 16.8956 14.894C16.8412 14.8644 16.8185 14.8639 16.7777 14.8377Z" fill="#DFDFDF"/>
<path d="M16.6395 15.405C16.6198 15.4004 16.5987 15.3969 16.557 15.3936C16.5491 15.5369 16.5488 15.572 16.5528 15.7146C16.5634 15.8641 16.5653 15.9856 16.5892 16.1373C16.6161 16.1295 16.6223 16.1212 16.6717 16.1186C16.721 16.116 16.7181 16.1152 16.769 16.1184C16.7333 15.9762 16.7322 15.9275 16.7216 15.7581C16.7172 15.6262 16.7175 15.5836 16.7281 15.4351C16.6892 15.4227 16.6726 15.4141 16.6395 15.405Z" fill="#DFDFDF"/>
<path d="M16.7077 16.1878C16.688 16.1832 16.6389 16.1891 16.5972 16.1856C16.6421 16.4378 16.6791 16.5318 16.7639 16.6869C16.8645 16.8333 16.9628 16.9704 17.0923 17.1096C17.1082 17.0985 17.1192 17.0839 17.1344 17.0692C17.149 17.055 17.1614 17.0507 17.1789 17.0348C17.0314 16.8398 17.0053 16.7817 16.9171 16.6031C16.8443 16.4246 16.8322 16.3758 16.7839 16.1807C16.7449 16.1961 16.7407 16.1969 16.7077 16.1878Z" fill="#DFDFDF"/>
<path d="M17.1706 17.1098C17.1453 17.1261 17.1577 17.1203 17.1191 17.1449C17.1795 17.2168 17.2227 17.2581 17.3355 17.3697C17.4206 17.4321 17.4461 17.4866 17.6204 17.557C17.6412 17.5336 17.642 17.5306 17.6522 17.5157C17.6619 17.5012 17.666 17.4976 17.6769 17.4696C17.5884 17.4423 17.4837 17.3806 17.4173 17.3138C17.3072 17.2192 17.2796 17.1766 17.2064 17.084C17.1894 17.095 17.1816 17.0991 17.1706 17.1098Z" fill="#DFDFDF"/>
<path d="M17.7208 17.5415C17.707 17.5634 17.7123 17.5698 17.6992 17.5956C17.7783 17.6427 17.7959 17.6467 17.9899 17.6845C18.2282 17.6926 18.3286 17.6869 18.4405 17.6718C18.4365 17.642 18.4361 17.6392 18.4348 17.6111C18.4335 17.5844 18.437 17.5931 18.4349 17.5646C18.212 17.5794 18.1443 17.5644 18.0562 17.5588C17.8976 17.5439 17.778 17.5067 17.7403 17.4971C17.7234 17.5279 17.7253 17.5199 17.7208 17.5415Z" fill="#DFDFDF"/>
<path d="M18.4989 17.617C18.5037 17.6404 18.5028 17.6328 18.5099 17.6664C18.6946 17.6343 18.6983 17.6383 18.9217 17.5922C19.0901 17.5444 19.1457 17.508 19.2499 17.4526C19.2575 17.4158 19.2554 17.4202 19.247 17.4049C19.236 17.3847 19.2443 17.3912 19.2193 17.376C19.0955 17.4503 18.9628 17.4721 18.8918 17.496C18.7223 17.5309 18.6384 17.5402 18.4951 17.5555C18.4968 17.5879 18.4972 17.5953 18.4989 17.617Z" fill="#DFDFDF"/>
<path d="M19.2976 17.3567C19.3256 17.3779 19.3277 17.3877 19.363 17.3828C19.4205 17.3748 19.4279 17.3586 19.4831 17.3135C19.5102 17.2913 19.5523 17.2485 19.5439 17.2332C19.5329 17.213 19.5143 17.1523 19.4898 17.1918C19.4685 17.2264 19.3773 17.2798 19.3233 17.3169C19.2803 17.3464 19.2867 17.3484 19.2976 17.3567Z" fill="#DFDFDF"/>
<path d="M19.5741 17.1673C19.6068 17.1776 19.5986 17.1841 19.6255 17.1609C19.6473 17.142 19.6625 17.1102 19.7022 17.0635C19.7248 17.0369 19.7702 16.9602 19.7723 16.9428C19.7783 16.8931 19.7506 16.8603 19.7291 16.9015C19.6906 16.9749 19.6414 17.0517 19.5734 17.1136C19.5349 17.1487 19.5611 17.1632 19.5741 17.1673Z" fill="#DFDFDF"/>
<path d="M19.7729 16.8474C19.8055 16.8577 19.802 16.8642 19.8289 16.841C19.8507 16.8221 19.8725 16.773 19.8978 16.7172C19.9127 16.6844 19.9458 16.6352 19.9337 16.6027C19.9203 16.5667 19.8733 16.542 19.861 16.5863C19.8389 16.6661 19.8316 16.6672 19.7939 16.7611C19.7793 16.7973 19.7598 16.8433 19.7729 16.8474Z" fill="#DFDFDF"/>
<path d="M19.8802 16.5076C19.893 16.5322 19.9165 16.5292 19.9548 16.512C19.9857 16.4981 19.9741 16.4493 19.9787 16.3883C19.9812 16.3554 19.9879 16.3249 19.9789 16.2815C19.9711 16.2439 19.9001 16.2302 19.8953 16.2759C19.8919 16.3092 19.8968 16.3286 19.8903 16.3855C19.8799 16.4775 19.8702 16.4883 19.8802 16.5076Z" fill="#DFDFDF"/>
<path d="M19.9082 16.1853C19.9157 16.2061 19.9462 16.1992 19.9643 16.1773C19.9858 16.1513 19.9602 16.1053 19.9586 16.0535C19.9576 16.0206 19.9484 15.9875 19.9309 15.9468C19.92 15.9216 19.8806 15.9186 19.8799 15.9645C19.8796 15.9869 19.8859 16.0161 19.892 16.0648C19.8987 16.1183 19.8963 16.1521 19.9082 16.1853Z" fill="#DFDFDF"/>
<path d="M19.8536 15.8607C19.861 15.8815 19.8942 15.8618 19.9003 15.8341C19.9094 15.7925 19.8806 15.7467 19.8682 15.6963C19.8579 15.6541 19.8388 15.6039 19.8048 15.5757C19.7799 15.5551 19.7349 15.5438 19.7445 15.5887C19.7519 15.6235 19.8017 15.6899 19.8187 15.7464C19.8342 15.7981 19.8416 15.8275 19.8536 15.8607Z" fill="#DFDFDF"/>
<path d="M19.65 15.4898C19.6721 15.4906 19.6977 15.4968 19.6906 15.4693C19.6842 15.4449 19.6604 15.4328 19.615 15.3968C19.5919 15.3785 19.5511 15.345 19.5283 15.3336C19.502 15.3206 19.4503 15.3043 19.468 15.3466C19.4754 15.3644 19.4988 15.3718 19.5406 15.4003C19.5852 15.4307 19.6351 15.4892 19.65 15.4898Z" fill="#DFDFDF"/>
<path d="M9.04525 17.6448C8.59361 17.7979 7.94294 18.1118 7.68269 18.2878C7.59846 18.3491 7.60614 18.418 7.73627 18.6782C7.8281 18.8466 7.91997 18.9921 7.9353 18.9921C7.95827 18.9921 8.21088 18.8773 8.4941 18.7318C8.77732 18.594 9.13919 18.4122 9.3055 18.3797C9.43267 18.3548 9.54883 18.3312 9.62069 18.3014C9.64966 18.3717 9.63185 18.3325 9.68458 18.4429C9.76042 18.6017 9.71322 18.598 9.84433 18.6415C9.98261 18.6872 10.3236 18.5022 10.3236 18.5022C10.7216 18.3644 10.9436 18.3491 12.3751 18.3491C13.8065 18.3491 14.0285 18.3644 14.4266 18.5098C14.4266 18.5098 14.7469 18.6188 14.788 18.632C14.829 18.6451 14.8505 18.6554 14.8938 18.6451C14.9332 18.6356 14.9743 18.5753 14.9924 18.5389C14.9924 18.5389 15.0805 18.3274 15.103 18.2532C15.1793 18.2898 15.3183 18.3376 15.4523 18.3797C15.613 18.4333 15.9728 18.594 16.2561 18.7318C16.5393 18.8773 16.7919 18.9921 16.8149 18.9921C16.8302 18.9921 16.922 18.8466 17.0139 18.6782C17.1976 18.3185 17.2129 18.3491 16.5469 18.0046C15.659 17.5453 14.771 17.3387 14.6868 17.5607C14.6715 17.6027 14.6585 17.6274 14.6375 17.682C14.5485 17.6615 14.3155 17.6065 14.0821 17.5683C13.3625 17.4382 11.3876 17.4382 10.6681 17.5683C10.4346 17.6065 10.2768 17.6704 10.1448 17.707C10.0701 17.5576 10.0858 17.617 10.0705 17.575C10.0092 17.4219 9.60405 17.4458 9.04525 17.6448Z" fill="black"/>
<path d="M9.77243 17.5355C9.44374 17.5459 8.82719 17.7564 8.20338 18.0737C7.66755 18.3417 7.65237 18.357 7.79782 18.6403C7.85908 18.7704 7.92827 18.8859 7.93591 18.9012C7.9361 18.9013 7.9368 18.9022 7.93699 18.9023C7.96554 18.9098 8.20413 18.804 8.47849 18.6631C8.7694 18.5176 9.1376 18.3578 9.29833 18.3119C9.41697 18.2698 9.50322 18.2659 9.6093 18.2434C9.58994 18.1306 9.61394 18.2279 9.53866 18.0129C9.62547 17.7951 9.79324 17.6069 9.95618 17.5659C9.91427 17.5436 9.85216 17.533 9.77243 17.5355Z" fill="#DFDFDF"/>
<path d="M12.2875 17.5401C11.6529 17.5462 11.0289 17.5772 10.7434 17.6216C10.2573 17.702 9.99522 17.8561 9.81484 17.95C9.74884 17.9993 9.69095 18.0112 9.61914 18.0544C9.67605 18.1834 9.67384 18.2611 9.72241 18.3741C9.77355 18.493 9.748 18.5681 9.88769 18.572C10.0274 18.5758 10.3313 18.4252 10.3313 18.4252C10.7217 18.2874 10.9517 18.2719 12.3755 18.2719C13.807 18.2719 14.0954 18.3174 14.4262 18.4328C14.6661 18.5154 14.765 18.5806 14.8611 18.5633C14.9106 18.5544 14.9363 18.4831 14.971 18.3969C15.0182 18.2796 15.0752 18.122 15.1036 17.925C15.0284 17.914 15.0616 17.9525 14.959 17.9065C14.7375 17.8072 14.6953 17.7997 14.5491 17.738C14.3755 17.6648 14.2132 17.6647 13.9586 17.6173C13.6601 17.5714 12.9966 17.5534 12.3483 17.5401C12.3279 17.5403 12.3079 17.5399 12.2875 17.5401Z" fill="#DFDFDF"/>
<path d="M14.9468 17.542C14.9036 17.5423 14.8669 17.547 14.8359 17.5562C14.9027 17.5981 14.9807 17.6683 15.024 17.691C15.1848 17.7752 15.1841 17.853 15.1687 17.9976C15.1615 18.0644 15.1553 18.0899 15.1295 18.1813C15.1895 18.2084 15.3375 18.2697 15.46 18.3118C15.6131 18.3578 15.9803 18.5176 16.2712 18.6631C16.5412 18.8017 16.7769 18.9061 16.8116 18.9023C16.8122 18.9021 16.8133 18.9014 16.8138 18.9012C16.8138 18.9012 16.8148 18.9012 16.8149 18.9012C16.8225 18.8859 16.8917 18.7704 16.953 18.6402C17.0525 18.4489 17.0599 18.3807 16.9834 18.3195C16.815 18.1817 16.1337 17.867 15.6438 17.6986C15.3302 17.594 15.0995 17.5408 14.9468 17.542Z" fill="#DFDFDF"/>
<path d="M14.7544 17.6035C14.7491 17.6093 14.7446 17.6154 14.7402 17.622C14.717 17.6503 14.7138 17.6806 14.7065 17.7155C14.7573 17.7335 14.9284 17.84 15.0164 17.8362C15.0353 17.8362 15.0502 17.8354 15.0589 17.8318C15.0593 17.8317 15.0606 17.831 15.061 17.8308C15.0612 17.8307 15.0619 17.8298 15.0621 17.8297C15.0628 17.8292 15.0637 17.8281 15.0643 17.8275C15.0645 17.8272 15.0652 17.8267 15.0654 17.8264C15.0655 17.8263 15.0664 17.8255 15.0664 17.8253C15.0665 17.8251 15.0664 17.8244 15.0664 17.8243C15.0665 17.8241 15.0664 17.8234 15.0664 17.8232C15.0664 17.823 15.0664 17.8223 15.0664 17.8221C15.0664 17.8219 15.0665 17.8212 15.0664 17.821C15.0663 17.8201 15.0657 17.8187 15.0654 17.8177C15.0652 17.8173 15.0646 17.816 15.0643 17.8156C15.0638 17.8148 15.0627 17.8131 15.0621 17.8123C15.0499 17.7964 15.0125 17.7706 14.9392 17.7297C14.8875 17.7008 14.8038 17.6438 14.7544 17.6035Z" fill="#DFDFDF"/>
<path d="M10.0018 17.6055C9.95151 17.6438 9.86625 17.6965 9.8115 17.7338C9.71311 17.8006 9.69843 17.8525 9.65601 17.9458C9.65512 17.9477 9.65409 17.9502 9.65381 17.9512C9.65381 17.9514 9.65381 17.9523 9.65381 17.9523C9.6539 17.9523 9.65484 17.9523 9.65493 17.9523C9.65503 17.9523 9.65587 17.9523 9.65601 17.9523C9.66989 17.946 9.74432 17.8789 9.9224 17.8186C10.0751 17.7616 9.99389 17.7895 10.0888 17.7501C10.0262 17.6535 10.0181 17.6469 10.0105 17.6239C10.0083 17.6173 10.0053 17.6113 10.0018 17.6055Z" fill="#DFDFDF"/>
<path d="M10.6652 17.8329L10.6828 17.9845L10.7866 17.9725C10.8241 17.9682 10.8498 17.9591 10.8638 17.9451C10.878 17.9312 10.8835 17.91 10.8802 17.8816C10.8771 17.8551 10.8676 17.8373 10.8518 17.828C10.836 17.8187 10.8084 17.8164 10.7691 17.8209L10.6652 17.8329ZM10.5996 17.7873L10.773 17.7672C10.8012 17.7639 10.822 17.7628 10.8354 17.7637C10.8491 17.7646 10.8615 17.7673 10.8727 17.7717C10.8927 17.7798 10.9087 17.7926 10.9205 17.8099C10.9326 17.8272 10.9401 17.8483 10.9429 17.8732C10.9457 17.8973 10.9429 17.9185 10.9346 17.937C10.9262 17.9551 10.9124 17.9703 10.893 17.9824C10.911 17.9852 10.9244 17.992 10.933 18.0027C10.9418 18.0134 10.9487 18.0324 10.9537 18.0597L10.9674 18.1329C10.9703 18.1486 10.9737 18.1602 10.9776 18.1678C10.9817 18.1751 10.9871 18.18 10.9938 18.1825L10.9952 18.195L10.9251 18.2031C10.9183 18.1944 10.912 18.1749 10.9063 18.1446C10.9062 18.1438 10.9061 18.1432 10.9061 18.1428L10.8957 18.0849C10.8902 18.0552 10.8816 18.0365 10.8698 18.0288C10.858 18.0211 10.8307 18.0198 10.7878 18.0247L10.6893 18.0361L10.7115 18.2278L10.6514 18.2348L10.5996 17.7873ZM11.131 17.9973L11.271 17.987L11.1869 17.7939L11.131 17.9973ZM11.0147 18.1935L11.1486 17.732L11.216 17.7271L11.4164 18.164L11.3503 18.1689L11.2928 18.0382L11.1159 18.0511L11.0779 18.1889L11.0147 18.1935ZM11.6337 18.1543L11.6205 17.704L11.6817 17.7023L11.6871 17.8872L11.9206 17.8803L11.9152 17.6954L11.9767 17.6936L11.9899 18.1439L11.9284 18.1456L11.9222 17.9348L11.6887 17.9416L11.6949 18.1525L11.6337 18.1543ZM12.1654 17.9552L12.3058 17.9545L12.235 17.7561L12.1654 17.9552ZM12.0361 18.143L12.201 17.6917L12.2686 17.6914L12.4388 18.141L12.3725 18.1413L12.3241 18.007L12.1467 18.0079L12.0994 18.1427L12.0361 18.143ZM12.8032 17.9796L12.8625 17.9806C12.8589 18.0354 12.8394 18.0788 12.804 18.1108C12.7688 18.1426 12.7236 18.1581 12.6686 18.1571C12.6052 18.156 12.5558 18.1336 12.5205 18.0897C12.4853 18.0459 12.4685 17.9858 12.4698 17.9093C12.471 17.8388 12.4908 17.7832 12.5292 17.7424C12.5677 17.7015 12.6189 17.6816 12.6829 17.6827C12.7339 17.6835 12.7753 17.6974 12.8073 17.7243C12.8394 17.7511 12.8577 17.7873 12.862 17.8329L12.802 17.8319C12.7969 17.802 12.7837 17.7789 12.7626 17.7627C12.7414 17.7462 12.7138 17.7376 12.6795 17.737C12.6338 17.7363 12.5981 17.7517 12.5723 17.7832C12.5467 17.8148 12.5333 17.8597 12.5323 17.918C12.5314 17.9731 12.5437 18.0174 12.5692 18.0511C12.5949 18.0848 12.6293 18.102 12.6726 18.1028C12.7095 18.1034 12.7398 18.0925 12.7637 18.0701C12.7877 18.0474 12.8009 18.0173 12.8032 17.9796ZM12.9318 18.1501L12.9524 17.7001L13.0135 17.7029L13.005 17.8877L13.2384 17.8984L13.2469 17.7136L13.3083 17.7164L13.2877 18.1664L13.2263 18.1636L13.236 17.9528L13.0025 17.9421L12.9929 18.1529L12.9318 18.1501ZM13.3848 18.1735L13.416 17.7242L13.477 17.7284L13.4458 18.1778L13.3848 18.1735ZM13.643 17.7941L13.6282 17.946L13.7323 17.9561C13.7699 17.9598 13.7969 17.9563 13.8135 17.9456C13.8303 17.9349 13.8401 17.9154 13.8429 17.887C13.8455 17.8604 13.84 17.8409 13.8264 17.8285C13.8129 17.8162 13.7865 17.8081 13.7471 17.8043L13.643 17.7941ZM13.5885 17.7357L13.7623 17.7526C13.7904 17.7553 13.811 17.7586 13.824 17.7623C13.8371 17.766 13.8487 17.7712 13.8587 17.7779C13.8766 17.7901 13.8895 17.8059 13.8975 17.8253C13.9056 17.8448 13.9084 17.8669 13.906 17.8919C13.9037 17.9161 13.8965 17.9363 13.8845 17.9525C13.8724 17.9685 13.8557 17.9804 13.8343 17.9881C13.8512 17.9947 13.8628 18.0041 13.869 18.0164C13.8754 18.0287 13.8781 18.0488 13.8773 18.0766L13.8753 18.151C13.8748 18.1669 13.8756 18.179 13.8779 18.1872C13.8804 18.1952 13.8847 18.2012 13.8906 18.205L13.8894 18.2175L13.8191 18.2107C13.8143 18.2008 13.8123 18.1804 13.813 18.1495C13.8131 18.1487 13.8132 18.1481 13.8132 18.1478L13.8152 18.0889C13.8161 18.0587 13.8117 18.0386 13.8018 18.0286C13.7919 18.0187 13.7654 18.0116 13.7224 18.0074L13.6238 17.9978L13.6051 18.1898L13.5449 18.184L13.5885 17.7357ZM13.9597 18.2279L14.0183 17.7812L14.079 17.7892L14.0203 18.2358L13.9597 18.2279Z" fill="black"/>
<path d="M9.77103 8.88207C9.5638 8.98993 9.45594 9.14888 9.43892 9.36464C9.42186 9.59738 9.47295 9.76205 9.60636 9.88693C9.66599 9.94655 9.71708 10.0033 9.71708 10.0175C9.71708 10.0289 9.67166 10.0856 9.61489 10.1396C9.48149 10.2645 9.40484 10.4291 9.40484 10.5994C9.40484 10.7754 9.45875 10.8975 9.60355 11.0565L9.72275 11.187L9.5922 11.3318C9.33102 11.6213 9.33955 11.9535 9.61208 12.2288L9.72842 12.3509H12.4024H15.0735L15.2041 12.2117C15.4567 11.9421 15.4567 11.6497 15.2069 11.3403L15.0792 11.1842L15.1985 11.0423C15.4596 10.73 15.4539 10.4433 15.1843 10.1424C15.0622 10.009 15.0593 9.98344 15.1558 9.921C15.312 9.81596 15.4085 9.46116 15.3375 9.2454C15.2325 8.92182 14.7812 8.7061 14.5058 8.84799C14.4547 8.87354 14.3525 8.9445 14.2759 9.00413C14.1993 9.06657 14.1283 9.11485 14.1141 9.11485C14.1028 9.11485 14.0346 9.06375 13.9637 9.00127C13.6883 8.76568 13.3647 8.78274 13.0894 9.04955L12.9843 9.15174L12.8452 9.024C12.5642 8.76 12.2122 8.77135 11.9255 9.04955L11.8205 9.15174L11.707 9.04955C11.5395 8.89627 11.4288 8.85085 11.2357 8.84799C11.0512 8.84518 10.8781 8.92182 10.7418 9.06943L10.6737 9.14039L10.5261 9.01547C10.2536 8.78274 10.035 8.74299 9.77103 8.88207Z" fill="#171796" stroke="black" stroke-width="2"/>
<path d="M9.63341 12.5171C9.35521 12.8264 9.35807 13.1415 9.63908 13.4538L9.74408 13.5701L9.62488 13.7007C9.55958 13.7717 9.48861 13.8739 9.46592 13.925C9.37508 14.1436 9.44319 14.4359 9.62207 14.6034C9.72992 14.7085 9.73274 14.751 9.63055 14.8759C9.58513 14.9299 9.53122 15.0065 9.51135 15.0462C9.29844 15.4493 9.61635 15.9546 10.0876 15.9546C10.2749 15.9546 10.4168 15.895 10.5446 15.7587C10.6468 15.6508 10.7007 15.648 10.7915 15.7445C10.925 15.8921 11.101 15.983 11.2486 15.983C11.4217 15.983 11.5296 15.929 11.7056 15.7616L11.839 15.631L11.961 15.7644C12.225 16.0482 12.4919 16.0568 12.8467 15.7871L12.9915 15.6792L13.1164 15.7928C13.2725 15.929 13.3889 15.983 13.5422 15.983C13.6955 15.983 13.809 15.9234 13.9878 15.7474L14.1354 15.6055L14.249 15.7076C14.4675 15.9035 14.5868 15.9659 14.7457 15.9659C14.9104 15.9659 15.0268 15.912 15.1914 15.7644C15.3447 15.6253 15.427 15.4635 15.4071 15.3301C15.3873 15.1853 15.2567 14.9213 15.1602 14.8305L15.0778 14.751L15.2056 14.6063C15.4838 14.2798 15.4866 14.0272 15.2113 13.7036L15.0977 13.5673L15.2169 13.4225C15.4838 13.1074 15.4809 12.8151 15.2113 12.5284L15.0665 12.3779L12.4096 12.3808L9.75261 12.3836L9.63341 12.5171Z" fill="#D42E12" stroke="black" stroke-width="2"/>
<path d="M9.04541 12.1489C9.04541 12.1489 9.04714 14.8049 9.05258 15.8191C9.04354 15.9692 9.13147 16.0055 9.26024 16.1055C9.4685 16.2671 9.69069 16.4363 10.8826 16.3438C11.9772 16.3514 12.2068 16.4357 12.3216 16.872L12.3829 17.1169L12.4365 16.872C12.5207 16.4509 12.7805 16.3514 13.8368 16.3438C15.1967 16.3643 15.3097 16.2789 15.5046 16.1126C15.5046 16.1126 15.6469 16.0031 15.6836 15.8978C15.7248 15.7797 15.7051 15.6831 15.7051 15.6831V12.1489V8.42871H12.3753H9.04541V12.1489ZM15.6285 12.1796L15.6428 15.2439C15.6428 15.6564 15.6726 15.7829 15.6285 15.8615C15.5845 15.9401 15.4954 16.0447 15.4954 16.0447C15.2887 16.2514 15.1138 16.2937 14.1711 16.2815C13.5622 16.2832 13.2333 16.3001 12.7536 16.3758C12.6783 16.4434 12.4714 16.4374 12.3752 16.8308C12.2504 16.4374 12.1614 16.4545 12.1614 16.4545C11.6518 16.2406 11.4238 16.2832 10.607 16.2749C10.0788 16.3514 9.51233 16.2519 9.29802 16.0376C9.29802 16.0376 9.26614 16.0463 9.12196 15.8758C9.12336 15.1294 9.12196 12.1796 9.12196 12.1796V8.50526H12.3752H15.6285V12.1796Z" fill="black"/>
<path d="M11.4542 10.1021C11.2528 10.519 11.2442 10.7061 11.4117 11.0401C11.5422 11.2967 11.6955 11.4597 11.9055 11.5639C12.4532 11.8392 13.1542 11.6361 13.4295 11.123C13.5998 10.8076 13.58 10.2811 13.3927 10.0513L13.3416 9.98981L13.2933 10.1715C13.2252 10.4308 13.1571 10.5617 13.0208 10.7007C12.7654 10.9599 12.4135 11.0187 12.0502 10.8584C11.7693 10.7328 11.6557 10.5591 11.5507 10.0754L11.5252 9.95508L11.4542 10.1021Z" fill="white"/>
<path d="M11.3875 10.128C11.2191 10.5107 11.2344 10.7021 11.4411 11.1078C11.9769 12.1641 13.5692 11.7661 13.5615 10.5719C13.5538 10.3806 13.5598 10.256 13.4543 10.0438C13.4046 9.95573 13.3832 9.92962 13.3478 9.87637C13.3337 9.93402 13.3127 10.0361 13.2706 10.2045C13.1175 10.7939 12.6123 11.0695 12.0841 10.8475C11.7856 10.725 11.6478 10.526 11.5712 10.1127L11.5177 9.84473L11.3875 10.128ZM11.908 10.8858C12.2755 11.1231 12.8343 11.0466 13.1175 10.7327C13.2323 10.6026 13.3029 10.3995 13.3318 10.2964C13.3605 10.1946 13.366 10.1793 13.3833 10.0776C13.4277 10.1762 13.4522 10.228 13.4731 10.3805C13.5041 10.6057 13.4543 10.7939 13.4007 10.9317C13.1328 11.636 12.2755 11.8503 11.7396 11.3451C11.4794 11.1078 11.2727 10.6415 11.3857 10.3406C11.4258 10.2339 11.435 10.173 11.4874 10.0604C11.4969 10.1374 11.5023 10.2428 11.5559 10.4035C11.6248 10.6255 11.7473 10.7863 11.908 10.8858Z" fill="black"/>
<path d="M11.083 13.6495C11.0779 13.8151 11.0858 13.8909 11.112 14.0136C11.0286 13.9332 10.9447 13.877 10.8292 13.81C10.6821 13.7246 10.4964 13.6431 10.4333 13.7473C10.3726 13.8475 10.5468 13.9848 10.6831 14.0617C10.8321 14.1458 10.9181 14.1573 11.0151 14.1954C10.9329 14.2388 10.8209 14.2679 10.6968 14.3476C10.575 14.4257 10.3928 14.5874 10.4619 14.6907C10.5322 14.7958 10.7354 14.6777 10.85 14.601C10.9453 14.5371 11.0716 14.4364 11.1207 14.3848C11.111 14.4589 11.0817 14.6064 11.0838 14.7476C11.0865 14.9189 11.1102 15.1107 11.2378 15.1104C11.3681 15.1101 11.3958 14.8842 11.3938 14.7315C11.3916 14.5719 11.3734 14.4591 11.3577 14.3804C11.4141 14.438 11.4993 14.5205 11.6116 14.609C11.7043 14.6821 11.9313 14.7903 11.9992 14.6866C12.0684 14.5811 11.9607 14.4762 11.7628 14.3506C11.6241 14.2626 11.5258 14.2324 11.4354 14.195C11.5268 14.1576 11.6267 14.1479 11.7728 14.0591C11.9895 13.9274 12.0814 13.8393 12.0149 13.7259C11.9504 13.6156 11.8198 13.6759 11.6217 13.8019C11.5154 13.8695 11.4161 13.959 11.3488 14.0234C11.3642 13.9221 11.3807 13.7727 11.3795 13.662C11.3775 13.4975 11.3415 13.2848 11.2295 13.2842C11.1175 13.2836 11.0886 13.4684 11.083 13.6495Z" fill="#E9D315" stroke="black" stroke-width="1.625"/>
<path d="M11.4049 14.1968C11.4049 14.2931 11.3268 14.3712 11.2305 14.3712C11.1342 14.3712 11.0562 14.2931 11.0562 14.1968C11.0562 14.1005 11.1342 14.0225 11.2305 14.0225C11.3268 14.0225 11.4048 14.1004 11.4049 14.1966" fill="white"/>
<path d="M11.4049 14.1968C11.4049 14.2931 11.3268 14.3712 11.2305 14.3712C11.1342 14.3712 11.0562 14.2931 11.0562 14.1968C11.0562 14.1005 11.1342 14.0225 11.2305 14.0225C11.3268 14.0225 11.4048 14.1004 11.4049 14.1966" stroke="black" stroke-width="1.86854"/>
<path d="M13.3667 13.6495C13.3616 13.8151 13.3695 13.8909 13.3957 14.0136C13.3123 13.9332 13.2284 13.877 13.1129 13.81C12.9658 13.7246 12.7801 13.6431 12.717 13.7473C12.6563 13.8475 12.8305 13.9848 12.9668 14.0617C13.1159 14.1458 13.2018 14.1573 13.2988 14.1954C13.2167 14.2388 13.1046 14.2679 12.9805 14.3476C12.8587 14.4257 12.6766 14.5874 12.7456 14.6907C12.8159 14.7958 13.0191 14.6777 13.1336 14.601C13.229 14.5371 13.3553 14.4364 13.4044 14.3848C13.3947 14.4589 13.3654 14.6064 13.3676 14.7476C13.3702 14.9189 13.3939 15.1107 13.5215 15.1104C13.6519 15.1101 13.6796 14.8842 13.6775 14.7315C13.6753 14.5719 13.6571 14.4591 13.6414 14.3804C13.6979 14.438 13.7831 14.5205 13.8953 14.609C13.988 14.6821 14.215 14.7903 14.2829 14.6866C14.3522 14.5811 14.2444 14.4762 14.0465 14.3506C13.9077 14.2626 13.8095 14.2324 13.7191 14.195C13.8105 14.1576 13.9104 14.1479 14.0565 14.0591C14.2732 13.9274 14.3651 13.8393 14.2986 13.7259C14.2341 13.6156 14.1036 13.6759 13.9054 13.8019C13.7992 13.8695 13.6998 13.959 13.6325 14.0234C13.6479 13.9221 13.6644 13.7727 13.6631 13.662C13.6612 13.4975 13.6252 13.2848 13.5132 13.2842C13.4012 13.2836 13.3723 13.4684 13.3667 13.6495Z" fill="#E9D315" stroke="black" stroke-width="1.625"/>
<path d="M13.6881 14.1968C13.6881 14.2931 13.6101 14.3712 13.5137 14.3712C13.4174 14.3712 13.3394 14.2931 13.3394 14.1968C13.3394 14.1005 13.4174 14.0225 13.5137 14.0225C13.61 14.0225 13.688 14.1004 13.6881 14.1966" fill="white"/>
<path d="M13.6881 14.1968C13.6881 14.2931 13.6101 14.3712 13.5137 14.3712C13.4174 14.3712 13.3394 14.2931 13.3394 14.1968C13.3394 14.1005 13.4174 14.0225 13.5137 14.0225C13.61 14.0225 13.688 14.1004 13.6881 14.1966" stroke="black" stroke-width="1.86854"/>
</svg>
