<svg width="24" height="24" viewBox="0 0 24 24" fill="none" xmlns="http://www.w3.org/2000/svg">
<mask id="mask0_1_1913" style="mask-type:luminance" maskUnits="userSpaceOnUse" x="0" y="0" width="24" height="24">
<path d="M24 0H0V24H24V0Z" fill="white"/>
</mask>
<g mask="url(#mask0_1_1913)">
<path d="M12 24C18.6274 24 24 18.6274 24 12C24 5.37258 18.6274 0 12 0C5.37258 0 0 5.37258 0 12C0 18.6274 5.37258 24 12 24Z" fill="#F0F0F0"/>
<path d="M3.51471 20.4853C-1.17157 15.7989 -1.17157 8.20098 3.51471 3.51465C3.51438 3.51516 10.4348 12 10.4348 12L3.51471 20.4853Z" fill="black"/>
<path d="M10.4346 12.0004L1.59138 6.02441C1.31721 6.50099 1.07543 6.99843 0.867676 7.5133L5.34466 12.0004L0.867816 16.4878C1.07538 17.0023 1.31693 17.4994 1.59091 17.9756L10.4346 12.0004Z" fill="#FFDA44"/>
<path d="M23.8987 10.4346H10.4347L3.51482 3.51465C2.76914 4.26034 2.12128 5.10366 1.59178 6.02387L7.55611 11.9998L1.59131 17.9749C2.12081 18.8954 2.76895 19.739 3.51482 20.4849L10.4347 13.565H23.8987C23.9654 13.0526 24.0002 12.5303 24.0002 11.9998C24.0002 11.4693 23.9654 10.9469 23.8987 10.4346Z" fill="#6DA544"/>
<path d="M4.69385 21.5196C6.71739 23.075 9.25038 24.0004 11.9999 24.0004C17.5442 24.0004 22.2095 20.24 23.5865 15.1309H11.0827L4.69385 21.5196Z" fill="#0052B4"/>
<path d="M23.5865 8.86955C22.2095 3.76036 17.5442 0 11.9999 0C9.25038 0 6.71739 0.925359 4.69385 2.48077L11.0826 8.86955H23.5865Z" fill="#D80027"/>
</g>
</svg>
