<svg width="24" height="24" viewBox="0 0 24 24" fill="none" xmlns="http://www.w3.org/2000/svg">
<mask id="mask0_1_2422" style="mask-type:luminance" maskUnits="userSpaceOnUse" x="0" y="0" width="24" height="24">
<path d="M24 0H0V24H24V0Z" fill="white"/>
</mask>
<g mask="url(#mask0_1_2422)">
<path d="M12 24C18.6274 24 24 18.6274 24 12C24 5.37258 18.6274 0 12 0C5.37258 0 0 5.37258 0 12C0 18.6274 5.37258 24 12 24Z" fill="#F0F0F0"/>
<path d="M22.8515 6.87173C22.2418 5.58388 21.4097 4.42218 20.4047 3.4357L12.0001 2.6084L3.59537 3.43574C3.56856 3.46204 3.5424 3.48895 3.51587 3.51552L6.87212 6.87177L12.0001 7.02838L22.8515 6.87173Z" fill="#FFDA44"/>
<path d="M3.51562 20.484C3.55978 20.5281 3.60384 20.5723 3.64866 20.6158L12 21.391L20.3512 20.6158C21.3665 19.6315 22.2088 18.4697 22.827 17.1798L7.30425 16.6953C5.96864 18.031 4.42814 19.5714 3.51562 20.484Z" fill="#FFDA44"/>
<path d="M23.8806 10.3081L9.91296 9.91309L11.9999 12.0001C11.3818 12.6182 10.459 13.541 9.91296 14.087L23.8733 13.7442C23.9562 13.1747 23.9999 12.5925 23.9999 12.0001C23.9999 11.4256 23.9587 10.861 23.8806 10.3081Z" fill="black"/>
<path d="M12 0C8.72683 0 5.7603 1.31109 3.59534 3.43603H20.4047C18.2397 1.31109 15.2732 0 12 0Z" fill="#6DA544"/>
<path d="M10.3081 10.3081H23.8807C23.7095 9.09502 23.3572 7.9403 22.8515 6.87207H6.87207L10.3081 10.3081Z" fill="#D80027"/>
<path d="M6.81982 17.1802H22.8271C23.3387 16.1127 23.6966 14.9579 23.8734 13.7441H10.2559C8.92522 15.0748 7.7975 16.2025 6.81982 17.1802Z" fill="#D80027"/>
<path d="M12 24.0001C15.2463 24.0001 18.191 22.7104 20.3512 20.6162H3.6488C5.809 22.7104 8.75369 24.0001 12 24.0001Z" fill="#6DA544"/>
<path d="M4.28504 2.80957C4.01827 3.03373 3.76088 3.26871 3.51465 3.51485L11.9999 12.0002L3.51465 20.4855C3.76084 20.7317 4.01827 20.9666 4.28504 21.1908L13.4756 12.0002L4.28504 2.80957Z" fill="black"/>
<path d="M4.82467 8.86914L5.60162 11.2605H8.11623L6.08195 12.7386L6.85895 15.13L4.82467 13.652L2.79034 15.13L3.56744 12.7386L1.5332 11.2605H4.04767L4.82467 8.86914Z" fill="#D80027"/>
<path d="M6.96184 12.1959L4.93694 11.4786C4.93694 11.4786 4.78731 10.075 4.77827 10.0274C4.70955 9.6654 4.39141 9.3916 4.00937 9.3916C3.57719 9.3916 3.22675 9.74199 3.22675 10.1742C3.22675 10.2459 3.2372 10.3149 3.25525 10.3809L2.6875 10.9525H3.697C3.697 12.0003 2.91512 12.0003 2.91512 13.0438L3.34886 14.0873H5.95755L6.39236 13.0438H6.39217C6.43572 12.9436 6.46216 12.8404 6.47308 12.7372C6.84789 12.5856 6.96184 12.1959 6.96184 12.1959Z" fill="#FFDA44"/>
</g>
</svg>
