<svg width="32" height="24" viewBox="0 0 32 24" fill="none" xmlns="http://www.w3.org/2000/svg">
<g clip-path="url(#clip0_265_248)">
<mask id="mask0_265_248" style="mask-type:luminance" maskUnits="userSpaceOnUse" x="0" y="0" width="32" height="24">
<path d="M32 0H0V24H32V0Z" fill="white"/>
</mask>
<g mask="url(#mask0_265_248)">
<path fill-rule="evenodd" clip-rule="evenodd" d="M0 0V24H32V0H0Z" fill="#1D1D1D"/>
<mask id="mask1_265_248" style="mask-type:luminance" maskUnits="userSpaceOnUse" x="0" y="0" width="32" height="24">
<path fill-rule="evenodd" clip-rule="evenodd" d="M0 0V24H32V0H0Z" fill="white"/>
</mask>
<g mask="url(#mask1_265_248)">
<path fill-rule="evenodd" clip-rule="evenodd" d="M0 0V12H32V0H0Z" fill="#F50100"/>
<g filter="url(#filter0_d_265_248)">
<path fill-rule="evenodd" clip-rule="evenodd" d="M9.84607 9.46387L8.89657 10.1212L9.23154 9.01967L8.30975 8.32438L9.46627 8.30093L9.84607 7.21387L10.2259 8.30093L11.3824 8.32438L10.4606 9.01967L10.7956 10.1212L9.84607 9.46387Z" fill="#FCFF01"/>
<path fill-rule="evenodd" clip-rule="evenodd" d="M9.84607 9.46387L8.89657 10.1212L9.23154 9.01967L8.30975 8.32438L9.46627 8.30093L9.84607 7.21387L10.2259 8.30093L11.3824 8.32438L10.4606 9.01967L10.7956 10.1212L9.84607 9.46387Z" fill="#FCFF01"/>
</g>
<path fill-rule="evenodd" clip-rule="evenodd" d="M11.3726 4.84239L11.7118 4.07422L12.9627 4.62738L12.6356 5.42434C13.0132 5.62928 13.3616 5.85074 13.6803 6.0887L14.3246 5.48414L15.2599 6.4821L14.7084 7.0275C14.9971 7.35344 15.2443 7.70204 15.4494 8.07327L16.186 7.78789L16.6793 9.06356L15.9675 9.36108C15.9908 9.44772 16.0123 9.53532 16.032 9.62388C16.1066 9.95965 16.1587 10.288 16.1893 10.6092L17.039 10.6362L16.9947 12.0032L16.1853 11.9987C16.1404 12.4238 16.055 12.8345 15.9316 13.2314L16.73 13.5839L16.1768 14.8348L15.3828 14.5088C15.2131 14.8152 15.0253 15.0991 14.8136 15.3759C15.7615 15.9826 16.4239 16.4053 16.4239 16.4053C16.4239 16.4053 18.3474 17.5908 18.7114 17.9371C19.0753 18.2833 18.7114 18.5811 18.7114 18.5811C18.7114 18.5811 18.2445 18.9076 18.0637 18.9076C17.883 18.9076 17.4542 18.5451 17.2481 18.2369C17.042 17.9287 15.5933 17.9371 15.5933 17.9371C15.5933 17.9371 14.6957 17.4501 13.4821 16.7832C13.2488 16.9736 12.997 17.1495 12.7311 17.308L13.0252 18.067L11.7495 18.5604L11.4687 17.8885C11.0588 18.0261 10.6345 18.1223 10.2071 18.1691L10.1832 18.9214L8.81615 18.8771L8.82024 18.1372C8.78987 18.1322 8.75954 18.1269 8.72927 18.1213C8.33696 18.0484 7.95391 17.9562 7.58027 17.8445L7.24175 18.6111L5.99084 18.058L6.27761 17.3593C5.87931 17.1798 5.4933 16.9753 5.11975 16.7459L5.88521 15.4938C6.82784 16.0727 7.86335 16.467 8.99619 16.6774C10.0031 16.8644 11.1489 16.5615 12.0589 15.9981C10.1036 14.9149 7.9349 13.6924 7.25613 13.2304C5.93022 12.3279 7.61407 9.85938 7.61407 9.85938C7.61407 9.85938 7.63906 10.665 8.27749 11.1394C8.65099 11.417 11.3758 13.1721 13.5728 14.581C13.8734 14.2021 14.1112 13.8207 14.3113 13.3774C14.7648 12.3728 14.8919 11.2481 14.6019 9.94309C14.1879 8.07939 12.6701 6.7324 9.93302 5.89704L10.3598 4.49219C10.7129 4.59997 11.0506 4.7167 11.3726 4.84239Z" fill="#FCFF01"/>
</g>
</g>
</g>
<defs>
<filter id="filter0_d_265_248" x="8.30975" y="7.21387" width="3.07263" height="2.90723" filterUnits="userSpaceOnUse" color-interpolation-filters="sRGB">
<feFlood flood-opacity="0" result="BackgroundImageFix"/>
<feColorMatrix in="SourceAlpha" type="matrix" values="0 0 0 0 0 0 0 0 0 0 0 0 0 0 0 0 0 0 127 0" result="hardAlpha"/>
<feOffset/>
<feColorMatrix type="matrix" values="0 0 0 0 0 0 0 0 0 0 0 0 0 0 0 0 0 0 0.2 0"/>
<feBlend mode="normal" in2="BackgroundImageFix" result="effect1_dropShadow_265_248"/>
<feBlend mode="normal" in="SourceGraphic" in2="effect1_dropShadow_265_248" result="shape"/>
</filter>
<clipPath id="clip0_265_248">
<rect width="32" height="24" fill="white"/>
</clipPath>
</defs>
</svg>
