<svg width="32" height="24" viewBox="0 0 32 24" fill="none" xmlns="http://www.w3.org/2000/svg">
<g clip-path="url(#clip0_1_12597)">
<path d="M32 0H0V24H32V0Z" fill="white"/>
<path d="M11.0904 21.2289C10.4245 21.4302 9.46517 21.8428 9.08144 22.0742C8.95729 22.1547 8.96858 22.2453 9.16044 22.5874C9.29587 22.8088 9.43131 23 9.45388 23C9.48774 23 9.86018 22.8491 10.2778 22.6579C10.6954 22.4767 11.2289 22.2377 11.4741 22.195C11.6616 22.1623 11.8328 22.1313 11.9388 22.092C11.9815 22.1845 11.9553 22.133 12.033 22.2781C12.1448 22.4867 12.0752 22.482 12.2686 22.5391C12.4724 22.5993 12.9752 22.356 12.9752 22.356C13.562 22.1748 13.8893 22.1547 15.9998 22.1547C18.1103 22.1547 18.4376 22.1748 19.0245 22.366C19.0245 22.366 19.4968 22.5093 19.5575 22.5266C19.6178 22.5438 19.6497 22.5574 19.7134 22.5438C19.7715 22.5313 19.8321 22.4521 19.8588 22.4042C19.8588 22.4042 19.9886 22.1262 20.022 22.0286C20.1344 22.0768 20.3394 22.1396 20.5369 22.195C20.7739 22.2654 21.3043 22.4767 21.7219 22.6579C22.1395 22.8491 22.5119 23 22.5458 23C22.5684 23 22.7038 22.8088 22.8392 22.5874C23.1101 22.1145 23.1327 22.1547 22.1508 21.7019C20.8416 21.0981 19.5324 20.8264 19.4082 21.1182C19.3857 21.1736 19.3665 21.206 19.3355 21.2778C19.2043 21.2508 18.8609 21.1786 18.5166 21.1283C17.4557 20.9572 14.5439 20.9572 13.483 21.1283C13.1388 21.1786 12.9061 21.2626 12.7116 21.3107C12.6015 21.1143 12.6245 21.1924 12.602 21.137C12.5117 20.9358 11.9142 20.9673 11.0904 21.2289Z" fill="#DFDFDF"/>
<path d="M12.0495 8.793C12.0267 9.12092 12.0949 9.35287 12.2731 9.52882C12.3526 9.61281 12.4209 9.71278 12.4209 9.71278C12.4209 9.71278 12.3299 9.81276 12.2541 9.88874C12.076 10.0647 12.004 10.2926 12.004 10.5326C12.004 10.7805 12.076 10.9525 12.2693 11.1764C12.2693 11.1764 12.4324 11.2585 12.4284 11.3604C12.4245 11.4622 12.2541 11.5643 12.2541 11.5643C11.9054 11.9722 11.9168 12.4401 12.2806 12.828L12.436 13H16.006H19.5722L19.7466 12.804C20.0838 12.4241 20.0838 12.0122 19.7503 11.5763C19.7503 11.5763 19.5825 11.4566 19.5798 11.3564C19.5771 11.2561 19.739 11.1564 19.739 11.1564C20.0876 10.7165 20.0801 10.3126 19.72 9.88874C19.5571 9.70078 19.5533 9.66479 19.6821 9.57681C19.8906 9.42885 20.0194 8.92896 19.9247 8.62504C19.7845 8.16915 19.1819 7.86522 18.8143 8.06517C18.746 8.10116 18.6096 8.20114 18.5073 8.28512C18.405 8.37309 18.3102 8.44108 18.2913 8.44108C18.2761 8.44108 18.1852 8.3691 18.0904 8.28112C17.7228 7.9492 17.2801 7.90921 16.9125 8.28512C16.9125 8.28512 16.8601 8.48621 16.7829 8.49307C16.7057 8.49992 16.5972 8.31311 16.5972 8.31311C16.222 7.9412 15.7521 7.95719 15.3693 8.3491C15.3693 8.3491 15.3157 8.51282 15.2291 8.49307C15.1426 8.47332 15.0714 8.28112 15.0714 8.28112C14.8478 8.06517 14.7061 8.06917 14.4484 8.06517C14.3001 8.06276 14.0313 8.09885 13.869 8.2202C13.7067 8.34154 13.7353 8.48691 13.698 8.47707C13.6042 8.45233 13.501 8.30111 13.501 8.30111C13.1371 7.97319 12.8453 7.9172 12.4929 8.11316C12.2162 8.26512 12.0722 8.48907 12.0495 8.793Z" fill="#171796"/>
<path d="M12.2849 14.4919C12.2849 14.4919 12.4301 14.5627 12.4251 14.6533C12.4201 14.744 12.2659 14.8344 12.2659 14.8344C12.1787 14.9328 12.0839 15.0745 12.0536 15.1454C11.9323 15.4485 12.0233 15.8539 12.2621 16.0862C12.4062 16.2318 12.41 16.2909 12.2735 16.4641C12.2128 16.5389 12.1408 16.6451 12.1143 16.7003C11.8299 17.2592 12.2545 17.9599 12.8838 17.9599C13.134 17.9599 13.3236 17.8772 13.4942 17.6883C13.6307 17.5387 13.7027 17.5348 13.824 17.6686C14.0022 17.8733 14.2372 17.9993 14.4343 17.9993C14.6656 17.9993 14.8096 17.9245 15.0447 17.6922C15.0447 17.6922 15.1378 17.5102 15.2229 17.5112C15.3079 17.5121 15.3859 17.6962 15.3859 17.6962C15.7384 18.0898 16.0948 18.1016 16.5687 17.7277C16.5687 17.7277 16.6728 17.5761 16.762 17.5781C16.8512 17.58 16.9288 17.7355 16.9288 17.7355C17.1373 17.9245 17.2927 17.9993 17.4975 17.9993C17.7022 17.9993 17.8538 17.9166 18.0926 17.6726C18.0926 17.6726 18.2159 17.4874 18.2898 17.4757C18.3636 17.4641 18.4414 17.6174 18.4414 17.6174C18.7333 17.8891 18.8925 17.9757 19.1048 17.9757C19.3247 17.9757 19.4801 17.9009 19.7 17.6962C19.9047 17.5033 20.0147 17.2789 19.9881 17.0939C19.9616 16.8931 19.7872 16.5271 19.6583 16.4011C19.6583 16.4011 19.5291 16.3898 19.5484 16.2909C19.5677 16.1919 19.719 16.0901 19.719 16.0901C20.0905 15.6374 20.0943 15.2871 19.7266 14.8383C19.7266 14.8383 19.573 14.7496 19.5749 14.6494C19.5769 14.5491 19.7341 14.4486 19.7341 14.4486C20.0905 14.0117 20.0867 13.6062 19.7266 13.2086L19.5332 13L15.9849 13.0039L12.4365 13.0079L12.2773 13.1929C11.9058 13.622 11.9095 14.0589 12.2849 14.4919Z" fill="#D42E12"/>
<path fill-rule="evenodd" clip-rule="evenodd" d="M17.8206 13.6216C17.9924 13.6216 18.1353 13.7386 18.1649 13.8929L18.1706 13.9524V14.5672L18.9061 14.1767C19.0689 14.0902 19.2718 14.1506 19.3593 14.3115C19.437 14.4545 19.3974 14.6288 19.2733 14.7265L19.2228 14.7593L18.6063 15.0867L19.2228 15.414L19.2733 15.4468C19.3974 15.5445 19.437 15.7188 19.3593 15.8619C19.2718 16.0228 19.0689 16.0831 18.9061 15.9967L18.1706 15.6062V16.2909C18.1706 16.4736 18.0139 16.6216 17.8206 16.6216C17.6488 16.6216 17.5059 16.5047 17.4762 16.3504L17.4706 16.2909V15.6896L16.8922 15.9967C16.7294 16.0831 16.5265 16.0228 16.4391 15.8619C16.3613 15.7188 16.401 15.5445 16.5251 15.4468L16.5755 15.414L17.1921 15.0867L16.5755 14.7593L16.5251 14.7265C16.401 14.6288 16.3613 14.4545 16.4391 14.3115C16.5265 14.1506 16.7294 14.0902 16.8922 14.1767L17.4706 14.4837V13.9524C17.4706 13.7697 17.6273 13.6216 17.8206 13.6216Z" fill="#E9D315"/>
<path fill-rule="evenodd" clip-rule="evenodd" d="M14.4214 13.6216C14.5932 13.6216 14.7361 13.7386 14.7658 13.8929L14.7714 13.9524V14.5672L15.507 14.1767C15.6698 14.0902 15.8726 14.1506 15.9601 14.3115C16.0378 14.4545 15.9982 14.6288 15.8741 14.7265L15.8237 14.7593L15.2071 15.0867L15.8237 15.414L15.8741 15.4468C15.9982 15.5445 16.0378 15.7188 15.9601 15.8619C15.8726 16.0228 15.6698 16.0831 15.507 15.9967L14.7714 15.6062V16.2909C14.7714 16.4736 14.6147 16.6216 14.4214 16.6216C14.2496 16.6216 14.1067 16.5047 14.077 16.3504L14.0714 16.2909V15.6896L13.493 15.9967C13.3302 16.0831 13.1274 16.0228 13.0399 15.8619C12.9622 15.7188 13.0018 15.5445 13.1259 15.4468L13.1763 15.414L13.7929 15.0867L13.1763 14.7593L13.1259 14.7265C13.0018 14.6288 12.9622 14.4545 13.0399 14.3115C13.1274 14.1506 13.3302 14.0902 13.493 14.1767L14.0714 14.4837V13.9524C14.0714 13.7697 14.2281 13.6216 14.4214 13.6216Z" fill="#E9D315"/>
<mask id="mask0_1_12597" style="mask-type:luminance" maskUnits="userSpaceOnUse" x="10" y="6" width="13" height="15">
<path d="M22.0028 6H10.0028V21H22.0028V6Z" fill="white"/>
<path d="M11.0114 18.3569C11.0006 18.5409 11.1061 18.5855 11.2607 18.708C11.5107 18.9062 12.7774 19.1137 14.2081 19.0002C15.5222 19.0096 15.5507 20 16.0186 20C16.4864 20 16.4864 19.0096 17.7544 19.0002C19.3869 19.0253 20.5225 18.9207 20.7564 18.7168C20.7564 18.7168 20.9273 18.5824 20.9714 18.4534C21.0208 18.3085 20.9971 18.1901 20.9971 18.1901V12.8565V7H16H11.0028V12.8565C11.0028 12.8565 11.0049 17.1133 11.0114 18.3569Z" fill="black"/>
</mask>
<g mask="url(#mask0_1_12597)">
<path d="M11.0114 18.3569L11.3109 18.3745L11.3114 18.3649V18.3553L11.0114 18.3569ZM14.2081 19.0002L14.2103 18.7002L14.1973 18.7001L14.1844 18.7012L14.2081 19.0002ZM17.7544 19.0002L17.7591 18.7002H17.7522L17.7544 19.0002ZM20.7564 18.7168L20.571 18.481L20.565 18.4857L20.5593 18.4906L20.7564 18.7168ZM20.9971 18.1901H20.6971V18.2198L20.703 18.2489L20.9971 18.1901ZM20.9971 6.99995H21.2971V6.69995H20.9971V6.99995ZM11.0028 6.99995V6.69995H10.7028V6.99995H11.0028ZM10.7119 18.3392C10.7021 18.5064 10.7498 18.6433 10.8506 18.7558C10.8918 18.8017 10.9371 18.8381 10.9717 18.8648C11.0159 18.899 11.0344 18.9115 11.0744 18.9431L11.447 18.4729C11.4248 18.4553 11.4039 18.4394 11.3857 18.4257C11.3665 18.4112 11.3522 18.4006 11.3383 18.3899C11.31 18.368 11.3005 18.3588 11.2974 18.3552C11.297 18.3549 11.3037 18.3628 11.3083 18.3763C11.3124 18.3885 11.3099 18.391 11.3109 18.3745L10.7119 18.3392ZM11.0744 18.9431C11.191 19.0356 11.3728 19.0978 11.5505 19.1437C11.7432 19.1935 11.9836 19.2366 12.2563 19.2689C12.8023 19.3336 13.4965 19.3576 14.2318 19.2993L14.1844 18.7012C13.4891 18.7563 12.8345 18.7332 12.327 18.6731C12.073 18.6429 11.8604 18.6041 11.7006 18.5628C11.6206 18.5421 11.5577 18.5218 11.5114 18.5034C11.4614 18.4835 11.4451 18.4714 11.447 18.4729L11.0744 18.9431ZM14.206 19.3002C14.4953 19.3023 14.6988 19.3579 14.849 19.4305C14.9996 19.5033 15.1117 19.6005 15.2103 19.7072C15.2608 19.7618 15.3062 19.8172 15.3544 19.8761C15.4001 19.932 15.4522 19.996 15.5064 20.0525C15.615 20.166 15.7784 20.3 16.0186 20.3V19.7C16.0171 19.7 16.0157 19.7006 16.0076 19.696C15.9955 19.6892 15.9742 19.6736 15.9398 19.6377C15.905 19.6013 15.8683 19.5567 15.8188 19.4962C15.7718 19.4387 15.7155 19.3698 15.651 19.3C15.5198 19.158 15.3491 19.0059 15.1102 18.8903C14.8708 18.7746 14.578 18.7029 14.2103 18.7002L14.206 19.3002ZM16.0186 20.3C16.2605 20.3 16.4227 20.1643 16.5296 20.0483C16.5824 19.9908 16.6325 19.9262 16.6761 19.87C16.7222 19.8106 16.7649 19.7554 16.8125 19.7008C16.9054 19.5943 17.0096 19.499 17.1498 19.4279C17.2892 19.3572 17.4804 19.3023 17.7567 19.3002L17.7522 18.7002C17.3945 18.7029 17.1101 18.7753 16.8783 18.8929C16.6472 19.0101 16.4844 19.1642 16.3603 19.3064C16.2994 19.3763 16.2462 19.4453 16.202 19.5023C16.1553 19.5625 16.1208 19.6064 16.0881 19.6419C16.0559 19.6769 16.0364 19.6914 16.0262 19.6972C16.0201 19.7007 16.0199 19.7 16.0186 19.7V20.3ZM17.7498 19.3002C18.572 19.3128 19.2758 19.293 19.8079 19.2431C20.0733 19.2182 20.3028 19.1852 20.4858 19.1429C20.6524 19.1044 20.8338 19.0473 20.9535 18.943L20.5593 18.4906C20.5621 18.4882 20.5138 18.5206 20.3507 18.5583C20.2039 18.5922 20.0036 18.6221 19.7519 18.6457C19.2495 18.6928 18.5693 18.7126 17.7591 18.7002L17.7498 19.3002ZM20.7564 18.7168C20.9419 18.9526 20.9419 18.9526 20.9419 18.9526C20.9422 18.9524 20.9433 18.9515 20.9436 18.9512C20.9444 18.9506 20.9453 18.9499 20.9464 18.949C20.9486 18.9472 20.9514 18.945 20.9548 18.9422C20.9615 18.9366 20.9706 18.929 20.9813 18.9196C21.0026 18.901 21.0316 18.8745 21.0627 18.8423C21.1164 18.787 21.2106 18.6812 21.2553 18.5503L20.6875 18.3564C20.6895 18.3505 20.6884 18.3561 20.676 18.3733C20.6647 18.3889 20.6495 18.4066 20.632 18.4246C20.615 18.4422 20.5985 18.4573 20.5863 18.468C20.5803 18.4732 20.5757 18.4771 20.5729 18.4794C20.5715 18.4805 20.5713 18.4807 20.571 18.481C20.571 18.481 20.571 18.481 20.7564 18.7168ZM21.2553 18.5503C21.2927 18.4407 21.3024 18.3415 21.3028 18.2691C21.303 18.2326 21.3008 18.2018 21.2983 18.1786C21.2971 18.1669 21.2957 18.157 21.2945 18.1491C21.2938 18.1451 21.2932 18.1417 21.2927 18.1387C21.2924 18.1372 21.2922 18.1358 21.292 18.1346C21.2918 18.134 21.2917 18.1334 21.2916 18.1328C21.2916 18.1326 21.2916 18.1331 21.2916 18.1328C21.2915 18.1327 21.2914 18.1318 21.2914 18.1317C21.2913 18.1316 21.2913 18.1313 20.9971 18.1901C20.703 18.2489 20.703 18.249 20.703 18.2489C20.703 18.2487 20.703 18.249 20.703 18.2489C20.703 18.2487 20.7027 18.2478 20.7027 18.2475C20.7026 18.2471 20.7025 18.2467 20.7025 18.2463C20.7023 18.2455 20.7022 18.2448 20.7021 18.2443C20.7019 18.2431 20.7017 18.2423 20.7017 18.2419C20.7015 18.241 20.7016 18.2415 20.7018 18.2432C20.7022 18.2467 20.7029 18.2546 20.7028 18.2658C20.7027 18.2887 20.6995 18.3212 20.6875 18.3564L21.2553 18.5503ZM21.2971 18.1901V12.8565H20.6971V18.1901H21.2971ZM21.2971 12.8565V6.99995H20.6971V12.8565H21.2971ZM20.9971 6.69995H16V7.29995H20.9971V6.69995ZM16 6.69995H11.0028V7.29995H16V6.69995ZM10.7028 6.99995V12.8565H11.3028V6.99995H10.7028ZM11.3028 12.8565C11.0029 13.1565 10.7028 12.8565 10.7028 12.8565C10.7028 12.8563 10.7028 12.8567 10.7028 12.8565C10.7028 12.857 10.7028 12.8587 10.7028 12.8597C10.7028 12.8618 10.7028 12.8648 10.7028 12.8689C10.7028 12.877 10.7028 12.889 10.7028 12.9048C10.7028 12.9362 10.7029 12.9826 10.7029 13.042C10.703 13.1608 10.7031 13.332 10.7032 13.5413C10.7035 13.9598 10.704 14.5308 10.7047 15.1407C10.706 16.3601 10.7081 17.7359 10.7114 18.3584L11.3114 18.3553C11.3081 17.7343 11.306 16.3599 11.3047 15.14C11.304 14.5302 11.3035 13.9593 11.3032 13.5408C11.3031 13.3316 11.303 13.1605 11.3029 13.0417C11.3029 12.9822 11.3028 12.9359 11.3028 12.9044C11.3028 12.8887 11.3028 12.8767 11.3028 12.8686C11.3028 12.8645 11.3028 12.8615 11.3028 12.8594C11.3028 12.8584 11.3028 12.857 11.3028 12.8565C11.3028 12.8567 11.3028 12.8563 11.3028 12.8565C11.3028 12.8565 11.0027 12.5565 10.7028 12.8565H11.3028Z" fill="black"/>
</g>
<path d="M14.8687 9.86566C14.6003 10.3654 14.5889 10.5897 14.812 10.9901C14.9859 11.2977 15.19 11.4931 15.4698 11.6181C16.1995 11.948 17.1333 11.7045 17.5 11.0894C17.7268 10.7114 17.7003 10.0803 17.4508 9.80479L17.3828 9.73111L17.3185 9.94896C17.2278 10.2597 17.137 10.4167 16.9556 10.5833C16.6153 10.894 16.1465 10.9645 15.6626 10.7723C15.2883 10.6217 15.1371 10.4135 14.9972 9.83362L14.9632 9.68945L14.8687 9.86566Z" fill="white"/>
<path fill-rule="evenodd" clip-rule="evenodd" d="M18.4785 3.5C18.4785 4.36593 17.8551 5 16.9781 5C16.1011 5 15.483 4.36593 15.483 3.5C15.483 2.62934 16.1011 2 16.9781 2C17.8551 2 18.4785 2.62934 18.4785 3.5ZM6.52302 4.95268V2.93218L7.41585 4.95268H7.80679L8.67849 2.93218V4.95268H9.20679V2.04732H8.59396L7.6166 4.28076L6.62868 2.04732H6V4.95268H6.52302ZM10.2264 4.95268L10.5592 4.14827H11.8008L12.1336 4.95268H12.6936L11.4468 2.04732H10.9185L9.6717 4.95268H10.2264ZM11.1774 2.64827L10.7336 3.7224H11.6211L11.1774 2.64827ZM14.2521 4.95268V3.79338L15.4302 2.04732H14.8491L13.9932 3.34858L13.1321 2.04732H12.5351L13.7079 3.79338V4.95268H14.2521ZM16.9781 4.55994C16.4075 4.55994 16.0377 4.11514 16.0377 3.5C16.0377 2.88486 16.4075 2.44006 16.9781 2.44006C17.5487 2.44006 17.9238 2.88486 17.9238 3.5C17.9238 4.11514 17.5487 4.55994 16.9781 4.55994ZM20.2642 2.48265V4.95268H19.7147V2.48265H18.637V2.04732H21.3419V2.48265H20.2642ZM23.286 4.95268V2.48265H24.3638V2.04732H21.6589V2.48265H22.7366V4.95268H23.286ZM27 4.51262V4.95268H24.8815V2.04732H27V2.48265H25.4204V3.24921H26.8521V3.67981H25.4204V4.51262H27Z" fill="#FF2500"/>
<path fill-rule="evenodd" clip-rule="evenodd" d="M26.7765 18.8001C26.7765 18.8001 26.4364 18.1304 27.2963 17.7998C28.1562 17.4693 28.5765 17.9006 28.9553 18.3009C29.3341 18.7012 29.2925 19.9094 29.2925 19.9094L28.3565 21.4064L25.4854 22L24.3414 21.4064L23 18.8001L23.1002 16.2414C23.1002 16.2414 23.2359 15.2613 23.2359 15.0584C23.2359 14.8555 23.8591 13.2829 23.8591 13.2829L24.4492 12.6984L26.1181 11.8105L26.9039 11.418L27.8797 10.1846L27.7718 9.20278L26.6597 10.6193H25.7177L24.7372 11.03L24.3414 11.4032L23.8591 11.418L23.6701 11.03L24.1966 10.1846L24.9919 9.38395L24.6261 8.70683L25.1676 8.46016L25.0635 8.08691L25.6645 8.46016L26.1181 8.08691L26.2045 7.74363L25.1676 7.18797C25.1676 7.18797 26.1821 6.7623 26.6597 6.80672C27.1373 6.85114 27.5879 7.41309 27.5879 7.41309L28.9553 7.18797C28.9553 7.18797 28.5892 8.08691 28.7075 8.08691C28.8258 8.08691 29.5685 8.08691 29.5685 8.08691L29.2925 9.20278H30.3514L29.5685 10.0624L30.1797 10.3975L29.2498 11.03L30.1797 11.6557L29.3151 12.2236L29.8022 13.1653L30.5688 12.6984L31 13.2829L30.3514 14.7224L29.2925 15.4736L28.2837 15.7278L27.2963 15.9844L26.9039 16.2414L26.6597 15.2565L24.9919 16.4002L24.1256 18.1937L24.3806 19.8233L24.9919 20.6577L26.1181 21.061L27.5879 20.7848L28.3565 19.8496L28.5401 18.8952C28.5401 18.8952 28.0947 18.2471 27.7718 18.3009C27.4488 18.3547 26.7765 18.8001 26.7765 18.8001Z" fill="#DFDFDF" stroke="black" stroke-width="0.3"/>
<path d="M25.0822 12.2245L25.0453 12.6228C26.1996 12.7298 26.9633 12.6722 27.3622 12.4237L27.4421 12.3675L27.1932 12.0544C26.9503 12.2475 26.3171 12.3194 25.319 12.2444L25.0822 12.2245Z" fill="black"/>
<path d="M23.7437 13.3788L23.7068 13.7771C24.8611 13.8841 25.6248 13.8264 26.0237 13.578L26.1036 13.5218L25.8547 13.2087C25.6118 13.4018 24.9786 13.4737 23.9805 13.3987L23.7437 13.3788Z" fill="black"/>
<path d="M23.422 14.455L23.3556 14.8494C24.0356 14.9638 24.4624 14.9113 24.6062 14.6138L24.6362 14.5343L24.2514 14.4248C24.2314 14.4953 24.0156 14.5373 23.5766 14.4785L23.422 14.455Z" fill="black"/>
<path fill-rule="evenodd" clip-rule="evenodd" d="M25.75 9.5C25.6119 9.5 25.5 9.38807 25.5 9.25C25.5 9.11193 25.6119 9 25.75 9C25.8881 9 26 9.11193 26 9.25C26 9.38807 25.8881 9.5 25.75 9.5Z" fill="black"/>
<path fill-rule="evenodd" clip-rule="evenodd" d="M5.22353 18.8001C5.22353 18.8001 5.56358 18.1304 4.70366 17.7998C3.84375 17.4693 3.42345 17.9006 3.04469 18.3009C2.66592 18.7012 2.70754 19.9094 2.70754 19.9094L3.64348 21.4064L6.51462 22L7.65865 21.4064L9 18.8001L8.89977 16.2414C8.89977 16.2414 8.76409 15.2613 8.76409 15.0584C8.76409 14.8555 8.14093 13.2829 8.14093 13.2829L7.55083 12.6984L5.88193 11.8105L5.09607 11.418L4.12029 10.1846L4.22825 9.20278L5.3403 10.6193H6.28226L7.26276 11.03L7.65865 11.4032L8.14093 11.418L8.32989 11.03L7.80336 10.1846L7.00806 9.38395L7.37387 8.70683L6.83237 8.46016L6.93655 8.08691L6.33551 8.46016L5.88193 8.08691L5.79552 7.74363L6.83237 7.18797C6.83237 7.18797 5.81789 6.7623 5.3403 6.80672C4.86272 6.85114 4.41214 7.41309 4.41214 7.41309L3.04469 7.18797C3.04469 7.18797 3.41078 8.08691 3.29247 8.08691C3.17416 8.08691 2.43146 8.08691 2.43146 8.08691L2.70754 9.20278H1.64862L2.43146 10.0624L1.82034 10.3975L2.75017 11.03L1.82034 11.6557L2.68488 12.2236L2.19779 13.1653L1.43118 12.6984L1 13.2829L1.64862 14.7224L2.70754 15.4736L3.71632 15.7278L4.70366 15.9844L5.09607 16.2414L5.3403 15.2565L7.00806 16.4002L7.87441 18.1937L7.61938 19.8233L7.00806 20.6577L5.88193 21.061L4.41214 20.7848L3.64348 19.8496L3.45994 18.8952C3.45994 18.8952 3.90528 18.2471 4.22825 18.3009C4.55122 18.3547 5.22353 18.8001 5.22353 18.8001Z" fill="#DFDFDF" stroke="black" stroke-width="0.3"/>
<path d="M6.91777 12.2245L6.95471 12.6228C5.80043 12.7298 5.03672 12.6722 4.63778 12.4237L4.55786 12.3675L4.80679 12.0544C5.04966 12.2475 5.68286 12.3194 6.68097 12.2444L6.91777 12.2245Z" fill="black"/>
<path d="M8.25628 13.3788L8.29321 13.7771C7.13893 13.8841 6.37522 13.8264 5.97628 13.578L5.89636 13.5218L6.14529 13.2087C6.38816 13.4018 7.02136 13.4737 8.01947 13.3987L8.25628 13.3788Z" fill="black"/>
<path d="M8.57799 14.455L8.64431 14.8494C7.96431 14.9638 7.53755 14.9113 7.3938 14.6138L7.36377 14.5343L7.74851 14.4248C7.76856 14.4953 7.98431 14.5373 8.42334 14.4785L8.57799 14.455Z" fill="black"/>
<path fill-rule="evenodd" clip-rule="evenodd" d="M6.25 9.5C6.38807 9.5 6.5 9.38807 6.5 9.25C6.5 9.11193 6.38807 9 6.25 9C6.11193 9 6 9.11193 6 9.25C6 9.38807 6.11193 9.5 6.25 9.5Z" fill="black"/>
</g>
<defs>
<clipPath id="clip0_1_12597">
<rect width="32" height="24" fill="white"/>
</clipPath>
</defs>
</svg>
